<svg xmlns="http://www.w3.org/2000/svg" xmlns:xlink="http://www.w3.org/1999/xlink" xmlns:inkscape="http://www.inkscape.org/namespaces/inkscape" version="1.1" width="75" height="103" viewBox="0 0 75 103">
<path transform="matrix(1.00003,0,0,-1,37.530565,15.972)" stroke-width=".3985" stroke-linecap="butt" stroke-miterlimit="10" stroke-linejoin="miter" fill="none" stroke="#000000" d="M35.43349 0C35.43349 7.82784 19.56963 14.17339 0 14.17339-19.56963 14.17339-35.43349 7.82784-35.43349 0-35.43349-7.82784-19.56963-14.17339 0-14.17339 19.56963-14.17339 35.43349-7.82784 35.43349 0ZM0 0"/>
<path transform="matrix(1.00003,0,0,-1,37.530565,15.972)" stroke-width=".3985" stroke-linecap="butt" stroke-miterlimit="10" stroke-linejoin="miter" fill="none" stroke="#000000" d="M-35.43349 0V-70.867"/>
<path transform="matrix(1.00003,0,0,-1,37.530565,15.972)" stroke-width=".3985" stroke-linecap="butt" stroke-miterlimit="10" stroke-linejoin="miter" fill="none" stroke="#000000" d="M-35.43349-70.867C-35.43349-78.69485-19.56963-85.0404 0-85.0404 19.56963-85.0404 35.43349-78.69485 35.43349-70.867"/>
<path transform="matrix(1.00003,0,0,-1,37.530565,15.972)" stroke-width=".3985" stroke-linecap="butt" stroke-dasharray="2.98883,2.98883" stroke-miterlimit="10" stroke-linejoin="miter" fill="none" stroke="#000000" d="M-35.43349-70.867C-35.43349-63.03915-19.56963-56.69362 0-56.69362 19.56963-56.69362 35.43349-63.03915 35.43349-70.867"/>
<path transform="matrix(1.00003,0,0,-1,37.530565,15.972)" stroke-width=".3985" stroke-linecap="butt" stroke-miterlimit="10" stroke-linejoin="miter" fill="none" stroke="#000000" d="M35.43349-70.867V0"/>
<path transform="matrix(1.00003,0,0,-1,37.530565,15.972)" d="M-35.43349 0V-70.867C-35.43349-78.69485-19.56963-85.0404 0-85.0404 19.56963-85.0404 35.43349-78.69485 35.43349-70.867V0C35.43349-7.82784 19.56963-14.17339 0-14.17339-19.56963-14.17339-35.43349-7.82784-35.43349 0" fill="#7f807f" fill-opacity=".5"/>
</svg>
