<svg xmlns="http://www.w3.org/2000/svg" xmlns:xlink="http://www.w3.org/1999/xlink" xmlns:inkscape="http://www.inkscape.org/namespaces/inkscape" version="1.1" width="305" height="104" viewBox="0 0 305 104">
<defs>
<clipPath id="clip_1">
<path transform="matrix(1.00003,0,0,-1,1.0964966,102.324)" d="M0 0H293.89833V90.6582H0Z"/>
</clipPath>
<path id="font_2_2" d="M.08799744 .059265138C.084991458 .044265748 .07899475 .021255494 .07899475 .01625061 .07899475-.0017547608 .09298706-.0107421879 .10798645-.0107421879 .11999512-.0107421879 .13798523-.002746582 .14498902 .01725769 .14698792 .021255494 .18099976 .15730286 .18499756 .17530823 .19299317 .20831299 .21099854 .27833558 .21699524 .30534364 .22099304 .31835938 .24899292 .36535646 .272995 .38734437 .2809906 .39434815 .30999757 .42037965 .35299684 .42037965 .3789978 .42037965 .3939972 .4083557 .394989 .4083557 .36499024 .40335084 .34298707 .37934876 .34298707 .35334779 .34298707 .33735658 .35398866 .31835938 .3809967 .31835938 .4079895 .31835938 .43598939 .34135438 .43598939 .37734986 .43598939 .41235353 .4039917 .4423828 .35299684 .4423828 .28799439 .4423828 .24398804 .39335633 .22499085 .36535646 .21699524 .4103546 .18099976 .4423828 .13398743 .4423828 .08799744 .4423828 .068984989 .40335084 .05999756 .38534547 .041992189 .35134889 .0289917 .29133607 .0289917 .28834535 .0289917 .27833558 .038986207 .27833558 .040985109 .27833558 .050994874 .27833558 .051986696 .27934266 .057998659 .30134584 .07499695 .37234498 .09498596 .42037965 .1309967 .42037965 .147995 .42037965 .1619873 .41235353 .1619873 .37435914 .1619873 .35334779 .15899658 .3423462 .1459961 .29034425L.08799744 .059265138Z"/>
<path id="font_2_3" d="M.33399964 .30233766C.33999635 .32835389 .36299134 .42037965 .43299867 .42037965 .43798829 .42037965 .46199037 .42037965 .48298646 .40734864 .45498658 .402359 .43499757 .37734986 .43499757 .35334779 .43499757 .33735658 .44599916 .31835938 .47299195 .31835938 .49499513 .31835938 .5269928 .3363495 .5269928 .37635804 .5269928 .42837525 .46798707 .4423828 .43399049 .4423828 .37599183 .4423828 .34098817 .38935853 .32899476 .36634828 .3039856 .43237306 .25 .4423828 .22099304 .4423828 .116989139 .4423828 .05999756 .3133545 .05999756 .28834535 .05999756 .27833558 .069992069 .27833558 .07199097 .27833558 .07998657 .27833558 .08299255 .28033448 .084991458 .28933717 .11898804 .39535523 .18499756 .42037965 .21899414 .42037965 .23799134 .42037965 .272995 .4113617 .272995 .35334779 .272995 .32235719 .2559967 .25532533 .21899414 .11528015 .20298767 .053268434 .16799927 .011245728 .12399292 .011245728 .117996219 .011245728 .09498596 .011245728 .07398987 .024276734 .09899902 .029266358 .12098694 .05027771 .12098694 .07827759 .12098694 .105270389 .09899902 .11328125 .083999637 .11328125 .053985597 .11328125 .0289917 .08728027 .0289917 .055267335 .0289917 .009246826 .07899475-.0107421879 .12298584-.0107421879 .18899536-.0107421879 .22499085 .059280397 .22799683 .0652771 .23999024 .028274537 .27598573-.0107421879 .33599855-.0107421879 .43899537-.0107421879 .49598695 .118270877 .49598695 .14328003 .49598695 .1532898 .4869995 .1532898 .48399354 .1532898 .47499085 .1532898 .47299195 .14929199 .47099305 .14228821 .43798829 .03527832 .36999513 .011245728 .33799745 .011245728 .29899598 .011245728 .2829895 .043273927 .2829895 .07727051 .2829895 .09927368 .2889862 .121276859 .2999878 .16529846L.33399964 .30233766Z"/>
<path id="font_3_1" d="M.5159912 .31925965C.5159912 .42918397 .5029907 .50813296 .45700074 .5780945 .42599488 .62405398 .3639984 .6640625 .28399659 .6640625 .051986696 .6640625 .051986696 .39120484 .051986696 .31925965 .051986696 .2472992 .051986696-.01953125 .28399659-.01953125 .5159912-.01953125 .5159912 .2472992 .5159912 .31925965M.28399659 .008468628C.23799134 .008468628 .1769867 .035446168 .15699768 .117385867 .14299011 .17634583 .14299011 .25830079 .14299011 .33224488 .14299011 .40519715 .14299011 .4811554 .1579895 .53611758 .1789856 .6150665 .24299622 .63604739 .28399659 .63604739 .33799745 .63604739 .3899994 .6030731 .4079895 .545105 .42399598 .4911499 .4249878 .41918946 .4249878 .33224488 .4249878 .25830079 .4249878 .18434143 .4119873 .12138367 .3919983 .030441285 .32398988 .008468628 .28399659 .008468628Z"/>
<path id="font_3_2" d="M.33499146 .63612368C.33499146 .6630554 .33299256 .6640625 .30499269 .6640625 .24099732 .6014404 .1499939 .6004486 .10899353 .6004486V.5644531C.1329956 .5644531 .19898987 .5644531 .2539978 .592453V.08203125C.2539978 .04899597 .2539978 .035995485 .1539917 .035995485H.115997318V0C.13398743 .0009918213 .25698854 .0039978029 .2939911 .0039978029 .32499696 .0039978029 .45098878 .0009918213 .47299195 0V.035995485H.43499757C.33499146 .035995485 .33499146 .04899597 .33499146 .08203125V.63612368Z"/>
<path id="font_3_3" d="M.5049896 .18203736H.47099305C.46798707 .16001892 .45799256 .100997928 .44499208 .09098816 .43699647 .084991458 .3600006 .084991458 .34599305 .084991458H.1619873C.2669983 .17803955 .3019867 .20603943 .3619995 .25306703 .43598939 .312088 .5049896 .374115 .5049896 .46914674 .5049896 .5900879 .39898683 .6640625 .2709961 .6640625 .14698792 .6640625 .06298828 .57710269 .06298828 .4851532 .06298828 .43414308 .10598755 .42915345 .115997318 .42915345 .13999939 .42915345 .16899109 .44615174 .16899109 .48214723 .16899109 .5001526 .1619873 .53515627 .10998535 .53515627 .14099121 .6060791 .20899964 .62805178 .2559967 .62805178 .35598756 .62805178 .4079895 .5501404 .4079895 .46914674 .4079895 .38212586 .34599305 .3130951 .31399537 .27708436L.07299805 .038986207C.06298828 .02999878 .06298828 .027999878 .06298828 0H.47499085L.5049896 .18203736Z"/>
<path id="font_3_4" d="M.272995 .33428956C.35099793 .33428956 .40699769 .2803192 .40699769 .1733551 .40699769 .04940796 .33499146 .012466431 .2769928 .012466431 .23699951 .012466431 .14898682 .0234375 .10699463 .082351688 .1539917 .084350589 .16499329 .11735535 .16499329 .13835144 .16499329 .17034912 .14099121 .19335938 .10998535 .19335938 .08198547 .19335938 .053985597 .17634583 .053985597 .13534546 .053985597 .041412355 .1579895-.01953125 .2789917-.01953125 .41799928-.01953125 .5139923 .07336426 .5139923 .1733551 .5139923 .2513275 .44999696 .32929994 .33999635 .35229493 .44499208 .39024354 .48298646 .4650879 .48298646 .5260773 .48298646 .60505679 .3919983 .6640625 .2809906 .6640625 .16999817 .6640625 .084991458 .61006167 .084991458 .5300751 .084991458 .49606324 .10699463 .47706605 .13699341 .47706605 .16799927 .47706605 .18798828 .5000763 .18798828 .5280762 .18798828 .5570679 .16799927 .57806399 .13699341 .5800781 .17199707 .62405398 .24099732 .63505557 .27799989 .63505557 .32299806 .63505557 .38598634 .6130676 .38598634 .5260773 .38598634 .48406983 .37199403 .43814088 .34599305 .4072113 .31298829 .36927796 .2849884 .3672943 .23498535 .36428834 .20999146 .3623047 .20799256 .3623047 .20298767 .3612976 .20098877 .3612976 .19299317 .3592987 .19299317 .34829713 .19299317 .33428956 .20199585 .33428956 .21899414 .33428956H.272995Z"/>
<path id="font_2_1" d="M.36698915 .3996582H.45298768C.47299195 .3996582 .48298646 .3996582 .48298646 .41966249 .48298646 .43066407 .47299195 .43066407 .45599366 .43066407H.37298585L.3939972 .5449524C.397995 .5660095 .4119873 .6370239 .41799928 .6490326 .4269867 .66804507 .44400025 .68307498 .46499635 .68307498 .46899415 .68307498 .49499513 .68307498 .5139923 .66503909 .46998597 .661026 .45999146 .6260376 .45999146 .6110382 .45999146 .58802798 .47799684 .57603457 .49699403 .57603457 .522995 .57603457 .5519867 .5980377 .5519867 .6360321 .5519867 .6820679 .5059967 .7050781 .46499635 .7050781 .43099977 .7050781 .36799623 .68707278 .33799745 .58802798 .33198548 .56700137 .32899476 .5569763 .30499269 .43066407H.23599243C.21699524 .43066407 .20599365 .43066407 .20599365 .4116516 .20599365 .3996582 .21499634 .3996582 .23399353 .3996582H.2999878L.22499085 .0048828127C.20698548-.09207153 .18998719-.18309021 .13798523-.18309021 .13398743-.18309021 .10899353-.18309021 .08999634-.16506958 .13598633-.1620636 .14498902-.12606812 .14498902-.111068729 .14498902-.08807373 .1269989-.07606506 .10798645-.07606506 .08198547-.07606506 .052993776-.09806824 .052993776-.13606262 .052993776-.18109131 .09700012-.20507813 .13798523-.20507813 .19299317-.20507813 .23298645-.14607239 .25099183-.108062747 .2829895-.04508972 .30599977 .07583618 .30699159 .082839969L.36698915 .3996582Z"/>
<path id="font_4_1" d="M.33099366-.2400055C.33099366-.23701477 .33099366-.23500061 .31399537-.21800232 .18899536-.0920105 .15699768 .09700012 .15699768 .25 .15699768 .42399598 .19499207 .59799197 .31799317 .72299197 .33099366 .73498538 .33099366 .7369995 .33099366 .73999026 .33099366 .746994 .32699586 .75 .32099916 .75 .31098939 .75 .22099304 .6819916 .1619873 .5549927 .11099243 .44499208 .09899902 .33399964 .09899902 .25 .09899902 .17199707 .10998535 .050994874 .16499329-.06201172 .22499085-.18501282 .31098939-.25 .32099916-.25 .32699586-.25 .33099366-.24700928 .33099366-.2400055Z"/>
<path id="font_4_2" d="M.2889862 .25C.2889862 .32798768 .27799989 .44898988 .22299195 .56199648 .16299439 .68499758 .07699585 .75 .066986087 .75 .06098938 .75 .056991579 .74598696 .056991579 .73999026 .056991579 .7369995 .056991579 .73498538 .07598877 .71699526 .17399597 .6179962 .23098755 .45899964 .23098755 .25 .23098755 .07899475 .19400025-.09700012 .069992069-.2230072 .056991579-.23500061 .056991579-.23701477 .056991579-.2400055 .056991579-.2460022 .06098938-.25 .066986087-.25 .07699585-.25 .16699219-.18200684 .22599793-.055007936 .2769928 .054992677 .2889862 .16600037 .2889862 .25Z"/>
<path id="font_2_4" d="M.48599244 .38136292C.48999024 .39537049 .48999024 .39736939 .48999024 .40437318 .48999024 .42237855 .47599793 .43138124 .46099855 .43138124 .45098878 .43138124 .43499757 .42536927 .42599488 .41036988 .42399598 .405365 .41600038 .37435914 .4119873 .35635377 .40499879 .33035279 .397995 .30334474 .3919983 .27633668L.34700013 .09628296C.34298707 .08126831 .2999878 .011245728 .23399353 .011245728 .18299866 .011245728 .17199707 .055267335 .17199707 .0922699 .17199707 .1382904 .18899536 .20030213 .22299195 .28833009 .23899842 .3293457 .24299622 .3403473 .24299622 .36035157 .24299622 .405365 .21099854 .4423828 .16099549 .4423828 .06599426 .4423828 .0289917 .29733277 .0289917 .28833009 .0289917 .27833558 .038986207 .27833558 .040985109 .27833558 .050994874 .27833558 .051986696 .28033448 .056991579 .29634095 .083999637 .3903656 .12399292 .42037965 .1579895 .42037965 .1659851 .42037965 .18299866 .42037965 .18299866 .3883667 .18299866 .36335755 .17298889 .3373413 .1659851 .31834413 .12599182 .21231079 .10798645 .1552887 .10798645 .10827637 .10798645 .019256592 .17098999-.0107421879 .22999573-.0107421879 .2689972-.0107421879 .30299378 .0062561037 .33099366 .03425598 .31799317-.017745972 .30599977-.06674194 .2659912-.11973572 .23999024-.15385437 .20199585-.18309021 .1559906-.18309021 .14199829-.18309021 .09700012-.18005371 .07998657-.14074707 .09599304-.14074707 .10899353-.14074707 .12298584-.1287384 .1329956-.11973572 .14299011-.10673523 .14299011-.08773804 .14299011-.056747438 .115997318-.052734376 .10598755-.052734376 .08299255-.052734376 .049987794-.068740848 .049987794-.11773682 .049987794-.16796875 .09399414-.20507813 .1559906-.20507813 .25898744-.20507813 .3619995-.11373901 .3899994-.00074768069L.48599244 .38136292Z"/>
</defs>
<path transform="matrix(1.00003,0,0,-1,1.0964966,102.324)" stroke-width=".19925" stroke-linecap="butt" stroke-miterlimit="10" stroke-linejoin="miter" fill="none" stroke="#7f807f" d=""/>
<path transform="matrix(1.00003,0,0,-1,1.0964966,102.324)" stroke-width=".19925" stroke-linecap="butt" stroke-miterlimit="10" stroke-linejoin="miter" fill="none" stroke="#7f807f" d=""/>
<path transform="matrix(1.00003,0,0,-1,1.0964966,102.324)" stroke-width=".3985" stroke-linecap="butt" stroke-miterlimit="10" stroke-linejoin="miter" fill="none" stroke="#000000" d="M0 12.95117H291.9058"/>
<path transform="matrix(1.00003,0,0,-1,293.01106,89.372829)" d="M1.99252 0-1.19551 1.59401 0 0-1.19551-1.59401"/>
<path transform="matrix(1.00003,0,0,-1,1.0964966,102.324)" stroke-width=".3985" stroke-linecap="butt" stroke-miterlimit="10" stroke-linejoin="miter" fill="none" stroke="#000000" d="M32.65536 0V88.66568"/>
<path transform="matrix(0,-1,-1.00003,-0,33.75284,13.658318)" d="M1.99252 0-1.19551 1.59401 0 0-1.19551-1.59401"/>
<g clip-path="url(#clip_1)">
<path transform="matrix(1.00003,0,0,-1,1.0964966,102.324)" stroke-width=".79701" stroke-linecap="butt" stroke-miterlimit="10" stroke-linejoin="miter" fill="none" stroke="#000000" d="M0 8.19373 3.62799 8.28862 7.256 8.38957 10.88402 8.49611 14.51202 8.6086 18.14005 8.72739 21.76805 8.85278 25.39607 8.98512 29.02408 9.12486 32.6521 9.27237 36.2801 9.42807 39.90813 9.5924 43.53613 9.76596 47.16414 9.94916 50.79214 10.14256 54.42015 10.34674 58.04817 10.56229 61.67618 10.78984 65.3042 11.03003 68.9322 11.28372 72.56023 11.55136 76.18823 11.83398 79.81625 12.13228 83.44426 12.44733 87.07227 12.77979 90.70029 13.13098 94.3283 13.50153 97.9563 13.8927 101.5843 14.30566 105.21233 14.7416 108.84033 15.20181 112.46835 15.6876 116.09636 16.20055 119.72438 16.74216 123.35239 17.31369 126.9804 17.91714 130.60842 18.55415 134.23642 19.22665 137.86444 19.93663 141.49245 20.68617 145.12046 21.47723 148.74846 22.31265 152.37648 23.19418 156.00449 24.12491 159.6325 25.10751 163.26052 26.1451 166.88854 27.24013 170.51654 28.39641 174.14455 29.61687 177.77257 30.90536 181.40058 32.2655 185.0286 33.70166 188.6566 35.21779 192.2846 36.81726 195.91262 38.50706 199.54064 40.29044 203.16864 42.17354 206.79666 44.16045 210.42467 46.25917 214.05268 48.4741 217.6807 50.81326 221.3087 53.28137 224.93672 55.8878 228.56473 58.639 232.19275 61.54332 235.82076 64.60951 239.44876 67.84613 243.07677 71.26576 246.70479 74.87265 250.3328 78.68095 253.9608 82.70035 257.5888 86.94316 261.21684 91.42427 264.84486 96.15402 268.47285 101.14801 272.1009 106.41785 275.72889 111.98166 279.3569 117.85567 282.98493 124.05733 286.6129 130.60414 290.2409 137.5136 293.86894 144.8103 297.49696 152.513 301.12495 160.64505 304.753 169.2265 308.38099 178.29167 312.009 187.85675 315.63703 197.95803 319.26506 208.61425 322.89305 219.8727 326.52107 231.75153 330.14906 244.29344 333.77705 257.5347 337.4051 271.51164 341.03309 286.27015 344.66114 301.85234 348.2891 318.29774 351.91716 335.66267 355.5451 353.9873 359.17314 373.33894"/>
<path transform="matrix(1.00003,0,0,-1,1.0964966,102.324)" stroke-width=".3985" stroke-linecap="butt" stroke-miterlimit="10" stroke-linejoin="miter" fill="none" stroke="#000000" d="M199.4024 12.9512 200.02706 13.74586 200.65169 14.54059 201.2763 15.33533 201.90096 16.13007 202.52558 16.92473 203.1502 17.71945 203.77484 18.51419 204.39948 19.30887 205.02411 20.10359 205.64875 20.89832 206.27338 21.69305 206.898 22.48772 207.52263 23.28246 208.14727 24.07718 208.7719 24.87184 209.39653 25.66658 210.02117 26.4613 210.6458 27.25604 211.27042 28.05072 211.89507 28.84544 212.51969 29.64017 213.14432 30.4349 213.76895 31.22957 214.39359 32.0243 215.01822 32.81903 215.64284 33.6137 216.26749 34.40843 216.8921 35.20317 217.51674 35.9979 218.14138 36.79263 218.766 37.5873 219.39064 38.38202 220.01528 39.17677 220.63991 39.97142 221.26453 40.76616 221.88916 41.5609 222.5138 42.35562 223.13843 43.15028 223.76306 43.94502 224.3877 44.73975 225.01233 45.5345 225.63695 46.32915 226.26158 47.12387 226.88622 47.91862 227.51085 48.71329 228.13549 49.50801 228.76012 50.30275 229.38475 51.09747 230.00939 51.89214 230.63402 52.68689 231.25865 53.4816 231.88329 54.27628 232.50792 55.07101 233.13256 55.86574 233.75719 56.66048 234.38182 57.45514 235.00646 58.24986 235.63108 59.04462 236.25572 59.83932 236.88034 60.634 237.50498 61.42874 238.12961 62.22345 238.75424 63.0182 239.37888 63.81287 240.00351 64.60759 240.62815 65.40233 241.25276 66.19705 241.8774 66.99171 242.50203 67.78647 243.12667 68.58119 243.7513 69.37585 244.37593 70.1706 245.00057 70.96532 245.62519 71.76006 246.24983 72.55472 246.87445 73.34944 247.49909 74.14418 248.12372 74.93886 248.74835 75.73357 249.37299 76.52832 249.9976 77.32304 250.62226 78.11778 251.24687 78.91245 251.8715 79.70717 252.49614 80.5019 253.12078 81.29657 253.7454 82.09131 254.37004 82.88605 254.99468 83.68077 255.6193 84.47543 256.24394 85.27017 256.86857 86.0649 257.4932 86.85963 258.11784 87.6543 258.74247 88.44904 259.3671 89.24376 259.9917 90.03844 260.61637 90.83316 261.24098 91.6279"/>
<path transform="matrix(1.00003,0,0,-1,1.0964966,102.324)" stroke-width=".3985" stroke-linecap="butt" stroke-miterlimit="10" stroke-linejoin="miter" fill="none" stroke="#000000" d="M145.29433 12.95117 145.84085 13.22717 146.38738 13.50317 146.9339 13.77919 147.48043 14.05519 148.02693 14.3312 148.57346 14.60721 149.11998 14.88321 149.66649 15.15923 150.21303 15.43524 150.75954 15.71127 151.30606 15.98727 151.85257 16.26328 152.3991 16.53928 152.94562 16.81529 153.49213 17.09131 154.03867 17.36731 154.58518 17.64331 155.1317 17.91931 155.67823 18.19533 156.22473 18.47136 156.77126 18.74738 157.31778 19.02336 157.8643 19.29938 158.41082 19.57538 158.95734 19.85141 159.50386 20.1274 160.05037 20.4034 160.5969 20.67941 161.14342 20.95541 161.68994 21.23146 162.23647 21.50746 162.78298 21.78346 163.3295 22.05948 163.876 22.33548 164.42253 22.6115 164.96906 22.8875 165.51558 23.1635 166.0621 23.43951 166.60861 23.71555 167.15514 23.99156 167.70165 24.26755 168.24819 24.54355 168.79471 24.81958 169.34122 25.09558 169.88774 25.3716 170.43425 25.64758 170.98078 25.9236 171.5273 26.19962 172.07382 26.47563 172.62035 26.75165 173.16686 27.02765 173.71338 27.30367 174.25989 27.57967 174.80641 27.85567 175.35294 28.13168 175.89946 28.40768 176.44599 28.6837 176.9925 28.95972 177.53902 29.2357 178.08554 29.51175 178.63205 29.78775 179.17859 30.06377 179.7251 30.33977 180.27162 30.61577 180.81813 30.89178 181.36466 31.16779 181.91118 31.4438 182.45769 31.7198 183.00423 31.9958 183.55074 32.27184 184.09726 32.54785 184.64379 32.82387 185.19029 33.09987 185.73682 33.37585 186.28334 33.65187 186.82987 33.92789 187.37638 34.2039 187.9229 34.47989 188.46942 34.75592 189.01593 35.03194 189.56246 35.30794 190.10898 35.58395 190.6555 35.85995 191.20203 36.13596 191.74854 36.41197 192.29506 36.68797 192.84157 36.96399 193.38809 37.23999 193.93463 37.51602 194.48114 37.79204 195.02767 38.06804 195.57418 38.34406 196.1207 38.62006 196.6672 38.89606 197.21375 39.17207 197.76027 39.44807 198.30678 39.72409 198.8533 40.00009 199.39981 40.2761"/>
<path transform="matrix(1.00003,0,0,-1,1.0964966,102.324)" stroke-width=".3985" stroke-linecap="butt" stroke-miterlimit="10" stroke-linejoin="miter" fill="none" stroke="#000000" d="M107.14177 12.95117 107.52715 13.03787 107.91249 13.12459 108.29787 13.2113 108.68324 13.29802 109.0686 13.38474 109.45396 13.47145 109.83934 13.55818 110.2247 13.6449 110.61006 13.7316 110.99542 13.81831 111.3808 13.90503 111.76617 13.99174 112.15152 14.07846 112.5369 14.16518 112.92226 14.25189 113.30762 14.33862 113.693 14.42534 114.07835 14.51204 114.46373 14.59875 114.84909 14.68547 115.23445 14.77219 115.61983 14.8589 116.00517 14.94562 116.39055 15.03233 116.77592 15.11905 117.16129 15.20576 117.54665 15.29248 117.93202 15.3792 118.31738 15.46593 118.70274 15.55263 119.0881 15.63934 119.47348 15.72606 119.85886 15.81277 120.2442 15.89949 120.62958 15.9862 121.01495 16.07292 121.4003 16.15964 121.78568 16.24637 122.17104 16.33307 122.55641 16.41978 122.94177 16.5065 123.32713 16.59322 123.71251 16.67992 124.09785 16.76665 124.48323 16.85336 124.8686 16.9401 125.25397 17.0268 125.63933 17.11351 126.0247 17.20023 126.41006 17.28694 126.79544 17.37364 127.18079 17.46036 127.56616 17.54707 127.95154 17.6338 128.33689 17.72052 128.72226 17.80724 129.10764 17.89395 129.493 17.98067 129.87836 18.06738 130.26372 18.1541 130.6491 18.2408 131.03446 18.32751 131.41982 18.41425 131.80519 18.50095 132.19055 18.58768 132.57592 18.6744 132.96129 18.76111 133.34665 18.84781 133.73201 18.93452 134.11739 19.02124 134.50275 19.10796 134.88813 19.19467 135.27347 19.28139 135.65885 19.36812 136.04422 19.45483 136.42957 19.54155 136.81494 19.62825 137.20032 19.71498 137.58568 19.8017 137.97104 19.88841 138.3564 19.97511 138.74178 20.06183 139.12714 20.14854 139.5125 20.23528 139.89788 20.32198 140.28324 20.40869 140.6686 20.49542 141.05397 20.58214 141.43933 20.66884 141.82469 20.75557 142.21007 20.84227 142.59543 20.92899 142.9808 21.01572 143.36615 21.10242 143.75153 21.18915 144.1369 21.27586 144.52225 21.36258 144.90763 21.44928 145.293 21.536"/>
<path transform="matrix(1.00003,0,0,-1,1.0964966,102.324)" stroke-width=".3985" stroke-linecap="butt" stroke-miterlimit="10" stroke-linejoin="miter" fill="none" stroke="#000000" d="M88.8018 12.95117"/>
<use data-text="r" xlink:href="#font_2_2" transform="matrix(9.962899,0,0,-9.9626,87.51509,97.182)"/>
<path transform="matrix(1.00003,0,0,-1,1.0964966,102.324)" stroke-width=".3985" stroke-linecap="butt" stroke-miterlimit="10" stroke-linejoin="miter" fill="none" stroke="#000000" d="M261.24296 12.95117"/>
<use data-text="x" xlink:href="#font_2_3" transform="matrix(9.962899,0,0,-9.9626,257.2652,97.182)"/>
<use data-text="0" xlink:href="#font_3_1" transform="matrix(6.9740097,0,0,-6.9738,262.95936,98.676)"/>
<path transform="matrix(1.00003,0,0,-1,1.0964966,102.324)" stroke-width=".3985" stroke-linecap="butt" stroke-dasharray="2.98883,1.99255" stroke-miterlimit="10" stroke-linejoin="miter" fill="none" stroke="#734d26" d="M261.24296 12.95117V91.63034"/>
<path transform="matrix(1.00003,0,0,-1,1.0964966,102.324)" stroke-width=".3985" stroke-linecap="butt" stroke-miterlimit="10" stroke-linejoin="miter" fill="none" stroke="#000000" d="M199.4024 12.95117"/>
<use data-text="x" xlink:href="#font_2_3" transform="matrix(9.962899,0,0,-9.9626,195.42334,97.182)"/>
<use data-text="1" xlink:href="#font_3_2" transform="matrix(6.9740097,0,0,-6.9738,201.11751,98.676)"/>
<path transform="matrix(1.00003,0,0,-1,1.0964966,102.324)" stroke-width=".3985" stroke-linecap="butt" stroke-dasharray="2.98883,1.99255" stroke-miterlimit="10" stroke-linejoin="miter" fill="none" stroke="#0000ff" d="M199.4024 12.95117V40.27742"/>
<path transform="matrix(1.00003,0,0,-1,1.0964966,102.324)" stroke-width=".3985" stroke-linecap="butt" stroke-miterlimit="10" stroke-linejoin="miter" fill="none" stroke="#000000" d="M145.29433 12.95117"/>
<use data-text="x" xlink:href="#font_2_3" transform="matrix(9.962899,0,0,-9.9626,141.3137,97.182)"/>
<use data-text="2" xlink:href="#font_3_3" transform="matrix(6.9740097,0,0,-6.9738,147.00788,98.676)"/>
<path transform="matrix(1.00003,0,0,-1,1.0964966,102.324)" stroke-width=".3985" stroke-linecap="butt" stroke-miterlimit="10" stroke-linejoin="miter" fill="none" stroke="#0000ff" d="M145.29433 12.95117V21.5363"/>
<path transform="matrix(1.00003,0,0,-1,1.0964966,102.324)" stroke-width=".3985" stroke-linecap="butt" stroke-miterlimit="10" stroke-linejoin="miter" fill="none" stroke="#000000" d="M107.14177 12.95117"/>
<use data-text="x" xlink:href="#font_2_3" transform="matrix(9.962899,0,0,-9.9626,103.15956,97.182)"/>
<use data-text="3" xlink:href="#font_3_4" transform="matrix(6.9740097,0,0,-6.9738,108.85373,98.676)"/>
<path transform="matrix(1.00003,0,0,-1,1.0964966,102.324)" stroke-width=".3985" stroke-linecap="butt" stroke-miterlimit="10" stroke-linejoin="miter" fill="none" stroke="#734d26" d="M107.14177 12.95117V14.99251"/>
<path transform="matrix(1.00003,0,0,-1,1.0964966,102.324)" stroke-width=".3985" stroke-linecap="butt" stroke-miterlimit="10" stroke-linejoin="miter" fill="none" stroke="#000000" d="M212.2599 61.51807"/>
<use data-text="f" xlink:href="#font_2_1" transform="matrix(9.962899,0,0,-9.9626,203.66559,43.296998)"/>
<use data-text="(" xlink:href="#font_4_1" transform="matrix(9.962899,0,0,-9.9626,209.61576,43.296998)"/>
<use data-text="x" xlink:href="#font_2_3" transform="matrix(9.962899,0,0,-9.9626,213.48989,43.296998)"/>
<use data-text=")" xlink:href="#font_4_2" transform="matrix(9.962899,0,0,-9.9626,219.18405,43.296998)"/>
</g>
<path transform="matrix(1.00003,0,0,-1,1.0964966,102.324)" d="M90.79436 12.95117C90.79436 14.05164 89.90227 14.94373 88.8018 14.94373 87.70132 14.94373 86.80925 14.05164 86.80925 12.95117 86.80925 11.8507 87.70132 10.95862 88.8018 10.95862 89.90227 10.95862 90.79436 11.8507 90.79436 12.95117ZM88.8018 12.95117"/>
<path transform="matrix(1.00003,0,0,-1,1.0964966,102.324)" stroke-width=".3985" stroke-linecap="butt" stroke-miterlimit="10" stroke-linejoin="miter" fill="none" stroke="#000000" d="M90.79436 12.95117C90.79436 14.05164 89.90227 14.94373 88.8018 14.94373 87.70132 14.94373 86.80925 14.05164 86.80925 12.95117 86.80925 11.8507 87.70132 10.95862 88.8018 10.95862 89.90227 10.95862 90.79436 11.8507 90.79436 12.95117ZM88.8018 12.95117"/>
<path transform="matrix(1.00003,0,0,-1,1.0964966,102.324)" stroke-width=".3985" stroke-linecap="butt" stroke-miterlimit="10" stroke-linejoin="miter" fill="none" stroke="#000000" d=""/>
<path transform="matrix(1.00003,0,0,-1,1.0964966,102.324)" d="M263.2355 12.95117C263.2355 14.05164 262.3434 14.94373 261.24296 14.94373 260.1425 14.94373 259.2504 14.05164 259.2504 12.95117 259.2504 11.8507 260.1425 10.95862 261.24296 10.95862 262.3434 10.95862 263.2355 11.8507 263.2355 12.95117ZM261.24296 12.95117"/>
<path transform="matrix(1.00003,0,0,-1,1.0964966,102.324)" stroke-width=".3985" stroke-linecap="butt" stroke-miterlimit="10" stroke-linejoin="miter" fill="none" stroke="#000000" d="M263.2355 12.95117C263.2355 14.05164 262.3434 14.94373 261.24296 14.94373 260.1425 14.94373 259.2504 14.05164 259.2504 12.95117 259.2504 11.8507 260.1425 10.95862 261.24296 10.95862 262.3434 10.95862 263.2355 11.8507 263.2355 12.95117ZM261.24296 12.95117"/>
<path transform="matrix(1.00003,0,0,-1,1.0964966,102.324)" stroke-width=".3985" stroke-linecap="butt" stroke-miterlimit="10" stroke-linejoin="miter" fill="none" stroke="#000000" d=""/>
<path transform="matrix(1.00003,0,0,-1,1.0964966,102.324)" d="M201.39496 12.95117C201.39496 14.05164 200.50289 14.94373 199.4024 14.94373 198.30194 14.94373 197.40985 14.05164 197.40985 12.95117 197.40985 11.8507 198.30194 10.95862 199.4024 10.95862 200.50289 10.95862 201.39496 11.8507 201.39496 12.95117ZM199.4024 12.95117"/>
<path transform="matrix(1.00003,0,0,-1,1.0964966,102.324)" stroke-width=".3985" stroke-linecap="butt" stroke-miterlimit="10" stroke-linejoin="miter" fill="none" stroke="#000000" d="M201.39496 12.95117C201.39496 14.05164 200.50289 14.94373 199.4024 14.94373 198.30194 14.94373 197.40985 14.05164 197.40985 12.95117 197.40985 11.8507 198.30194 10.95862 199.4024 10.95862 200.50289 10.95862 201.39496 11.8507 201.39496 12.95117ZM199.4024 12.95117"/>
<path transform="matrix(1.00003,0,0,-1,1.0964966,102.324)" stroke-width=".3985" stroke-linecap="butt" stroke-miterlimit="10" stroke-linejoin="miter" fill="none" stroke="#000000" d=""/>
<path transform="matrix(1.00003,0,0,-1,1.0964966,102.324)" d="M147.28688 12.95117C147.28688 14.05164 146.3948 14.94373 145.29433 14.94373 144.19387 14.94373 143.30178 14.05164 143.30178 12.95117 143.30178 11.8507 144.19387 10.95862 145.29433 10.95862 146.3948 10.95862 147.28688 11.8507 147.28688 12.95117ZM145.29433 12.95117"/>
<path transform="matrix(1.00003,0,0,-1,1.0964966,102.324)" stroke-width=".3985" stroke-linecap="butt" stroke-miterlimit="10" stroke-linejoin="miter" fill="none" stroke="#000000" d="M147.28688 12.95117C147.28688 14.05164 146.3948 14.94373 145.29433 14.94373 144.19387 14.94373 143.30178 14.05164 143.30178 12.95117 143.30178 11.8507 144.19387 10.95862 145.29433 10.95862 146.3948 10.95862 147.28688 11.8507 147.28688 12.95117ZM145.29433 12.95117"/>
<path transform="matrix(1.00003,0,0,-1,1.0964966,102.324)" stroke-width=".3985" stroke-linecap="butt" stroke-miterlimit="10" stroke-linejoin="miter" fill="none" stroke="#000000" d=""/>
<path transform="matrix(1.00003,0,0,-1,1.0964966,102.324)" d="M109.13432 12.95117C109.13432 14.05164 108.24225 14.94373 107.14177 14.94373 106.0413 14.94373 105.14922 14.05164 105.14922 12.95117 105.14922 11.8507 106.0413 10.95862 107.14177 10.95862 108.24225 10.95862 109.13432 11.8507 109.13432 12.95117ZM107.14177 12.95117"/>
<path transform="matrix(1.00003,0,0,-1,1.0964966,102.324)" stroke-width=".3985" stroke-linecap="butt" stroke-miterlimit="10" stroke-linejoin="miter" fill="none" stroke="#000000" d="M109.13432 12.95117C109.13432 14.05164 108.24225 14.94373 107.14177 14.94373 106.0413 14.94373 105.14922 14.05164 105.14922 12.95117 105.14922 11.8507 106.0413 10.95862 107.14177 10.95862 108.24225 10.95862 109.13432 11.8507 109.13432 12.95117ZM107.14177 12.95117"/>
<path transform="matrix(1.00003,0,0,-1,1.0964966,102.324)" stroke-width=".3985" stroke-linecap="butt" stroke-miterlimit="10" stroke-linejoin="miter" fill="none" stroke="#000000" d=""/>
<use data-text="x" xlink:href="#font_2_3" transform="matrix(9.962899,0,0,-9.9626,298.52345,97.182)"/>
<use data-text="y" xlink:href="#font_2_4" transform="matrix(9.962899,0,0,-9.9626,24.99121,6.2089998)"/>
</svg>
