<?xml version="1.0" encoding="UTF-8"?>
<svg xmlns="http://www.w3.org/2000/svg" xmlns:xlink="http://www.w3.org/1999/xlink" width="555pt" height="555pt" viewBox="0 0 555 555" version="1.1">
<g id="surface1">
<rect x="0" y="0" width="555" height="555" style="fill:rgb(100%,100%,100%);fill-opacity:1;stroke:none;"/>
<path style="fill:none;stroke-width:20.8125;stroke-linecap:butt;stroke-linejoin:round;stroke:rgb(47.068787%,0%,5.488586%);stroke-opacity:1;stroke-miterlimit:10;" d="M 513.359375 5383.28125 L 519.765625 5382.226563 L 526.171875 5379.0625 L 532.578125 5373.75 L 538.984375 5366.328125 L 550.117188 5348.320313 L 561.25 5323.90625 L 586.328125 5245.46875 L 611.523438 5133.671875 L 636.640625 4989.6875 L 659.882813 4827.03125 L 683.984375 4629.023438 L 708.90625 4392.617188 L 733.75 4124.921875 L 759.296875 3816.210938 L 781.796875 3516.289063 L 807.148438 3147.226563 L 832.578125 2764.960938 L 857.109375 2464.804688 L 879.375 2242.8125 L 905.859375 2026.40625 L 928.28125 1874.53125 L 954.335938 1726.25 L 977.460938 1615.273438 L 1002.773438 1511.132813 L 1026.914063 1425.976563 L 1052.070313 1349.023438 L 1075.195313 1287.265625 L 1100.117188 1228.671875 L 1126.015625 1175.195313 L 1148.554688 1133.90625 L 1172.929688 1093.945313 L 1198.085938 1057.070313 L 1222.695313 1024.726563 L 1246.484375 996.484375 L 1272.929688 968.203125 L 1296.679688 945.15625 L 1322.03125 922.8125 L 1345.039063 904.257813 L 1370.15625 885.703125 L 1393.789063 869.648438 L 1418.515625 854.179688 L 1442.65625 840.234375 L 1467.96875 826.796875 L 1492.304688 814.765625 L 1517.226563 803.4375 L 1541.953125 792.929688 L 1564.648438 783.984375 L 1590.664063 774.375 L 1613.945313 766.328125 L 1638.75 758.359375 L 1662.5 751.132813 L 1688.867188 743.671875 L 1711.71875 737.617188 L 1737.65625 731.132813 L 1761.25 725.546875 L 1787.109375 719.804688 L 1809.375 715.15625 L 1834.765625 710.117188 L 1859.296875 705.507813 L 1883.828125 701.171875 L 1908.242188 697.03125 L 1931.679688 693.28125 L 1957.03125 689.453125 L 1981.210938 685.976563 L 2006.679688 682.460938 L 2029.6875 679.492188 L 2055.15625 676.328125 L 2079.53125 673.398438 L 2103.828125 670.664063 L 2129.257813 667.929688 L 2152.65625 665.507813 L 2176.601563 663.125 L 2203.046875 660.664063 L 2226.992188 658.476563 L 2251.484375 656.367188 L 2276.40625 654.296875 L 2299.296875 652.460938 L 2323.710938 650.585938 L 2347.929688 648.828125 L 2373.867188 646.992188 L 2423.085938 643.710938 L 2446.914063 642.226563 L 2470.46875 640.820313 L 2495.78125 639.335938 L 2521.210938 637.929688 L 2544.375 636.679688 L 2568.945313 635.390625 L 2592.929688 634.179688 L 2618.90625 632.890625 L 2641.40625 631.835938 L 2667.265625 630.703125 L 2691.523438 629.609375 L 2715.585938 628.59375 L 2739.648438 627.617188 L 2764.21875 626.640625 L 2790.234375 625.664063 L 2814.101563 624.765625 L 2837.65625 623.90625 L 2862.8125 623.046875 L 2887.929688 622.1875 L 2910.507813 621.445313 L 2937.226563 620.585938 L 2959.570313 619.921875 L 2985.703125 619.101563 L 3010.664063 618.359375 L 3032.929688 617.695313 L 3057.96875 616.953125 L 3083.203125 616.210938 L 3108.28125 615.507813 L 3131.5625 614.84375 L 3155.664063 614.140625 L 3180.585938 613.4375 L 3205.429688 612.773438 L 3230.976563 612.070313 L 3253.476563 611.445313 L 3278.828125 610.78125 L 3304.257813 610.117188 L 3328.789063 609.453125 L 3351.054688 608.867188 L 3377.539063 608.203125 L 3399.960938 607.65625 L 3426.015625 606.992188 L 3449.101563 606.40625 L 3474.453125 605.820313 L 3498.59375 605.234375 L 3523.75 604.648438 L 3546.875 604.101563 L 3571.796875 603.515625 L 3597.695313 602.929688 L 3620.234375 602.421875 L 3644.609375 601.875 L 3669.726563 601.328125 L 3694.375 600.820313 L 3718.164063 600.3125 L 3744.609375 599.726563 L 3768.359375 599.257813 L 3793.710938 598.75 L 3816.71875 598.28125 L 3841.835938 597.773438 L 3865.46875 597.34375 L 3890.195313 596.875 L 3914.335938 596.40625 L 3939.648438 595.9375 L 3963.984375 595.507813 L 3988.90625 595.078125 L 4013.632813 594.648438 L 4036.328125 594.21875 L 4062.34375 593.789063 L 4085.625 593.398438 L 4110.429688 593.007813 L 4134.179688 592.617188 L 4160.546875 592.226563 L 4183.398438 591.875 L 4209.296875 591.484375 L 4232.929688 591.132813 L 4258.789063 590.742188 L 4281.054688 590.429688 L 4306.445313 590.078125 L 4355.507813 589.453125 L 4379.921875 589.101563 L 4403.398438 588.828125 L 4428.710938 588.515625 L 4452.890625 588.242188 L 4478.359375 587.929688 L 4501.367188 587.695313 L 4526.835938 587.382813 L 4551.210938 587.148438 L 4575.507813 586.875 L 4600.9375 586.640625 L 4624.335938 586.40625 L 4648.28125 586.171875 L 4674.726563 585.9375 L 4698.671875 585.703125 L 4723.164063 585.507813 L 4748.085938 585.3125 L 4770.976563 585.117188 L 4795.390625 584.921875 L 4819.609375 584.765625 L 4845.507813 584.570313 L 4868.398438 584.414063 L 4894.765625 584.257813 L 4918.59375 584.140625 L 4942.148438 583.984375 L 4967.460938 583.867188 L 4992.890625 583.710938 L 5016.054688 583.59375 L 5040.625 583.515625 L 5064.609375 583.398438 L 5090.585938 583.320313 L 5113.085938 583.242188 L 5138.945313 583.125 L 5163.203125 583.085938 L 5211.328125 582.929688 L 5235.898438 582.890625 L 5261.914063 582.851563 L 5285.78125 582.8125 L 5309.335938 582.8125 L 5334.492188 582.773438 L 5359.609375 582.773438 L 5383.320313 582.734375 " transform="matrix(0.1,0,0,-0.1,0,555)"/>
<path style="fill:none;stroke-width:13.875;stroke-linecap:butt;stroke-linejoin:round;stroke:rgb(0%,0%,0%);stroke-opacity:1;stroke-miterlimit:10;" d="M 513.359375 582.734375 L 5383.320313 582.734375 " transform="matrix(0.1,0,0,-0.1,0,555)"/>
<path style=" stroke:none;fill-rule:nonzero;fill:rgb(0%,0%,0%);fill-opacity:1;" d="M 294.496094 534.535156 C 294.785156 534.835938 295.003906 535.148438 295.144531 535.464844 C 295.261719 535.667969 295.4375 536.21875 295.664063 537.113281 L 296.449219 535.964844 C 296.648438 535.675781 296.898438 535.40625 297.195313 535.152344 C 297.492188 534.898438 297.746094 534.722656 297.964844 534.621094 C 298.109375 534.5625 298.269531 534.535156 298.441406 534.535156 C 298.6875 534.535156 298.886719 534.601563 299.039063 534.738281 C 299.1875 534.878906 299.265625 535.039063 299.265625 535.226563 C 299.265625 535.457031 299.222656 535.617188 299.136719 535.703125 C 298.976563 535.847656 298.789063 535.921875 298.570313 535.921875 C 298.441406 535.921875 298.3125 535.894531 298.183594 535.835938 C 297.90625 535.75 297.71875 535.703125 297.617188 535.703125 C 297.472656 535.703125 297.308594 535.785156 297.117188 535.941406 C 296.757813 536.246094 296.324219 536.839844 295.820313 537.71875 L 296.535156 540.734375 C 296.648438 541.199219 296.742188 541.472656 296.816406 541.570313 C 296.890625 541.664063 296.96875 541.710938 297.054688 541.710938 C 297.171875 541.710938 297.316406 541.644531 297.488281 541.515625 C 297.804688 541.238281 298.082031 540.886719 298.3125 540.453125 L 298.613281 540.605469 C 298.238281 541.296875 297.769531 541.875 297.207031 542.339844 C 296.890625 542.597656 296.613281 542.730469 296.382813 542.730469 C 296.050781 542.730469 295.789063 542.539063 295.601563 542.164063 C 295.472656 541.933594 295.21875 540.953125 294.84375 539.21875 C 293.917969 540.804688 293.183594 541.824219 292.632813 542.273438 C 292.269531 542.578125 291.921875 542.730469 291.589844 542.730469 C 291.359375 542.730469 291.144531 542.640625 290.941406 542.46875 C 290.808594 542.339844 290.746094 542.164063 290.746094 541.949219 C 290.746094 541.761719 290.808594 541.601563 290.941406 541.472656 C 291.070313 541.339844 291.230469 541.277344 291.417969 541.277344 C 291.605469 541.277344 291.800781 541.371094 292.003906 541.558594 C 292.160156 541.6875 292.285156 541.753906 292.371094 541.753906 C 292.429688 541.753906 292.515625 541.710938 292.632813 541.621094 C 292.90625 541.390625 293.28125 540.90625 293.757813 540.171875 C 294.234375 539.433594 294.546875 538.898438 294.691406 538.566406 C 294.328125 537.136719 294.136719 536.382813 294.105469 536.3125 C 293.976563 535.921875 293.804688 535.648438 293.585938 535.488281 C 293.367188 535.328125 293.042969 535.25 292.609375 535.25 C 292.480469 535.25 292.328125 535.257813 292.15625 535.269531 L 292.15625 534.945313 L 294.496094 534.535156 "/>
<path style="fill:none;stroke-width:1.2;stroke-linecap:butt;stroke-linejoin:round;stroke:rgb(0%,0%,0%);stroke-opacity:1;stroke-miterlimit:10;" d="M 513.359375 582.734375 L 513.359375 527.265625 " transform="matrix(0.1,0,0,-0.1,0,555)"/>
<path style=" stroke:none;fill-rule:nonzero;fill:rgb(0%,0%,0%);fill-opacity:1;" d="M 47.824219 515.804688 C 47.824219 514.445313 48.03125 513.269531 48.445313 512.277344 C 48.855469 511.289063 49.402344 510.554688 50.082031 510.078125 C 50.613281 509.703125 51.164063 509.515625 51.726563 509.515625 C 52.636719 509.515625 53.453125 509.976563 54.175781 510.902344 C 55.089844 512.058594 55.542969 513.628906 55.542969 515.605469 C 55.542969 516.996094 55.34375 518.171875 54.949219 519.140625 C 54.550781 520.109375 54.039063 520.816406 53.417969 521.253906 C 52.796875 521.695313 52.203125 521.917969 51.640625 521.917969 C 50.5 521.917969 49.546875 521.242188 48.78125 519.902344 C 48.144531 518.757813 47.824219 517.390625 47.824219 515.804688 Z M 49.558594 516.019531 C 49.558594 517.667969 49.761719 519.011719 50.167969 520.050781 C 50.5 520.917969 50.996094 521.351563 51.664063 521.351563 C 51.980469 521.351563 52.308594 521.210938 52.648438 520.929688 C 52.988281 520.648438 53.246094 520.167969 53.417969 519.488281 C 53.695313 518.492188 53.832031 517.066406 53.832031 515.21875 C 53.832031 513.859375 53.6875 512.722656 53.398438 511.8125 C 53.195313 511.132813 52.917969 510.65625 52.574219 510.382813 C 52.34375 510.195313 52.050781 510.101563 51.707031 510.101563 C 51.316406 510.101563 50.960938 510.273438 50.644531 510.621094 C 50.222656 511.113281 49.9375 511.882813 49.789063 512.929688 C 49.636719 513.976563 49.558594 515.007813 49.558594 516.019531 "/>
<path style="fill:none;stroke-width:1.2;stroke-linecap:butt;stroke-linejoin:round;stroke:rgb(0%,0%,0%);stroke-opacity:1;stroke-miterlimit:10;" d="M 5383.320313 582.734375 L 5383.320313 527.265625 " transform="matrix(0.1,0,0,-0.1,0,555)"/>
<path style=" stroke:none;fill-rule:nonzero;fill:rgb(0%,0%,0%);fill-opacity:1;" d="M 543.269531 514.871094 C 543.269531 515.738281 543.039063 516.503906 542.574219 517.167969 C 542.054688 517.90625 541.378906 518.273438 540.539063 518.273438 C 539.875 518.273438 539.308594 518.058594 538.847656 517.625 C 538.5 517.304688 538.160156 516.785156 537.828125 516.0625 C 537.035156 517.539063 536.066406 518.273438 534.925781 518.273438 C 534.027344 518.273438 533.3125 517.941406 532.777344 517.277344 C 532.285156 516.671875 532.039063 515.910156 532.039063 515 C 532.039063 514.03125 532.28125 513.230469 532.753906 512.59375 C 533.261719 511.886719 533.984375 511.53125 534.925781 511.53125 C 535.488281 511.53125 536.023438 511.761719 536.527344 512.222656 C 536.964844 512.628906 537.316406 513.121094 537.589844 513.699219 C 538.398438 512.253906 539.390625 511.53125 540.558594 511.53125 C 541.414063 511.53125 542.09375 511.886719 542.597656 512.59375 C 543.046875 513.214844 543.269531 513.972656 543.269531 514.871094 Z M 542.707031 514.457031 C 542.707031 513.921875 542.519531 513.4375 542.144531 512.996094 C 541.769531 512.554688 541.320313 512.335938 540.800781 512.335938 C 540.207031 512.335938 539.671875 512.664063 539.195313 513.332031 C 538.992188 513.589844 538.667969 514.183594 538.21875 515.109375 C 538.683594 516.207031 539.476563 516.757813 540.605469 516.757813 C 541.238281 516.757813 541.75 516.535156 542.132813 516.09375 C 542.515625 515.65625 542.707031 515.109375 542.707031 514.457031 Z M 537.136719 514.304688 C 536.558594 513.179688 535.785156 512.617188 534.816406 512.617188 C 534.179688 512.617188 533.652344 512.816406 533.234375 513.210938 C 532.8125 513.609375 532.605469 514.125 532.605469 514.761719 C 532.605469 515.367188 532.789063 515.894531 533.15625 516.34375 C 533.527344 516.792969 534.007813 517.015625 534.597656 517.015625 C 535.164063 517.015625 535.691406 516.691406 536.179688 516.039063 C 536.355469 515.78125 536.671875 515.203125 537.136719 514.304688 "/>
<path style="fill:none;stroke-width:13.875;stroke-linecap:butt;stroke-linejoin:round;stroke:rgb(0%,0%,0%);stroke-opacity:1;stroke-miterlimit:10;" d="M 513.359375 582.734375 L 513.359375 5383.28125 " transform="matrix(0.1,0,0,-0.1,0,555)"/>
<path style="fill:none;stroke-width:1.2;stroke-linecap:butt;stroke-linejoin:round;stroke:rgb(0%,0%,0%);stroke-opacity:1;stroke-miterlimit:10;" d="M 513.359375 582.734375 L 457.890625 582.734375 " transform="matrix(0.1,0,0,-0.1,0,555)"/>
<path style=" stroke:none;fill-rule:nonzero;fill:rgb(0%,0%,0%);fill-opacity:1;" d="M 33.949219 497.765625 C 33.949219 496.40625 34.15625 495.230469 34.570313 494.242188 C 34.980469 493.253906 35.527344 492.519531 36.207031 492.042969 C 36.738281 491.664063 37.289063 491.476563 37.851563 491.476563 C 38.761719 491.476563 39.578125 491.941406 40.300781 492.863281 C 41.214844 494.023438 41.667969 495.589844 41.667969 497.570313 C 41.667969 498.957031 41.46875 500.136719 41.074219 501.105469 C 40.675781 502.074219 40.164063 502.777344 39.542969 503.21875 C 38.921875 503.65625 38.328125 503.878906 37.765625 503.878906 C 36.625 503.878906 35.671875 503.207031 34.90625 501.863281 C 34.269531 500.722656 33.949219 499.355469 33.949219 497.765625 Z M 35.683594 497.980469 C 35.683594 499.628906 35.886719 500.972656 36.292969 502.015625 C 36.625 502.882813 37.121094 503.316406 37.789063 503.316406 C 38.105469 503.316406 38.433594 503.175781 38.773438 502.894531 C 39.113281 502.609375 39.371094 502.128906 39.542969 501.449219 C 39.820313 500.453125 39.957031 499.03125 39.957031 497.179688 C 39.957031 495.820313 39.8125 494.6875 39.523438 493.777344 C 39.320313 493.097656 39.042969 492.621094 38.699219 492.34375 C 38.46875 492.15625 38.175781 492.0625 37.832031 492.0625 C 37.441406 492.0625 37.085938 492.234375 36.769531 492.582031 C 36.347656 493.074219 36.0625 493.84375 35.914063 494.890625 C 35.761719 495.941406 35.683594 496.96875 35.683594 497.980469 "/>
<path style="fill:none;stroke-width:1.2;stroke-linecap:butt;stroke-linejoin:round;stroke:rgb(0%,0%,0%);stroke-opacity:1;stroke-miterlimit:10;" d="M 513.359375 5383.28125 L 457.890625 5383.28125 " transform="matrix(0.1,0,0,-0.1,0,555)"/>
<path style=" stroke:none;fill-rule:nonzero;fill:rgb(0%,0%,0%);fill-opacity:1;" d="M 39.609375 18.144531 C 39.609375 19.011719 39.378906 19.777344 38.914063 20.445313 C 38.394531 21.179688 37.714844 21.550781 36.878906 21.550781 C 36.210938 21.550781 35.648438 21.332031 35.1875 20.898438 C 34.839844 20.582031 34.5 20.0625 34.167969 19.339844 C 33.371094 20.8125 32.402344 21.550781 31.261719 21.550781 C 30.367188 21.550781 29.652344 21.21875 29.117188 20.550781 C 28.625 19.945313 28.378906 19.1875 28.378906 18.277344 C 28.378906 17.308594 28.617188 16.503906 29.09375 15.871094 C 29.601563 15.160156 30.324219 14.808594 31.261719 14.808594 C 31.824219 14.808594 32.359375 15.039063 32.867188 15.5 C 33.300781 15.90625 33.652344 16.398438 33.929688 16.976563 C 34.738281 15.53125 35.726563 14.808594 36.898438 14.808594 C 37.75 14.808594 38.429688 15.160156 38.9375 15.871094 C 39.386719 16.492188 39.609375 17.25 39.609375 18.144531 Z M 39.042969 17.734375 C 39.042969 17.199219 38.855469 16.710938 38.480469 16.269531 C 38.105469 15.828125 37.65625 15.609375 37.136719 15.609375 C 36.542969 15.609375 36.011719 15.941406 35.53125 16.605469 C 35.332031 16.867188 35.003906 17.460938 34.558594 18.382813 C 35.019531 19.484375 35.816406 20.03125 36.941406 20.03125 C 37.578125 20.03125 38.085938 19.8125 38.46875 19.371094 C 38.851563 18.929688 39.042969 18.382813 39.042969 17.734375 Z M 33.472656 17.582031 C 32.894531 16.453125 32.121094 15.890625 31.152344 15.890625 C 30.519531 15.890625 29.988281 16.089844 29.570313 16.488281 C 29.152344 16.886719 28.941406 17.402344 28.941406 18.035156 C 28.941406 18.644531 29.125 19.171875 29.496094 19.621094 C 29.863281 20.066406 30.34375 20.292969 30.9375 20.292969 C 31.5 20.292969 32.027344 19.96875 32.519531 19.316406 C 32.691406 19.054688 33.011719 18.476563 33.472656 17.582031 "/>
</g>
</svg>
