<?xml version="1.0" encoding="UTF-8"?>
<svg xmlns="http://www.w3.org/2000/svg" xmlns:xlink="http://www.w3.org/1999/xlink" width="555pt" height="555pt" viewBox="0 0 555 555" version="1.1">
<defs>
<clipPath id="clip1">
  <path d="M 11 515 L 16.648438 515 L 16.648438 517 L 11 517 Z M 11 515 "/>
</clipPath>
<clipPath id="clip2">
  <path d="M 98 515 L 104.0625 515 L 104.0625 517 L 98 517 Z M 98 515 "/>
</clipPath>
<clipPath id="clip3">
  <path d="M 186 515 L 191.476563 515 L 191.476563 517 L 186 517 Z M 186 515 "/>
</clipPath>
</defs>
<g id="surface1">
<rect x="0" y="0" width="555" height="555" style="fill:rgb(100%,100%,100%);fill-opacity:1;stroke:none;"/>
<path style="fill:none;stroke-width:20.8125;stroke-linecap:butt;stroke-linejoin:round;stroke:rgb(47.068787%,0%,5.488586%);stroke-opacity:1;stroke-miterlimit:10;" d="M 180.390625 582.734375 L 208.007813 592.96875 L 232.070313 602.070313 L 259.140625 612.578125 L 286.367188 623.476563 L 313.476563 634.570313 L 338.59375 645.195313 L 364.609375 656.445313 L 391.523438 668.4375 L 418.359375 680.742188 L 445.9375 693.710938 L 470.234375 705.46875 L 497.617188 719.101563 L 525.078125 733.203125 L 551.523438 747.1875 L 575.585938 760.273438 L 604.179688 776.25 L 628.398438 790.15625 L 656.5625 806.875 L 681.484375 822.109375 L 708.828125 839.335938 L 734.882813 856.25 L 762.070313 874.414063 L 787.03125 891.640625 L 813.945313 910.78125 L 841.914063 931.328125 L 866.25 949.765625 L 892.539063 970.3125 L 919.726563 992.1875 L 946.289063 1014.335938 L 971.992188 1036.445313 L 1000.546875 1061.875 L 1026.210938 1085.429688 L 1053.59375 1111.484375 L 1078.398438 1135.859375 L 1105.546875 1163.398438 L 1131.054688 1190.195313 L 1157.734375 1219.140625 L 1183.828125 1248.4375 L 1211.132813 1280.15625 L 1237.460938 1311.796875 L 1264.375 1345.3125 L 1291.054688 1379.726563 L 1315.546875 1412.421875 L 1343.632813 1451.25 L 1368.789063 1487.226563 L 1395.585938 1526.914063 L 1421.210938 1566.289063 L 1449.6875 1611.5625 L 1474.335938 1652.226563 L 1502.34375 1700.039063 L 1527.851563 1745.195313 L 1555.742188 1796.445313 L 1579.804688 1842.1875 L 1607.226563 1896.132813 L 1633.710938 1950.195313 L 1660.195313 2006.132813 L 1686.5625 2063.867188 L 1711.875 2121.25 L 1739.257813 2185.46875 L 1765.351563 2248.867188 L 1792.851563 2317.929688 L 1817.695313 2382.578125 L 1845.195313 2456.367188 L 1871.523438 2529.453125 L 1897.773438 2604.726563 L 1925.195313 2685.898438 L 1950.46875 2762.929688 L 1976.328125 2844.140625 L 2004.882813 2936.445313 L 2030.742188 3022.421875 L 2057.1875 3112.617188 L 2084.101563 3206.640625 L 2108.828125 3295.039063 L 2135.195313 3391.171875 L 2161.367188 3488.398438 L 2189.335938 3594.21875 L 2214.023438 3688.984375 L 2242.5 3799.570313 L 2268.203125 3900.234375 L 2293.632813 4000.3125 L 2321.015625 4108.085938 L 2348.4375 4216.015625 L 2373.4375 4313.4375 L 2400 4415.664063 L 2425.898438 4513.632813 L 2453.945313 4617.1875 L 2478.242188 4703.984375 L 2506.132813 4799.804688 L 2532.34375 4885.390625 L 2558.320313 4965.234375 L 2584.335938 5039.609375 L 2610.820313 5109.0625 L 2638.945313 5174.921875 L 2664.6875 5227.773438 L 2690.117188 5272.265625 L 2717.304688 5310.976563 L 2744.453125 5340.117188 L 2768.789063 5357.851563 L 2783.203125 5364.53125 L 2797.65625 5368.398438 L 2809.726563 5369.375 L 2821.757813 5368.359375 L 2835.898438 5364.648438 L 2850 5358.125 L 2876.953125 5338.242188 L 2901.015625 5312.226563 L 2928.046875 5274.0625 L 2955.273438 5226.484375 L 2982.382813 5170.546875 L 3007.539063 5111.484375 L 3033.554688 5043.59375 L 3060.46875 4966.875 L 3087.265625 4884.453125 L 3114.882813 4794.21875 L 3139.140625 4710.742188 L 3166.523438 4613.046875 L 3193.984375 4511.601563 L 3220.46875 4411.40625 L 3244.492188 4318.789063 L 3273.085938 4207.304688 L 3297.304688 4112.148438 L 3325.46875 4001.132813 L 3350.390625 3903.007813 L 3377.773438 3795.898438 L 3403.828125 3694.765625 L 3431.015625 3590.46875 L 3455.976563 3496.015625 L 3482.890625 3395.820313 L 3510.859375 3293.789063 L 3535.195313 3206.757813 L 3561.484375 3114.84375 L 3588.632813 3022.1875 L 3615.195313 2933.867188 L 3640.9375 2850.742188 L 3669.453125 2761.054688 L 3695.117188 2682.890625 L 3722.5 2601.953125 L 3747.304688 2530.859375 L 3774.453125 2455.507813 L 3800 2386.875 L 3826.679688 2317.460938 L 3852.734375 2251.835938 L 3880.078125 2185.429688 L 3906.367188 2123.710938 L 3933.28125 2062.734375 L 3959.960938 2004.375 L 3984.492188 1952.539063 L 4012.578125 1895.195313 L 4037.695313 1845.664063 L 4064.492188 1794.726563 L 4090.15625 1747.617188 L 4118.632813 1697.1875 L 4143.28125 1655.078125 L 4171.289063 1608.945313 L 4196.757813 1568.359375 L 4224.6875 1525.546875 L 4248.75 1489.84375 L 4276.171875 1450.585938 L 4302.65625 1413.984375 L 4329.101563 1378.632813 L 4355.507813 1344.6875 L 4380.820313 1313.085938 L 4408.203125 1280.15625 L 4434.296875 1249.804688 L 4461.757813 1218.945313 L 4486.640625 1191.914063 L 4514.101563 1163.085938 L 4540.429688 1136.367188 L 4566.71875 1110.546875 L 4594.140625 1084.53125 L 4619.375 1061.328125 L 4645.273438 1038.28125 L 4673.828125 1013.671875 L 4699.6875 992.148438 L 4726.132813 970.820313 L 4753.046875 949.804688 L 4777.773438 931.054688 L 4804.101563 911.679688 L 4830.273438 893.046875 L 4858.242188 873.75 L 4882.96875 857.226563 L 4911.445313 838.710938 L 4937.148438 822.539063 L 4962.578125 806.992188 L 4989.921875 790.78125 L 5017.382813 774.960938 L 5042.382813 761.015625 L 5068.90625 746.601563 L 5094.804688 732.929688 L 5122.851563 718.554688 L 5147.1875 706.445313 L 5175.078125 692.929688 L 5201.289063 680.585938 L 5227.265625 668.671875 L 5253.242188 657.109375 L 5279.765625 645.585938 L 5307.851563 633.75 L 5333.632813 623.203125 L 5359.0625 613.046875 L 5386.25 602.460938 L 5413.398438 592.1875 L 5438.945313 582.734375 " transform="matrix(0.1,0,0,-0.1,0,555)"/>
<path style="fill:none;stroke-width:13.875;stroke-linecap:butt;stroke-linejoin:round;stroke:rgb(0%,0%,0%);stroke-opacity:1;stroke-miterlimit:10;" d="M 180.390625 555 L 5438.945313 555 " transform="matrix(0.1,0,0,-0.1,0,555)"/>
<path style=" stroke:none;fill-rule:nonzero;fill:rgb(0%,0%,0%);fill-opacity:1;" d="M 280.621094 534.535156 C 280.910156 534.835938 281.128906 535.148438 281.269531 535.464844 C 281.386719 535.667969 281.5625 536.21875 281.789063 537.113281 L 282.574219 535.964844 C 282.773438 535.675781 283.023438 535.40625 283.320313 535.152344 C 283.617188 534.898438 283.871094 534.722656 284.089844 534.621094 C 284.234375 534.5625 284.394531 534.535156 284.566406 534.535156 C 284.8125 534.535156 285.011719 534.601563 285.164063 534.738281 C 285.3125 534.878906 285.390625 535.039063 285.390625 535.226563 C 285.390625 535.457031 285.347656 535.617188 285.261719 535.703125 C 285.101563 535.847656 284.914063 535.921875 284.695313 535.921875 C 284.566406 535.921875 284.4375 535.894531 284.308594 535.835938 C 284.03125 535.75 283.84375 535.703125 283.742188 535.703125 C 283.597656 535.703125 283.433594 535.785156 283.242188 535.941406 C 282.882813 536.246094 282.449219 536.839844 281.945313 537.71875 L 282.660156 540.734375 C 282.773438 541.199219 282.867188 541.472656 282.941406 541.570313 C 283.015625 541.664063 283.09375 541.710938 283.179688 541.710938 C 283.296875 541.710938 283.441406 541.644531 283.613281 541.515625 C 283.929688 541.238281 284.207031 540.886719 284.4375 540.453125 L 284.738281 540.605469 C 284.363281 541.296875 283.894531 541.875 283.332031 542.339844 C 283.015625 542.597656 282.738281 542.730469 282.507813 542.730469 C 282.175781 542.730469 281.914063 542.539063 281.726563 542.164063 C 281.597656 541.933594 281.34375 540.953125 280.96875 539.21875 C 280.042969 540.804688 279.308594 541.824219 278.757813 542.273438 C 278.394531 542.578125 278.046875 542.730469 277.714844 542.730469 C 277.484375 542.730469 277.269531 542.640625 277.066406 542.46875 C 276.933594 542.339844 276.871094 542.164063 276.871094 541.949219 C 276.871094 541.761719 276.933594 541.601563 277.066406 541.472656 C 277.195313 541.339844 277.355469 541.277344 277.542969 541.277344 C 277.730469 541.277344 277.925781 541.371094 278.128906 541.558594 C 278.285156 541.6875 278.410156 541.753906 278.496094 541.753906 C 278.554688 541.753906 278.640625 541.710938 278.757813 541.621094 C 279.03125 541.390625 279.40625 540.90625 279.882813 540.171875 C 280.359375 539.433594 280.671875 538.898438 280.816406 538.566406 C 280.453125 537.136719 280.261719 536.382813 280.230469 536.3125 C 280.101563 535.921875 279.929688 535.648438 279.710938 535.488281 C 279.492188 535.328125 279.167969 535.25 278.734375 535.25 C 278.605469 535.25 278.453125 535.257813 278.28125 535.269531 L 278.28125 534.945313 L 280.621094 534.535156 "/>
<path style="fill:none;stroke-width:1.2;stroke-linecap:butt;stroke-linejoin:round;stroke:rgb(0%,0%,0%);stroke-opacity:1;stroke-miterlimit:10;" d="M 180.390625 555 L 180.390625 499.492188 " transform="matrix(0.1,0,0,-0.1,0,555)"/>
<g clip-path="url(#clip1)" clip-rule="nonzero">
<path style=" stroke:none;fill-rule:nonzero;fill:rgb(0%,0%,0%);fill-opacity:1;" d="M 23.304688 516.757813 L 11.382813 516.757813 L 11.382813 515.824219 L 23.304688 515.824219 L 23.304688 516.757813 "/>
</g>
<path style=" stroke:none;fill-rule:nonzero;fill:rgb(0%,0%,0%);fill-opacity:1;" d="M 20.335938 512.03125 C 20.683594 511.21875 21.117188 510.601563 21.636719 510.164063 C 22.15625 509.734375 22.800781 509.515625 23.566406 509.515625 C 24.535156 509.515625 25.269531 509.824219 25.777344 510.449219 C 26.167969 510.910156 26.363281 511.402344 26.363281 511.921875 C 26.363281 512.804688 25.8125 513.707031 24.714844 514.632813 C 25.453125 514.921875 26.007813 515.332031 26.382813 515.867188 C 26.761719 516.402344 26.949219 517.03125 26.949219 517.753906 C 26.949219 518.78125 26.613281 519.667969 25.949219 520.421875 C 25.097656 521.417969 23.863281 521.917969 22.242188 521.917969 C 21.433594 521.917969 20.886719 521.816406 20.59375 521.613281 C 20.304688 521.410156 20.160156 521.195313 20.160156 520.960938 C 20.160156 520.789063 20.230469 520.640625 20.367188 520.519531 C 20.503906 520.394531 20.667969 520.332031 20.855469 520.332031 C 21 520.332031 21.152344 520.355469 21.3125 520.398438 C 21.410156 520.425781 21.640625 520.53125 21.992188 520.714844 C 22.347656 520.894531 22.589844 521.007813 22.71875 521.050781 C 22.9375 521.105469 23.167969 521.136719 23.414063 521.136719 C 24.007813 521.136719 24.527344 520.90625 24.976563 520.441406 C 25.421875 519.980469 25.648438 519.429688 25.648438 518.792969 C 25.648438 518.332031 25.546875 517.882813 25.34375 517.449219 C 25.183594 517.117188 25.011719 516.863281 24.824219 516.691406 C 24.578125 516.460938 24.234375 516.25 23.792969 516.0625 C 23.351563 515.875 22.902344 515.78125 22.4375 515.78125 L 22.15625 515.78125 L 22.15625 515.5 C 22.617188 515.441406 23.085938 515.273438 23.554688 515 C 24.023438 514.726563 24.363281 514.398438 24.574219 514.011719 C 24.78125 513.628906 24.886719 513.203125 24.886719 512.722656 C 24.886719 512.132813 24.699219 511.648438 24.324219 511.273438 C 23.949219 510.894531 23.480469 510.707031 22.914063 510.707031 C 22.003906 510.707031 21.246094 511.191406 20.640625 512.160156 L 20.335938 512.03125 "/>
<path style="fill:none;stroke-width:1.2;stroke-linecap:butt;stroke-linejoin:round;stroke:rgb(0%,0%,0%);stroke-opacity:1;stroke-miterlimit:10;" d="M 1056.796875 555 L 1056.796875 499.492188 " transform="matrix(0.1,0,0,-0.1,0,555)"/>
<g clip-path="url(#clip2)" clip-rule="nonzero">
<path style=" stroke:none;fill-rule:nonzero;fill:rgb(0%,0%,0%);fill-opacity:1;" d="M 110.71875 516.757813 L 98.792969 516.757813 L 98.792969 515.824219 L 110.71875 515.824219 L 110.71875 516.757813 "/>
</g>
<path style=" stroke:none;fill-rule:nonzero;fill:rgb(0%,0%,0%);fill-opacity:1;" d="M 115.097656 519.402344 L 114.273438 521.699219 L 107.226563 521.699219 L 107.226563 521.375 C 109.296875 519.480469 110.75 517.933594 111.597656 516.734375 C 112.441406 515.535156 112.863281 514.445313 112.863281 513.460938 C 112.863281 512.695313 112.632813 512.070313 112.171875 511.585938 C 111.707031 511.101563 111.152344 510.859375 110.5 510.859375 C 109.921875 510.859375 109.398438 511.027344 108.929688 511.367188 C 108.460938 511.707031 108.117188 512.210938 107.898438 512.875 L 107.574219 512.875 C 107.71875 511.792969 108.09375 510.960938 108.703125 510.382813 C 109.308594 509.804688 110.066406 509.515625 110.976563 509.515625 C 111.945313 509.515625 112.757813 509.824219 113.40625 510.449219 C 114.058594 511.070313 114.382813 511.796875 114.382813 512.636719 C 114.382813 513.246094 114.238281 513.851563 113.949219 514.457031 C 113.515625 515.410156 112.8125 516.417969 111.84375 517.472656 C 110.386719 519.078125 109.46875 520.042969 109.09375 520.375 L 112.214844 520.375 C 112.851563 520.375 113.296875 520.351563 113.546875 520.300781 C 113.800781 520.25 114.03125 520.152344 114.242188 520.007813 C 114.449219 519.863281 114.628906 519.660156 114.773438 519.402344 L 115.097656 519.402344 "/>
<path style="fill:none;stroke-width:1.2;stroke-linecap:butt;stroke-linejoin:round;stroke:rgb(0%,0%,0%);stroke-opacity:1;stroke-miterlimit:10;" d="M 1933.242188 555 L 1933.242188 499.492188 " transform="matrix(0.1,0,0,-0.1,0,555)"/>
<g clip-path="url(#clip3)" clip-rule="nonzero">
<path style=" stroke:none;fill-rule:nonzero;fill:rgb(0%,0%,0%);fill-opacity:1;" d="M 198.128906 516.757813 L 186.207031 516.757813 L 186.207031 515.824219 L 198.128906 515.824219 L 198.128906 516.757813 "/>
</g>
<path style=" stroke:none;fill-rule:nonzero;fill:rgb(0%,0%,0%);fill-opacity:1;" d="M 196.375 510.925781 L 199.28125 509.515625 L 199.5625 509.515625 L 199.5625 519.597656 C 199.5625 520.261719 199.589844 520.675781 199.648438 520.84375 C 199.707031 521.007813 199.820313 521.136719 199.992188 521.222656 C 200.167969 521.308594 200.519531 521.359375 201.058594 521.375 L 201.058594 521.699219 L 196.566406 521.699219 L 196.566406 521.375 C 197.132813 521.359375 197.496094 521.308594 197.664063 521.222656 C 197.828125 521.136719 197.945313 521.019531 198.011719 520.875 C 198.074219 520.730469 198.109375 520.304688 198.109375 519.597656 L 198.109375 513.15625 C 198.109375 512.277344 198.078125 511.714844 198.019531 511.46875 C 197.976563 511.277344 197.902344 511.140625 197.792969 511.054688 C 197.6875 510.96875 197.550781 510.925781 197.394531 510.925781 C 197.175781 510.925781 196.878906 511.019531 196.503906 511.207031 L 196.375 510.925781 "/>
<path style="fill:none;stroke-width:1.2;stroke-linecap:butt;stroke-linejoin:round;stroke:rgb(0%,0%,0%);stroke-opacity:1;stroke-miterlimit:10;" d="M 2809.648438 555 L 2809.648438 499.492188 " transform="matrix(0.1,0,0,-0.1,0,555)"/>
<path style=" stroke:none;fill-rule:nonzero;fill:rgb(0%,0%,0%);fill-opacity:1;" d="M 276.761719 515.804688 C 276.761719 514.445313 276.96875 513.269531 277.382813 512.277344 C 277.789063 511.289063 278.339844 510.554688 279.015625 510.078125 C 279.550781 509.703125 280.101563 509.515625 280.664063 509.515625 C 281.574219 509.515625 282.390625 509.976563 283.113281 510.902344 C 284.023438 512.058594 284.480469 513.628906 284.480469 515.605469 C 284.480469 516.996094 284.28125 518.171875 283.882813 519.140625 C 283.488281 520.109375 282.976563 520.816406 282.355469 521.253906 C 281.734375 521.695313 281.140625 521.917969 280.578125 521.917969 C 279.4375 521.917969 278.480469 521.242188 277.714844 519.902344 C 277.078125 518.757813 276.761719 517.390625 276.761719 515.804688 Z M 278.496094 516.019531 C 278.496094 517.667969 278.699219 519.011719 279.105469 520.050781 C 279.4375 520.917969 279.933594 521.351563 280.601563 521.351563 C 280.917969 521.351563 281.246094 521.210938 281.585938 520.929688 C 281.925781 520.648438 282.183594 520.167969 282.355469 519.488281 C 282.628906 518.492188 282.765625 517.066406 282.765625 515.21875 C 282.765625 513.859375 282.621094 512.722656 282.335938 511.8125 C 282.132813 511.132813 281.855469 510.65625 281.511719 510.382813 C 281.28125 510.195313 280.988281 510.101563 280.644531 510.101563 C 280.253906 510.101563 279.898438 510.273438 279.582031 510.621094 C 279.160156 511.113281 278.878906 511.882813 278.722656 512.929688 C 278.574219 513.976563 278.496094 515.007813 278.496094 516.019531 "/>
<path style="fill:none;stroke-width:1.2;stroke-linecap:butt;stroke-linejoin:round;stroke:rgb(0%,0%,0%);stroke-opacity:1;stroke-miterlimit:10;" d="M 3686.09375 555 L 3686.09375 499.492188 " transform="matrix(0.1,0,0,-0.1,0,555)"/>
<path style=" stroke:none;fill-rule:nonzero;fill:rgb(0%,0%,0%);fill-opacity:1;" d="M 365.648438 510.925781 L 368.554688 509.515625 L 368.835938 509.515625 L 368.835938 519.597656 C 368.835938 520.261719 368.867188 520.675781 368.921875 520.84375 C 368.980469 521.007813 369.097656 521.136719 369.269531 521.222656 C 369.441406 521.308594 369.796875 521.359375 370.332031 521.375 L 370.332031 521.699219 L 365.84375 521.699219 L 365.84375 521.375 C 366.40625 521.359375 366.773438 521.308594 366.9375 521.222656 C 367.105469 521.136719 367.222656 521.019531 367.285156 520.875 C 367.351563 520.730469 367.382813 520.304688 367.382813 519.597656 L 367.382813 513.15625 C 367.382813 512.277344 367.355469 511.714844 367.296875 511.46875 C 367.253906 511.277344 367.175781 511.140625 367.070313 511.054688 C 366.960938 510.96875 366.828125 510.925781 366.667969 510.925781 C 366.449219 510.925781 366.152344 511.019531 365.78125 511.207031 L 365.648438 510.925781 "/>
<path style="fill:none;stroke-width:1.2;stroke-linecap:butt;stroke-linejoin:round;stroke:rgb(0%,0%,0%);stroke-opacity:1;stroke-miterlimit:10;" d="M 4562.539063 555 L 4562.539063 499.492188 " transform="matrix(0.1,0,0,-0.1,0,555)"/>
<path style=" stroke:none;fill-rule:nonzero;fill:rgb(0%,0%,0%);fill-opacity:1;" d="M 459.195313 519.402344 L 458.371094 521.699219 L 451.328125 521.699219 L 451.328125 521.375 C 453.394531 519.480469 454.851563 517.933594 455.695313 516.734375 C 456.542969 515.535156 456.964844 514.445313 456.964844 513.460938 C 456.964844 512.695313 456.734375 512.070313 456.269531 511.585938 C 455.808594 511.101563 455.25 510.859375 454.601563 510.859375 C 454.023438 510.859375 453.5 511.027344 453.027344 511.367188 C 452.558594 511.707031 452.214844 512.210938 452 512.875 L 451.675781 512.875 C 451.820313 511.792969 452.195313 510.960938 452.800781 510.382813 C 453.410156 509.804688 454.167969 509.515625 455.078125 509.515625 C 456.046875 509.515625 456.855469 509.824219 457.507813 510.449219 C 458.15625 511.070313 458.480469 511.796875 458.480469 512.636719 C 458.480469 513.246094 458.335938 513.851563 458.046875 514.457031 C 457.613281 515.410156 456.914063 516.417969 455.945313 517.472656 C 454.484375 519.078125 453.566406 520.042969 453.191406 520.375 L 456.3125 520.375 C 456.949219 520.375 457.394531 520.351563 457.644531 520.300781 C 457.898438 520.25 458.128906 520.152344 458.339844 520.007813 C 458.550781 519.863281 458.726563 519.660156 458.871094 519.402344 L 459.195313 519.402344 "/>
<path style="fill:none;stroke-width:1.2;stroke-linecap:butt;stroke-linejoin:round;stroke:rgb(0%,0%,0%);stroke-opacity:1;stroke-miterlimit:10;" d="M 5438.945313 555 L 5438.945313 499.492188 " transform="matrix(0.1,0,0,-0.1,0,555)"/>
<path style=" stroke:none;fill-rule:nonzero;fill:rgb(0%,0%,0%);fill-opacity:1;" d="M 539.261719 512.03125 C 539.605469 511.21875 540.039063 510.601563 540.558594 510.164063 C 541.078125 509.734375 541.726563 509.515625 542.488281 509.515625 C 543.460938 509.515625 544.195313 509.824219 544.703125 510.449219 C 545.09375 510.910156 545.289063 511.402344 545.289063 511.921875 C 545.289063 512.804688 544.738281 513.707031 543.640625 514.632813 C 544.375 514.921875 544.933594 515.332031 545.308594 515.867188 C 545.683594 516.402344 545.871094 517.03125 545.871094 517.753906 C 545.871094 518.78125 545.539063 519.667969 544.875 520.421875 C 544.023438 521.417969 542.785156 521.917969 541.167969 521.917969 C 540.359375 521.917969 539.808594 521.816406 539.519531 521.613281 C 539.230469 521.410156 539.085938 521.195313 539.085938 520.960938 C 539.085938 520.789063 539.15625 520.640625 539.292969 520.519531 C 539.429688 520.394531 539.59375 520.332031 539.78125 520.332031 C 539.925781 520.332031 540.074219 520.355469 540.234375 520.398438 C 540.335938 520.425781 540.5625 520.53125 540.917969 520.714844 C 541.273438 520.894531 541.515625 521.007813 541.644531 521.050781 C 541.863281 521.105469 542.09375 521.136719 542.339844 521.136719 C 542.933594 521.136719 543.453125 520.90625 543.898438 520.441406 C 544.347656 519.980469 544.570313 519.429688 544.570313 518.792969 C 544.570313 518.332031 544.46875 517.882813 544.269531 517.449219 C 544.109375 517.117188 543.9375 516.863281 543.746094 516.691406 C 543.503906 516.460938 543.160156 516.25 542.71875 516.0625 C 542.277344 515.875 541.824219 515.78125 541.363281 515.78125 L 541.078125 515.78125 L 541.078125 515.5 C 541.542969 515.441406 542.011719 515.273438 542.480469 515 C 542.949219 514.726563 543.289063 514.398438 543.496094 514.011719 C 543.710938 513.628906 543.8125 513.203125 543.8125 512.722656 C 543.8125 512.132813 543.625 511.648438 543.25 511.273438 C 542.871094 510.894531 542.402344 510.707031 541.839844 510.707031 C 540.929688 510.707031 540.171875 511.191406 539.5625 512.160156 L 539.261719 512.03125 "/>
<path style="fill:none;stroke-width:1.2;stroke-linecap:butt;stroke-linejoin:round;stroke:rgb(0%,0%,0%);stroke-opacity:1;stroke-miterlimit:10;" d="M 618.59375 555 L 618.59375 527.265625 " transform="matrix(0.1,0,0,-0.1,0,555)"/>
<path style="fill:none;stroke-width:1.2;stroke-linecap:butt;stroke-linejoin:round;stroke:rgb(0%,0%,0%);stroke-opacity:1;stroke-miterlimit:10;" d="M 1495.039063 555 L 1495.039063 527.265625 " transform="matrix(0.1,0,0,-0.1,0,555)"/>
<path style="fill:none;stroke-width:1.2;stroke-linecap:butt;stroke-linejoin:round;stroke:rgb(0%,0%,0%);stroke-opacity:1;stroke-miterlimit:10;" d="M 2371.445313 555 L 2371.445313 527.265625 " transform="matrix(0.1,0,0,-0.1,0,555)"/>
<path style="fill:none;stroke-width:1.2;stroke-linecap:butt;stroke-linejoin:round;stroke:rgb(0%,0%,0%);stroke-opacity:1;stroke-miterlimit:10;" d="M 3247.890625 555 L 3247.890625 527.265625 " transform="matrix(0.1,0,0,-0.1,0,555)"/>
<path style="fill:none;stroke-width:1.2;stroke-linecap:butt;stroke-linejoin:round;stroke:rgb(0%,0%,0%);stroke-opacity:1;stroke-miterlimit:10;" d="M 4124.335938 555 L 4124.335938 527.265625 " transform="matrix(0.1,0,0,-0.1,0,555)"/>
<path style="fill:none;stroke-width:1.2;stroke-linecap:butt;stroke-linejoin:round;stroke:rgb(0%,0%,0%);stroke-opacity:1;stroke-miterlimit:10;" d="M 5000.742188 555 L 5000.742188 527.265625 " transform="matrix(0.1,0,0,-0.1,0,555)"/>
<path style="fill:none;stroke-width:13.875;stroke-linecap:butt;stroke-linejoin:round;stroke:rgb(0%,0%,0%);stroke-opacity:1;stroke-miterlimit:10;" d="M 2809.648438 555 L 2809.648438 5369.375 " transform="matrix(0.1,0,0,-0.1,0,555)"/>
<path style="fill:none;stroke-width:1.2;stroke-linecap:butt;stroke-linejoin:round;stroke:rgb(0%,0%,0%);stroke-opacity:1;stroke-miterlimit:10;" d="M 2809.648438 582.734375 L 2754.140625 582.734375 " transform="matrix(0.1,0,0,-0.1,0,555)"/>
<path style="fill:none;stroke-width:1.2;stroke-linecap:butt;stroke-linejoin:round;stroke:rgb(0%,0%,0%);stroke-opacity:1;stroke-miterlimit:10;" d="M 2809.648438 1114.609375 L 2754.140625 1114.609375 " transform="matrix(0.1,0,0,-0.1,0,555)"/>
<path style=" stroke:none;fill-rule:nonzero;fill:rgb(0%,0%,0%);fill-opacity:1;" d="M 249.011719 443.652344 C 249.011719 442.292969 249.21875 441.121094 249.632813 440.128906 C 250.039063 439.140625 250.589844 438.40625 251.265625 437.929688 C 251.800781 437.554688 252.351563 437.363281 252.914063 437.363281 C 253.824219 437.363281 254.640625 437.828125 255.363281 438.753906 C 256.273438 439.910156 256.730469 441.476563 256.730469 443.457031 C 256.730469 444.84375 256.53125 446.023438 256.132813 446.992188 C 255.738281 447.960938 255.226563 448.664063 254.605469 449.105469 C 253.984375 449.546875 253.390625 449.765625 252.828125 449.765625 C 251.6875 449.765625 250.730469 449.09375 249.964844 447.75 C 249.328125 446.609375 249.011719 445.242188 249.011719 443.652344 Z M 250.746094 443.871094 C 250.746094 445.515625 250.949219 446.859375 251.355469 447.902344 C 251.6875 448.769531 252.183594 449.203125 252.851563 449.203125 C 253.167969 449.203125 253.496094 449.0625 253.835938 448.78125 C 254.175781 448.496094 254.433594 448.015625 254.605469 447.339844 C 254.878906 446.339844 255.015625 444.917969 255.015625 443.066406 C 255.015625 441.710938 254.871094 440.574219 254.585938 439.664063 C 254.382813 438.984375 254.105469 438.507813 253.761719 438.230469 C 253.53125 438.046875 253.238281 437.949219 252.894531 437.949219 C 252.503906 437.949219 252.148438 438.125 251.832031 438.472656 C 251.410156 438.960938 251.128906 439.730469 250.972656 440.78125 C 250.824219 441.828125 250.746094 442.859375 250.746094 443.871094 Z M 259.636719 447.835938 C 259.910156 447.835938 260.140625 447.933594 260.328125 448.128906 C 260.515625 448.324219 260.609375 448.550781 260.609375 448.8125 C 260.609375 449.085938 260.515625 449.316406 260.328125 449.503906 C 260.140625 449.695313 259.910156 449.785156 259.636719 449.785156 C 259.359375 449.785156 259.128906 449.695313 258.941406 449.503906 C 258.753906 449.316406 258.660156 449.085938 258.660156 448.8125 C 258.660156 448.535156 258.753906 448.308594 258.941406 448.117188 C 259.128906 447.929688 259.359375 447.835938 259.636719 447.835938 Z M 270.148438 447.25 L 269.324219 449.550781 L 262.28125 449.550781 L 262.28125 449.222656 C 264.347656 447.332031 265.804688 445.785156 266.648438 444.585938 C 267.496094 443.386719 267.914063 442.292969 267.914063 441.3125 C 267.914063 440.546875 267.6875 439.917969 267.222656 439.433594 C 266.761719 438.953125 266.203125 438.710938 265.554688 438.710938 C 264.976563 438.710938 264.453125 438.878906 263.980469 439.21875 C 263.511719 439.558594 263.167969 440.0625 262.953125 440.726563 L 262.628906 440.726563 C 262.773438 439.640625 263.148438 438.8125 263.753906 438.230469 C 264.363281 437.65625 265.121094 437.363281 266.03125 437.363281 C 267 437.363281 267.808594 437.675781 268.460938 438.296875 C 269.109375 438.917969 269.433594 439.648438 269.433594 440.488281 C 269.433594 441.09375 269.289063 441.699219 269.003906 442.308594 C 268.566406 443.261719 267.867188 444.265625 266.898438 445.320313 C 265.4375 446.925781 264.519531 447.894531 264.144531 448.226563 L 267.265625 448.226563 C 267.902344 448.226563 268.347656 448.199219 268.597656 448.152344 C 268.851563 448.101563 269.085938 448.003906 269.292969 447.859375 C 269.503906 447.714844 269.679688 447.511719 269.824219 447.25 L 270.148438 447.25 "/>
<path style="fill:none;stroke-width:1.2;stroke-linecap:butt;stroke-linejoin:round;stroke:rgb(0%,0%,0%);stroke-opacity:1;stroke-miterlimit:10;" d="M 2809.648438 1646.445313 L 2754.140625 1646.445313 " transform="matrix(0.1,0,0,-0.1,0,555)"/>
<path style=" stroke:none;fill-rule:nonzero;fill:rgb(0%,0%,0%);fill-opacity:1;" d="M 249.011719 390.929688 C 249.011719 389.566406 249.21875 388.394531 249.632813 387.402344 C 250.039063 386.414063 250.589844 385.679688 251.265625 385.203125 C 251.800781 384.828125 252.351563 384.640625 252.914063 384.640625 C 253.824219 384.640625 254.640625 385.105469 255.363281 386.027344 C 256.273438 387.183594 256.730469 388.753906 256.730469 390.730469 C 256.730469 392.121094 256.53125 393.296875 256.132813 394.265625 C 255.738281 395.234375 255.226563 395.941406 254.605469 396.378906 C 253.984375 396.820313 253.390625 397.039063 252.828125 397.039063 C 251.6875 397.039063 250.730469 396.367188 249.964844 395.023438 C 249.328125 393.882813 249.011719 392.515625 249.011719 390.929688 Z M 250.746094 391.144531 C 250.746094 392.789063 250.949219 394.136719 251.355469 395.175781 C 251.6875 396.042969 252.183594 396.476563 252.851563 396.476563 C 253.167969 396.476563 253.496094 396.335938 253.835938 396.054688 C 254.175781 395.773438 254.433594 395.292969 254.605469 394.613281 C 254.878906 393.617188 255.015625 392.191406 255.015625 390.34375 C 255.015625 388.984375 254.871094 387.847656 254.585938 386.9375 C 254.382813 386.257813 254.105469 385.78125 253.761719 385.507813 C 253.53125 385.320313 253.238281 385.226563 252.894531 385.226563 C 252.503906 385.226563 252.148438 385.398438 251.832031 385.746094 C 251.410156 386.238281 251.128906 387.007813 250.972656 388.054688 C 250.824219 389.101563 250.746094 390.132813 250.746094 391.144531 Z M 259.636719 395.109375 C 259.910156 395.109375 260.140625 395.210938 260.328125 395.402344 C 260.515625 395.601563 260.609375 395.828125 260.609375 396.085938 C 260.609375 396.363281 260.515625 396.59375 260.328125 396.78125 C 260.140625 396.96875 259.910156 397.0625 259.636719 397.0625 C 259.359375 397.0625 259.128906 396.96875 258.941406 396.78125 C 258.753906 396.59375 258.660156 396.363281 258.660156 396.085938 C 258.660156 395.8125 258.753906 395.582031 258.941406 395.394531 C 259.128906 395.207031 259.359375 395.109375 259.636719 395.109375 Z M 262.800781 387.15625 C 263.148438 386.34375 263.578125 385.726563 264.101563 385.289063 C 264.621094 384.859375 265.265625 384.640625 266.03125 384.640625 C 267 384.640625 267.734375 384.949219 268.242188 385.570313 C 268.632813 386.035156 268.828125 386.527344 268.828125 387.046875 C 268.828125 387.929688 268.277344 388.832031 267.179688 389.757813 C 267.914063 390.046875 268.472656 390.457031 268.847656 390.992188 C 269.226563 391.527344 269.410156 392.15625 269.410156 392.878906 C 269.410156 393.902344 269.082031 394.792969 268.414063 395.546875 C 267.5625 396.542969 266.328125 397.039063 264.710938 397.039063 C 263.898438 397.039063 263.351563 396.941406 263.058594 396.738281 C 262.773438 396.535156 262.628906 396.320313 262.628906 396.085938 C 262.628906 395.914063 262.695313 395.765625 262.832031 395.644531 C 262.96875 395.519531 263.132813 395.457031 263.320313 395.457031 C 263.464844 395.457031 263.617188 395.480469 263.777344 395.523438 C 263.878906 395.554688 264.105469 395.65625 264.460938 395.839844 C 264.8125 396.019531 265.054688 396.132813 265.1875 396.175781 C 265.402344 396.230469 265.632813 396.261719 265.878906 396.261719 C 266.472656 396.261719 266.992188 396.03125 267.441406 395.566406 C 267.886719 395.105469 268.113281 394.554688 268.113281 393.921875 C 268.113281 393.457031 268.011719 393.007813 267.808594 392.574219 C 267.648438 392.242188 267.476563 391.988281 267.289063 391.816406 C 267.042969 391.585938 266.699219 391.375 266.257813 391.1875 C 265.816406 391 265.367188 390.90625 264.902344 390.90625 L 264.621094 390.90625 L 264.621094 390.625 C 265.085938 390.566406 265.550781 390.398438 266.019531 390.125 C 266.488281 389.851563 266.828125 389.523438 267.039063 389.136719 C 267.25 388.753906 267.351563 388.328125 267.351563 387.847656 C 267.351563 387.257813 267.164063 386.773438 266.789063 386.394531 C 266.414063 386.019531 265.941406 385.832031 265.378906 385.832031 C 264.46875 385.832031 263.710938 386.316406 263.105469 387.285156 L 262.800781 387.15625 "/>
<path style="fill:none;stroke-width:1.2;stroke-linecap:butt;stroke-linejoin:round;stroke:rgb(0%,0%,0%);stroke-opacity:1;stroke-miterlimit:10;" d="M 2809.648438 2178.28125 L 2754.140625 2178.28125 " transform="matrix(0.1,0,0,-0.1,0,555)"/>
<path style=" stroke:none;fill-rule:nonzero;fill:rgb(0%,0%,0%);fill-opacity:1;" d="M 249.011719 338.203125 C 249.011719 336.84375 249.21875 335.671875 249.632813 334.679688 C 250.039063 333.6875 250.589844 332.953125 251.265625 332.480469 C 251.800781 332.105469 252.351563 331.914063 252.914063 331.914063 C 253.824219 331.914063 254.640625 332.378906 255.363281 333.300781 C 256.273438 334.460938 256.730469 336.027344 256.730469 338.007813 C 256.730469 339.394531 256.53125 340.574219 256.132813 341.539063 C 255.738281 342.511719 255.226563 343.214844 254.605469 343.65625 C 253.984375 344.097656 253.390625 344.316406 252.828125 344.316406 C 251.6875 344.316406 250.730469 343.644531 249.964844 342.300781 C 249.328125 341.160156 249.011719 339.792969 249.011719 338.203125 Z M 250.746094 338.421875 C 250.746094 340.066406 250.949219 341.410156 251.355469 342.453125 C 251.6875 343.320313 252.183594 343.753906 252.851563 343.753906 C 253.167969 343.753906 253.496094 343.613281 253.835938 343.328125 C 254.175781 343.046875 254.433594 342.566406 254.605469 341.886719 C 254.878906 340.890625 255.015625 339.46875 255.015625 337.617188 C 255.015625 336.257813 254.871094 335.125 254.585938 334.214844 C 254.382813 333.535156 254.105469 333.058594 253.761719 332.78125 C 253.53125 332.59375 253.238281 332.5 252.894531 332.5 C 252.503906 332.5 252.148438 332.675781 251.832031 333.019531 C 251.410156 333.511719 251.128906 334.28125 250.972656 335.328125 C 250.824219 336.378906 250.746094 337.40625 250.746094 338.421875 Z M 259.636719 342.386719 C 259.910156 342.386719 260.140625 342.484375 260.328125 342.679688 C 260.515625 342.875 260.609375 343.101563 260.609375 343.363281 C 260.609375 343.636719 260.515625 343.867188 260.328125 344.054688 C 260.140625 344.242188 259.910156 344.335938 259.636719 344.335938 C 259.359375 344.335938 259.128906 344.242188 258.941406 344.054688 C 258.753906 343.867188 258.660156 343.636719 258.660156 343.363281 C 258.660156 343.085938 258.753906 342.855469 258.941406 342.667969 C 259.128906 342.480469 259.359375 342.386719 259.636719 342.386719 Z M 270.277344 339.699219 L 270.277344 340.957031 L 268.675781 340.957031 L 268.675781 344.101563 L 267.222656 344.101563 L 267.222656 340.957031 L 262.171875 340.957031 L 262.171875 339.828125 L 267.722656 331.914063 L 268.675781 331.914063 L 268.675781 339.699219 Z M 267.222656 339.699219 L 267.222656 333.757813 L 263.039063 339.699219 Z M 267.222656 339.699219 "/>
<path style="fill:none;stroke-width:1.2;stroke-linecap:butt;stroke-linejoin:round;stroke:rgb(0%,0%,0%);stroke-opacity:1;stroke-miterlimit:10;" d="M 2809.648438 2710.15625 L 2754.140625 2710.15625 " transform="matrix(0.1,0,0,-0.1,0,555)"/>
<path style=" stroke:none;fill-rule:nonzero;fill:rgb(0%,0%,0%);fill-opacity:1;" d="M 249.011719 284.089844 C 249.011719 282.730469 249.21875 281.558594 249.632813 280.566406 C 250.039063 279.578125 250.589844 278.84375 251.265625 278.367188 C 251.800781 277.992188 252.351563 277.800781 252.914063 277.800781 C 253.824219 277.800781 254.640625 278.265625 255.363281 279.191406 C 256.273438 280.347656 256.730469 281.914063 256.730469 283.894531 C 256.730469 285.28125 256.53125 286.460938 256.132813 287.429688 C 255.738281 288.398438 255.226563 289.101563 254.605469 289.542969 C 253.984375 289.984375 253.390625 290.203125 252.828125 290.203125 C 251.6875 290.203125 250.730469 289.53125 249.964844 288.1875 C 249.328125 287.046875 249.011719 285.679688 249.011719 284.089844 Z M 250.746094 284.308594 C 250.746094 285.953125 250.949219 287.296875 251.355469 288.339844 C 251.6875 289.207031 252.183594 289.640625 252.851563 289.640625 C 253.167969 289.640625 253.496094 289.5 253.835938 289.21875 C 254.175781 288.9375 254.433594 288.453125 254.605469 287.777344 C 254.878906 286.777344 255.015625 285.355469 255.015625 283.503906 C 255.015625 282.148438 254.871094 281.011719 254.585938 280.101563 C 254.382813 279.421875 254.105469 278.945313 253.761719 278.671875 C 253.53125 278.480469 253.238281 278.386719 252.894531 278.386719 C 252.503906 278.386719 252.148438 278.5625 251.832031 278.90625 C 251.410156 279.398438 251.128906 280.171875 250.972656 281.21875 C 250.824219 282.265625 250.746094 283.296875 250.746094 284.308594 Z M 259.636719 288.273438 C 259.910156 288.273438 260.140625 288.371094 260.328125 288.566406 C 260.515625 288.761719 260.609375 288.988281 260.609375 289.25 C 260.609375 289.523438 260.515625 289.757813 260.328125 289.941406 C 260.140625 290.132813 259.910156 290.226563 259.636719 290.226563 C 259.359375 290.226563 259.128906 290.132813 258.941406 289.941406 C 258.753906 289.757813 258.660156 289.523438 258.660156 289.25 C 258.660156 288.976563 258.753906 288.742188 258.941406 288.554688 C 259.128906 288.367188 259.359375 288.273438 259.636719 288.273438 Z M 269.714844 278.039063 L 269.023438 279.535156 L 265.445313 279.535156 L 264.664063 281.140625 C 266.210938 281.371094 267.441406 281.949219 268.351563 282.878906 C 269.128906 283.671875 269.523438 284.609375 269.523438 285.695313 C 269.523438 286.328125 269.394531 286.914063 269.140625 287.449219 C 268.890625 287.984375 268.566406 288.441406 268.175781 288.816406 C 267.789063 289.191406 267.351563 289.488281 266.875 289.703125 C 266.210938 290.035156 265.519531 290.203125 264.796875 290.203125 C 264.085938 290.203125 263.570313 290.078125 263.246094 289.835938 C 262.921875 289.589844 262.757813 289.320313 262.757813 289.03125 C 262.757813 288.859375 262.824219 288.710938 262.964844 288.589844 C 263.101563 288.464844 263.269531 288.402344 263.472656 288.402344 C 263.617188 288.402344 263.746094 288.425781 263.863281 288.46875 C 263.980469 288.511719 264.171875 288.636719 264.449219 288.835938 C 264.894531 289.140625 265.34375 289.292969 265.792969 289.292969 C 266.484375 289.292969 267.089844 289.03125 267.601563 288.511719 C 268.117188 287.992188 268.371094 287.355469 268.371094 286.605469 C 268.371094 285.882813 268.140625 285.210938 267.679688 284.589844 C 267.214844 283.96875 266.578125 283.484375 265.769531 283.136719 C 265.121094 282.878906 264.246094 282.722656 263.148438 282.679688 L 265.445313 278.039063 L 269.714844 278.039063 "/>
<path style="fill:none;stroke-width:1.2;stroke-linecap:butt;stroke-linejoin:round;stroke:rgb(0%,0%,0%);stroke-opacity:1;stroke-miterlimit:10;" d="M 2809.648438 3241.992188 L 2754.140625 3241.992188 " transform="matrix(0.1,0,0,-0.1,0,555)"/>
<path style=" stroke:none;fill-rule:nonzero;fill:rgb(0%,0%,0%);fill-opacity:1;" d="M 249.011719 231.367188 C 249.011719 230.007813 249.21875 228.832031 249.632813 227.839844 C 250.039063 226.851563 250.589844 226.117188 251.265625 225.640625 C 251.800781 225.265625 252.351563 225.078125 252.914063 225.078125 C 253.824219 225.078125 254.640625 225.539063 255.363281 226.464844 C 256.273438 227.621094 256.730469 229.191406 256.730469 231.171875 C 256.730469 232.558594 256.53125 233.734375 256.132813 234.703125 C 255.738281 235.671875 255.226563 236.378906 254.605469 236.816406 C 253.984375 237.257813 253.390625 237.480469 252.828125 237.480469 C 251.6875 237.480469 250.730469 236.804688 249.964844 235.464844 C 249.328125 234.320313 249.011719 232.953125 249.011719 231.367188 Z M 250.746094 231.582031 C 250.746094 233.230469 250.949219 234.574219 251.355469 235.613281 C 251.6875 236.480469 252.183594 236.914063 252.851563 236.914063 C 253.167969 236.914063 253.496094 236.773438 253.835938 236.492188 C 254.175781 236.210938 254.433594 235.730469 254.605469 235.050781 C 254.878906 234.054688 255.015625 232.628906 255.015625 230.78125 C 255.015625 229.421875 254.871094 228.285156 254.585938 227.378906 C 254.382813 226.695313 254.105469 226.21875 253.761719 225.945313 C 253.53125 225.757813 253.238281 225.664063 252.894531 225.664063 C 252.503906 225.664063 252.148438 225.835938 251.832031 226.183594 C 251.410156 226.675781 251.128906 227.445313 250.972656 228.492188 C 250.824219 229.539063 250.746094 230.570313 250.746094 231.582031 Z M 259.636719 235.550781 C 259.910156 235.550781 260.140625 235.644531 260.328125 235.84375 C 260.515625 236.035156 260.609375 236.265625 260.609375 236.523438 C 260.609375 236.800781 260.515625 237.03125 260.328125 237.21875 C 260.140625 237.40625 259.910156 237.5 259.636719 237.5 C 259.359375 237.5 259.128906 237.40625 258.941406 237.21875 C 258.753906 237.03125 258.660156 236.800781 258.660156 236.523438 C 258.660156 236.25 258.753906 236.019531 258.941406 235.828125 C 259.128906 235.644531 259.359375 235.550781 259.636719 235.550781 Z M 269.976563 225.078125 L 269.976563 225.402344 C 269.195313 225.476563 268.5625 225.628906 268.070313 225.859375 C 267.578125 226.089844 267.09375 226.445313 266.617188 226.921875 C 266.140625 227.398438 265.746094 227.929688 265.433594 228.515625 C 265.121094 229.101563 264.859375 229.789063 264.644531 230.585938 C 265.496094 230.007813 266.347656 229.71875 267.203125 229.71875 C 268.011719 229.71875 268.714844 230.046875 269.316406 230.703125 C 269.914063 231.359375 270.214844 232.210938 270.214844 233.25 C 270.214844 234.25 269.910156 235.160156 269.304688 235.984375 C 268.582031 236.980469 267.621094 237.480469 266.421875 237.480469 C 265.597656 237.480469 264.902344 237.203125 264.339844 236.65625 C 263.226563 235.613281 262.671875 234.257813 262.671875 232.578125 C 262.671875 231.511719 262.882813 230.492188 263.308594 229.53125 C 263.734375 228.574219 264.347656 227.714844 265.140625 226.964844 C 265.9375 226.210938 266.699219 225.710938 267.429688 225.457031 C 268.160156 225.203125 268.835938 225.078125 269.457031 225.078125 Z M 264.492188 231.234375 C 264.390625 232.03125 264.339844 232.671875 264.339844 233.164063 C 264.339844 233.730469 264.445313 234.339844 264.65625 234.996094 C 264.863281 235.652344 265.171875 236.175781 265.574219 236.570313 C 265.878906 236.84375 266.246094 236.980469 266.683594 236.980469 C 267.1875 236.980469 267.640625 236.738281 268.046875 236.253906 C 268.453125 235.769531 268.65625 235.085938 268.65625 234.203125 C 268.65625 233.191406 268.453125 232.324219 268.046875 231.59375 C 267.640625 230.863281 267.078125 230.496094 266.355469 230.496094 C 266.125 230.496094 265.882813 230.542969 265.628906 230.640625 C 265.378906 230.734375 264.996094 230.929688 264.492188 231.234375 "/>
<path style="fill:none;stroke-width:1.2;stroke-linecap:butt;stroke-linejoin:round;stroke:rgb(0%,0%,0%);stroke-opacity:1;stroke-miterlimit:10;" d="M 2809.648438 3773.867188 L 2754.140625 3773.867188 " transform="matrix(0.1,0,0,-0.1,0,555)"/>
<path style=" stroke:none;fill-rule:nonzero;fill:rgb(0%,0%,0%);fill-opacity:1;" d="M 249.011719 178.640625 C 249.011719 177.28125 249.21875 176.105469 249.632813 175.117188 C 250.039063 174.128906 250.589844 173.394531 251.265625 172.917969 C 251.800781 172.539063 252.351563 172.351563 252.914063 172.351563 C 253.824219 172.351563 254.640625 172.816406 255.363281 173.738281 C 256.273438 174.898438 256.730469 176.464844 256.730469 178.445313 C 256.730469 179.832031 256.53125 181.011719 256.132813 181.980469 C 255.738281 182.945313 255.226563 183.652344 254.605469 184.09375 C 253.984375 184.53125 253.390625 184.753906 252.828125 184.753906 C 251.6875 184.753906 250.730469 184.082031 249.964844 182.738281 C 249.328125 181.597656 249.011719 180.230469 249.011719 178.640625 Z M 250.746094 178.855469 C 250.746094 180.503906 250.949219 181.847656 251.355469 182.890625 C 251.6875 183.757813 252.183594 184.191406 252.851563 184.191406 C 253.167969 184.191406 253.496094 184.050781 253.835938 183.769531 C 254.175781 183.484375 254.433594 183.003906 254.605469 182.324219 C 254.878906 181.328125 255.015625 179.90625 255.015625 178.054688 C 255.015625 176.695313 254.871094 175.5625 254.585938 174.652344 C 254.382813 173.972656 254.105469 173.496094 253.761719 173.21875 C 253.53125 173.03125 253.238281 172.9375 252.894531 172.9375 C 252.503906 172.9375 252.148438 173.109375 251.832031 173.457031 C 251.410156 173.949219 251.128906 174.71875 250.972656 175.765625 C 250.824219 176.816406 250.746094 177.847656 250.746094 178.855469 Z M 259.636719 182.824219 C 259.910156 182.824219 260.140625 182.921875 260.328125 183.117188 C 260.515625 183.3125 260.609375 183.539063 260.609375 183.800781 C 260.609375 184.074219 260.515625 184.304688 260.328125 184.492188 C 260.140625 184.683594 259.910156 184.773438 259.636719 184.773438 C 259.359375 184.773438 259.128906 184.683594 258.941406 184.492188 C 258.753906 184.304688 258.660156 184.074219 258.660156 183.800781 C 258.660156 183.523438 258.753906 183.292969 258.941406 183.105469 C 259.128906 182.917969 259.359375 182.824219 259.636719 182.824219 Z M 263.710938 172.589844 L 270.105469 172.589844 L 270.105469 172.9375 L 266.117188 184.773438 L 265.140625 184.773438 L 268.699219 174.019531 L 265.421875 174.019531 C 264.757813 174.019531 264.289063 174.101563 264.015625 174.261719 C 263.507813 174.535156 263.113281 174.953125 262.820313 175.519531 L 262.5625 175.429688 L 263.710938 172.589844 "/>
<path style="fill:none;stroke-width:1.2;stroke-linecap:butt;stroke-linejoin:round;stroke:rgb(0%,0%,0%);stroke-opacity:1;stroke-miterlimit:10;" d="M 2809.648438 4305.703125 L 2754.140625 4305.703125 " transform="matrix(0.1,0,0,-0.1,0,555)"/>
<path style=" stroke:none;fill-rule:nonzero;fill:rgb(0%,0%,0%);fill-opacity:1;" d="M 249.011719 124.527344 C 249.011719 123.171875 249.21875 121.996094 249.632813 121.003906 C 250.039063 120.015625 250.589844 119.28125 251.265625 118.804688 C 251.800781 118.429688 252.351563 118.242188 252.914063 118.242188 C 253.824219 118.242188 254.640625 118.703125 255.363281 119.628906 C 256.273438 120.785156 256.730469 122.351563 256.730469 124.332031 C 256.730469 125.71875 256.53125 126.898438 256.132813 127.867188 C 255.738281 128.835938 255.226563 129.539063 254.605469 129.980469 C 253.984375 130.421875 253.390625 130.640625 252.828125 130.640625 C 251.6875 130.640625 250.730469 129.96875 249.964844 128.625 C 249.328125 127.484375 249.011719 126.117188 249.011719 124.527344 Z M 250.746094 124.746094 C 250.746094 126.394531 250.949219 127.738281 251.355469 128.777344 C 251.6875 129.644531 252.183594 130.078125 252.851563 130.078125 C 253.167969 130.078125 253.496094 129.9375 253.835938 129.65625 C 254.175781 129.371094 254.433594 128.894531 254.605469 128.214844 C 254.878906 127.214844 255.015625 125.792969 255.015625 123.941406 C 255.015625 122.585938 254.871094 121.449219 254.585938 120.539063 C 254.382813 119.859375 254.105469 119.382813 253.761719 119.109375 C 253.53125 118.921875 253.238281 118.824219 252.894531 118.824219 C 252.503906 118.824219 252.148438 119 251.832031 119.347656 C 251.410156 119.839844 251.128906 120.605469 250.972656 121.65625 C 250.824219 122.703125 250.746094 123.734375 250.746094 124.746094 Z M 259.636719 128.710938 C 259.910156 128.710938 260.140625 128.808594 260.328125 129.003906 C 260.515625 129.199219 260.609375 129.429688 260.609375 129.6875 C 260.609375 129.960938 260.515625 130.195313 260.328125 130.382813 C 260.140625 130.570313 259.910156 130.664063 259.636719 130.664063 C 259.359375 130.664063 259.128906 130.570313 258.941406 130.382813 C 258.753906 130.195313 258.660156 129.960938 258.660156 129.6875 C 258.660156 129.414063 258.753906 129.183594 258.941406 128.992188 C 259.128906 128.804688 259.359375 128.710938 259.636719 128.710938 Z M 265.359375 124.421875 C 264.40625 123.640625 263.789063 123.015625 263.515625 122.546875 C 263.242188 122.074219 263.105469 121.585938 263.105469 121.082031 C 263.105469 120.300781 263.402344 119.632813 264.003906 119.074219 C 264.601563 118.519531 265.402344 118.242188 266.398438 118.242188 C 267.367188 118.242188 268.144531 118.5 268.730469 119.019531 C 269.316406 119.542969 269.609375 120.132813 269.609375 120.800781 C 269.609375 121.246094 269.449219 121.703125 269.128906 122.164063 C 268.8125 122.628906 268.15625 123.175781 267.15625 123.8125 C 268.183594 124.605469 268.863281 125.234375 269.195313 125.699219 C 269.644531 126.289063 269.867188 126.921875 269.867188 127.585938 C 269.867188 128.421875 269.550781 129.140625 268.914063 129.742188 C 268.277344 130.34375 267.441406 130.640625 266.398438 130.640625 C 265.257813 130.640625 264.367188 130.285156 263.734375 129.578125 C 263.226563 129 262.972656 128.371094 262.972656 127.691406 C 262.972656 127.171875 263.15625 126.652344 263.515625 126.132813 C 263.878906 125.613281 264.492188 125.039063 265.359375 124.421875 Z M 266.726563 123.464844 C 267.433594 122.828125 267.878906 122.328125 268.070313 121.960938 C 268.257813 121.589844 268.351563 121.175781 268.351563 120.710938 C 268.351563 120.105469 268.175781 119.625 267.828125 119.269531 C 267.484375 118.917969 267.011719 118.738281 266.421875 118.738281 C 265.8125 118.738281 265.324219 118.914063 264.945313 119.261719 C 264.570313 119.605469 264.382813 120.011719 264.382813 120.472656 C 264.382813 120.777344 264.464844 121.085938 264.621094 121.394531 C 264.78125 121.707031 265.003906 122 265.292969 122.273438 Z M 265.769531 124.746094 C 265.277344 125.148438 264.917969 125.59375 264.6875 126.078125 C 264.457031 126.5625 264.339844 127.085938 264.339844 127.648438 C 264.339844 128.414063 264.546875 129.027344 264.957031 129.480469 C 265.367188 129.9375 265.894531 130.164063 266.527344 130.164063 C 267.164063 130.164063 267.675781 129.984375 268.058594 129.621094 C 268.441406 129.261719 268.632813 128.828125 268.632813 128.320313 C 268.632813 127.902344 268.515625 127.519531 268.285156 127.171875 C 267.878906 126.550781 267.042969 125.742188 265.769531 124.746094 "/>
<path style="fill:none;stroke-width:1.2;stroke-linecap:butt;stroke-linejoin:round;stroke:rgb(0%,0%,0%);stroke-opacity:1;stroke-miterlimit:10;" d="M 2809.648438 4837.539063 L 2754.140625 4837.539063 " transform="matrix(0.1,0,0,-0.1,0,555)"/>
<path style=" stroke:none;fill-rule:nonzero;fill:rgb(0%,0%,0%);fill-opacity:1;" d="M 249.011719 71.804688 C 249.011719 70.445313 249.21875 69.269531 249.632813 68.28125 C 250.039063 67.289063 250.589844 66.558594 251.265625 66.078125 C 251.800781 65.703125 252.351563 65.515625 252.914063 65.515625 C 253.824219 65.515625 254.640625 65.980469 255.363281 66.902344 C 256.273438 68.058594 256.730469 69.628906 256.730469 71.609375 C 256.730469 72.996094 256.53125 74.171875 256.132813 75.140625 C 255.738281 76.109375 255.226563 76.8125 254.605469 77.253906 C 253.984375 77.695313 253.390625 77.917969 252.828125 77.917969 C 251.6875 77.917969 250.730469 77.246094 249.964844 75.898438 C 249.328125 74.757813 249.011719 73.394531 249.011719 71.804688 Z M 250.746094 72.019531 C 250.746094 73.667969 250.949219 75.011719 251.355469 76.050781 C 251.6875 76.921875 252.183594 77.351563 252.851563 77.351563 C 253.167969 77.351563 253.496094 77.210938 253.835938 76.929688 C 254.175781 76.648438 254.433594 76.167969 254.605469 75.488281 C 254.878906 74.492188 255.015625 73.066406 255.015625 71.21875 C 255.015625 69.859375 254.871094 68.726563 254.585938 67.8125 C 254.382813 67.136719 254.105469 66.65625 253.761719 66.382813 C 253.53125 66.195313 253.238281 66.101563 252.894531 66.101563 C 252.503906 66.101563 252.148438 66.273438 251.832031 66.621094 C 251.410156 67.113281 251.128906 67.882813 250.972656 68.929688 C 250.824219 69.980469 250.746094 71.007813 250.746094 72.019531 Z M 259.636719 75.988281 C 259.910156 75.988281 260.140625 76.085938 260.328125 76.28125 C 260.515625 76.476563 260.609375 76.703125 260.609375 76.964844 C 260.609375 77.238281 260.515625 77.46875 260.328125 77.65625 C 260.140625 77.84375 259.910156 77.9375 259.636719 77.9375 C 259.359375 77.9375 259.128906 77.84375 258.941406 77.65625 C 258.753906 77.46875 258.660156 77.238281 258.660156 76.964844 C 258.660156 76.6875 258.753906 76.457031 258.941406 76.269531 C 259.128906 76.082031 259.359375 75.988281 259.636719 75.988281 Z M 262.84375 77.9375 L 262.84375 77.613281 C 263.609375 77.613281 264.320313 77.441406 264.980469 77.09375 C 265.636719 76.746094 266.273438 76.144531 266.886719 75.28125 C 267.503906 74.421875 267.925781 73.480469 268.15625 72.453125 C 267.230469 73.046875 266.398438 73.34375 265.660156 73.34375 C 264.824219 73.34375 264.105469 73.019531 263.507813 72.378906 C 262.90625 71.734375 262.605469 70.871094 262.605469 69.785156 C 262.605469 68.746094 262.902344 67.8125 263.496094 66.988281 C 264.21875 66.007813 265.164063 65.515625 266.335938 65.515625 C 267.316406 65.515625 268.15625 65.921875 268.847656 66.730469 C 269.703125 67.726563 270.128906 68.964844 270.128906 70.4375 C 270.128906 71.765625 269.804688 73.007813 269.152344 74.15625 C 268.503906 75.304688 267.597656 76.253906 266.441406 77.007813 C 265.488281 77.628906 264.457031 77.9375 263.34375 77.9375 Z M 268.308594 71.804688 C 268.40625 71.035156 268.460938 70.429688 268.460938 69.980469 C 268.460938 69.402344 268.363281 68.785156 268.164063 68.128906 C 267.972656 67.472656 267.695313 66.964844 267.34375 66.609375 C 266.988281 66.257813 266.589844 66.078125 266.140625 66.078125 C 265.617188 66.078125 265.160156 66.3125 264.761719 66.785156 C 264.363281 67.253906 264.164063 67.949219 264.164063 68.875 C 264.164063 70.117188 264.425781 71.085938 264.945313 71.78125 C 265.335938 72.285156 265.804688 72.539063 266.355469 72.539063 C 266.628906 72.539063 266.953125 72.476563 267.320313 72.34375 C 267.6875 72.214844 268.019531 72.035156 268.308594 71.804688 "/>
<path style="fill:none;stroke-width:1.2;stroke-linecap:butt;stroke-linejoin:round;stroke:rgb(0%,0%,0%);stroke-opacity:1;stroke-miterlimit:10;" d="M 2809.648438 5369.375 L 2754.140625 5369.375 " transform="matrix(0.1,0,0,-0.1,0,555)"/>
<path style=" stroke:none;fill-rule:nonzero;fill:rgb(0%,0%,0%);fill-opacity:1;" d="M 250.488281 14.199219 L 253.390625 12.789063 L 253.675781 12.789063 L 253.675781 22.871094 C 253.675781 23.535156 253.703125 23.953125 253.761719 24.117188 C 253.816406 24.285156 253.933594 24.410156 254.105469 24.496094 C 254.28125 24.585938 254.632813 24.636719 255.171875 24.648438 L 255.171875 24.976563 L 250.679688 24.976563 L 250.679688 24.648438 C 251.246094 24.636719 251.609375 24.585938 251.777344 24.496094 C 251.941406 24.410156 252.058594 24.296875 252.121094 24.152344 C 252.1875 24.007813 252.222656 23.578125 252.222656 22.871094 L 252.222656 16.433594 C 252.222656 15.550781 252.191406 14.988281 252.132813 14.742188 C 252.089844 14.554688 252.015625 14.417969 251.90625 14.328125 C 251.796875 14.242188 251.664063 14.199219 251.503906 14.199219 C 251.289063 14.199219 250.992188 14.292969 250.617188 14.480469 Z M 259.636719 23.261719 C 259.910156 23.261719 260.140625 23.359375 260.328125 23.554688 C 260.515625 23.75 260.609375 23.976563 260.609375 24.238281 C 260.609375 24.511719 260.515625 24.742188 260.328125 24.933594 C 260.140625 25.121094 259.910156 25.214844 259.636719 25.214844 C 259.359375 25.214844 259.128906 25.121094 258.941406 24.933594 C 258.753906 24.742188 258.660156 24.511719 258.660156 24.238281 C 258.660156 23.964844 258.753906 23.730469 258.941406 23.542969 C 259.128906 23.355469 259.359375 23.261719 259.636719 23.261719 Z M 262.539063 19.078125 C 262.539063 17.71875 262.746094 16.546875 263.160156 15.554688 C 263.570313 14.566406 264.117188 13.832031 264.796875 13.355469 C 265.328125 12.980469 265.878906 12.789063 266.441406 12.789063 C 267.351563 12.789063 268.171875 13.253906 268.890625 14.179688 C 269.804688 15.335938 270.257813 16.902344 270.257813 18.882813 C 270.257813 20.269531 270.058594 21.449219 269.660156 22.417969 C 269.265625 23.386719 268.753906 24.089844 268.132813 24.53125 C 267.511719 24.972656 266.921875 25.191406 266.355469 25.191406 C 265.214844 25.191406 264.261719 24.519531 263.496094 23.175781 C 262.859375 22.035156 262.539063 20.667969 262.539063 19.078125 Z M 264.273438 19.296875 C 264.273438 20.941406 264.476563 22.285156 264.882813 23.328125 C 265.214844 24.195313 265.714844 24.628906 266.378906 24.628906 C 266.695313 24.628906 267.023438 24.488281 267.363281 24.203125 C 267.703125 23.921875 267.960938 23.441406 268.132813 22.765625 C 268.40625 21.765625 268.546875 20.34375 268.546875 18.492188 C 268.546875 17.132813 268.402344 16 268.113281 15.089844 C 267.910156 14.410156 267.636719 13.933594 267.289063 13.65625 C 267.058594 13.46875 266.769531 13.375 266.421875 13.375 C 266.03125 13.375 265.675781 13.550781 265.359375 13.894531 C 264.9375 14.386719 264.65625 15.15625 264.503906 16.203125 C 264.351563 17.253906 264.273438 18.28125 264.273438 19.296875 "/>
<path style="fill:none;stroke-width:1.2;stroke-linecap:butt;stroke-linejoin:round;stroke:rgb(0%,0%,0%);stroke-opacity:1;stroke-miterlimit:10;" d="M 2809.648438 848.671875 L 2781.914063 848.671875 " transform="matrix(0.1,0,0,-0.1,0,555)"/>
<path style="fill:none;stroke-width:1.2;stroke-linecap:butt;stroke-linejoin:round;stroke:rgb(0%,0%,0%);stroke-opacity:1;stroke-miterlimit:10;" d="M 2809.648438 1380.546875 L 2781.914063 1380.546875 " transform="matrix(0.1,0,0,-0.1,0,555)"/>
<path style="fill:none;stroke-width:1.2;stroke-linecap:butt;stroke-linejoin:round;stroke:rgb(0%,0%,0%);stroke-opacity:1;stroke-miterlimit:10;" d="M 2809.648438 1912.382813 L 2781.914063 1912.382813 " transform="matrix(0.1,0,0,-0.1,0,555)"/>
<path style="fill:none;stroke-width:1.2;stroke-linecap:butt;stroke-linejoin:round;stroke:rgb(0%,0%,0%);stroke-opacity:1;stroke-miterlimit:10;" d="M 2809.648438 2444.21875 L 2781.914063 2444.21875 " transform="matrix(0.1,0,0,-0.1,0,555)"/>
<path style="fill:none;stroke-width:1.2;stroke-linecap:butt;stroke-linejoin:round;stroke:rgb(0%,0%,0%);stroke-opacity:1;stroke-miterlimit:10;" d="M 2809.648438 2976.09375 L 2781.914063 2976.09375 " transform="matrix(0.1,0,0,-0.1,0,555)"/>
<path style="fill:none;stroke-width:1.2;stroke-linecap:butt;stroke-linejoin:round;stroke:rgb(0%,0%,0%);stroke-opacity:1;stroke-miterlimit:10;" d="M 2809.648438 3507.929688 L 2781.914063 3507.929688 " transform="matrix(0.1,0,0,-0.1,0,555)"/>
<path style="fill:none;stroke-width:1.2;stroke-linecap:butt;stroke-linejoin:round;stroke:rgb(0%,0%,0%);stroke-opacity:1;stroke-miterlimit:10;" d="M 2809.648438 4039.765625 L 2781.914063 4039.765625 " transform="matrix(0.1,0,0,-0.1,0,555)"/>
<path style="fill:none;stroke-width:1.2;stroke-linecap:butt;stroke-linejoin:round;stroke:rgb(0%,0%,0%);stroke-opacity:1;stroke-miterlimit:10;" d="M 2809.648438 4571.601563 L 2781.914063 4571.601563 " transform="matrix(0.1,0,0,-0.1,0,555)"/>
<path style="fill:none;stroke-width:1.2;stroke-linecap:butt;stroke-linejoin:round;stroke:rgb(0%,0%,0%);stroke-opacity:1;stroke-miterlimit:10;" d="M 2809.648438 5103.476563 L 2781.914063 5103.476563 " transform="matrix(0.1,0,0,-0.1,0,555)"/>
</g>
</svg>
