<?xml version="1.0" encoding="UTF-8"?>
<svg xmlns="http://www.w3.org/2000/svg" xmlns:xlink="http://www.w3.org/1999/xlink" width="555pt" height="555pt" viewBox="0 0 555 555" version="1.1">
<defs>
<clipPath id="clip1">
  <path d="M 82.304688 147 L 343 147 L 343 408 L 82.304688 408 Z M 82.304688 147 "/>
</clipPath>
<clipPath id="clip2">
  <path d="M 82.304688 18 L 471 18 L 471 311 L 82.304688 311 Z M 82.304688 18 "/>
</clipPath>
<clipPath id="clip3">
  <path d="M 82.304688 243 L 471 243 L 471 536 L 82.304688 536 Z M 82.304688 243 "/>
</clipPath>
<clipPath id="clip4">
  <path d="M 75 297 L 83.25 297 L 83.25 299 L 75 299 Z M 75 297 "/>
</clipPath>
<clipPath id="clip5">
  <path d="M 146 146 L 158 146 L 158 159.5625 L 146 159.5625 Z M 146 146 "/>
</clipPath>
<clipPath id="clip6">
  <path d="M 171 535 L 178.988281 535 L 178.988281 537 L 171 537 Z M 171 535 "/>
</clipPath>
<clipPath id="clip7">
  <path d="M 182 406 L 190.089844 406 L 190.089844 408 L 182 408 Z M 182 406 "/>
</clipPath>
</defs>
<g id="surface1">
<rect x="0" y="0" width="555" height="555" style="fill:rgb(100%,100%,100%);fill-opacity:1;stroke:none;"/>
<g clip-path="url(#clip1)" clip-rule="nonzero">
<path style="fill:none;stroke-width:20.8125;stroke-linecap:butt;stroke-linejoin:round;stroke:rgb(100%,0%,0%);stroke-opacity:1;stroke-miterlimit:10;" d="M 859.257813 2539.882813 L 862.070313 2525.117188 L 862.851563 2521.523438 L 868.4375 2495.3125 L 871.328125 2483.242188 L 875.546875 2465.507813 L 881.328125 2443.4375 L 883.320313 2435.703125 L 889.023438 2415.78125 L 891.914063 2405.9375 L 893.242188 2401.71875 L 901.328125 2376.132813 L 907.734375 2357.382813 L 911.523438 2346.328125 L 918.789063 2326.40625 L 922.5 2316.523438 L 924.960938 2310.390625 L 934.414063 2286.757813 L 945.9375 2259.609375 L 947.03125 2256.953125 L 948.554688 2253.59375 L 960.742188 2227.148438 L 972.304688 2203.398438 L 975.234375 2197.382813 L 978.320313 2191.367188 L 990.820313 2167.578125 L 1006.289063 2139.609375 L 1007.304688 2137.773438 L 1008.085938 2136.40625 L 1024.960938 2108.007813 L 1037.851563 2087.226563 L 1043.632813 2078.203125 L 1055.15625 2060.898438 L 1063.476563 2048.398438 L 1067.617188 2042.382813 L 1084.609375 2018.59375 L 1097.382813 2001.40625 L 1106.992188 1988.828125 L 1127.148438 1963.398438 L 1130.742188 1959.023438 L 1150.78125 1935.351563 L 1156.015625 1929.21875 L 1156.914063 1928.164063 L 1182.929688 1899.414063 L 1186.679688 1895.429688 L 1211.640625 1869.648438 L 1216.445313 1864.804688 L 1242.226563 1839.84375 L 1246.210938 1836.09375 L 1274.921875 1810.039063 L 1275.976563 1809.101563 L 1282.148438 1803.90625 L 1305.742188 1783.828125 L 1310.15625 1780.273438 L 1335.546875 1760.078125 L 1348.085938 1750.46875 L 1365.273438 1737.65625 L 1389.0625 1720.664063 L 1395.078125 1716.484375 L 1407.539063 1708.164063 L 1424.84375 1696.640625 L 1433.867188 1690.898438 L 1454.609375 1677.96875 L 1482.96875 1661.09375 L 1484.375 1660.273438 L 1486.171875 1659.296875 L 1514.140625 1643.828125 L 1537.890625 1631.289063 L 1543.90625 1628.203125 L 1549.882813 1625.273438 L 1573.671875 1613.671875 L 1600.078125 1601.484375 L 1603.4375 1599.960938 L 1606.054688 1598.867188 L 1633.164063 1587.34375 L 1656.796875 1577.851563 L 1662.96875 1575.390625 L 1672.8125 1571.71875 L 1692.734375 1564.414063 L 1703.789063 1560.625 L 1722.5 1554.21875 L 1748.046875 1546.132813 L 1752.265625 1544.804688 L 1762.109375 1541.914063 L 1782.03125 1536.210938 L 1789.726563 1534.179688 L 1811.796875 1528.398438 L 1829.492188 1524.21875 L 1841.5625 1521.328125 L 1867.734375 1515.703125 L 1871.328125 1514.921875 L 1886.09375 1512.109375 L 1901.09375 1509.335938 L 1904.414063 1508.789063 L 1930.859375 1504.453125 L 1939.726563 1503.242188 L 1960.625 1500.3125 L 1973.984375 1498.789063 L 1990.390625 1496.835938 L 2007.226563 1495.273438 L 2020.15625 1494.0625 L 2039.53125 1492.734375 L 2049.921875 1491.992188 L 2071.015625 1491.015625 L 2079.6875 1490.625 L 2101.679688 1490.117188 L 2109.453125 1489.921875 L 2139.21875 1489.921875 L 2160.898438 1490.429688 L 2168.984375 1490.625 L 2189.53125 1491.5625 L 2198.75 1491.992188 L 2217.539063 1493.320313 L 2228.554688 1494.0625 L 2245.039063 1495.625 L 2258.28125 1496.835938 L 2271.953125 1498.4375 L 2288.085938 1500.3125 L 2298.398438 1501.757813 L 2317.8125 1504.453125 L 2324.375 1505.546875 L 2347.578125 1509.335938 L 2349.960938 1509.765625 L 2362.578125 1512.109375 L 2375 1514.492188 L 2377.382813 1514.921875 L 2399.53125 1519.6875 L 2407.148438 1521.328125 L 2423.75 1525.273438 L 2436.875 1528.398438 L 2447.578125 1531.210938 L 2466.679688 1536.210938 L 2471.09375 1537.460938 L 2486.601563 1541.914063 L 2494.21875 1544.140625 L 2496.445313 1544.804688 L 2516.835938 1551.289063 L 2526.210938 1554.21875 L 2539.21875 1558.671875 L 2555.976563 1564.414063 L 2561.289063 1566.367188 L 2575.898438 1571.71875 L 2583.046875 1574.375 L 2585.742188 1575.390625 L 2604.335938 1582.851563 L 2615.507813 1587.34375 L 2625.429688 1591.5625 L 2645.273438 1599.960938 L 2646.328125 1600.46875 L 2648.632813 1601.484375 L 2666.679688 1609.84375 L 2675.039063 1613.671875 L 2686.835938 1619.453125 L 2704.804688 1628.203125 L 2706.835938 1629.257813 L 2710.78125 1631.289063 L 2726.367188 1639.492188 L 2734.570313 1643.828125 L 2745.664063 1649.960938 L 2764.335938 1660.273438 L 2764.84375 1660.585938 L 2765.742188 1661.09375 L 2783.515625 1671.679688 L 2794.101563 1677.96875 L 2802.03125 1682.890625 L 2814.84375 1690.898438 L 2820.351563 1694.414063 L 2823.867188 1696.640625 L 2853.632813 1716.484375 L 2856.09375 1718.203125 L 2859.648438 1720.664063 L 2873.515625 1730.585938 L 2883.398438 1737.65625 L 2890.742188 1743.125 L 2900.625 1750.46875 L 2907.734375 1755.898438 L 2913.164063 1760.078125 L 2924.414063 1769.023438 L 2938.554688 1780.273438 L 2940.976563 1782.226563 L 2942.929688 1783.828125 L 2957.109375 1795.859375 L 2972.695313 1809.101563 L 2973.203125 1809.570313 L 2973.75 1810.039063 L 2988.828125 1823.710938 L 3002.460938 1836.09375 L 3004.414063 1837.890625 L 3006.484375 1839.84375 L 3019.570313 1852.539063 L 3032.226563 1864.804688 L 3037.070313 1869.648438 L 3049.335938 1882.304688 L 3061.992188 1895.429688 L 3063.945313 1897.5 L 3065.742188 1899.414063 L 3078.125 1913.085938 L 3091.757813 1928.164063 L 3092.265625 1928.710938 L 3092.695313 1929.21875 L 3105.9375 1944.84375 L 3117.96875 1959.023438 L 3119.570313 1961.015625 L 3121.523438 1963.398438 L 3132.773438 1977.578125 L 3141.71875 1988.828125 L 3145.859375 1994.257813 L 3151.289063 2001.40625 L 3158.632813 2011.289063 L 3164.101563 2018.59375 L 3171.171875 2028.515625 L 3181.09375 2042.382813 L 3183.515625 2045.9375 L 3185.234375 2048.398438 L 3195.46875 2063.789063 L 3205.078125 2078.203125 L 3207.304688 2081.71875 L 3210.859375 2087.226563 L 3218.789063 2100.039063 L 3223.710938 2108.007813 L 3230.039063 2118.554688 L 3240.625 2136.40625 L 3241.132813 2137.265625 L 3241.40625 2137.773438 L 3251.71875 2156.445313 L 3257.851563 2167.578125 L 3262.1875 2175.78125 L 3270.390625 2191.367188 L 3272.421875 2195.3125 L 3273.4375 2197.382813 L 3282.1875 2215.351563 L 3287.96875 2227.148438 L 3291.796875 2235.507813 L 3300.15625 2253.59375 L 3301.171875 2255.898438 L 3301.640625 2256.953125 L 3310.078125 2276.796875 L 3314.296875 2286.757813 L 3318.75 2297.890625 L 3326.210938 2316.523438 L 3327.226563 2319.21875 L 3329.882813 2326.40625 L 3335.234375 2341.015625 L 3337.1875 2346.328125 L 3342.929688 2363.125 L 3347.34375 2376.132813 L 3350.3125 2385.507813 L 3356.796875 2405.9375 L 3357.460938 2408.164063 L 3359.6875 2415.78125 L 3364.101563 2431.289063 L 3365.351563 2435.703125 L 3370.351563 2454.804688 L 3373.164063 2465.507813 L 3376.289063 2478.671875 L 3380.234375 2495.3125 L 3381.875 2502.890625 L 3386.640625 2525.117188 L 3387.070313 2527.460938 L 3389.453125 2539.882813 L 3391.796875 2552.539063 L 3392.226563 2554.882813 L 3396.015625 2578.125 L 3397.070313 2584.6875 L 3399.804688 2604.140625 L 3401.210938 2614.492188 L 3403.125 2630.585938 L 3404.6875 2644.257813 L 3405.9375 2657.578125 L 3407.460938 2674.0625 L 3408.242188 2685.078125 L 3409.53125 2703.867188 L 3409.960938 2713.125 L 3410.9375 2733.632813 L 3411.09375 2741.757813 L 3411.601563 2763.476563 L 3411.601563 2793.242188 L 3411.445313 2801.015625 L 3410.9375 2823.046875 L 3410.507813 2831.71875 L 3409.53125 2852.8125 L 3408.828125 2863.242188 L 3407.460938 2882.617188 L 3406.25 2895.585938 L 3404.6875 2912.421875 L 3402.773438 2928.867188 L 3401.210938 2942.226563 L 3398.320313 2963.125 L 3397.070313 2971.992188 L 3392.773438 2998.476563 L 3392.226563 3001.796875 L 3389.453125 3016.796875 L 3386.640625 3031.601563 L 3385.859375 3035.15625 L 3380.234375 3061.40625 L 3377.382813 3073.476563 L 3373.164063 3091.171875 L 3367.382813 3113.242188 L 3365.351563 3120.976563 L 3359.6875 3140.898438 L 3356.796875 3150.742188 L 3355.46875 3155 L 3347.34375 3180.585938 L 3340.976563 3199.296875 L 3337.1875 3210.351563 L 3329.882813 3230.273438 L 3326.210938 3240.15625 L 3323.75 3246.328125 L 3314.296875 3269.960938 L 3302.773438 3297.109375 L 3301.640625 3299.726563 L 3300.15625 3303.085938 L 3287.96875 3329.53125 L 3276.367188 3353.320313 L 3273.4375 3359.335938 L 3270.390625 3365.3125 L 3257.851563 3389.101563 L 3242.421875 3417.109375 L 3241.40625 3418.90625 L 3240.625 3420.3125 L 3223.710938 3448.710938 L 3210.859375 3469.453125 L 3205.078125 3478.515625 L 3193.554688 3495.78125 L 3185.234375 3508.28125 L 3181.09375 3514.296875 L 3164.101563 3538.085938 L 3151.289063 3555.3125 L 3141.71875 3567.890625 L 3121.523438 3593.28125 L 3117.96875 3597.695313 L 3097.890625 3621.328125 L 3092.695313 3627.460938 L 3091.757813 3628.515625 L 3065.742188 3657.265625 L 3061.992188 3661.289063 L 3037.070313 3687.070313 L 3032.226563 3691.875 L 3006.484375 3716.835938 L 3002.460938 3720.585938 L 2973.75 3746.640625 L 2972.695313 3747.578125 L 2966.5625 3752.773438 L 2942.929688 3772.851563 L 2938.554688 3776.445313 L 2913.164063 3796.601563 L 2900.625 3806.210938 L 2883.398438 3819.023438 L 2859.648438 3836.015625 L 2853.632813 3840.195313 L 2841.171875 3848.515625 L 2823.867188 3860.039063 L 2814.84375 3865.820313 L 2794.101563 3878.710938 L 2765.742188 3895.625 L 2764.335938 3896.40625 L 2762.539063 3897.421875 L 2734.570313 3912.890625 L 2710.78125 3925.390625 L 2704.804688 3928.476563 L 2698.789063 3931.40625 L 2675.039063 3943.007813 L 2648.632813 3955.195313 L 2645.273438 3956.71875 L 2642.617188 3957.8125 L 2615.507813 3969.375 L 2591.875 3978.828125 L 2585.742188 3981.289063 L 2575.898438 3985 L 2555.976563 3992.265625 L 2544.921875 3996.054688 L 2526.210938 4002.460938 L 2500.664063 4010.546875 L 2496.445313 4011.914063 L 2486.601563 4014.804688 L 2466.679688 4020.46875 L 2458.945313 4022.5 L 2436.875 4028.28125 L 2419.179688 4032.5 L 2407.148438 4035.390625 L 2380.9375 4041.015625 L 2377.382813 4041.757813 L 2362.578125 4044.570313 L 2347.578125 4047.382813 L 2344.257813 4047.929688 L 2317.8125 4052.226563 L 2308.945313 4053.476563 L 2288.085938 4056.367188 L 2274.726563 4057.929688 L 2258.28125 4059.84375 L 2241.484375 4061.40625 L 2228.554688 4062.617188 L 2209.140625 4063.984375 L 2198.75 4064.6875 L 2177.695313 4065.664063 L 2168.984375 4066.09375 L 2146.992188 4066.601563 L 2139.21875 4066.796875 L 2109.453125 4066.796875 L 2087.8125 4066.25 L 2079.6875 4066.09375 L 2059.179688 4065.117188 L 2049.921875 4064.6875 L 2031.132813 4063.398438 L 2020.15625 4062.617188 L 2003.671875 4061.054688 L 1990.390625 4059.84375 L 1976.71875 4058.242188 L 1960.625 4056.367188 L 1950.273438 4054.921875 L 1930.859375 4052.226563 L 1924.296875 4051.132813 L 1901.09375 4047.382813 L 1898.75 4046.914063 L 1886.09375 4044.570313 L 1873.710938 4042.226563 L 1871.328125 4041.757813 L 1849.140625 4036.992188 L 1841.5625 4035.390625 L 1824.921875 4031.40625 L 1811.796875 4028.28125 L 1801.09375 4025.46875 L 1782.03125 4020.46875 L 1777.578125 4019.21875 L 1762.109375 4014.804688 L 1754.492188 4012.539063 L 1752.265625 4011.914063 L 1731.835938 4005.429688 L 1722.5 4002.460938 L 1709.492188 3998.007813 L 1692.734375 3992.265625 L 1687.382813 3990.3125 L 1672.8125 3985 L 1665.664063 3982.304688 L 1662.96875 3981.289063 L 1644.335938 3973.828125 L 1633.164063 3969.375 L 1623.242188 3965.15625 L 1603.4375 3956.71875 L 1602.382813 3956.210938 L 1600.078125 3955.195313 L 1581.992188 3946.875 L 1573.671875 3943.007813 L 1561.835938 3937.226563 L 1543.90625 3928.476563 L 1541.875 3927.460938 L 1537.890625 3925.390625 L 1514.140625 3912.890625 L 1503.007813 3906.757813 L 1484.375 3896.40625 L 1483.867188 3896.132813 L 1482.96875 3895.625 L 1465.15625 3885.039063 L 1454.609375 3878.710938 L 1446.640625 3873.789063 L 1433.867188 3865.820313 L 1428.359375 3862.304688 L 1424.84375 3860.039063 L 1395.078125 3840.195313 L 1392.617188 3838.476563 L 1389.0625 3836.015625 L 1375.195313 3826.09375 L 1365.273438 3819.023438 L 1357.96875 3813.554688 L 1348.085938 3806.210938 L 1340.976563 3800.78125 L 1335.546875 3796.601563 L 1324.296875 3787.695313 L 1310.15625 3776.445313 L 1307.734375 3774.453125 L 1305.742188 3772.851563 L 1291.601563 3760.820313 L 1275.976563 3747.578125 L 1275.507813 3747.148438 L 1274.921875 3746.640625 L 1259.882813 3732.96875 L 1246.210938 3720.585938 L 1244.296875 3718.789063 L 1242.226563 3716.835938 L 1229.140625 3704.179688 L 1216.445313 3691.875 L 1211.640625 3687.070313 L 1199.375 3674.375 L 1186.679688 3661.289063 L 1184.765625 3659.21875 L 1182.929688 3657.265625 L 1170.585938 3643.59375 L 1156.914063 3628.515625 L 1156.445313 3627.96875 L 1156.015625 3627.460938 L 1142.773438 3611.875 L 1130.742188 3597.695313 L 1129.140625 3595.703125 L 1127.148438 3593.28125 L 1115.9375 3579.140625 L 1106.992188 3567.890625 L 1102.8125 3562.421875 L 1097.382813 3555.3125 L 1090.078125 3545.429688 L 1084.609375 3538.085938 L 1077.539063 3528.164063 L 1067.617188 3514.296875 L 1065.15625 3510.742188 L 1063.476563 3508.28125 L 1053.203125 3492.929688 L 1043.632813 3478.515625 L 1041.367188 3474.960938 L 1037.851563 3469.453125 L 1029.921875 3456.640625 L 1024.960938 3448.710938 L 1018.671875 3438.125 L 1008.085938 3420.3125 L 1007.578125 3419.414063 L 1007.304688 3418.90625 L 996.992188 3400.234375 L 990.820313 3389.101563 L 986.523438 3380.9375 L 978.320313 3365.3125 L 976.289063 3361.367188 L 975.234375 3359.335938 L 966.523438 3341.367188 L 960.742188 3329.53125 L 956.914063 3321.171875 L 948.554688 3303.085938 L 947.5 3300.78125 L 947.03125 3299.726563 L 938.632813 3279.882813 L 934.414063 3269.960938 L 929.921875 3258.789063 L 922.5 3240.15625 L 921.484375 3237.460938 L 918.789063 3230.273438 L 913.4375 3215.703125 L 911.523438 3210.351563 L 905.78125 3193.59375 L 901.328125 3180.585938 L 898.398438 3171.210938 L 891.914063 3150.742188 L 891.25 3148.554688 L 889.023438 3140.898438 L 884.609375 3125.390625 L 883.320313 3120.976563 L 878.320313 3101.875 L 875.546875 3091.171875 L 872.421875 3078.007813 L 868.4375 3061.40625 L 866.835938 3053.789063 L 862.070313 3031.601563 L 861.601563 3029.21875 L 859.257813 3016.796875 L 856.914063 3004.140625 L 856.484375 3001.796875 L 852.695313 2978.554688 L 851.601563 2971.992188 L 848.90625 2952.578125 L 847.460938 2942.226563 L 845.585938 2926.09375 L 844.023438 2912.421875 L 842.773438 2899.140625 L 841.25 2882.617188 L 840.46875 2871.640625 L 839.140625 2852.8125 L 838.710938 2843.59375 L 837.773438 2823.046875 L 837.578125 2814.921875 L 837.070313 2793.242188 L 837.070313 2763.476563 L 837.265625 2755.664063 L 837.773438 2733.632813 L 838.164063 2724.960938 L 839.140625 2703.867188 L 839.882813 2693.476563 L 841.25 2674.0625 L 842.421875 2661.09375 L 844.023438 2644.257813 L 845.898438 2627.851563 L 847.460938 2614.492188 L 850.390625 2593.554688 L 851.601563 2584.6875 L 855.9375 2558.242188 L 856.484375 2554.882813 L 859.257813 2539.882813 " transform="matrix(0.1,0,0,-0.1,0,555)"/>
</g>
<g clip-path="url(#clip2)" clip-rule="nonzero">
<path style="fill:none;stroke-width:20.8125;stroke-linecap:butt;stroke-linejoin:round;stroke:rgb(0%,0%,100%);stroke-opacity:1;stroke-miterlimit:10;" d="M 836.953125 5355.507813 L 859.257813 5338.75 L 876.601563 5325.703125 L 889.023438 5316.40625 L 916.328125 5295.898438 L 918.789063 5294.0625 L 926.25 5288.476563 L 948.554688 5271.71875 L 956.015625 5266.09375 L 978.320313 5249.375 L 995.703125 5236.328125 L 1008.085938 5226.992188 L 1035.390625 5206.523438 L 1037.851563 5204.648438 L 1045.3125 5199.0625 L 1067.617188 5182.304688 L 1075.078125 5176.71875 L 1097.382813 5159.960938 L 1114.765625 5146.953125 L 1127.148438 5137.617188 L 1154.453125 5117.148438 L 1156.914063 5115.273438 L 1164.375 5109.6875 L 1186.679688 5092.929688 L 1194.140625 5087.34375 L 1216.445313 5070.585938 L 1233.828125 5057.578125 L 1246.210938 5048.242188 L 1273.515625 5027.773438 L 1275.976563 5025.898438 L 1283.4375 5020.3125 L 1305.742188 5003.554688 L 1313.203125 4997.96875 L 1335.546875 4981.210938 L 1352.890625 4968.164063 L 1365.273438 4958.867188 L 1392.578125 4938.398438 L 1395.078125 4936.523438 L 1402.5 4930.9375 L 1424.84375 4914.179688 L 1432.265625 4908.59375 L 1454.609375 4891.835938 L 1471.953125 4878.789063 L 1484.375 4869.492188 L 1511.640625 4848.984375 L 1514.140625 4847.148438 L 1521.5625 4841.5625 L 1543.90625 4824.804688 L 1551.328125 4819.21875 L 1573.671875 4802.460938 L 1591.015625 4789.414063 L 1603.4375 4780.117188 L 1630.703125 4759.609375 L 1633.164063 4757.773438 L 1640.625 4752.1875 L 1662.96875 4735.390625 L 1670.390625 4729.84375 L 1692.734375 4713.085938 L 1710.078125 4700.039063 L 1722.5 4690.703125 L 1749.765625 4670.234375 L 1752.265625 4668.398438 L 1759.6875 4662.773438 L 1782.03125 4646.015625 L 1789.453125 4640.46875 L 1811.796875 4623.671875 L 1829.140625 4610.664063 L 1841.5625 4601.328125 L 1868.867188 4580.859375 L 1871.328125 4578.984375 L 1878.789063 4573.398438 L 1901.09375 4556.640625 L 1908.554688 4551.054688 L 1930.859375 4534.296875 L 1948.242188 4521.289063 L 1960.625 4511.953125 L 1987.890625 4491.484375 L 1990.390625 4489.609375 L 1997.8125 4484.023438 L 2020.15625 4467.265625 L 2027.617188 4461.679688 L 2049.921875 4444.921875 L 2067.304688 4431.875 L 2079.6875 4422.578125 L 2106.992188 4402.109375 L 2109.453125 4400.234375 L 2116.914063 4394.648438 L 2139.21875 4377.890625 L 2146.679688 4372.304688 L 2168.984375 4355.546875 L 2186.367188 4342.5 L 2198.75 4333.203125 L 2226.054688 4312.695313 L 2228.554688 4310.859375 L 2235.976563 4305.273438 L 2258.28125 4288.515625 L 2265.742188 4282.929688 L 2288.085938 4266.171875 L 2305.429688 4253.125 L 2317.8125 4243.828125 L 2345.117188 4223.359375 L 2347.578125 4221.484375 L 2355.039063 4215.898438 L 2377.382813 4199.140625 L 2384.804688 4193.554688 L 2407.148438 4176.796875 L 2424.492188 4163.75 L 2436.875 4154.453125 L 2464.179688 4133.945313 L 2466.679688 4132.109375 L 2474.101563 4126.484375 L 2496.445313 4109.765625 L 2503.867188 4104.140625 L 2526.210938 4087.421875 L 2543.554688 4074.375 L 2555.976563 4065.039063 L 2583.242188 4044.570313 L 2585.742188 4042.734375 L 2593.164063 4037.148438 L 2615.507813 4020.351563 L 2622.96875 4014.804688 L 2645.273438 3998.046875 L 2662.617188 3985 L 2675.039063 3975.703125 L 2702.304688 3955.195313 L 2704.804688 3953.359375 L 2712.226563 3947.734375 L 2734.570313 3931.015625 L 2741.992188 3925.390625 L 2764.335938 3908.632813 L 2781.71875 3895.625 L 2794.101563 3886.289063 L 2821.367188 3865.820313 L 2823.867188 3863.945313 L 2831.289063 3858.398438 L 2853.632813 3841.601563 L 2861.09375 3836.015625 L 2883.398438 3819.257813 L 2900.742188 3806.210938 L 2913.164063 3796.914063 L 2940.46875 3776.445313 L 2942.929688 3774.570313 L 2950.390625 3768.984375 L 2972.695313 3752.226563 L 2980.15625 3746.640625 L 3002.460938 3729.882813 L 3019.84375 3716.835938 L 3032.226563 3707.539063 L 3059.53125 3687.070313 L 3061.992188 3685.195313 L 3069.453125 3679.609375 L 3091.757813 3662.851563 L 3099.21875 3657.265625 L 3121.523438 3640.507813 L 3138.90625 3627.460938 L 3151.289063 3618.164063 L 3178.59375 3597.695313 L 3181.09375 3595.820313 L 3188.515625 3590.234375 L 3210.859375 3573.476563 L 3218.28125 3567.890625 L 3240.625 3551.132813 L 3257.96875 3538.085938 L 3270.390625 3528.789063 L 3297.65625 3508.28125 L 3300.15625 3506.445313 L 3307.578125 3500.859375 L 3329.882813 3484.0625 L 3337.34375 3478.515625 L 3359.6875 3461.757813 L 3377.03125 3448.710938 L 3389.453125 3439.375 L 3416.71875 3418.90625 L 3419.21875 3417.03125 L 3426.640625 3411.445313 L 3448.984375 3394.6875 L 3456.40625 3389.101563 L 3496.09375 3359.335938 L 3508.515625 3350 L 3535.78125 3329.53125 L 3538.28125 3327.65625 L 3545.703125 3322.070313 L 3568.046875 3305.3125 L 3575.507813 3299.726563 L 3597.8125 3282.96875 L 3615.15625 3269.960938 L 3627.578125 3260.625 L 3654.882813 3240.15625 L 3657.34375 3238.28125 L 3664.804688 3232.695313 L 3687.109375 3215.9375 L 3694.53125 3210.351563 L 3716.875 3193.59375 L 3734.257813 3180.585938 L 3746.640625 3171.25 L 3773.945313 3150.742188 L 3776.40625 3148.90625 L 3783.867188 3143.320313 L 3806.171875 3126.5625 L 3813.632813 3120.976563 L 3835.9375 3104.21875 L 3853.320313 3091.171875 L 3865.703125 3081.875 L 3893.007813 3061.40625 L 3895.46875 3059.53125 L 3902.929688 3053.945313 L 3925.234375 3037.1875 L 3932.695313 3031.601563 L 3955 3014.84375 L 3972.382813 3001.796875 L 3984.765625 2992.5 L 4012.070313 2971.992188 L 4014.53125 2970.15625 L 4021.992188 2964.570313 L 4044.296875 2947.8125 L 4051.757813 2942.226563 L 4074.0625 2925.46875 L 4091.445313 2912.421875 L 4103.867188 2903.125 L 4131.132813 2882.617188 L 4133.59375 2880.78125 L 4141.054688 2875.195313 L 4163.398438 2858.4375 L 4170.820313 2852.8125 L 4193.164063 2836.09375 L 4210.507813 2823.046875 L 4222.890625 2813.710938 L 4250.195313 2793.242188 L 4252.695313 2791.40625 L 4260.117188 2785.78125 L 4282.460938 2769.023438 L 4289.882813 2763.476563 L 4312.226563 2746.71875 L 4329.570313 2733.632813 L 4341.992188 2724.335938 L 4369.257813 2703.867188 L 4371.757813 2701.992188 L 4379.179688 2696.40625 L 4401.523438 2679.648438 L 4408.945313 2674.0625 L 4431.289063 2657.304688 L 4448.632813 2644.257813 L 4461.054688 2634.960938 L 4488.359375 2614.492188 L 4490.820313 2612.617188 L 4498.242188 2607.03125 L 4520.585938 2590.273438 L 4528.007813 2584.6875 L 4550.351563 2567.929688 L 4567.734375 2554.882813 L 4580.117188 2545.585938 L 4607.382813 2525.117188 L 4609.882813 2523.242188 L 4617.304688 2517.65625 L 4639.648438 2500.898438 L 4647.109375 2495.3125 L 4669.414063 2478.554688 L 4686.796875 2465.507813 L 4699.179688 2456.210938 " transform="matrix(0.1,0,0,-0.1,0,555)"/>
</g>
<g clip-path="url(#clip3)" clip-rule="nonzero">
<path style="fill:none;stroke-width:20.8125;stroke-linecap:butt;stroke-linejoin:round;stroke:rgb(0%,0%,100%);stroke-opacity:1;stroke-miterlimit:10;" d="M 836.953125 201.171875 L 849.6875 210.78125 L 859.257813 217.929688 L 866.679688 223.554688 L 876.601563 230.976563 L 883.710938 236.289063 L 889.023438 240.3125 L 900.703125 249.0625 L 917.734375 261.835938 L 918.789063 262.65625 L 934.726563 274.609375 L 948.554688 285 L 951.757813 287.382813 L 956.015625 290.585938 L 968.75 300.15625 L 978.320313 307.34375 L 985.78125 312.929688 L 995.703125 320.390625 L 1002.773438 325.703125 L 1008.085938 329.6875 L 1019.804688 338.4375 L 1035.390625 350.15625 L 1036.796875 351.210938 L 1037.851563 352.03125 L 1053.789063 363.984375 L 1067.617188 374.375 L 1070.820313 376.757813 L 1075.078125 379.960938 L 1087.8125 389.53125 L 1097.382813 396.71875 L 1104.84375 402.304688 L 1114.765625 409.726563 L 1121.835938 415.078125 L 1138.867188 427.851563 L 1154.453125 439.53125 L 1155.859375 440.585938 L 1156.914063 441.40625 L 1172.851563 453.398438 L 1186.679688 463.75 L 1189.882813 466.132813 L 1194.140625 469.335938 L 1206.875 478.90625 L 1216.445313 486.09375 L 1223.90625 491.679688 L 1233.828125 499.140625 L 1240.898438 504.453125 L 1257.929688 517.226563 L 1273.515625 528.945313 L 1274.921875 530 L 1275.976563 530.78125 L 1291.953125 542.773438 L 1305.742188 553.125 L 1308.945313 555.507813 L 1313.203125 558.710938 L 1325.976563 568.28125 L 1335.546875 575.46875 L 1342.96875 581.054688 L 1352.890625 588.515625 L 1359.960938 593.828125 L 1376.992188 606.601563 L 1392.578125 618.320313 L 1393.984375 619.375 L 1395.078125 620.15625 L 1411.015625 632.148438 L 1424.84375 642.5 L 1428.007813 644.921875 L 1432.265625 648.085938 L 1445.039063 657.695313 L 1454.609375 664.84375 L 1462.03125 670.429688 L 1471.953125 677.890625 L 1479.0625 683.203125 L 1484.375 687.1875 L 1496.054688 695.976563 L 1511.640625 707.695313 L 1530.078125 721.523438 L 1543.90625 731.875 L 1547.070313 734.296875 L 1551.328125 737.5 L 1564.101563 747.070313 L 1573.671875 754.257813 L 1581.09375 759.804688 L 1591.015625 767.265625 L 1598.125 772.578125 L 1603.4375 776.601563 L 1615.117188 785.351563 L 1630.703125 797.070313 L 1632.148438 798.125 L 1633.164063 798.90625 L 1649.140625 810.898438 L 1662.96875 821.289063 L 1666.132813 823.671875 L 1670.390625 826.875 L 1683.164063 836.445313 L 1692.734375 843.59375 L 1700.15625 849.21875 L 1710.078125 856.640625 L 1717.1875 861.953125 L 1722.5 865.976563 L 1734.179688 874.765625 L 1749.765625 886.445313 L 1768.203125 900.273438 L 1782.03125 910.664063 L 1785.195313 913.046875 L 1789.453125 916.25 L 1802.226563 925.820313 L 1811.796875 933.007813 L 1819.21875 938.59375 L 1829.140625 946.054688 L 1836.25 951.367188 L 1841.5625 955.351563 L 1853.242188 964.101563 L 1868.867188 975.820313 L 1870.273438 976.914063 L 1871.328125 977.695313 L 1887.265625 989.648438 L 1901.09375 1000.039063 L 1904.296875 1002.421875 L 1908.554688 1005.625 L 1921.289063 1015.195313 L 1930.859375 1022.382813 L 1938.320313 1027.96875 L 1948.242188 1035.429688 L 1955.3125 1040.742188 L 1960.625 1044.726563 L 1972.304688 1053.515625 L 1987.890625 1065.195313 L 1989.335938 1066.289063 L 1990.390625 1067.070313 L 2006.328125 1079.0625 L 2020.15625 1089.414063 L 2023.359375 1091.796875 L 2027.617188 1095 L 2040.351563 1104.570313 L 2049.921875 1111.757813 L 2057.382813 1117.34375 L 2067.304688 1124.804688 L 2074.375 1130.117188 L 2091.40625 1142.890625 L 2106.992188 1154.609375 L 2108.398438 1155.664063 L 2109.453125 1156.445313 L 2125.390625 1168.4375 L 2139.21875 1178.789063 L 2142.421875 1181.171875 L 2146.679688 1184.375 L 2159.414063 1193.945313 L 2168.984375 1201.132813 L 2176.445313 1206.757813 L 2186.367188 1214.179688 L 2193.4375 1219.492188 L 2210.46875 1232.265625 L 2226.054688 1243.984375 L 2244.492188 1257.8125 L 2258.28125 1268.164063 L 2261.484375 1270.585938 L 2265.742188 1273.789063 L 2278.515625 1283.359375 L 2288.085938 1290.546875 L 2295.507813 1296.09375 L 2305.429688 1303.554688 L 2312.539063 1308.867188 L 2317.8125 1312.851563 L 2329.53125 1321.640625 L 2345.117188 1333.359375 L 2346.523438 1334.414063 L 2347.578125 1335.234375 L 2363.554688 1347.1875 L 2377.382813 1357.578125 L 2380.546875 1359.960938 L 2384.804688 1363.164063 L 2397.578125 1372.734375 L 2407.148438 1379.921875 L 2414.570313 1385.507813 L 2424.492188 1392.929688 L 2431.5625 1398.28125 L 2436.875 1402.265625 L 2448.59375 1411.015625 L 2464.179688 1422.734375 L 2482.617188 1436.5625 L 2496.445313 1446.953125 L 2499.609375 1449.335938 L 2503.867188 1452.539063 L 2516.640625 1462.109375 L 2526.210938 1469.296875 L 2533.632813 1474.882813 L 2543.554688 1482.304688 L 2550.664063 1487.65625 L 2555.976563 1491.640625 L 2567.65625 1500.390625 L 2583.242188 1512.109375 L 2584.6875 1513.164063 L 2585.742188 1513.984375 L 2601.679688 1525.9375 L 2615.507813 1536.328125 L 2618.671875 1538.710938 L 2622.96875 1541.914063 L 2635.703125 1551.484375 L 2645.273438 1558.671875 L 2652.695313 1564.257813 L 2662.617188 1571.71875 L 2669.726563 1577.03125 L 2675.039063 1581.015625 L 2686.71875 1589.804688 L 2702.304688 1601.484375 L 2703.75 1602.578125 L 2704.804688 1603.359375 L 2720.742188 1615.3125 L 2734.570313 1625.703125 L 2737.773438 1628.085938 L 2741.992188 1631.289063 L 2754.765625 1640.859375 L 2764.335938 1648.046875 L 2771.796875 1653.632813 L 2781.71875 1661.09375 L 2788.789063 1666.40625 L 2794.101563 1670.390625 L 2805.78125 1679.179688 L 2821.367188 1690.898438 L 2822.8125 1691.953125 L 2823.867188 1692.734375 L 2839.804688 1704.726563 L 2853.632813 1715.078125 L 2856.835938 1717.460938 L 2861.09375 1720.664063 L 2873.828125 1730.234375 L 2883.398438 1737.421875 L 2890.859375 1743.007813 L 2900.742188 1750.46875 L 2907.851563 1755.78125 L 2913.164063 1759.765625 L 2924.84375 1768.554688 L 2941.875 1781.328125 L 2942.929688 1782.109375 L 2958.90625 1794.101563 L 2972.695313 1804.453125 L 2975.898438 1806.875 L 2980.15625 1810.039063 L 2992.890625 1819.648438 L 3002.460938 1826.796875 L 3009.921875 1832.382813 L 3019.84375 1839.84375 L 3026.914063 1845.15625 L 3043.945313 1857.929688 L 3059.53125 1869.648438 L 3060.9375 1870.703125 L 3061.992188 1871.484375 L 3077.96875 1883.476563 L 3091.757813 1893.828125 L 3094.960938 1896.25 L 3099.21875 1899.414063 L 3111.953125 1908.984375 L 3121.523438 1916.171875 L 3128.984375 1921.796875 L 3138.90625 1929.21875 L 3145.976563 1934.53125 L 3163.007813 1947.304688 L 3178.59375 1959.023438 L 3197.03125 1972.851563 L 3210.859375 1983.203125 L 3214.023438 1985.625 L 3218.28125 1988.828125 L 3231.054688 1998.398438 L 3240.625 2005.585938 L 3248.046875 2011.132813 L 3257.96875 2018.59375 L 3265.078125 2023.945313 L 3270.390625 2027.890625 L 3282.070313 2036.71875 L 3297.65625 2048.398438 L 3316.09375 2062.226563 L 3329.882813 2072.617188 L 3333.085938 2075 L 3337.34375 2078.203125 L 3350.117188 2087.773438 L 3359.6875 2094.960938 L 3367.109375 2100.546875 L 3377.03125 2108.007813 L 3384.140625 2113.320313 L 3389.453125 2117.304688 L 3401.132813 2126.09375 L 3416.71875 2137.773438 L 3418.164063 2138.828125 L 3419.21875 2139.648438 L 3435.15625 2151.601563 L 3448.984375 2161.992188 L 3452.1875 2164.375 L 3456.40625 2167.578125 L 3469.179688 2177.148438 L 3478.75 2184.335938 L 3486.171875 2189.921875 L 3496.09375 2197.382813 L 3503.203125 2202.695313 L 3508.515625 2206.679688 L 3520.195313 2215.46875 L 3535.78125 2227.148438 L 3537.226563 2228.242188 L 3538.28125 2229.023438 L 3554.21875 2240.976563 L 3568.046875 2251.367188 L 3571.210938 2253.789063 L 3575.507813 2256.953125 L 3588.242188 2266.523438 L 3597.8125 2273.710938 L 3605.234375 2279.296875 L 3615.15625 2286.757813 L 3622.265625 2292.070313 L 3627.578125 2296.054688 L 3639.257813 2304.84375 L 3654.882813 2316.523438 L 3656.289063 2317.617188 L 3657.34375 2318.398438 L 3673.28125 2330.390625 L 3687.109375 2340.742188 L 3690.3125 2343.125 L 3694.53125 2346.328125 L 3707.304688 2355.9375 L 3716.875 2363.085938 L 3724.296875 2368.671875 L 3734.257813 2376.132813 L 3741.328125 2381.445313 L 3746.640625 2385.46875 L 3758.359375 2394.21875 L 3773.945313 2405.9375 L 3775.351563 2406.992188 L 3776.40625 2407.773438 L 3792.34375 2419.765625 L 3806.171875 2430.15625 L 3809.375 2432.539063 L 3813.632813 2435.703125 L 3826.367188 2445.3125 L 3835.9375 2452.460938 L 3843.398438 2458.085938 L 3853.320313 2465.507813 L 3860.390625 2470.820313 L 3865.703125 2474.84375 L 3877.421875 2483.59375 L 3893.007813 2495.3125 L 3894.414063 2496.367188 L 3895.46875 2497.1875 L 3911.445313 2509.140625 L 3925.234375 2519.53125 L 3928.4375 2521.914063 L 3932.695313 2525.117188 L 3945.429688 2534.6875 L 3955 2541.875 L 3962.460938 2547.460938 L 3972.382813 2554.882813 L 3979.453125 2560.195313 L 3984.765625 2564.21875 L 3996.484375 2572.96875 L 4012.070313 2584.6875 L 4013.476563 2585.742188 L 4014.53125 2586.5625 L 4030.507813 2598.515625 L 4044.296875 2608.90625 L 4047.5 2611.289063 L 4051.757813 2614.492188 L 4064.53125 2624.0625 L 4074.0625 2631.25 L 4081.523438 2636.835938 L 4091.445313 2644.257813 L 4098.554688 2649.609375 L 4103.867188 2653.59375 L 4115.546875 2662.34375 L 4131.132813 2674.0625 L 4132.578125 2675.117188 L 4133.59375 2675.9375 L 4149.570313 2687.890625 L 4163.398438 2698.28125 L 4166.5625 2700.664063 L 4170.820313 2703.867188 L 4183.59375 2713.4375 L 4193.164063 2720.625 L 4200.585938 2726.210938 L 4210.507813 2733.632813 L 4217.617188 2738.984375 L 4222.890625 2742.96875 L 4234.609375 2751.757813 L 4250.195313 2763.476563 L 4251.601563 2764.492188 L 4252.695313 2765.3125 L 4268.632813 2777.304688 L 4282.460938 2787.65625 L 4285.625 2790.039063 L 4289.882813 2793.242188 L 4302.65625 2802.8125 L 4312.226563 2810 L 4319.648438 2815.585938 L 4329.570313 2823.046875 L 4336.679688 2828.359375 L 4341.992188 2832.34375 L 4353.671875 2841.132813 L 4369.257813 2852.8125 L 4370.703125 2853.90625 L 4371.757813 2854.6875 L 4387.695313 2866.640625 L 4401.523438 2877.03125 L 4404.6875 2879.453125 L 4408.945313 2882.617188 L 4421.71875 2892.1875 L 4431.289063 2899.375 L 4438.710938 2904.960938 L 4448.632813 2912.421875 L 4455.742188 2917.734375 L 4461.054688 2921.71875 L 4472.734375 2930.507813 L 4489.765625 2943.28125 L 4490.820313 2944.0625 L 4506.757813 2956.054688 L 4520.585938 2966.40625 L 4523.789063 2968.828125 L 4528.007813 2971.992188 L 4540.78125 2981.601563 L 4550.351563 2988.75 L 4557.8125 2994.335938 L 4567.734375 3001.796875 L 4574.804688 3007.109375 L 4591.835938 3019.882813 L 4607.382813 3031.601563 L 4608.828125 3032.65625 L 4609.882813 3033.4375 L 4625.820313 3045.429688 L 4639.648438 3055.78125 L 4642.851563 3058.203125 L 4647.109375 3061.40625 L 4659.84375 3070.976563 L 4669.414063 3078.125 L 4676.875 3083.710938 L 4686.796875 3091.171875 L 4693.867188 3096.484375 L 4699.179688 3100.507813 " transform="matrix(0.1,0,0,-0.1,0,555)"/>
</g>
<path style="fill:none;stroke-width:13.875;stroke-linecap:butt;stroke-linejoin:round;stroke:rgb(0%,0%,0%);stroke-opacity:1;stroke-miterlimit:10;" d="M 836.953125 2778.359375 L 4699.179688 2778.359375 " transform="matrix(0.1,0,0,-0.1,0,555)"/>
<path style=" stroke:none;fill-rule:nonzero;fill:rgb(0%,0%,0%);fill-opacity:1;" d="M 339.371094 319.644531 C 339.707031 319.992188 339.957031 320.347656 340.132813 320.707031 C 340.261719 320.9375 340.464844 321.574219 340.738281 322.613281 L 341.628906 321.269531 C 341.859375 320.953125 342.144531 320.644531 342.484375 320.347656 C 342.824219 320.054688 343.121094 319.847656 343.382813 319.730469 C 343.542969 319.671875 343.722656 319.644531 343.925781 319.644531 C 344.214844 319.644531 344.445313 319.71875 344.621094 319.871094 C 344.792969 320.023438 344.878906 320.214844 344.878906 320.445313 C 344.878906 320.707031 344.828125 320.878906 344.730469 320.96875 C 344.539063 321.140625 344.324219 321.226563 344.078125 321.226563 C 343.933594 321.226563 343.78125 321.199219 343.621094 321.140625 C 343.304688 321.023438 343.085938 320.96875 342.972656 320.96875 C 342.8125 320.96875 342.625 321.0625 342.410156 321.25 C 341.988281 321.609375 341.484375 322.296875 340.890625 323.308594 L 341.734375 326.800781 C 341.867188 327.335938 341.972656 327.652344 342.0625 327.753906 C 342.148438 327.855469 342.234375 327.90625 342.320313 327.90625 C 342.464844 327.90625 342.632813 327.832031 342.820313 327.6875 C 343.195313 327.371094 343.515625 326.957031 343.773438 326.453125 L 344.121094 326.644531 C 343.703125 327.441406 343.160156 328.109375 342.496094 328.640625 C 342.132813 328.929688 341.824219 329.074219 341.5625 329.074219 C 341.171875 329.074219 340.867188 328.863281 340.652344 328.445313 C 340.507813 328.171875 340.210938 327.03125 339.765625 325.023438 C 338.707031 326.855469 337.863281 328.042969 337.226563 328.578125 C 336.808594 328.910156 336.410156 329.074219 336.035156 329.074219 C 335.761719 329.074219 335.507813 328.980469 335.273438 328.792969 C 335.117188 328.636719 335.035156 328.433594 335.035156 328.1875 C 335.035156 327.96875 335.113281 327.785156 335.265625 327.632813 C 335.417969 327.480469 335.601563 327.40625 335.816406 327.40625 C 336.035156 327.40625 336.265625 327.515625 336.511719 327.730469 C 336.683594 327.890625 336.824219 327.96875 336.925781 327.96875 C 336.996094 327.96875 337.097656 327.910156 337.226563 327.796875 C 337.546875 327.535156 337.980469 326.980469 338.527344 326.125 C 339.078125 325.273438 339.4375 324.660156 339.609375 324.285156 C 339.191406 322.636719 338.960938 321.769531 338.917969 321.683594 C 338.773438 321.234375 338.574219 320.921875 338.320313 320.738281 C 338.066406 320.558594 337.695313 320.46875 337.203125 320.46875 C 337.046875 320.46875 336.867188 320.476563 336.664063 320.488281 L 336.664063 320.121094 L 339.371094 319.644531 "/>
<path style="fill:none;stroke-width:13.875;stroke-linecap:square;stroke-linejoin:miter;stroke:rgb(0%,0%,0%);stroke-opacity:1;stroke-miterlimit:10;" d="M 836.953125 2778.359375 L 836.953125 2722.851563 " transform="matrix(0.1,0,0,-0.1,0,555)"/>
<g clip-path="url(#clip4)" clip-rule="nonzero">
<path style=" stroke:none;fill-rule:nonzero;fill:rgb(0%,0%,0%);fill-opacity:1;" d="M 89.429688 298.160156 L 75.683594 298.160156 L 75.683594 297.074219 L 89.429688 297.074219 L 89.429688 298.160156 "/>
</g>
<path style=" stroke:none;fill-rule:nonzero;fill:rgb(0%,0%,0%);fill-opacity:1;" d="M 95.066406 290.074219 L 94.261719 291.808594 L 90.121094 291.808594 L 89.210938 293.648438 C 91.003906 293.925781 92.425781 294.597656 93.484375 295.664063 C 94.378906 296.578125 94.828125 297.660156 94.828125 298.917969 C 94.828125 299.640625 94.683594 300.3125 94.394531 300.925781 C 94.105469 301.539063 93.734375 302.0625 93.289063 302.496094 C 92.839844 302.929688 92.339844 303.277344 91.792969 303.535156 C 91.011719 303.910156 90.210938 304.101563 89.386719 304.101563 C 88.5625 304.101563 87.960938 303.960938 87.585938 303.679688 C 87.210938 303.394531 87.023438 303.089844 87.023438 302.757813 C 87.023438 302.566406 87.101563 302.402344 87.261719 302.257813 C 87.417969 302.113281 87.613281 302.039063 87.847656 302.039063 C 88.019531 302.039063 88.171875 302.066406 88.300781 302.117188 C 88.429688 302.167969 88.65625 302.308594 88.972656 302.539063 C 89.492188 302.886719 90.015625 303.058594 90.535156 303.058594 C 91.328125 303.058594 92.023438 302.757813 92.617188 302.160156 C 93.207031 301.5625 93.503906 300.828125 93.503906 299.960938 C 93.503906 299.136719 93.238281 298.363281 92.703125 297.640625 C 92.167969 296.917969 91.429688 296.359375 90.492188 295.96875 C 89.753906 295.664063 88.75 295.484375 87.476563 295.429688 L 90.121094 290.074219 L 95.066406 290.074219 "/>
<path style="fill:none;stroke-width:13.875;stroke-linecap:square;stroke-linejoin:miter;stroke:rgb(0%,0%,0%);stroke-opacity:1;stroke-miterlimit:10;" d="M 2124.335938 2778.359375 L 2124.335938 2722.851563 " transform="matrix(0.1,0,0,-0.1,0,555)"/>
<path style=" stroke:none;fill-rule:nonzero;fill:rgb(0%,0%,0%);fill-opacity:1;" d="M 200.558594 294.277344 C 200.558594 292.703125 200.792969 291.347656 201.261719 290.214844 C 201.734375 289.078125 202.367188 288.238281 203.160156 287.6875 C 203.765625 287.238281 204.394531 287.015625 205.046875 287.015625 C 206.101563 287.015625 207.046875 287.558594 207.886719 288.644531 C 208.941406 289.972656 209.46875 291.777344 209.46875 294.0625 C 209.46875 295.664063 209.238281 297.023438 208.773438 298.140625 C 208.3125 299.253906 207.722656 300.0625 207.007813 300.566406 C 206.292969 301.070313 205.601563 301.324219 204.9375 301.324219 C 203.621094 301.324219 202.53125 300.550781 201.664063 299.007813 C 200.925781 297.691406 200.558594 296.113281 200.558594 294.277344 Z M 202.554688 294.539063 C 202.554688 296.433594 202.785156 297.980469 203.246094 299.179688 C 203.636719 300.191406 204.214844 300.695313 204.980469 300.695313 C 205.34375 300.695313 205.71875 300.53125 206.105469 300.199219 C 206.5 299.863281 206.796875 299.316406 206.996094 298.550781 C 207.316406 297.378906 207.472656 295.730469 207.472656 293.605469 C 207.472656 292.046875 207.308594 290.738281 206.976563 289.683594 C 206.746094 288.902344 206.433594 288.351563 206.042969 288.035156 C 205.769531 287.804688 205.429688 287.6875 205.023438 287.6875 C 204.574219 287.6875 204.171875 287.898438 203.808594 288.316406 C 203.320313 288.882813 202.984375 289.765625 202.8125 290.972656 C 202.640625 292.179688 202.554688 293.367188 202.554688 294.539063 "/>
<path style="fill:none;stroke-width:13.875;stroke-linecap:square;stroke-linejoin:miter;stroke:rgb(0%,0%,0%);stroke-opacity:1;stroke-miterlimit:10;" d="M 3411.757813 2778.359375 L 3411.757813 2722.851563 " transform="matrix(0.1,0,0,-0.1,0,555)"/>
<path style=" stroke:none;fill-rule:nonzero;fill:rgb(0%,0%,0%);fill-opacity:1;" d="M 344.8125 290.074219 L 344.011719 291.808594 L 339.871094 291.808594 L 338.960938 293.648438 C 340.753906 293.925781 342.175781 294.597656 343.234375 295.664063 C 344.128906 296.578125 344.574219 297.660156 344.574219 298.917969 C 344.574219 299.640625 344.433594 300.3125 344.144531 300.925781 C 343.851563 301.539063 343.484375 302.0625 343.035156 302.496094 C 342.589844 302.929688 342.089844 303.277344 341.539063 303.535156 C 340.761719 303.910156 339.957031 304.101563 339.132813 304.101563 C 338.3125 304.101563 337.710938 303.960938 337.335938 303.679688 C 336.960938 303.394531 336.769531 303.089844 336.769531 302.757813 C 336.769531 302.566406 336.851563 302.402344 337.011719 302.257813 C 337.171875 302.113281 337.363281 302.039063 337.59375 302.039063 C 337.769531 302.039063 337.921875 302.066406 338.050781 302.117188 C 338.179688 302.167969 338.402344 302.308594 338.722656 302.539063 C 339.242188 302.886719 339.765625 303.058594 340.285156 303.058594 C 341.078125 303.058594 341.773438 302.757813 342.367188 302.160156 C 342.957031 301.5625 343.253906 300.828125 343.253906 299.960938 C 343.253906 299.136719 342.984375 298.363281 342.453125 297.640625 C 341.917969 296.917969 341.179688 296.359375 340.238281 295.96875 C 339.503906 295.664063 338.5 295.484375 337.226563 295.429688 L 339.871094 290.074219 L 344.8125 290.074219 "/>
<path style="fill:none;stroke-width:13.875;stroke-linecap:square;stroke-linejoin:miter;stroke:rgb(0%,0%,0%);stroke-opacity:1;stroke-miterlimit:10;" d="M 4699.179688 2778.359375 L 4699.179688 2722.851563 " transform="matrix(0.1,0,0,-0.1,0,555)"/>
<path style=" stroke:none;fill-rule:nonzero;fill:rgb(0%,0%,0%);fill-opacity:1;" d="M 461.710938 291.4375 L 465.050781 289.792969 L 465.394531 289.792969 L 465.394531 301.433594 C 465.394531 302.199219 465.429688 302.679688 465.496094 302.875 C 465.5625 303.070313 465.695313 303.21875 465.894531 303.320313 C 466.097656 303.421875 466.511719 303.480469 467.132813 303.492188 L 467.132813 303.863281 L 461.949219 303.863281 L 461.949219 303.492188 C 462.601563 303.480469 463.019531 303.421875 463.207031 303.320313 C 463.394531 303.21875 463.523438 303.085938 463.597656 302.917969 C 463.671875 302.753906 463.707031 302.257813 463.707031 301.433594 L 463.707031 293.996094 C 463.707031 292.984375 463.679688 292.34375 463.617188 292.070313 C 463.5625 291.851563 463.472656 291.691406 463.347656 291.589844 C 463.226563 291.488281 463.078125 291.4375 462.90625 291.4375 C 462.644531 291.4375 462.296875 291.539063 461.863281 291.742188 Z M 470.425781 297.054688 C 470.425781 295.480469 470.660156 294.121094 471.132813 292.988281 C 471.601563 291.855469 472.234375 291.011719 473.027344 290.464844 C 473.636719 290.015625 474.265625 289.792969 474.914063 289.792969 C 475.96875 289.792969 476.917969 290.335938 477.753906 291.417969 C 478.808594 292.746094 479.335938 294.554688 479.335938 296.835938 C 479.335938 298.441406 479.105469 299.800781 478.644531 300.914063 C 478.179688 302.027344 477.589844 302.835938 476.878906 303.34375 C 476.160156 303.847656 475.472656 304.101563 474.808594 304.101563 C 473.492188 304.101563 472.398438 303.328125 471.53125 301.78125 C 470.796875 300.464844 470.425781 298.890625 470.425781 297.054688 Z M 472.421875 297.316406 C 472.421875 299.207031 472.652344 300.753906 473.113281 301.953125 C 473.503906 302.964844 474.085938 303.472656 474.851563 303.472656 C 475.210938 303.472656 475.585938 303.304688 475.976563 302.972656 C 476.367188 302.640625 476.664063 302.09375 476.867188 301.324219 C 477.183594 300.15625 477.34375 298.507813 477.34375 296.382813 C 477.34375 294.820313 477.175781 293.511719 476.84375 292.460938 C 476.613281 291.675781 476.300781 291.128906 475.914063 290.808594 C 475.636719 290.578125 475.296875 290.464844 474.894531 290.464844 C 474.445313 290.464844 474.039063 290.671875 473.679688 291.09375 C 473.1875 291.65625 472.855469 292.542969 472.679688 293.746094 C 472.507813 294.953125 472.421875 296.144531 472.421875 297.316406 "/>
<path style="fill:none;stroke-width:13.875;stroke-linecap:square;stroke-linejoin:miter;stroke:rgb(0%,0%,0%);stroke-opacity:1;stroke-miterlimit:10;" d="M 1094.414063 2778.359375 L 1094.414063 2750.585938 " transform="matrix(0.1,0,0,-0.1,0,555)"/>
<path style="fill:none;stroke-width:13.875;stroke-linecap:square;stroke-linejoin:miter;stroke:rgb(0%,0%,0%);stroke-opacity:1;stroke-miterlimit:10;" d="M 1351.914063 2778.359375 L 1351.914063 2750.585938 " transform="matrix(0.1,0,0,-0.1,0,555)"/>
<path style="fill:none;stroke-width:13.875;stroke-linecap:square;stroke-linejoin:miter;stroke:rgb(0%,0%,0%);stroke-opacity:1;stroke-miterlimit:10;" d="M 1609.375 2778.359375 L 1609.375 2750.585938 " transform="matrix(0.1,0,0,-0.1,0,555)"/>
<path style="fill:none;stroke-width:13.875;stroke-linecap:square;stroke-linejoin:miter;stroke:rgb(0%,0%,0%);stroke-opacity:1;stroke-miterlimit:10;" d="M 1866.875 2778.359375 L 1866.875 2750.585938 " transform="matrix(0.1,0,0,-0.1,0,555)"/>
<path style="fill:none;stroke-width:13.875;stroke-linecap:square;stroke-linejoin:miter;stroke:rgb(0%,0%,0%);stroke-opacity:1;stroke-miterlimit:10;" d="M 2381.835938 2778.359375 L 2381.835938 2750.585938 " transform="matrix(0.1,0,0,-0.1,0,555)"/>
<path style="fill:none;stroke-width:13.875;stroke-linecap:square;stroke-linejoin:miter;stroke:rgb(0%,0%,0%);stroke-opacity:1;stroke-miterlimit:10;" d="M 2639.335938 2778.359375 L 2639.335938 2750.585938 " transform="matrix(0.1,0,0,-0.1,0,555)"/>
<path style="fill:none;stroke-width:13.875;stroke-linecap:square;stroke-linejoin:miter;stroke:rgb(0%,0%,0%);stroke-opacity:1;stroke-miterlimit:10;" d="M 2896.796875 2778.359375 L 2896.796875 2750.585938 " transform="matrix(0.1,0,0,-0.1,0,555)"/>
<path style="fill:none;stroke-width:13.875;stroke-linecap:square;stroke-linejoin:miter;stroke:rgb(0%,0%,0%);stroke-opacity:1;stroke-miterlimit:10;" d="M 3154.296875 2778.359375 L 3154.296875 2750.585938 " transform="matrix(0.1,0,0,-0.1,0,555)"/>
<path style="fill:none;stroke-width:13.875;stroke-linecap:square;stroke-linejoin:miter;stroke:rgb(0%,0%,0%);stroke-opacity:1;stroke-miterlimit:10;" d="M 3669.257813 2778.359375 L 3669.257813 2750.585938 " transform="matrix(0.1,0,0,-0.1,0,555)"/>
<path style="fill:none;stroke-width:13.875;stroke-linecap:square;stroke-linejoin:miter;stroke:rgb(0%,0%,0%);stroke-opacity:1;stroke-miterlimit:10;" d="M 3926.71875 2778.359375 L 3926.71875 2750.585938 " transform="matrix(0.1,0,0,-0.1,0,555)"/>
<path style="fill:none;stroke-width:13.875;stroke-linecap:square;stroke-linejoin:miter;stroke:rgb(0%,0%,0%);stroke-opacity:1;stroke-miterlimit:10;" d="M 4184.21875 2778.359375 L 4184.21875 2750.585938 " transform="matrix(0.1,0,0,-0.1,0,555)"/>
<path style="fill:none;stroke-width:13.875;stroke-linecap:square;stroke-linejoin:miter;stroke:rgb(0%,0%,0%);stroke-opacity:1;stroke-miterlimit:10;" d="M 4441.71875 2778.359375 L 4441.71875 2750.585938 " transform="matrix(0.1,0,0,-0.1,0,555)"/>
<path style="fill:none;stroke-width:13.875;stroke-linecap:butt;stroke-linejoin:round;stroke:rgb(0%,0%,0%);stroke-opacity:1;stroke-miterlimit:10;" d="M 2124.335938 201.171875 L 2124.335938 5355.507813 " transform="matrix(0.1,0,0,-0.1,0,555)"/>
<g clip-path="url(#clip5)" clip-rule="nonzero">
<path style=" stroke:none;fill-rule:nonzero;fill:rgb(0%,0%,0%);fill-opacity:1;" d="M 151.777344 146.207031 C 152.011719 146.597656 152.167969 146.960938 152.257813 147.300781 C 152.34375 147.640625 152.4375 148.316406 152.539063 149.328125 L 152.972656 154.316406 C 153.375 153.839844 153.96875 153.066406 154.75 151.996094 C 155.109375 151.488281 155.566406 150.789063 156.113281 149.894531 C 156.449219 149.355469 156.65625 148.984375 156.742188 148.765625 C 156.773438 148.648438 156.789063 148.535156 156.789063 148.417969 C 156.789063 148.347656 156.765625 148.289063 156.722656 148.246094 C 156.679688 148.203125 156.554688 148.148438 156.351563 148.082031 C 156.152344 148.015625 155.984375 147.898438 155.855469 147.722656 C 155.726563 147.550781 155.660156 147.347656 155.660156 147.117188 C 155.660156 146.84375 155.738281 146.621094 155.898438 146.457031 C 156.058594 146.289063 156.257813 146.207031 156.503906 146.207031 C 156.808594 146.207031 157.066406 146.328125 157.273438 146.574219 C 157.484375 146.820313 157.589844 147.160156 157.589844 147.59375 C 157.589844 148.128906 157.40625 148.738281 157.035156 149.425781 C 156.667969 150.113281 155.964844 151.167969 154.921875 152.59375 C 153.882813 154.015625 152.617188 155.566406 151.128906 157.242188 C 150.117188 158.398438 149.363281 159.128906 148.863281 159.433594 C 148.363281 159.734375 147.941406 159.886719 147.59375 159.886719 C 147.378906 159.886719 147.191406 159.808594 147.03125 159.648438 C 146.871094 159.488281 146.792969 159.308594 146.792969 159.105469 C 146.792969 158.832031 146.902344 158.585938 147.128906 158.367188 C 147.351563 158.152344 147.585938 158.046875 147.832031 158.046875 C 147.976563 158.046875 148.09375 158.078125 148.179688 158.152344 C 148.238281 158.183594 148.300781 158.273438 148.363281 158.433594 C 148.429688 158.59375 148.484375 158.703125 148.527344 158.757813 C 148.570313 158.789063 148.613281 158.804688 148.65625 158.804688 C 148.699219 158.804688 148.773438 158.769531 148.871094 158.695313 C 149.25 158.464844 149.683594 158.101563 150.175781 157.609375 C 150.824219 156.945313 151.300781 156.40625 151.605469 155.984375 L 151.042969 149.546875 C 150.953125 148.476563 150.8125 147.824219 150.617188 147.59375 C 150.425781 147.363281 150.101563 147.246094 149.652344 147.246094 C 149.511719 147.246094 149.257813 147.269531 148.894531 147.3125 L 148.808594 146.945313 L 151.777344 146.207031 "/>
</g>
<path style="fill:none;stroke-width:13.875;stroke-linecap:square;stroke-linejoin:miter;stroke:rgb(0%,0%,0%);stroke-opacity:1;stroke-miterlimit:10;" d="M 2124.335938 201.171875 L 2068.867188 201.171875 " transform="matrix(0.1,0,0,-0.1,0,555)"/>
<g clip-path="url(#clip6)" clip-rule="nonzero">
<path style=" stroke:none;fill-rule:nonzero;fill:rgb(0%,0%,0%);fill-opacity:1;" d="M 185.164063 536.808594 L 171.421875 536.808594 L 171.421875 535.726563 L 185.164063 535.726563 L 185.164063 536.808594 "/>
</g>
<path style=" stroke:none;fill-rule:nonzero;fill:rgb(0%,0%,0%);fill-opacity:1;" d="M 184.210938 530.089844 L 187.550781 528.441406 L 187.894531 528.441406 L 187.894531 540.085938 C 187.894531 540.851563 187.929688 541.332031 187.996094 541.527344 C 188.0625 541.71875 188.195313 541.867188 188.394531 541.96875 C 188.597656 542.070313 189.011719 542.128906 189.632813 542.144531 L 189.632813 542.511719 L 184.449219 542.511719 L 184.449219 542.144531 C 185.101563 542.128906 185.519531 542.070313 185.707031 541.96875 C 185.894531 541.867188 186.023438 541.734375 186.097656 541.570313 C 186.171875 541.402344 186.207031 540.90625 186.207031 540.085938 L 186.207031 532.648438 C 186.207031 531.636719 186.179688 530.992188 186.117188 530.71875 C 186.0625 530.5 185.972656 530.34375 185.847656 530.242188 C 185.726563 530.140625 185.578125 530.089844 185.40625 530.089844 C 185.144531 530.089844 184.796875 530.191406 184.363281 530.394531 Z M 192.925781 535.703125 C 192.925781 534.128906 193.160156 532.773438 193.632813 531.640625 C 194.101563 530.503906 194.734375 529.664063 195.527344 529.113281 C 196.136719 528.664063 196.765625 528.441406 197.414063 528.441406 C 198.46875 528.441406 199.417969 528.984375 200.253906 530.066406 C 201.308594 531.398438 201.835938 533.203125 201.835938 535.488281 C 201.835938 537.089844 201.605469 538.449219 201.144531 539.5625 C 200.679688 540.675781 200.089844 541.484375 199.378906 541.992188 C 198.660156 542.496094 197.972656 542.75 197.308594 542.75 C 195.992188 542.75 194.898438 541.976563 194.03125 540.429688 C 193.296875 539.117188 192.925781 537.539063 192.925781 535.703125 Z M 194.921875 535.964844 C 194.921875 537.855469 195.152344 539.40625 195.613281 540.605469 C 196.003906 541.617188 196.585938 542.121094 197.351563 542.121094 C 197.710938 542.121094 198.085938 541.957031 198.476563 541.621094 C 198.867188 541.289063 199.164063 540.742188 199.367188 539.972656 C 199.683594 538.804688 199.84375 537.15625 199.84375 535.03125 C 199.84375 533.472656 199.675781 532.164063 199.34375 531.109375 C 199.113281 530.328125 198.800781 529.777344 198.414063 529.460938 C 198.136719 529.230469 197.796875 529.113281 197.394531 529.113281 C 196.945313 529.113281 196.539063 529.324219 196.179688 529.742188 C 195.6875 530.304688 195.355469 531.191406 195.179688 532.398438 C 195.007813 533.605469 194.921875 534.792969 194.921875 535.964844 "/>
<path style="fill:none;stroke-width:13.875;stroke-linecap:square;stroke-linejoin:miter;stroke:rgb(0%,0%,0%);stroke-opacity:1;stroke-miterlimit:10;" d="M 2124.335938 1489.765625 L 2068.867188 1489.765625 " transform="matrix(0.1,0,0,-0.1,0,555)"/>
<g clip-path="url(#clip7)" clip-rule="nonzero">
<path style=" stroke:none;fill-rule:nonzero;fill:rgb(0%,0%,0%);fill-opacity:1;" d="M 196.265625 407.773438 L 182.519531 407.773438 L 182.519531 406.6875 L 196.265625 406.6875 L 196.265625 407.773438 "/>
</g>
<path style=" stroke:none;fill-rule:nonzero;fill:rgb(0%,0%,0%);fill-opacity:1;" d="M 201.902344 399.6875 L 201.101563 401.421875 L 196.960938 401.421875 L 196.046875 403.261719 C 197.839844 403.539063 199.265625 404.210938 200.320313 405.277344 C 201.214844 406.191406 201.664063 407.273438 201.664063 408.53125 C 201.664063 409.253906 201.519531 409.921875 201.230469 410.535156 C 200.941406 411.152344 200.574219 411.675781 200.125 412.109375 C 199.675781 412.542969 199.179688 412.890625 198.628906 413.148438 C 197.847656 413.523438 197.046875 413.710938 196.222656 413.710938 C 195.398438 413.710938 194.796875 413.570313 194.421875 413.289063 C 194.046875 413.007813 193.859375 412.699219 193.859375 412.367188 C 193.859375 412.179688 193.9375 412.015625 194.097656 411.871094 C 194.257813 411.726563 194.449219 411.652344 194.683594 411.652344 C 194.855469 411.652344 195.007813 411.679688 195.136719 411.730469 C 195.269531 411.777344 195.492188 411.921875 195.8125 412.152344 C 196.332031 412.496094 196.851563 412.671875 197.371094 412.671875 C 198.164063 412.671875 198.859375 412.371094 199.453125 411.773438 C 200.046875 411.171875 200.339844 410.4375 200.339844 409.570313 C 200.339844 408.746094 200.074219 407.976563 199.539063 407.253906 C 199.003906 406.527344 198.265625 405.972656 197.328125 405.582031 C 196.589844 405.277344 195.585938 405.097656 194.3125 405.039063 L 196.960938 399.6875 L 201.902344 399.6875 "/>
<path style="fill:none;stroke-width:13.875;stroke-linecap:square;stroke-linejoin:miter;stroke:rgb(0%,0%,0%);stroke-opacity:1;stroke-miterlimit:10;" d="M 2124.335938 2778.359375 L 2068.867188 2778.359375 " transform="matrix(0.1,0,0,-0.1,0,555)"/>
<path style="fill:none;stroke-width:13.875;stroke-linecap:square;stroke-linejoin:miter;stroke:rgb(0%,0%,0%);stroke-opacity:1;stroke-miterlimit:10;" d="M 2124.335938 4066.914063 L 2068.867188 4066.914063 " transform="matrix(0.1,0,0,-0.1,0,555)"/>
<path style=" stroke:none;fill-rule:nonzero;fill:rgb(0%,0%,0%);fill-opacity:1;" d="M 201.902344 141.609375 L 201.101563 143.34375 L 196.960938 143.34375 L 196.046875 145.1875 C 197.839844 145.464844 199.265625 146.132813 200.320313 147.203125 C 201.214844 148.117188 201.664063 149.199219 201.664063 150.457031 C 201.664063 151.179688 201.519531 151.847656 201.230469 152.460938 C 200.941406 153.074219 200.574219 153.601563 200.125 154.03125 C 199.675781 154.46875 199.179688 154.8125 198.628906 155.074219 C 197.847656 155.449219 197.046875 155.636719 196.222656 155.636719 C 195.398438 155.636719 194.796875 155.496094 194.421875 155.214844 C 194.046875 154.933594 193.859375 154.625 193.859375 154.292969 C 193.859375 154.105469 193.9375 153.9375 194.097656 153.796875 C 194.257813 153.648438 194.449219 153.578125 194.683594 153.578125 C 194.855469 153.578125 195.007813 153.601563 195.136719 153.65625 C 195.269531 153.703125 195.492188 153.847656 195.8125 154.074219 C 196.332031 154.421875 196.851563 154.597656 197.371094 154.597656 C 198.164063 154.597656 198.859375 154.296875 199.453125 153.699219 C 200.046875 153.097656 200.339844 152.363281 200.339844 151.496094 C 200.339844 150.671875 200.074219 149.898438 199.539063 149.175781 C 199.003906 148.453125 198.265625 147.898438 197.328125 147.507813 C 196.589844 147.203125 195.585938 147.023438 194.3125 146.964844 L 196.960938 141.609375 L 201.902344 141.609375 "/>
<path style="fill:none;stroke-width:13.875;stroke-linecap:square;stroke-linejoin:miter;stroke:rgb(0%,0%,0%);stroke-opacity:1;stroke-miterlimit:10;" d="M 2124.335938 5355.507813 L 2068.867188 5355.507813 " transform="matrix(0.1,0,0,-0.1,0,555)"/>
<path style=" stroke:none;fill-rule:nonzero;fill:rgb(0%,0%,0%);fill-opacity:1;" d="M 184.210938 15.328125 L 187.550781 13.679688 L 187.894531 13.679688 L 187.894531 25.320313 C 187.894531 26.089844 187.929688 26.566406 187.996094 26.761719 C 188.0625 26.960938 188.195313 27.105469 188.394531 27.207031 C 188.597656 27.308594 189.011719 27.367188 189.632813 27.382813 L 189.632813 27.75 L 184.449219 27.75 L 184.449219 27.382813 C 185.101563 27.367188 185.519531 27.308594 185.707031 27.207031 C 185.894531 27.105469 186.023438 26.972656 186.097656 26.808594 C 186.171875 26.640625 186.207031 26.144531 186.207031 25.320313 L 186.207031 17.886719 C 186.207031 16.875 186.179688 16.230469 186.117188 15.957031 C 186.0625 15.738281 185.972656 15.578125 185.847656 15.480469 C 185.726563 15.378906 185.578125 15.328125 185.40625 15.328125 C 185.144531 15.328125 184.796875 15.429688 184.363281 15.632813 Z M 192.925781 20.941406 C 192.925781 19.367188 193.160156 18.011719 193.632813 16.878906 C 194.101563 15.742188 194.734375 14.902344 195.527344 14.351563 C 196.136719 13.902344 196.765625 13.679688 197.414063 13.679688 C 198.46875 13.679688 199.417969 14.222656 200.253906 15.304688 C 201.308594 16.636719 201.835938 18.441406 201.835938 20.726563 C 201.835938 22.328125 201.605469 23.6875 201.144531 24.800781 C 200.679688 25.914063 200.089844 26.722656 199.378906 27.230469 C 198.660156 27.734375 197.972656 27.988281 197.308594 27.988281 C 195.992188 27.988281 194.898438 27.214844 194.03125 25.667969 C 193.296875 24.355469 192.925781 22.777344 192.925781 20.941406 Z M 194.921875 21.203125 C 194.921875 23.097656 195.152344 24.644531 195.613281 25.84375 C 196.003906 26.855469 196.585938 27.359375 197.351563 27.359375 C 197.710938 27.359375 198.085938 27.191406 198.476563 26.859375 C 198.867188 26.527344 199.164063 25.980469 199.367188 25.214844 C 199.683594 24.042969 199.84375 22.394531 199.84375 20.269531 C 199.84375 18.710938 199.675781 17.402344 199.34375 16.347656 C 199.113281 15.566406 198.800781 15.015625 198.414063 14.699219 C 198.136719 14.46875 197.796875 14.351563 197.394531 14.351563 C 196.945313 14.351563 196.539063 14.5625 196.179688 14.980469 C 195.6875 15.542969 195.355469 16.429688 195.179688 17.636719 C 195.007813 18.84375 194.921875 20.03125 194.921875 21.203125 "/>
<path style="fill:none;stroke-width:13.875;stroke-linecap:square;stroke-linejoin:miter;stroke:rgb(0%,0%,0%);stroke-opacity:1;stroke-miterlimit:10;" d="M 2124.335938 458.90625 L 2096.601563 458.90625 " transform="matrix(0.1,0,0,-0.1,0,555)"/>
<path style="fill:none;stroke-width:13.875;stroke-linecap:square;stroke-linejoin:miter;stroke:rgb(0%,0%,0%);stroke-opacity:1;stroke-miterlimit:10;" d="M 2124.335938 716.640625 L 2096.601563 716.640625 " transform="matrix(0.1,0,0,-0.1,0,555)"/>
<path style="fill:none;stroke-width:13.875;stroke-linecap:square;stroke-linejoin:miter;stroke:rgb(0%,0%,0%);stroke-opacity:1;stroke-miterlimit:10;" d="M 2124.335938 974.335938 L 2096.601563 974.335938 " transform="matrix(0.1,0,0,-0.1,0,555)"/>
<path style="fill:none;stroke-width:13.875;stroke-linecap:square;stroke-linejoin:miter;stroke:rgb(0%,0%,0%);stroke-opacity:1;stroke-miterlimit:10;" d="M 2124.335938 1232.070313 L 2096.601563 1232.070313 " transform="matrix(0.1,0,0,-0.1,0,555)"/>
<path style="fill:none;stroke-width:13.875;stroke-linecap:square;stroke-linejoin:miter;stroke:rgb(0%,0%,0%);stroke-opacity:1;stroke-miterlimit:10;" d="M 2124.335938 1747.5 L 2096.601563 1747.5 " transform="matrix(0.1,0,0,-0.1,0,555)"/>
<path style="fill:none;stroke-width:13.875;stroke-linecap:square;stroke-linejoin:miter;stroke:rgb(0%,0%,0%);stroke-opacity:1;stroke-miterlimit:10;" d="M 2124.335938 2005.195313 L 2096.601563 2005.195313 " transform="matrix(0.1,0,0,-0.1,0,555)"/>
<path style="fill:none;stroke-width:13.875;stroke-linecap:square;stroke-linejoin:miter;stroke:rgb(0%,0%,0%);stroke-opacity:1;stroke-miterlimit:10;" d="M 2124.335938 2262.890625 L 2096.601563 2262.890625 " transform="matrix(0.1,0,0,-0.1,0,555)"/>
<path style="fill:none;stroke-width:13.875;stroke-linecap:square;stroke-linejoin:miter;stroke:rgb(0%,0%,0%);stroke-opacity:1;stroke-miterlimit:10;" d="M 2124.335938 2520.625 L 2096.601563 2520.625 " transform="matrix(0.1,0,0,-0.1,0,555)"/>
<path style="fill:none;stroke-width:13.875;stroke-linecap:square;stroke-linejoin:miter;stroke:rgb(0%,0%,0%);stroke-opacity:1;stroke-miterlimit:10;" d="M 2124.335938 3036.054688 L 2096.601563 3036.054688 " transform="matrix(0.1,0,0,-0.1,0,555)"/>
<path style="fill:none;stroke-width:13.875;stroke-linecap:square;stroke-linejoin:miter;stroke:rgb(0%,0%,0%);stroke-opacity:1;stroke-miterlimit:10;" d="M 2124.335938 3293.789063 L 2096.601563 3293.789063 " transform="matrix(0.1,0,0,-0.1,0,555)"/>
<path style="fill:none;stroke-width:13.875;stroke-linecap:square;stroke-linejoin:miter;stroke:rgb(0%,0%,0%);stroke-opacity:1;stroke-miterlimit:10;" d="M 2124.335938 3551.484375 L 2096.601563 3551.484375 " transform="matrix(0.1,0,0,-0.1,0,555)"/>
<path style="fill:none;stroke-width:13.875;stroke-linecap:square;stroke-linejoin:miter;stroke:rgb(0%,0%,0%);stroke-opacity:1;stroke-miterlimit:10;" d="M 2124.335938 3809.21875 L 2096.601563 3809.21875 " transform="matrix(0.1,0,0,-0.1,0,555)"/>
<path style="fill:none;stroke-width:13.875;stroke-linecap:square;stroke-linejoin:miter;stroke:rgb(0%,0%,0%);stroke-opacity:1;stroke-miterlimit:10;" d="M 2124.335938 4324.648438 L 2096.601563 4324.648438 " transform="matrix(0.1,0,0,-0.1,0,555)"/>
<path style="fill:none;stroke-width:13.875;stroke-linecap:square;stroke-linejoin:miter;stroke:rgb(0%,0%,0%);stroke-opacity:1;stroke-miterlimit:10;" d="M 2124.335938 4582.34375 L 2096.601563 4582.34375 " transform="matrix(0.1,0,0,-0.1,0,555)"/>
<path style="fill:none;stroke-width:13.875;stroke-linecap:square;stroke-linejoin:miter;stroke:rgb(0%,0%,0%);stroke-opacity:1;stroke-miterlimit:10;" d="M 2124.335938 4840.078125 L 2096.601563 4840.078125 " transform="matrix(0.1,0,0,-0.1,0,555)"/>
<path style="fill:none;stroke-width:13.875;stroke-linecap:square;stroke-linejoin:miter;stroke:rgb(0%,0%,0%);stroke-opacity:1;stroke-miterlimit:10;" d="M 2124.335938 5097.773438 L 2096.601563 5097.773438 " transform="matrix(0.1,0,0,-0.1,0,555)"/>
</g>
</svg>
