<?xml version="1.0" encoding="UTF-8"?>
<svg xmlns="http://www.w3.org/2000/svg" xmlns:xlink="http://www.w3.org/1999/xlink" width="555pt" height="555pt" viewBox="0 0 555 555" version="1.1">
<defs>
<clipPath id="clip1">
  <path d="M 17 14 L 544 14 L 544 546.675781 L 17 546.675781 Z M 17 14 "/>
</clipPath>
<clipPath id="clip2">
  <path d="M 11 357 L 16.648438 357 L 16.648438 359 L 11 359 Z M 11 357 "/>
</clipPath>
<clipPath id="clip3">
  <path d="M 134 357 L 140.136719 357 L 140.136719 359 L 134 359 Z M 134 357 "/>
</clipPath>
<clipPath id="clip4">
  <path d="M 217 175 L 228 175 L 228 187.3125 L 217 187.3125 Z M 217 175 "/>
</clipPath>
<clipPath id="clip5">
  <path d="M 238 446 L 244.199219 446 L 244.199219 448 L 238 448 Z M 238 446 "/>
</clipPath>
</defs>
<g id="surface1">
<rect x="0" y="0" width="555" height="555" style="fill:rgb(100%,100%,100%);fill-opacity:1;stroke:none;"/>
<g clip-path="url(#clip1)" clip-rule="nonzero">
<path style="fill:none;stroke-width:20.8125;stroke-linecap:butt;stroke-linejoin:round;stroke:rgb(47.068787%,0%,5.488586%);stroke-opacity:1;stroke-miterlimit:10;" d="M 201.601563 4016.757813 L 202.890625 4007.617188 L 203.125 4006.054688 L 208.75 3970.507813 L 210.195313 3961.71875 L 215.195313 3933.398438 L 218.359375 3916.289063 L 222.226563 3896.289063 L 227.617188 3869.765625 L 229.84375 3859.140625 L 237.96875 3822.070313 L 237.96875 3821.992188 L 246.796875 3784.921875 L 249.726563 3772.96875 L 256.09375 3747.8125 L 262.734375 3722.539063 L 265.9375 3710.703125 L 274.335938 3680.46875 L 276.289063 3673.59375 L 277.109375 3670.78125 L 287.265625 3636.484375 L 293.046875 3617.421875 L 298.671875 3599.375 L 310.429688 3562.578125 L 310.546875 3562.265625 L 310.742188 3561.679688 L 323.046875 3525.15625 L 329.726563 3505.78125 L 335.9375 3488.046875 L 347.109375 3456.992188 L 349.335938 3450.9375 L 350.664063 3447.304688 L 363.28125 3413.789063 L 373.671875 3386.679688 L 377.578125 3376.679688 L 383.476563 3361.875 L 392.421875 3339.570313 L 398.867188 3323.90625 L 407.734375 3302.460938 L 419.882813 3273.789063 L 423.4375 3265.351563 L 426.289063 3258.828125 L 439.6875 3228.242188 L 456.25 3191.171875 L 456.289063 3191.132813 L 456.289063 3191.09375 L 473.4375 3154.023438 L 489.257813 3120.3125 L 490.898438 3116.875 L 492.617188 3113.320313 L 508.90625 3079.765625 L 525.429688 3046.328125 L 527.226563 3042.65625 L 529.023438 3039.179688 L 546.09375 3005.546875 L 565.15625 2968.671875 L 565.273438 2968.4375 L 565.390625 2968.242188 L 585 2931.328125 L 601.757813 2900.195313 L 605 2894.21875 L 609.140625 2886.679688 L 625.546875 2857.109375 L 638.164063 2834.609375 L 646.40625 2819.960938 L 657.929688 2799.804688 L 667.695313 2782.890625 L 674.53125 2771.132813 L 689.414063 2745.78125 L 710.898438 2709.492188 L 711.40625 2708.632813 L 712.226563 2707.304688 L 733.945313 2671.523438 L 747.265625 2649.84375 L 756.796875 2634.414063 L 773.59375 2607.578125 L 780.039063 2597.304688 L 783.671875 2591.640625 L 803.75 2560.195313 L 820.039063 2534.960938 L 827.734375 2523.085938 L 843.320313 2499.335938 L 852.148438 2485.976563 L 856.40625 2479.53125 L 876.953125 2448.867188 L 892.8125 2425.429688 L 902.109375 2411.757813 L 923.828125 2380.078125 L 927.578125 2374.648438 L 929.179688 2372.34375 L 953.554688 2337.5 L 965.546875 2320.507813 L 979.804688 2300.390625 L 1001.953125 2269.492188 L 1006.40625 2263.28125 L 1019.101563 2245.78125 L 1033.398438 2226.171875 L 1038.320313 2219.453125 L 1060.742188 2189.0625 L 1074.6875 2170.3125 L 1088.4375 2151.953125 L 1111.09375 2121.914063 L 1116.445313 2114.84375 L 1135.351563 2090.078125 L 1144.804688 2077.734375 L 1147.460938 2074.296875 L 1173.554688 2040.625 L 1183.828125 2027.460938 L 1202.617188 2003.515625 L 1220.195313 1981.25 L 1231.992188 1966.367188 L 1256.601563 1935.625 L 1261.71875 1929.257813 L 1285.664063 1899.609375 L 1291.71875 1892.148438 L 1292.96875 1890.625 L 1322.109375 1855.039063 L 1329.375 1846.210938 L 1352.773438 1817.929688 L 1365.742188 1802.34375 L 1383.710938 1780.820313 L 1402.109375 1758.945313 L 1415 1743.710938 L 1438.476563 1716.015625 L 1446.523438 1706.5625 L 1474.882813 1673.515625 L 1478.320313 1669.453125 L 1504.21875 1639.53125 L 1510.429688 1632.382813 L 1511.25 1631.40625 L 1542.8125 1595.234375 L 1547.617188 1589.804688 L 1575.46875 1558.125 L 1583.984375 1548.476563 L 1608.359375 1521.015625 L 1620.390625 1507.539063 L 1641.484375 1483.90625 L 1674.804688 1446.796875 L 1708.359375 1409.6875 L 1742.109375 1372.578125 L 1776.015625 1335.46875 L 1810.117188 1298.359375 L 1844.375 1261.210938 L 1875.039063 1228.125 L 1878.710938 1224.101563 L 1911.40625 1188.945313 L 1913.203125 1186.992188 L 1947.578125 1150.117188 L 1947.773438 1149.882813 L 1947.8125 1149.882813 L 1982.460938 1112.773438 L 1984.179688 1110.9375 L 2017.148438 1075.664063 L 2020.546875 1072.03125 L 2051.835938 1038.554688 L 2056.914063 1033.125 L 2086.5625 1001.445313 L 2093.320313 994.21875 L 2121.210938 964.296875 L 2129.6875 955.234375 L 2155.78125 927.226563 L 2166.054688 916.132813 L 2190.234375 890.078125 L 2202.460938 876.914063 L 2224.492188 852.96875 L 2238.828125 837.460938 L 2258.59375 815.859375 L 2275.195313 797.773438 L 2292.460938 778.75 L 2311.601563 757.695313 L 2347.96875 717.1875 L 2384.335938 676.171875 L 2420.742188 634.53125 L 2449.609375 600.859375 L 2457.109375 592.109375 L 2487.382813 556.054688 L 2493.476563 548.789063 L 2517.890625 518.945313 L 2529.84375 504.296875 L 2547.65625 481.835938 L 2566.25 458.320313 L 2576.601563 444.726563 L 2602.617188 410.429688 L 2604.6875 407.617188 L 2610.390625 399.726563 L 2631.5625 370.507813 L 2638.984375 360.195313 L 2657.265625 333.398438 L 2675.390625 306.601563 L 2681.835938 296.289063 L 2692.890625 278.4375 L 2704.921875 259.140625 L 2711.757813 248.125 L 2726.132813 222.070313 L 2743.945313 189.179688 L 2746.328125 184.921875 L 2748.125 181.5625 L 2762.8125 147.8125 L 2774.101563 121.328125 L 2778.710938 110.703125 L 2784.53125 97.109375 L 2820.898438 97.109375 L 2824.882813 106.640625 L 2826.679688 110.703125 L 2835.859375 132.578125 L 2842.578125 147.8125 L 2846.992188 158.320313 L 2857.265625 181.5625 L 2858.4375 183.75 L 2859.101563 184.921875 L 2871.289063 207.734375 L 2879.296875 222.070313 L 2884.375 231.523438 L 2893.671875 248.125 L 2897.8125 254.921875 L 2900.46875 259.140625 L 2911.796875 277.773438 L 2923.59375 296.289063 L 2926.054688 300.351563 L 2930.039063 306.601563 L 2940.664063 322.578125 L 2948.164063 333.398438 L 2955.546875 344.492188 L 2966.40625 360.195313 L 2970.664063 366.171875 L 2973.867188 370.507813 L 2986.015625 387.65625 L 3000.742188 407.617188 L 3001.601563 408.828125 L 3002.8125 410.429688 L 3017.34375 429.882813 L 3028.828125 444.726563 L 3033.28125 450.742188 L 3039.179688 458.320313 L 3049.375 471.445313 L 3057.773438 481.835938 L 3065.625 491.992188 L 3075.546875 504.296875 L 3082.03125 512.34375 L 3087.539063 518.945313 L 3098.515625 532.65625 L 3111.914063 548.789063 L 3115.195313 552.734375 L 3118.046875 556.054688 L 3131.875 572.851563 L 3148.320313 592.109375 L 3148.789063 592.695313 L 3149.257813 593.203125 L 3165.625 612.617188 L 3181.054688 630.3125 L 3182.734375 632.265625 L 3184.6875 634.53125 L 3199.765625 652.03125 L 3213.398438 667.421875 L 3216.992188 671.5625 L 3221.054688 676.171875 L 3234.140625 691.171875 L 3246.210938 704.53125 L 3251.484375 710.585938 L 3257.460938 717.1875 L 3268.828125 730.039063 L 3279.414063 741.640625 L 3286.25 749.375 L 3293.828125 757.695313 L 3303.671875 768.710938 L 3312.96875 778.75 L 3321.171875 787.96875 L 3330.195313 797.773438 L 3338.710938 807.1875 L 3346.835938 815.859375 L 3356.289063 826.367188 L 3366.601563 837.460938 L 3373.90625 845.507813 L 3380.898438 852.96875 L 3391.523438 864.648438 L 3402.96875 876.914063 L 3409.21875 883.710938 L 3415.195313 890.078125 L 3426.835938 902.851563 L 3439.335938 916.132813 L 3444.570313 921.835938 L 3449.648438 927.226563 L 3462.226563 940.976563 L 3475.742188 955.234375 L 3480.039063 959.921875 L 3484.21875 964.296875 L 3497.695313 979.023438 L 3512.109375 994.21875 L 3515.546875 997.929688 L 3518.867188 1001.445313 L 3533.203125 1016.992188 L 3548.476563 1033.125 L 3551.054688 1035.9375 L 3553.554688 1038.554688 L 3568.710938 1055 L 3584.84375 1072.03125 L 3586.601563 1073.90625 L 3588.28125 1075.664063 L 3604.257813 1093.007813 L 3621.25 1110.9375 L 3622.148438 1111.875 L 3622.96875 1112.773438 L 3639.765625 1130.976563 L 3657.617188 1149.882813 L 3675.234375 1169.023438 L 3692.226563 1186.992188 L 3693.085938 1187.96875 L 3693.984375 1188.945313 L 3710.664063 1207.109375 L 3726.679688 1224.101563 L 3728.476563 1226.054688 L 3730.390625 1228.125 L 3746.054688 1245.234375 L 3761.054688 1261.210938 L 3763.789063 1264.257813 L 3766.757813 1267.421875 L 3781.367188 1283.4375 L 3795.3125 1298.359375 L 3799.0625 1302.5 L 3803.125 1306.875 L 3816.601563 1321.71875 L 3829.375 1335.46875 L 3834.257813 1340.859375 L 3839.53125 1346.523438 L 3851.757813 1360.078125 L 3863.320313 1372.578125 L 3869.335938 1379.257813 L 3875.898438 1386.40625 L 3886.796875 1398.554688 L 3897.070313 1409.6875 L 3904.296875 1417.8125 L 3912.265625 1426.523438 L 3921.757813 1437.148438 L 3930.625 1446.796875 L 3939.179688 1456.445313 L 3948.671875 1466.875 L 3956.5625 1475.820313 L 3963.945313 1483.90625 L 3973.945313 1495.234375 L 3985.039063 1507.539063 L 3991.289063 1514.648438 L 3997.070313 1521.015625 L 4008.554688 1534.140625 L 4021.40625 1548.476563 L 4025.898438 1553.59375 L 4029.960938 1558.125 L 4043.007813 1573.203125 L 4057.773438 1589.804688 L 4060.3125 1592.695313 L 4062.617188 1595.234375 L 4077.34375 1612.382813 L 4094.140625 1631.40625 L 4094.609375 1631.914063 L 4095 1632.382813 L 4111.5625 1651.71875 L 4127.109375 1669.453125 L 4128.671875 1671.367188 L 4130.546875 1673.515625 L 4145.585938 1691.25 L 4158.90625 1706.5625 L 4162.617188 1711.015625 L 4166.914063 1716.015625 L 4179.453125 1730.9375 L 4190.429688 1743.710938 L 4196.328125 1750.78125 L 4203.320313 1758.945313 L 4213.125 1770.78125 L 4221.679688 1780.820313 L 4229.921875 1790.78125 L 4239.6875 1802.34375 L 4246.640625 1810.820313 L 4252.65625 1817.929688 L 4263.28125 1830.976563 L 4276.054688 1846.210938 L 4280 1851.054688 L 4283.359375 1855.039063 L 4296.484375 1871.328125 L 4312.460938 1890.625 L 4313.125 1891.445313 L 4313.710938 1892.148438 L 4329.492188 1911.875 L 4343.710938 1929.257813 L 4346.015625 1932.148438 L 4348.828125 1935.625 L 4362.304688 1952.65625 L 4373.398438 1966.367188 L 4378.632813 1973.085938 L 4385.195313 1981.25 L 4394.882813 1993.632813 L 4402.773438 2003.515625 L 4411.054688 2014.21875 L 4421.601563 2027.460938 L 4427.265625 2034.804688 L 4431.875 2040.625 L 4443.28125 2055.585938 L 4457.96875 2074.296875 L 4459.453125 2076.210938 L 4460.625 2077.734375 L 4475.273438 2097.148438 L 4488.984375 2114.84375 L 4491.289063 2117.96875 L 4494.335938 2121.914063 L 4507.070313 2138.984375 L 4516.992188 2151.953125 L 4522.890625 2159.960938 L 4530.742188 2170.3125 L 4538.59375 2181.015625 L 4544.6875 2189.0625 L 4554.21875 2202.1875 L 4567.109375 2219.453125 L 4569.921875 2223.320313 L 4572.03125 2226.171875 L 4585.3125 2244.6875 L 4599.023438 2263.28125 L 4600.898438 2265.9375 L 4603.476563 2269.492188 L 4616.210938 2287.421875 L 4625.625 2300.390625 L 4631.523438 2308.867188 L 4639.84375 2320.507813 L 4646.796875 2330.429688 L 4651.875 2337.5 L 4661.914063 2352.109375 L 4676.210938 2372.34375 L 4677.148438 2373.710938 L 4677.8125 2374.648438 L 4692.070313 2395.585938 L 4703.320313 2411.757813 L 4707.109375 2417.382813 L 4712.617188 2425.429688 L 4721.953125 2439.335938 L 4728.476563 2448.867188 L 4736.71875 2461.367188 L 4748.984375 2479.53125 L 4751.523438 2483.398438 L 4753.28125 2485.976563 L 4766.09375 2505.664063 L 4777.695313 2523.085938 L 4780.703125 2527.851563 L 4785.390625 2534.960938 L 4795.15625 2550.234375 L 4801.679688 2560.195313 L 4809.53125 2572.695313 L 4821.757813 2591.640625 L 4823.945313 2595.078125 L 4825.390625 2597.304688 L 4838.046875 2617.8125 L 4848.59375 2634.414063 L 4852.265625 2640.429688 L 4858.125 2649.84375 L 4866.289063 2663.203125 L 4871.484375 2671.523438 L 4880.195313 2686.132813 L 4893.984375 2708.632813 L 4894.21875 2708.984375 L 4894.53125 2709.492188 L 4907.851563 2732.1875 L 4916.015625 2745.78125 L 4921.523438 2755.3125 L 4930.898438 2771.132813 L 4935.15625 2778.515625 L 4937.734375 2782.890625 L 4948.554688 2801.953125 L 4959.023438 2819.960938 L 4961.992188 2825.351563 L 4967.265625 2834.609375 L 4975.234375 2848.984375 L 4979.882813 2857.109375 L 4988.359375 2872.695313 L 5000.390625 2894.21875 L 5001.5625 2896.367188 L 5003.671875 2900.195313 L 5014.414063 2920.351563 L 5020.429688 2931.328125 L 5027.226563 2944.375 L 5040.039063 2968.242188 L 5040.117188 2968.398438 L 5040.15625 2968.4375 L 5052.578125 2992.734375 L 5059.296875 3005.546875 L 5065.078125 3017.109375 L 5076.40625 3039.179688 L 5077.578125 3041.484375 L 5078.164063 3042.65625 L 5089.6875 3066.25 L 5096.523438 3079.765625 L 5101.835938 3090.976563 L 5112.773438 3113.320313 L 5113.945313 3115.703125 L 5114.53125 3116.875 L 5125.664063 3140.859375 L 5131.992188 3154.023438 L 5137.421875 3166.015625 L 5149.140625 3191.132813 L 5149.140625 3191.171875 L 5160.46875 3216.71875 L 5165.703125 3228.242188 L 5171.757813 3242.304688 L 5181.953125 3265.351563 L 5183.046875 3267.890625 L 5185.546875 3273.789063 L 5193.984375 3293.867188 L 5197.65625 3302.460938 L 5204.765625 3319.960938 L 5212.96875 3339.570313 L 5215.546875 3346.09375 L 5221.914063 3361.875 L 5226.09375 3372.460938 L 5227.8125 3376.679688 L 5236.367188 3399.0625 L 5242.148438 3413.789063 L 5246.5625 3425.78125 L 5256.09375 3450.9375 L 5256.679688 3452.578125 L 5258.28125 3456.992188 L 5266.40625 3479.765625 L 5269.453125 3488.046875 L 5275.976563 3507.109375 L 5282.382813 3525.15625 L 5285.46875 3534.570313 L 5294.6875 3561.679688 L 5294.84375 3562.109375 L 5294.882813 3562.265625 L 5303.710938 3590.15625 L 5306.757813 3599.375 L 5312.460938 3618.359375 L 5318.164063 3636.484375 L 5321.09375 3646.679688 L 5329.140625 3673.59375 L 5329.53125 3675.15625 L 5331.054688 3680.46875 L 5337.578125 3704.101563 L 5339.492188 3710.703125 L 5345.351563 3733.242188 L 5349.296875 3747.8125 L 5352.929688 3762.65625 L 5358.632813 3784.921875 L 5360.3125 3792.226563 L 5367.460938 3821.992188 L 5367.460938 3822.03125 L 5374.0625 3852.421875 L 5375.585938 3859.140625 L 5380.390625 3883.085938 L 5383.203125 3896.289063 L 5386.445313 3914.023438 L 5390.234375 3933.398438 L 5392.1875 3945.273438 L 5396.679688 3970.507813 L 5397.617188 3976.835938 L 5402.539063 4007.617188 L 5402.695313 4008.789063 L 5403.828125 4016.757813 L 5407.1875 4041.289063 L 5407.695313 4044.726563 L 5411.210938 4074.296875 L 5412.226563 4081.835938 L 5414.84375 4107.695313 L 5416.09375 4118.945313 L 5417.96875 4141.640625 L 5419.296875 4156.054688 L 5420.546875 4176.09375 L 5421.835938 4193.164063 L 5422.578125 4211.171875 L 5423.59375 4230.273438 L 5423.984375 4246.835938 L 5424.6875 4267.421875 L 5424.6875 4283.242188 L 5424.960938 4304.53125 L 5424.648438 4320.390625 L 5424.453125 4341.640625 L 5423.75 4358.4375 L 5423.125 4378.75 L 5421.914063 4397.421875 L 5420.9375 4415.859375 L 5419.0625 4437.421875 L 5417.851563 4452.96875 L 5415.039063 4478.671875 L 5413.90625 4490.078125 L 5409.6875 4521.210938 L 5408.945313 4527.1875 L 5403.828125 4559.453125 L 5403.007813 4564.296875 L 5402.8125 4565.351563 L 5395.9375 4601.445313 L 5393.515625 4611.914063 L 5387.734375 4638.554688 L 5382.070313 4660.742188 L 5378.398438 4675.664063 L 5368.046875 4712.148438 L 5367.890625 4712.773438 L 5367.460938 4714.179688 L 5355.859375 4749.882813 L 5348.945313 4768.710938 L 5342.460938 4786.992188 L 5331.054688 4815.742188 L 5327.617188 4824.101563 L 5324.609375 4830.703125 L 5310.9375 4861.210938 L 5294.6875 4894.335938 L 5292.617188 4898.320313 L 5289.921875 4903.203125 L 5272.148438 4935.46875 L 5258.28125 4958.632813 L 5249.570313 4972.578125 L 5230.351563 5001.09375 L 5224.609375 5009.6875 L 5221.914063 5013.398438 L 5196.679688 5046.796875 L 5185.546875 5060.585938 L 5165.664063 5083.90625 L 5149.140625 5102.070313 L 5130.9375 5121.015625 L 5112.773438 5138.789063 L 5091.796875 5158.125 L 5076.40625 5171.5625 L 5047.34375 5195.234375 L 5040.039063 5200.898438 L 5021.289063 5214.375 L 5003.671875 5227.148438 L 4995.898438 5232.34375 L 4967.265625 5250.625 L 4935.195313 5269.453125 L 4930.898438 5271.875 L 4926.132813 5274.296875 L 4894.53125 5290.742188 L 4860.898438 5306.5625 L 4858.125 5307.8125 L 4856.132813 5308.632813 L 4821.757813 5322.8125 L 4796.914063 5331.914063 L 4785.390625 5336.25 L 4762.8125 5343.710938 L 4748.984375 5348.085938 L 4743.164063 5349.648438 L 4712.617188 5358.28125 L 4693.945313 5362.734375 L 4676.210938 5367.148438 L 4647.460938 5373.046875 L 4639.84375 5374.726563 L 4604.6875 5380.820313 L 4603.476563 5381.015625 L 4603.28125 5381.015625 L 4567.109375 5385.976563 L 4561.523438 5386.484375 L 4530.742188 5389.765625 L 4521.367188 5390.390625 L 4494.335938 5392.460938 L 4482.5 5392.890625 L 4457.96875 5394.0625 L 4444.882813 5394.179688 L 4421.601563 5394.648438 L 4408.28125 5394.375 L 4385.195313 5394.21875 L 4372.695313 5393.59375 L 4348.828125 5392.773438 L 4337.929688 5391.914063 L 4312.460938 5390.351563 L 4303.945313 5389.492188 L 4276.054688 5387.03125 L 4270.664063 5386.328125 L 4239.6875 5382.773438 L 4238.007813 5382.539063 L 4225.820313 5380.820313 L 4206.09375 5377.96875 L 4203.320313 5377.578125 L 4174.882813 5372.695313 L 4166.914063 5371.445313 L 4144.140625 5366.953125 L 4130.546875 5364.453125 L 4113.867188 5360.742188 L 4094.140625 5356.640625 L 4083.984375 5354.101563 L 4057.773438 5348.007813 L 4054.453125 5347.109375 L 4041.328125 5343.710938 L 4025.546875 5339.492188 L 4021.40625 5338.4375 L 3997.148438 5331.328125 L 3985.039063 5328.007813 L 3969.023438 5322.890625 L 3948.671875 5316.796875 L 3941.171875 5314.21875 L 3917.734375 5306.5625 L 3913.632813 5305.195313 L 3912.265625 5304.765625 L 3886.757813 5295.507813 L 3875.898438 5291.796875 L 3860.039063 5285.625 L 3839.53125 5278.046875 L 3833.554688 5275.546875 L 3818.125 5269.453125 L 3807.421875 5265.117188 L 3803.125 5263.4375 L 3781.757813 5254.140625 L 3766.757813 5247.929688 L 3756.25 5243.085938 L 3731.875 5232.34375 L 3730.859375 5231.875 L 3730.390625 5231.679688 L 3706.09375 5220 L 3693.984375 5214.414063 L 3681.445313 5208.046875 L 3657.617188 5196.40625 L 3656.875 5196.015625 L 3655.351563 5195.234375 L 3632.929688 5183.320313 L 3621.25 5177.382813 L 3609.0625 5170.546875 L 3585.898438 5158.125 L 3585.234375 5157.734375 L 3584.84375 5157.578125 L 3562.070313 5144.257813 L 3548.476563 5136.679688 L 3538.90625 5130.78125 L 3522.265625 5121.015625 L 3515.898438 5117.148438 L 3512.109375 5114.921875 L 3493.398438 5103.007813 L 3475.742188 5092.148438 L 3470.820313 5088.90625 L 3463.085938 5083.90625 L 3448.710938 5074.335938 L 3439.335938 5068.359375 L 3426.796875 5059.609375 L 3407.65625 5046.796875 L 3404.882813 5044.84375 L 3402.96875 5043.59375 L 3383.554688 5029.492188 L 3366.601563 5017.617188 L 3362.109375 5014.21875 L 3355.9375 5009.6875 L 3341.171875 4998.476563 L 3330.195313 4990.507813 L 3320.3125 4982.65625 L 3307.109375 4972.578125 L 3299.648438 4966.640625 L 3293.828125 4962.226563 L 3279.375 4950.195313 L 3260.898438 4935.46875 L 3258.984375 4933.867188 L 3257.460938 4932.65625 L 3239.257813 4916.875 L 3221.054688 4901.679688 L 3219.335938 4900.117188 L 3217.304688 4898.320313 L 3200.078125 4882.65625 L 3184.6875 4869.179688 L 3180.664063 4865.351563 L 3176.171875 4861.210938 L 3161.796875 4847.460938 L 3148.320313 4835.117188 L 3142.890625 4829.648438 L 3137.1875 4824.101563 L 3124.453125 4811.328125 L 3111.914063 4799.21875 L 3106.054688 4792.96875 L 3100.195313 4786.992188 L 3088.125 4774.179688 L 3075.546875 4761.328125 L 3070.234375 4755.3125 L 3065.195313 4749.882813 L 3052.8125 4735.9375 L 3039.179688 4721.171875 L 3035.390625 4716.601563 L 3032.070313 4712.773438 L 3018.632813 4696.601563 L 3002.8125 4678.320313 L 3001.640625 4676.835938 L 3000.703125 4675.664063 L 2985.585938 4656.09375 L 2971.484375 4638.554688 L 2969.21875 4635.664063 L 2966.40625 4632.148438 L 2953.789063 4614.296875 L 2944.257813 4601.445313 L 2938.28125 4593.007813 L 2930.039063 4581.796875 L 2923.28125 4571.210938 L 2918.710938 4564.296875 L 2908.867188 4548.789063 L 2894.53125 4527.1875 L 2894.179688 4526.679688 L 2893.671875 4525.898438 L 2881.09375 4502.890625 L 2873.710938 4490.078125 L 2867.8125 4479.335938 L 2857.265625 4460.976563 L 2854.921875 4455.390625 L 2853.828125 4452.96875 L 2843.90625 4429.492188 L 2837.8125 4415.859375 L 2832.734375 4403.789063 L 2821.523438 4378.75 L 2821.328125 4378.320313 L 2820.898438 4377.34375 L 2784.53125 4377.34375 L 2783.90625 4378.75 L 2783.4375 4379.84375 L 2767.617188 4415.859375 L 2754.375 4446.601563 L 2751.5625 4452.96875 L 2748.125 4460.976563 L 2731.71875 4490.078125 L 2711.757813 4525.898438 L 2710.898438 4527.1875 L 2709.21875 4529.765625 L 2686.71875 4564.296875 L 2675.390625 4581.796875 L 2661.132813 4601.445313 L 2638.984375 4632.148438 L 2633.945313 4638.554688 L 2613.4375 4664.609375 L 2604.726563 4675.664063 L 2602.617188 4678.320313 L 2573.359375 4712.773438 L 2566.25 4721.171875 L 2540.234375 4749.882813 L 2529.84375 4761.328125 L 2505.195313 4786.992188 L 2493.476563 4799.21875 L 2468.242188 4824.101563 L 2457.109375 4835.117188 L 2429.21875 4861.210938 L 2420.742188 4869.179688 L 2388.085938 4898.320313 L 2384.335938 4901.679688 L 2364.335938 4918.75 L 2347.96875 4932.65625 L 2344.53125 4935.46875 L 2311.601563 4962.226563 L 2298.28125 4972.578125 L 2275.195313 4990.507813 L 2249.492188 5009.6875 L 2238.828125 5017.617188 L 2212.8125 5036.210938 L 2202.460938 5043.59375 L 2197.734375 5046.796875 L 2166.054688 5068.359375 L 2142.34375 5083.90625 L 2129.6875 5092.148438 L 2108.59375 5105.390625 L 2093.320313 5114.921875 L 2083.164063 5121.015625 L 2056.914063 5136.679688 L 2021.796875 5156.875 L 2020.546875 5157.578125 L 2019.53125 5158.125 L 1984.179688 5177.382813 L 1950.039063 5195.234375 L 1947.8125 5196.40625 L 1945.546875 5197.539063 L 1911.40625 5214.414063 L 1876.25 5231.132813 L 1875.039063 5231.679688 L 1873.554688 5232.34375 L 1838.671875 5247.929688 L 1812.304688 5259.21875 L 1802.265625 5263.4375 L 1787.304688 5269.453125 L 1765.898438 5278.046875 L 1752.460938 5283.203125 L 1729.53125 5291.796875 L 1695.859375 5303.828125 L 1693.125 5304.765625 L 1687.695313 5306.5625 L 1656.757813 5316.796875 L 1642.304688 5321.328125 L 1620.390625 5328.007813 L 1591.054688 5336.484375 L 1583.984375 5338.4375 L 1564.101563 5343.710938 L 1547.617188 5348.007813 L 1542.03125 5349.375 L 1511.25 5356.640625 L 1495.039063 5360.234375 L 1474.882813 5364.453125 L 1449.6875 5369.375 L 1438.476563 5371.445313 L 1405.859375 5376.992188 L 1402.109375 5377.578125 L 1379.609375 5380.820313 L 1365.742188 5382.773438 L 1363.515625 5383.085938 L 1329.375 5387.03125 L 1322.578125 5387.734375 L 1292.96875 5390.351563 L 1282.851563 5391.132813 L 1256.601563 5392.773438 L 1244.296875 5393.359375 L 1220.195313 5394.21875 L 1206.796875 5394.492188 L 1183.828125 5394.648438 L 1170.351563 5394.570313 L 1147.460938 5394.0625 L 1134.882813 5393.632813 L 1111.09375 5392.460938 L 1100.3125 5391.796875 L 1074.6875 5389.765625 L 1066.640625 5389.023438 L 1038.320313 5385.976563 L 1033.789063 5385.390625 L 1001.953125 5381.015625 L 1001.757813 5380.976563 L 1000.742188 5380.820313 L 970.585938 5375.664063 L 965.546875 5374.726563 L 940.195313 5369.570313 L 929.179688 5367.148438 L 910.46875 5362.773438 L 892.8125 5358.28125 L 881.484375 5355.234375 L 856.40625 5348.085938 L 853.125 5347.070313 L 842.617188 5343.710938 L 825.507813 5338.125 L 820.039063 5336.25 L 798.554688 5328.515625 L 783.671875 5322.8125 L 772.1875 5318.28125 L 747.265625 5307.8125 L 746.445313 5307.460938 L 744.53125 5306.5625 L 721.40625 5295.859375 L 710.898438 5290.742188 L 696.953125 5283.710938 L 674.53125 5271.875 L 672.96875 5271.054688 L 670.234375 5269.453125 L 649.726563 5257.65625 L 638.164063 5250.625 L 627.03125 5243.710938 L 609.53125 5232.34375 L 604.804688 5229.257813 L 601.757813 5227.148438 L 583.28125 5214.101563 L 565.390625 5200.898438 L 562.1875 5198.476563 L 558.085938 5195.234375 L 541.796875 5182.226563 L 529.023438 5171.5625 L 521.835938 5165.429688 L 513.59375 5158.125 L 502.460938 5148.085938 L 492.617188 5138.789063 L 483.632813 5130.195313 L 474.492188 5121.015625 L 465.351563 5111.71875 L 456.25 5102.070313 L 447.617188 5092.734375 L 439.765625 5083.90625 L 430.390625 5073.164063 L 419.882813 5060.585938 L 413.710938 5053.085938 L 408.75 5046.796875 L 397.578125 5032.382813 L 383.476563 5013.398438 L 381.953125 5011.25 L 380.820313 5009.6875 L 366.953125 4989.453125 L 355.859375 4972.578125 L 352.382813 4967.1875 L 347.109375 4958.632813 L 338.4375 4944.296875 L 333.28125 4935.46875 L 325 4920.898438 L 312.773438 4898.320313 L 312.070313 4896.992188 L 310.742188 4894.335938 L 299.804688 4872.382813 L 294.492188 4861.210938 L 288.007813 4847.265625 L 277.8125 4824.101563 L 276.757813 4821.640625 L 274.335938 4815.742188 L 266.132813 4795.351563 L 262.96875 4786.992188 L 256.09375 4768.515625 L 249.570313 4749.882813 L 246.601563 4741.09375 L 237.96875 4714.179688 L 237.65625 4713.125 L 237.539063 4712.773438 L 229.375 4684.414063 L 227.03125 4675.664063 L 221.71875 4655.117188 L 217.695313 4638.554688 L 214.609375 4625.234375 L 209.492188 4601.445313 L 208.125 4594.765625 L 202.382813 4564.296875 L 202.265625 4563.632813 L 201.601563 4559.453125 L 197.148438 4531.757813 L 196.484375 4527.1875 L 192.65625 4499.21875 L 191.523438 4490.078125 L 188.828125 4465.976563 L 187.578125 4452.96875 L 185.703125 4432.070313 L 184.492188 4415.859375 L 183.28125 4397.421875 L 182.304688 4378.75 L 181.601563 4362.03125 L 180.976563 4341.640625 L 180.664063 4325.898438 L 180.46875 4304.53125 L 180.507813 4288.945313 L 180.742188 4267.421875 L 181.132813 4251.171875 L 181.796875 4230.273438 L 182.578125 4212.578125 L 183.59375 4193.164063 L 184.84375 4173.125 L 186.09375 4156.054688 L 188.046875 4132.773438 L 189.296875 4118.945313 L 192.109375 4091.523438 L 193.203125 4081.835938 L 197.109375 4049.296875 L 197.695313 4044.726563 L 201.601563 4016.757813 " transform="matrix(0.1,0,0,-0.1,0,555)"/>
</g>
<path style="fill:none;stroke-width:13.875;stroke-linecap:butt;stroke-linejoin:round;stroke:rgb(0%,0%,0%);stroke-opacity:1;stroke-miterlimit:10;" d="M 180.46875 2159.375 L 5424.960938 2159.375 " transform="matrix(0.1,0,0,-0.1,0,555)"/>
<path style=" stroke:none;fill-rule:nonzero;fill:rgb(0%,0%,0%);fill-opacity:1;" d="M 411.046875 376.359375 C 411.335938 376.660156 411.550781 376.972656 411.695313 377.289063 C 411.8125 377.492188 411.984375 378.042969 412.214844 378.9375 L 412.996094 377.789063 C 413.199219 377.5 413.449219 377.230469 413.746094 376.976563 C 414.039063 376.722656 414.296875 376.546875 414.515625 376.445313 C 414.660156 376.386719 414.816406 376.359375 414.992188 376.359375 C 415.238281 376.359375 415.4375 376.425781 415.589844 376.566406 C 415.738281 376.703125 415.816406 376.863281 415.816406 377.054688 C 415.816406 377.285156 415.773438 377.441406 415.683594 377.527344 C 415.527344 377.671875 415.339844 377.746094 415.121094 377.746094 C 414.992188 377.746094 414.863281 377.71875 414.730469 377.660156 C 414.457031 377.574219 414.269531 377.527344 414.167969 377.527344 C 414.023438 377.527344 413.859375 377.609375 413.667969 377.769531 C 413.308594 378.070313 412.875 378.664063 412.367188 379.546875 L 413.085938 382.558594 C 413.199219 383.023438 413.292969 383.300781 413.363281 383.394531 C 413.4375 383.488281 413.519531 383.535156 413.605469 383.535156 C 413.722656 383.535156 413.863281 383.46875 414.039063 383.339844 C 414.355469 383.066406 414.632813 382.710938 414.863281 382.277344 L 415.164063 382.429688 C 414.789063 383.121094 414.320313 383.699219 413.757813 384.164063 C 413.4375 384.421875 413.164063 384.554688 412.933594 384.554688 C 412.601563 384.554688 412.339844 384.363281 412.152344 383.992188 C 412.023438 383.757813 411.769531 382.777344 411.394531 381.042969 C 410.46875 382.632813 409.730469 383.652344 409.183594 384.097656 C 408.820313 384.402344 408.472656 384.554688 408.140625 384.554688 C 407.910156 384.554688 407.691406 384.464844 407.492188 384.292969 C 407.359375 384.164063 407.296875 383.992188 407.296875 383.773438 C 407.296875 383.585938 407.359375 383.425781 407.492188 383.296875 C 407.621094 383.164063 407.777344 383.101563 407.96875 383.101563 C 408.15625 383.101563 408.351563 383.195313 408.554688 383.382813 C 408.710938 383.511719 408.835938 383.578125 408.921875 383.578125 C 408.980469 383.578125 409.066406 383.535156 409.183594 383.449219 C 409.457031 383.214844 409.832031 382.730469 410.308594 381.996094 C 410.785156 381.257813 411.097656 380.722656 411.242188 380.390625 C 410.878906 378.960938 410.683594 378.210938 410.65625 378.136719 C 410.527344 377.746094 410.351563 377.472656 410.136719 377.3125 C 409.917969 377.152344 409.59375 377.074219 409.160156 377.074219 C 409.027344 377.074219 408.878906 377.082031 408.703125 377.097656 L 408.703125 376.769531 L 411.046875 376.359375 "/>
<path style="fill:none;stroke-width:1.2;stroke-linecap:butt;stroke-linejoin:round;stroke:rgb(0%,0%,0%);stroke-opacity:1;stroke-miterlimit:10;" d="M 180.390625 2159.375 L 180.390625 2103.867188 " transform="matrix(0.1,0,0,-0.1,0,555)"/>
<g clip-path="url(#clip2)" clip-rule="nonzero">
<path style=" stroke:none;fill-rule:nonzero;fill:rgb(0%,0%,0%);fill-opacity:1;" d="M 23.304688 358.582031 L 11.382813 358.582031 L 11.382813 357.648438 L 23.304688 357.648438 L 23.304688 358.582031 "/>
</g>
<path style=" stroke:none;fill-rule:nonzero;fill:rgb(0%,0%,0%);fill-opacity:1;" d="M 21.550781 352.75 L 24.453125 351.339844 L 24.734375 351.339844 L 24.734375 361.421875 C 24.734375 362.085938 24.765625 362.503906 24.824219 362.667969 C 24.882813 362.835938 24.996094 362.960938 25.167969 363.046875 C 25.34375 363.132813 25.699219 363.183594 26.230469 363.199219 L 26.230469 363.523438 L 21.746094 363.523438 L 21.746094 363.199219 C 22.308594 363.183594 22.671875 363.132813 22.839844 363.046875 C 23.007813 362.960938 23.121094 362.84375 23.1875 362.699219 C 23.25 362.558594 23.285156 362.128906 23.285156 361.421875 L 23.285156 354.980469 C 23.285156 354.101563 23.253906 353.539063 23.199219 353.292969 C 23.152344 353.105469 23.078125 352.964844 22.96875 352.878906 C 22.859375 352.792969 22.726563 352.75 22.570313 352.75 C 22.351563 352.75 22.054688 352.84375 21.679688 353.03125 L 21.550781 352.75 "/>
<path style="fill:none;stroke-width:1.2;stroke-linecap:butt;stroke-linejoin:round;stroke:rgb(0%,0%,0%);stroke-opacity:1;stroke-miterlimit:10;" d="M 1491.523438 2159.375 L 1491.523438 2103.867188 " transform="matrix(0.1,0,0,-0.1,0,555)"/>
<g clip-path="url(#clip3)" clip-rule="nonzero">
<path style=" stroke:none;fill-rule:nonzero;fill:rgb(0%,0%,0%);fill-opacity:1;" d="M 146.792969 358.582031 L 134.867188 358.582031 L 134.867188 357.648438 L 146.792969 357.648438 L 146.792969 358.582031 "/>
</g>
<path style=" stroke:none;fill-rule:nonzero;fill:rgb(0%,0%,0%);fill-opacity:1;" d="M 143.5625 357.628906 C 143.5625 356.269531 143.769531 355.09375 144.179688 354.105469 C 144.589844 353.113281 145.136719 352.378906 145.816406 351.90625 C 146.351563 351.527344 146.902344 351.339844 147.464844 351.339844 C 148.375 351.339844 149.191406 351.804688 149.914063 352.726563 C 150.824219 353.886719 151.28125 355.453125 151.28125 357.433594 C 151.28125 358.820313 151.082031 359.996094 150.683594 360.964844 C 150.285156 361.933594 149.777344 362.640625 149.15625 363.078125 C 148.535156 363.519531 147.941406 363.742188 147.378906 363.742188 C 146.234375 363.742188 145.28125 363.066406 144.515625 361.726563 C 143.878906 360.585938 143.5625 359.21875 143.5625 357.628906 Z M 145.296875 357.84375 C 145.296875 359.492188 145.5 360.835938 145.902344 361.878906 C 146.234375 362.742188 146.734375 363.179688 147.398438 363.179688 C 147.71875 363.179688 148.046875 363.035156 148.386719 362.753906 C 148.726563 362.472656 148.984375 361.992188 149.15625 361.3125 C 149.429688 360.316406 149.566406 358.890625 149.566406 357.042969 C 149.566406 355.683594 149.421875 354.550781 149.132813 353.640625 C 148.933594 352.960938 148.65625 352.480469 148.308594 352.207031 C 148.078125 352.019531 147.789063 351.925781 147.441406 351.925781 C 147.054688 351.925781 146.699219 352.097656 146.382813 352.445313 C 145.960938 352.9375 145.675781 353.707031 145.523438 354.753906 C 145.371094 355.800781 145.296875 356.832031 145.296875 357.84375 Z M 154.1875 361.8125 C 154.460938 361.8125 154.691406 361.910156 154.878906 362.105469 C 155.066406 362.300781 155.160156 362.527344 155.160156 362.785156 C 155.160156 363.0625 155.066406 363.292969 154.878906 363.480469 C 154.691406 363.667969 154.460938 363.761719 154.1875 363.761719 C 153.910156 363.761719 153.679688 363.667969 153.492188 363.480469 C 153.304688 363.292969 153.210938 363.0625 153.210938 362.785156 C 153.210938 362.511719 153.304688 362.28125 153.492188 362.09375 C 153.679688 361.90625 153.910156 361.8125 154.1875 361.8125 Z M 164.265625 351.578125 L 163.570313 353.074219 L 159.996094 353.074219 L 159.214844 354.679688 C 160.761719 354.910156 161.992188 355.488281 162.902344 356.414063 C 163.679688 357.207031 164.070313 358.148438 164.070313 359.230469 C 164.070313 359.867188 163.945313 360.453125 163.691406 360.988281 C 163.4375 361.523438 163.117188 361.976563 162.726563 362.355469 C 162.339844 362.730469 161.902344 363.023438 161.425781 363.242188 C 160.761719 363.574219 160.066406 363.742188 159.34375 363.742188 C 158.636719 363.742188 158.121094 363.617188 157.796875 363.371094 C 157.46875 363.128906 157.308594 362.859375 157.308594 362.570313 C 157.308594 362.398438 157.375 362.246094 157.511719 362.128906 C 157.648438 362.003906 157.820313 361.941406 158.023438 361.941406 C 158.167969 361.941406 158.296875 361.964844 158.410156 362.007813 C 158.527344 362.050781 158.722656 362.171875 158.996094 362.375 C 159.445313 362.679688 159.894531 362.832031 160.34375 362.832031 C 161.035156 362.832031 161.640625 362.570313 162.152344 362.050781 C 162.664063 361.53125 162.921875 360.894531 162.921875 360.140625 C 162.921875 359.421875 162.691406 358.746094 162.226563 358.125 C 161.765625 357.503906 161.128906 357.019531 160.320313 356.671875 C 159.671875 356.414063 158.796875 356.261719 157.699219 356.21875 L 159.996094 351.578125 L 164.265625 351.578125 "/>
<path style="fill:none;stroke-width:1.2;stroke-linecap:butt;stroke-linejoin:round;stroke:rgb(0%,0%,0%);stroke-opacity:1;stroke-miterlimit:10;" d="M 2802.695313 2159.375 L 2802.695313 2103.867188 " transform="matrix(0.1,0,0,-0.1,0,555)"/>
<path style=" stroke:none;fill-rule:nonzero;fill:rgb(0%,0%,0%);fill-opacity:1;" d="M 268.4375 354.851563 C 268.4375 353.492188 268.644531 352.320313 269.054688 351.328125 C 269.464844 350.339844 270.011719 349.605469 270.691406 349.128906 C 271.226563 348.753906 271.777344 348.566406 272.339844 348.566406 C 273.25 348.566406 274.066406 349.027344 274.789063 349.953125 C 275.699219 351.109375 276.15625 352.675781 276.15625 354.65625 C 276.15625 356.046875 275.957031 357.222656 275.558594 358.191406 C 275.160156 359.160156 274.652344 359.863281 274.03125 360.304688 C 273.410156 360.746094 272.816406 360.964844 272.253906 360.964844 C 271.109375 360.964844 270.15625 360.292969 269.390625 358.949219 C 268.753906 357.808594 268.4375 356.441406 268.4375 354.851563 Z M 270.171875 355.070313 C 270.171875 356.714844 270.375 358.0625 270.777344 359.101563 C 271.109375 359.96875 271.609375 360.402344 272.273438 360.402344 C 272.59375 360.402344 272.921875 360.261719 273.261719 359.980469 C 273.601563 359.699219 273.859375 359.21875 274.03125 358.539063 C 274.304688 357.539063 274.441406 356.117188 274.441406 354.269531 C 274.441406 352.910156 274.296875 351.773438 274.007813 350.863281 C 273.808594 350.183594 273.53125 349.707031 273.183594 349.433594 C 272.953125 349.246094 272.664063 349.148438 272.316406 349.148438 C 271.929688 349.148438 271.574219 349.324219 271.257813 349.671875 C 270.835938 350.160156 270.550781 350.933594 270.398438 351.980469 C 270.246094 353.027344 270.171875 354.058594 270.171875 355.070313 "/>
<path style="fill:none;stroke-width:1.2;stroke-linecap:butt;stroke-linejoin:round;stroke:rgb(0%,0%,0%);stroke-opacity:1;stroke-miterlimit:10;" d="M 4113.867188 2159.375 L 4113.867188 2103.867188 " transform="matrix(0.1,0,0,-0.1,0,555)"/>
<path style=" stroke:none;fill-rule:nonzero;fill:rgb(0%,0%,0%);fill-opacity:1;" d="M 400.25 357.628906 C 400.25 356.269531 400.457031 355.09375 400.867188 354.105469 C 401.277344 353.113281 401.824219 352.378906 402.503906 351.90625 C 403.039063 351.527344 403.589844 351.339844 404.152344 351.339844 C 405.0625 351.339844 405.878906 351.804688 406.601563 352.726563 C 407.511719 353.886719 407.96875 355.453125 407.96875 357.433594 C 407.96875 358.820313 407.769531 359.996094 407.371094 360.964844 C 406.976563 361.933594 406.464844 362.640625 405.84375 363.078125 C 405.222656 363.519531 404.628906 363.742188 404.066406 363.742188 C 402.921875 363.742188 401.96875 363.066406 401.203125 361.726563 C 400.566406 360.585938 400.25 359.21875 400.25 357.628906 Z M 401.984375 357.84375 C 401.984375 359.492188 402.1875 360.835938 402.589844 361.878906 C 402.921875 362.742188 403.421875 363.179688 404.085938 363.179688 C 404.40625 363.179688 404.734375 363.035156 405.074219 362.753906 C 405.414063 362.472656 405.671875 361.992188 405.84375 361.3125 C 406.117188 360.316406 406.253906 358.890625 406.253906 357.042969 C 406.253906 355.683594 406.109375 354.550781 405.820313 353.640625 C 405.617188 352.960938 405.34375 352.480469 404.996094 352.207031 C 404.765625 352.019531 404.476563 351.925781 404.128906 351.925781 C 403.738281 351.925781 403.386719 352.097656 403.070313 352.445313 C 402.648438 352.9375 402.363281 353.707031 402.210938 354.753906 C 402.058594 355.800781 401.984375 356.832031 401.984375 357.84375 Z M 410.871094 361.8125 C 411.148438 361.8125 411.378906 361.910156 411.566406 362.105469 C 411.753906 362.300781 411.847656 362.527344 411.847656 362.785156 C 411.847656 363.0625 411.753906 363.292969 411.566406 363.480469 C 411.378906 363.667969 411.148438 363.761719 410.871094 363.761719 C 410.597656 363.761719 410.367188 363.667969 410.179688 363.480469 C 409.992188 363.292969 409.894531 363.0625 409.894531 362.785156 C 409.894531 362.511719 409.992188 362.28125 410.179688 362.09375 C 410.367188 361.90625 410.597656 361.8125 410.871094 361.8125 Z M 420.953125 351.578125 L 420.261719 353.074219 L 416.683594 353.074219 L 415.902344 354.679688 C 417.449219 354.910156 418.679688 355.488281 419.589844 356.414063 C 420.367188 357.207031 420.757813 358.148438 420.757813 359.230469 C 420.757813 359.867188 420.632813 360.453125 420.378906 360.988281 C 420.128906 361.523438 419.804688 361.976563 419.414063 362.355469 C 419.023438 362.730469 418.589844 363.023438 418.113281 363.242188 C 417.449219 363.574219 416.753906 363.742188 416.03125 363.742188 C 415.324219 363.742188 414.808594 363.617188 414.480469 363.371094 C 414.15625 363.128906 413.996094 362.859375 413.996094 362.570313 C 413.996094 362.398438 414.0625 362.246094 414.199219 362.128906 C 414.339844 362.003906 414.507813 361.941406 414.710938 361.941406 C 414.855469 361.941406 414.984375 361.964844 415.101563 362.007813 C 415.214844 362.050781 415.410156 362.171875 415.683594 362.375 C 416.132813 362.679688 416.582031 362.832031 417.03125 362.832031 C 417.722656 362.832031 418.328125 362.570313 418.839844 362.050781 C 419.355469 361.53125 419.609375 360.894531 419.609375 360.140625 C 419.609375 359.421875 419.378906 358.746094 418.914063 358.125 C 418.453125 357.503906 417.816406 357.019531 417.007813 356.671875 C 416.359375 356.414063 415.484375 356.261719 414.386719 356.21875 L 416.683594 351.578125 L 420.953125 351.578125 "/>
<path style="fill:none;stroke-width:1.2;stroke-linecap:butt;stroke-linejoin:round;stroke:rgb(0%,0%,0%);stroke-opacity:1;stroke-miterlimit:10;" d="M 5425.039063 2159.375 L 5425.039063 2103.867188 " transform="matrix(0.1,0,0,-0.1,0,555)"/>
<path style=" stroke:none;fill-rule:nonzero;fill:rgb(0%,0%,0%);fill-opacity:1;" d="M 539.085938 352.75 L 541.992188 351.339844 L 542.273438 351.339844 L 542.273438 361.421875 C 542.273438 362.085938 542.304688 362.503906 542.359375 362.667969 C 542.417969 362.835938 542.53125 362.960938 542.707031 363.046875 C 542.878906 363.132813 543.234375 363.183594 543.769531 363.199219 L 543.769531 363.523438 L 539.28125 363.523438 L 539.28125 363.199219 C 539.847656 363.183594 540.210938 363.132813 540.375 363.046875 C 540.542969 362.960938 540.660156 362.84375 540.722656 362.699219 C 540.789063 362.558594 540.820313 362.128906 540.820313 361.421875 L 540.820313 354.980469 C 540.820313 354.101563 540.792969 353.539063 540.734375 353.292969 C 540.691406 353.105469 540.613281 352.964844 540.507813 352.878906 C 540.398438 352.792969 540.265625 352.75 540.105469 352.75 C 539.890625 352.75 539.59375 352.84375 539.21875 353.03125 L 539.085938 352.75 "/>
<path style="fill:none;stroke-width:1.2;stroke-linecap:butt;stroke-linejoin:round;stroke:rgb(0%,0%,0%);stroke-opacity:1;stroke-miterlimit:10;" d="M 442.617188 2159.375 L 442.617188 2131.601563 " transform="matrix(0.1,0,0,-0.1,0,555)"/>
<path style="fill:none;stroke-width:1.2;stroke-linecap:butt;stroke-linejoin:round;stroke:rgb(0%,0%,0%);stroke-opacity:1;stroke-miterlimit:10;" d="M 704.84375 2159.375 L 704.84375 2131.601563 " transform="matrix(0.1,0,0,-0.1,0,555)"/>
<path style="fill:none;stroke-width:1.2;stroke-linecap:butt;stroke-linejoin:round;stroke:rgb(0%,0%,0%);stroke-opacity:1;stroke-miterlimit:10;" d="M 967.070313 2159.375 L 967.070313 2131.601563 " transform="matrix(0.1,0,0,-0.1,0,555)"/>
<path style="fill:none;stroke-width:1.2;stroke-linecap:butt;stroke-linejoin:round;stroke:rgb(0%,0%,0%);stroke-opacity:1;stroke-miterlimit:10;" d="M 1229.296875 2159.375 L 1229.296875 2131.601563 " transform="matrix(0.1,0,0,-0.1,0,555)"/>
<path style="fill:none;stroke-width:1.2;stroke-linecap:butt;stroke-linejoin:round;stroke:rgb(0%,0%,0%);stroke-opacity:1;stroke-miterlimit:10;" d="M 1753.789063 2159.375 L 1753.789063 2131.601563 " transform="matrix(0.1,0,0,-0.1,0,555)"/>
<path style="fill:none;stroke-width:1.2;stroke-linecap:butt;stroke-linejoin:round;stroke:rgb(0%,0%,0%);stroke-opacity:1;stroke-miterlimit:10;" d="M 2016.015625 2159.375 L 2016.015625 2131.601563 " transform="matrix(0.1,0,0,-0.1,0,555)"/>
<path style="fill:none;stroke-width:1.2;stroke-linecap:butt;stroke-linejoin:round;stroke:rgb(0%,0%,0%);stroke-opacity:1;stroke-miterlimit:10;" d="M 2278.242188 2159.375 L 2278.242188 2131.601563 " transform="matrix(0.1,0,0,-0.1,0,555)"/>
<path style="fill:none;stroke-width:1.2;stroke-linecap:butt;stroke-linejoin:round;stroke:rgb(0%,0%,0%);stroke-opacity:1;stroke-miterlimit:10;" d="M 2540.46875 2159.375 L 2540.46875 2131.601563 " transform="matrix(0.1,0,0,-0.1,0,555)"/>
<path style="fill:none;stroke-width:1.2;stroke-linecap:butt;stroke-linejoin:round;stroke:rgb(0%,0%,0%);stroke-opacity:1;stroke-miterlimit:10;" d="M 3064.960938 2159.375 L 3064.960938 2131.601563 " transform="matrix(0.1,0,0,-0.1,0,555)"/>
<path style="fill:none;stroke-width:1.2;stroke-linecap:butt;stroke-linejoin:round;stroke:rgb(0%,0%,0%);stroke-opacity:1;stroke-miterlimit:10;" d="M 3327.1875 2159.375 L 3327.1875 2131.601563 " transform="matrix(0.1,0,0,-0.1,0,555)"/>
<path style="fill:none;stroke-width:1.2;stroke-linecap:butt;stroke-linejoin:round;stroke:rgb(0%,0%,0%);stroke-opacity:1;stroke-miterlimit:10;" d="M 3589.414063 2159.375 L 3589.414063 2131.601563 " transform="matrix(0.1,0,0,-0.1,0,555)"/>
<path style="fill:none;stroke-width:1.2;stroke-linecap:butt;stroke-linejoin:round;stroke:rgb(0%,0%,0%);stroke-opacity:1;stroke-miterlimit:10;" d="M 3851.640625 2159.375 L 3851.640625 2131.601563 " transform="matrix(0.1,0,0,-0.1,0,555)"/>
<path style="fill:none;stroke-width:1.2;stroke-linecap:butt;stroke-linejoin:round;stroke:rgb(0%,0%,0%);stroke-opacity:1;stroke-miterlimit:10;" d="M 4376.09375 2159.375 L 4376.09375 2131.601563 " transform="matrix(0.1,0,0,-0.1,0,555)"/>
<path style="fill:none;stroke-width:1.2;stroke-linecap:butt;stroke-linejoin:round;stroke:rgb(0%,0%,0%);stroke-opacity:1;stroke-miterlimit:10;" d="M 4638.359375 2159.375 L 4638.359375 2131.601563 " transform="matrix(0.1,0,0,-0.1,0,555)"/>
<path style="fill:none;stroke-width:1.2;stroke-linecap:butt;stroke-linejoin:round;stroke:rgb(0%,0%,0%);stroke-opacity:1;stroke-miterlimit:10;" d="M 4900.585938 2159.375 L 4900.585938 2131.601563 " transform="matrix(0.1,0,0,-0.1,0,555)"/>
<path style="fill:none;stroke-width:1.2;stroke-linecap:butt;stroke-linejoin:round;stroke:rgb(0%,0%,0%);stroke-opacity:1;stroke-miterlimit:10;" d="M 5162.8125 2159.375 L 5162.8125 2131.601563 " transform="matrix(0.1,0,0,-0.1,0,555)"/>
<path style="fill:none;stroke-width:13.875;stroke-linecap:butt;stroke-linejoin:round;stroke:rgb(0%,0%,0%);stroke-opacity:1;stroke-miterlimit:10;" d="M 2802.695313 97.109375 L 2802.695313 5394.648438 " transform="matrix(0.1,0,0,-0.1,0,555)"/>
<g clip-path="url(#clip4)" clip-rule="nonzero">
<path style=" stroke:none;fill-rule:nonzero;fill:rgb(0%,0%,0%);fill-opacity:1;" d="M 222.109375 175.171875 C 222.3125 175.519531 222.445313 175.839844 222.519531 176.136719 C 222.59375 176.433594 222.671875 177.015625 222.757813 177.882813 L 223.128906 182.21875 C 223.488281 181.796875 224 181.125 224.664063 180.203125 C 224.984375 179.753906 225.382813 179.144531 225.859375 178.378906 C 226.148438 177.917969 226.328125 177.59375 226.398438 177.402344 C 226.429688 177.304688 226.445313 177.203125 226.445313 177.101563 C 226.445313 177.042969 226.421875 176.992188 226.378906 176.949219 C 226.335938 176.90625 226.226563 176.855469 226.054688 176.796875 C 225.878906 176.738281 225.738281 176.636719 225.632813 176.492188 C 225.523438 176.351563 225.46875 176.175781 225.46875 175.972656 C 225.46875 175.742188 225.535156 175.550781 225.675781 175.398438 C 225.8125 175.246094 225.988281 175.171875 226.203125 175.171875 C 226.464844 175.171875 226.6875 175.28125 226.867188 175.496094 C 227.046875 175.714844 227.136719 176.011719 227.136719 176.386719 C 227.136719 176.847656 226.980469 177.378906 226.660156 177.980469 C 226.34375 178.578125 225.730469 179.492188 224.828125 180.722656 C 223.925781 181.949219 222.832031 183.292969 221.542969 184.753906 C 220.664063 185.753906 220.003906 186.382813 219.570313 186.652344 C 219.136719 186.917969 218.769531 187.050781 218.464844 187.050781 C 218.277344 187.050781 218.113281 186.980469 217.976563 186.835938 C 217.839844 186.691406 217.773438 186.53125 217.773438 186.359375 C 217.773438 186.125 217.871094 185.917969 218.066406 185.730469 C 218.257813 185.542969 218.464844 185.449219 218.683594 185.449219 C 218.796875 185.449219 218.898438 185.476563 218.984375 185.535156 C 219.027344 185.5625 219.078125 185.644531 219.136719 185.785156 C 219.195313 185.921875 219.246094 186.011719 219.289063 186.054688 C 219.316406 186.082031 219.355469 186.097656 219.398438 186.097656 C 219.425781 186.097656 219.484375 186.070313 219.570313 186.011719 C 219.902344 185.808594 220.28125 185.492188 220.699219 185.058594 C 221.261719 184.480469 221.679688 184.007813 221.953125 183.648438 L 221.457031 178.074219 C 221.386719 177.152344 221.265625 176.585938 221.101563 176.386719 C 220.933594 176.183594 220.65625 176.082031 220.265625 176.082031 C 220.136719 176.082031 219.910156 176.101563 219.59375 176.148438 L 219.527344 175.820313 L 222.109375 175.171875 "/>
</g>
<path style="fill:none;stroke-width:1.2;stroke-linecap:butt;stroke-linejoin:round;stroke:rgb(0%,0%,0%);stroke-opacity:1;stroke-miterlimit:10;" d="M 2802.695313 1089.257813 L 2747.226563 1089.257813 " transform="matrix(0.1,0,0,-0.1,0,555)"/>
<g clip-path="url(#clip5)" clip-rule="nonzero">
<path style=" stroke:none;fill-rule:nonzero;fill:rgb(0%,0%,0%);fill-opacity:1;" d="M 250.855469 447.382813 L 238.933594 447.382813 L 238.933594 446.449219 L 250.855469 446.449219 L 250.855469 447.382813 "/>
</g>
<path style=" stroke:none;fill-rule:nonzero;fill:rgb(0%,0%,0%);fill-opacity:1;" d="M 247.625 446.429688 C 247.625 445.066406 247.832031 443.894531 248.242188 442.902344 C 248.652344 441.914063 249.199219 441.179688 249.878906 440.703125 C 250.414063 440.328125 250.964844 440.140625 251.527344 440.140625 C 252.4375 440.140625 253.253906 440.605469 253.976563 441.527344 C 254.886719 442.683594 255.34375 444.253906 255.34375 446.230469 C 255.34375 447.621094 255.144531 448.796875 254.746094 449.765625 C 254.351563 450.734375 253.839844 451.441406 253.21875 451.878906 C 252.597656 452.320313 252.003906 452.539063 251.441406 452.539063 C 250.296875 452.539063 249.34375 451.867188 248.578125 450.523438 C 247.941406 449.382813 247.625 448.015625 247.625 446.429688 Z M 249.359375 446.644531 C 249.359375 448.289063 249.5625 449.636719 249.964844 450.675781 C 250.296875 451.542969 250.796875 451.976563 251.460938 451.976563 C 251.78125 451.976563 252.109375 451.835938 252.449219 451.554688 C 252.789063 451.273438 253.046875 450.792969 253.21875 450.113281 C 253.492188 449.117188 253.628906 447.691406 253.628906 445.84375 C 253.628906 444.484375 253.484375 443.347656 253.195313 442.4375 C 252.992188 441.757813 252.71875 441.28125 252.371094 441.007813 C 252.140625 440.820313 251.851563 440.726563 251.503906 440.726563 C 251.113281 440.726563 250.761719 440.898438 250.445313 441.246094 C 250.023438 441.738281 249.738281 442.507813 249.585938 443.554688 C 249.433594 444.601563 249.359375 445.632813 249.359375 446.644531 Z M 258.246094 450.609375 C 258.523438 450.609375 258.753906 450.710938 258.941406 450.902344 C 259.128906 451.101563 259.222656 451.328125 259.222656 451.585938 C 259.222656 451.863281 259.128906 452.09375 258.941406 452.28125 C 258.753906 452.46875 258.523438 452.5625 258.246094 452.5625 C 257.972656 452.5625 257.742188 452.46875 257.554688 452.28125 C 257.367188 452.09375 257.269531 451.863281 257.269531 451.585938 C 257.269531 451.3125 257.367188 451.082031 257.554688 450.894531 C 257.742188 450.707031 257.972656 450.609375 258.246094 450.609375 Z M 268.328125 440.378906 L 267.636719 441.875 L 264.058594 441.875 L 263.277344 443.480469 C 264.824219 443.710938 266.054688 444.289063 266.964844 445.214844 C 267.742188 446.007813 268.132813 446.949219 268.132813 448.03125 C 268.132813 448.667969 268.007813 449.253906 267.753906 449.785156 C 267.503906 450.324219 267.179688 450.777344 266.789063 451.152344 C 266.398438 451.53125 265.964844 451.824219 265.488281 452.042969 C 264.824219 452.375 264.128906 452.539063 263.40625 452.539063 C 262.699219 452.539063 262.183594 452.417969 261.855469 452.171875 C 261.53125 451.925781 261.371094 451.660156 261.371094 451.371094 C 261.371094 451.195313 261.4375 451.046875 261.574219 450.925781 C 261.714844 450.804688 261.882813 450.742188 262.085938 450.742188 C 262.230469 450.742188 262.359375 450.765625 262.476563 450.808594 C 262.589844 450.851563 262.785156 450.972656 263.058594 451.175781 C 263.507813 451.480469 263.957031 451.632813 264.40625 451.632813 C 265.097656 451.632813 265.703125 451.371094 266.214844 450.851563 C 266.730469 450.328125 266.984375 449.695313 266.984375 448.941406 C 266.984375 448.21875 266.753906 447.546875 266.289063 446.925781 C 265.828125 446.304688 265.191406 445.820313 264.382813 445.472656 C 263.734375 445.214844 262.859375 445.0625 261.761719 445.019531 L 264.058594 440.378906 L 268.328125 440.378906 "/>
<path style="fill:none;stroke-width:1.2;stroke-linecap:butt;stroke-linejoin:round;stroke:rgb(0%,0%,0%);stroke-opacity:1;stroke-miterlimit:10;" d="M 2802.695313 2159.375 L 2747.226563 2159.375 " transform="matrix(0.1,0,0,-0.1,0,555)"/>
<path style="fill:none;stroke-width:1.2;stroke-linecap:butt;stroke-linejoin:round;stroke:rgb(0%,0%,0%);stroke-opacity:1;stroke-miterlimit:10;" d="M 2802.695313 3229.492188 L 2747.226563 3229.492188 " transform="matrix(0.1,0,0,-0.1,0,555)"/>
<path style=" stroke:none;fill-rule:nonzero;fill:rgb(0%,0%,0%);fill-opacity:1;" d="M 247.625 232.753906 C 247.625 231.394531 247.832031 230.21875 248.242188 229.230469 C 248.652344 228.238281 249.199219 227.503906 249.878906 227.03125 C 250.414063 226.652344 250.964844 226.464844 251.527344 226.464844 C 252.4375 226.464844 253.253906 226.929688 253.976563 227.851563 C 254.886719 229.011719 255.34375 230.578125 255.34375 232.558594 C 255.34375 233.945313 255.144531 235.121094 254.746094 236.089844 C 254.351563 237.058594 253.839844 237.765625 253.21875 238.203125 C 252.597656 238.644531 252.003906 238.867188 251.441406 238.867188 C 250.296875 238.867188 249.34375 238.191406 248.578125 236.851563 C 247.941406 235.710938 247.625 234.34375 247.625 232.753906 Z M 249.359375 232.96875 C 249.359375 234.617188 249.5625 235.960938 249.964844 237.003906 C 250.296875 237.867188 250.796875 238.304688 251.460938 238.304688 C 251.78125 238.304688 252.109375 238.160156 252.449219 237.878906 C 252.789063 237.597656 253.046875 237.117188 253.21875 236.4375 C 253.492188 235.441406 253.628906 234.015625 253.628906 232.167969 C 253.628906 230.808594 253.484375 229.675781 253.195313 228.765625 C 252.992188 228.085938 252.71875 227.605469 252.371094 227.332031 C 252.140625 227.144531 251.851563 227.050781 251.503906 227.050781 C 251.113281 227.050781 250.761719 227.222656 250.445313 227.570313 C 250.023438 228.0625 249.738281 228.832031 249.585938 229.878906 C 249.433594 230.925781 249.359375 231.957031 249.359375 232.96875 Z M 258.246094 236.9375 C 258.523438 236.9375 258.753906 237.035156 258.941406 237.230469 C 259.128906 237.425781 259.222656 237.652344 259.222656 237.910156 C 259.222656 238.1875 259.128906 238.417969 258.941406 238.605469 C 258.753906 238.792969 258.523438 238.886719 258.246094 238.886719 C 257.972656 238.886719 257.742188 238.792969 257.554688 238.605469 C 257.367188 238.417969 257.269531 238.1875 257.269531 237.910156 C 257.269531 237.636719 257.367188 237.40625 257.554688 237.21875 C 257.742188 237.03125 257.972656 236.9375 258.246094 236.9375 Z M 268.328125 226.703125 L 267.636719 228.199219 L 264.058594 228.199219 L 263.277344 229.804688 C 264.824219 230.035156 266.054688 230.613281 266.964844 231.539063 C 267.742188 232.332031 268.132813 233.273438 268.132813 234.355469 C 268.132813 234.992188 268.007813 235.578125 267.753906 236.113281 C 267.503906 236.648438 267.179688 237.101563 266.789063 237.480469 C 266.398438 237.855469 265.964844 238.148438 265.488281 238.367188 C 264.824219 238.699219 264.128906 238.867188 263.40625 238.867188 C 262.699219 238.867188 262.183594 238.742188 261.855469 238.496094 C 261.53125 238.253906 261.371094 237.984375 261.371094 237.695313 C 261.371094 237.523438 261.4375 237.371094 261.574219 237.253906 C 261.714844 237.128906 261.882813 237.066406 262.085938 237.066406 C 262.230469 237.066406 262.359375 237.089844 262.476563 237.132813 C 262.589844 237.175781 262.785156 237.296875 263.058594 237.5 C 263.507813 237.804688 263.957031 237.957031 264.40625 237.957031 C 265.097656 237.957031 265.703125 237.695313 266.214844 237.175781 C 266.730469 236.65625 266.984375 236.019531 266.984375 235.265625 C 266.984375 234.546875 266.753906 233.871094 266.289063 233.25 C 265.828125 232.628906 265.191406 232.144531 264.382813 231.796875 C 263.734375 231.539063 262.859375 231.386719 261.761719 231.34375 L 264.058594 226.703125 L 268.328125 226.703125 "/>
<path style="fill:none;stroke-width:1.2;stroke-linecap:butt;stroke-linejoin:round;stroke:rgb(0%,0%,0%);stroke-opacity:1;stroke-miterlimit:10;" d="M 2802.695313 4299.570313 L 2747.226563 4299.570313 " transform="matrix(0.1,0,0,-0.1,0,555)"/>
<path style=" stroke:none;fill-rule:nonzero;fill:rgb(0%,0%,0%);fill-opacity:1;" d="M 262.972656 121.035156 L 265.878906 119.628906 L 266.160156 119.628906 L 266.160156 129.710938 C 266.160156 130.375 266.191406 130.789063 266.246094 130.957031 C 266.304688 131.121094 266.421875 131.25 266.59375 131.335938 C 266.769531 131.421875 267.121094 131.472656 267.65625 131.488281 L 267.65625 131.8125 L 263.167969 131.8125 L 263.167969 131.488281 C 263.734375 131.472656 264.097656 131.421875 264.261719 131.335938 C 264.429688 131.25 264.546875 131.132813 264.609375 130.988281 C 264.675781 130.84375 264.710938 130.417969 264.710938 129.710938 L 264.710938 123.269531 C 264.710938 122.390625 264.679688 121.824219 264.621094 121.578125 C 264.578125 121.390625 264.503906 121.253906 264.394531 121.167969 C 264.285156 121.082031 264.152344 121.035156 263.992188 121.035156 C 263.777344 121.035156 263.480469 121.132813 263.105469 121.320313 L 262.972656 121.035156 "/>
<path style="fill:none;stroke-width:1.2;stroke-linecap:butt;stroke-linejoin:round;stroke:rgb(0%,0%,0%);stroke-opacity:1;stroke-miterlimit:10;" d="M 2802.695313 5369.6875 L 2747.226563 5369.6875 " transform="matrix(0.1,0,0,-0.1,0,555)"/>
<path style=" stroke:none;fill-rule:nonzero;fill:rgb(0%,0%,0%);fill-opacity:1;" d="M 249.097656 12.8125 L 252.003906 11.402344 L 252.285156 11.402344 L 252.285156 21.484375 C 252.285156 22.148438 252.316406 22.566406 252.371094 22.730469 C 252.429688 22.898438 252.546875 23.023438 252.71875 23.109375 C 252.894531 23.195313 253.246094 23.246094 253.78125 23.261719 L 253.78125 23.585938 L 249.292969 23.585938 L 249.292969 23.261719 C 249.859375 23.246094 250.222656 23.195313 250.386719 23.109375 C 250.554688 23.023438 250.671875 22.90625 250.734375 22.765625 C 250.800781 22.617188 250.835938 22.191406 250.835938 21.484375 L 250.835938 15.046875 C 250.835938 14.164063 250.804688 13.601563 250.746094 13.355469 C 250.703125 13.167969 250.628906 13.027344 250.519531 12.941406 C 250.410156 12.855469 250.277344 12.8125 250.117188 12.8125 C 249.902344 12.8125 249.605469 12.90625 249.230469 13.09375 Z M 258.246094 21.875 C 258.523438 21.875 258.753906 21.972656 258.941406 22.167969 C 259.128906 22.363281 259.222656 22.589844 259.222656 22.851563 C 259.222656 23.125 259.128906 23.355469 258.941406 23.542969 C 258.753906 23.730469 258.523438 23.824219 258.246094 23.824219 C 257.972656 23.824219 257.742188 23.730469 257.554688 23.542969 C 257.367188 23.355469 257.269531 23.125 257.269531 22.851563 C 257.269531 22.574219 257.367188 22.34375 257.554688 22.15625 C 257.742188 21.96875 257.972656 21.875 258.246094 21.875 Z M 268.328125 11.640625 L 267.636719 13.136719 L 264.058594 13.136719 L 263.277344 14.742188 C 264.824219 14.972656 266.054688 15.550781 266.964844 16.476563 C 267.742188 17.269531 268.132813 18.210938 268.132813 19.296875 C 268.132813 19.929688 268.007813 20.515625 267.753906 21.050781 C 267.503906 21.585938 267.179688 22.039063 266.789063 22.417969 C 266.398438 22.792969 265.964844 23.089844 265.488281 23.304688 C 264.824219 23.636719 264.128906 23.804688 263.40625 23.804688 C 262.699219 23.804688 262.183594 23.679688 261.855469 23.4375 C 261.53125 23.191406 261.371094 22.921875 261.371094 22.632813 C 261.371094 22.460938 261.4375 22.3125 261.574219 22.1875 C 261.714844 22.066406 261.882813 22.003906 262.085938 22.003906 C 262.230469 22.003906 262.359375 22.027344 262.476563 22.070313 C 262.589844 22.113281 262.785156 22.234375 263.058594 22.4375 C 263.507813 22.742188 263.957031 22.894531 264.40625 22.894531 C 265.097656 22.894531 265.703125 22.632813 266.214844 22.113281 C 266.730469 21.59375 266.984375 20.957031 266.984375 20.203125 C 266.984375 19.484375 266.753906 18.8125 266.289063 18.1875 C 265.828125 17.566406 265.191406 17.085938 264.382813 16.738281 C 263.734375 16.476563 262.859375 16.324219 261.761719 16.28125 L 264.058594 11.640625 L 268.328125 11.640625 "/>
<path style="fill:none;stroke-width:1.2;stroke-linecap:butt;stroke-linejoin:round;stroke:rgb(0%,0%,0%);stroke-opacity:1;stroke-miterlimit:10;" d="M 2802.695313 233.203125 L 2774.960938 233.203125 " transform="matrix(0.1,0,0,-0.1,0,555)"/>
<path style="fill:none;stroke-width:1.2;stroke-linecap:butt;stroke-linejoin:round;stroke:rgb(0%,0%,0%);stroke-opacity:1;stroke-miterlimit:10;" d="M 2802.695313 447.1875 L 2774.960938 447.1875 " transform="matrix(0.1,0,0,-0.1,0,555)"/>
<path style="fill:none;stroke-width:1.2;stroke-linecap:butt;stroke-linejoin:round;stroke:rgb(0%,0%,0%);stroke-opacity:1;stroke-miterlimit:10;" d="M 2802.695313 661.210938 L 2774.960938 661.210938 " transform="matrix(0.1,0,0,-0.1,0,555)"/>
<path style="fill:none;stroke-width:1.2;stroke-linecap:butt;stroke-linejoin:round;stroke:rgb(0%,0%,0%);stroke-opacity:1;stroke-miterlimit:10;" d="M 2802.695313 875.234375 L 2774.960938 875.234375 " transform="matrix(0.1,0,0,-0.1,0,555)"/>
<path style="fill:none;stroke-width:1.2;stroke-linecap:butt;stroke-linejoin:round;stroke:rgb(0%,0%,0%);stroke-opacity:1;stroke-miterlimit:10;" d="M 2802.695313 1303.28125 L 2774.960938 1303.28125 " transform="matrix(0.1,0,0,-0.1,0,555)"/>
<path style="fill:none;stroke-width:1.2;stroke-linecap:butt;stroke-linejoin:round;stroke:rgb(0%,0%,0%);stroke-opacity:1;stroke-miterlimit:10;" d="M 2802.695313 1517.304688 L 2774.960938 1517.304688 " transform="matrix(0.1,0,0,-0.1,0,555)"/>
<path style="fill:none;stroke-width:1.2;stroke-linecap:butt;stroke-linejoin:round;stroke:rgb(0%,0%,0%);stroke-opacity:1;stroke-miterlimit:10;" d="M 2802.695313 1731.328125 L 2774.960938 1731.328125 " transform="matrix(0.1,0,0,-0.1,0,555)"/>
<path style="fill:none;stroke-width:1.2;stroke-linecap:butt;stroke-linejoin:round;stroke:rgb(0%,0%,0%);stroke-opacity:1;stroke-miterlimit:10;" d="M 2802.695313 1945.351563 L 2774.960938 1945.351563 " transform="matrix(0.1,0,0,-0.1,0,555)"/>
<path style="fill:none;stroke-width:1.2;stroke-linecap:butt;stroke-linejoin:round;stroke:rgb(0%,0%,0%);stroke-opacity:1;stroke-miterlimit:10;" d="M 2802.695313 2373.398438 L 2774.960938 2373.398438 " transform="matrix(0.1,0,0,-0.1,0,555)"/>
<path style="fill:none;stroke-width:1.2;stroke-linecap:butt;stroke-linejoin:round;stroke:rgb(0%,0%,0%);stroke-opacity:1;stroke-miterlimit:10;" d="M 2802.695313 2587.421875 L 2774.960938 2587.421875 " transform="matrix(0.1,0,0,-0.1,0,555)"/>
<path style="fill:none;stroke-width:1.2;stroke-linecap:butt;stroke-linejoin:round;stroke:rgb(0%,0%,0%);stroke-opacity:1;stroke-miterlimit:10;" d="M 2802.695313 2801.445313 L 2774.960938 2801.445313 " transform="matrix(0.1,0,0,-0.1,0,555)"/>
<path style="fill:none;stroke-width:1.2;stroke-linecap:butt;stroke-linejoin:round;stroke:rgb(0%,0%,0%);stroke-opacity:1;stroke-miterlimit:10;" d="M 2802.695313 3015.46875 L 2774.960938 3015.46875 " transform="matrix(0.1,0,0,-0.1,0,555)"/>
<path style="fill:none;stroke-width:1.2;stroke-linecap:butt;stroke-linejoin:round;stroke:rgb(0%,0%,0%);stroke-opacity:1;stroke-miterlimit:10;" d="M 2802.695313 3443.515625 L 2774.960938 3443.515625 " transform="matrix(0.1,0,0,-0.1,0,555)"/>
<path style="fill:none;stroke-width:1.2;stroke-linecap:butt;stroke-linejoin:round;stroke:rgb(0%,0%,0%);stroke-opacity:1;stroke-miterlimit:10;" d="M 2802.695313 3657.539063 L 2774.960938 3657.539063 " transform="matrix(0.1,0,0,-0.1,0,555)"/>
<path style="fill:none;stroke-width:1.2;stroke-linecap:butt;stroke-linejoin:round;stroke:rgb(0%,0%,0%);stroke-opacity:1;stroke-miterlimit:10;" d="M 2802.695313 3871.523438 L 2774.960938 3871.523438 " transform="matrix(0.1,0,0,-0.1,0,555)"/>
<path style="fill:none;stroke-width:1.2;stroke-linecap:butt;stroke-linejoin:round;stroke:rgb(0%,0%,0%);stroke-opacity:1;stroke-miterlimit:10;" d="M 2802.695313 4085.546875 L 2774.960938 4085.546875 " transform="matrix(0.1,0,0,-0.1,0,555)"/>
<path style="fill:none;stroke-width:1.2;stroke-linecap:butt;stroke-linejoin:round;stroke:rgb(0%,0%,0%);stroke-opacity:1;stroke-miterlimit:10;" d="M 2802.695313 4513.59375 L 2774.960938 4513.59375 " transform="matrix(0.1,0,0,-0.1,0,555)"/>
<path style="fill:none;stroke-width:1.2;stroke-linecap:butt;stroke-linejoin:round;stroke:rgb(0%,0%,0%);stroke-opacity:1;stroke-miterlimit:10;" d="M 2802.695313 4727.617188 L 2774.960938 4727.617188 " transform="matrix(0.1,0,0,-0.1,0,555)"/>
<path style="fill:none;stroke-width:1.2;stroke-linecap:butt;stroke-linejoin:round;stroke:rgb(0%,0%,0%);stroke-opacity:1;stroke-miterlimit:10;" d="M 2802.695313 4941.640625 L 2774.960938 4941.640625 " transform="matrix(0.1,0,0,-0.1,0,555)"/>
<path style="fill:none;stroke-width:1.2;stroke-linecap:butt;stroke-linejoin:round;stroke:rgb(0%,0%,0%);stroke-opacity:1;stroke-miterlimit:10;" d="M 2802.695313 5155.664063 L 2774.960938 5155.664063 " transform="matrix(0.1,0,0,-0.1,0,555)"/>
</g>
</svg>
