<?xml version="1.0" encoding="UTF-8"?>
<svg xmlns="http://www.w3.org/2000/svg" xmlns:xlink="http://www.w3.org/1999/xlink" width="555pt" height="555pt" viewBox="0 0 555 555" version="1.1">
<defs>
<clipPath id="clip1">
  <path d="M 24.199219 7 L 538 7 L 538 495 L 24.199219 495 Z M 24.199219 7 "/>
</clipPath>
<clipPath id="clip2">
  <path d="M 11 514 L 19.425781 514 L 19.425781 516 L 11 516 Z M 11 514 "/>
</clipPath>
<clipPath id="clip3">
  <path d="M 145 514 L 152.625 514 L 152.625 516 L 145 516 Z M 145 514 "/>
</clipPath>
</defs>
<g id="surface1">
<rect x="0" y="0" width="555" height="555" style="fill:rgb(100%,100%,100%);fill-opacity:1;stroke:none;"/>
<g clip-path="url(#clip1)" clip-rule="nonzero">
<path style="fill:none;stroke-width:20.8125;stroke-linecap:butt;stroke-linejoin:round;stroke:rgb(47.068787%,0%,5.488586%);stroke-opacity:1;stroke-miterlimit:10;" d="M 256.679688 610.546875 L 410.3125 610.546875 L 435.585938 610.585938 L 538.125 610.585938 L 564.6875 610.625 L 640.390625 610.625 L 668.164063 610.664063 L 691.679688 610.664063 L 719.023438 610.703125 L 743.242188 610.703125 L 769.804688 610.742188 L 795.078125 610.742188 L 821.484375 610.78125 L 845.703125 610.820313 L 871.835938 610.820313 L 898.984375 610.859375 L 922.65625 610.9375 L 948.164063 610.9375 L 974.53125 611.015625 L 1000.351563 611.054688 L 1025.3125 611.09375 L 1053.007813 611.171875 L 1077.929688 611.25 L 1104.53125 611.328125 L 1128.59375 611.40625 L 1154.960938 611.523438 L 1179.726563 611.601563 L 1205.664063 611.71875 L 1230.976563 611.875 L 1257.5 612.03125 L 1283.046875 612.148438 L 1309.140625 612.34375 L 1335.078125 612.539063 L 1358.867188 612.734375 L 1386.132813 613.007813 L 1410.546875 613.242188 L 1436.5625 613.554688 L 1461.484375 613.828125 L 1489.101563 614.21875 L 1513.046875 614.609375 L 1540.234375 615.039063 L 1565 615.507813 L 1592.109375 616.09375 L 1615.46875 616.601563 L 1642.070313 617.265625 L 1667.773438 618.007813 L 1693.476563 618.789063 L 1719.101563 619.6875 L 1743.671875 620.585938 L 1770.273438 621.679688 L 1795.625 622.851563 L 1822.304688 624.21875 L 1846.445313 625.585938 L 1873.125 627.226563 L 1898.671875 628.984375 L 1924.179688 630.898438 L 1950.78125 633.164063 L 1975.3125 635.429688 L 2000.429688 637.96875 L 2028.164063 641.09375 L 2053.28125 644.257813 L 2078.984375 647.8125 L 2105.078125 651.757813 L 2129.101563 655.820313 L 2154.6875 660.546875 L 2180.078125 665.742188 L 2207.265625 671.835938 L 2231.210938 677.8125 L 2258.867188 685.351563 L 2283.828125 692.929688 L 2308.554688 701.132813 L 2335.078125 710.898438 L 2361.757813 721.679688 L 2386.015625 732.5 L 2411.796875 745.078125 L 2436.914063 758.59375 L 2464.179688 774.726563 L 2487.773438 790 L 2514.84375 809.257813 L 2540.3125 829.179688 L 2565.546875 850.78125 L 2590.78125 874.375 L 2616.523438 900.703125 L 2643.789063 931.25 L 2668.828125 961.914063 L 2693.515625 994.765625 L 2719.882813 1033.007813 L 2746.25 1074.53125 L 2769.882813 1114.882813 L 2797.890625 1166.640625 L 2821.328125 1213.476563 L 2848.710938 1272.539063 L 2874.882813 1333.320313 L 2898.242188 1391.445313 L 2924.53125 1461.25 L 2950.976563 1536.40625 L 2977.265625 1616.132813 L 3001.679688 1694.453125 L 3026.914063 1780.078125 L 3053.046875 1873.359375 L 3079.101563 1971.015625 L 3105.898438 2076.132813 L 3129.492188 2172.382813 L 3156.054688 2284.648438 L 3182.734375 2401.054688 L 3208.4375 2516.328125 L 3231.757813 2623.164063 L 3259.53125 2752.421875 L 3283.046875 2863.242188 L 3310.390625 2993.046875 L 3334.609375 3108.164063 L 3361.132813 3234.140625 L 3386.445313 3353.125 L 3412.8125 3475.625 L 3437.070313 3586.171875 L 3463.203125 3702.8125 L 3490.351563 3820.507813 L 3513.984375 3919.804688 L 3539.53125 4023.28125 L 3565.898438 4125.9375 L 3591.71875 4221.875 L 3616.640625 4310.3125 L 3644.375 4403.359375 L 3669.296875 4482.226563 L 3695.859375 4561.5625 L 3719.960938 4629.140625 L 3746.328125 4698.398438 L 3771.09375 4759.21875 L 3797.03125 4818.515625 L 3822.34375 4872.382813 L 3848.867188 4924.609375 L 3874.414063 4971.054688 L 3900.546875 5014.921875 L 3926.445313 5054.960938 L 3950.234375 5088.867188 L 3977.539063 5124.648438 L 4001.914063 5153.945313 L 4027.929688 5182.617188 L 4052.8125 5207.734375 L 4080.46875 5233.203125 L 4104.414063 5253.320313 L 4131.601563 5274.140625 L 4156.367188 5291.484375 L 4183.4375 5308.671875 L 4206.835938 5322.265625 L 4233.4375 5336.328125 L 4259.140625 5348.671875 L 4284.84375 5359.882813 L 4310.46875 5370.039063 L 4335.039063 5378.867188 L 4361.640625 5387.578125 L 4386.992188 5395.117188 L 4413.632813 5402.265625 L 4437.773438 5408.164063 L 4464.492188 5414.0625 L 4490.039063 5419.21875 L 4515.546875 5423.828125 L 4542.148438 5428.203125 L 4566.679688 5431.875 L 4591.796875 5435.273438 L 4619.53125 5438.632813 L 4644.648438 5441.40625 L 4670.351563 5443.984375 L 4696.445313 5446.367188 L 4720.46875 5448.320313 L 4746.054688 5450.234375 L 4771.445313 5451.914063 L 4798.59375 5453.59375 L 4822.578125 5454.921875 L 4850.234375 5456.289063 L 4875.195313 5457.421875 L 4899.882813 5458.4375 L 4926.445313 5459.414063 L 4953.125 5460.273438 L 4977.382813 5461.015625 L 5003.125 5461.71875 L 5028.28125 5462.34375 L 5055.546875 5462.96875 L 5079.140625 5463.4375 L 5106.210938 5463.945313 L 5131.679688 5464.375 L 5156.875 5464.726563 L 5182.148438 5465.078125 L 5207.851563 5465.390625 L 5235.15625 5465.703125 L 5260.195313 5465.9375 L 5284.84375 5466.171875 L 5311.289063 5466.40625 L 5337.617188 5466.5625 L 5362.421875 5466.757813 " transform="matrix(0.1,0,0,-0.1,0,555)"/>
</g>
<path style="fill:none;stroke-width:13.875;stroke-linecap:butt;stroke-linejoin:round;stroke:rgb(0%,0%,0%);stroke-opacity:1;stroke-miterlimit:10;" d="M 256.679688 610.507813 L 5362.421875 610.507813 " transform="matrix(0.1,0,0,-0.1,0,555)"/>
<path style=" stroke:none;fill-rule:nonzero;fill:rgb(0%,0%,0%);fill-opacity:1;" d="M 411.21875 532.367188 L 410.527344 534.75 L 411.914063 534.75 L 411.761719 535.3125 L 410.394531 535.3125 L 408.878906 540.496094 C 408.71875 541.058594 408.640625 541.421875 408.640625 541.582031 C 408.640625 541.679688 408.660156 541.761719 408.703125 541.820313 C 408.746094 541.875 408.804688 541.90625 408.878906 541.90625 C 409.023438 541.90625 409.210938 541.796875 409.441406 541.582031 C 409.585938 541.464844 409.90625 541.101563 410.394531 540.496094 L 410.679688 540.734375 C 410.144531 541.515625 409.636719 542.066406 409.160156 542.382813 C 408.828125 542.613281 408.496094 542.730469 408.160156 542.730469 C 407.902344 542.730469 407.6875 542.644531 407.523438 542.480469 C 407.355469 542.3125 407.273438 542.105469 407.273438 541.863281 C 407.273438 541.542969 407.367188 541.058594 407.554688 540.410156 L 409.027344 535.3125 L 407.707031 535.3125 L 407.796875 534.96875 C 408.429688 534.792969 408.964844 534.53125 409.398438 534.175781 C 409.832031 533.824219 410.308594 533.21875 410.828125 532.367188 L 411.21875 532.367188 "/>
<path style="fill:none;stroke-width:13.875;stroke-linecap:square;stroke-linejoin:miter;stroke:rgb(0%,0%,0%);stroke-opacity:1;stroke-miterlimit:10;" d="M 256.679688 610.507813 L 256.679688 555 " transform="matrix(0.1,0,0,-0.1,0,555)"/>
<g clip-path="url(#clip2)" clip-rule="nonzero">
<path style=" stroke:none;fill-rule:nonzero;fill:rgb(0%,0%,0%);fill-opacity:1;" d="M 25.601563 515.996094 L 11.859375 515.996094 L 11.859375 514.914063 L 25.601563 514.914063 L 25.601563 515.996094 "/>
</g>
<path style=" stroke:none;fill-rule:nonzero;fill:rgb(0%,0%,0%);fill-opacity:1;" d="M 24.648438 509.277344 L 27.988281 507.628906 L 28.335938 507.628906 L 28.335938 519.273438 C 28.335938 520.039063 28.367188 520.519531 28.433594 520.714844 C 28.496094 520.90625 28.632813 521.054688 28.835938 521.15625 C 29.035156 521.257813 29.449219 521.316406 30.070313 521.332031 L 30.070313 521.699219 L 24.886719 521.699219 L 24.886719 521.332031 C 25.539063 521.316406 25.957031 521.257813 26.144531 521.15625 C 26.332031 521.054688 26.464844 520.921875 26.535156 520.757813 C 26.609375 520.589844 26.644531 520.09375 26.644531 519.273438 L 26.644531 511.835938 C 26.644531 510.824219 26.613281 510.179688 26.558594 509.90625 C 26.5 509.6875 26.410156 509.53125 26.285156 509.429688 C 26.164063 509.328125 26.015625 509.277344 25.84375 509.277344 C 25.582031 509.277344 25.234375 509.378906 24.800781 509.582031 Z M 33.363281 514.890625 C 33.363281 513.316406 33.601563 511.960938 34.070313 510.828125 C 34.539063 509.691406 35.171875 508.851563 35.964844 508.300781 C 36.574219 507.851563 37.203125 507.628906 37.851563 507.628906 C 38.90625 507.628906 39.855469 508.171875 40.691406 509.253906 C 41.746094 510.585938 42.277344 512.390625 42.277344 514.675781 C 42.277344 516.277344 42.042969 517.636719 41.582031 518.75 C 41.117188 519.863281 40.53125 520.671875 39.816406 521.179688 C 39.097656 521.683594 38.410156 521.9375 37.742188 521.9375 C 36.429688 521.9375 35.339844 521.164063 34.46875 519.617188 C 33.734375 518.304688 33.363281 516.726563 33.363281 514.890625 Z M 35.359375 515.152344 C 35.359375 517.042969 35.589844 518.59375 36.054688 519.792969 C 36.445313 520.804688 37.023438 521.308594 37.789063 521.308594 C 38.148438 521.308594 38.523438 521.144531 38.914063 520.808594 C 39.304688 520.476563 39.601563 519.929688 39.804688 519.160156 C 40.121094 517.992188 40.28125 516.34375 40.28125 514.21875 C 40.28125 512.660156 40.113281 511.351563 39.78125 510.296875 C 39.550781 509.515625 39.238281 508.964844 38.851563 508.648438 C 38.574219 508.417969 38.234375 508.300781 37.832031 508.300781 C 37.382813 508.300781 36.976563 508.511719 36.617188 508.929688 C 36.125 509.492188 35.792969 510.378906 35.621094 511.585938 C 35.445313 512.792969 35.359375 513.980469 35.359375 515.152344 "/>
<path style="fill:none;stroke-width:13.875;stroke-linecap:square;stroke-linejoin:miter;stroke:rgb(0%,0%,0%);stroke-opacity:1;stroke-miterlimit:10;" d="M 1533.125 610.507813 L 1533.125 555 " transform="matrix(0.1,0,0,-0.1,0,555)"/>
<g clip-path="url(#clip3)" clip-rule="nonzero">
<path style=" stroke:none;fill-rule:nonzero;fill:rgb(0%,0%,0%);fill-opacity:1;" d="M 158.804688 515.996094 L 145.058594 515.996094 L 145.058594 514.914063 L 158.804688 514.914063 L 158.804688 515.996094 "/>
</g>
<path style=" stroke:none;fill-rule:nonzero;fill:rgb(0%,0%,0%);fill-opacity:1;" d="M 164.4375 507.910156 L 163.636719 509.644531 L 159.496094 509.644531 L 158.585938 511.488281 C 160.378906 511.761719 161.800781 512.433594 162.859375 513.503906 C 163.753906 514.414063 164.199219 515.5 164.199219 516.757813 C 164.199219 517.480469 164.058594 518.148438 163.769531 518.761719 C 163.476563 519.375 163.109375 519.902344 162.660156 520.332031 C 162.214844 520.769531 161.714844 521.113281 161.164063 521.375 C 160.386719 521.75 159.582031 521.9375 158.757813 521.9375 C 157.9375 521.9375 157.335938 521.796875 156.960938 521.515625 C 156.585938 521.234375 156.394531 520.925781 156.394531 520.59375 C 156.394531 520.40625 156.476563 520.238281 156.636719 520.09375 C 156.796875 519.949219 156.988281 519.878906 157.21875 519.878906 C 157.394531 519.878906 157.546875 519.902344 157.675781 519.953125 C 157.804688 520.003906 158.027344 520.144531 158.347656 520.375 C 158.867188 520.722656 159.390625 520.898438 159.910156 520.898438 C 160.703125 520.898438 161.398438 520.597656 161.992188 519.996094 C 162.582031 519.398438 162.878906 518.664063 162.878906 517.796875 C 162.878906 516.972656 162.609375 516.199219 162.078125 515.476563 C 161.542969 514.753906 160.804688 514.199219 159.863281 513.808594 C 159.128906 513.503906 158.125 513.324219 156.851563 513.265625 L 159.496094 507.910156 L 164.4375 507.910156 "/>
<path style="fill:none;stroke-width:13.875;stroke-linecap:square;stroke-linejoin:miter;stroke:rgb(0%,0%,0%);stroke-opacity:1;stroke-miterlimit:10;" d="M 2809.570313 610.507813 L 2809.570313 555 " transform="matrix(0.1,0,0,-0.1,0,555)"/>
<path style=" stroke:none;fill-rule:nonzero;fill:rgb(0%,0%,0%);fill-opacity:1;" d="M 276.871094 514.890625 C 276.871094 513.316406 277.105469 511.960938 277.574219 510.828125 C 278.046875 509.691406 278.679688 508.851563 279.472656 508.300781 C 280.078125 507.851563 280.707031 507.628906 281.359375 507.628906 C 282.414063 507.628906 283.359375 508.171875 284.199219 509.253906 C 285.253906 510.585938 285.78125 512.390625 285.78125 514.675781 C 285.78125 516.277344 285.550781 517.636719 285.085938 518.75 C 284.625 519.863281 284.035156 520.671875 283.320313 521.179688 C 282.605469 521.683594 281.914063 521.9375 281.25 521.9375 C 279.933594 521.9375 278.84375 521.164063 277.976563 519.617188 C 277.238281 518.304688 276.871094 516.726563 276.871094 514.890625 Z M 278.863281 515.152344 C 278.863281 517.042969 279.097656 518.59375 279.558594 519.792969 C 279.949219 520.804688 280.527344 521.308594 281.292969 521.308594 C 281.652344 521.308594 282.03125 521.144531 282.421875 520.808594 C 282.8125 520.476563 283.105469 519.929688 283.308594 519.160156 C 283.628906 517.992188 283.785156 516.34375 283.785156 514.21875 C 283.785156 512.660156 283.621094 511.351563 283.285156 510.296875 C 283.058594 509.515625 282.746094 508.964844 282.355469 508.648438 C 282.082031 508.417969 281.742188 508.300781 281.335938 508.300781 C 280.886719 508.300781 280.484375 508.511719 280.121094 508.929688 C 279.632813 509.492188 279.296875 510.378906 279.125 511.585938 C 278.949219 512.792969 278.863281 513.980469 278.863281 515.152344 "/>
<path style="fill:none;stroke-width:13.875;stroke-linecap:square;stroke-linejoin:miter;stroke:rgb(0%,0%,0%);stroke-opacity:1;stroke-miterlimit:10;" d="M 4086.015625 610.507813 L 4086.015625 555 " transform="matrix(0.1,0,0,-0.1,0,555)"/>
<path style=" stroke:none;fill-rule:nonzero;fill:rgb(0%,0%,0%);fill-opacity:1;" d="M 412.800781 507.910156 L 412 509.644531 L 407.859375 509.644531 L 406.949219 511.488281 C 408.742188 511.761719 410.164063 512.433594 411.21875 513.503906 C 412.113281 514.414063 412.5625 515.5 412.5625 516.757813 C 412.5625 517.480469 412.417969 518.148438 412.128906 518.761719 C 411.839844 519.375 411.472656 519.902344 411.023438 520.332031 C 410.578125 520.769531 410.078125 521.113281 409.527344 521.375 C 408.746094 521.75 407.945313 521.9375 407.121094 521.9375 C 406.300781 521.9375 405.699219 521.796875 405.324219 521.515625 C 404.945313 521.234375 404.757813 520.925781 404.757813 520.59375 C 404.757813 520.40625 404.839844 520.238281 404.996094 520.09375 C 405.15625 519.949219 405.351563 519.878906 405.582031 519.878906 C 405.757813 519.878906 405.90625 519.902344 406.039063 519.953125 C 406.167969 520.003906 406.390625 520.144531 406.710938 520.375 C 407.230469 520.722656 407.753906 520.898438 408.273438 520.898438 C 409.066406 520.898438 409.757813 520.597656 410.351563 519.996094 C 410.945313 519.398438 411.242188 518.664063 411.242188 517.796875 C 411.242188 516.972656 410.972656 516.199219 410.4375 515.476563 C 409.90625 514.753906 409.167969 514.199219 408.226563 513.808594 C 407.492188 513.503906 406.484375 513.324219 405.214844 513.265625 L 407.859375 507.910156 L 412.800781 507.910156 "/>
<path style="fill:none;stroke-width:13.875;stroke-linecap:square;stroke-linejoin:miter;stroke:rgb(0%,0%,0%);stroke-opacity:1;stroke-miterlimit:10;" d="M 5362.421875 610.507813 L 5362.421875 555 " transform="matrix(0.1,0,0,-0.1,0,555)"/>
<path style=" stroke:none;fill-rule:nonzero;fill:rgb(0%,0%,0%);fill-opacity:1;" d="M 528.3125 509.277344 L 531.648438 507.628906 L 531.996094 507.628906 L 531.996094 519.273438 C 531.996094 520.039063 532.03125 520.519531 532.09375 520.714844 C 532.160156 520.90625 532.292969 521.054688 532.496094 521.15625 C 532.699219 521.257813 533.109375 521.316406 533.730469 521.332031 L 533.730469 521.699219 L 528.550781 521.699219 L 528.550781 521.332031 C 529.199219 521.316406 529.621094 521.257813 529.808594 521.15625 C 529.996094 521.054688 530.125 520.921875 530.199219 520.757813 C 530.269531 520.589844 530.308594 520.09375 530.308594 519.273438 L 530.308594 511.835938 C 530.308594 510.824219 530.277344 510.179688 530.21875 509.90625 C 530.164063 509.6875 530.070313 509.53125 529.949219 509.429688 C 529.824219 509.328125 529.679688 509.277344 529.503906 509.277344 C 529.242188 509.277344 528.898438 509.378906 528.464844 509.582031 Z M 537.027344 514.890625 C 537.027344 513.316406 537.261719 511.960938 537.730469 510.828125 C 538.203125 509.691406 538.835938 508.851563 539.628906 508.300781 C 540.234375 507.851563 540.863281 507.628906 541.515625 507.628906 C 542.570313 507.628906 543.515625 508.171875 544.355469 509.253906 C 545.410156 510.585938 545.9375 512.390625 545.9375 514.675781 C 545.9375 516.277344 545.707031 517.636719 545.242188 518.75 C 544.78125 519.863281 544.191406 520.671875 543.476563 521.179688 C 542.761719 521.683594 542.070313 521.9375 541.40625 521.9375 C 540.089844 521.9375 539 521.164063 538.132813 519.617188 C 537.394531 518.304688 537.027344 516.726563 537.027344 514.890625 Z M 539.019531 515.152344 C 539.019531 517.042969 539.253906 518.59375 539.714844 519.792969 C 540.105469 520.804688 540.683594 521.308594 541.449219 521.308594 C 541.8125 521.308594 542.1875 521.144531 542.574219 520.808594 C 542.96875 520.476563 543.261719 519.929688 543.464844 519.160156 C 543.785156 517.992188 543.941406 516.34375 543.941406 514.21875 C 543.941406 512.660156 543.777344 511.351563 543.441406 510.296875 C 543.214844 509.515625 542.902344 508.964844 542.511719 508.648438 C 542.238281 508.417969 541.898438 508.300781 541.492188 508.300781 C 541.046875 508.300781 540.640625 508.511719 540.277344 508.929688 C 539.789063 509.492188 539.453125 510.378906 539.28125 511.585938 C 539.105469 512.792969 539.019531 513.980469 539.019531 515.152344 "/>
<path style="fill:none;stroke-width:13.875;stroke-linecap:square;stroke-linejoin:miter;stroke:rgb(0%,0%,0%);stroke-opacity:1;stroke-miterlimit:10;" d="M 511.992188 610.507813 L 511.992188 582.734375 " transform="matrix(0.1,0,0,-0.1,0,555)"/>
<path style="fill:none;stroke-width:13.875;stroke-linecap:square;stroke-linejoin:miter;stroke:rgb(0%,0%,0%);stroke-opacity:1;stroke-miterlimit:10;" d="M 767.265625 610.507813 L 767.265625 582.734375 " transform="matrix(0.1,0,0,-0.1,0,555)"/>
<path style="fill:none;stroke-width:13.875;stroke-linecap:square;stroke-linejoin:miter;stroke:rgb(0%,0%,0%);stroke-opacity:1;stroke-miterlimit:10;" d="M 1022.539063 610.507813 L 1022.539063 582.734375 " transform="matrix(0.1,0,0,-0.1,0,555)"/>
<path style="fill:none;stroke-width:13.875;stroke-linecap:square;stroke-linejoin:miter;stroke:rgb(0%,0%,0%);stroke-opacity:1;stroke-miterlimit:10;" d="M 1277.851563 610.507813 L 1277.851563 582.734375 " transform="matrix(0.1,0,0,-0.1,0,555)"/>
<path style="fill:none;stroke-width:13.875;stroke-linecap:square;stroke-linejoin:miter;stroke:rgb(0%,0%,0%);stroke-opacity:1;stroke-miterlimit:10;" d="M 1788.398438 610.507813 L 1788.398438 582.734375 " transform="matrix(0.1,0,0,-0.1,0,555)"/>
<path style="fill:none;stroke-width:13.875;stroke-linecap:square;stroke-linejoin:miter;stroke:rgb(0%,0%,0%);stroke-opacity:1;stroke-miterlimit:10;" d="M 2043.671875 610.507813 L 2043.671875 582.734375 " transform="matrix(0.1,0,0,-0.1,0,555)"/>
<path style="fill:none;stroke-width:13.875;stroke-linecap:square;stroke-linejoin:miter;stroke:rgb(0%,0%,0%);stroke-opacity:1;stroke-miterlimit:10;" d="M 2298.984375 610.507813 L 2298.984375 582.734375 " transform="matrix(0.1,0,0,-0.1,0,555)"/>
<path style="fill:none;stroke-width:13.875;stroke-linecap:square;stroke-linejoin:miter;stroke:rgb(0%,0%,0%);stroke-opacity:1;stroke-miterlimit:10;" d="M 2554.296875 610.507813 L 2554.296875 582.734375 " transform="matrix(0.1,0,0,-0.1,0,555)"/>
<path style="fill:none;stroke-width:13.875;stroke-linecap:square;stroke-linejoin:miter;stroke:rgb(0%,0%,0%);stroke-opacity:1;stroke-miterlimit:10;" d="M 3064.84375 610.507813 L 3064.84375 582.734375 " transform="matrix(0.1,0,0,-0.1,0,555)"/>
<path style="fill:none;stroke-width:13.875;stroke-linecap:square;stroke-linejoin:miter;stroke:rgb(0%,0%,0%);stroke-opacity:1;stroke-miterlimit:10;" d="M 3320.15625 610.507813 L 3320.15625 582.734375 " transform="matrix(0.1,0,0,-0.1,0,555)"/>
<path style="fill:none;stroke-width:13.875;stroke-linecap:square;stroke-linejoin:miter;stroke:rgb(0%,0%,0%);stroke-opacity:1;stroke-miterlimit:10;" d="M 3575.429688 610.507813 L 3575.429688 582.734375 " transform="matrix(0.1,0,0,-0.1,0,555)"/>
<path style="fill:none;stroke-width:13.875;stroke-linecap:square;stroke-linejoin:miter;stroke:rgb(0%,0%,0%);stroke-opacity:1;stroke-miterlimit:10;" d="M 3830.703125 610.507813 L 3830.703125 582.734375 " transform="matrix(0.1,0,0,-0.1,0,555)"/>
<path style="fill:none;stroke-width:13.875;stroke-linecap:square;stroke-linejoin:miter;stroke:rgb(0%,0%,0%);stroke-opacity:1;stroke-miterlimit:10;" d="M 4341.289063 610.507813 L 4341.289063 582.734375 " transform="matrix(0.1,0,0,-0.1,0,555)"/>
<path style="fill:none;stroke-width:13.875;stroke-linecap:square;stroke-linejoin:miter;stroke:rgb(0%,0%,0%);stroke-opacity:1;stroke-miterlimit:10;" d="M 4596.5625 610.507813 L 4596.5625 582.734375 " transform="matrix(0.1,0,0,-0.1,0,555)"/>
<path style="fill:none;stroke-width:13.875;stroke-linecap:square;stroke-linejoin:miter;stroke:rgb(0%,0%,0%);stroke-opacity:1;stroke-miterlimit:10;" d="M 4851.875 610.507813 L 4851.875 582.734375 " transform="matrix(0.1,0,0,-0.1,0,555)"/>
<path style="fill:none;stroke-width:13.875;stroke-linecap:square;stroke-linejoin:miter;stroke:rgb(0%,0%,0%);stroke-opacity:1;stroke-miterlimit:10;" d="M 5107.148438 610.507813 L 5107.148438 582.734375 " transform="matrix(0.1,0,0,-0.1,0,555)"/>
<path style="fill:none;stroke-width:13.875;stroke-linecap:butt;stroke-linejoin:round;stroke:rgb(0%,0%,0%);stroke-opacity:1;stroke-miterlimit:10;" d="M 2809.570313 610.546875 L 2809.570313 5466.757813 " transform="matrix(0.1,0,0,-0.1,0,555)"/>
<path style="fill:none;stroke-width:13.875;stroke-linecap:square;stroke-linejoin:miter;stroke:rgb(0%,0%,0%);stroke-opacity:1;stroke-miterlimit:10;" d="M 2809.570313 610.507813 L 2754.0625 610.507813 " transform="matrix(0.1,0,0,-0.1,0,555)"/>
<path style="fill:none;stroke-width:13.875;stroke-linecap:square;stroke-linejoin:miter;stroke:rgb(0%,0%,0%);stroke-opacity:1;stroke-miterlimit:10;" d="M 2809.570313 1096.289063 L 2754.0625 1096.289063 " transform="matrix(0.1,0,0,-0.1,0,555)"/>
<path style=" stroke:none;fill-rule:nonzero;fill:rgb(0%,0%,0%);fill-opacity:1;" d="M 249.578125 449.679688 L 248.621094 452.324219 L 240.492188 452.324219 L 240.492188 451.957031 C 242.875 449.773438 244.558594 447.988281 245.53125 446.601563 C 246.507813 445.214844 246.996094 443.949219 246.996094 442.808594 C 246.996094 441.9375 246.726563 441.226563 246.195313 440.660156 C 245.660156 440.097656 245.015625 439.816406 244.265625 439.816406 C 243.597656 439.816406 242.996094 440.015625 242.453125 440.410156 C 241.910156 440.808594 241.511719 441.390625 241.253906 442.15625 L 240.882813 442.15625 C 241.054688 440.898438 241.492188 439.933594 242.195313 439.261719 C 242.894531 438.589844 243.765625 438.253906 244.804688 438.253906 C 245.933594 438.253906 246.871094 438.613281 247.613281 439.339844 C 248.359375 440.0625 248.730469 440.90625 248.730469 441.875 C 248.730469 442.566406 248.570313 443.269531 248.253906 443.976563 C 247.746094 445.078125 246.929688 446.230469 245.804688 447.445313 C 244.128906 449.296875 243.070313 450.410156 242.640625 450.785156 L 246.238281 450.785156 C 246.976563 450.785156 247.492188 450.761719 247.785156 450.710938 C 248.085938 450.660156 248.351563 450.550781 248.589844 450.382813 C 248.828125 450.21875 249.035156 449.984375 249.207031 449.679688 Z M 251.199219 445.515625 C 251.199219 443.941406 251.4375 442.585938 251.90625 441.453125 C 252.378906 440.316406 253.007813 439.476563 253.804688 438.925781 C 254.410156 438.476563 255.039063 438.253906 255.691406 438.253906 C 256.746094 438.253906 257.691406 438.796875 258.53125 439.878906 C 259.585938 441.210938 260.113281 443.015625 260.113281 445.300781 C 260.113281 446.902344 259.882813 448.261719 259.417969 449.378906 C 258.957031 450.488281 258.367188 451.296875 257.652344 451.804688 C 256.9375 452.308594 256.246094 452.5625 255.582031 452.5625 C 254.265625 452.5625 253.175781 451.789063 252.308594 450.242188 C 251.570313 448.929688 251.199219 447.351563 251.199219 445.515625 Z M 253.195313 445.777344 C 253.195313 447.671875 253.429688 449.21875 253.890625 450.417969 C 254.28125 451.429688 254.859375 451.933594 255.625 451.933594 C 255.984375 451.933594 256.359375 451.769531 256.75 451.4375 C 257.144531 451.101563 257.4375 450.554688 257.640625 449.785156 C 257.960938 448.617188 258.117188 446.96875 258.117188 444.84375 C 258.117188 443.285156 257.953125 441.976563 257.617188 440.921875 C 257.386719 440.140625 257.078125 439.589844 256.6875 439.273438 C 256.414063 439.042969 256.074219 438.925781 255.667969 438.925781 C 255.21875 438.925781 254.816406 439.136719 254.453125 439.554688 C 253.964844 440.117188 253.628906 441.003906 253.457031 442.210938 C 253.28125 443.417969 253.195313 444.605469 253.195313 445.777344 Z M 261.605469 445.515625 C 261.605469 443.941406 261.84375 442.585938 262.3125 441.453125 C 262.78125 440.316406 263.414063 439.476563 264.210938 438.925781 C 264.816406 438.476563 265.445313 438.253906 266.097656 438.253906 C 267.152344 438.253906 268.097656 438.796875 268.9375 439.878906 C 269.992188 441.210938 270.519531 443.015625 270.519531 445.300781 C 270.519531 446.902344 270.289063 448.261719 269.824219 449.378906 C 269.363281 450.488281 268.773438 451.296875 268.058594 451.804688 C 267.34375 452.308594 266.652344 452.5625 265.988281 452.5625 C 264.671875 452.5625 263.578125 451.789063 262.714844 450.242188 C 261.976563 448.929688 261.605469 447.351563 261.605469 445.515625 Z M 263.601563 445.777344 C 263.601563 447.671875 263.835938 449.21875 264.296875 450.417969 C 264.6875 451.429688 265.265625 451.933594 266.03125 451.933594 C 266.390625 451.933594 266.769531 451.769531 267.15625 451.4375 C 267.550781 451.101563 267.84375 450.554688 268.046875 449.785156 C 268.363281 448.617188 268.523438 446.96875 268.523438 444.84375 C 268.523438 443.285156 268.359375 441.976563 268.023438 440.921875 C 267.796875 440.140625 267.484375 439.589844 267.09375 439.273438 C 266.820313 439.042969 266.480469 438.925781 266.074219 438.925781 C 265.625 438.925781 265.222656 439.136719 264.859375 439.554688 C 264.367188 440.117188 264.035156 441.003906 263.863281 442.210938 C 263.6875 443.417969 263.601563 444.605469 263.601563 445.777344 "/>
<path style="fill:none;stroke-width:13.875;stroke-linecap:square;stroke-linejoin:miter;stroke:rgb(0%,0%,0%);stroke-opacity:1;stroke-miterlimit:10;" d="M 2809.570313 1582.070313 L 2754.0625 1582.070313 " transform="matrix(0.1,0,0,-0.1,0,555)"/>
<path style=" stroke:none;fill-rule:nonzero;fill:rgb(0%,0%,0%);fill-opacity:1;" d="M 249.726563 398.6875 L 249.726563 400.121094 L 247.863281 400.121094 L 247.863281 403.761719 L 246.195313 403.761719 L 246.195313 400.121094 L 240.363281 400.121094 L 240.363281 398.820313 L 246.757813 389.691406 L 247.863281 389.691406 L 247.863281 398.6875 Z M 246.195313 398.6875 L 246.195313 391.839844 L 241.359375 398.6875 Z M 251.199219 396.953125 C 251.199219 395.378906 251.4375 394.023438 251.90625 392.890625 C 252.378906 391.753906 253.007813 390.914063 253.804688 390.363281 C 254.410156 389.914063 255.039063 389.691406 255.691406 389.691406 C 256.746094 389.691406 257.691406 390.234375 258.53125 391.316406 C 259.585938 392.648438 260.113281 394.453125 260.113281 396.738281 C 260.113281 398.339844 259.882813 399.699219 259.417969 400.8125 C 258.957031 401.925781 258.367188 402.734375 257.652344 403.242188 C 256.9375 403.746094 256.246094 404 255.582031 404 C 254.265625 404 253.175781 403.226563 252.308594 401.679688 C 251.570313 400.367188 251.199219 398.789063 251.199219 396.953125 Z M 253.195313 397.214844 C 253.195313 399.105469 253.429688 400.65625 253.890625 401.855469 C 254.28125 402.867188 254.859375 403.371094 255.625 403.371094 C 255.984375 403.371094 256.359375 403.207031 256.75 402.871094 C 257.144531 402.539063 257.4375 401.992188 257.640625 401.226563 C 257.960938 400.054688 258.117188 398.40625 258.117188 396.28125 C 258.117188 394.722656 257.953125 393.414063 257.617188 392.359375 C 257.386719 391.578125 257.078125 391.027344 256.6875 390.710938 C 256.414063 390.480469 256.074219 390.363281 255.667969 390.363281 C 255.21875 390.363281 254.816406 390.574219 254.453125 390.992188 C 253.964844 391.558594 253.628906 392.441406 253.457031 393.648438 C 253.28125 394.855469 253.195313 396.042969 253.195313 397.214844 Z M 261.605469 396.953125 C 261.605469 395.378906 261.84375 394.023438 262.3125 392.890625 C 262.78125 391.753906 263.414063 390.914063 264.210938 390.363281 C 264.816406 389.914063 265.445313 389.691406 266.097656 389.691406 C 267.152344 389.691406 268.097656 390.234375 268.9375 391.316406 C 269.992188 392.648438 270.519531 394.453125 270.519531 396.738281 C 270.519531 398.339844 270.289063 399.699219 269.824219 400.8125 C 269.363281 401.925781 268.773438 402.734375 268.058594 403.242188 C 267.34375 403.746094 266.652344 404 265.988281 404 C 264.671875 404 263.578125 403.226563 262.714844 401.679688 C 261.976563 400.367188 261.605469 398.789063 261.605469 396.953125 Z M 263.601563 397.214844 C 263.601563 399.105469 263.835938 400.65625 264.296875 401.855469 C 264.6875 402.867188 265.265625 403.371094 266.03125 403.371094 C 266.390625 403.371094 266.769531 403.207031 267.15625 402.871094 C 267.550781 402.539063 267.84375 401.992188 268.046875 401.226563 C 268.363281 400.054688 268.523438 398.40625 268.523438 396.28125 C 268.523438 394.722656 268.359375 393.414063 268.023438 392.359375 C 267.796875 391.578125 267.484375 391.027344 267.09375 390.710938 C 266.820313 390.480469 266.480469 390.363281 266.074219 390.363281 C 265.625 390.363281 265.222656 390.574219 264.859375 390.992188 C 264.367188 391.558594 264.035156 392.441406 263.863281 393.648438 C 263.6875 394.855469 263.601563 396.042969 263.601563 397.214844 "/>
<path style="fill:none;stroke-width:13.875;stroke-linecap:square;stroke-linejoin:miter;stroke:rgb(0%,0%,0%);stroke-opacity:1;stroke-miterlimit:10;" d="M 2809.570313 2067.890625 L 2754.0625 2067.890625 " transform="matrix(0.1,0,0,-0.1,0,555)"/>
<path style=" stroke:none;fill-rule:nonzero;fill:rgb(0%,0%,0%);fill-opacity:1;" d="M 249.359375 341.128906 L 249.359375 341.519531 C 248.464844 341.605469 247.730469 341.78125 247.167969 342.050781 C 246.605469 342.316406 246.050781 342.726563 245.5 343.277344 C 244.949219 343.824219 244.496094 344.4375 244.136719 345.105469 C 243.773438 345.777344 243.46875 346.578125 243.222656 347.503906 C 244.191406 346.839844 245.167969 346.507813 246.152344 346.507813 C 247.089844 346.507813 247.90625 346.886719 248.601563 347.644531 C 249.292969 348.402344 249.640625 349.375 249.640625 350.558594 C 249.640625 351.714844 249.292969 352.773438 248.601563 353.726563 C 247.761719 354.867188 246.648438 355.4375 245.261719 355.4375 C 244.320313 355.4375 243.519531 355.128906 242.855469 354.507813 C 241.570313 353.292969 240.925781 351.722656 240.925781 349.800781 C 240.925781 348.558594 241.175781 347.382813 241.671875 346.277344 C 242.171875 345.171875 242.878906 344.1875 243.796875 343.320313 C 244.714844 342.453125 245.59375 341.871094 246.433594 341.574219 C 247.269531 341.277344 248.050781 341.128906 248.773438 341.128906 Z M 243.050781 348.238281 C 242.921875 349.164063 242.855469 349.910156 242.855469 350.472656 C 242.855469 351.121094 242.976563 351.828125 243.222656 352.585938 C 243.46875 353.347656 243.824219 353.949219 244.285156 354.394531 C 244.632813 354.714844 245.058594 354.875 245.566406 354.875 C 246.144531 354.875 246.667969 354.597656 247.136719 354.039063 C 247.605469 353.484375 247.84375 352.691406 247.84375 351.664063 C 247.84375 350.507813 247.609375 349.507813 247.148438 348.664063 C 246.683594 347.816406 246.027344 347.394531 245.175781 347.394531 C 244.914063 347.394531 244.640625 347.449219 244.351563 347.558594 C 244.0625 347.664063 243.628906 347.894531 243.050781 348.238281 Z M 251.199219 348.390625 C 251.199219 346.816406 251.4375 345.460938 251.90625 344.328125 C 252.378906 343.191406 253.007813 342.351563 253.804688 341.800781 C 254.410156 341.351563 255.039063 341.128906 255.691406 341.128906 C 256.746094 341.128906 257.691406 341.671875 258.53125 342.753906 C 259.585938 344.085938 260.113281 345.890625 260.113281 348.175781 C 260.113281 349.777344 259.882813 351.136719 259.417969 352.253906 C 258.957031 353.363281 258.367188 354.171875 257.652344 354.679688 C 256.9375 355.183594 256.246094 355.4375 255.582031 355.4375 C 254.265625 355.4375 253.175781 354.664063 252.308594 353.117188 C 251.570313 351.804688 251.199219 350.226563 251.199219 348.390625 Z M 253.195313 348.652344 C 253.195313 350.546875 253.429688 352.09375 253.890625 353.292969 C 254.28125 354.304688 254.859375 354.808594 255.625 354.808594 C 255.984375 354.808594 256.359375 354.644531 256.75 354.3125 C 257.144531 353.976563 257.4375 353.429688 257.640625 352.660156 C 257.960938 351.492188 258.117188 349.84375 258.117188 347.71875 C 258.117188 346.160156 257.953125 344.851563 257.617188 343.796875 C 257.386719 343.015625 257.078125 342.464844 256.6875 342.148438 C 256.414063 341.917969 256.074219 341.800781 255.667969 341.800781 C 255.21875 341.800781 254.816406 342.011719 254.453125 342.429688 C 253.964844 342.992188 253.628906 343.878906 253.457031 345.085938 C 253.28125 346.292969 253.195313 347.480469 253.195313 348.652344 Z M 261.605469 348.390625 C 261.605469 346.816406 261.84375 345.460938 262.3125 344.328125 C 262.78125 343.191406 263.414063 342.351563 264.210938 341.800781 C 264.816406 341.351563 265.445313 341.128906 266.097656 341.128906 C 267.152344 341.128906 268.097656 341.671875 268.9375 342.753906 C 269.992188 344.085938 270.519531 345.890625 270.519531 348.175781 C 270.519531 349.777344 270.289063 351.136719 269.824219 352.253906 C 269.363281 353.363281 268.773438 354.171875 268.058594 354.679688 C 267.34375 355.183594 266.652344 355.4375 265.988281 355.4375 C 264.671875 355.4375 263.578125 354.664063 262.714844 353.117188 C 261.976563 351.804688 261.605469 350.226563 261.605469 348.390625 Z M 263.601563 348.652344 C 263.601563 350.546875 263.835938 352.09375 264.296875 353.292969 C 264.6875 354.304688 265.265625 354.808594 266.03125 354.808594 C 266.390625 354.808594 266.769531 354.644531 267.15625 354.3125 C 267.550781 353.976563 267.84375 353.429688 268.046875 352.660156 C 268.363281 351.492188 268.523438 349.84375 268.523438 347.71875 C 268.523438 346.160156 268.359375 344.851563 268.023438 343.796875 C 267.796875 343.015625 267.484375 342.464844 267.09375 342.148438 C 266.820313 341.917969 266.480469 341.800781 266.074219 341.800781 C 265.625 341.800781 265.222656 342.011719 264.859375 342.429688 C 264.367188 342.992188 264.035156 343.878906 263.863281 345.085938 C 263.6875 346.292969 263.601563 347.480469 263.601563 348.652344 "/>
<path style="fill:none;stroke-width:13.875;stroke-linecap:square;stroke-linejoin:miter;stroke:rgb(0%,0%,0%);stroke-opacity:1;stroke-miterlimit:10;" d="M 2809.570313 2553.632813 L 2754.0625 2553.632813 " transform="matrix(0.1,0,0,-0.1,0,555)"/>
<path style=" stroke:none;fill-rule:nonzero;fill:rgb(0%,0%,0%);fill-opacity:1;" d="M 244.027344 299.699219 C 242.941406 298.804688 242.242188 298.085938 241.921875 297.542969 C 241.605469 297 241.445313 296.441406 241.445313 295.863281 C 241.445313 294.964844 241.792969 294.191406 242.484375 293.542969 C 243.179688 292.890625 244.097656 292.566406 245.242188 292.566406 C 246.355469 292.566406 247.246094 292.871094 247.929688 293.476563 C 248.609375 294.085938 248.945313 294.769531 248.945313 295.535156 C 248.945313 296.058594 248.765625 296.585938 248.394531 297.117188 C 248.023438 297.65625 247.265625 298.28125 246.109375 299.007813 C 247.292969 299.929688 248.078125 300.652344 248.472656 301.171875 C 248.992188 301.867188 249.25 302.597656 249.25 303.363281 C 249.25 304.332031 248.882813 305.160156 248.144531 305.84375 C 247.40625 306.53125 246.4375 306.875 245.242188 306.875 C 243.925781 306.875 242.898438 306.472656 242.160156 305.660156 C 241.582031 304.996094 241.296875 304.273438 241.296875 303.492188 C 241.296875 302.886719 241.5 302.285156 241.910156 301.683594 C 242.324219 301.082031 243.027344 300.421875 244.027344 299.699219 Z M 245.628906 298.613281 C 246.4375 297.878906 246.953125 297.296875 247.167969 296.871094 C 247.386719 296.441406 247.496094 295.964844 247.496094 295.429688 C 247.496094 294.71875 247.296875 294.164063 246.898438 293.757813 C 246.5 293.355469 245.953125 293.152344 245.261719 293.152344 C 244.566406 293.152344 244.003906 293.355469 243.570313 293.757813 C 243.136719 294.164063 242.921875 294.632813 242.921875 295.167969 C 242.921875 295.515625 243.011719 295.867188 243.191406 296.21875 C 243.371094 296.574219 243.628906 296.910156 243.960938 297.226563 Z M 244.503906 300.089844 C 243.9375 300.550781 243.523438 301.066406 243.257813 301.628906 C 242.988281 302.191406 242.855469 302.800781 242.855469 303.449219 C 242.855469 304.316406 243.09375 305.015625 243.570313 305.539063 C 244.046875 306.070313 244.65625 306.335938 245.390625 306.335938 C 246.128906 306.335938 246.71875 306.128906 247.15625 305.714844 C 247.597656 305.304688 247.820313 304.800781 247.820313 304.210938 C 247.820313 303.71875 247.6875 303.277344 247.429688 302.886719 C 246.953125 302.179688 245.976563 301.246094 244.503906 300.089844 Z M 251.199219 299.828125 C 251.199219 298.253906 251.4375 296.898438 251.90625 295.765625 C 252.378906 294.628906 253.007813 293.789063 253.804688 293.238281 C 254.410156 292.789063 255.039063 292.566406 255.691406 292.566406 C 256.746094 292.566406 257.691406 293.109375 258.53125 294.191406 C 259.585938 295.523438 260.113281 297.328125 260.113281 299.613281 C 260.113281 301.214844 259.882813 302.574219 259.417969 303.6875 C 258.957031 304.800781 258.367188 305.609375 257.652344 306.117188 C 256.9375 306.621094 256.246094 306.875 255.582031 306.875 C 254.265625 306.875 253.175781 306.101563 252.308594 304.554688 C 251.570313 303.242188 251.199219 301.664063 251.199219 299.828125 Z M 253.195313 300.089844 C 253.195313 301.980469 253.429688 303.527344 253.890625 304.730469 C 254.28125 305.742188 254.859375 306.246094 255.625 306.246094 C 255.984375 306.246094 256.359375 306.082031 256.75 305.746094 C 257.144531 305.414063 257.4375 304.867188 257.640625 304.101563 C 257.960938 302.929688 258.117188 301.28125 258.117188 299.15625 C 258.117188 297.597656 257.953125 296.289063 257.617188 295.234375 C 257.386719 294.453125 257.078125 293.902344 256.6875 293.585938 C 256.414063 293.355469 256.074219 293.238281 255.667969 293.238281 C 255.21875 293.238281 254.816406 293.449219 254.453125 293.867188 C 253.964844 294.433594 253.628906 295.316406 253.457031 296.523438 C 253.28125 297.730469 253.195313 298.917969 253.195313 300.089844 Z M 261.605469 299.828125 C 261.605469 298.253906 261.84375 296.898438 262.3125 295.765625 C 262.78125 294.628906 263.414063 293.789063 264.210938 293.238281 C 264.816406 292.789063 265.445313 292.566406 266.097656 292.566406 C 267.152344 292.566406 268.097656 293.109375 268.9375 294.191406 C 269.992188 295.523438 270.519531 297.328125 270.519531 299.613281 C 270.519531 301.214844 270.289063 302.574219 269.824219 303.6875 C 269.363281 304.800781 268.773438 305.609375 268.058594 306.117188 C 267.34375 306.621094 266.652344 306.875 265.988281 306.875 C 264.671875 306.875 263.578125 306.101563 262.714844 304.554688 C 261.976563 303.242188 261.605469 301.664063 261.605469 299.828125 Z M 263.601563 300.089844 C 263.601563 301.980469 263.835938 303.527344 264.296875 304.730469 C 264.6875 305.742188 265.265625 306.246094 266.03125 306.246094 C 266.390625 306.246094 266.769531 306.082031 267.15625 305.746094 C 267.550781 305.414063 267.84375 304.867188 268.046875 304.101563 C 268.363281 302.929688 268.523438 301.28125 268.523438 299.15625 C 268.523438 297.597656 268.359375 296.289063 268.023438 295.234375 C 267.796875 294.453125 267.484375 293.902344 267.09375 293.585938 C 266.820313 293.355469 266.480469 293.238281 266.074219 293.238281 C 265.625 293.238281 265.222656 293.449219 264.859375 293.867188 C 264.367188 294.433594 264.035156 295.316406 263.863281 296.523438 C 263.6875 297.730469 263.601563 298.917969 263.601563 300.089844 "/>
<path style="fill:none;stroke-width:13.875;stroke-linecap:square;stroke-linejoin:miter;stroke:rgb(0%,0%,0%);stroke-opacity:1;stroke-miterlimit:10;" d="M 2809.570313 3039.453125 L 2754.0625 3039.453125 " transform="matrix(0.1,0,0,-0.1,0,555)"/>
<path style=" stroke:none;fill-rule:nonzero;fill:rgb(0%,0%,0%);fill-opacity:1;" d="M 231.386719 245.652344 L 234.726563 244.003906 L 235.070313 244.003906 L 235.070313 255.648438 C 235.070313 256.414063 235.105469 256.894531 235.171875 257.089844 C 235.234375 257.28125 235.367188 257.429688 235.570313 257.53125 C 235.773438 257.632813 236.1875 257.691406 236.804688 257.707031 L 236.804688 258.074219 L 231.625 258.074219 L 231.625 257.707031 C 232.277344 257.691406 232.695313 257.632813 232.882813 257.53125 C 233.070313 257.429688 233.199219 257.296875 233.273438 257.132813 C 233.347656 256.964844 233.382813 256.46875 233.382813 255.648438 L 233.382813 248.210938 C 233.382813 247.199219 233.351563 246.554688 233.292969 246.28125 C 233.238281 246.0625 233.144531 245.90625 233.023438 245.804688 C 232.898438 245.703125 232.753906 245.652344 232.578125 245.652344 C 232.320313 245.652344 231.972656 245.753906 231.539063 245.953125 Z M 240.101563 251.265625 C 240.101563 249.691406 240.335938 248.335938 240.804688 247.203125 C 241.277344 246.066406 241.910156 245.226563 242.703125 244.675781 C 243.3125 244.226563 243.9375 244.003906 244.589844 244.003906 C 245.644531 244.003906 246.59375 244.546875 247.429688 245.628906 C 248.484375 246.960938 249.011719 248.765625 249.011719 251.050781 C 249.011719 252.652344 248.78125 254.011719 248.316406 255.128906 C 247.855469 256.238281 247.265625 257.046875 246.550781 257.554688 C 245.835938 258.058594 245.144531 258.3125 244.480469 258.3125 C 243.164063 258.3125 242.074219 257.539063 241.207031 255.992188 C 240.46875 254.679688 240.101563 253.101563 240.101563 251.265625 Z M 242.097656 251.527344 C 242.097656 253.421875 242.328125 254.96875 242.789063 256.167969 C 243.179688 257.179688 243.757813 257.683594 244.523438 257.683594 C 244.886719 257.683594 245.261719 257.519531 245.652344 257.1875 C 246.042969 256.851563 246.339844 256.304688 246.539063 255.535156 C 246.859375 254.367188 247.019531 252.71875 247.019531 250.59375 C 247.019531 249.035156 246.851563 247.726563 246.519531 246.671875 C 246.289063 245.890625 245.976563 245.339844 245.589844 245.023438 C 245.3125 244.792969 244.972656 244.675781 244.566406 244.675781 C 244.121094 244.675781 243.714844 244.886719 243.355469 245.304688 C 242.863281 245.867188 242.527344 246.753906 242.355469 247.960938 C 242.183594 249.167969 242.097656 250.355469 242.097656 251.527344 Z M 250.507813 251.265625 C 250.507813 249.691406 250.742188 248.335938 251.214844 247.203125 C 251.683594 246.066406 252.316406 245.226563 253.109375 244.675781 C 253.71875 244.226563 254.34375 244.003906 254.996094 244.003906 C 256.050781 244.003906 256.996094 244.546875 257.835938 245.628906 C 258.890625 246.960938 259.417969 248.765625 259.417969 251.050781 C 259.417969 252.652344 259.1875 254.011719 258.722656 255.128906 C 258.261719 256.238281 257.671875 257.046875 256.957031 257.554688 C 256.242188 258.058594 255.554688 258.3125 254.886719 258.3125 C 253.574219 258.3125 252.480469 257.539063 251.613281 255.992188 C 250.878906 254.679688 250.507813 253.101563 250.507813 251.265625 Z M 252.503906 251.527344 C 252.503906 253.421875 252.734375 254.96875 253.195313 256.167969 C 253.585938 257.179688 254.164063 257.683594 254.929688 257.683594 C 255.292969 257.683594 255.667969 257.519531 256.058594 257.1875 C 256.449219 256.851563 256.746094 256.304688 256.945313 255.535156 C 257.265625 254.367188 257.425781 252.71875 257.425781 250.59375 C 257.425781 249.035156 257.257813 247.726563 256.925781 246.671875 C 256.695313 245.890625 256.382813 245.339844 255.992188 245.023438 C 255.71875 244.792969 255.378906 244.675781 254.972656 244.675781 C 254.527344 244.675781 254.121094 244.886719 253.761719 245.304688 C 253.269531 245.867188 252.9375 246.753906 252.761719 247.960938 C 252.589844 249.167969 252.503906 250.355469 252.503906 251.527344 Z M 260.914063 251.265625 C 260.914063 249.691406 261.148438 248.335938 261.617188 247.203125 C 262.089844 246.066406 262.722656 245.226563 263.515625 244.675781 C 264.121094 244.226563 264.753906 244.003906 265.402344 244.003906 C 266.457031 244.003906 267.40625 244.546875 268.242188 245.628906 C 269.296875 246.960938 269.824219 248.765625 269.824219 251.050781 C 269.824219 252.652344 269.59375 254.011719 269.128906 255.128906 C 268.667969 256.238281 268.078125 257.046875 267.363281 257.554688 C 266.648438 258.058594 265.960938 258.3125 265.292969 258.3125 C 263.980469 258.3125 262.886719 257.539063 262.019531 255.992188 C 261.28125 254.679688 260.914063 253.101563 260.914063 251.265625 Z M 262.910156 251.527344 C 262.910156 253.421875 263.140625 254.96875 263.601563 256.167969 C 263.992188 257.179688 264.570313 257.683594 265.335938 257.683594 C 265.699219 257.683594 266.074219 257.519531 266.464844 257.1875 C 266.855469 256.851563 267.152344 256.304688 267.351563 255.535156 C 267.671875 254.367188 267.828125 252.71875 267.828125 250.59375 C 267.828125 249.035156 267.664063 247.726563 267.332031 246.671875 C 267.101563 245.890625 266.789063 245.339844 266.398438 245.023438 C 266.125 244.792969 265.785156 244.675781 265.378906 244.675781 C 264.933594 244.675781 264.527344 244.886719 264.164063 245.304688 C 263.675781 245.867188 263.34375 246.753906 263.167969 247.960938 C 262.996094 249.167969 262.910156 250.355469 262.910156 251.527344 "/>
<path style="fill:none;stroke-width:13.875;stroke-linecap:square;stroke-linejoin:miter;stroke:rgb(0%,0%,0%);stroke-opacity:1;stroke-miterlimit:10;" d="M 2809.570313 3525.234375 L 2754.0625 3525.234375 " transform="matrix(0.1,0,0,-0.1,0,555)"/>
<path style=" stroke:none;fill-rule:nonzero;fill:rgb(0%,0%,0%);fill-opacity:1;" d="M 231.386719 197.089844 L 234.726563 195.441406 L 235.070313 195.441406 L 235.070313 207.085938 C 235.070313 207.851563 235.105469 208.328125 235.171875 208.527344 C 235.234375 208.71875 235.367188 208.867188 235.570313 208.96875 C 235.773438 209.070313 236.1875 209.128906 236.804688 209.144531 L 236.804688 209.511719 L 231.625 209.511719 L 231.625 209.144531 C 232.277344 209.128906 232.695313 209.070313 232.882813 208.96875 C 233.070313 208.867188 233.199219 208.734375 233.273438 208.570313 C 233.347656 208.402344 233.382813 207.90625 233.382813 207.085938 L 233.382813 199.648438 C 233.382813 198.636719 233.351563 197.992188 233.292969 197.71875 C 233.238281 197.5 233.144531 197.34375 233.023438 197.242188 C 232.898438 197.140625 232.753906 197.089844 232.578125 197.089844 C 232.320313 197.089844 231.972656 197.191406 231.539063 197.394531 Z M 248.882813 206.867188 L 247.929688 209.511719 L 239.800781 209.511719 L 239.800781 209.144531 C 242.183594 206.960938 243.863281 205.175781 244.839844 203.789063 C 245.816406 202.402344 246.300781 201.136719 246.300781 199.992188 C 246.300781 199.128906 246.035156 198.410156 245.5 197.847656 C 244.964844 197.285156 244.320313 197.003906 243.570313 197.003906 C 242.90625 197.003906 242.300781 197.199219 241.761719 197.597656 C 241.21875 197.996094 240.816406 198.578125 240.558594 199.34375 L 240.1875 199.34375 C 240.363281 198.085938 240.800781 197.121094 241.5 196.449219 C 242.199219 195.777344 243.070313 195.441406 244.113281 195.441406 C 245.242188 195.441406 246.175781 195.804688 246.921875 196.523438 C 247.664063 197.246094 248.035156 198.09375 248.035156 199.0625 C 248.035156 199.753906 247.878906 200.457031 247.558594 201.164063 C 247.054688 202.265625 246.238281 203.421875 245.109375 204.632813 C 243.433594 206.484375 242.378906 207.597656 241.945313 207.972656 L 245.542969 207.972656 C 246.28125 207.972656 246.796875 207.945313 247.09375 207.894531 C 247.390625 207.847656 247.65625 207.738281 247.894531 207.570313 C 248.132813 207.40625 248.339844 207.171875 248.515625 206.867188 Z M 250.507813 202.703125 C 250.507813 201.128906 250.742188 199.773438 251.214844 198.640625 C 251.683594 197.503906 252.316406 196.664063 253.109375 196.113281 C 253.71875 195.664063 254.34375 195.441406 254.996094 195.441406 C 256.050781 195.441406 256.996094 195.984375 257.835938 197.066406 C 258.890625 198.398438 259.417969 200.203125 259.417969 202.488281 C 259.417969 204.089844 259.1875 205.449219 258.722656 206.5625 C 258.261719 207.675781 257.671875 208.484375 256.957031 208.992188 C 256.242188 209.496094 255.554688 209.75 254.886719 209.75 C 253.574219 209.75 252.480469 208.976563 251.613281 207.429688 C 250.878906 206.117188 250.507813 204.539063 250.507813 202.703125 Z M 252.503906 202.964844 C 252.503906 204.855469 252.734375 206.402344 253.195313 207.605469 C 253.585938 208.617188 254.164063 209.121094 254.929688 209.121094 C 255.292969 209.121094 255.667969 208.957031 256.058594 208.621094 C 256.449219 208.289063 256.746094 207.742188 256.945313 206.976563 C 257.265625 205.804688 257.425781 204.15625 257.425781 202.03125 C 257.425781 200.472656 257.257813 199.164063 256.925781 198.109375 C 256.695313 197.328125 256.382813 196.777344 255.992188 196.460938 C 255.71875 196.230469 255.378906 196.113281 254.972656 196.113281 C 254.527344 196.113281 254.121094 196.324219 253.761719 196.742188 C 253.269531 197.308594 252.9375 198.191406 252.761719 199.398438 C 252.589844 200.605469 252.503906 201.792969 252.503906 202.964844 Z M 260.914063 202.703125 C 260.914063 201.128906 261.148438 199.773438 261.617188 198.640625 C 262.089844 197.503906 262.722656 196.664063 263.515625 196.113281 C 264.121094 195.664063 264.753906 195.441406 265.402344 195.441406 C 266.457031 195.441406 267.40625 195.984375 268.242188 197.066406 C 269.296875 198.398438 269.824219 200.203125 269.824219 202.488281 C 269.824219 204.089844 269.59375 205.449219 269.128906 206.5625 C 268.667969 207.675781 268.078125 208.484375 267.363281 208.992188 C 266.648438 209.496094 265.960938 209.75 265.292969 209.75 C 263.980469 209.75 262.886719 208.976563 262.019531 207.429688 C 261.28125 206.117188 260.914063 204.539063 260.914063 202.703125 Z M 262.910156 202.964844 C 262.910156 204.855469 263.140625 206.402344 263.601563 207.605469 C 263.992188 208.617188 264.570313 209.121094 265.335938 209.121094 C 265.699219 209.121094 266.074219 208.957031 266.464844 208.621094 C 266.855469 208.289063 267.152344 207.742188 267.351563 206.976563 C 267.671875 205.804688 267.828125 204.15625 267.828125 202.03125 C 267.828125 200.472656 267.664063 199.164063 267.332031 198.109375 C 267.101563 197.328125 266.789063 196.777344 266.398438 196.460938 C 266.125 196.230469 265.785156 196.113281 265.378906 196.113281 C 264.933594 196.113281 264.527344 196.324219 264.164063 196.742188 C 263.675781 197.308594 263.34375 198.191406 263.167969 199.398438 C 262.996094 200.605469 262.910156 201.792969 262.910156 202.964844 "/>
<path style="fill:none;stroke-width:13.875;stroke-linecap:square;stroke-linejoin:miter;stroke:rgb(0%,0%,0%);stroke-opacity:1;stroke-miterlimit:10;" d="M 2809.570313 4011.015625 L 2754.0625 4011.015625 " transform="matrix(0.1,0,0,-0.1,0,555)"/>
<path style=" stroke:none;fill-rule:nonzero;fill:rgb(0%,0%,0%);fill-opacity:1;" d="M 231.386719 148.527344 L 234.726563 146.878906 L 235.070313 146.878906 L 235.070313 158.523438 C 235.070313 159.289063 235.105469 159.769531 235.171875 159.964844 C 235.234375 160.15625 235.367188 160.304688 235.570313 160.40625 C 235.773438 160.507813 236.1875 160.566406 236.804688 160.582031 L 236.804688 160.949219 L 231.625 160.949219 L 231.625 160.582031 C 232.277344 160.566406 232.695313 160.507813 232.882813 160.40625 C 233.070313 160.304688 233.199219 160.171875 233.273438 160.007813 C 233.347656 159.839844 233.382813 159.34375 233.382813 158.523438 L 233.382813 151.085938 C 233.382813 150.074219 233.351563 149.429688 233.292969 149.15625 C 233.238281 148.9375 233.144531 148.78125 233.023438 148.679688 C 232.898438 148.578125 232.753906 148.527344 232.578125 148.527344 C 232.320313 148.527344 231.972656 148.628906 231.539063 148.828125 Z M 249.035156 155.875 L 249.035156 157.308594 L 247.167969 157.308594 L 247.167969 160.949219 L 245.5 160.949219 L 245.5 157.308594 L 239.667969 157.308594 L 239.667969 156.007813 L 246.0625 146.878906 L 247.167969 146.878906 L 247.167969 155.875 Z M 245.5 155.875 L 245.5 149.027344 L 240.664063 155.875 Z M 250.507813 154.140625 C 250.507813 152.566406 250.742188 151.210938 251.214844 150.078125 C 251.683594 148.941406 252.316406 148.101563 253.109375 147.550781 C 253.71875 147.101563 254.34375 146.878906 254.996094 146.878906 C 256.050781 146.878906 256.996094 147.421875 257.835938 148.503906 C 258.890625 149.835938 259.417969 151.640625 259.417969 153.925781 C 259.417969 155.527344 259.1875 156.886719 258.722656 158.003906 C 258.261719 159.113281 257.671875 159.921875 256.957031 160.429688 C 256.242188 160.933594 255.554688 161.1875 254.886719 161.1875 C 253.574219 161.1875 252.480469 160.414063 251.613281 158.867188 C 250.878906 157.554688 250.507813 155.976563 250.507813 154.140625 Z M 252.503906 154.402344 C 252.503906 156.296875 252.734375 157.84375 253.195313 159.042969 C 253.585938 160.054688 254.164063 160.558594 254.929688 160.558594 C 255.292969 160.558594 255.667969 160.394531 256.058594 160.0625 C 256.449219 159.726563 256.746094 159.179688 256.945313 158.410156 C 257.265625 157.242188 257.425781 155.59375 257.425781 153.46875 C 257.425781 151.910156 257.257813 150.601563 256.925781 149.546875 C 256.695313 148.765625 256.382813 148.214844 255.992188 147.898438 C 255.71875 147.667969 255.378906 147.550781 254.972656 147.550781 C 254.527344 147.550781 254.121094 147.761719 253.761719 148.179688 C 253.269531 148.742188 252.9375 149.628906 252.761719 150.835938 C 252.589844 152.042969 252.503906 153.230469 252.503906 154.402344 Z M 260.914063 154.140625 C 260.914063 152.566406 261.148438 151.210938 261.617188 150.078125 C 262.089844 148.941406 262.722656 148.101563 263.515625 147.550781 C 264.121094 147.101563 264.753906 146.878906 265.402344 146.878906 C 266.457031 146.878906 267.40625 147.421875 268.242188 148.503906 C 269.296875 149.835938 269.824219 151.640625 269.824219 153.925781 C 269.824219 155.527344 269.59375 156.886719 269.128906 158.003906 C 268.667969 159.113281 268.078125 159.921875 267.363281 160.429688 C 266.648438 160.933594 265.960938 161.1875 265.292969 161.1875 C 263.980469 161.1875 262.886719 160.414063 262.019531 158.867188 C 261.28125 157.554688 260.914063 155.976563 260.914063 154.140625 Z M 262.910156 154.402344 C 262.910156 156.296875 263.140625 157.84375 263.601563 159.042969 C 263.992188 160.054688 264.570313 160.558594 265.335938 160.558594 C 265.699219 160.558594 266.074219 160.394531 266.464844 160.0625 C 266.855469 159.726563 267.152344 159.179688 267.351563 158.410156 C 267.671875 157.242188 267.828125 155.59375 267.828125 153.46875 C 267.828125 151.910156 267.664063 150.601563 267.332031 149.546875 C 267.101563 148.765625 266.789063 148.214844 266.398438 147.898438 C 266.125 147.667969 265.785156 147.550781 265.378906 147.550781 C 264.933594 147.550781 264.527344 147.761719 264.164063 148.179688 C 263.675781 148.742188 263.34375 149.628906 263.167969 150.835938 C 262.996094 152.042969 262.910156 153.230469 262.910156 154.402344 "/>
<path style="fill:none;stroke-width:13.875;stroke-linecap:square;stroke-linejoin:miter;stroke:rgb(0%,0%,0%);stroke-opacity:1;stroke-miterlimit:10;" d="M 2809.570313 4496.796875 L 2754.0625 4496.796875 " transform="matrix(0.1,0,0,-0.1,0,555)"/>
<path style=" stroke:none;fill-rule:nonzero;fill:rgb(0%,0%,0%);fill-opacity:1;" d="M 231.386719 99.964844 L 234.726563 98.316406 L 235.070313 98.316406 L 235.070313 109.960938 C 235.070313 110.726563 235.105469 111.207031 235.171875 111.402344 C 235.234375 111.597656 235.367188 111.742188 235.570313 111.84375 C 235.773438 111.945313 236.1875 112.003906 236.804688 112.019531 L 236.804688 112.386719 L 231.625 112.386719 L 231.625 112.019531 C 232.277344 112.003906 232.695313 111.945313 232.882813 111.84375 C 233.070313 111.742188 233.199219 111.609375 233.273438 111.445313 C 233.347656 111.277344 233.382813 110.78125 233.382813 109.960938 L 233.382813 102.523438 C 233.382813 101.511719 233.351563 100.867188 233.292969 100.59375 C 233.238281 100.378906 233.144531 100.21875 233.023438 100.117188 C 232.898438 100.015625 232.753906 99.964844 232.578125 99.964844 C 232.320313 99.964844 231.972656 100.066406 231.539063 100.269531 Z M 248.664063 98.316406 L 248.664063 98.707031 C 247.769531 98.792969 247.039063 98.972656 246.476563 99.238281 C 245.910156 99.507813 245.355469 99.914063 244.804688 100.464844 C 244.257813 101.011719 243.800781 101.621094 243.441406 102.296875 C 243.078125 102.96875 242.777344 103.765625 242.527344 104.691406 C 243.496094 104.027344 244.472656 103.695313 245.457031 103.695313 C 246.394531 103.695313 247.210938 104.074219 247.90625 104.832031 C 248.601563 105.589844 248.945313 106.5625 248.945313 107.746094 C 248.945313 108.902344 248.601563 109.960938 247.90625 110.914063 C 247.066406 112.054688 245.953125 112.625 244.566406 112.625 C 243.628906 112.625 242.828125 112.316406 242.160156 111.695313 C 240.875 110.480469 240.230469 108.910156 240.230469 106.988281 C 240.230469 105.746094 240.480469 104.570313 240.980469 103.464844 C 241.480469 102.359375 242.1875 101.375 243.105469 100.507813 C 244.023438 99.640625 244.902344 99.058594 245.738281 98.761719 C 246.578125 98.464844 247.359375 98.316406 248.078125 98.316406 Z M 242.355469 105.429688 C 242.226563 106.351563 242.160156 107.097656 242.160156 107.660156 C 242.160156 108.3125 242.285156 109.015625 242.527344 109.773438 C 242.777344 110.535156 243.128906 111.136719 243.59375 111.585938 C 243.9375 111.902344 244.363281 112.0625 244.871094 112.0625 C 245.449219 112.0625 245.972656 111.785156 246.445313 111.226563 C 246.914063 110.671875 247.148438 109.878906 247.148438 108.855469 C 247.148438 107.695313 246.917969 106.695313 246.453125 105.851563 C 245.992188 105.003906 245.335938 104.582031 244.480469 104.582031 C 244.222656 104.582031 243.945313 104.636719 243.65625 104.746094 C 243.367188 104.855469 242.933594 105.082031 242.355469 105.429688 Z M 250.507813 105.578125 C 250.507813 104.003906 250.742188 102.648438 251.214844 101.515625 C 251.683594 100.378906 252.316406 99.539063 253.109375 98.988281 C 253.71875 98.539063 254.34375 98.316406 254.996094 98.316406 C 256.050781 98.316406 256.996094 98.859375 257.835938 99.941406 C 258.890625 101.273438 259.417969 103.078125 259.417969 105.363281 C 259.417969 106.96875 259.1875 108.324219 258.722656 109.4375 C 258.261719 110.550781 257.671875 111.359375 256.957031 111.867188 C 256.242188 112.371094 255.554688 112.625 254.886719 112.625 C 253.574219 112.625 252.480469 111.851563 251.613281 110.304688 C 250.878906 108.992188 250.507813 107.414063 250.507813 105.578125 Z M 252.503906 105.839844 C 252.503906 107.734375 252.734375 109.28125 253.195313 110.480469 C 253.585938 111.492188 254.164063 111.996094 254.929688 111.996094 C 255.292969 111.996094 255.667969 111.832031 256.058594 111.496094 C 256.449219 111.164063 256.746094 110.617188 256.945313 109.851563 C 257.265625 108.679688 257.425781 107.03125 257.425781 104.90625 C 257.425781 103.347656 257.257813 102.039063 256.925781 100.984375 C 256.695313 100.203125 256.382813 99.652344 255.992188 99.335938 C 255.71875 99.105469 255.378906 98.988281 254.972656 98.988281 C 254.527344 98.988281 254.121094 99.199219 253.761719 99.617188 C 253.269531 100.183594 252.9375 101.066406 252.761719 102.273438 C 252.589844 103.480469 252.503906 104.671875 252.503906 105.839844 Z M 260.914063 105.578125 C 260.914063 104.003906 261.148438 102.648438 261.617188 101.515625 C 262.089844 100.378906 262.722656 99.539063 263.515625 98.988281 C 264.121094 98.539063 264.753906 98.316406 265.402344 98.316406 C 266.457031 98.316406 267.40625 98.859375 268.242188 99.941406 C 269.296875 101.273438 269.824219 103.078125 269.824219 105.363281 C 269.824219 106.96875 269.59375 108.324219 269.128906 109.4375 C 268.667969 110.550781 268.078125 111.359375 267.363281 111.867188 C 266.648438 112.371094 265.960938 112.625 265.292969 112.625 C 263.980469 112.625 262.886719 111.851563 262.019531 110.304688 C 261.28125 108.992188 260.914063 107.414063 260.914063 105.578125 Z M 262.910156 105.839844 C 262.910156 107.734375 263.140625 109.28125 263.601563 110.480469 C 263.992188 111.492188 264.570313 111.996094 265.335938 111.996094 C 265.699219 111.996094 266.074219 111.832031 266.464844 111.496094 C 266.855469 111.164063 267.152344 110.617188 267.351563 109.851563 C 267.671875 108.679688 267.828125 107.03125 267.828125 104.90625 C 267.828125 103.347656 267.664063 102.039063 267.332031 100.984375 C 267.101563 100.203125 266.789063 99.652344 266.398438 99.335938 C 266.125 99.105469 265.785156 98.988281 265.378906 98.988281 C 264.933594 98.988281 264.527344 99.199219 264.164063 99.617188 C 263.675781 100.183594 263.34375 101.066406 263.167969 102.273438 C 262.996094 103.480469 262.910156 104.671875 262.910156 105.839844 "/>
<path style="fill:none;stroke-width:13.875;stroke-linecap:square;stroke-linejoin:miter;stroke:rgb(0%,0%,0%);stroke-opacity:1;stroke-miterlimit:10;" d="M 2809.570313 4982.578125 L 2754.0625 4982.578125 " transform="matrix(0.1,0,0,-0.1,0,555)"/>
<path style=" stroke:none;fill-rule:nonzero;fill:rgb(0%,0%,0%);fill-opacity:1;" d="M 231.386719 51.402344 L 234.726563 49.753906 L 235.070313 49.753906 L 235.070313 61.398438 C 235.070313 62.164063 235.105469 62.644531 235.171875 62.839844 C 235.234375 63.035156 235.367188 63.183594 235.570313 63.28125 C 235.773438 63.382813 236.1875 63.441406 236.804688 63.457031 L 236.804688 63.824219 L 231.625 63.824219 L 231.625 63.457031 C 232.277344 63.441406 232.695313 63.382813 232.882813 63.28125 C 233.070313 63.183594 233.199219 63.046875 233.273438 62.882813 C 233.347656 62.714844 233.382813 62.222656 233.382813 61.398438 L 233.382813 53.960938 C 233.382813 52.949219 233.351563 52.304688 233.292969 52.03125 C 233.238281 51.8125 233.144531 51.65625 233.023438 51.554688 C 232.898438 51.453125 232.753906 51.402344 232.578125 51.402344 C 232.320313 51.402344 231.972656 51.503906 231.539063 51.707031 Z M 243.332031 56.886719 C 242.246094 55.992188 241.546875 55.273438 241.230469 54.730469 C 240.910156 54.1875 240.753906 53.628906 240.753906 53.050781 C 240.753906 52.152344 241.097656 51.382813 241.792969 50.730469 C 242.484375 50.078125 243.40625 49.753906 244.546875 49.753906 C 245.660156 49.753906 246.554688 50.058594 247.234375 50.664063 C 247.914063 51.273438 248.253906 51.960938 248.253906 52.726563 C 248.253906 53.246094 248.070313 53.773438 247.699219 54.308594 C 247.332031 54.84375 246.570313 55.472656 245.414063 56.195313 C 246.597656 57.117188 247.386719 57.839844 247.777344 58.363281 C 248.296875 59.054688 248.558594 59.785156 248.558594 60.550781 C 248.558594 61.519531 248.1875 62.347656 247.449219 63.035156 C 246.714844 63.71875 245.746094 64.0625 244.546875 64.0625 C 243.230469 64.0625 242.203125 63.660156 241.46875 62.847656 C 240.890625 62.183594 240.601563 61.460938 240.601563 60.679688 C 240.601563 60.074219 240.804688 59.472656 241.21875 58.871094 C 241.628906 58.269531 242.335938 57.609375 243.332031 56.886719 Z M 244.9375 55.804688 C 245.746094 55.066406 246.257813 54.484375 246.476563 54.058594 C 246.691406 53.632813 246.800781 53.152344 246.800781 52.617188 C 246.800781 51.90625 246.601563 51.351563 246.203125 50.945313 C 245.808594 50.542969 245.261719 50.339844 244.566406 50.339844 C 243.875 50.339844 243.3125 50.542969 242.875 50.945313 C 242.441406 51.351563 242.226563 51.820313 242.226563 52.355469 C 242.226563 52.703125 242.316406 53.054688 242.496094 53.40625 C 242.679688 53.761719 242.933594 54.097656 243.269531 54.414063 Z M 243.808594 57.277344 C 243.246094 57.738281 242.828125 58.253906 242.5625 58.816406 C 242.296875 59.378906 242.160156 59.988281 242.160156 60.636719 C 242.160156 61.503906 242.398438 62.203125 242.875 62.730469 C 243.355469 63.257813 243.960938 63.519531 244.699219 63.519531 C 245.433594 63.519531 246.023438 63.316406 246.464844 62.902344 C 246.90625 62.492188 247.125 61.988281 247.125 61.398438 C 247.125 60.90625 246.996094 60.464844 246.734375 60.074219 C 246.257813 59.367188 245.285156 58.433594 243.808594 57.277344 Z M 250.507813 57.019531 C 250.507813 55.441406 250.742188 54.085938 251.214844 52.953125 C 251.683594 51.816406 252.316406 50.976563 253.109375 50.425781 C 253.71875 49.980469 254.34375 49.753906 254.996094 49.753906 C 256.050781 49.753906 256.996094 50.296875 257.835938 51.382813 C 258.890625 52.710938 259.417969 54.515625 259.417969 56.800781 C 259.417969 58.40625 259.1875 59.765625 258.722656 60.878906 C 258.261719 61.988281 257.671875 62.800781 256.957031 63.304688 C 256.242188 63.8125 255.554688 64.0625 254.886719 64.0625 C 253.574219 64.0625 252.480469 63.289063 251.613281 61.742188 C 250.878906 60.429688 250.507813 58.851563 250.507813 57.019531 Z M 252.503906 57.277344 C 252.503906 59.171875 252.734375 60.71875 253.195313 61.917969 C 253.585938 62.929688 254.164063 63.433594 254.929688 63.433594 C 255.292969 63.433594 255.667969 63.269531 256.058594 62.9375 C 256.449219 62.605469 256.746094 62.054688 256.945313 61.289063 C 257.265625 60.117188 257.425781 58.46875 257.425781 56.34375 C 257.425781 54.785156 257.257813 53.476563 256.925781 52.421875 C 256.695313 51.640625 256.382813 51.09375 255.992188 50.773438 C 255.71875 50.542969 255.378906 50.425781 254.972656 50.425781 C 254.527344 50.425781 254.121094 50.636719 253.761719 51.054688 C 253.269531 51.617188 252.9375 52.503906 252.761719 53.710938 C 252.589844 54.917969 252.503906 56.105469 252.503906 57.277344 Z M 260.914063 57.019531 C 260.914063 55.441406 261.148438 54.085938 261.617188 52.953125 C 262.089844 51.816406 262.722656 50.976563 263.515625 50.425781 C 264.121094 49.980469 264.753906 49.753906 265.402344 49.753906 C 266.457031 49.753906 267.40625 50.296875 268.242188 51.382813 C 269.296875 52.710938 269.824219 54.515625 269.824219 56.800781 C 269.824219 58.40625 269.59375 59.765625 269.128906 60.878906 C 268.667969 61.988281 268.078125 62.800781 267.363281 63.304688 C 266.648438 63.8125 265.960938 64.0625 265.292969 64.0625 C 263.980469 64.0625 262.886719 63.289063 262.019531 61.742188 C 261.28125 60.429688 260.914063 58.851563 260.914063 57.019531 Z M 262.910156 57.277344 C 262.910156 59.171875 263.140625 60.71875 263.601563 61.917969 C 263.992188 62.929688 264.570313 63.433594 265.335938 63.433594 C 265.699219 63.433594 266.074219 63.269531 266.464844 62.9375 C 266.855469 62.605469 267.152344 62.054688 267.351563 61.289063 C 267.671875 60.117188 267.828125 58.46875 267.828125 56.34375 C 267.828125 54.785156 267.664063 53.476563 267.332031 52.421875 C 267.101563 51.640625 266.789063 51.09375 266.398438 50.773438 C 266.125 50.542969 265.785156 50.425781 265.378906 50.425781 C 264.933594 50.425781 264.527344 50.636719 264.164063 51.054688 C 263.675781 51.617188 263.34375 52.503906 263.167969 53.710938 C 262.996094 54.917969 262.910156 56.105469 262.910156 57.277344 "/>
<path style="fill:none;stroke-width:13.875;stroke-linecap:square;stroke-linejoin:miter;stroke:rgb(0%,0%,0%);stroke-opacity:1;stroke-miterlimit:10;" d="M 2809.570313 853.398438 L 2781.796875 853.398438 " transform="matrix(0.1,0,0,-0.1,0,555)"/>
<path style="fill:none;stroke-width:13.875;stroke-linecap:square;stroke-linejoin:miter;stroke:rgb(0%,0%,0%);stroke-opacity:1;stroke-miterlimit:10;" d="M 2809.570313 1339.179688 L 2781.796875 1339.179688 " transform="matrix(0.1,0,0,-0.1,0,555)"/>
<path style="fill:none;stroke-width:13.875;stroke-linecap:square;stroke-linejoin:miter;stroke:rgb(0%,0%,0%);stroke-opacity:1;stroke-miterlimit:10;" d="M 2809.570313 1824.960938 L 2781.796875 1824.960938 " transform="matrix(0.1,0,0,-0.1,0,555)"/>
<path style="fill:none;stroke-width:13.875;stroke-linecap:square;stroke-linejoin:miter;stroke:rgb(0%,0%,0%);stroke-opacity:1;stroke-miterlimit:10;" d="M 2809.570313 2310.78125 L 2781.796875 2310.78125 " transform="matrix(0.1,0,0,-0.1,0,555)"/>
<path style="fill:none;stroke-width:13.875;stroke-linecap:square;stroke-linejoin:miter;stroke:rgb(0%,0%,0%);stroke-opacity:1;stroke-miterlimit:10;" d="M 2809.570313 2796.5625 L 2781.796875 2796.5625 " transform="matrix(0.1,0,0,-0.1,0,555)"/>
<path style="fill:none;stroke-width:13.875;stroke-linecap:square;stroke-linejoin:miter;stroke:rgb(0%,0%,0%);stroke-opacity:1;stroke-miterlimit:10;" d="M 2809.570313 3282.34375 L 2781.796875 3282.34375 " transform="matrix(0.1,0,0,-0.1,0,555)"/>
<path style="fill:none;stroke-width:13.875;stroke-linecap:square;stroke-linejoin:miter;stroke:rgb(0%,0%,0%);stroke-opacity:1;stroke-miterlimit:10;" d="M 2809.570313 3768.125 L 2781.796875 3768.125 " transform="matrix(0.1,0,0,-0.1,0,555)"/>
<path style="fill:none;stroke-width:13.875;stroke-linecap:square;stroke-linejoin:miter;stroke:rgb(0%,0%,0%);stroke-opacity:1;stroke-miterlimit:10;" d="M 2809.570313 4253.90625 L 2781.796875 4253.90625 " transform="matrix(0.1,0,0,-0.1,0,555)"/>
<path style="fill:none;stroke-width:13.875;stroke-linecap:square;stroke-linejoin:miter;stroke:rgb(0%,0%,0%);stroke-opacity:1;stroke-miterlimit:10;" d="M 2809.570313 4739.6875 L 2781.796875 4739.6875 " transform="matrix(0.1,0,0,-0.1,0,555)"/>
<path style="fill:none;stroke-width:13.875;stroke-linecap:square;stroke-linejoin:miter;stroke:rgb(0%,0%,0%);stroke-opacity:1;stroke-miterlimit:10;" d="M 2809.570313 5225.46875 L 2781.796875 5225.46875 " transform="matrix(0.1,0,0,-0.1,0,555)"/>
</g>
</svg>
