<?xml version="1.0" encoding="UTF-8"?>
<svg xmlns="http://www.w3.org/2000/svg" xmlns:xlink="http://www.w3.org/1999/xlink" width="555pt" height="555pt" viewBox="0 0 555 555" version="1.1">
<defs>
<clipPath id="clip1">
  <path d="M 25 368 L 532 368 L 532 546.699219 L 25 546.699219 Z M 25 368 "/>
</clipPath>
<clipPath id="clip2">
  <path d="M 8.300781 297 L 258 297 L 258 546.699219 L 8.300781 546.699219 Z M 8.300781 297 "/>
</clipPath>
<clipPath id="clip3">
  <path d="M 54 297 L 62.4375 297 L 62.4375 299 L 54 299 Z M 54 297 "/>
</clipPath>
<clipPath id="clip4">
  <path d="M 163 297 L 170.664063 297 L 170.664063 299 L 163 299 Z M 163 297 "/>
</clipPath>
<clipPath id="clip5">
  <path d="M 223 140 L 234 140 L 234 154.011719 L 223 154.011719 Z M 223 140 "/>
</clipPath>
<clipPath id="clip6">
  <path d="M 247 492 L 255.300781 492 L 255.300781 494 L 247 494 Z M 247 492 "/>
</clipPath>
<clipPath id="clip7">
  <path d="M 247 384 L 255.300781 384 L 255.300781 386 L 247 386 Z M 247 384 "/>
</clipPath>
</defs>
<g id="surface1">
<rect x="0" y="0" width="555" height="555" style="fill:rgb(100%,100%,100%);fill-opacity:1;stroke:none;"/>
<g clip-path="url(#clip1)" clip-rule="nonzero">
<path style="fill:none;stroke-width:20.8125;stroke-linecap:butt;stroke-linejoin:round;stroke:rgb(100%,0%,0%);stroke-opacity:1;stroke-miterlimit:10;" d="M 263.398438 97.109375 L 273.671875 106.796875 L 283.359375 115.9375 L 289.6875 121.835938 L 296.523438 128.164063 L 305.742188 136.835938 L 314.375 145 L 321.757813 151.835938 L 329.6875 159.21875 L 337.8125 166.835938 L 345.429688 174.023438 L 353.867188 181.835938 L 362.929688 190.234375 L 369.882813 196.796875 L 376.484375 203.007813 L 385.976563 211.796875 L 396.210938 221.289063 L 402.03125 226.757813 L 407.5 231.914063 L 418.085938 241.71875 L 429.53125 252.304688 L 434.179688 256.679688 L 438.554688 260.78125 L 450.273438 271.640625 L 462.929688 283.359375 L 466.367188 286.5625 L 469.570313 289.609375 L 482.460938 301.523438 L 496.40625 314.414063 L 498.59375 316.445313 L 500.625 318.359375 L 514.6875 331.367188 L 529.921875 345.429688 L 530.820313 346.289063 L 531.640625 347.070313 L 546.953125 361.171875 L 562.695313 375.703125 L 563.085938 376.054688 L 563.554688 376.484375 L 579.257813 390.9375 L 593.75 404.296875 L 595.429688 405.859375 L 597.265625 407.5 L 611.5625 420.703125 L 624.765625 432.851563 L 627.773438 435.546875 L 631.054688 438.554688 L 643.945313 450.429688 L 655.820313 461.328125 L 660.15625 465.273438 L 664.921875 469.570313 L 676.367188 480.117188 L 686.835938 489.726563 L 692.578125 494.921875 L 698.867188 500.625 L 708.789063 509.726563 L 717.890625 518.085938 L 725.039063 524.53125 L 732.890625 531.679688 L 741.25 539.335938 L 748.945313 546.367188 L 757.539063 554.101563 L 767.03125 562.695313 L 773.789063 568.90625 L 779.960938 574.53125 L 790.078125 583.632813 L 801.289063 593.75 L 806.367188 598.398438 L 811.015625 602.65625 L 822.65625 613.125 L 835.585938 624.765625 L 838.984375 627.851563 L 842.03125 630.664063 L 855.3125 642.578125 L 870.039063 655.820313 L 871.640625 657.265625 L 873.085938 658.59375 L 887.96875 671.953125 L 904.101563 686.445313 L 904.335938 686.640625 L 904.609375 686.835938 L 920.742188 701.289063 L 935.15625 714.21875 L 937.109375 715.9375 L 939.335938 717.890625 L 953.515625 730.585938 L 966.210938 741.914063 L 969.921875 745.195313 L 974.179688 748.945313 L 986.367188 759.804688 L 997.226563 769.492188 L 1002.8125 774.375 L 1009.179688 779.960938 L 1019.296875 788.984375 L 1028.28125 796.992188 L 1035.742188 803.515625 L 1044.296875 811.015625 L 1052.265625 818.085938 L 1059.296875 824.335938 L 1068.75 832.617188 L 1079.609375 842.03125 L 1085.273438 847.109375 L 1090.351563 851.601563 L 1101.835938 861.601563 L 1115.039063 873.085938 L 1118.398438 876.09375 L 1121.40625 878.710938 L 1134.960938 890.507813 L 1150.625 904.101563 L 1151.601563 904.960938 L 1152.421875 905.703125 L 1168.203125 919.375 L 1183.476563 932.617188 L 1184.84375 933.789063 L 1186.484375 935.15625 L 1201.484375 948.164063 L 1214.492188 959.414063 L 1218.203125 962.539063 L 1222.539063 966.210938 L 1234.882813 976.835938 L 1245.546875 986.054688 L 1251.601563 991.171875 L 1258.789063 997.226563 L 1268.359375 1005.46875 L 1276.5625 1012.539063 L 1285.117188 1019.726563 L 1295.273438 1028.28125 L 1301.914063 1033.945313 L 1307.617188 1038.867188 L 1318.75 1048.203125 L 1331.992188 1059.335938 L 1335.585938 1062.382813 L 1338.671875 1065 L 1352.460938 1076.5625 L 1368.984375 1090.351563 L 1369.375 1090.703125 L 1369.6875 1090.976563 L 1386.289063 1104.804688 L 1400.742188 1116.835938 L 1403.242188 1118.867188 L 1406.328125 1121.40625 L 1420.234375 1132.929688 L 1431.757813 1142.5 L 1437.265625 1146.953125 L 1443.984375 1152.421875 L 1454.296875 1160.9375 L 1462.8125 1168.007813 L 1471.367188 1174.921875 L 1481.992188 1183.476563 L 1488.476563 1188.828125 L 1493.828125 1193.242188 L 1505.625 1202.734375 L 1520.273438 1214.492188 L 1522.8125 1216.5625 L 1524.882813 1218.28125 L 1540.039063 1230.390625 L 1555.898438 1243.085938 L 1559.0625 1245.546875 L 1574.609375 1257.929688 L 1586.953125 1267.773438 L 1591.914063 1271.601563 L 1598.359375 1276.5625 L 1609.296875 1285.273438 L 1618.007813 1292.148438 L 1626.71875 1298.867188 L 1638.085938 1307.617188 L 1644.21875 1312.460938 L 1649.023438 1316.25 L 1661.71875 1325.976563 L 1678.28125 1338.671875 L 1679.296875 1339.453125 L 1680.078125 1340.078125 L 1696.914063 1352.851563 L 1711.09375 1363.671875 L 1714.570313 1366.210938 L 1719.257813 1369.6875 L 1732.304688 1379.53125 L 1742.148438 1386.992188 L 1750.078125 1392.8125 L 1760.898438 1400.742188 L 1767.929688 1406.015625 L 1773.164063 1409.960938 L 1785.820313 1419.140625 L 1803.203125 1431.757813 L 1803.789063 1432.226563 L 1804.21875 1432.539063 L 1821.835938 1445.234375 L 1835.273438 1454.921875 L 1839.921875 1458.164063 L 1846.5625 1462.8125 L 1858.085938 1471.054688 L 1866.289063 1476.914063 L 1876.328125 1483.828125 L 1890.859375 1493.867188 L 1894.648438 1496.523438 L 1897.34375 1498.4375 L 1913.046875 1509.179688 L 1928.398438 1519.648438 L 1931.523438 1521.71875 L 1936.367188 1524.882813 L 1950.117188 1534.179688 L 1959.414063 1540.46875 L 1968.789063 1546.5625 L 1983.203125 1555.9375 L 1987.539063 1558.828125 L 1990.46875 1560.742188 L 2006.40625 1571.015625 L 2021.484375 1580.664063 L 2025.390625 1583.046875 L 2031.757813 1586.953125 L 2044.492188 1595.039063 L 2052.539063 1600.078125 L 2063.710938 1606.835938 L 2082.148438 1618.007813 L 2083.007813 1618.554688 L 2083.554688 1618.90625 L 2102.460938 1630.15625 L 2114.609375 1637.34375 L 2122.070313 1641.601563 L 2135.195313 1649.023438 L 2141.796875 1652.890625 L 2145.625 1655.15625 L 2161.679688 1664.023438 L 2176.679688 1672.382813 L 2181.71875 1675.039063 L 2191.289063 1680.078125 L 2201.914063 1685.859375 L 2207.734375 1688.984375 L 2222.34375 1696.523438 L 2238.75 1704.960938 L 2242.890625 1706.992188 L 2251.445313 1711.132813 L 2263.671875 1717.265625 L 2269.804688 1720.3125 L 2284.648438 1727.304688 L 2300.859375 1734.921875 L 2305.859375 1737.148438 L 2317.265625 1742.148438 L 2327.304688 1746.71875 L 2331.875 1748.789063 L 2349.023438 1756.054688 L 2362.890625 1761.953125 L 2370.976563 1765.15625 L 2391.40625 1773.203125 L 2393.203125 1773.945313 L 2393.945313 1774.257813 L 2415.78125 1782.421875 L 2425 1785.859375 L 2438.671875 1790.585938 L 2456.015625 1796.523438 L 2461.914063 1798.398438 L 2480.664063 1804.21875 L 2485.507813 1805.78125 L 2487.070313 1806.289063 L 2509.53125 1812.8125 L 2518.125 1815.3125 L 2533.984375 1819.414063 L 2549.140625 1823.320313 L 2558.90625 1825.546875 L 2580.195313 1830.351563 L 2584.335938 1831.132813 L 2605.703125 1835.273438 L 2610.3125 1836.171875 L 2611.210938 1836.367188 L 2636.875 1840.664063 L 2642.265625 1841.5625 L 2664.101563 1844.453125 L 2673.28125 1845.703125 L 2692.03125 1847.578125 L 2704.335938 1848.789063 L 2735.390625 1850.859375 L 2750.3125 1851.367188 L 2766.40625 1851.875 L 2797.460938 1851.875 L 2812.382813 1851.40625 L 2828.476563 1850.859375 L 2845.039063 1849.765625 L 2859.53125 1848.789063 L 2878.984375 1846.835938 L 2890.585938 1845.703125 L 2914.375 1842.539063 L 2921.601563 1841.5625 L 2951.328125 1836.601563 L 2952.65625 1836.367188 L 2958.164063 1835.273438 L 2983.671875 1830.351563 L 2990.078125 1828.90625 L 3014.726563 1823.320313 L 3030.820313 1819.140625 L 3045.742188 1815.3125 L 3073.867188 1807.148438 L 3076.796875 1806.289063 L 3083.203125 1804.21875 L 3107.8125 1796.523438 L 3119.570313 1792.5 L 3138.867188 1785.859375 L 3168.242188 1774.84375 L 3169.921875 1774.257813 L 3172.460938 1773.203125 L 3200.9375 1761.953125 L 3220.429688 1753.710938 L 3231.992188 1748.789063 L 3246.601563 1742.148438 L 3263.046875 1734.921875 L 3276.71875 1728.476563 L 3294.0625 1720.3125 L 3312.421875 1711.132813 L 3325.117188 1704.960938 L 3337.773438 1698.476563 L 3356.132813 1688.984375 L 3372.578125 1680.078125 L 3387.1875 1672.382813 L 3404.492188 1662.734375 L 3418.203125 1655.15625 L 3428.671875 1649.023438 L 3449.257813 1637.34375 L 3478.085938 1620.195313 L 3480.273438 1618.90625 L 3481.71875 1618.007813 L 3511.328125 1600.078125 L 3532.109375 1586.953125 L 3542.382813 1580.664063 L 3559.960938 1569.375 L 3573.398438 1560.742188 L 3580.664063 1555.9375 L 3604.453125 1540.46875 L 3627.5 1524.882813 L 3635.46875 1519.648438 L 3652.03125 1508.359375 L 3666.523438 1498.4375 L 3673.007813 1493.867188 L 3697.578125 1476.914063 L 3717.265625 1462.8125 L 3728.59375 1454.921875 L 3756.875 1434.53125 L 3759.648438 1432.539063 L 3760.664063 1431.757813 L 3790.664063 1409.960938 L 3802.96875 1400.742188 L 3821.71875 1386.992188 L 3844.609375 1369.6875 L 3852.734375 1363.671875 L 3877.96875 1344.492188 L 3883.789063 1340.078125 L 3885.585938 1338.671875 L 3914.84375 1316.25 L 3925.78125 1307.617188 L 3945.859375 1292.148438 L 3965.546875 1276.5625 L 3976.914063 1267.773438 L 4004.804688 1245.546875 L 4007.96875 1243.085938 L 4020.15625 1233.359375 L 4038.984375 1218.28125 L 4043.59375 1214.492188 L 4070.039063 1193.242188 L 4081.875 1183.476563 L 4101.054688 1168.007813 L 4119.882813 1152.421875 L 4132.109375 1142.5 L 4157.539063 1121.40625 L 4163.125 1116.835938 L 4190.507813 1094.023438 L 4194.179688 1090.976563 L 4194.882813 1090.351563 L 4225.195313 1065 L 4231.875 1059.335938 L 4256.25 1038.867188 L 4268.554688 1028.28125 L 4287.304688 1012.539063 L 4305.078125 997.226563 L 4318.320313 986.054688 L 4341.328125 966.210938 L 4349.375 959.414063 L 4377.382813 935.15625 L 4380.390625 932.617188 L 4399.53125 916.015625 L 4411.445313 905.703125 L 4413.242188 904.101563 L 4442.460938 878.710938 L 4448.828125 873.085938 L 4473.515625 851.601563 L 4484.296875 842.03125 L 4504.570313 824.335938 L 4519.570313 811.015625 L 4535.585938 796.992188 L 4554.6875 779.960938 L 4566.640625 769.492188 L 4589.6875 748.945313 L 4597.695313 741.914063 L 4624.53125 717.890625 L 4628.710938 714.21875 L 4659.257813 686.835938 L 4659.765625 686.445313 L 4663.90625 682.734375 L 4690.78125 658.59375 L 4693.828125 655.820313 L 4721.835938 630.664063 L 4728.28125 624.765625 L 4752.851563 602.65625 L 4762.578125 593.75 L 4783.90625 574.53125 L 4796.835938 562.695313 L 4814.960938 546.367188 L 4830.976563 531.679688 L 4845.976563 518.085938 L 4865 500.625 L 4877.03125 489.726563 L 4898.945313 469.570313 L 4908.046875 461.328125 L 4932.8125 438.554688 L 4939.101563 432.851563 L 4966.601563 407.5 L 4970.15625 404.296875 L 5000.3125 376.484375 L 5001.171875 375.703125 L 5011.171875 366.484375 L 5032.226563 347.070313 L 5033.945313 345.429688 L 5063.242188 318.359375 L 5067.460938 314.414063 L 5094.296875 289.609375 L 5100.9375 283.359375 L 5125.3125 260.78125 L 5134.335938 252.304688 L 5156.367188 231.914063 L 5167.695313 221.289063 L 5187.421875 203.007813 L 5200.976563 190.234375 L 5218.4375 174.023438 L 5234.179688 159.21875 L 5249.492188 145 L 5267.34375 128.164063 L 5280.507813 115.9375 L 5300.46875 97.109375 " transform="matrix(0.1,0,0,-0.1,0,555)"/>
</g>
<path style="fill:none;stroke-width:20.8125;stroke-linecap:butt;stroke-linejoin:round;stroke:rgb(100%,0%,0%);stroke-opacity:1;stroke-miterlimit:10;" d="M 263.398438 5466.757813 L 283.359375 5447.96875 L 296.523438 5435.703125 L 314.375 5418.90625 L 329.6875 5404.6875 L 345.429688 5389.882813 L 362.929688 5373.632813 L 376.484375 5360.898438 L 396.210938 5342.617188 L 407.5 5331.992188 L 429.53125 5311.5625 L 438.554688 5303.125 L 462.929688 5280.507813 L 469.570313 5274.296875 L 496.40625 5249.492188 L 500.625 5245.546875 L 529.921875 5218.4375 L 531.640625 5216.835938 L 552.695313 5197.421875 L 562.695313 5188.164063 L 563.554688 5187.421875 L 593.75 5159.570313 L 597.265625 5156.367188 L 624.765625 5131.015625 L 631.054688 5125.3125 L 655.820313 5102.539063 L 664.921875 5094.296875 L 686.835938 5074.140625 L 698.867188 5063.242188 L 717.890625 5045.78125 L 732.890625 5032.226563 L 748.945313 5017.539063 L 767.03125 5001.171875 L 779.960938 4989.335938 L 801.289063 4970.15625 L 811.015625 4961.25 L 835.585938 4939.101563 L 842.03125 4933.203125 L 870.039063 4908.046875 L 873.085938 4905.273438 L 899.960938 4881.171875 L 904.101563 4877.460938 L 904.609375 4877.03125 L 935.15625 4849.648438 L 939.335938 4845.976563 L 966.210938 4821.953125 L 974.179688 4814.960938 L 997.226563 4794.375 L 1009.179688 4783.90625 L 1028.28125 4766.914063 L 1044.296875 4752.851563 L 1059.296875 4739.53125 L 1079.609375 4721.835938 L 1090.351563 4712.304688 L 1115.039063 4690.78125 L 1121.40625 4685.15625 L 1150.625 4659.765625 L 1152.421875 4658.164063 L 1164.335938 4647.851563 L 1183.476563 4631.289063 L 1186.484375 4628.710938 L 1214.492188 4604.492188 L 1222.539063 4597.695313 L 1245.546875 4577.851563 L 1258.789063 4566.640625 L 1276.5625 4551.367188 L 1295.273438 4535.585938 L 1307.617188 4525.039063 L 1331.992188 4504.570313 L 1338.671875 4498.867188 L 1368.984375 4473.515625 L 1369.6875 4472.890625 L 1373.359375 4469.84375 L 1400.742188 4447.03125 L 1406.328125 4442.5 L 1431.757813 4421.367188 L 1443.984375 4411.445313 L 1462.8125 4395.898438 L 1481.992188 4380.390625 L 1493.828125 4370.625 L 1520.273438 4349.375 L 1524.882813 4345.625 L 1543.710938 4330.546875 L 1555.898438 4320.78125 L 1559.0625 4318.320313 L 1586.953125 4296.132813 L 1598.359375 4287.304688 L 1618.007813 4271.71875 L 1638.085938 4256.25 L 1649.023438 4247.617188 L 1678.28125 4225.234375 L 1680.078125 4223.828125 L 1685.898438 4219.375 L 1711.09375 4200.195313 L 1719.257813 4194.179688 L 1742.148438 4176.875 L 1760.898438 4163.125 L 1773.164063 4153.945313 L 1803.203125 4132.109375 L 1804.21875 4131.328125 L 1806.992188 4129.335938 L 1835.273438 4108.945313 L 1846.5625 4101.054688 L 1866.289063 4086.992188 L 1890.859375 4070.039063 L 1897.34375 4065.46875 L 1911.835938 4055.546875 L 1928.398438 4044.257813 L 1936.367188 4038.984375 L 1959.414063 4023.4375 L 1983.203125 4007.96875 L 1990.46875 4003.125 L 2003.90625 3994.53125 L 2021.484375 3983.242188 L 2031.757813 3976.914063 L 2052.539063 3963.789063 L 2082.148438 3945.898438 L 2083.554688 3944.960938 L 2085.78125 3943.671875 L 2114.609375 3926.523438 L 2135.195313 3914.84375 L 2145.625 3908.75 L 2159.335938 3901.132813 L 2176.679688 3891.523438 L 2191.289063 3883.828125 L 2207.734375 3874.882813 L 2226.09375 3865.429688 L 2238.75 3858.90625 L 2251.445313 3852.773438 L 2269.804688 3843.59375 L 2287.148438 3835.390625 L 2300.859375 3828.984375 L 2317.265625 3821.71875 L 2331.875 3815.078125 L 2343.4375 3810.195313 L 2362.890625 3801.914063 L 2391.40625 3790.703125 L 2393.945313 3789.648438 L 2395.585938 3789.023438 L 2425 3778.007813 L 2444.296875 3771.367188 L 2456.015625 3767.34375 L 2480.664063 3759.648438 L 2487.070313 3757.578125 L 2489.960938 3756.757813 L 2518.125 3748.554688 L 2533.046875 3744.726563 L 2549.140625 3740.546875 L 2573.789063 3735 L 2580.195313 3733.554688 L 2605.703125 3728.59375 L 2611.210938 3727.5 L 2612.539063 3727.265625 L 2642.265625 3722.34375 L 2649.492188 3721.367188 L 2673.28125 3718.203125 L 2684.882813 3717.03125 L 2704.335938 3715.117188 L 2718.828125 3714.140625 L 2735.390625 3713.007813 L 2751.484375 3712.5 L 2766.40625 3711.992188 L 2797.460938 3711.992188 L 2813.515625 3712.539063 L 2828.476563 3713.007813 L 2843.085938 3713.984375 L 2859.53125 3715.117188 L 2871.835938 3716.328125 L 2890.585938 3718.203125 L 2899.765625 3719.414063 L 2921.601563 3722.34375 L 2926.992188 3723.242188 L 2952.65625 3727.5 L 2953.554688 3727.695313 L 2958.164063 3728.59375 L 2979.53125 3732.734375 L 2983.671875 3733.554688 L 3004.960938 3738.359375 L 3014.726563 3740.546875 L 3029.882813 3744.453125 L 3045.742188 3748.554688 L 3054.335938 3751.054688 L 3076.796875 3757.578125 L 3078.359375 3758.085938 L 3083.203125 3759.648438 L 3101.953125 3765.507813 L 3107.8125 3767.34375 L 3125.195313 3773.320313 L 3138.867188 3778.007813 L 3148.085938 3781.484375 L 3169.921875 3789.648438 L 3170.625 3789.960938 L 3172.460938 3790.703125 L 3192.890625 3798.75 L 3200.9375 3801.914063 L 3214.882813 3807.8125 L 3231.992188 3815.078125 L 3236.5625 3817.148438 L 3246.601563 3821.71875 L 3258.007813 3826.757813 L 3263.046875 3828.984375 L 3279.21875 3836.601563 L 3294.0625 3843.59375 L 3300.195313 3846.640625 L 3312.421875 3852.773438 L 3320.976563 3856.914063 L 3325.117188 3858.90625 L 3341.523438 3867.34375 L 3356.132813 3874.882813 L 3361.914063 3878.007813 L 3372.578125 3883.828125 L 3382.148438 3888.828125 L 3387.1875 3891.523438 L 3402.1875 3899.84375 L 3418.203125 3908.75 L 3422.070313 3910.976563 L 3428.671875 3914.84375 L 3441.796875 3922.304688 L 3449.257813 3926.523438 L 3461.367188 3933.75 L 3480.273438 3944.960938 L 3480.859375 3945.3125 L 3481.71875 3945.898438 L 3500.195313 3957.03125 L 3511.328125 3963.789063 L 3519.375 3968.867188 L 3532.109375 3976.914063 L 3538.476563 3980.820313 L 3542.382813 3983.242188 L 3557.421875 3992.890625 L 3573.398438 4003.125 L 3580.664063 4007.96875 L 3595.078125 4017.304688 L 3604.453125 4023.4375 L 3613.75 4029.6875 L 3627.5 4038.984375 L 3632.304688 4042.148438 L 3635.46875 4044.257813 L 3650.78125 4054.726563 L 3666.523438 4065.46875 L 3669.21875 4067.34375 L 3673.007813 4070.039063 L 3687.539063 4080.039063 L 3697.578125 4086.992188 L 3717.265625 4101.054688 L 3723.945313 4105.703125 L 3728.59375 4108.945313 L 3742.03125 4118.671875 L 3759.648438 4131.328125 L 3760.078125 4131.640625 L 3760.664063 4132.109375 L 3778.046875 4144.726563 L 3790.664063 4153.945313 L 3795.9375 4157.890625 L 3802.96875 4163.125 L 3813.789063 4171.054688 L 3821.71875 4176.875 L 3831.5625 4184.335938 L 3844.609375 4194.179688 L 3849.296875 4197.65625 L 3852.734375 4200.195313 L 3866.953125 4211.015625 L 3883.789063 4223.828125 L 3884.570313 4224.453125 L 3885.585938 4225.234375 L 3902.148438 4237.890625 L 3914.84375 4247.617188 L 3919.648438 4251.445313 L 3925.78125 4256.25 L 3937.148438 4265 L 3945.859375 4271.71875 L 3954.53125 4278.59375 L 3965.546875 4287.304688 L 3971.953125 4292.265625 L 3976.914063 4296.132813 L 3989.257813 4305.976563 L 4004.804688 4318.320313 L 4006.5625 4319.726563 L 4007.96875 4320.78125 L 4023.828125 4333.476563 L 4038.984375 4345.625 L 4041.054688 4347.304688 L 4043.59375 4349.375 L 4058.242188 4361.171875 L 4070.039063 4370.625 L 4075.390625 4375.039063 L 4081.875 4380.390625 L 4092.5 4388.984375 L 4101.054688 4395.898438 L 4109.570313 4402.929688 L 4119.882813 4411.445313 L 4126.601563 4416.914063 L 4132.109375 4421.367188 L 4143.632813 4430.9375 L 4157.539063 4442.5 L 4160.625 4445 L 4163.125 4447.03125 L 4177.578125 4459.0625 L 4194.179688 4472.890625 L 4194.492188 4473.203125 L 4194.882813 4473.515625 L 4211.40625 4487.34375 L 4225.195313 4498.867188 L 4228.28125 4501.484375 L 4231.875 4504.570313 L 4245.117188 4515.703125 L 4256.25 4525.039063 L 4261.953125 4529.921875 L 4268.554688 4535.585938 L 4278.710938 4544.140625 L 4287.304688 4551.367188 L 4295.507813 4558.4375 L 4305.078125 4566.640625 L 4312.265625 4572.695313 L 4318.320313 4577.851563 L 4328.984375 4587.03125 L 4341.328125 4597.695313 L 4345.664063 4601.367188 L 4349.375 4604.492188 L 4362.382813 4615.703125 L 4377.382813 4628.710938 L 4380.390625 4631.289063 L 4395.664063 4644.492188 L 4411.445313 4658.164063 L 4412.265625 4658.90625 L 4413.242188 4659.765625 L 4428.90625 4673.359375 L 4442.460938 4685.15625 L 4445.46875 4687.8125 L 4448.828125 4690.78125 L 4462.03125 4702.265625 L 4473.515625 4712.304688 L 4478.554688 4716.757813 L 4484.296875 4721.835938 L 4495.117188 4731.289063 L 4504.570313 4739.53125 L 4511.601563 4745.820313 L 4519.570313 4752.851563 L 4528.125 4760.351563 L 4535.585938 4766.914063 L 4544.609375 4774.921875 L 4554.6875 4783.90625 L 4561.054688 4789.492188 L 4566.640625 4794.375 L 4577.5 4804.0625 L 4589.6875 4814.960938 L 4593.945313 4818.671875 L 4597.695313 4821.953125 L 4610.351563 4833.28125 L 4624.53125 4845.976563 L 4626.757813 4847.929688 L 4628.710938 4849.648438 L 4643.125 4862.578125 L 4659.257813 4877.03125 L 4659.53125 4877.265625 L 4659.765625 4877.460938 L 4675.898438 4891.914063 L 4690.78125 4905.273438 L 4692.226563 4906.601563 L 4693.828125 4908.046875 L 4708.59375 4921.328125 L 4721.835938 4933.203125 L 4724.882813 4936.015625 L 4728.28125 4939.101563 L 4741.210938 4950.742188 L 4752.851563 4961.25 L 4757.539063 4965.507813 L 4762.578125 4970.15625 L 4773.789063 4980.234375 L 4783.90625 4989.335938 L 4790.078125 4995 L 4796.835938 5001.171875 L 4806.328125 5009.765625 L 4814.960938 5017.539063 L 4822.617188 5024.53125 L 4830.976563 5032.226563 L 4838.867188 5039.335938 L 4845.976563 5045.78125 L 4855.078125 5054.140625 L 4865 5063.242188 L 4871.289063 5068.945313 L 4877.03125 5074.140625 L 4887.539063 5083.789063 L 4898.945313 5094.296875 L 4903.710938 5098.632813 L 4908.046875 5102.539063 L 4919.921875 5113.476563 L 4932.8125 5125.3125 L 4936.09375 5128.320313 L 4939.101563 5131.015625 L 4952.304688 5143.164063 L 4966.601563 5156.367188 L 4968.476563 5158.046875 L 4970.15625 5159.570313 L 4984.609375 5172.929688 L 5000.3125 5187.421875 L 5000.78125 5187.8125 L 5001.171875 5188.164063 L 5016.914063 5202.695313 L 5032.226563 5216.835938 L 5033.046875 5217.617188 L 5033.945313 5218.4375 L 5049.179688 5232.539063 L 5063.242188 5245.546875 L 5065.273438 5247.421875 L 5067.460938 5249.492188 L 5081.40625 5262.382813 L 5094.296875 5274.296875 L 5097.5 5277.304688 L 5100.9375 5280.507813 L 5113.59375 5292.265625 L 5125.3125 5303.125 L 5129.6875 5307.1875 L 5134.335938 5311.5625 L 5145.78125 5322.148438 L 5156.367188 5331.992188 L 5161.835938 5337.109375 L 5167.695313 5342.617188 L 5177.890625 5352.109375 L 5187.421875 5360.898438 L 5193.984375 5367.070313 L 5200.976563 5373.632813 L 5210.039063 5382.03125 L 5218.4375 5389.882813 L 5226.054688 5397.03125 L 5234.179688 5404.6875 L 5242.109375 5412.03125 L 5249.492188 5418.90625 L 5258.125 5427.03125 L 5267.34375 5435.703125 L 5274.140625 5442.070313 L 5280.507813 5447.96875 L 5290.195313 5457.070313 L 5300.46875 5466.757813 " transform="matrix(0.1,0,0,-0.1,0,555)"/>
<path style="fill:none;stroke-width:20.8125;stroke-linecap:butt;stroke-linejoin:round;stroke:rgb(0%,0%,100%);stroke-opacity:1;stroke-miterlimit:10;" d="M 2996.71875 5466.757813 L 2997.96875 5452.460938 L 2999.21875 5435.703125 L 3000.703125 5418.671875 L 3001.796875 5404.6875 L 3003.554688 5384.804688 L 3004.453125 5373.632813 L 3006.484375 5350.859375 L 3007.148438 5342.617188 L 3009.453125 5316.796875 L 3009.882813 5311.5625 L 3012.539063 5282.695313 L 3012.734375 5280.507813 L 3014.726563 5259.140625 L 3015.625 5249.492188 L 3015.742188 5248.476563 L 3018.59375 5218.4375 L 3019.0625 5214.101563 L 3021.640625 5187.421875 L 3022.539063 5179.609375 L 3024.804688 5156.367188 L 3026.054688 5145.039063 L 3028.007813 5125.3125 L 3029.6875 5110.351563 L 3031.328125 5094.296875 L 3033.4375 5075.546875 L 3034.726563 5063.242188 L 3037.304688 5040.664063 L 3038.203125 5032.226563 L 3041.289063 5005.625 L 3041.757813 5001.171875 L 3045.429688 4970.46875 L 3045.46875 4970.15625 L 3045.742188 4967.695313 L 3049.257813 4939.101563 L 3049.804688 4935.039063 L 3053.164063 4908.046875 L 3054.335938 4899.453125 L 3057.1875 4877.03125 L 3059.0625 4863.710938 L 3061.328125 4845.976563 L 3063.90625 4827.851563 L 3065.585938 4814.960938 L 3068.945313 4791.757813 L 3069.960938 4783.90625 L 3074.140625 4755.507813 L 3074.492188 4752.851563 L 3076.796875 4737.617188 L 3079.21875 4721.835938 L 3079.6875 4718.945313 L 3084.023438 4690.78125 L 3085.507813 4682.070313 L 3089.023438 4659.765625 L 3091.601563 4644.960938 L 3094.179688 4628.710938 L 3097.890625 4607.617188 L 3099.53125 4597.695313 L 3104.492188 4569.960938 L 3105.039063 4566.640625 L 3107.8125 4551.367188 L 3110.742188 4535.585938 L 3111.523438 4531.914063 L 3116.679688 4504.570313 L 3118.984375 4493.398438 L 3122.8125 4473.515625 L 3126.835938 4454.53125 L 3129.21875 4442.5 L 3135.039063 4415.273438 L 3135.820313 4411.445313 L 3138.867188 4397.5 L 3142.695313 4380.390625 L 3143.90625 4375.351563 L 3149.84375 4349.375 L 3153.4375 4334.804688 L 3157.265625 4318.320313 L 3163.476563 4293.710938 L 3165 4287.304688 L 3169.921875 4268.242188 L 3173.046875 4256.25 L 3174.335938 4251.835938 L 3181.484375 4225.234375 L 3186.210938 4208.90625 L 3190.273438 4194.179688 L 3198.828125 4165.234375 L 3199.453125 4163.125 L 3200.9375 4158.164063 L 3209.023438 4132.109375 L 3213.085938 4119.960938 L 3219.0625 4101.054688 L 3228.476563 4073.554688 L 3229.609375 4070.039063 L 3231.992188 4063.242188 L 3240.664063 4038.984375 L 3246.054688 4024.921875 L 3252.304688 4007.96875 L 3263.046875 3980.585938 L 3264.492188 3976.914063 L 3265.625 3974.335938 L 3277.382813 3945.898438 L 3288.632813 3920.273438 L 3290.9375 3914.84375 L 3294.0625 3907.929688 L 3305.273438 3883.828125 L 3316.171875 3861.679688 L 3320.46875 3852.773438 L 3325.117188 3843.59375 L 3336.523438 3821.71875 L 3350.625 3796.210938 L 3353.59375 3790.703125 L 3356.132813 3786.210938 L 3371.71875 3759.648438 L 3387.1875 3734.726563 L 3391.09375 3728.59375 L 3399.0625 3716.71875 L 3411.71875 3697.578125 L 3418.203125 3688.242188 L 3433.828125 3666.523438 L 3449.257813 3646.054688 L 3457.539063 3635.507813 L 3480.273438 3607.65625 L 3483.046875 3604.453125 L 3504.375 3580.351563 L 3510.507813 3573.4375 L 3511.328125 3572.539063 L 3540.234375 3542.382813 L 3542.382813 3540.273438 L 3572.539063 3511.367188 L 3573.398438 3510.546875 L 3580.351563 3504.414063 L 3604.453125 3483.046875 L 3607.65625 3480.3125 L 3635.46875 3457.539063 L 3646.054688 3449.257813 L 3666.523438 3433.828125 L 3688.242188 3418.242188 L 3697.578125 3411.757813 L 3716.71875 3399.0625 L 3728.59375 3391.09375 L 3734.6875 3387.1875 L 3759.648438 3371.757813 L 3786.210938 3356.171875 L 3790.664063 3353.59375 L 3796.210938 3350.625 L 3821.71875 3336.523438 L 3843.59375 3325.117188 L 3852.734375 3320.46875 L 3861.640625 3316.210938 L 3883.789063 3305.273438 L 3907.929688 3294.0625 L 3914.84375 3290.976563 L 3920.273438 3288.632813 L 3945.859375 3277.382813 L 3974.335938 3265.625 L 3976.914063 3264.492188 L 3980.585938 3263.046875 L 4007.96875 3252.304688 L 4024.921875 3246.054688 L 4038.984375 3240.703125 L 4063.242188 3231.992188 L 4070.039063 3229.648438 L 4073.554688 3228.476563 L 4101.054688 3219.101563 L 4119.960938 3213.085938 L 4132.109375 3209.0625 L 4158.125 3200.976563 L 4163.125 3199.453125 L 4165.234375 3198.867188 L 4194.179688 3190.273438 L 4208.90625 3186.210938 L 4225.195313 3181.484375 L 4251.835938 3174.335938 L 4256.25 3173.085938 L 4268.242188 3169.921875 L 4287.304688 3165 L 4293.710938 3163.476563 L 4318.320313 3157.265625 L 4334.804688 3153.4375 L 4349.375 3149.84375 L 4375.351563 3143.90625 L 4380.390625 3142.695313 L 4397.5 3138.90625 L 4411.445313 3135.820313 L 4415.273438 3135.078125 L 4442.460938 3129.21875 L 4454.492188 3126.875 L 4473.515625 3122.851563 L 4493.398438 3119.023438 L 4504.570313 3116.71875 L 4531.914063 3111.523438 L 4535.585938 3110.78125 L 4551.367188 3107.851563 L 4566.640625 3105.078125 L 4569.960938 3104.492188 L 4597.695313 3099.53125 L 4607.617188 3097.929688 L 4628.710938 3094.21875 L 4644.960938 3091.601563 L 4659.765625 3089.023438 L 4682.070313 3085.507813 L 4690.78125 3084.023438 L 4718.945313 3079.6875 L 4721.835938 3079.21875 L 4737.617188 3076.796875 L 4752.851563 3074.53125 L 4755.507813 3074.179688 L 4783.90625 3069.960938 L 4791.757813 3068.945313 L 4814.960938 3065.585938 L 4827.851563 3063.90625 L 4845.976563 3061.328125 L 4863.710938 3059.0625 L 4877.03125 3057.1875 L 4899.453125 3054.375 L 4908.046875 3053.164063 L 4935.039063 3049.804688 L 4939.101563 3049.257813 L 4967.695313 3045.78125 L 4970.15625 3045.46875 L 4970.46875 3045.429688 L 5001.171875 3041.796875 L 5005.625 3041.328125 L 5032.226563 3038.203125 L 5040.664063 3037.34375 L 5063.242188 3034.726563 L 5075.546875 3033.476563 L 5094.296875 3031.328125 L 5110.351563 3029.6875 L 5125.3125 3028.007813 L 5145.039063 3026.054688 L 5156.367188 3024.804688 L 5179.609375 3022.539063 L 5187.421875 3021.679688 L 5214.0625 3019.101563 L 5218.4375 3018.632813 L 5248.4375 3015.742188 L 5249.492188 3015.625 L 5259.140625 3014.726563 L 5280.507813 3012.734375 L 5282.695313 3012.578125 L 5311.5625 3009.882813 L 5316.796875 3009.492188 L 5342.617188 3007.148438 L 5350.820313 3006.484375 L 5373.632813 3004.453125 L 5384.765625 3003.59375 L 5404.6875 3001.835938 L 5418.671875 3000.742188 L 5435.703125 2999.257813 L 5452.460938 2997.96875 L 5466.757813 2996.71875 " transform="matrix(0.1,0,0,-0.1,0,555)"/>
<g clip-path="url(#clip2)" clip-rule="nonzero">
<path style="fill:none;stroke-width:20.8125;stroke-linecap:butt;stroke-linejoin:round;stroke:rgb(0%,0%,100%);stroke-opacity:1;stroke-miterlimit:10;" d="M 97.109375 2567.148438 L 111.40625 2565.9375 L 128.164063 2564.648438 L 145.195313 2563.164063 L 159.21875 2562.070313 L 179.101563 2560.3125 L 190.234375 2559.453125 L 213.046875 2557.382813 L 221.289063 2556.757813 L 247.070313 2554.414063 L 252.304688 2553.984375 L 281.171875 2551.328125 L 283.359375 2551.171875 L 304.765625 2549.140625 L 314.375 2548.242188 L 315.390625 2548.125 L 345.429688 2545.273438 L 349.804688 2544.804688 L 376.484375 2542.226563 L 384.257813 2541.367188 L 407.5 2539.0625 L 418.828125 2537.8125 L 438.554688 2535.859375 L 453.515625 2534.179688 L 469.570313 2532.578125 L 488.320313 2530.429688 L 500.625 2529.140625 L 523.242188 2526.5625 L 531.640625 2525.664063 L 558.242188 2522.578125 L 562.695313 2522.109375 L 593.398438 2518.4375 L 593.75 2518.398438 L 596.171875 2518.125 L 624.765625 2514.609375 L 628.828125 2514.0625 L 655.820313 2510.703125 L 664.414063 2509.53125 L 686.835938 2506.71875 L 700.15625 2504.804688 L 717.890625 2502.578125 L 736.054688 2499.960938 L 748.945313 2498.28125 L 772.109375 2494.921875 L 779.960938 2493.90625 L 808.359375 2489.726563 L 811.015625 2489.375 L 826.25 2487.070313 L 842.03125 2484.6875 L 844.921875 2484.21875 L 873.085938 2479.84375 L 881.796875 2478.359375 L 904.101563 2474.84375 L 918.90625 2472.304688 L 935.15625 2469.6875 L 956.289063 2465.976563 L 966.210938 2464.335938 L 993.90625 2459.375 L 997.226563 2458.828125 L 1012.539063 2456.054688 L 1028.28125 2453.125 L 1031.953125 2452.34375 L 1059.296875 2447.1875 L 1070.46875 2444.882813 L 1090.351563 2441.054688 L 1109.375 2437.03125 L 1121.40625 2434.6875 L 1148.59375 2428.828125 L 1152.421875 2428.046875 L 1166.367188 2425 L 1183.476563 2421.171875 L 1188.515625 2419.960938 L 1214.492188 2414.023438 L 1229.0625 2410.429688 L 1245.546875 2406.601563 L 1270.15625 2400.390625 L 1276.5625 2398.867188 L 1295.625 2393.945313 L 1307.617188 2390.820313 L 1312.03125 2389.53125 L 1338.671875 2382.382813 L 1354.960938 2377.65625 L 1369.6875 2373.59375 L 1398.632813 2365.039063 L 1400.742188 2364.453125 L 1405.703125 2362.929688 L 1431.757813 2354.84375 L 1443.90625 2350.78125 L 1462.8125 2344.804688 L 1490.3125 2335.390625 L 1493.828125 2334.257813 L 1500.625 2331.875 L 1524.882813 2323.203125 L 1538.945313 2317.8125 L 1555.898438 2311.601563 L 1583.28125 2300.859375 L 1586.953125 2299.375 L 1589.53125 2298.28125 L 1618.007813 2286.484375 L 1643.59375 2275.234375 L 1649.023438 2272.929688 L 1655.9375 2269.804688 L 1680.078125 2258.59375 L 1702.1875 2247.695313 L 1711.09375 2243.4375 L 1720.273438 2238.789063 L 1742.148438 2227.34375 L 1767.65625 2213.242188 L 1773.164063 2210.273438 L 1777.65625 2207.734375 L 1804.21875 2192.148438 L 1829.179688 2176.71875 L 1835.273438 2172.8125 L 1847.148438 2164.804688 L 1866.289063 2152.148438 L 1875.664063 2145.664063 L 1897.34375 2130.039063 L 1917.8125 2114.609375 L 1928.398438 2106.367188 L 1956.210938 2083.59375 L 1959.414063 2080.859375 L 1983.515625 2059.492188 L 1990.46875 2053.359375 L 1991.328125 2052.539063 L 2021.484375 2023.632813 L 2023.59375 2021.484375 L 2052.539063 1991.367188 L 2053.359375 1990.46875 L 2059.453125 1983.554688 L 2080.820313 1959.414063 L 2083.554688 1956.210938 L 2106.328125 1928.398438 L 2114.609375 1917.8125 L 2130.039063 1897.34375 L 2145.625 1875.664063 L 2152.148438 1866.328125 L 2164.804688 1847.148438 L 2172.773438 1835.273438 L 2176.679688 1829.179688 L 2192.148438 1804.21875 L 2207.734375 1777.695313 L 2210.273438 1773.203125 L 2213.242188 1767.695313 L 2227.34375 1742.148438 L 2238.75 1720.273438 L 2243.398438 1711.132813 L 2247.695313 1702.226563 L 2258.59375 1680.078125 L 2269.804688 1655.9375 L 2272.929688 1649.023438 L 2275.234375 1643.632813 L 2286.484375 1618.007813 L 2298.242188 1589.53125 L 2299.375 1586.953125 L 2300.859375 1583.28125 L 2311.5625 1555.9375 L 2317.8125 1538.945313 L 2323.203125 1524.882813 L 2331.875 1500.625 L 2334.257813 1493.867188 L 2335.390625 1490.351563 L 2344.765625 1462.8125 L 2350.78125 1443.90625 L 2354.804688 1431.757813 L 2362.890625 1405.742188 L 2364.414063 1400.742188 L 2365.039063 1398.632813 L 2373.59375 1369.6875 L 2377.65625 1354.960938 L 2382.382813 1338.671875 L 2389.53125 1312.03125 L 2390.78125 1307.617188 L 2393.945313 1295.625 L 2398.867188 1276.5625 L 2400.390625 1270.15625 L 2406.601563 1245.546875 L 2410.429688 1229.0625 L 2414.023438 1214.492188 L 2419.960938 1188.515625 L 2421.171875 1183.476563 L 2425 1166.40625 L 2428.046875 1152.421875 L 2428.789063 1148.59375 L 2434.648438 1121.40625 L 2437.03125 1109.375 L 2441.015625 1090.351563 L 2444.84375 1070.46875 L 2447.1875 1059.335938 L 2452.34375 1031.953125 L 2453.085938 1028.28125 L 2456.015625 1012.539063 L 2458.828125 997.226563 L 2459.375 993.90625 L 2464.335938 966.210938 L 2465.9375 956.289063 L 2469.6875 935.15625 L 2472.265625 918.90625 L 2474.84375 904.101563 L 2478.359375 881.796875 L 2479.84375 873.085938 L 2484.179688 844.921875 L 2484.648438 842.03125 L 2487.070313 826.289063 L 2489.375 811.015625 L 2489.6875 808.359375 L 2493.90625 779.960938 L 2494.921875 772.109375 L 2498.28125 748.945313 L 2499.960938 736.054688 L 2502.539063 717.890625 L 2504.804688 700.15625 L 2506.679688 686.835938 L 2509.53125 664.414063 L 2510.703125 655.820313 L 2514.0625 628.828125 L 2514.609375 624.765625 L 2518.125 596.210938 L 2518.398438 593.75 L 2518.4375 593.4375 L 2522.109375 562.695313 L 2522.578125 558.28125 L 2525.664063 531.679688 L 2526.523438 523.242188 L 2529.140625 500.625 L 2530.390625 488.320313 L 2532.539063 469.570313 L 2534.179688 453.515625 L 2535.859375 438.554688 L 2537.8125 418.828125 L 2539.0625 407.5 L 2541.328125 384.257813 L 2542.226563 376.484375 L 2544.804688 349.804688 L 2545.273438 345.429688 L 2548.125 315.429688 L 2548.242188 314.414063 L 2549.140625 304.765625 L 2551.132813 283.359375 L 2551.328125 281.171875 L 2553.984375 252.304688 L 2554.375 247.070313 L 2556.71875 221.289063 L 2557.382813 213.046875 L 2559.414063 190.234375 L 2560.3125 179.101563 L 2562.070313 159.21875 L 2563.125 145.234375 L 2564.648438 128.164063 L 2565.898438 111.40625 L 2567.148438 97.109375 " transform="matrix(0.1,0,0,-0.1,0,555)"/>
</g>
<path style="fill:none;stroke-width:13.875;stroke-linecap:butt;stroke-linejoin:round;stroke:rgb(0%,0%,0%);stroke-opacity:1;stroke-miterlimit:10;" d="M 97.109375 2781.953125 L 5466.757813 2781.953125 " transform="matrix(0.1,0,0,-0.1,0,555)"/>
<path style=" stroke:none;fill-rule:nonzero;fill:rgb(0%,0%,0%);fill-opacity:1;" d="M 411.523438 319.644531 C 411.855469 319.992188 412.109375 320.347656 412.28125 320.707031 C 412.410156 320.9375 412.613281 321.574219 412.890625 322.613281 L 413.777344 321.269531 C 414.007813 320.953125 414.296875 320.644531 414.632813 320.347656 C 414.972656 320.054688 415.273438 319.847656 415.535156 319.730469 C 415.695313 319.671875 415.875 319.644531 416.078125 319.644531 C 416.363281 319.644531 416.597656 319.71875 416.769531 319.871094 C 416.945313 320.023438 417.03125 320.214844 417.03125 320.445313 C 417.03125 320.707031 416.980469 320.878906 416.878906 320.96875 C 416.691406 321.140625 416.472656 321.226563 416.226563 321.226563 C 416.085938 321.226563 415.929688 321.199219 415.773438 321.140625 C 415.453125 321.023438 415.238281 320.96875 415.121094 320.96875 C 414.964844 320.96875 414.773438 321.0625 414.558594 321.25 C 414.140625 321.609375 413.632813 322.296875 413.039063 323.308594 L 413.886719 326.800781 C 414.015625 327.335938 414.125 327.652344 414.210938 327.753906 C 414.296875 327.855469 414.386719 327.90625 414.472656 327.90625 C 414.617188 327.90625 414.78125 327.832031 414.972656 327.6875 C 415.347656 327.371094 415.664063 326.957031 415.925781 326.453125 L 416.269531 326.644531 C 415.851563 327.441406 415.308594 328.109375 414.644531 328.640625 C 414.285156 328.929688 413.972656 329.074219 413.710938 329.074219 C 413.320313 329.074219 413.019531 328.863281 412.800781 328.445313 C 412.65625 328.171875 412.359375 327.03125 411.914063 325.023438 C 410.859375 326.855469 410.011719 328.042969 409.375 328.578125 C 408.957031 328.910156 408.5625 329.074219 408.183594 329.074219 C 407.910156 329.074219 407.65625 328.980469 407.425781 328.792969 C 407.265625 328.636719 407.1875 328.433594 407.1875 328.1875 C 407.1875 327.96875 407.261719 327.785156 407.414063 327.632813 C 407.566406 327.480469 407.753906 327.40625 407.96875 327.40625 C 408.183594 327.40625 408.414063 327.515625 408.660156 327.730469 C 408.835938 327.890625 408.972656 327.96875 409.074219 327.96875 C 409.144531 327.96875 409.246094 327.910156 409.375 327.796875 C 409.695313 327.535156 410.128906 326.980469 410.679688 326.125 C 411.226563 325.273438 411.589844 324.660156 411.761719 324.285156 C 411.34375 322.636719 411.109375 321.769531 411.066406 321.683594 C 410.921875 321.234375 410.726563 320.921875 410.472656 320.738281 C 410.21875 320.558594 409.847656 320.46875 409.355469 320.46875 C 409.195313 320.46875 409.015625 320.476563 408.8125 320.488281 L 408.8125 320.121094 L 411.523438 319.644531 "/>
<path style="fill:none;stroke-width:13.875;stroke-linecap:square;stroke-linejoin:miter;stroke:rgb(0%,0%,0%);stroke-opacity:1;stroke-miterlimit:10;" d="M 634.101563 2781.953125 L 634.101563 2726.445313 " transform="matrix(0.1,0,0,-0.1,0,555)"/>
<g clip-path="url(#clip3)" clip-rule="nonzero">
<path style=" stroke:none;fill-rule:nonzero;fill:rgb(0%,0%,0%);fill-opacity:1;" d="M 68.617188 298.160156 L 54.871094 298.160156 L 54.871094 297.074219 L 68.617188 297.074219 L 68.617188 298.160156 "/>
</g>
<path style=" stroke:none;fill-rule:nonzero;fill:rgb(0%,0%,0%);fill-opacity:1;" d="M 74.902344 298.789063 L 74.902344 300.21875 L 73.039063 300.21875 L 73.039063 303.863281 L 71.371094 303.863281 L 71.371094 300.21875 L 65.539063 300.21875 L 65.539063 298.917969 L 71.933594 289.792969 L 73.039063 289.792969 L 73.039063 298.789063 Z M 71.371094 298.789063 L 71.371094 291.9375 L 66.535156 298.789063 Z M 71.371094 298.789063 "/>
<path style="fill:none;stroke-width:13.875;stroke-linecap:square;stroke-linejoin:miter;stroke:rgb(0%,0%,0%);stroke-opacity:1;stroke-miterlimit:10;" d="M 1708.007813 2781.953125 L 1708.007813 2726.445313 " transform="matrix(0.1,0,0,-0.1,0,555)"/>
<g clip-path="url(#clip4)" clip-rule="nonzero">
<path style=" stroke:none;fill-rule:nonzero;fill:rgb(0%,0%,0%);fill-opacity:1;" d="M 176.839844 298.160156 L 163.09375 298.160156 L 163.09375 297.074219 L 176.839844 297.074219 L 176.839844 298.160156 "/>
</g>
<path style=" stroke:none;fill-rule:nonzero;fill:rgb(0%,0%,0%);fill-opacity:1;" d="M 182.976563 301.214844 L 182.023438 303.863281 L 173.894531 303.863281 L 173.894531 303.492188 C 176.277344 301.3125 177.957031 299.527344 178.933594 298.140625 C 179.910156 296.753906 180.394531 295.484375 180.394531 294.34375 C 180.394531 293.476563 180.128906 292.761719 179.59375 292.199219 C 179.058594 291.632813 178.414063 291.351563 177.664063 291.351563 C 177 291.351563 176.394531 291.550781 175.855469 291.949219 C 175.3125 292.347656 174.910156 292.929688 174.652344 293.691406 L 174.28125 293.691406 C 174.457031 292.4375 174.894531 291.472656 175.59375 290.800781 C 176.296875 290.128906 177.164063 289.792969 178.207031 289.792969 C 179.335938 289.792969 180.269531 290.152344 181.011719 290.875 C 181.757813 291.597656 182.128906 292.441406 182.128906 293.410156 C 182.128906 294.105469 181.972656 294.808594 181.652344 295.515625 C 181.148438 296.613281 180.328125 297.769531 179.203125 298.984375 C 177.527344 300.835938 176.472656 301.945313 176.039063 302.320313 L 179.636719 302.320313 C 180.375 302.320313 180.890625 302.296875 181.1875 302.246094 C 181.484375 302.195313 181.753906 302.089844 181.988281 301.921875 C 182.226563 301.753906 182.433594 301.519531 182.605469 301.214844 L 182.976563 301.214844 "/>
<path style="fill:none;stroke-width:13.875;stroke-linecap:square;stroke-linejoin:miter;stroke:rgb(0%,0%,0%);stroke-opacity:1;stroke-miterlimit:10;" d="M 2781.953125 2781.953125 L 2781.953125 2726.445313 " transform="matrix(0.1,0,0,-0.1,0,555)"/>
<path style=" stroke:none;fill-rule:nonzero;fill:rgb(0%,0%,0%);fill-opacity:1;" d="M 265.769531 294.277344 C 265.769531 292.703125 266.007813 291.347656 266.476563 290.214844 C 266.945313 289.078125 267.578125 288.238281 268.371094 287.6875 C 268.980469 287.238281 269.609375 287.015625 270.257813 287.015625 C 271.3125 287.015625 272.261719 287.558594 273.097656 288.644531 C 274.152344 289.972656 274.679688 291.777344 274.679688 294.0625 C 274.679688 295.664063 274.449219 297.023438 273.988281 298.140625 C 273.523438 299.253906 272.933594 300.0625 272.222656 300.566406 C 271.503906 301.070313 270.816406 301.324219 270.148438 301.324219 C 268.835938 301.324219 267.742188 300.550781 266.875 299.007813 C 266.140625 297.691406 265.769531 296.113281 265.769531 294.277344 Z M 267.765625 294.539063 C 267.765625 296.433594 267.996094 297.980469 268.460938 299.179688 C 268.847656 300.191406 269.429688 300.695313 270.191406 300.695313 C 270.554688 300.695313 270.929688 300.53125 271.320313 300.199219 C 271.710938 299.863281 272.007813 299.316406 272.210938 298.550781 C 272.527344 297.378906 272.6875 295.730469 272.6875 293.605469 C 272.6875 292.046875 272.519531 290.738281 272.1875 289.683594 C 271.957031 288.902344 271.644531 288.351563 271.257813 288.035156 C 270.980469 287.804688 270.640625 287.6875 270.234375 287.6875 C 269.789063 287.6875 269.382813 287.898438 269.023438 288.316406 C 268.53125 288.882813 268.199219 289.765625 268.023438 290.972656 C 267.851563 292.179688 267.765625 293.367188 267.765625 294.539063 "/>
<path style="fill:none;stroke-width:13.875;stroke-linecap:square;stroke-linejoin:miter;stroke:rgb(0%,0%,0%);stroke-opacity:1;stroke-miterlimit:10;" d="M 3855.859375 2781.953125 L 3855.859375 2726.445313 " transform="matrix(0.1,0,0,-0.1,0,555)"/>
<path style=" stroke:none;fill-rule:nonzero;fill:rgb(0%,0%,0%);fill-opacity:1;" d="M 389.714844 301.214844 L 388.757813 303.863281 L 380.628906 303.863281 L 380.628906 303.492188 C 383.015625 301.3125 384.695313 299.527344 385.671875 298.140625 C 386.644531 296.753906 387.132813 295.484375 387.132813 294.34375 C 387.132813 293.476563 386.867188 292.761719 386.332031 292.199219 C 385.796875 291.632813 385.152344 291.351563 384.402344 291.351563 C 383.738281 291.351563 383.132813 291.550781 382.59375 291.949219 C 382.050781 292.347656 381.648438 292.929688 381.390625 293.691406 L 381.019531 293.691406 C 381.191406 292.4375 381.628906 291.472656 382.332031 290.800781 C 383.03125 290.128906 383.902344 289.792969 384.945313 289.792969 C 386.070313 289.792969 387.007813 290.152344 387.75 290.875 C 388.496094 291.597656 388.867188 292.441406 388.867188 293.410156 C 388.867188 294.105469 388.710938 294.808594 388.390625 295.515625 C 387.886719 296.613281 387.066406 297.769531 385.941406 298.984375 C 384.265625 300.835938 383.210938 301.945313 382.777344 302.320313 L 386.375 302.320313 C 387.113281 302.320313 387.628906 302.296875 387.925781 302.246094 C 388.222656 302.195313 388.488281 302.089844 388.726563 301.921875 C 388.964844 301.753906 389.171875 301.519531 389.34375 301.214844 L 389.714844 301.214844 "/>
<path style="fill:none;stroke-width:13.875;stroke-linecap:square;stroke-linejoin:miter;stroke:rgb(0%,0%,0%);stroke-opacity:1;stroke-miterlimit:10;" d="M 4929.804688 2781.953125 L 4929.804688 2726.445313 " transform="matrix(0.1,0,0,-0.1,0,555)"/>
<path style=" stroke:none;fill-rule:nonzero;fill:rgb(0%,0%,0%);fill-opacity:1;" d="M 498.089844 298.789063 L 498.089844 300.21875 L 496.226563 300.21875 L 496.226563 303.863281 L 494.554688 303.863281 L 494.554688 300.21875 L 488.726563 300.21875 L 488.726563 298.917969 L 495.121094 289.792969 L 496.226563 289.792969 L 496.226563 298.789063 Z M 494.554688 298.789063 L 494.554688 291.9375 L 489.722656 298.789063 Z M 494.554688 298.789063 "/>
<path style="fill:none;stroke-width:13.875;stroke-linecap:square;stroke-linejoin:miter;stroke:rgb(0%,0%,0%);stroke-opacity:1;stroke-miterlimit:10;" d="M 97.109375 2781.953125 L 97.109375 2754.179688 " transform="matrix(0.1,0,0,-0.1,0,555)"/>
<path style="fill:none;stroke-width:13.875;stroke-linecap:square;stroke-linejoin:miter;stroke:rgb(0%,0%,0%);stroke-opacity:1;stroke-miterlimit:10;" d="M 1171.054688 2781.953125 L 1171.054688 2754.179688 " transform="matrix(0.1,0,0,-0.1,0,555)"/>
<path style="fill:none;stroke-width:13.875;stroke-linecap:square;stroke-linejoin:miter;stroke:rgb(0%,0%,0%);stroke-opacity:1;stroke-miterlimit:10;" d="M 2244.960938 2781.953125 L 2244.960938 2754.179688 " transform="matrix(0.1,0,0,-0.1,0,555)"/>
<path style="fill:none;stroke-width:13.875;stroke-linecap:square;stroke-linejoin:miter;stroke:rgb(0%,0%,0%);stroke-opacity:1;stroke-miterlimit:10;" d="M 3318.90625 2781.953125 L 3318.90625 2754.179688 " transform="matrix(0.1,0,0,-0.1,0,555)"/>
<path style="fill:none;stroke-width:13.875;stroke-linecap:square;stroke-linejoin:miter;stroke:rgb(0%,0%,0%);stroke-opacity:1;stroke-miterlimit:10;" d="M 4392.8125 2781.953125 L 4392.8125 2754.179688 " transform="matrix(0.1,0,0,-0.1,0,555)"/>
<path style="fill:none;stroke-width:13.875;stroke-linecap:square;stroke-linejoin:miter;stroke:rgb(0%,0%,0%);stroke-opacity:1;stroke-miterlimit:10;" d="M 5466.757813 2781.953125 L 5466.757813 2754.179688 " transform="matrix(0.1,0,0,-0.1,0,555)"/>
<path style="fill:none;stroke-width:13.875;stroke-linecap:butt;stroke-linejoin:round;stroke:rgb(0%,0%,0%);stroke-opacity:1;stroke-miterlimit:10;" d="M 2781.953125 97.109375 L 2781.953125 5466.757813 " transform="matrix(0.1,0,0,-0.1,0,555)"/>
<g clip-path="url(#clip5)" clip-rule="nonzero">
<path style=" stroke:none;fill-rule:nonzero;fill:rgb(0%,0%,0%);fill-opacity:1;" d="M 228.089844 140.65625 C 228.324219 141.046875 228.480469 141.414063 228.566406 141.753906 C 228.652344 142.09375 228.75 142.769531 228.851563 143.78125 L 229.285156 148.765625 C 229.6875 148.289063 230.28125 147.515625 231.0625 146.445313 C 231.421875 145.941406 231.878906 145.238281 232.425781 144.34375 C 232.761719 143.808594 232.96875 143.433594 233.054688 143.214844 C 233.085938 143.101563 233.101563 142.984375 233.101563 142.867188 C 233.101563 142.796875 233.078125 142.738281 233.035156 142.695313 C 232.988281 142.652344 232.867188 142.597656 232.664063 142.53125 C 232.464844 142.46875 232.296875 142.347656 232.167969 142.175781 C 232.035156 142.003906 231.972656 141.800781 231.972656 141.566406 C 231.972656 141.292969 232.050781 141.074219 232.210938 140.90625 C 232.371094 140.742188 232.570313 140.65625 232.816406 140.65625 C 233.121094 140.65625 233.378906 140.78125 233.585938 141.027344 C 233.796875 141.273438 233.902344 141.613281 233.902344 142.046875 C 233.902344 142.578125 233.71875 143.191406 233.347656 143.878906 C 232.980469 144.5625 232.277344 145.617188 231.234375 147.042969 C 230.195313 148.464844 228.929688 150.015625 227.441406 151.691406 C 226.429688 152.847656 225.675781 153.578125 225.175781 153.882813 C 224.675781 154.1875 224.253906 154.335938 223.90625 154.335938 C 223.691406 154.335938 223.503906 154.257813 223.34375 154.097656 C 223.183594 153.9375 223.105469 153.757813 223.105469 153.554688 C 223.105469 153.28125 223.21875 153.035156 223.441406 152.820313 C 223.664063 152.601563 223.898438 152.496094 224.144531 152.496094 C 224.289063 152.496094 224.40625 152.53125 224.492188 152.601563 C 224.550781 152.632813 224.609375 152.726563 224.675781 152.882813 C 224.742188 153.042969 224.796875 153.152344 224.839844 153.210938 C 224.882813 153.238281 224.925781 153.253906 224.96875 153.253906 C 225.011719 153.253906 225.085938 153.21875 225.1875 153.144531 C 225.5625 152.914063 225.996094 152.550781 226.488281 152.058594 C 227.136719 151.394531 227.613281 150.855469 227.917969 150.433594 L 227.355469 143.996094 C 227.265625 142.925781 227.128906 142.277344 226.929688 142.046875 C 226.738281 141.8125 226.414063 141.699219 225.96875 141.699219 C 225.824219 141.699219 225.570313 141.71875 225.207031 141.761719 L 225.121094 141.394531 L 228.089844 140.65625 "/>
</g>
<path style="fill:none;stroke-width:13.875;stroke-linecap:square;stroke-linejoin:miter;stroke:rgb(0%,0%,0%);stroke-opacity:1;stroke-miterlimit:10;" d="M 2781.953125 634.101563 L 2726.445313 634.101563 " transform="matrix(0.1,0,0,-0.1,0,555)"/>
<g clip-path="url(#clip6)" clip-rule="nonzero">
<path style=" stroke:none;fill-rule:nonzero;fill:rgb(0%,0%,0%);fill-opacity:1;" d="M 261.480469 493.796875 L 247.730469 493.796875 L 247.730469 492.714844 L 261.480469 492.714844 L 261.480469 493.796875 "/>
</g>
<path style=" stroke:none;fill-rule:nonzero;fill:rgb(0%,0%,0%);fill-opacity:1;" d="M 267.765625 494.425781 L 267.765625 495.859375 L 265.898438 495.859375 L 265.898438 499.5 L 264.230469 499.5 L 264.230469 495.859375 L 258.398438 495.859375 L 258.398438 494.554688 L 264.796875 485.429688 L 265.898438 485.429688 L 265.898438 494.425781 Z M 264.230469 494.425781 L 264.230469 487.574219 L 259.398438 494.425781 Z M 264.230469 494.425781 "/>
<path style="fill:none;stroke-width:13.875;stroke-linecap:square;stroke-linejoin:miter;stroke:rgb(0%,0%,0%);stroke-opacity:1;stroke-miterlimit:10;" d="M 2781.953125 1708.007813 L 2726.445313 1708.007813 " transform="matrix(0.1,0,0,-0.1,0,555)"/>
<g clip-path="url(#clip7)" clip-rule="nonzero">
<path style=" stroke:none;fill-rule:nonzero;fill:rgb(0%,0%,0%);fill-opacity:1;" d="M 261.480469 385.570313 L 247.730469 385.570313 L 247.730469 384.488281 L 261.480469 384.488281 L 261.480469 385.570313 "/>
</g>
<path style=" stroke:none;fill-rule:nonzero;fill:rgb(0%,0%,0%);fill-opacity:1;" d="M 267.613281 388.628906 L 266.660156 391.273438 L 258.53125 391.273438 L 258.53125 390.90625 C 260.914063 388.722656 262.59375 386.9375 263.570313 385.550781 C 264.546875 384.164063 265.03125 382.898438 265.03125 381.757813 C 265.03125 380.890625 264.765625 380.175781 264.230469 379.609375 C 263.695313 379.046875 263.054688 378.765625 262.300781 378.765625 C 261.636719 378.765625 261.03125 378.964844 260.492188 379.363281 C 259.949219 379.757813 259.546875 380.339844 259.289063 381.105469 L 258.921875 381.105469 C 259.09375 379.847656 259.53125 378.886719 260.230469 378.210938 C 260.933594 377.539063 261.804688 377.203125 262.84375 377.203125 C 263.972656 377.203125 264.90625 377.566406 265.652344 378.289063 C 266.394531 379.011719 266.769531 379.855469 266.769531 380.824219 C 266.769531 381.519531 266.609375 382.21875 266.289063 382.929688 C 265.785156 384.027344 264.96875 385.183594 263.839844 386.394531 C 262.164063 388.246094 261.109375 389.359375 260.675781 389.734375 L 264.273438 389.734375 C 265.011719 389.734375 265.527344 389.710938 265.824219 389.660156 C 266.121094 389.609375 266.390625 389.5 266.628906 389.335938 C 266.863281 389.167969 267.070313 388.933594 267.246094 388.628906 L 267.613281 388.628906 "/>
<path style="fill:none;stroke-width:13.875;stroke-linecap:square;stroke-linejoin:miter;stroke:rgb(0%,0%,0%);stroke-opacity:1;stroke-miterlimit:10;" d="M 2781.953125 2781.953125 L 2726.445313 2781.953125 " transform="matrix(0.1,0,0,-0.1,0,555)"/>
<path style="fill:none;stroke-width:13.875;stroke-linecap:square;stroke-linejoin:miter;stroke:rgb(0%,0%,0%);stroke-opacity:1;stroke-miterlimit:10;" d="M 2781.953125 3855.859375 L 2726.445313 3855.859375 " transform="matrix(0.1,0,0,-0.1,0,555)"/>
<path style=" stroke:none;fill-rule:nonzero;fill:rgb(0%,0%,0%);fill-opacity:1;" d="M 267.613281 174.953125 L 266.660156 177.601563 L 258.53125 177.601563 L 258.53125 177.230469 C 260.914063 175.046875 262.59375 173.265625 263.570313 171.878906 C 264.546875 170.488281 265.03125 169.222656 265.03125 168.082031 C 265.03125 167.214844 264.765625 166.5 264.230469 165.933594 C 263.695313 165.371094 263.054688 165.089844 262.300781 165.089844 C 261.636719 165.089844 261.03125 165.289063 260.492188 165.6875 C 259.949219 166.085938 259.546875 166.664063 259.289063 167.429688 L 258.921875 167.429688 C 259.09375 166.175781 259.53125 165.210938 260.230469 164.535156 C 260.933594 163.863281 261.804688 163.527344 262.84375 163.527344 C 263.972656 163.527344 264.90625 163.890625 265.652344 164.613281 C 266.394531 165.335938 266.769531 166.179688 266.769531 167.148438 C 266.769531 167.84375 266.609375 168.546875 266.289063 169.253906 C 265.785156 170.351563 264.96875 171.507813 263.839844 172.722656 C 262.164063 174.570313 261.109375 175.683594 260.675781 176.058594 L 264.273438 176.058594 C 265.011719 176.058594 265.527344 176.035156 265.824219 175.984375 C 266.121094 175.933594 266.390625 175.824219 266.628906 175.660156 C 266.863281 175.492188 267.070313 175.257813 267.246094 174.953125 L 267.613281 174.953125 "/>
<path style="fill:none;stroke-width:13.875;stroke-linecap:square;stroke-linejoin:miter;stroke:rgb(0%,0%,0%);stroke-opacity:1;stroke-miterlimit:10;" d="M 2781.953125 4929.804688 L 2726.445313 4929.804688 " transform="matrix(0.1,0,0,-0.1,0,555)"/>
<path style=" stroke:none;fill-rule:nonzero;fill:rgb(0%,0%,0%);fill-opacity:1;" d="M 267.765625 64.300781 L 267.765625 65.734375 L 265.898438 65.734375 L 265.898438 69.375 L 264.230469 69.375 L 264.230469 65.734375 L 258.398438 65.734375 L 258.398438 64.433594 L 264.796875 55.304688 L 265.898438 55.304688 L 265.898438 64.300781 Z M 264.230469 64.300781 L 264.230469 57.449219 L 259.398438 64.300781 Z M 264.230469 64.300781 "/>
<path style="fill:none;stroke-width:13.875;stroke-linecap:square;stroke-linejoin:miter;stroke:rgb(0%,0%,0%);stroke-opacity:1;stroke-miterlimit:10;" d="M 2781.953125 97.109375 L 2754.179688 97.109375 " transform="matrix(0.1,0,0,-0.1,0,555)"/>
<path style="fill:none;stroke-width:13.875;stroke-linecap:square;stroke-linejoin:miter;stroke:rgb(0%,0%,0%);stroke-opacity:1;stroke-miterlimit:10;" d="M 2781.953125 1171.054688 L 2754.179688 1171.054688 " transform="matrix(0.1,0,0,-0.1,0,555)"/>
<path style="fill:none;stroke-width:13.875;stroke-linecap:square;stroke-linejoin:miter;stroke:rgb(0%,0%,0%);stroke-opacity:1;stroke-miterlimit:10;" d="M 2781.953125 2244.960938 L 2754.179688 2244.960938 " transform="matrix(0.1,0,0,-0.1,0,555)"/>
<path style="fill:none;stroke-width:13.875;stroke-linecap:square;stroke-linejoin:miter;stroke:rgb(0%,0%,0%);stroke-opacity:1;stroke-miterlimit:10;" d="M 2781.953125 3318.90625 L 2754.179688 3318.90625 " transform="matrix(0.1,0,0,-0.1,0,555)"/>
<path style="fill:none;stroke-width:13.875;stroke-linecap:square;stroke-linejoin:miter;stroke:rgb(0%,0%,0%);stroke-opacity:1;stroke-miterlimit:10;" d="M 2781.953125 4392.8125 L 2754.179688 4392.8125 " transform="matrix(0.1,0,0,-0.1,0,555)"/>
<path style="fill:none;stroke-width:13.875;stroke-linecap:square;stroke-linejoin:miter;stroke:rgb(0%,0%,0%);stroke-opacity:1;stroke-miterlimit:10;" d="M 2781.953125 5466.757813 L 2754.179688 5466.757813 " transform="matrix(0.1,0,0,-0.1,0,555)"/>
</g>
</svg>
