<?xml version="1.0" encoding="UTF-8"?>
<svg xmlns="http://www.w3.org/2000/svg" xmlns:xlink="http://www.w3.org/1999/xlink" width="555pt" height="555pt" viewBox="0 0 555 555" version="1.1">
<defs>
<clipPath id="clip1">
  <path d="M 28 6.898438 L 535 6.898438 L 535 548.101563 L 28 548.101563 Z M 28 6.898438 "/>
</clipPath>
<clipPath id="clip2">
  <path d="M 11 301 L 20.8125 301 L 20.8125 303 L 11 303 Z M 11 301 "/>
</clipPath>
<clipPath id="clip3">
  <path d="M 67 315 L 76.3125 315 L 76.3125 317 L 67 317 Z M 67 315 "/>
</clipPath>
<clipPath id="clip4">
  <path d="M 145 301 L 154.011719 301 L 154.011719 303 L 145 303 Z M 145 301 "/>
</clipPath>
<clipPath id="clip5">
  <path d="M 201 315 L 210.902344 315 L 210.902344 317 L 201 317 Z M 201 315 "/>
</clipPath>
<clipPath id="clip6">
  <path d="M 280 7 L 282 7 L 282 548.0625 L 280 548.0625 Z M 280 7 "/>
</clipPath>
<clipPath id="clip7">
  <path d="M 249 519 L 258.074219 519 L 258.074219 521 L 249 521 Z M 249 519 "/>
</clipPath>
<clipPath id="clip8">
  <path d="M 249 459 L 258.074219 459 L 258.074219 461 L 249 461 Z M 249 459 "/>
</clipPath>
<clipPath id="clip9">
  <path d="M 249 398 L 258.074219 398 L 258.074219 400 L 249 400 Z M 249 398 "/>
</clipPath>
<clipPath id="clip10">
  <path d="M 249 338 L 258.074219 338 L 258.074219 340 L 249 340 Z M 249 338 "/>
</clipPath>
</defs>
<g id="surface1">
<rect x="0" y="0" width="555" height="555" style="fill:rgb(100%,100%,100%);fill-opacity:1;stroke:none;"/>
<g clip-path="url(#clip1)" clip-rule="nonzero">
<path style="fill:none;stroke-width:20.8125;stroke-linecap:butt;stroke-linejoin:round;stroke:rgb(47.068787%,0%,5.488586%);stroke-opacity:1;stroke-miterlimit:10;" d="M 291.367188 2768.046875 L 317.890625 2787.890625 L 340.976563 2805.3125 L 366.914063 2825.15625 L 393.007813 2845.664063 L 419.023438 2866.796875 L 443.125 2887.1875 L 468.085938 2909.335938 L 493.867188 2933.671875 L 519.609375 2959.6875 L 546.054688 2988.828125 L 569.375 3016.914063 L 595.585938 3051.953125 L 621.953125 3091.835938 L 647.34375 3135.976563 L 670.390625 3182.460938 L 697.8125 3248.398438 L 721.015625 3316.679688 L 748.046875 3416.914063 L 771.953125 3533.632813 L 798.203125 3710.859375 L 823.164063 3963.90625 L 849.257813 4409.0625 L 873.203125 5232.304688 L 886.09375 6131.40625 L 899.023438 8046.132813 L 905.703125 10252.304688 L 906.523438 10891.914063 L 921.835938 10891.914063 L 922.070313 -5341.875 L 936.71875 -5341.875 L 937.5 -4884.335938 L 943.320313 -2809.648438 L 949.179688 -1618.515625 L 961.757813 -230.546875 L 974.375 493.632813 L 1000.429688 1257.734375 L 1025.9375 1638.554688 L 1050.585938 1866.054688 L 1077.96875 2036.835938 L 1102.539063 2148.046875 L 1128.828125 2239.335938 L 1152.617188 2305.585938 L 1178.632813 2365.351563 L 1203.125 2412.8125 L 1228.710938 2455.625 L 1253.75 2492.265625 L 1279.921875 2526.40625 L 1305.15625 2556.015625 L 1330.976563 2583.710938 L 1356.5625 2609.101563 L 1380.078125 2630.9375 L 1406.992188 2654.609375 L 1431.09375 2674.765625 L 1456.796875 2695.429688 L 1481.40625 2714.648438 L 1508.710938 2735.46875 L 1532.34375 2753.242188 L 1559.21875 2773.320313 L 1583.671875 2791.640625 L 1610.390625 2811.875 L 1633.515625 2829.6875 L 1659.804688 2850.46875 L 1685.195313 2871.289063 L 1710.585938 2892.96875 L 1735.898438 2915.78125 L 1760.15625 2939.0625 L 1786.445313 2966.09375 L 1811.445313 2994.179688 L 1837.8125 3026.679688 L 1861.640625 3059.492188 L 1888.007813 3100.46875 L 1913.242188 3145.703125 L 1938.4375 3198.632813 L 1964.726563 3265.15625 L 1988.984375 3340.625 L 2013.789063 3438.4375 L 2041.171875 3583.59375 L 2065.976563 3770.9375 L 2091.367188 4064.257813 L 2117.148438 4590.703125 L 2140.859375 5641.757813 L 2153.515625 6898.046875 L 2166.132813 10080.195313 L 2167.617188 10891.914063 L 2181.992188 10891.914063 L 2182.1875 -5341.875 L 2197.617188 -5341.875 L 2197.929688 -5070.703125 L 2204.648438 -2683.398438 L 2211.328125 -1408.90625 L 2218.046875 -615.898438 L 2229.882813 236.132813 L 2241.71875 748.242188 L 2269.0625 1397.96875 L 2293.710938 1712.929688 L 2318.125 1914.0625 L 2344.335938 2064.804688 L 2370.664063 2175.820313 L 2394.648438 2254.375 L 2420.078125 2321.953125 L 2444.921875 2376.601563 L 2471.835938 2426.71875 L 2495.15625 2464.21875 L 2521.875 2502.226563 L 2547.03125 2534.0625 L 2571.953125 2562.65625 L 2596.875 2588.945313 L 2622.304688 2613.789063 L 2649.257813 2638.476563 L 2673.945313 2659.804688 L 2698.359375 2680 L 2724.414063 2700.78125 L 2750.429688 2720.976563 L 2773.789063 2738.671875 L 2801.445313 2759.453125 L 2824.609375 2776.757813 L 2851.679688 2797.070313 L 2877.539063 2816.71875 L 2900.585938 2834.570313 L 2926.523438 2855.234375 L 2952.65625 2876.835938 L 2978.632813 2899.375 L 3002.734375 2921.445313 L 3027.695313 2945.78125 L 3053.515625 2972.890625 L 3079.257813 3002.421875 L 3105.703125 3036.054688 L 3128.984375 3069.101563 L 3155.234375 3111.328125 L 3181.5625 3160.585938 L 3206.953125 3216.757813 L 3230.039063 3277.890625 L 3257.460938 3368.242188 L 3280.664063 3466.601563 L 3307.695313 3620.703125 L 3331.601563 3816.40625 L 3357.8125 4153.046875 L 3382.8125 4739.21875 L 3395.859375 5286.875 L 3408.867188 6245.664063 L 3420.859375 8098.984375 L 3426.367188 10891.914063 L 3443.515625 10891.914063 L 3443.710938 -5341.875 L 3458.28125 -5341.875 L 3458.632813 -5125.039063 L 3472.03125 -1425.3125 L 3485.46875 -82.695313 L 3508.828125 944.492188 L 3534.023438 1462.773438 L 3560.078125 1765.820313 L 3585.546875 1957.226563 L 3610.195313 2088.671875 L 3637.578125 2197.5 L 3662.1875 2273.632813 L 3688.476563 2339.609375 L 3712.265625 2389.53125 L 3738.28125 2436.210938 L 3762.773438 2474.375 L 3788.359375 2509.6875 L 3813.398438 2540.625 L 3839.570313 2570.039063 L 3864.804688 2596.054688 L 3890.585938 2620.820313 L 3916.171875 2643.867188 L 3939.6875 2663.984375 L 3966.640625 2686.054688 L 3990.742188 2705.117188 L 4016.445313 2724.921875 L 4041.054688 2743.515625 L 4068.359375 2763.984375 L 4091.992188 2781.679688 L 4118.828125 2801.875 L 4143.28125 2820.507813 L 4170.078125 2841.40625 L 4193.164063 2859.960938 L 4219.453125 2881.914063 L 4244.84375 2904.21875 L 4270.234375 2927.773438 L 4295.507813 2952.929688 L 4319.804688 2978.984375 L 4346.054688 3009.765625 L 4371.09375 3042.304688 L 4397.460938 3080.78125 L 4421.289063 3120.507813 L 4447.65625 3171.40625 L 4472.890625 3229.375 L 4498.085938 3299.609375 L 4524.375 3391.875 L 4548.59375 3502.304688 L 4573.4375 3655.390625 L 4600.820313 3906.132813 L 4625.625 4279.726563 L 4650.976563 5015.9375 L 4663.90625 5742.421875 L 4676.796875 7149.375 L 4682.695313 8361.015625 L 4688.632813 10494.414063 L 4689.296875 10891.914063 L 4703.867188 10891.914063 L 4704.0625 -5341.875 L 4719.21875 -5341.875 L 4719.453125 -5121.015625 L 4725.78125 -2806.640625 L 4738.320313 -751.601563 L 4750.859375 200.078125 L 4777.695313 1148.789063 L 4801.367188 1553.828125 L 4828.710938 1832.539063 L 4853.359375 1998.632813 L 4877.734375 2118.359375 L 4903.945313 2216.25 L 4930.3125 2293.359375 L 4954.296875 2350.78125 L 4979.726563 2402.148438 L 5004.570313 2445.15625 L 5031.484375 2485.703125 L 5054.765625 2516.914063 L 5081.523438 2549.140625 L 5106.679688 2576.757813 L 5131.601563 2601.953125 L 5156.523438 2625.507813 L 5181.953125 2648.164063 L 5208.867188 2670.9375 L 5233.59375 2690.976563 L 5258.007813 2710.117188 L 5284.0625 2730.117188 L 5310.078125 2749.726563 L 5334.609375 2768.046875 " transform="matrix(0.1,0,0,-0.1,0,555)"/>
</g>
<path style="fill:none;stroke-width:13.875;stroke-linecap:butt;stroke-linejoin:round;stroke:rgb(0%,0%,0%);stroke-opacity:1;stroke-miterlimit:10;" d="M 291.367188 2768.046875 L 5334.609375 2768.046875 " transform="matrix(0.1,0,0,-0.1,0,555)"/>
<path style=" stroke:none;fill-rule:nonzero;fill:rgb(0%,0%,0%);fill-opacity:1;" d="M 405.496094 349.996094 C 405.785156 350.300781 406.003906 350.609375 406.144531 350.929688 C 406.261719 351.128906 406.4375 351.679688 406.664063 352.574219 L 407.449219 351.425781 C 407.648438 351.136719 407.898438 350.867188 408.195313 350.613281 C 408.492188 350.363281 408.746094 350.183594 408.964844 350.082031 C 409.109375 350.023438 409.269531 349.996094 409.441406 349.996094 C 409.6875 349.996094 409.886719 350.066406 410.039063 350.203125 C 410.1875 350.339844 410.265625 350.503906 410.265625 350.691406 C 410.265625 350.921875 410.222656 351.078125 410.136719 351.164063 C 409.976563 351.3125 409.789063 351.382813 409.570313 351.382813 C 409.441406 351.382813 409.3125 351.355469 409.183594 351.296875 C 408.90625 351.210938 408.71875 351.164063 408.617188 351.164063 C 408.472656 351.164063 408.308594 351.246094 408.117188 351.40625 C 407.757813 351.710938 407.324219 352.300781 406.820313 353.183594 L 407.535156 356.195313 C 407.648438 356.660156 407.742188 356.9375 407.816406 357.03125 C 407.890625 357.125 407.96875 357.171875 408.054688 357.171875 C 408.171875 357.171875 408.316406 357.109375 408.488281 356.976563 C 408.804688 356.703125 409.082031 356.347656 409.3125 355.914063 L 409.613281 356.066406 C 409.238281 356.761719 408.769531 357.339844 408.207031 357.800781 C 407.890625 358.0625 407.613281 358.191406 407.382813 358.191406 C 407.050781 358.191406 406.789063 358.003906 406.601563 357.628906 C 406.472656 357.394531 406.21875 356.414063 405.84375 354.679688 C 404.917969 356.269531 404.183594 357.289063 403.632813 357.734375 C 403.269531 358.039063 402.921875 358.191406 402.589844 358.191406 C 402.359375 358.191406 402.144531 358.105469 401.941406 357.929688 C 401.808594 357.800781 401.746094 357.628906 401.746094 357.410156 C 401.746094 357.222656 401.808594 357.0625 401.941406 356.933594 C 402.070313 356.804688 402.230469 356.738281 402.417969 356.738281 C 402.605469 356.738281 402.800781 356.832031 403.003906 357.019531 C 403.160156 357.152344 403.285156 357.214844 403.371094 357.214844 C 403.429688 357.214844 403.515625 357.171875 403.632813 357.085938 C 403.90625 356.855469 404.28125 356.371094 404.757813 355.632813 C 405.234375 354.894531 405.546875 354.359375 405.691406 354.027344 C 405.328125 352.597656 405.136719 351.847656 405.105469 351.773438 C 404.976563 351.382813 404.804688 351.109375 404.585938 350.949219 C 404.367188 350.789063 404.042969 350.710938 403.609375 350.710938 C 403.480469 350.710938 403.328125 350.71875 403.15625 350.734375 L 403.15625 350.40625 L 405.496094 349.996094 "/>
<path style="fill:none;stroke-width:13.875;stroke-linecap:square;stroke-linejoin:miter;stroke:rgb(0%,0%,0%);stroke-opacity:1;stroke-miterlimit:10;" d="M 291.367188 2768.046875 L 291.367188 2712.578125 " transform="matrix(0.1,0,0,-0.1,0,555)"/>
<g clip-path="url(#clip2)" clip-rule="nonzero">
<path style=" stroke:none;fill-rule:nonzero;fill:rgb(0%,0%,0%);fill-opacity:1;" d="M 25.601563 302.320313 L 11.859375 302.320313 L 11.859375 301.238281 L 25.601563 301.238281 L 25.601563 302.320313 "/>
</g>
<path style=" stroke:none;fill-rule:nonzero;fill:rgb(0%,0%,0%);fill-opacity:1;" d="M 33.125 305.378906 L 32.171875 308.023438 L 24.042969 308.023438 L 24.042969 307.65625 C 26.425781 305.472656 28.109375 303.6875 29.082031 302.300781 C 30.058594 300.914063 30.546875 299.648438 30.546875 298.507813 C 30.546875 297.640625 30.28125 296.925781 29.746094 296.359375 C 29.210938 295.796875 28.566406 295.515625 27.816406 295.515625 C 27.148438 295.515625 26.546875 295.714844 26.003906 296.113281 C 25.464844 296.507813 25.0625 297.089844 24.800781 297.855469 L 24.433594 297.855469 C 24.605469 296.597656 25.042969 295.636719 25.746094 294.960938 C 26.445313 294.289063 27.316406 293.953125 28.355469 293.953125 C 29.484375 293.953125 30.417969 294.316406 31.164063 295.039063 C 31.910156 295.761719 32.28125 296.605469 32.28125 297.574219 C 32.28125 298.269531 32.121094 298.96875 31.804688 299.679688 C 31.296875 300.777344 30.480469 301.933594 29.355469 303.144531 C 27.675781 304.996094 26.621094 306.109375 26.1875 306.484375 L 29.789063 306.484375 C 30.523438 306.484375 31.042969 306.460938 31.339844 306.410156 C 31.632813 306.359375 31.902344 306.25 32.140625 306.085938 C 32.378906 305.917969 32.585938 305.683594 32.757813 305.378906 L 33.125 305.378906 "/>
<path style=" stroke:none;fill-rule:nonzero;fill:rgb(0%,0%,0%);fill-opacity:1;" d="M 49.886719 304.882813 C 49.886719 305.285156 49.828125 305.695313 49.710938 306.105469 C 49.59375 306.519531 49.4375 306.894531 49.234375 307.234375 C 49.03125 307.574219 48.773438 307.84375 48.453125 308.046875 C 48.136719 308.246094 47.78125 308.351563 47.390625 308.351563 C 47 308.351563 46.648438 308.183594 46.328125 307.851563 C 46.011719 307.519531 45.75 307.019531 45.546875 306.355469 C 45.519531 306.253906 45.496094 306.128906 45.472656 305.976563 C 45.453125 305.824219 45.433594 305.664063 45.417969 305.496094 C 45.40625 305.332031 45.394531 305.171875 45.386719 305.011719 C 45.378906 304.851563 45.375 304.722656 45.375 304.621094 C 45.375 303.828125 45.433594 303.011719 45.546875 302.183594 C 45.664063 301.351563 45.757813 300.515625 45.832031 299.679688 L 43.46875 299.679688 C 43.335938 301.238281 43.199219 302.550781 43.054688 303.613281 C 42.910156 304.675781 42.765625 305.632813 42.621094 306.484375 C 42.578125 306.699219 42.535156 306.90625 42.492188 307.101563 C 42.449219 307.296875 42.390625 307.46875 42.320313 307.613281 C 42.175781 307.929688 41.988281 308.144531 41.765625 308.253906 C 41.542969 308.359375 41.335938 308.414063 41.148438 308.414063 C 40.832031 308.414063 40.566406 308.300781 40.355469 308.078125 C 40.148438 307.855469 40.042969 307.605469 40.042969 307.332031 C 40.042969 307.039063 40.117188 306.800781 40.269531 306.605469 C 40.421875 306.410156 40.589844 306.195313 40.78125 305.964844 C 40.96875 305.761719 41.140625 305.546875 41.300781 305.3125 C 41.457031 305.085938 41.558594 304.792969 41.601563 304.445313 L 42.210938 299.679688 L 41.214844 299.679688 C 40.996094 299.679688 40.757813 299.730469 40.496094 299.839844 C 40.238281 299.949219 40.011719 300.132813 39.824219 300.394531 L 39.414063 301 L 39.066406 301 C 39.371094 300.019531 39.75 299.253906 40.207031 298.703125 C 40.660156 298.152344 41.265625 297.878906 42.015625 297.878906 L 49.710938 297.878906 L 49.710938 299.679688 L 47.089844 299.679688 C 47.042969 300.082031 47.003906 300.503906 46.96875 300.945313 C 46.933594 301.386719 46.90625 301.828125 46.894531 302.269531 C 46.878906 302.710938 46.867188 303.125 46.859375 303.515625 C 46.851563 303.90625 46.847656 304.238281 46.847656 304.511719 C 46.847656 304.742188 46.871094 304.976563 46.914063 305.203125 C 46.957031 305.4375 47.039063 305.644531 47.152344 305.824219 C 47.269531 306.003906 47.414063 306.152344 47.585938 306.269531 C 47.761719 306.382813 47.96875 306.441406 48.214844 306.441406 C 48.375 306.441406 48.554688 306.386719 48.757813 306.28125 C 48.960938 306.171875 49.125 305.988281 49.257813 305.726563 C 49.3125 305.625 49.355469 305.503906 49.375 305.359375 C 49.398438 305.214844 49.414063 305.054688 49.429688 304.882813 L 49.886719 304.882813 "/>
<path style="fill:none;stroke-width:13.875;stroke-linecap:square;stroke-linejoin:miter;stroke:rgb(0%,0%,0%);stroke-opacity:1;stroke-miterlimit:10;" d="M 921.796875 2768.046875 L 921.796875 2712.578125 " transform="matrix(0.1,0,0,-0.1,0,555)"/>
<g clip-path="url(#clip3)" clip-rule="nonzero">
<path style=" stroke:none;fill-rule:nonzero;fill:rgb(0%,0%,0%);fill-opacity:1;" d="M 81.101563 316.195313 L 67.359375 316.195313 L 67.359375 315.113281 L 81.101563 315.113281 L 81.101563 316.195313 "/>
</g>
<path style=" stroke:none;fill-rule:nonzero;fill:rgb(0%,0%,0%);fill-opacity:1;" d="M 87.085938 296.859375 C 87.476563 295.933594 87.972656 295.21875 88.574219 294.714844 C 89.171875 294.207031 89.917969 293.953125 90.816406 293.953125 C 91.914063 293.953125 92.761719 294.316406 93.351563 295.039063 C 93.800781 295.574219 94.023438 296.144531 94.023438 296.753906 C 94.023438 297.761719 93.394531 298.804688 92.140625 299.871094 C 92.976563 300.203125 93.613281 300.679688 94.046875 301.292969 C 94.480469 301.90625 94.695313 302.632813 94.695313 303.472656 C 94.695313 304.65625 94.320313 305.683594 93.570313 306.550781 C 92.574219 307.691406 91.140625 308.261719 89.277344 308.261719 C 88.335938 308.261719 87.703125 308.148438 87.367188 307.914063 C 87.035156 307.683594 86.871094 307.4375 86.871094 307.179688 C 86.871094 306.976563 86.949219 306.804688 87.109375 306.65625 C 87.269531 306.515625 87.457031 306.441406 87.671875 306.441406 C 87.847656 306.441406 88.019531 306.472656 88.191406 306.527344 C 88.308594 306.558594 88.574219 306.675781 88.984375 306.886719 C 89.394531 307.09375 89.675781 307.222656 89.820313 307.265625 C 90.078125 307.339844 90.347656 307.375 90.621094 307.375 C 91.316406 307.375 91.917969 307.105469 92.429688 306.570313 C 92.945313 306.035156 93.199219 305.40625 93.199219 304.683594 C 93.199219 304.152344 93.085938 303.632813 92.855469 303.125 C 92.664063 302.734375 92.472656 302.445313 92.269531 302.257813 C 91.980469 301.980469 91.578125 301.738281 91.066406 301.519531 C 90.550781 301.304688 90.035156 301.195313 89.515625 301.195313 L 89.191406 301.195313 L 89.191406 300.871094 C 89.726563 300.8125 90.261719 300.625 90.792969 300.304688 C 91.328125 299.988281 91.71875 299.605469 91.964844 299.15625 C 92.210938 298.710938 92.332031 298.21875 92.332031 297.683594 C 92.332031 296.988281 92.117188 296.425781 91.683594 295.992188 C 91.25 295.558594 90.707031 295.34375 90.058594 295.34375 C 89.003906 295.34375 88.121094 295.90625 87.414063 297.03125 L 87.085938 296.859375 "/>
<path style=" stroke:none;fill-rule:nonzero;fill:rgb(0%,0%,0%);fill-opacity:1;" d="M 112.320313 304.882813 C 112.320313 305.285156 112.265625 305.695313 112.148438 306.105469 C 112.03125 306.519531 111.875 306.894531 111.671875 307.234375 C 111.46875 307.574219 111.210938 307.84375 110.890625 308.046875 C 110.574219 308.246094 110.21875 308.351563 109.828125 308.351563 C 109.4375 308.351563 109.085938 308.183594 108.765625 307.851563 C 108.449219 307.519531 108.1875 307.019531 107.984375 306.355469 C 107.957031 306.253906 107.933594 306.128906 107.910156 305.976563 C 107.890625 305.824219 107.871094 305.664063 107.855469 305.496094 C 107.84375 305.332031 107.832031 305.171875 107.824219 305.011719 C 107.816406 304.851563 107.8125 304.722656 107.8125 304.621094 C 107.8125 303.828125 107.871094 303.011719 107.984375 302.183594 C 108.101563 301.351563 108.195313 300.515625 108.269531 299.679688 L 105.90625 299.679688 C 105.773438 301.238281 105.636719 302.550781 105.492188 303.613281 C 105.347656 304.675781 105.203125 305.632813 105.058594 306.484375 C 105.015625 306.699219 104.972656 306.90625 104.929688 307.101563 C 104.886719 307.296875 104.828125 307.46875 104.757813 307.613281 C 104.613281 307.929688 104.425781 308.144531 104.203125 308.253906 C 103.980469 308.359375 103.773438 308.414063 103.585938 308.414063 C 103.269531 308.414063 103.003906 308.300781 102.792969 308.078125 C 102.585938 307.855469 102.480469 307.605469 102.480469 307.332031 C 102.480469 307.039063 102.554688 306.800781 102.707031 306.605469 C 102.859375 306.410156 103.027344 306.195313 103.21875 305.964844 C 103.40625 305.761719 103.578125 305.546875 103.738281 305.3125 C 103.894531 305.085938 103.996094 304.792969 104.039063 304.445313 L 104.648438 299.679688 L 103.648438 299.679688 C 103.433594 299.679688 103.195313 299.730469 102.933594 299.839844 C 102.675781 299.949219 102.449219 300.132813 102.261719 300.394531 L 101.851563 301 L 101.503906 301 C 101.808594 300.019531 102.1875 299.253906 102.644531 298.703125 C 103.097656 298.152344 103.699219 297.878906 104.453125 297.878906 L 112.148438 297.878906 L 112.148438 299.679688 L 109.527344 299.679688 C 109.480469 300.082031 109.441406 300.503906 109.40625 300.945313 C 109.371094 301.386719 109.34375 301.828125 109.328125 302.269531 C 109.316406 302.710938 109.304688 303.125 109.296875 303.515625 C 109.289063 303.90625 109.285156 304.238281 109.285156 304.511719 C 109.285156 304.742188 109.308594 304.976563 109.351563 305.203125 C 109.394531 305.4375 109.476563 305.644531 109.589844 305.824219 C 109.707031 306.003906 109.851563 306.152344 110.023438 306.269531 C 110.199219 306.382813 110.40625 306.441406 110.652344 306.441406 C 110.8125 306.441406 110.992188 306.386719 111.195313 306.28125 C 111.398438 306.171875 111.5625 305.988281 111.695313 305.726563 C 111.753906 305.625 111.789063 305.503906 111.8125 305.359375 C 111.835938 305.214844 111.851563 305.054688 111.867188 304.882813 L 112.320313 304.882813 "/>
<path style=" stroke:none;fill-rule:nonzero;fill:rgb(0%,0%,0%);fill-opacity:1;" d="M 103.890625 333.128906 L 102.933594 335.773438 L 94.804688 335.773438 L 94.804688 335.40625 C 97.191406 333.222656 98.871094 331.4375 99.84375 330.050781 C 100.820313 328.664063 101.308594 327.398438 101.308594 326.257813 C 101.308594 325.390625 101.042969 324.675781 100.507813 324.109375 C 99.972656 323.546875 99.328125 323.265625 98.578125 323.265625 C 97.914063 323.265625 97.308594 323.464844 96.765625 323.863281 C 96.226563 324.257813 95.824219 324.839844 95.5625 325.605469 L 95.195313 325.605469 C 95.367188 324.347656 95.804688 323.386719 96.507813 322.710938 C 97.207031 322.039063 98.078125 321.703125 99.121094 321.703125 C 100.246094 321.703125 101.183594 322.066406 101.925781 322.789063 C 102.671875 323.511719 103.042969 324.355469 103.042969 325.324219 C 103.042969 326.019531 102.882813 326.71875 102.566406 327.429688 C 102.0625 328.527344 101.242188 329.683594 100.117188 330.894531 C 98.441406 332.746094 97.386719 333.859375 96.953125 334.234375 L 100.550781 334.234375 C 101.289063 334.234375 101.804688 334.210938 102.101563 334.160156 C 102.394531 334.109375 102.664063 334 102.902344 333.835938 C 103.140625 333.667969 103.347656 333.433594 103.519531 333.128906 L 103.890625 333.128906 "/>
<path style="fill:none;stroke-width:13.875;stroke-linecap:square;stroke-linejoin:miter;stroke:rgb(0%,0%,0%);stroke-opacity:1;stroke-miterlimit:10;" d="M 825.546875 2393.4375 L 1172.421875 2393.4375 " transform="matrix(0.1,0,0,-0.1,0,555)"/>
<path style="fill:none;stroke-width:13.875;stroke-linecap:square;stroke-linejoin:miter;stroke:rgb(0%,0%,0%);stroke-opacity:1;stroke-miterlimit:10;" d="M 1552.1875 2768.046875 L 1552.1875 2712.578125 " transform="matrix(0.1,0,0,-0.1,0,555)"/>
<g clip-path="url(#clip4)" clip-rule="nonzero">
<path style=" stroke:none;fill-rule:nonzero;fill:rgb(0%,0%,0%);fill-opacity:1;" d="M 158.804688 302.320313 L 145.058594 302.320313 L 145.058594 301.238281 L 158.804688 301.238281 L 158.804688 302.320313 "/>
</g>
<path style=" stroke:none;fill-rule:nonzero;fill:rgb(0%,0%,0%);fill-opacity:1;" d="M 167.820313 304.882813 C 167.820313 305.285156 167.765625 305.695313 167.648438 306.105469 C 167.53125 306.519531 167.375 306.894531 167.171875 307.234375 C 166.96875 307.574219 166.710938 307.84375 166.390625 308.046875 C 166.074219 308.246094 165.71875 308.351563 165.328125 308.351563 C 164.9375 308.351563 164.585938 308.183594 164.265625 307.851563 C 163.949219 307.519531 163.6875 307.019531 163.484375 306.355469 C 163.457031 306.253906 163.433594 306.128906 163.410156 305.976563 C 163.386719 305.824219 163.371094 305.664063 163.355469 305.496094 C 163.34375 305.332031 163.332031 305.171875 163.324219 305.011719 C 163.316406 304.851563 163.3125 304.722656 163.3125 304.621094 C 163.3125 303.828125 163.371094 303.011719 163.484375 302.183594 C 163.601563 301.351563 163.695313 300.515625 163.769531 299.679688 L 161.40625 299.679688 C 161.273438 301.238281 161.136719 302.550781 160.992188 303.613281 C 160.847656 304.675781 160.703125 305.632813 160.558594 306.484375 C 160.515625 306.699219 160.472656 306.90625 160.429688 307.101563 C 160.386719 307.296875 160.328125 307.46875 160.257813 307.613281 C 160.109375 307.929688 159.925781 308.144531 159.703125 308.253906 C 159.480469 308.359375 159.273438 308.414063 159.085938 308.414063 C 158.769531 308.414063 158.503906 308.300781 158.292969 308.078125 C 158.085938 307.855469 157.980469 307.605469 157.980469 307.332031 C 157.980469 307.039063 158.054688 306.800781 158.207031 306.605469 C 158.359375 306.410156 158.527344 306.195313 158.714844 305.964844 C 158.90625 305.761719 159.078125 305.546875 159.234375 305.3125 C 159.394531 305.085938 159.496094 304.792969 159.539063 304.445313 L 160.144531 299.679688 L 159.148438 299.679688 C 158.933594 299.679688 158.695313 299.730469 158.433594 299.839844 C 158.175781 299.949219 157.949219 300.132813 157.761719 300.394531 L 157.351563 301 L 157.003906 301 C 157.308594 300.019531 157.6875 299.253906 158.140625 298.703125 C 158.597656 298.152344 159.199219 297.878906 159.953125 297.878906 L 167.648438 297.878906 L 167.648438 299.679688 L 165.023438 299.679688 C 164.980469 300.082031 164.941406 300.503906 164.90625 300.945313 C 164.871094 301.386719 164.84375 301.828125 164.828125 302.269531 C 164.816406 302.710938 164.804688 303.125 164.796875 303.515625 C 164.789063 303.90625 164.785156 304.238281 164.785156 304.511719 C 164.785156 304.742188 164.808594 304.976563 164.851563 305.203125 C 164.894531 305.4375 164.976563 305.644531 165.089844 305.824219 C 165.203125 306.003906 165.351563 306.152344 165.523438 306.269531 C 165.695313 306.382813 165.90625 306.441406 166.152344 306.441406 C 166.3125 306.441406 166.492188 306.386719 166.695313 306.28125 C 166.898438 306.171875 167.0625 305.988281 167.195313 305.726563 C 167.25 305.625 167.289063 305.503906 167.3125 305.359375 C 167.335938 305.214844 167.351563 305.054688 167.367188 304.882813 L 167.820313 304.882813 "/>
<path style="fill:none;stroke-width:13.875;stroke-linecap:square;stroke-linejoin:miter;stroke:rgb(0%,0%,0%);stroke-opacity:1;stroke-miterlimit:10;" d="M 2182.578125 2768.046875 L 2182.578125 2712.578125 " transform="matrix(0.1,0,0,-0.1,0,555)"/>
<g clip-path="url(#clip5)" clip-rule="nonzero">
<path style=" stroke:none;fill-rule:nonzero;fill:rgb(0%,0%,0%);fill-opacity:1;" d="M 215.691406 316.195313 L 201.945313 316.195313 L 201.945313 315.113281 L 215.691406 315.113281 L 215.691406 316.195313 "/>
</g>
<path style=" stroke:none;fill-rule:nonzero;fill:rgb(0%,0%,0%);fill-opacity:1;" d="M 231.648438 304.882813 C 231.648438 305.285156 231.589844 305.695313 231.472656 306.105469 C 231.355469 306.519531 231.199219 306.894531 230.996094 307.234375 C 230.792969 307.574219 230.535156 307.84375 230.214844 308.046875 C 229.898438 308.246094 229.542969 308.351563 229.152344 308.351563 C 228.765625 308.351563 228.410156 308.183594 228.089844 307.851563 C 227.773438 307.519531 227.515625 307.019531 227.3125 306.355469 C 227.28125 306.253906 227.257813 306.128906 227.234375 305.976563 C 227.214844 305.824219 227.195313 305.664063 227.179688 305.496094 C 227.167969 305.332031 227.15625 305.171875 227.148438 305.011719 C 227.140625 304.851563 227.136719 304.722656 227.136719 304.621094 C 227.136719 303.828125 227.195313 303.011719 227.3125 302.183594 C 227.425781 301.351563 227.519531 300.515625 227.59375 299.679688 L 225.230469 299.679688 C 225.101563 301.238281 224.964844 302.550781 224.816406 303.613281 C 224.675781 304.675781 224.527344 305.632813 224.382813 306.484375 C 224.339844 306.699219 224.296875 306.90625 224.253906 307.101563 C 224.210938 307.296875 224.152344 307.46875 224.082031 307.613281 C 223.9375 307.929688 223.753906 308.144531 223.527344 308.253906 C 223.304688 308.359375 223.097656 308.414063 222.910156 308.414063 C 222.59375 308.414063 222.328125 308.300781 222.117188 308.078125 C 221.910156 307.855469 221.804688 307.605469 221.804688 307.332031 C 221.804688 307.039063 221.882813 306.800781 222.03125 306.605469 C 222.183594 306.410156 222.355469 306.195313 222.539063 305.964844 C 222.730469 305.761719 222.902344 305.546875 223.0625 305.3125 C 223.222656 305.085938 223.320313 304.792969 223.363281 304.445313 L 223.972656 299.679688 L 222.976563 299.679688 C 222.757813 299.679688 222.519531 299.730469 222.257813 299.839844 C 222 299.949219 221.773438 300.132813 221.589844 300.394531 L 221.175781 301 L 220.828125 301 C 221.132813 300.019531 221.511719 299.253906 221.96875 298.703125 C 222.421875 298.152344 223.023438 297.878906 223.777344 297.878906 L 231.472656 297.878906 L 231.472656 299.679688 L 228.851563 299.679688 C 228.808594 300.082031 228.765625 300.503906 228.730469 300.945313 C 228.695313 301.386719 228.671875 301.828125 228.652344 302.269531 C 228.640625 302.710938 228.628906 303.125 228.621094 303.515625 C 228.617188 303.90625 228.609375 304.238281 228.609375 304.511719 C 228.609375 304.742188 228.632813 304.976563 228.675781 305.203125 C 228.71875 305.4375 228.800781 305.644531 228.914063 305.824219 C 229.03125 306.003906 229.175781 306.152344 229.347656 306.269531 C 229.519531 306.382813 229.730469 306.441406 229.976563 306.441406 C 230.136719 306.441406 230.316406 306.386719 230.519531 306.28125 C 230.722656 306.171875 230.886719 305.988281 231.019531 305.726563 C 231.074219 305.625 231.117188 305.503906 231.136719 305.359375 C 231.160156 305.214844 231.175781 305.054688 231.191406 304.882813 L 231.648438 304.882813 "/>
<path style=" stroke:none;fill-rule:nonzero;fill:rgb(0%,0%,0%);fill-opacity:1;" d="M 230.152344 333.128906 L 229.195313 335.773438 L 221.066406 335.773438 L 221.066406 335.40625 C 223.449219 333.222656 225.132813 331.4375 226.105469 330.050781 C 227.085938 328.664063 227.570313 327.398438 227.570313 326.257813 C 227.570313 325.390625 227.304688 324.675781 226.769531 324.109375 C 226.234375 323.546875 225.589844 323.265625 224.839844 323.265625 C 224.175781 323.265625 223.570313 323.464844 223.03125 323.863281 C 222.488281 324.257813 222.085938 324.839844 221.828125 325.605469 L 221.457031 325.605469 C 221.632813 324.347656 222.066406 323.386719 222.769531 322.710938 C 223.46875 322.039063 224.339844 321.703125 225.382813 321.703125 C 226.507813 321.703125 227.445313 322.066406 228.1875 322.789063 C 228.933594 323.511719 229.304688 324.355469 229.304688 325.324219 C 229.304688 326.019531 229.148438 326.71875 228.828125 327.429688 C 228.324219 328.527344 227.503906 329.683594 226.378906 330.894531 C 224.703125 332.746094 223.648438 333.859375 223.214844 334.234375 L 226.8125 334.234375 C 227.550781 334.234375 228.066406 334.210938 228.363281 334.160156 C 228.660156 334.109375 228.925781 334 229.164063 333.835938 C 229.402344 333.667969 229.609375 333.433594 229.78125 333.128906 L 230.152344 333.128906 "/>
<path style="fill:none;stroke-width:13.875;stroke-linecap:square;stroke-linejoin:miter;stroke:rgb(0%,0%,0%);stroke-opacity:1;stroke-miterlimit:10;" d="M 2171.445313 2393.4375 L 2365.703125 2393.4375 " transform="matrix(0.1,0,0,-0.1,0,555)"/>
<path style="fill:none;stroke-width:13.875;stroke-linecap:square;stroke-linejoin:miter;stroke:rgb(0%,0%,0%);stroke-opacity:1;stroke-miterlimit:10;" d="M 2813.007813 2768.046875 L 2813.007813 2712.578125 " transform="matrix(0.1,0,0,-0.1,0,555)"/>
<path style=" stroke:none;fill-rule:nonzero;fill:rgb(0%,0%,0%);fill-opacity:1;" d="M 268.546875 295.664063 C 268.546875 294.09375 268.78125 292.734375 269.25 291.601563 C 269.71875 290.46875 270.351563 289.625 271.144531 289.074219 C 271.753906 288.628906 272.382813 288.402344 273.035156 288.402344 C 274.089844 288.402344 275.035156 288.945313 275.875 290.03125 C 276.929688 291.359375 277.453125 293.164063 277.453125 295.449219 C 277.453125 297.054688 277.226563 298.410156 276.761719 299.527344 C 276.300781 300.640625 275.710938 301.449219 274.996094 301.953125 C 274.28125 302.460938 273.589844 302.710938 272.925781 302.710938 C 271.609375 302.710938 270.519531 301.9375 269.652344 300.394531 C 268.914063 299.078125 268.546875 297.503906 268.546875 295.664063 Z M 270.539063 295.925781 C 270.539063 297.820313 270.773438 299.367188 271.234375 300.566406 C 271.625 301.578125 272.203125 302.085938 272.96875 302.085938 C 273.328125 302.085938 273.703125 301.917969 274.09375 301.585938 C 274.484375 301.253906 274.78125 300.703125 274.984375 299.9375 C 275.300781 298.769531 275.460938 297.117188 275.460938 294.996094 C 275.460938 293.433594 275.296875 292.125 274.960938 291.070313 C 274.730469 290.289063 274.421875 289.742188 274.03125 289.421875 C 273.757813 289.191406 273.417969 289.074219 273.011719 289.074219 C 272.5625 289.074219 272.160156 289.285156 271.796875 289.703125 C 271.304688 290.269531 270.972656 291.152344 270.800781 292.359375 C 270.625 293.566406 270.539063 294.757813 270.539063 295.925781 "/>
<path style="fill:none;stroke-width:13.875;stroke-linecap:square;stroke-linejoin:miter;stroke:rgb(0%,0%,0%);stroke-opacity:1;stroke-miterlimit:10;" d="M 3443.398438 2768.046875 L 3443.398438 2712.578125 " transform="matrix(0.1,0,0,-0.1,0,555)"/>
<path style=" stroke:none;fill-rule:nonzero;fill:rgb(0%,0%,0%);fill-opacity:1;" d="M 349.585938 304.882813 C 349.585938 305.285156 349.527344 305.695313 349.410156 306.105469 C 349.296875 306.519531 349.136719 306.894531 348.933594 307.234375 C 348.730469 307.574219 348.472656 307.84375 348.152344 308.046875 C 347.835938 308.246094 347.480469 308.351563 347.089844 308.351563 C 346.703125 308.351563 346.347656 308.183594 346.027344 307.851563 C 345.710938 307.519531 345.453125 307.019531 345.25 306.355469 C 345.21875 306.253906 345.195313 306.128906 345.171875 305.976563 C 345.148438 305.824219 345.132813 305.664063 345.117188 305.496094 C 345.105469 305.332031 345.09375 305.171875 345.085938 305.011719 C 345.078125 304.851563 345.074219 304.722656 345.074219 304.621094 C 345.074219 303.828125 345.132813 303.011719 345.25 302.183594 C 345.363281 301.351563 345.457031 300.515625 345.53125 299.679688 L 343.167969 299.679688 C 343.035156 301.238281 342.898438 302.550781 342.753906 303.613281 C 342.609375 304.675781 342.464844 305.632813 342.320313 306.484375 C 342.277344 306.699219 342.234375 306.90625 342.191406 307.101563 C 342.148438 307.296875 342.089844 307.46875 342.019531 307.613281 C 341.871094 307.929688 341.691406 308.144531 341.464844 308.253906 C 341.242188 308.359375 341.035156 308.414063 340.847656 308.414063 C 340.53125 308.414063 340.265625 308.300781 340.054688 308.078125 C 339.847656 307.855469 339.742188 307.605469 339.742188 307.332031 C 339.742188 307.039063 339.816406 306.800781 339.96875 306.605469 C 340.121094 306.410156 340.289063 306.195313 340.480469 305.964844 C 340.667969 305.761719 340.839844 305.546875 341 305.3125 C 341.160156 305.085938 341.261719 304.792969 341.304688 304.445313 L 341.910156 299.679688 L 340.914063 299.679688 C 340.695313 299.679688 340.457031 299.730469 340.195313 299.839844 C 339.9375 299.949219 339.714844 300.132813 339.523438 300.394531 L 339.113281 301 L 338.765625 301 C 339.070313 300.019531 339.449219 299.253906 339.902344 298.703125 C 340.359375 298.152344 340.964844 297.878906 341.714844 297.878906 L 349.410156 297.878906 L 349.410156 299.679688 L 346.789063 299.679688 C 346.746094 300.082031 346.703125 300.503906 346.667969 300.945313 C 346.632813 301.386719 346.605469 301.828125 346.59375 302.269531 C 346.578125 302.710938 346.566406 303.125 346.558594 303.515625 C 346.554688 303.90625 346.550781 304.238281 346.550781 304.511719 C 346.550781 304.742188 346.570313 304.976563 346.613281 305.203125 C 346.65625 305.4375 346.738281 305.644531 346.851563 305.824219 C 346.96875 306.003906 347.113281 306.152344 347.285156 306.269531 C 347.460938 306.382813 347.667969 306.441406 347.914063 306.441406 C 348.074219 306.441406 348.253906 306.386719 348.457031 306.28125 C 348.660156 306.171875 348.824219 305.988281 348.957031 305.726563 C 349.011719 305.625 349.054688 305.503906 349.074219 305.359375 C 349.097656 305.214844 349.113281 305.054688 349.128906 304.882813 L 349.585938 304.882813 "/>
<path style=" stroke:none;fill-rule:nonzero;fill:rgb(0%,0%,0%);fill-opacity:1;" d="M 348.089844 333.128906 L 347.132813 335.773438 L 339.003906 335.773438 L 339.003906 335.40625 C 341.390625 333.222656 343.070313 331.4375 344.046875 330.050781 C 345.019531 328.664063 345.507813 327.398438 345.507813 326.257813 C 345.507813 325.390625 345.242188 324.675781 344.707031 324.109375 C 344.171875 323.546875 343.527344 323.265625 342.777344 323.265625 C 342.113281 323.265625 341.507813 323.464844 340.96875 323.863281 C 340.425781 324.257813 340.023438 324.839844 339.765625 325.605469 L 339.394531 325.605469 C 339.566406 324.347656 340.003906 323.386719 340.707031 322.710938 C 341.40625 322.039063 342.277344 321.703125 343.320313 321.703125 C 344.445313 321.703125 345.382813 322.066406 346.125 322.789063 C 346.871094 323.511719 347.242188 324.355469 347.242188 325.324219 C 347.242188 326.019531 347.085938 326.71875 346.765625 327.429688 C 346.261719 328.527344 345.441406 329.683594 344.316406 330.894531 C 342.640625 332.746094 341.585938 333.859375 341.152344 334.234375 L 344.75 334.234375 C 345.488281 334.234375 346.003906 334.210938 346.300781 334.160156 C 346.597656 334.109375 346.863281 334 347.101563 333.835938 C 347.339844 333.667969 347.546875 333.433594 347.71875 333.128906 L 348.089844 333.128906 "/>
<path style="fill:none;stroke-width:13.875;stroke-linecap:square;stroke-linejoin:miter;stroke:rgb(0%,0%,0%);stroke-opacity:1;stroke-miterlimit:10;" d="M 3350.820313 2393.4375 L 3545.078125 2393.4375 " transform="matrix(0.1,0,0,-0.1,0,555)"/>
<path style="fill:none;stroke-width:13.875;stroke-linecap:square;stroke-linejoin:miter;stroke:rgb(0%,0%,0%);stroke-opacity:1;stroke-miterlimit:10;" d="M 4073.789063 2768.046875 L 4073.789063 2712.578125 " transform="matrix(0.1,0,0,-0.1,0,555)"/>
<path style=" stroke:none;fill-rule:nonzero;fill:rgb(0%,0%,0%);fill-opacity:1;" d="M 412.023438 304.882813 C 412.023438 305.285156 411.964844 305.695313 411.847656 306.105469 C 411.730469 306.519531 411.574219 306.894531 411.371094 307.234375 C 411.167969 307.574219 410.910156 307.84375 410.589844 308.046875 C 410.273438 308.246094 409.917969 308.351563 409.527344 308.351563 C 409.140625 308.351563 408.785156 308.183594 408.464844 307.851563 C 408.148438 307.519531 407.890625 307.019531 407.6875 306.355469 C 407.65625 306.253906 407.632813 306.128906 407.609375 305.976563 C 407.589844 305.824219 407.570313 305.664063 407.554688 305.496094 C 407.542969 305.332031 407.53125 305.171875 407.523438 305.011719 C 407.515625 304.851563 407.511719 304.722656 407.511719 304.621094 C 407.511719 303.828125 407.570313 303.011719 407.6875 302.183594 C 407.800781 301.351563 407.894531 300.515625 407.96875 299.679688 L 405.605469 299.679688 C 405.476563 301.238281 405.339844 302.550781 405.191406 303.613281 C 405.050781 304.675781 404.902344 305.632813 404.757813 306.484375 C 404.714844 306.699219 404.671875 306.90625 404.628906 307.101563 C 404.585938 307.296875 404.527344 307.46875 404.457031 307.613281 C 404.3125 307.929688 404.128906 308.144531 403.902344 308.253906 C 403.679688 308.359375 403.472656 308.414063 403.285156 308.414063 C 402.96875 308.414063 402.703125 308.300781 402.492188 308.078125 C 402.285156 307.855469 402.179688 307.605469 402.179688 307.332031 C 402.179688 307.039063 402.257813 306.800781 402.40625 306.605469 C 402.558594 306.410156 402.730469 306.195313 402.914063 305.964844 C 403.105469 305.761719 403.277344 305.546875 403.4375 305.3125 C 403.597656 305.085938 403.695313 304.792969 403.738281 304.445313 L 404.347656 299.679688 L 403.351563 299.679688 C 403.132813 299.679688 402.894531 299.730469 402.632813 299.839844 C 402.375 299.949219 402.148438 300.132813 401.964844 300.394531 L 401.550781 301 L 401.203125 301 C 401.507813 300.019531 401.886719 299.253906 402.34375 298.703125 C 402.796875 298.152344 403.398438 297.878906 404.152344 297.878906 L 411.847656 297.878906 L 411.847656 299.679688 L 409.226563 299.679688 C 409.183594 300.082031 409.140625 300.503906 409.105469 300.945313 C 409.070313 301.386719 409.046875 301.828125 409.027344 302.269531 C 409.015625 302.710938 409.003906 303.125 408.996094 303.515625 C 408.992188 303.90625 408.984375 304.238281 408.984375 304.511719 C 408.984375 304.742188 409.007813 304.976563 409.050781 305.203125 C 409.09375 305.4375 409.175781 305.644531 409.289063 305.824219 C 409.40625 306.003906 409.550781 306.152344 409.722656 306.269531 C 409.894531 306.382813 410.105469 306.441406 410.351563 306.441406 C 410.511719 306.441406 410.691406 306.386719 410.894531 306.28125 C 411.097656 306.171875 411.261719 305.988281 411.394531 305.726563 C 411.449219 305.625 411.492188 305.503906 411.511719 305.359375 C 411.535156 305.214844 411.550781 305.054688 411.566406 304.882813 L 412.023438 304.882813 "/>
<path style="fill:none;stroke-width:13.875;stroke-linecap:square;stroke-linejoin:miter;stroke:rgb(0%,0%,0%);stroke-opacity:1;stroke-miterlimit:10;" d="M 4704.21875 2768.046875 L 4704.21875 2712.578125 " transform="matrix(0.1,0,0,-0.1,0,555)"/>
<path style=" stroke:none;fill-rule:nonzero;fill:rgb(0%,0%,0%);fill-opacity:1;" d="M 458.9375 296.859375 C 459.324219 295.933594 459.820313 295.21875 460.421875 294.714844 C 461.023438 294.207031 461.769531 293.953125 462.664063 293.953125 C 463.765625 293.953125 464.609375 294.316406 465.203125 295.039063 C 465.648438 295.574219 465.875 296.144531 465.875 296.753906 C 465.875 297.761719 465.246094 298.804688 463.988281 299.871094 C 464.828125 300.203125 465.460938 300.679688 465.894531 301.292969 C 466.328125 301.90625 466.546875 302.632813 466.546875 303.472656 C 466.546875 304.65625 466.171875 305.683594 465.417969 306.550781 C 464.421875 307.691406 462.992188 308.261719 461.125 308.261719 C 460.1875 308.261719 459.550781 308.148438 459.21875 307.914063 C 458.886719 307.683594 458.71875 307.4375 458.71875 307.179688 C 458.71875 306.976563 458.800781 306.804688 458.960938 306.65625 C 459.117188 306.515625 459.304688 306.441406 459.523438 306.441406 C 459.695313 306.441406 459.867188 306.472656 460.042969 306.527344 C 460.15625 306.558594 460.421875 306.675781 460.832031 306.886719 C 461.246094 307.09375 461.523438 307.222656 461.667969 307.265625 C 461.929688 307.339844 462.195313 307.375 462.46875 307.375 C 463.164063 307.375 463.769531 307.105469 464.28125 306.570313 C 464.796875 306.035156 465.050781 305.40625 465.050781 304.683594 C 465.050781 304.152344 464.933594 303.632813 464.703125 303.125 C 464.515625 302.734375 464.320313 302.445313 464.117188 302.257813 C 463.828125 301.980469 463.429688 301.738281 462.914063 301.519531 C 462.402344 301.304688 461.886719 301.195313 461.363281 301.195313 L 461.039063 301.195313 L 461.039063 300.871094 C 461.574219 300.8125 462.109375 300.625 462.644531 300.304688 C 463.179688 299.988281 463.570313 299.605469 463.816406 299.15625 C 464.0625 298.710938 464.183594 298.21875 464.183594 297.683594 C 464.183594 296.988281 463.964844 296.425781 463.53125 295.992188 C 463.097656 295.558594 462.558594 295.34375 461.90625 295.34375 C 460.851563 295.34375 459.96875 295.90625 459.261719 297.03125 L 458.9375 296.859375 "/>
<path style=" stroke:none;fill-rule:nonzero;fill:rgb(0%,0%,0%);fill-opacity:1;" d="M 484.171875 304.882813 C 484.171875 305.285156 484.113281 305.695313 484 306.105469 C 483.882813 306.519531 483.722656 306.894531 483.519531 307.234375 C 483.320313 307.574219 483.058594 307.84375 482.738281 308.046875 C 482.421875 308.246094 482.070313 308.351563 481.679688 308.351563 C 481.289063 308.351563 480.933594 308.183594 480.617188 307.851563 C 480.296875 307.519531 480.039063 307.019531 479.835938 306.355469 C 479.808594 306.253906 479.78125 306.128906 479.761719 305.976563 C 479.738281 305.824219 479.71875 305.664063 479.707031 305.496094 C 479.691406 305.332031 479.679688 305.171875 479.671875 305.011719 C 479.664063 304.851563 479.664063 304.722656 479.664063 304.621094 C 479.664063 303.828125 479.71875 303.011719 479.835938 302.183594 C 479.953125 301.351563 480.046875 300.515625 480.117188 299.679688 L 477.753906 299.679688 C 477.625 301.238281 477.488281 302.550781 477.34375 303.613281 C 477.199219 304.675781 477.054688 305.632813 476.910156 306.484375 C 476.867188 306.699219 476.824219 306.90625 476.78125 307.101563 C 476.734375 307.296875 476.679688 307.46875 476.605469 307.613281 C 476.460938 307.929688 476.277344 308.144531 476.054688 308.253906 C 475.828125 308.359375 475.621094 308.414063 475.433594 308.414063 C 475.117188 308.414063 474.855469 308.300781 474.644531 308.078125 C 474.433594 307.855469 474.328125 307.605469 474.328125 307.332031 C 474.328125 307.039063 474.40625 306.800781 474.558594 306.605469 C 474.707031 306.410156 474.878906 306.195313 475.066406 305.964844 C 475.253906 305.761719 475.429688 305.546875 475.585938 305.3125 C 475.746094 305.085938 475.847656 304.792969 475.890625 304.445313 L 476.496094 299.679688 L 475.5 299.679688 C 475.28125 299.679688 475.046875 299.730469 474.785156 299.839844 C 474.523438 299.949219 474.300781 300.132813 474.113281 300.394531 L 473.699219 301 L 473.355469 301 C 473.65625 300.019531 474.035156 299.253906 474.492188 298.703125 C 474.945313 298.152344 475.550781 297.878906 476.300781 297.878906 L 484 297.878906 L 484 299.679688 L 481.375 299.679688 C 481.332031 300.082031 481.292969 300.503906 481.257813 300.945313 C 481.21875 301.386719 481.195313 301.828125 481.179688 302.269531 C 481.164063 302.710938 481.15625 303.125 481.148438 303.515625 C 481.140625 303.90625 481.136719 304.238281 481.136719 304.511719 C 481.136719 304.742188 481.160156 304.976563 481.203125 305.203125 C 481.246094 305.4375 481.324219 305.644531 481.441406 305.824219 C 481.554688 306.003906 481.699219 306.152344 481.871094 306.269531 C 482.046875 306.382813 482.257813 306.441406 482.503906 306.441406 C 482.660156 306.441406 482.84375 306.386719 483.042969 306.28125 C 483.246094 306.171875 483.414063 305.988281 483.542969 305.726563 C 483.601563 305.625 483.640625 305.503906 483.660156 305.359375 C 483.683594 305.214844 483.703125 305.054688 483.71875 304.882813 L 484.171875 304.882813 "/>
<path style=" stroke:none;fill-rule:nonzero;fill:rgb(0%,0%,0%);fill-opacity:1;" d="M 475.738281 333.128906 L 474.785156 335.773438 L 466.65625 335.773438 L 466.65625 335.40625 C 469.039063 333.222656 470.71875 331.4375 471.695313 330.050781 C 472.671875 328.664063 473.15625 327.398438 473.15625 326.257813 C 473.15625 325.390625 472.890625 324.675781 472.355469 324.109375 C 471.820313 323.546875 471.179688 323.265625 470.425781 323.265625 C 469.761719 323.265625 469.15625 323.464844 468.617188 323.863281 C 468.074219 324.257813 467.671875 324.839844 467.414063 325.605469 L 467.046875 325.605469 C 467.21875 324.347656 467.65625 323.386719 468.355469 322.710938 C 469.058594 322.039063 469.929688 321.703125 470.96875 321.703125 C 472.097656 321.703125 473.03125 322.066406 473.777344 322.789063 C 474.519531 323.511719 474.894531 324.355469 474.894531 325.324219 C 474.894531 326.019531 474.734375 326.71875 474.414063 327.429688 C 473.910156 328.527344 473.09375 329.683594 471.964844 330.894531 C 470.289063 332.746094 469.234375 333.859375 468.800781 334.234375 L 472.398438 334.234375 C 473.136719 334.234375 473.652344 334.210938 473.949219 334.160156 C 474.246094 334.109375 474.515625 334 474.753906 333.835938 C 474.988281 333.667969 475.195313 333.433594 475.371094 333.128906 L 475.738281 333.128906 "/>
<path style="fill:none;stroke-width:13.875;stroke-linecap:square;stroke-linejoin:miter;stroke:rgb(0%,0%,0%);stroke-opacity:1;stroke-miterlimit:10;" d="M 4544.0625 2393.4375 L 4890.9375 2393.4375 " transform="matrix(0.1,0,0,-0.1,0,555)"/>
<path style="fill:none;stroke-width:13.875;stroke-linecap:square;stroke-linejoin:miter;stroke:rgb(0%,0%,0%);stroke-opacity:1;stroke-miterlimit:10;" d="M 5334.609375 2768.046875 L 5334.609375 2712.578125 " transform="matrix(0.1,0,0,-0.1,0,555)"/>
<path style=" stroke:none;fill-rule:nonzero;fill:rgb(0%,0%,0%);fill-opacity:1;" d="M 529.851563 305.378906 L 528.898438 308.023438 L 520.769531 308.023438 L 520.769531 307.65625 C 523.152344 305.472656 524.832031 303.6875 525.808594 302.300781 C 526.785156 300.914063 527.269531 299.648438 527.269531 298.507813 C 527.269531 297.640625 527.003906 296.925781 526.46875 296.359375 C 525.933594 295.796875 525.289063 295.515625 524.539063 295.515625 C 523.875 295.515625 523.269531 295.714844 522.730469 296.113281 C 522.1875 296.507813 521.785156 297.089844 521.527344 297.855469 L 521.15625 297.855469 C 521.332031 296.597656 521.769531 295.636719 522.46875 294.960938 C 523.171875 294.289063 524.039063 293.953125 525.082031 293.953125 C 526.210938 293.953125 527.144531 294.316406 527.886719 295.039063 C 528.632813 295.761719 529.003906 296.605469 529.003906 297.574219 C 529.003906 298.269531 528.847656 298.96875 528.527344 299.679688 C 528.023438 300.777344 527.203125 301.933594 526.078125 303.144531 C 524.402344 304.996094 523.347656 306.109375 522.914063 306.484375 L 526.511719 306.484375 C 527.25 306.484375 527.765625 306.460938 528.0625 306.410156 C 528.359375 306.359375 528.628906 306.25 528.863281 306.085938 C 529.101563 305.917969 529.308594 305.683594 529.480469 305.378906 L 529.851563 305.378906 "/>
<path style=" stroke:none;fill-rule:nonzero;fill:rgb(0%,0%,0%);fill-opacity:1;" d="M 546.609375 304.882813 C 546.609375 305.285156 546.550781 305.695313 546.4375 306.105469 C 546.320313 306.519531 546.160156 306.894531 545.960938 307.234375 C 545.757813 307.574219 545.496094 307.84375 545.179688 308.046875 C 544.859375 308.246094 544.507813 308.351563 544.117188 308.351563 C 543.726563 308.351563 543.371094 308.183594 543.054688 307.851563 C 542.734375 307.519531 542.476563 307.019531 542.273438 306.355469 C 542.246094 306.253906 542.21875 306.128906 542.199219 305.976563 C 542.175781 305.824219 542.15625 305.664063 542.144531 305.496094 C 542.128906 305.332031 542.117188 305.171875 542.109375 305.011719 C 542.101563 304.851563 542.101563 304.722656 542.101563 304.621094 C 542.101563 303.828125 542.15625 303.011719 542.273438 302.183594 C 542.390625 301.351563 542.484375 300.515625 542.554688 299.679688 L 540.191406 299.679688 C 540.0625 301.238281 539.925781 302.550781 539.78125 303.613281 C 539.636719 304.675781 539.492188 305.632813 539.347656 306.484375 C 539.304688 306.699219 539.261719 306.90625 539.21875 307.101563 C 539.171875 307.296875 539.117188 307.46875 539.042969 307.613281 C 538.898438 307.929688 538.714844 308.144531 538.488281 308.253906 C 538.265625 308.359375 538.058594 308.414063 537.871094 308.414063 C 537.554688 308.414063 537.289063 308.300781 537.078125 308.078125 C 536.871094 307.855469 536.765625 307.605469 536.765625 307.332031 C 536.765625 307.039063 536.84375 306.800781 536.996094 306.605469 C 537.144531 306.410156 537.316406 306.195313 537.503906 305.964844 C 537.691406 305.761719 537.867188 305.546875 538.023438 305.3125 C 538.183594 305.085938 538.285156 304.792969 538.328125 304.445313 L 538.933594 299.679688 L 537.9375 299.679688 C 537.71875 299.679688 537.484375 299.730469 537.222656 299.839844 C 536.964844 299.949219 536.738281 300.132813 536.550781 300.394531 L 536.136719 301 L 535.789063 301 C 536.09375 300.019531 536.472656 299.253906 536.929688 298.703125 C 537.382813 298.152344 537.988281 297.878906 538.738281 297.878906 L 546.4375 297.878906 L 546.4375 299.679688 L 543.8125 299.679688 C 543.769531 300.082031 543.730469 300.503906 543.691406 300.945313 C 543.65625 301.386719 543.632813 301.828125 543.617188 302.269531 C 543.601563 302.710938 543.59375 303.125 543.585938 303.515625 C 543.578125 303.90625 543.574219 304.238281 543.574219 304.511719 C 543.574219 304.742188 543.597656 304.976563 543.640625 305.203125 C 543.683594 305.4375 543.761719 305.644531 543.878906 305.824219 C 543.992188 306.003906 544.136719 306.152344 544.3125 306.269531 C 544.484375 306.382813 544.695313 306.441406 544.941406 306.441406 C 545.097656 306.441406 545.277344 306.386719 545.480469 306.28125 C 545.683594 306.171875 545.851563 305.988281 545.980469 305.726563 C 546.039063 305.625 546.078125 305.503906 546.097656 305.359375 C 546.121094 305.214844 546.140625 305.054688 546.15625 304.882813 L 546.609375 304.882813 "/>
<path style="fill:none;stroke-width:13.875;stroke-linecap:square;stroke-linejoin:miter;stroke:rgb(0%,0%,0%);stroke-opacity:1;stroke-miterlimit:10;" d="M 448.984375 2768.046875 L 448.984375 2740.3125 " transform="matrix(0.1,0,0,-0.1,0,555)"/>
<path style="fill:none;stroke-width:13.875;stroke-linecap:square;stroke-linejoin:miter;stroke:rgb(0%,0%,0%);stroke-opacity:1;stroke-miterlimit:10;" d="M 606.5625 2768.046875 L 606.5625 2740.3125 " transform="matrix(0.1,0,0,-0.1,0,555)"/>
<path style="fill:none;stroke-width:13.875;stroke-linecap:square;stroke-linejoin:miter;stroke:rgb(0%,0%,0%);stroke-opacity:1;stroke-miterlimit:10;" d="M 764.179688 2768.046875 L 764.179688 2740.3125 " transform="matrix(0.1,0,0,-0.1,0,555)"/>
<path style="fill:none;stroke-width:13.875;stroke-linecap:square;stroke-linejoin:miter;stroke:rgb(0%,0%,0%);stroke-opacity:1;stroke-miterlimit:10;" d="M 1079.375 2768.046875 L 1079.375 2740.3125 " transform="matrix(0.1,0,0,-0.1,0,555)"/>
<path style="fill:none;stroke-width:13.875;stroke-linecap:square;stroke-linejoin:miter;stroke:rgb(0%,0%,0%);stroke-opacity:1;stroke-miterlimit:10;" d="M 1236.992188 2768.046875 L 1236.992188 2740.3125 " transform="matrix(0.1,0,0,-0.1,0,555)"/>
<path style="fill:none;stroke-width:13.875;stroke-linecap:square;stroke-linejoin:miter;stroke:rgb(0%,0%,0%);stroke-opacity:1;stroke-miterlimit:10;" d="M 1394.609375 2768.046875 L 1394.609375 2740.3125 " transform="matrix(0.1,0,0,-0.1,0,555)"/>
<path style="fill:none;stroke-width:13.875;stroke-linecap:square;stroke-linejoin:miter;stroke:rgb(0%,0%,0%);stroke-opacity:1;stroke-miterlimit:10;" d="M 1709.804688 2768.046875 L 1709.804688 2740.3125 " transform="matrix(0.1,0,0,-0.1,0,555)"/>
<path style="fill:none;stroke-width:13.875;stroke-linecap:square;stroke-linejoin:miter;stroke:rgb(0%,0%,0%);stroke-opacity:1;stroke-miterlimit:10;" d="M 1867.382813 2768.046875 L 1867.382813 2740.3125 " transform="matrix(0.1,0,0,-0.1,0,555)"/>
<path style="fill:none;stroke-width:13.875;stroke-linecap:square;stroke-linejoin:miter;stroke:rgb(0%,0%,0%);stroke-opacity:1;stroke-miterlimit:10;" d="M 2025 2768.046875 L 2025 2740.3125 " transform="matrix(0.1,0,0,-0.1,0,555)"/>
<path style="fill:none;stroke-width:13.875;stroke-linecap:square;stroke-linejoin:miter;stroke:rgb(0%,0%,0%);stroke-opacity:1;stroke-miterlimit:10;" d="M 2340.195313 2768.046875 L 2340.195313 2740.3125 " transform="matrix(0.1,0,0,-0.1,0,555)"/>
<path style="fill:none;stroke-width:13.875;stroke-linecap:square;stroke-linejoin:miter;stroke:rgb(0%,0%,0%);stroke-opacity:1;stroke-miterlimit:10;" d="M 2497.773438 2768.046875 L 2497.773438 2740.3125 " transform="matrix(0.1,0,0,-0.1,0,555)"/>
<path style="fill:none;stroke-width:13.875;stroke-linecap:square;stroke-linejoin:miter;stroke:rgb(0%,0%,0%);stroke-opacity:1;stroke-miterlimit:10;" d="M 2655.390625 2768.046875 L 2655.390625 2740.3125 " transform="matrix(0.1,0,0,-0.1,0,555)"/>
<path style="fill:none;stroke-width:13.875;stroke-linecap:square;stroke-linejoin:miter;stroke:rgb(0%,0%,0%);stroke-opacity:1;stroke-miterlimit:10;" d="M 2970.585938 2768.046875 L 2970.585938 2740.3125 " transform="matrix(0.1,0,0,-0.1,0,555)"/>
<path style="fill:none;stroke-width:13.875;stroke-linecap:square;stroke-linejoin:miter;stroke:rgb(0%,0%,0%);stroke-opacity:1;stroke-miterlimit:10;" d="M 3128.203125 2768.046875 L 3128.203125 2740.3125 " transform="matrix(0.1,0,0,-0.1,0,555)"/>
<path style="fill:none;stroke-width:13.875;stroke-linecap:square;stroke-linejoin:miter;stroke:rgb(0%,0%,0%);stroke-opacity:1;stroke-miterlimit:10;" d="M 3285.78125 2768.046875 L 3285.78125 2740.3125 " transform="matrix(0.1,0,0,-0.1,0,555)"/>
<path style="fill:none;stroke-width:13.875;stroke-linecap:square;stroke-linejoin:miter;stroke:rgb(0%,0%,0%);stroke-opacity:1;stroke-miterlimit:10;" d="M 3600.976563 2768.046875 L 3600.976563 2740.3125 " transform="matrix(0.1,0,0,-0.1,0,555)"/>
<path style="fill:none;stroke-width:13.875;stroke-linecap:square;stroke-linejoin:miter;stroke:rgb(0%,0%,0%);stroke-opacity:1;stroke-miterlimit:10;" d="M 3758.59375 2768.046875 L 3758.59375 2740.3125 " transform="matrix(0.1,0,0,-0.1,0,555)"/>
<path style="fill:none;stroke-width:13.875;stroke-linecap:square;stroke-linejoin:miter;stroke:rgb(0%,0%,0%);stroke-opacity:1;stroke-miterlimit:10;" d="M 3916.210938 2768.046875 L 3916.210938 2740.3125 " transform="matrix(0.1,0,0,-0.1,0,555)"/>
<path style="fill:none;stroke-width:13.875;stroke-linecap:square;stroke-linejoin:miter;stroke:rgb(0%,0%,0%);stroke-opacity:1;stroke-miterlimit:10;" d="M 4231.40625 2768.046875 L 4231.40625 2740.3125 " transform="matrix(0.1,0,0,-0.1,0,555)"/>
<path style="fill:none;stroke-width:13.875;stroke-linecap:square;stroke-linejoin:miter;stroke:rgb(0%,0%,0%);stroke-opacity:1;stroke-miterlimit:10;" d="M 4389.023438 2768.046875 L 4389.023438 2740.3125 " transform="matrix(0.1,0,0,-0.1,0,555)"/>
<path style="fill:none;stroke-width:13.875;stroke-linecap:square;stroke-linejoin:miter;stroke:rgb(0%,0%,0%);stroke-opacity:1;stroke-miterlimit:10;" d="M 4546.601563 2768.046875 L 4546.601563 2740.3125 " transform="matrix(0.1,0,0,-0.1,0,555)"/>
<path style="fill:none;stroke-width:13.875;stroke-linecap:square;stroke-linejoin:miter;stroke:rgb(0%,0%,0%);stroke-opacity:1;stroke-miterlimit:10;" d="M 4861.796875 2768.046875 L 4861.796875 2740.3125 " transform="matrix(0.1,0,0,-0.1,0,555)"/>
<path style="fill:none;stroke-width:13.875;stroke-linecap:square;stroke-linejoin:miter;stroke:rgb(0%,0%,0%);stroke-opacity:1;stroke-miterlimit:10;" d="M 5019.414063 2768.046875 L 5019.414063 2740.3125 " transform="matrix(0.1,0,0,-0.1,0,555)"/>
<path style="fill:none;stroke-width:13.875;stroke-linecap:square;stroke-linejoin:miter;stroke:rgb(0%,0%,0%);stroke-opacity:1;stroke-miterlimit:10;" d="M 5176.992188 2768.046875 L 5176.992188 2740.3125 " transform="matrix(0.1,0,0,-0.1,0,555)"/>
<g clip-path="url(#clip6)" clip-rule="nonzero">
<path style="fill:none;stroke-width:13.875;stroke-linecap:butt;stroke-linejoin:round;stroke:rgb(0%,0%,0%);stroke-opacity:1;stroke-miterlimit:10;" d="M 2813.007813 69.375 L 2813.007813 5466.757813 " transform="matrix(0.1,0,0,-0.1,0,555)"/>
</g>
<path style="fill:none;stroke-width:13.875;stroke-linecap:square;stroke-linejoin:miter;stroke:rgb(0%,0%,0%);stroke-opacity:1;stroke-miterlimit:10;" d="M 2813.007813 369.257813 L 2757.5 369.257813 " transform="matrix(0.1,0,0,-0.1,0,555)"/>
<g clip-path="url(#clip7)" clip-rule="nonzero">
<path style=" stroke:none;fill-rule:nonzero;fill:rgb(0%,0%,0%);fill-opacity:1;" d="M 262.867188 520.160156 L 249.121094 520.160156 L 249.121094 519.078125 L 262.867188 519.078125 L 262.867188 520.160156 "/>
</g>
<path style=" stroke:none;fill-rule:nonzero;fill:rgb(0%,0%,0%);fill-opacity:1;" d="M 264.839844 518.925781 C 263.753906 518.027344 263.054688 517.308594 262.734375 516.769531 C 262.417969 516.226563 262.257813 515.664063 262.257813 515.085938 C 262.257813 514.191406 262.605469 513.417969 263.300781 512.765625 C 263.992188 512.117188 264.910156 511.792969 266.054688 511.792969 C 267.164063 511.792969 268.0625 512.09375 268.742188 512.703125 C 269.421875 513.308594 269.757813 513.996094 269.757813 514.761719 C 269.757813 515.28125 269.574219 515.808594 269.207031 516.34375 C 268.839844 516.878906 268.074219 517.507813 266.921875 518.230469 C 268.105469 519.15625 268.890625 519.878906 269.28125 520.398438 C 269.804688 521.09375 270.0625 521.824219 270.0625 522.589844 C 270.0625 523.554688 269.695313 524.382813 268.957031 525.070313 C 268.21875 525.757813 267.253906 526.097656 266.054688 526.097656 C 264.738281 526.097656 263.710938 525.695313 262.972656 524.886719 C 262.394531 524.222656 262.105469 523.496094 262.105469 522.71875 C 262.105469 522.109375 262.3125 521.507813 262.726563 520.90625 C 263.136719 520.308594 263.839844 519.648438 264.839844 518.925781 Z M 266.441406 517.839844 C 267.253906 517.101563 267.765625 516.523438 267.980469 516.09375 C 268.199219 515.667969 268.308594 515.1875 268.308594 514.652344 C 268.308594 513.945313 268.109375 513.390625 267.710938 512.984375 C 267.3125 512.582031 266.769531 512.378906 266.074219 512.378906 C 265.378906 512.378906 264.816406 512.582031 264.382813 512.984375 C 263.949219 513.390625 263.734375 513.859375 263.734375 514.394531 C 263.734375 514.738281 263.824219 515.089844 264.003906 515.445313 C 264.183594 515.796875 264.441406 516.136719 264.773438 516.453125 Z M 265.316406 519.316406 C 264.753906 519.777344 264.335938 520.289063 264.070313 520.851563 C 263.800781 521.417969 263.667969 522.023438 263.667969 522.675781 C 263.667969 523.542969 263.90625 524.238281 264.382813 524.765625 C 264.859375 525.292969 265.46875 525.558594 266.203125 525.558594 C 266.941406 525.558594 267.53125 525.351563 267.972656 524.941406 C 268.410156 524.527344 268.632813 524.027344 268.632813 523.433594 C 268.632813 522.941406 268.503906 522.503906 268.242188 522.109375 C 267.765625 521.402344 266.789063 520.46875 265.316406 519.316406 "/>
<path style="fill:none;stroke-width:13.875;stroke-linecap:square;stroke-linejoin:miter;stroke:rgb(0%,0%,0%);stroke-opacity:1;stroke-miterlimit:10;" d="M 2813.007813 968.945313 L 2757.5 968.945313 " transform="matrix(0.1,0,0,-0.1,0,555)"/>
<g clip-path="url(#clip8)" clip-rule="nonzero">
<path style=" stroke:none;fill-rule:nonzero;fill:rgb(0%,0%,0%);fill-opacity:1;" d="M 262.867188 460.496094 L 249.121094 460.496094 L 249.121094 459.414063 L 262.867188 459.414063 L 262.867188 460.496094 "/>
</g>
<path style=" stroke:none;fill-rule:nonzero;fill:rgb(0%,0%,0%);fill-opacity:1;" d="M 270.171875 452.128906 L 270.171875 452.519531 C 269.273438 452.605469 268.546875 452.78125 267.980469 453.050781 C 267.417969 453.316406 266.863281 453.726563 266.3125 454.277344 C 265.761719 454.824219 265.308594 455.4375 264.945313 456.105469 C 264.585938 456.777344 264.28125 457.578125 264.035156 458.503906 C 265.003906 457.839844 265.980469 457.507813 266.964844 457.507813 C 267.902344 457.507813 268.71875 457.886719 269.410156 458.644531 C 270.105469 459.402344 270.453125 460.375 270.453125 461.558594 C 270.453125 462.714844 270.105469 463.773438 269.410156 464.726563 C 268.574219 465.867188 267.460938 466.4375 266.074219 466.4375 C 265.136719 466.4375 264.332031 466.125 263.667969 465.507813 C 262.382813 464.292969 261.738281 462.722656 261.738281 460.800781 C 261.738281 459.558594 261.988281 458.382813 262.484375 457.277344 C 262.984375 456.171875 263.691406 455.1875 264.609375 454.320313 C 265.527344 453.453125 266.40625 452.871094 267.246094 452.574219 C 268.082031 452.277344 268.863281 452.128906 269.585938 452.128906 Z M 263.863281 459.238281 C 263.734375 460.164063 263.667969 460.910156 263.667969 461.472656 C 263.667969 462.125 263.789063 462.828125 264.035156 463.585938 C 264.28125 464.347656 264.636719 464.949219 265.097656 465.398438 C 265.445313 465.714844 265.871094 465.875 266.378906 465.875 C 266.957031 465.875 267.480469 465.597656 267.949219 465.039063 C 268.417969 464.484375 268.65625 463.691406 268.65625 462.664063 C 268.65625 461.507813 268.421875 460.507813 267.960938 459.664063 C 267.496094 458.816406 266.839844 458.394531 265.988281 458.394531 C 265.726563 458.394531 265.453125 458.449219 265.164063 458.558594 C 264.875 458.664063 264.441406 458.894531 263.863281 459.238281 "/>
<path style="fill:none;stroke-width:13.875;stroke-linecap:square;stroke-linejoin:miter;stroke:rgb(0%,0%,0%);stroke-opacity:1;stroke-miterlimit:10;" d="M 2813.007813 1568.632813 L 2757.5 1568.632813 " transform="matrix(0.1,0,0,-0.1,0,555)"/>
<g clip-path="url(#clip9)" clip-rule="nonzero">
<path style=" stroke:none;fill-rule:nonzero;fill:rgb(0%,0%,0%);fill-opacity:1;" d="M 262.867188 399.445313 L 249.121094 399.445313 L 249.121094 398.363281 L 262.867188 398.363281 L 262.867188 399.445313 "/>
</g>
<path style=" stroke:none;fill-rule:nonzero;fill:rgb(0%,0%,0%);fill-opacity:1;" d="M 270.539063 400.074219 L 270.539063 401.507813 L 268.675781 401.507813 L 268.675781 405.148438 L 267.007813 405.148438 L 267.007813 401.507813 L 261.175781 401.507813 L 261.175781 400.207031 L 267.570313 391.078125 L 268.675781 391.078125 L 268.675781 400.074219 Z M 267.007813 400.074219 L 267.007813 393.226563 L 262.171875 400.074219 Z M 267.007813 400.074219 "/>
<path style="fill:none;stroke-width:13.875;stroke-linecap:square;stroke-linejoin:miter;stroke:rgb(0%,0%,0%);stroke-opacity:1;stroke-miterlimit:10;" d="M 2813.007813 2168.359375 L 2757.5 2168.359375 " transform="matrix(0.1,0,0,-0.1,0,555)"/>
<g clip-path="url(#clip10)" clip-rule="nonzero">
<path style=" stroke:none;fill-rule:nonzero;fill:rgb(0%,0%,0%);fill-opacity:1;" d="M 262.867188 339.785156 L 249.121094 339.785156 L 249.121094 338.699219 L 262.867188 338.699219 L 262.867188 339.785156 "/>
</g>
<path style=" stroke:none;fill-rule:nonzero;fill:rgb(0%,0%,0%);fill-opacity:1;" d="M 270.390625 342.839844 L 269.433594 345.488281 L 261.304688 345.488281 L 261.304688 345.117188 C 263.6875 342.9375 265.367188 341.152344 266.34375 339.765625 C 267.320313 338.378906 267.808594 337.109375 267.808594 335.96875 C 267.808594 335.101563 267.539063 334.386719 267.007813 333.824219 C 266.472656 333.257813 265.828125 332.976563 265.074219 332.976563 C 264.410156 332.976563 263.808594 333.175781 263.265625 333.574219 C 262.726563 333.972656 262.324219 334.554688 262.0625 335.316406 L 261.695313 335.316406 C 261.867188 334.0625 262.304688 333.097656 263.007813 332.425781 C 263.707031 331.753906 264.578125 331.417969 265.617188 331.417969 C 266.746094 331.417969 267.683594 331.777344 268.425781 332.5 C 269.171875 333.222656 269.542969 334.066406 269.542969 335.035156 C 269.542969 335.730469 269.382813 336.433594 269.066406 337.140625 C 268.5625 338.238281 267.742188 339.394531 266.617188 340.609375 C 264.9375 342.460938 263.882813 343.570313 263.453125 343.945313 L 267.050781 343.945313 C 267.789063 343.945313 268.304688 343.921875 268.597656 343.871094 C 268.894531 343.820313 269.164063 343.714844 269.402344 343.546875 C 269.640625 343.378906 269.847656 343.144531 270.019531 342.839844 L 270.390625 342.839844 "/>
<path style="fill:none;stroke-width:13.875;stroke-linecap:square;stroke-linejoin:miter;stroke:rgb(0%,0%,0%);stroke-opacity:1;stroke-miterlimit:10;" d="M 2813.007813 2768.046875 L 2757.5 2768.046875 " transform="matrix(0.1,0,0,-0.1,0,555)"/>
<path style="fill:none;stroke-width:13.875;stroke-linecap:square;stroke-linejoin:miter;stroke:rgb(0%,0%,0%);stroke-opacity:1;stroke-miterlimit:10;" d="M 2813.007813 3367.773438 L 2757.5 3367.773438 " transform="matrix(0.1,0,0,-0.1,0,555)"/>
<path style=" stroke:none;fill-rule:nonzero;fill:rgb(0%,0%,0%);fill-opacity:1;" d="M 270.390625 223.515625 L 269.433594 226.160156 L 261.304688 226.160156 L 261.304688 225.792969 C 263.6875 223.609375 265.367188 221.828125 266.34375 220.4375 C 267.320313 219.050781 267.808594 217.785156 267.808594 216.644531 C 267.808594 215.777344 267.539063 215.0625 267.007813 214.496094 C 266.472656 213.933594 265.828125 213.652344 265.074219 213.652344 C 264.410156 213.652344 263.808594 213.851563 263.265625 214.25 C 262.726563 214.644531 262.324219 215.226563 262.0625 215.992188 L 261.695313 215.992188 C 261.867188 214.734375 262.304688 213.773438 263.007813 213.097656 C 263.707031 212.429688 264.578125 212.09375 265.617188 212.09375 C 266.746094 212.09375 267.683594 212.453125 268.425781 213.175781 C 269.171875 213.898438 269.542969 214.742188 269.542969 215.710938 C 269.542969 216.40625 269.382813 217.109375 269.066406 217.816406 C 268.5625 218.914063 267.742188 220.070313 266.617188 221.285156 C 264.9375 223.132813 263.882813 224.246094 263.453125 224.621094 L 267.050781 224.621094 C 267.789063 224.621094 268.304688 224.597656 268.597656 224.546875 C 268.894531 224.496094 269.164063 224.386719 269.402344 224.222656 C 269.640625 224.054688 269.847656 223.820313 270.019531 223.515625 L 270.390625 223.515625 "/>
<path style="fill:none;stroke-width:13.875;stroke-linecap:square;stroke-linejoin:miter;stroke:rgb(0%,0%,0%);stroke-opacity:1;stroke-miterlimit:10;" d="M 2813.007813 3967.5 L 2757.5 3967.5 " transform="matrix(0.1,0,0,-0.1,0,555)"/>
<path style=" stroke:none;fill-rule:nonzero;fill:rgb(0%,0%,0%);fill-opacity:1;" d="M 270.539063 161.425781 L 270.539063 162.859375 L 268.675781 162.859375 L 268.675781 166.5 L 267.007813 166.5 L 267.007813 162.859375 L 261.175781 162.859375 L 261.175781 161.554688 L 267.570313 152.429688 L 268.675781 152.429688 L 268.675781 161.425781 Z M 267.007813 161.425781 L 267.007813 154.574219 L 262.171875 161.425781 Z M 267.007813 161.425781 "/>
<path style="fill:none;stroke-width:13.875;stroke-linecap:square;stroke-linejoin:miter;stroke:rgb(0%,0%,0%);stroke-opacity:1;stroke-miterlimit:10;" d="M 2813.007813 4567.1875 L 2757.5 4567.1875 " transform="matrix(0.1,0,0,-0.1,0,555)"/>
<path style=" stroke:none;fill-rule:nonzero;fill:rgb(0%,0%,0%);fill-opacity:1;" d="M 270.171875 91.378906 L 270.171875 91.769531 C 269.273438 91.855469 268.546875 92.035156 267.980469 92.300781 C 267.417969 92.570313 266.863281 92.976563 266.3125 93.527344 C 265.761719 94.074219 265.308594 94.6875 264.945313 95.359375 C 264.585938 96.03125 264.28125 96.828125 264.035156 97.753906 C 265.003906 97.089844 265.980469 96.757813 266.964844 96.757813 C 267.902344 96.757813 268.71875 97.136719 269.410156 97.894531 C 270.105469 98.652344 270.453125 99.625 270.453125 100.8125 C 270.453125 101.96875 270.105469 103.023438 269.410156 103.976563 C 268.574219 105.117188 267.460938 105.6875 266.074219 105.6875 C 265.136719 105.6875 264.332031 105.378906 263.667969 104.757813 C 262.382813 103.542969 261.738281 101.972656 261.738281 100.050781 C 261.738281 98.808594 261.988281 97.632813 262.484375 96.527344 C 262.984375 95.421875 263.691406 94.4375 264.609375 93.570313 C 265.527344 92.703125 266.40625 92.121094 267.246094 91.824219 C 268.082031 91.527344 268.863281 91.378906 269.585938 91.378906 Z M 263.863281 98.492188 C 263.734375 99.414063 263.667969 100.160156 263.667969 100.722656 C 263.667969 101.375 263.789063 102.078125 264.035156 102.835938 C 264.28125 103.597656 264.636719 104.199219 265.097656 104.648438 C 265.445313 104.964844 265.871094 105.125 266.378906 105.125 C 266.957031 105.125 267.480469 104.847656 267.949219 104.289063 C 268.417969 103.734375 268.65625 102.941406 268.65625 101.914063 C 268.65625 100.761719 268.421875 99.757813 267.960938 98.914063 C 267.496094 98.066406 266.839844 97.644531 265.988281 97.644531 C 265.726563 97.644531 265.453125 97.699219 265.164063 97.808594 C 264.875 97.914063 264.441406 98.144531 263.863281 98.492188 "/>
<path style="fill:none;stroke-width:13.875;stroke-linecap:square;stroke-linejoin:miter;stroke:rgb(0%,0%,0%);stroke-opacity:1;stroke-miterlimit:10;" d="M 2813.007813 5166.875 L 2757.5 5166.875 " transform="matrix(0.1,0,0,-0.1,0,555)"/>
<path style=" stroke:none;fill-rule:nonzero;fill:rgb(0%,0%,0%);fill-opacity:1;" d="M 264.839844 38.851563 C 263.753906 37.953125 263.054688 37.234375 262.734375 36.691406 C 262.417969 36.152344 262.257813 35.589844 262.257813 35.011719 C 262.257813 34.117188 262.605469 33.34375 263.300781 32.691406 C 263.992188 32.042969 264.910156 31.71875 266.054688 31.71875 C 267.164063 31.71875 268.0625 32.019531 268.742188 32.628906 C 269.421875 33.234375 269.757813 33.921875 269.757813 34.6875 C 269.757813 35.207031 269.574219 35.734375 269.207031 36.269531 C 268.839844 36.804688 268.074219 37.433594 266.921875 38.15625 C 268.105469 39.082031 268.890625 39.804688 269.28125 40.324219 C 269.804688 41.019531 270.0625 41.746094 270.0625 42.515625 C 270.0625 43.480469 269.695313 44.308594 268.957031 44.996094 C 268.21875 45.683594 267.253906 46.027344 266.054688 46.027344 C 264.738281 46.027344 263.710938 45.621094 262.972656 44.8125 C 262.394531 44.148438 262.105469 43.425781 262.105469 42.644531 C 262.105469 42.035156 262.3125 41.433594 262.726563 40.835938 C 263.136719 40.234375 263.839844 39.574219 264.839844 38.851563 Z M 266.441406 37.765625 C 267.253906 37.027344 267.765625 36.445313 267.980469 36.019531 C 268.199219 35.59375 268.308594 35.113281 268.308594 34.578125 C 268.308594 33.871094 268.109375 33.3125 267.710938 32.910156 C 267.3125 32.503906 266.769531 32.304688 266.074219 32.304688 C 265.378906 32.304688 264.816406 32.503906 264.382813 32.910156 C 263.949219 33.3125 263.734375 33.785156 263.734375 34.320313 C 263.734375 34.664063 263.824219 35.015625 264.003906 35.371094 C 264.183594 35.726563 264.441406 36.0625 264.773438 36.378906 Z M 265.316406 39.238281 C 264.753906 39.703125 264.335938 40.214844 264.070313 40.777344 C 263.800781 41.34375 263.667969 41.949219 263.667969 42.601563 C 263.667969 43.46875 263.90625 44.164063 264.382813 44.691406 C 264.859375 45.21875 265.46875 45.484375 266.203125 45.484375 C 266.941406 45.484375 267.53125 45.277344 267.972656 44.867188 C 268.410156 44.453125 268.632813 43.953125 268.632813 43.359375 C 268.632813 42.867188 268.503906 42.425781 268.242188 42.035156 C 267.765625 41.328125 266.789063 40.394531 265.316406 39.238281 "/>
<path style="fill:none;stroke-width:13.875;stroke-linecap:square;stroke-linejoin:miter;stroke:rgb(0%,0%,0%);stroke-opacity:1;stroke-miterlimit:10;" d="M 2813.007813 669.101563 L 2785.234375 669.101563 " transform="matrix(0.1,0,0,-0.1,0,555)"/>
<path style="fill:none;stroke-width:13.875;stroke-linecap:square;stroke-linejoin:miter;stroke:rgb(0%,0%,0%);stroke-opacity:1;stroke-miterlimit:10;" d="M 2813.007813 1268.789063 L 2785.234375 1268.789063 " transform="matrix(0.1,0,0,-0.1,0,555)"/>
<path style="fill:none;stroke-width:13.875;stroke-linecap:square;stroke-linejoin:miter;stroke:rgb(0%,0%,0%);stroke-opacity:1;stroke-miterlimit:10;" d="M 2813.007813 1868.515625 L 2785.234375 1868.515625 " transform="matrix(0.1,0,0,-0.1,0,555)"/>
<path style="fill:none;stroke-width:13.875;stroke-linecap:square;stroke-linejoin:miter;stroke:rgb(0%,0%,0%);stroke-opacity:1;stroke-miterlimit:10;" d="M 2813.007813 2468.203125 L 2785.234375 2468.203125 " transform="matrix(0.1,0,0,-0.1,0,555)"/>
<path style="fill:none;stroke-width:13.875;stroke-linecap:square;stroke-linejoin:miter;stroke:rgb(0%,0%,0%);stroke-opacity:1;stroke-miterlimit:10;" d="M 2813.007813 3067.929688 L 2785.234375 3067.929688 " transform="matrix(0.1,0,0,-0.1,0,555)"/>
<path style="fill:none;stroke-width:13.875;stroke-linecap:square;stroke-linejoin:miter;stroke:rgb(0%,0%,0%);stroke-opacity:1;stroke-miterlimit:10;" d="M 2813.007813 3667.617188 L 2785.234375 3667.617188 " transform="matrix(0.1,0,0,-0.1,0,555)"/>
<path style="fill:none;stroke-width:13.875;stroke-linecap:square;stroke-linejoin:miter;stroke:rgb(0%,0%,0%);stroke-opacity:1;stroke-miterlimit:10;" d="M 2813.007813 4267.34375 L 2785.234375 4267.34375 " transform="matrix(0.1,0,0,-0.1,0,555)"/>
<path style="fill:none;stroke-width:13.875;stroke-linecap:square;stroke-linejoin:miter;stroke:rgb(0%,0%,0%);stroke-opacity:1;stroke-miterlimit:10;" d="M 2813.007813 4867.03125 L 2785.234375 4867.03125 " transform="matrix(0.1,0,0,-0.1,0,555)"/>
<path style="fill:none;stroke-width:13.875;stroke-linecap:square;stroke-linejoin:miter;stroke:rgb(0%,0%,0%);stroke-opacity:1;stroke-miterlimit:10;" d="M 2813.007813 5466.757813 L 2785.234375 5466.757813 " transform="matrix(0.1,0,0,-0.1,0,555)"/>
</g>
</svg>
