<?xml version="1.0" encoding="UTF-8"?>
<svg xmlns="http://www.w3.org/2000/svg" xmlns:xlink="http://www.w3.org/1999/xlink" width="555pt" height="555pt" viewBox="0 0 555 555" version="1.1">
<defs>
<clipPath id="clip1">
  <path d="M 28 7 L 535 7 L 535 546.699219 L 28 546.699219 Z M 28 7 "/>
</clipPath>
<clipPath id="clip2">
  <path d="M 11 299 L 20.8125 299 L 20.8125 301 L 11 301 Z M 11 299 "/>
</clipPath>
<clipPath id="clip3">
  <path d="M 67 313 L 76.3125 313 L 76.3125 315 L 67 315 Z M 67 313 "/>
</clipPath>
<clipPath id="clip4">
  <path d="M 145 299 L 154.011719 299 L 154.011719 301 L 145 301 Z M 145 299 "/>
</clipPath>
<clipPath id="clip5">
  <path d="M 233 532 L 242.8125 532 L 242.8125 535 L 233 535 Z M 233 532 "/>
</clipPath>
<clipPath id="clip6">
  <path d="M 233 469 L 242.8125 469 L 242.8125 471 L 233 471 Z M 233 469 "/>
</clipPath>
<clipPath id="clip7">
  <path d="M 233 405 L 242.8125 405 L 242.8125 407 L 233 407 Z M 233 405 "/>
</clipPath>
<clipPath id="clip8">
  <path d="M 233 341 L 242.8125 341 L 242.8125 343 L 233 343 Z M 233 341 "/>
</clipPath>
</defs>
<g id="surface1">
<rect x="0" y="0" width="555" height="555" style="fill:rgb(100%,100%,100%);fill-opacity:1;stroke:none;"/>
<g clip-path="url(#clip1)" clip-rule="nonzero">
<path style="fill:none;stroke-width:20.8125;stroke-linecap:butt;stroke-linejoin:round;stroke:rgb(47.068787%,0%,5.488586%);stroke-opacity:1;stroke-miterlimit:10;" d="M 291.367188 5466.757813 L 317.890625 5462.96875 L 340.976563 5453.515625 L 366.914063 5435.898438 L 393.007813 5410.390625 L 419.023438 5376.953125 L 443.125 5338.398438 L 468.085938 5290.390625 L 493.867188 5231.640625 L 519.609375 5163.359375 L 546.054688 5082.5 L 569.375 5001.953125 L 595.585938 4900.546875 L 621.953125 4786.953125 L 647.34375 4666.210938 L 670.390625 4546.992188 L 697.8125 4393.632813 L 721.015625 4254.140625 L 748.046875 4081.445313 L 771.953125 3919.882813 L 798.203125 3734.21875 L 823.164063 3550.273438 L 849.257813 3352.304688 L 873.203125 3166.328125 L 899.023438 2962.734375 L 925.820313 2749.726563 L 949.179688 2564.414063 L 974.375 2366.015625 L 1000.429688 2164.414063 L 1025.9375 1972.148438 L 1050.585938 1791.953125 L 1077.96875 1600.15625 L 1102.539063 1436.210938 L 1128.828125 1270.9375 L 1152.617188 1130.46875 L 1178.632813 987.578125 L 1203.125 863.59375 L 1228.710938 744.960938 L 1253.75 639.804688 L 1279.921875 541.09375 L 1305.15625 456.640625 L 1330.976563 380.78125 L 1356.5625 315.507813 L 1380.078125 263.90625 L 1406.992188 214.0625 L 1431.09375 177.539063 L 1456.796875 146.484375 L 1481.40625 124.0625 L 1508.710938 107.109375 L 1532.34375 99.0625 L 1559.21875 97.226563 L 1583.671875 102.265625 L 1610.390625 115.234375 L 1633.515625 132.8125 L 1659.804688 160.273438 L 1685.195313 194.726563 L 1710.585938 237.34375 L 1735.898438 288.320313 L 1760.15625 345.820313 L 1786.445313 417.8125 L 1811.445313 496.40625 L 1837.8125 590.078125 L 1861.640625 684.882813 L 1888.007813 800.898438 L 1913.242188 923.164063 L 1938.4375 1056.015625 L 1964.726563 1206.054688 L 1988.984375 1354.101563 L 2013.789063 1514.960938 L 2041.171875 1702.460938 L 2065.976563 1880.273438 L 2091.367188 2068.789063 L 2117.148438 2266.171875 L 2140.859375 2451.328125 L 2166.132813 2651.171875 L 2191.210938 2850.507813 L 2218.046875 3063.125 L 2241.71875 3248.710938 L 2269.0625 3458.828125 L 2293.710938 3643.28125 L 2318.125 3819.6875 L 2344.335938 4001.445313 L 2370.664063 4174.570313 L 2394.648438 4323.125 L 2420.078125 4470.898438 L 2444.921875 4604.726563 L 2471.835938 4738.007813 L 2495.15625 4843.28125 L 2521.875 4952.734375 L 2547.03125 5044.6875 L 2571.953125 5125.585938 L 2596.875 5196.757813 L 2622.304688 5259.726563 L 2649.257813 5316.367188 L 2673.945313 5359.648438 L 2698.359375 5394.726563 L 2724.414063 5424.140625 L 2750.429688 5445.664063 L 2773.789063 5458.515625 L 2801.445313 5466.054688 L 2824.609375 5466.015625 L 2851.679688 5458.710938 L 2877.539063 5444.296875 L 2900.585938 5425.078125 L 2926.523438 5396.09375 L 2952.65625 5358.632813 L 2978.632813 5312.65625 L 3002.734375 5261.835938 L 3027.695313 5200.46875 L 3053.515625 5127.1875 L 3079.257813 5043.671875 L 3105.703125 4946.523438 L 3128.984375 4851.210938 L 3155.234375 4732.8125 L 3181.5625 4602.03125 L 3206.953125 4464.882813 L 3230.039063 4331.054688 L 3257.460938 4160.9375 L 3280.664063 4008.085938 L 3307.695313 3821.09375 L 3331.601563 3648.28125 L 3357.8125 3451.992188 L 3382.8125 3259.921875 L 3408.867188 3055.625 L 3432.8125 2865.976563 L 3458.632813 2660.78125 L 3485.46875 2448.710938 L 3508.828125 2266.445313 L 3534.023438 2073.4375 L 3560.078125 1879.765625 L 3585.546875 1697.226563 L 3610.195313 1528.203125 L 3637.578125 1350.46875 L 3662.1875 1200.46875 L 3688.476563 1051.015625 L 3712.265625 925.546875 L 3738.28125 799.453125 L 3762.773438 691.445313 L 3788.359375 589.414063 L 3813.398438 500.234375 L 3839.570313 417.773438 L 3864.804688 348.398438 L 3890.585938 287.265625 L 3916.171875 235.859375 L 3939.6875 196.40625 L 3966.640625 159.726563 L 3990.742188 134.375 L 4016.445313 114.6875 L 4041.054688 102.734375 L 4068.359375 97.109375 L 4091.992188 98.75 L 4118.828125 107.851563 L 4143.28125 123.046875 L 4170.078125 147.421875 L 4193.164063 175.195313 L 4219.453125 214.84375 L 4244.84375 261.679688 L 4270.234375 317.382813 L 4295.507813 382.109375 L 4319.804688 453.476563 L 4346.054688 541.132813 L 4371.09375 635.273438 L 4397.460938 745.742188 L 4421.289063 855.976563 L 4447.65625 989.179688 L 4472.890625 1127.773438 L 4498.085938 1276.484375 L 4524.375 1442.382813 L 4548.59375 1604.101563 L 4573.4375 1777.734375 L 4600.820313 1977.695313 L 4625.625 2164.960938 L 4650.976563 2361.210938 L 4676.796875 2564.179688 L 4700.507813 2752.34375 L 4725.78125 2953.164063 L 4750.859375 3151.09375 L 4777.695313 3359.648438 L 4801.367188 3539.492188 L 4828.710938 3740.703125 L 4853.359375 3915.15625 L 4877.734375 4080.117188 L 4903.945313 4248.046875 L 4930.3125 4406.015625 L 4954.296875 4539.921875 L 4979.726563 4671.523438 L 5004.570313 4789.296875 L 5031.484375 4905 L 5054.765625 4995.195313 L 5081.523438 5087.695313 L 5106.679688 5164.179688 L 5131.601563 5230.351563 L 5156.523438 5287.421875 L 5181.953125 5336.757813 L 5208.867188 5379.6875 L 5233.59375 5411.09375 L 5258.007813 5434.960938 L 5284.0625 5453.007813 L 5310.078125 5463.515625 L 5334.609375 5466.757813 " transform="matrix(0.1,0,0,-0.1,0,555)"/>
</g>
<path style="fill:none;stroke-width:13.875;stroke-linecap:butt;stroke-linejoin:round;stroke:rgb(0%,0%,0%);stroke-opacity:1;stroke-miterlimit:10;" d="M 291.367188 2781.875 L 5334.609375 2781.875 " transform="matrix(0.1,0,0,-0.1,0,555)"/>
<path style=" stroke:none;fill-rule:nonzero;fill:rgb(0%,0%,0%);fill-opacity:1;" d="M 405.496094 348.609375 C 405.785156 348.910156 406.003906 349.222656 406.144531 349.539063 C 406.261719 349.742188 406.4375 350.292969 406.664063 351.1875 L 407.449219 350.039063 C 407.648438 349.75 407.898438 349.480469 408.195313 349.226563 C 408.492188 348.972656 408.746094 348.796875 408.964844 348.695313 C 409.109375 348.636719 409.269531 348.609375 409.441406 348.609375 C 409.6875 348.609375 409.886719 348.675781 410.039063 348.816406 C 410.1875 348.953125 410.265625 349.113281 410.265625 349.304688 C 410.265625 349.535156 410.222656 349.691406 410.136719 349.777344 C 409.976563 349.921875 409.789063 349.996094 409.570313 349.996094 C 409.441406 349.996094 409.3125 349.96875 409.183594 349.910156 C 408.90625 349.824219 408.71875 349.777344 408.617188 349.777344 C 408.472656 349.777344 408.308594 349.859375 408.117188 350.019531 C 407.757813 350.320313 407.324219 350.914063 406.820313 351.796875 L 407.535156 354.808594 C 407.648438 355.273438 407.742188 355.550781 407.816406 355.644531 C 407.890625 355.738281 407.96875 355.785156 408.054688 355.785156 C 408.171875 355.785156 408.316406 355.71875 408.488281 355.589844 C 408.804688 355.316406 409.082031 354.960938 409.3125 354.527344 L 409.613281 354.679688 C 409.238281 355.371094 408.769531 355.949219 408.207031 356.414063 C 407.890625 356.671875 407.613281 356.804688 407.382813 356.804688 C 407.050781 356.804688 406.789063 356.613281 406.601563 356.242188 C 406.472656 356.007813 406.21875 355.027344 405.84375 353.292969 C 404.917969 354.882813 404.183594 355.902344 403.632813 356.347656 C 403.269531 356.652344 402.921875 356.804688 402.589844 356.804688 C 402.359375 356.804688 402.144531 356.714844 401.941406 356.542969 C 401.808594 356.414063 401.746094 356.242188 401.746094 356.023438 C 401.746094 355.835938 401.808594 355.675781 401.941406 355.546875 C 402.070313 355.414063 402.230469 355.351563 402.417969 355.351563 C 402.605469 355.351563 402.800781 355.445313 403.003906 355.632813 C 403.160156 355.761719 403.285156 355.828125 403.371094 355.828125 C 403.429688 355.828125 403.515625 355.785156 403.632813 355.699219 C 403.90625 355.464844 404.28125 354.980469 404.757813 354.246094 C 405.234375 353.507813 405.546875 352.972656 405.691406 352.640625 C 405.328125 351.210938 405.136719 350.460938 405.105469 350.386719 C 404.976563 349.996094 404.804688 349.722656 404.585938 349.5625 C 404.367188 349.402344 404.042969 349.324219 403.609375 349.324219 C 403.480469 349.324219 403.328125 349.332031 403.15625 349.347656 L 403.15625 349.019531 L 405.496094 348.609375 "/>
<path style="fill:none;stroke-width:13.875;stroke-linecap:square;stroke-linejoin:miter;stroke:rgb(0%,0%,0%);stroke-opacity:1;stroke-miterlimit:10;" d="M 291.367188 2781.875 L 291.367188 2726.367188 " transform="matrix(0.1,0,0,-0.1,0,555)"/>
<g clip-path="url(#clip2)" clip-rule="nonzero">
<path style=" stroke:none;fill-rule:nonzero;fill:rgb(0%,0%,0%);fill-opacity:1;" d="M 25.601563 300.933594 L 11.859375 300.933594 L 11.859375 299.851563 L 25.601563 299.851563 L 25.601563 300.933594 "/>
</g>
<path style=" stroke:none;fill-rule:nonzero;fill:rgb(0%,0%,0%);fill-opacity:1;" d="M 33.125 303.992188 L 32.171875 306.636719 L 24.042969 306.636719 L 24.042969 306.269531 C 26.425781 304.085938 28.109375 302.300781 29.082031 300.914063 C 30.058594 299.527344 30.546875 298.261719 30.546875 297.117188 C 30.546875 296.253906 30.28125 295.535156 29.746094 294.972656 C 29.210938 294.410156 28.566406 294.128906 27.816406 294.128906 C 27.148438 294.128906 26.546875 294.324219 26.003906 294.726563 C 25.464844 295.121094 25.0625 295.703125 24.800781 296.46875 L 24.433594 296.46875 C 24.605469 295.210938 25.042969 294.246094 25.746094 293.574219 C 26.445313 292.902344 27.316406 292.566406 28.355469 292.566406 C 29.484375 292.566406 30.417969 292.929688 31.164063 293.648438 C 31.910156 294.371094 32.28125 295.21875 32.28125 296.1875 C 32.28125 296.878906 32.121094 297.582031 31.804688 298.289063 C 31.296875 299.390625 30.480469 300.546875 29.355469 301.757813 C 27.675781 303.609375 26.621094 304.722656 26.1875 305.097656 L 29.789063 305.097656 C 30.523438 305.097656 31.042969 305.070313 31.339844 305.019531 C 31.632813 304.972656 31.902344 304.863281 32.140625 304.695313 C 32.378906 304.53125 32.585938 304.296875 32.757813 303.992188 L 33.125 303.992188 "/>
<path style=" stroke:none;fill-rule:nonzero;fill:rgb(0%,0%,0%);fill-opacity:1;" d="M 49.886719 303.492188 C 49.886719 303.898438 49.828125 304.308594 49.710938 304.71875 C 49.59375 305.132813 49.4375 305.503906 49.234375 305.84375 C 49.03125 306.183594 48.773438 306.457031 48.453125 306.65625 C 48.136719 306.859375 47.78125 306.960938 47.390625 306.960938 C 47 306.960938 46.648438 306.796875 46.328125 306.464844 C 46.011719 306.132813 45.75 305.632813 45.546875 304.96875 C 45.519531 304.867188 45.496094 304.738281 45.472656 304.589844 C 45.453125 304.4375 45.433594 304.277344 45.417969 304.109375 C 45.40625 303.945313 45.394531 303.78125 45.386719 303.625 C 45.378906 303.464844 45.375 303.335938 45.375 303.230469 C 45.375 302.4375 45.433594 301.625 45.546875 300.796875 C 45.664063 299.964844 45.757813 299.128906 45.832031 298.289063 L 43.46875 298.289063 C 43.335938 299.851563 43.199219 301.160156 43.054688 302.226563 C 42.910156 303.285156 42.765625 304.246094 42.621094 305.097656 C 42.578125 305.3125 42.535156 305.519531 42.492188 305.714844 C 42.449219 305.910156 42.390625 306.082031 42.320313 306.226563 C 42.175781 306.542969 41.988281 306.753906 41.765625 306.863281 C 41.542969 306.972656 41.335938 307.027344 41.148438 307.027344 C 40.832031 307.027344 40.566406 306.914063 40.355469 306.691406 C 40.148438 306.46875 40.042969 306.21875 40.042969 305.945313 C 40.042969 305.652344 40.117188 305.410156 40.269531 305.21875 C 40.421875 305.019531 40.589844 304.808594 40.78125 304.578125 C 40.96875 304.375 41.140625 304.15625 41.300781 303.925781 C 41.457031 303.695313 41.558594 303.40625 41.601563 303.058594 L 42.210938 298.289063 L 41.214844 298.289063 C 40.996094 298.289063 40.757813 298.34375 40.496094 298.453125 C 40.238281 298.5625 40.011719 298.746094 39.824219 299.007813 L 39.414063 299.613281 L 39.066406 299.613281 C 39.371094 298.628906 39.75 297.863281 40.207031 297.316406 C 40.660156 296.765625 41.265625 296.492188 42.015625 296.492188 L 49.710938 296.492188 L 49.710938 298.289063 L 47.089844 298.289063 C 47.042969 298.695313 47.003906 299.117188 46.96875 299.558594 C 46.933594 300 46.90625 300.4375 46.894531 300.882813 C 46.878906 301.320313 46.867188 301.738281 46.859375 302.128906 C 46.851563 302.519531 46.847656 302.851563 46.847656 303.125 C 46.847656 303.355469 46.871094 303.589844 46.914063 303.816406 C 46.957031 304.050781 47.039063 304.253906 47.152344 304.4375 C 47.269531 304.617188 47.414063 304.765625 47.585938 304.882813 C 47.761719 304.996094 47.96875 305.054688 48.214844 305.054688 C 48.375 305.054688 48.554688 305 48.757813 304.890625 C 48.960938 304.785156 49.125 304.597656 49.257813 304.339844 C 49.3125 304.238281 49.355469 304.113281 49.375 303.972656 C 49.398438 303.828125 49.414063 303.667969 49.429688 303.492188 L 49.886719 303.492188 "/>
<path style="fill:none;stroke-width:13.875;stroke-linecap:square;stroke-linejoin:miter;stroke:rgb(0%,0%,0%);stroke-opacity:1;stroke-miterlimit:10;" d="M 921.796875 2781.875 L 921.796875 2726.367188 " transform="matrix(0.1,0,0,-0.1,0,555)"/>
<g clip-path="url(#clip3)" clip-rule="nonzero">
<path style=" stroke:none;fill-rule:nonzero;fill:rgb(0%,0%,0%);fill-opacity:1;" d="M 81.101563 314.808594 L 67.359375 314.808594 L 67.359375 313.726563 L 81.101563 313.726563 L 81.101563 314.808594 "/>
</g>
<path style=" stroke:none;fill-rule:nonzero;fill:rgb(0%,0%,0%);fill-opacity:1;" d="M 87.085938 295.472656 C 87.476563 294.546875 87.972656 293.832031 88.574219 293.324219 C 89.171875 292.820313 89.917969 292.566406 90.816406 292.566406 C 91.914063 292.566406 92.761719 292.929688 93.351563 293.648438 C 93.800781 294.1875 94.023438 294.757813 94.023438 295.363281 C 94.023438 296.375 93.394531 297.414063 92.140625 298.484375 C 92.976563 298.816406 93.613281 299.289063 94.046875 299.90625 C 94.480469 300.519531 94.695313 301.246094 94.695313 302.085938 C 94.695313 303.269531 94.320313 304.296875 93.570313 305.160156 C 92.574219 306.304688 91.140625 306.875 89.277344 306.875 C 88.335938 306.875 87.703125 306.761719 87.367188 306.527344 C 87.035156 306.296875 86.871094 306.050781 86.871094 305.789063 C 86.871094 305.589844 86.949219 305.414063 87.109375 305.269531 C 87.269531 305.128906 87.457031 305.054688 87.671875 305.054688 C 87.847656 305.054688 88.019531 305.085938 88.191406 305.140625 C 88.308594 305.171875 88.574219 305.289063 88.984375 305.496094 C 89.394531 305.707031 89.675781 305.835938 89.820313 305.878906 C 90.078125 305.949219 90.347656 305.988281 90.621094 305.988281 C 91.316406 305.988281 91.917969 305.71875 92.429688 305.183594 C 92.945313 304.648438 93.199219 304.019531 93.199219 303.296875 C 93.199219 302.765625 93.085938 302.242188 92.855469 301.738281 C 92.664063 301.347656 92.472656 301.058594 92.269531 300.871094 C 91.980469 300.59375 91.578125 300.347656 91.066406 300.132813 C 90.550781 299.914063 90.035156 299.808594 89.515625 299.808594 L 89.191406 299.808594 L 89.191406 299.480469 C 89.726563 299.425781 90.261719 299.238281 90.792969 298.917969 C 91.328125 298.601563 91.71875 298.21875 91.964844 297.769531 C 92.210938 297.320313 92.332031 296.828125 92.332031 296.296875 C 92.332031 295.601563 92.117188 295.039063 91.683594 294.605469 C 91.25 294.171875 90.707031 293.953125 90.058594 293.953125 C 89.003906 293.953125 88.121094 294.519531 87.414063 295.644531 L 87.085938 295.472656 "/>
<path style=" stroke:none;fill-rule:nonzero;fill:rgb(0%,0%,0%);fill-opacity:1;" d="M 112.320313 303.492188 C 112.320313 303.898438 112.265625 304.308594 112.148438 304.71875 C 112.03125 305.132813 111.875 305.503906 111.671875 305.84375 C 111.46875 306.183594 111.210938 306.457031 110.890625 306.65625 C 110.574219 306.859375 110.21875 306.960938 109.828125 306.960938 C 109.4375 306.960938 109.085938 306.796875 108.765625 306.464844 C 108.449219 306.132813 108.1875 305.632813 107.984375 304.96875 C 107.957031 304.867188 107.933594 304.738281 107.910156 304.589844 C 107.890625 304.4375 107.871094 304.277344 107.855469 304.109375 C 107.84375 303.945313 107.832031 303.78125 107.824219 303.625 C 107.816406 303.464844 107.8125 303.335938 107.8125 303.230469 C 107.8125 302.4375 107.871094 301.625 107.984375 300.796875 C 108.101563 299.964844 108.195313 299.128906 108.269531 298.289063 L 105.90625 298.289063 C 105.773438 299.851563 105.636719 301.160156 105.492188 302.226563 C 105.347656 303.285156 105.203125 304.246094 105.058594 305.097656 C 105.015625 305.3125 104.972656 305.519531 104.929688 305.714844 C 104.886719 305.910156 104.828125 306.082031 104.757813 306.226563 C 104.613281 306.542969 104.425781 306.753906 104.203125 306.863281 C 103.980469 306.972656 103.773438 307.027344 103.585938 307.027344 C 103.269531 307.027344 103.003906 306.914063 102.792969 306.691406 C 102.585938 306.46875 102.480469 306.21875 102.480469 305.945313 C 102.480469 305.652344 102.554688 305.410156 102.707031 305.21875 C 102.859375 305.019531 103.027344 304.808594 103.21875 304.578125 C 103.40625 304.375 103.578125 304.15625 103.738281 303.925781 C 103.894531 303.695313 103.996094 303.40625 104.039063 303.058594 L 104.648438 298.289063 L 103.648438 298.289063 C 103.433594 298.289063 103.195313 298.34375 102.933594 298.453125 C 102.675781 298.5625 102.449219 298.746094 102.261719 299.007813 L 101.851563 299.613281 L 101.503906 299.613281 C 101.808594 298.628906 102.1875 297.863281 102.644531 297.316406 C 103.097656 296.765625 103.699219 296.492188 104.453125 296.492188 L 112.148438 296.492188 L 112.148438 298.289063 L 109.527344 298.289063 C 109.480469 298.695313 109.441406 299.117188 109.40625 299.558594 C 109.371094 300 109.34375 300.4375 109.328125 300.882813 C 109.316406 301.320313 109.304688 301.738281 109.296875 302.128906 C 109.289063 302.519531 109.285156 302.851563 109.285156 303.125 C 109.285156 303.355469 109.308594 303.589844 109.351563 303.816406 C 109.394531 304.050781 109.476563 304.253906 109.589844 304.4375 C 109.707031 304.617188 109.851563 304.765625 110.023438 304.882813 C 110.199219 304.996094 110.40625 305.054688 110.652344 305.054688 C 110.8125 305.054688 110.992188 305 111.195313 304.890625 C 111.398438 304.785156 111.5625 304.597656 111.695313 304.339844 C 111.753906 304.238281 111.789063 304.113281 111.8125 303.972656 C 111.835938 303.828125 111.851563 303.667969 111.867188 303.492188 L 112.320313 303.492188 "/>
<path style=" stroke:none;fill-rule:nonzero;fill:rgb(0%,0%,0%);fill-opacity:1;" d="M 103.890625 331.742188 L 102.933594 334.386719 L 94.804688 334.386719 L 94.804688 334.019531 C 97.191406 331.835938 98.871094 330.050781 99.84375 328.664063 C 100.820313 327.277344 101.308594 326.011719 101.308594 324.867188 C 101.308594 324.003906 101.042969 323.285156 100.507813 322.722656 C 99.972656 322.160156 99.328125 321.878906 98.578125 321.878906 C 97.914063 321.878906 97.308594 322.074219 96.765625 322.476563 C 96.226563 322.871094 95.824219 323.453125 95.5625 324.21875 L 95.195313 324.21875 C 95.367188 322.960938 95.804688 321.996094 96.507813 321.324219 C 97.207031 320.652344 98.078125 320.316406 99.121094 320.316406 C 100.246094 320.316406 101.183594 320.679688 101.925781 321.398438 C 102.671875 322.121094 103.042969 322.96875 103.042969 323.9375 C 103.042969 324.628906 102.882813 325.332031 102.566406 326.039063 C 102.0625 327.140625 101.242188 328.296875 100.117188 329.507813 C 98.441406 331.359375 97.386719 332.472656 96.953125 332.847656 L 100.550781 332.847656 C 101.289063 332.847656 101.804688 332.820313 102.101563 332.769531 C 102.394531 332.722656 102.664063 332.613281 102.902344 332.445313 C 103.140625 332.28125 103.347656 332.046875 103.519531 331.742188 L 103.890625 331.742188 "/>
<path style="fill:none;stroke-width:13.875;stroke-linecap:square;stroke-linejoin:miter;stroke:rgb(0%,0%,0%);stroke-opacity:1;stroke-miterlimit:10;" d="M 825.546875 2407.304688 L 1172.421875 2407.304688 " transform="matrix(0.1,0,0,-0.1,0,555)"/>
<path style="fill:none;stroke-width:13.875;stroke-linecap:square;stroke-linejoin:miter;stroke:rgb(0%,0%,0%);stroke-opacity:1;stroke-miterlimit:10;" d="M 1552.1875 2781.875 L 1552.1875 2726.367188 " transform="matrix(0.1,0,0,-0.1,0,555)"/>
<g clip-path="url(#clip4)" clip-rule="nonzero">
<path style=" stroke:none;fill-rule:nonzero;fill:rgb(0%,0%,0%);fill-opacity:1;" d="M 158.804688 300.933594 L 145.058594 300.933594 L 145.058594 299.851563 L 158.804688 299.851563 L 158.804688 300.933594 "/>
</g>
<path style=" stroke:none;fill-rule:nonzero;fill:rgb(0%,0%,0%);fill-opacity:1;" d="M 167.820313 303.492188 C 167.820313 303.898438 167.765625 304.308594 167.648438 304.71875 C 167.53125 305.132813 167.375 305.503906 167.171875 305.84375 C 166.96875 306.183594 166.710938 306.457031 166.390625 306.65625 C 166.074219 306.859375 165.71875 306.960938 165.328125 306.960938 C 164.9375 306.960938 164.585938 306.796875 164.265625 306.464844 C 163.949219 306.132813 163.6875 305.632813 163.484375 304.96875 C 163.457031 304.867188 163.433594 304.738281 163.410156 304.589844 C 163.386719 304.4375 163.371094 304.277344 163.355469 304.109375 C 163.34375 303.945313 163.332031 303.78125 163.324219 303.625 C 163.316406 303.464844 163.3125 303.335938 163.3125 303.230469 C 163.3125 302.4375 163.371094 301.625 163.484375 300.796875 C 163.601563 299.964844 163.695313 299.128906 163.769531 298.289063 L 161.40625 298.289063 C 161.273438 299.851563 161.136719 301.160156 160.992188 302.226563 C 160.847656 303.285156 160.703125 304.246094 160.558594 305.097656 C 160.515625 305.3125 160.472656 305.519531 160.429688 305.714844 C 160.386719 305.910156 160.328125 306.082031 160.257813 306.226563 C 160.109375 306.542969 159.925781 306.753906 159.703125 306.863281 C 159.480469 306.972656 159.273438 307.027344 159.085938 307.027344 C 158.769531 307.027344 158.503906 306.914063 158.292969 306.691406 C 158.085938 306.46875 157.980469 306.21875 157.980469 305.945313 C 157.980469 305.652344 158.054688 305.410156 158.207031 305.21875 C 158.359375 305.019531 158.527344 304.808594 158.714844 304.578125 C 158.90625 304.375 159.078125 304.15625 159.234375 303.925781 C 159.394531 303.695313 159.496094 303.40625 159.539063 303.058594 L 160.144531 298.289063 L 159.148438 298.289063 C 158.933594 298.289063 158.695313 298.34375 158.433594 298.453125 C 158.175781 298.5625 157.949219 298.746094 157.761719 299.007813 L 157.351563 299.613281 L 157.003906 299.613281 C 157.308594 298.628906 157.6875 297.863281 158.140625 297.316406 C 158.597656 296.765625 159.199219 296.492188 159.953125 296.492188 L 167.648438 296.492188 L 167.648438 298.289063 L 165.023438 298.289063 C 164.980469 298.695313 164.941406 299.117188 164.90625 299.558594 C 164.871094 300 164.84375 300.4375 164.828125 300.882813 C 164.816406 301.320313 164.804688 301.738281 164.796875 302.128906 C 164.789063 302.519531 164.785156 302.851563 164.785156 303.125 C 164.785156 303.355469 164.808594 303.589844 164.851563 303.816406 C 164.894531 304.050781 164.976563 304.253906 165.089844 304.4375 C 165.203125 304.617188 165.351563 304.765625 165.523438 304.882813 C 165.695313 304.996094 165.90625 305.054688 166.152344 305.054688 C 166.3125 305.054688 166.492188 305 166.695313 304.890625 C 166.898438 304.785156 167.0625 304.597656 167.195313 304.339844 C 167.25 304.238281 167.289063 304.113281 167.3125 303.972656 C 167.335938 303.828125 167.351563 303.667969 167.367188 303.492188 L 167.820313 303.492188 "/>
<path style="fill:none;stroke-width:13.875;stroke-linecap:square;stroke-linejoin:miter;stroke:rgb(0%,0%,0%);stroke-opacity:1;stroke-miterlimit:10;" d="M 2182.578125 2781.875 L 2182.578125 2726.367188 " transform="matrix(0.1,0,0,-0.1,0,555)"/>
<path style="fill:none;stroke-width:13.875;stroke-linecap:square;stroke-linejoin:miter;stroke:rgb(0%,0%,0%);stroke-opacity:1;stroke-miterlimit:10;" d="M 2813.007813 2781.875 L 2813.007813 2726.367188 " transform="matrix(0.1,0,0,-0.1,0,555)"/>
<path style=" stroke:none;fill-rule:nonzero;fill:rgb(0%,0%,0%);fill-opacity:1;" d="M 268.546875 294.277344 C 268.546875 292.703125 268.78125 291.347656 269.25 290.214844 C 269.71875 289.078125 270.351563 288.238281 271.144531 287.6875 C 271.753906 287.238281 272.382813 287.015625 273.035156 287.015625 C 274.089844 287.015625 275.035156 287.558594 275.875 288.644531 C 276.929688 289.972656 277.453125 291.777344 277.453125 294.0625 C 277.453125 295.664063 277.226563 297.023438 276.761719 298.140625 C 276.300781 299.253906 275.710938 300.0625 274.996094 300.566406 C 274.28125 301.070313 273.589844 301.324219 272.925781 301.324219 C 271.609375 301.324219 270.519531 300.550781 269.652344 299.007813 C 268.914063 297.691406 268.546875 296.113281 268.546875 294.277344 Z M 270.539063 294.539063 C 270.539063 296.433594 270.773438 297.980469 271.234375 299.179688 C 271.625 300.191406 272.203125 300.695313 272.96875 300.695313 C 273.328125 300.695313 273.703125 300.53125 274.09375 300.199219 C 274.484375 299.863281 274.78125 299.316406 274.984375 298.550781 C 275.300781 297.378906 275.460938 295.730469 275.460938 293.605469 C 275.460938 292.046875 275.296875 290.738281 274.960938 289.683594 C 274.730469 288.902344 274.421875 288.351563 274.03125 288.035156 C 273.757813 287.804688 273.417969 287.6875 273.011719 287.6875 C 272.5625 287.6875 272.160156 287.898438 271.796875 288.316406 C 271.304688 288.882813 270.972656 289.765625 270.800781 290.972656 C 270.625 292.179688 270.539063 293.367188 270.539063 294.539063 "/>
<path style="fill:none;stroke-width:13.875;stroke-linecap:square;stroke-linejoin:miter;stroke:rgb(0%,0%,0%);stroke-opacity:1;stroke-miterlimit:10;" d="M 3443.398438 2781.875 L 3443.398438 2726.367188 " transform="matrix(0.1,0,0,-0.1,0,555)"/>
<path style=" stroke:none;fill-rule:nonzero;fill:rgb(0%,0%,0%);fill-opacity:1;" d="M 349.585938 303.492188 C 349.585938 303.898438 349.527344 304.308594 349.410156 304.71875 C 349.296875 305.132813 349.136719 305.503906 348.933594 305.84375 C 348.730469 306.183594 348.472656 306.457031 348.152344 306.65625 C 347.835938 306.859375 347.480469 306.960938 347.089844 306.960938 C 346.703125 306.960938 346.347656 306.796875 346.027344 306.464844 C 345.710938 306.132813 345.453125 305.632813 345.25 304.96875 C 345.21875 304.867188 345.195313 304.738281 345.171875 304.589844 C 345.148438 304.4375 345.132813 304.277344 345.117188 304.109375 C 345.105469 303.945313 345.09375 303.78125 345.085938 303.625 C 345.078125 303.464844 345.074219 303.335938 345.074219 303.230469 C 345.074219 302.4375 345.132813 301.625 345.25 300.796875 C 345.363281 299.964844 345.457031 299.128906 345.53125 298.289063 L 343.167969 298.289063 C 343.035156 299.851563 342.898438 301.160156 342.753906 302.226563 C 342.609375 303.285156 342.464844 304.246094 342.320313 305.097656 C 342.277344 305.3125 342.234375 305.519531 342.191406 305.714844 C 342.148438 305.910156 342.089844 306.082031 342.019531 306.226563 C 341.871094 306.542969 341.691406 306.753906 341.464844 306.863281 C 341.242188 306.972656 341.035156 307.027344 340.847656 307.027344 C 340.53125 307.027344 340.265625 306.914063 340.054688 306.691406 C 339.847656 306.46875 339.742188 306.21875 339.742188 305.945313 C 339.742188 305.652344 339.816406 305.410156 339.96875 305.21875 C 340.121094 305.019531 340.289063 304.808594 340.480469 304.578125 C 340.667969 304.375 340.839844 304.15625 341 303.925781 C 341.160156 303.695313 341.261719 303.40625 341.304688 303.058594 L 341.910156 298.289063 L 340.914063 298.289063 C 340.695313 298.289063 340.457031 298.34375 340.195313 298.453125 C 339.9375 298.5625 339.714844 298.746094 339.523438 299.007813 L 339.113281 299.613281 L 338.765625 299.613281 C 339.070313 298.628906 339.449219 297.863281 339.902344 297.316406 C 340.359375 296.765625 340.964844 296.492188 341.714844 296.492188 L 349.410156 296.492188 L 349.410156 298.289063 L 346.789063 298.289063 C 346.746094 298.695313 346.703125 299.117188 346.667969 299.558594 C 346.632813 300 346.605469 300.4375 346.59375 300.882813 C 346.578125 301.320313 346.566406 301.738281 346.558594 302.128906 C 346.554688 302.519531 346.550781 302.851563 346.550781 303.125 C 346.550781 303.355469 346.570313 303.589844 346.613281 303.816406 C 346.65625 304.050781 346.738281 304.253906 346.851563 304.4375 C 346.96875 304.617188 347.113281 304.765625 347.285156 304.882813 C 347.460938 304.996094 347.667969 305.054688 347.914063 305.054688 C 348.074219 305.054688 348.253906 305 348.457031 304.890625 C 348.660156 304.785156 348.824219 304.597656 348.957031 304.339844 C 349.011719 304.238281 349.054688 304.113281 349.074219 303.972656 C 349.097656 303.828125 349.113281 303.667969 349.128906 303.492188 L 349.585938 303.492188 "/>
<path style=" stroke:none;fill-rule:nonzero;fill:rgb(0%,0%,0%);fill-opacity:1;" d="M 348.089844 331.742188 L 347.132813 334.386719 L 339.003906 334.386719 L 339.003906 334.019531 C 341.390625 331.835938 343.070313 330.050781 344.046875 328.664063 C 345.019531 327.277344 345.507813 326.011719 345.507813 324.867188 C 345.507813 324.003906 345.242188 323.285156 344.707031 322.722656 C 344.171875 322.160156 343.527344 321.878906 342.777344 321.878906 C 342.113281 321.878906 341.507813 322.074219 340.96875 322.476563 C 340.425781 322.871094 340.023438 323.453125 339.765625 324.21875 L 339.394531 324.21875 C 339.566406 322.960938 340.003906 321.996094 340.707031 321.324219 C 341.40625 320.652344 342.277344 320.316406 343.320313 320.316406 C 344.445313 320.316406 345.382813 320.679688 346.125 321.398438 C 346.871094 322.121094 347.242188 322.96875 347.242188 323.9375 C 347.242188 324.628906 347.085938 325.332031 346.765625 326.039063 C 346.261719 327.140625 345.441406 328.296875 344.316406 329.507813 C 342.640625 331.359375 341.585938 332.472656 341.152344 332.847656 L 344.75 332.847656 C 345.488281 332.847656 346.003906 332.820313 346.300781 332.769531 C 346.597656 332.722656 346.863281 332.613281 347.101563 332.445313 C 347.339844 332.28125 347.546875 332.046875 347.71875 331.742188 L 348.089844 331.742188 "/>
<path style="fill:none;stroke-width:13.875;stroke-linecap:square;stroke-linejoin:miter;stroke:rgb(0%,0%,0%);stroke-opacity:1;stroke-miterlimit:10;" d="M 3350.820313 2407.304688 L 3545.078125 2407.304688 " transform="matrix(0.1,0,0,-0.1,0,555)"/>
<path style="fill:none;stroke-width:13.875;stroke-linecap:square;stroke-linejoin:miter;stroke:rgb(0%,0%,0%);stroke-opacity:1;stroke-miterlimit:10;" d="M 4073.789063 2781.875 L 4073.789063 2726.367188 " transform="matrix(0.1,0,0,-0.1,0,555)"/>
<path style=" stroke:none;fill-rule:nonzero;fill:rgb(0%,0%,0%);fill-opacity:1;" d="M 412.023438 303.492188 C 412.023438 303.898438 411.964844 304.308594 411.847656 304.71875 C 411.730469 305.132813 411.574219 305.503906 411.371094 305.84375 C 411.167969 306.183594 410.910156 306.457031 410.589844 306.65625 C 410.273438 306.859375 409.917969 306.960938 409.527344 306.960938 C 409.140625 306.960938 408.785156 306.796875 408.464844 306.464844 C 408.148438 306.132813 407.890625 305.632813 407.6875 304.96875 C 407.65625 304.867188 407.632813 304.738281 407.609375 304.589844 C 407.589844 304.4375 407.570313 304.277344 407.554688 304.109375 C 407.542969 303.945313 407.53125 303.78125 407.523438 303.625 C 407.515625 303.464844 407.511719 303.335938 407.511719 303.230469 C 407.511719 302.4375 407.570313 301.625 407.6875 300.796875 C 407.800781 299.964844 407.894531 299.128906 407.96875 298.289063 L 405.605469 298.289063 C 405.476563 299.851563 405.339844 301.160156 405.191406 302.226563 C 405.050781 303.285156 404.902344 304.246094 404.757813 305.097656 C 404.714844 305.3125 404.671875 305.519531 404.628906 305.714844 C 404.585938 305.910156 404.527344 306.082031 404.457031 306.226563 C 404.3125 306.542969 404.128906 306.753906 403.902344 306.863281 C 403.679688 306.972656 403.472656 307.027344 403.285156 307.027344 C 402.96875 307.027344 402.703125 306.914063 402.492188 306.691406 C 402.285156 306.46875 402.179688 306.21875 402.179688 305.945313 C 402.179688 305.652344 402.257813 305.410156 402.40625 305.21875 C 402.558594 305.019531 402.730469 304.808594 402.914063 304.578125 C 403.105469 304.375 403.277344 304.15625 403.4375 303.925781 C 403.597656 303.695313 403.695313 303.40625 403.738281 303.058594 L 404.347656 298.289063 L 403.351563 298.289063 C 403.132813 298.289063 402.894531 298.34375 402.632813 298.453125 C 402.375 298.5625 402.148438 298.746094 401.964844 299.007813 L 401.550781 299.613281 L 401.203125 299.613281 C 401.507813 298.628906 401.886719 297.863281 402.34375 297.316406 C 402.796875 296.765625 403.398438 296.492188 404.152344 296.492188 L 411.847656 296.492188 L 411.847656 298.289063 L 409.226563 298.289063 C 409.183594 298.695313 409.140625 299.117188 409.105469 299.558594 C 409.070313 300 409.046875 300.4375 409.027344 300.882813 C 409.015625 301.320313 409.003906 301.738281 408.996094 302.128906 C 408.992188 302.519531 408.984375 302.851563 408.984375 303.125 C 408.984375 303.355469 409.007813 303.589844 409.050781 303.816406 C 409.09375 304.050781 409.175781 304.253906 409.289063 304.4375 C 409.40625 304.617188 409.550781 304.765625 409.722656 304.882813 C 409.894531 304.996094 410.105469 305.054688 410.351563 305.054688 C 410.511719 305.054688 410.691406 305 410.894531 304.890625 C 411.097656 304.785156 411.261719 304.597656 411.394531 304.339844 C 411.449219 304.238281 411.492188 304.113281 411.511719 303.972656 C 411.535156 303.828125 411.550781 303.667969 411.566406 303.492188 L 412.023438 303.492188 "/>
<path style="fill:none;stroke-width:13.875;stroke-linecap:square;stroke-linejoin:miter;stroke:rgb(0%,0%,0%);stroke-opacity:1;stroke-miterlimit:10;" d="M 4704.21875 2781.875 L 4704.21875 2726.367188 " transform="matrix(0.1,0,0,-0.1,0,555)"/>
<path style=" stroke:none;fill-rule:nonzero;fill:rgb(0%,0%,0%);fill-opacity:1;" d="M 458.9375 295.472656 C 459.324219 294.546875 459.820313 293.832031 460.421875 293.324219 C 461.023438 292.820313 461.769531 292.566406 462.664063 292.566406 C 463.765625 292.566406 464.609375 292.929688 465.203125 293.648438 C 465.648438 294.1875 465.875 294.757813 465.875 295.363281 C 465.875 296.375 465.246094 297.414063 463.988281 298.484375 C 464.828125 298.816406 465.460938 299.289063 465.894531 299.90625 C 466.328125 300.519531 466.546875 301.246094 466.546875 302.085938 C 466.546875 303.269531 466.171875 304.296875 465.417969 305.160156 C 464.421875 306.304688 462.992188 306.875 461.125 306.875 C 460.1875 306.875 459.550781 306.761719 459.21875 306.527344 C 458.886719 306.296875 458.71875 306.050781 458.71875 305.789063 C 458.71875 305.589844 458.800781 305.414063 458.960938 305.269531 C 459.117188 305.128906 459.304688 305.054688 459.523438 305.054688 C 459.695313 305.054688 459.867188 305.085938 460.042969 305.140625 C 460.15625 305.171875 460.421875 305.289063 460.832031 305.496094 C 461.246094 305.707031 461.523438 305.835938 461.667969 305.878906 C 461.929688 305.949219 462.195313 305.988281 462.46875 305.988281 C 463.164063 305.988281 463.769531 305.71875 464.28125 305.183594 C 464.796875 304.648438 465.050781 304.019531 465.050781 303.296875 C 465.050781 302.765625 464.933594 302.242188 464.703125 301.738281 C 464.515625 301.347656 464.320313 301.058594 464.117188 300.871094 C 463.828125 300.59375 463.429688 300.347656 462.914063 300.132813 C 462.402344 299.914063 461.886719 299.808594 461.363281 299.808594 L 461.039063 299.808594 L 461.039063 299.480469 C 461.574219 299.425781 462.109375 299.238281 462.644531 298.917969 C 463.179688 298.601563 463.570313 298.21875 463.816406 297.769531 C 464.0625 297.320313 464.183594 296.828125 464.183594 296.296875 C 464.183594 295.601563 463.964844 295.039063 463.53125 294.605469 C 463.097656 294.171875 462.558594 293.953125 461.90625 293.953125 C 460.851563 293.953125 459.96875 294.519531 459.261719 295.644531 L 458.9375 295.472656 "/>
<path style=" stroke:none;fill-rule:nonzero;fill:rgb(0%,0%,0%);fill-opacity:1;" d="M 484.171875 303.492188 C 484.171875 303.898438 484.113281 304.308594 484 304.71875 C 483.882813 305.132813 483.722656 305.503906 483.519531 305.84375 C 483.320313 306.183594 483.058594 306.457031 482.738281 306.65625 C 482.421875 306.859375 482.070313 306.960938 481.679688 306.960938 C 481.289063 306.960938 480.933594 306.796875 480.617188 306.464844 C 480.296875 306.132813 480.039063 305.632813 479.835938 304.96875 C 479.808594 304.867188 479.78125 304.738281 479.761719 304.589844 C 479.738281 304.4375 479.71875 304.277344 479.707031 304.109375 C 479.691406 303.945313 479.679688 303.78125 479.671875 303.625 C 479.664063 303.464844 479.664063 303.335938 479.664063 303.230469 C 479.664063 302.4375 479.71875 301.625 479.835938 300.796875 C 479.953125 299.964844 480.046875 299.128906 480.117188 298.289063 L 477.753906 298.289063 C 477.625 299.851563 477.488281 301.160156 477.34375 302.226563 C 477.199219 303.285156 477.054688 304.246094 476.910156 305.097656 C 476.867188 305.3125 476.824219 305.519531 476.78125 305.714844 C 476.734375 305.910156 476.679688 306.082031 476.605469 306.226563 C 476.460938 306.542969 476.277344 306.753906 476.054688 306.863281 C 475.828125 306.972656 475.621094 307.027344 475.433594 307.027344 C 475.117188 307.027344 474.855469 306.914063 474.644531 306.691406 C 474.433594 306.46875 474.328125 306.21875 474.328125 305.945313 C 474.328125 305.652344 474.40625 305.410156 474.558594 305.21875 C 474.707031 305.019531 474.878906 304.808594 475.066406 304.578125 C 475.253906 304.375 475.429688 304.15625 475.585938 303.925781 C 475.746094 303.695313 475.847656 303.40625 475.890625 303.058594 L 476.496094 298.289063 L 475.5 298.289063 C 475.28125 298.289063 475.046875 298.34375 474.785156 298.453125 C 474.523438 298.5625 474.300781 298.746094 474.113281 299.007813 L 473.699219 299.613281 L 473.355469 299.613281 C 473.65625 298.628906 474.035156 297.863281 474.492188 297.316406 C 474.945313 296.765625 475.550781 296.492188 476.300781 296.492188 L 484 296.492188 L 484 298.289063 L 481.375 298.289063 C 481.332031 298.695313 481.292969 299.117188 481.257813 299.558594 C 481.21875 300 481.195313 300.4375 481.179688 300.882813 C 481.164063 301.320313 481.15625 301.738281 481.148438 302.128906 C 481.140625 302.519531 481.136719 302.851563 481.136719 303.125 C 481.136719 303.355469 481.160156 303.589844 481.203125 303.816406 C 481.246094 304.050781 481.324219 304.253906 481.441406 304.4375 C 481.554688 304.617188 481.699219 304.765625 481.871094 304.882813 C 482.046875 304.996094 482.257813 305.054688 482.503906 305.054688 C 482.660156 305.054688 482.84375 305 483.042969 304.890625 C 483.246094 304.785156 483.414063 304.597656 483.542969 304.339844 C 483.601563 304.238281 483.640625 304.113281 483.660156 303.972656 C 483.683594 303.828125 483.703125 303.667969 483.71875 303.492188 L 484.171875 303.492188 "/>
<path style=" stroke:none;fill-rule:nonzero;fill:rgb(0%,0%,0%);fill-opacity:1;" d="M 475.738281 331.742188 L 474.785156 334.386719 L 466.65625 334.386719 L 466.65625 334.019531 C 469.039063 331.835938 470.71875 330.050781 471.695313 328.664063 C 472.671875 327.277344 473.15625 326.011719 473.15625 324.867188 C 473.15625 324.003906 472.890625 323.285156 472.355469 322.722656 C 471.820313 322.160156 471.179688 321.878906 470.425781 321.878906 C 469.761719 321.878906 469.15625 322.074219 468.617188 322.476563 C 468.074219 322.871094 467.671875 323.453125 467.414063 324.21875 L 467.046875 324.21875 C 467.21875 322.960938 467.65625 321.996094 468.355469 321.324219 C 469.058594 320.652344 469.929688 320.316406 470.96875 320.316406 C 472.097656 320.316406 473.03125 320.679688 473.777344 321.398438 C 474.519531 322.121094 474.894531 322.96875 474.894531 323.9375 C 474.894531 324.628906 474.734375 325.332031 474.414063 326.039063 C 473.910156 327.140625 473.09375 328.296875 471.964844 329.507813 C 470.289063 331.359375 469.234375 332.472656 468.800781 332.847656 L 472.398438 332.847656 C 473.136719 332.847656 473.652344 332.820313 473.949219 332.769531 C 474.246094 332.722656 474.515625 332.613281 474.753906 332.445313 C 474.988281 332.28125 475.195313 332.046875 475.371094 331.742188 L 475.738281 331.742188 "/>
<path style="fill:none;stroke-width:13.875;stroke-linecap:square;stroke-linejoin:miter;stroke:rgb(0%,0%,0%);stroke-opacity:1;stroke-miterlimit:10;" d="M 4544.0625 2407.304688 L 4890.9375 2407.304688 " transform="matrix(0.1,0,0,-0.1,0,555)"/>
<path style="fill:none;stroke-width:13.875;stroke-linecap:square;stroke-linejoin:miter;stroke:rgb(0%,0%,0%);stroke-opacity:1;stroke-miterlimit:10;" d="M 5334.609375 2781.875 L 5334.609375 2726.367188 " transform="matrix(0.1,0,0,-0.1,0,555)"/>
<path style=" stroke:none;fill-rule:nonzero;fill:rgb(0%,0%,0%);fill-opacity:1;" d="M 529.851563 303.992188 L 528.898438 306.636719 L 520.769531 306.636719 L 520.769531 306.269531 C 523.152344 304.085938 524.832031 302.300781 525.808594 300.914063 C 526.785156 299.527344 527.269531 298.261719 527.269531 297.117188 C 527.269531 296.253906 527.003906 295.535156 526.46875 294.972656 C 525.933594 294.410156 525.289063 294.128906 524.539063 294.128906 C 523.875 294.128906 523.269531 294.324219 522.730469 294.726563 C 522.1875 295.121094 521.785156 295.703125 521.527344 296.46875 L 521.15625 296.46875 C 521.332031 295.210938 521.769531 294.246094 522.46875 293.574219 C 523.171875 292.902344 524.039063 292.566406 525.082031 292.566406 C 526.210938 292.566406 527.144531 292.929688 527.886719 293.648438 C 528.632813 294.371094 529.003906 295.21875 529.003906 296.1875 C 529.003906 296.878906 528.847656 297.582031 528.527344 298.289063 C 528.023438 299.390625 527.203125 300.546875 526.078125 301.757813 C 524.402344 303.609375 523.347656 304.722656 522.914063 305.097656 L 526.511719 305.097656 C 527.25 305.097656 527.765625 305.070313 528.0625 305.019531 C 528.359375 304.972656 528.628906 304.863281 528.863281 304.695313 C 529.101563 304.53125 529.308594 304.296875 529.480469 303.992188 L 529.851563 303.992188 "/>
<path style=" stroke:none;fill-rule:nonzero;fill:rgb(0%,0%,0%);fill-opacity:1;" d="M 546.609375 303.492188 C 546.609375 303.898438 546.550781 304.308594 546.4375 304.71875 C 546.320313 305.132813 546.160156 305.503906 545.960938 305.84375 C 545.757813 306.183594 545.496094 306.457031 545.179688 306.65625 C 544.859375 306.859375 544.507813 306.960938 544.117188 306.960938 C 543.726563 306.960938 543.371094 306.796875 543.054688 306.464844 C 542.734375 306.132813 542.476563 305.632813 542.273438 304.96875 C 542.246094 304.867188 542.21875 304.738281 542.199219 304.589844 C 542.175781 304.4375 542.15625 304.277344 542.144531 304.109375 C 542.128906 303.945313 542.117188 303.78125 542.109375 303.625 C 542.101563 303.464844 542.101563 303.335938 542.101563 303.230469 C 542.101563 302.4375 542.15625 301.625 542.273438 300.796875 C 542.390625 299.964844 542.484375 299.128906 542.554688 298.289063 L 540.191406 298.289063 C 540.0625 299.851563 539.925781 301.160156 539.78125 302.226563 C 539.636719 303.285156 539.492188 304.246094 539.347656 305.097656 C 539.304688 305.3125 539.261719 305.519531 539.21875 305.714844 C 539.171875 305.910156 539.117188 306.082031 539.042969 306.226563 C 538.898438 306.542969 538.714844 306.753906 538.488281 306.863281 C 538.265625 306.972656 538.058594 307.027344 537.871094 307.027344 C 537.554688 307.027344 537.289063 306.914063 537.078125 306.691406 C 536.871094 306.46875 536.765625 306.21875 536.765625 305.945313 C 536.765625 305.652344 536.84375 305.410156 536.996094 305.21875 C 537.144531 305.019531 537.316406 304.808594 537.503906 304.578125 C 537.691406 304.375 537.867188 304.15625 538.023438 303.925781 C 538.183594 303.695313 538.285156 303.40625 538.328125 303.058594 L 538.933594 298.289063 L 537.9375 298.289063 C 537.71875 298.289063 537.484375 298.34375 537.222656 298.453125 C 536.964844 298.5625 536.738281 298.746094 536.550781 299.007813 L 536.136719 299.613281 L 535.789063 299.613281 C 536.09375 298.628906 536.472656 297.863281 536.929688 297.316406 C 537.382813 296.765625 537.988281 296.492188 538.738281 296.492188 L 546.4375 296.492188 L 546.4375 298.289063 L 543.8125 298.289063 C 543.769531 298.695313 543.730469 299.117188 543.691406 299.558594 C 543.65625 300 543.632813 300.4375 543.617188 300.882813 C 543.601563 301.320313 543.59375 301.738281 543.585938 302.128906 C 543.578125 302.519531 543.574219 302.851563 543.574219 303.125 C 543.574219 303.355469 543.597656 303.589844 543.640625 303.816406 C 543.683594 304.050781 543.761719 304.253906 543.878906 304.4375 C 543.992188 304.617188 544.136719 304.765625 544.3125 304.882813 C 544.484375 304.996094 544.695313 305.054688 544.941406 305.054688 C 545.097656 305.054688 545.277344 305 545.480469 304.890625 C 545.683594 304.785156 545.851563 304.597656 545.980469 304.339844 C 546.039063 304.238281 546.078125 304.113281 546.097656 303.972656 C 546.121094 303.828125 546.140625 303.667969 546.15625 303.492188 L 546.609375 303.492188 "/>
<path style="fill:none;stroke-width:13.875;stroke-linecap:square;stroke-linejoin:miter;stroke:rgb(0%,0%,0%);stroke-opacity:1;stroke-miterlimit:10;" d="M 448.984375 2781.875 L 448.984375 2754.101563 " transform="matrix(0.1,0,0,-0.1,0,555)"/>
<path style="fill:none;stroke-width:13.875;stroke-linecap:square;stroke-linejoin:miter;stroke:rgb(0%,0%,0%);stroke-opacity:1;stroke-miterlimit:10;" d="M 606.5625 2781.875 L 606.5625 2754.101563 " transform="matrix(0.1,0,0,-0.1,0,555)"/>
<path style="fill:none;stroke-width:13.875;stroke-linecap:square;stroke-linejoin:miter;stroke:rgb(0%,0%,0%);stroke-opacity:1;stroke-miterlimit:10;" d="M 764.179688 2781.875 L 764.179688 2754.101563 " transform="matrix(0.1,0,0,-0.1,0,555)"/>
<path style="fill:none;stroke-width:13.875;stroke-linecap:square;stroke-linejoin:miter;stroke:rgb(0%,0%,0%);stroke-opacity:1;stroke-miterlimit:10;" d="M 1079.375 2781.875 L 1079.375 2754.101563 " transform="matrix(0.1,0,0,-0.1,0,555)"/>
<path style="fill:none;stroke-width:13.875;stroke-linecap:square;stroke-linejoin:miter;stroke:rgb(0%,0%,0%);stroke-opacity:1;stroke-miterlimit:10;" d="M 1236.992188 2781.875 L 1236.992188 2754.101563 " transform="matrix(0.1,0,0,-0.1,0,555)"/>
<path style="fill:none;stroke-width:13.875;stroke-linecap:square;stroke-linejoin:miter;stroke:rgb(0%,0%,0%);stroke-opacity:1;stroke-miterlimit:10;" d="M 1394.609375 2781.875 L 1394.609375 2754.101563 " transform="matrix(0.1,0,0,-0.1,0,555)"/>
<path style="fill:none;stroke-width:13.875;stroke-linecap:square;stroke-linejoin:miter;stroke:rgb(0%,0%,0%);stroke-opacity:1;stroke-miterlimit:10;" d="M 1709.804688 2781.875 L 1709.804688 2754.101563 " transform="matrix(0.1,0,0,-0.1,0,555)"/>
<path style="fill:none;stroke-width:13.875;stroke-linecap:square;stroke-linejoin:miter;stroke:rgb(0%,0%,0%);stroke-opacity:1;stroke-miterlimit:10;" d="M 1867.382813 2781.875 L 1867.382813 2754.101563 " transform="matrix(0.1,0,0,-0.1,0,555)"/>
<path style="fill:none;stroke-width:13.875;stroke-linecap:square;stroke-linejoin:miter;stroke:rgb(0%,0%,0%);stroke-opacity:1;stroke-miterlimit:10;" d="M 2025 2781.875 L 2025 2754.101563 " transform="matrix(0.1,0,0,-0.1,0,555)"/>
<path style="fill:none;stroke-width:13.875;stroke-linecap:square;stroke-linejoin:miter;stroke:rgb(0%,0%,0%);stroke-opacity:1;stroke-miterlimit:10;" d="M 2340.195313 2781.875 L 2340.195313 2754.101563 " transform="matrix(0.1,0,0,-0.1,0,555)"/>
<path style="fill:none;stroke-width:13.875;stroke-linecap:square;stroke-linejoin:miter;stroke:rgb(0%,0%,0%);stroke-opacity:1;stroke-miterlimit:10;" d="M 2497.773438 2781.875 L 2497.773438 2754.101563 " transform="matrix(0.1,0,0,-0.1,0,555)"/>
<path style="fill:none;stroke-width:13.875;stroke-linecap:square;stroke-linejoin:miter;stroke:rgb(0%,0%,0%);stroke-opacity:1;stroke-miterlimit:10;" d="M 2655.390625 2781.875 L 2655.390625 2754.101563 " transform="matrix(0.1,0,0,-0.1,0,555)"/>
<path style="fill:none;stroke-width:13.875;stroke-linecap:square;stroke-linejoin:miter;stroke:rgb(0%,0%,0%);stroke-opacity:1;stroke-miterlimit:10;" d="M 2970.585938 2781.875 L 2970.585938 2754.101563 " transform="matrix(0.1,0,0,-0.1,0,555)"/>
<path style="fill:none;stroke-width:13.875;stroke-linecap:square;stroke-linejoin:miter;stroke:rgb(0%,0%,0%);stroke-opacity:1;stroke-miterlimit:10;" d="M 3128.203125 2781.875 L 3128.203125 2754.101563 " transform="matrix(0.1,0,0,-0.1,0,555)"/>
<path style="fill:none;stroke-width:13.875;stroke-linecap:square;stroke-linejoin:miter;stroke:rgb(0%,0%,0%);stroke-opacity:1;stroke-miterlimit:10;" d="M 3285.78125 2781.875 L 3285.78125 2754.101563 " transform="matrix(0.1,0,0,-0.1,0,555)"/>
<path style="fill:none;stroke-width:13.875;stroke-linecap:square;stroke-linejoin:miter;stroke:rgb(0%,0%,0%);stroke-opacity:1;stroke-miterlimit:10;" d="M 3600.976563 2781.875 L 3600.976563 2754.101563 " transform="matrix(0.1,0,0,-0.1,0,555)"/>
<path style="fill:none;stroke-width:13.875;stroke-linecap:square;stroke-linejoin:miter;stroke:rgb(0%,0%,0%);stroke-opacity:1;stroke-miterlimit:10;" d="M 3758.59375 2781.875 L 3758.59375 2754.101563 " transform="matrix(0.1,0,0,-0.1,0,555)"/>
<path style="fill:none;stroke-width:13.875;stroke-linecap:square;stroke-linejoin:miter;stroke:rgb(0%,0%,0%);stroke-opacity:1;stroke-miterlimit:10;" d="M 3916.210938 2781.875 L 3916.210938 2754.101563 " transform="matrix(0.1,0,0,-0.1,0,555)"/>
<path style="fill:none;stroke-width:13.875;stroke-linecap:square;stroke-linejoin:miter;stroke:rgb(0%,0%,0%);stroke-opacity:1;stroke-miterlimit:10;" d="M 4231.40625 2781.875 L 4231.40625 2754.101563 " transform="matrix(0.1,0,0,-0.1,0,555)"/>
<path style="fill:none;stroke-width:13.875;stroke-linecap:square;stroke-linejoin:miter;stroke:rgb(0%,0%,0%);stroke-opacity:1;stroke-miterlimit:10;" d="M 4389.023438 2781.875 L 4389.023438 2754.101563 " transform="matrix(0.1,0,0,-0.1,0,555)"/>
<path style="fill:none;stroke-width:13.875;stroke-linecap:square;stroke-linejoin:miter;stroke:rgb(0%,0%,0%);stroke-opacity:1;stroke-miterlimit:10;" d="M 4546.601563 2781.875 L 4546.601563 2754.101563 " transform="matrix(0.1,0,0,-0.1,0,555)"/>
<path style="fill:none;stroke-width:13.875;stroke-linecap:square;stroke-linejoin:miter;stroke:rgb(0%,0%,0%);stroke-opacity:1;stroke-miterlimit:10;" d="M 4861.796875 2781.875 L 4861.796875 2754.101563 " transform="matrix(0.1,0,0,-0.1,0,555)"/>
<path style="fill:none;stroke-width:13.875;stroke-linecap:square;stroke-linejoin:miter;stroke:rgb(0%,0%,0%);stroke-opacity:1;stroke-miterlimit:10;" d="M 5019.414063 2781.875 L 5019.414063 2754.101563 " transform="matrix(0.1,0,0,-0.1,0,555)"/>
<path style="fill:none;stroke-width:13.875;stroke-linecap:square;stroke-linejoin:miter;stroke:rgb(0%,0%,0%);stroke-opacity:1;stroke-miterlimit:10;" d="M 5176.992188 2781.875 L 5176.992188 2754.101563 " transform="matrix(0.1,0,0,-0.1,0,555)"/>
<path style="fill:none;stroke-width:13.875;stroke-linecap:butt;stroke-linejoin:round;stroke:rgb(0%,0%,0%);stroke-opacity:1;stroke-miterlimit:10;" d="M 2813.007813 97.109375 L 2813.007813 5466.757813 " transform="matrix(0.1,0,0,-0.1,0,555)"/>
<path style="fill:none;stroke-width:13.875;stroke-linecap:square;stroke-linejoin:miter;stroke:rgb(0%,0%,0%);stroke-opacity:1;stroke-miterlimit:10;" d="M 2813.007813 229.296875 L 2757.5 229.296875 " transform="matrix(0.1,0,0,-0.1,0,555)"/>
<g clip-path="url(#clip5)" clip-rule="nonzero">
<path style=" stroke:none;fill-rule:nonzero;fill:rgb(0%,0%,0%);fill-opacity:1;" d="M 247.605469 534.035156 L 233.855469 534.035156 L 233.855469 532.953125 L 247.605469 532.953125 L 247.605469 534.035156 "/>
</g>
<path style=" stroke:none;fill-rule:nonzero;fill:rgb(0%,0%,0%);fill-opacity:1;" d="M 246.34375 532.929688 C 246.34375 531.355469 246.582031 530 247.050781 528.863281 C 247.519531 527.730469 248.152344 526.886719 248.945313 526.339844 C 249.554688 525.890625 250.183594 525.667969 250.835938 525.667969 C 251.886719 525.667969 252.835938 526.210938 253.675781 527.292969 C 254.730469 528.621094 255.253906 530.429688 255.253906 532.710938 C 255.253906 534.316406 255.023438 535.675781 254.5625 536.789063 C 254.101563 537.902344 253.511719 538.710938 252.796875 539.21875 C 252.078125 539.722656 251.390625 539.972656 250.726563 539.972656 C 249.410156 539.972656 248.316406 539.203125 247.449219 537.65625 C 246.714844 536.339844 246.34375 534.765625 246.34375 532.929688 Z M 248.339844 533.191406 C 248.339844 535.082031 248.570313 536.628906 249.035156 537.828125 C 249.425781 538.839844 250.003906 539.347656 250.769531 539.347656 C 251.128906 539.347656 251.503906 539.179688 251.894531 538.847656 C 252.285156 538.515625 252.582031 537.96875 252.785156 537.199219 C 253.101563 536.03125 253.261719 534.382813 253.261719 532.257813 C 253.261719 530.695313 253.09375 529.386719 252.761719 528.332031 C 252.53125 527.550781 252.222656 527.003906 251.832031 526.683594 C 251.558594 526.457031 251.21875 526.339844 250.8125 526.339844 C 250.363281 526.339844 249.960938 526.546875 249.597656 526.96875 C 249.105469 527.53125 248.773438 528.417969 248.601563 529.621094 C 248.425781 530.828125 248.339844 532.019531 248.339844 533.191406 Z M 257.902344 537.765625 C 258.21875 537.765625 258.484375 537.875 258.703125 538.101563 C 258.921875 538.324219 259.027344 538.585938 259.027344 538.890625 C 259.027344 539.210938 258.921875 539.476563 258.703125 539.691406 C 258.484375 539.910156 258.21875 540.019531 257.902344 540.019531 C 257.582031 540.019531 257.316406 539.910156 257.097656 539.691406 C 256.882813 539.476563 256.773438 539.210938 256.773438 538.890625 C 256.773438 538.574219 256.882813 538.304688 257.097656 538.089844 C 257.316406 537.871094 257.582031 537.765625 257.902344 537.765625 Z M 264.839844 532.800781 C 263.753906 531.902344 263.054688 531.183594 262.734375 530.644531 C 262.417969 530.101563 262.257813 529.539063 262.257813 528.960938 C 262.257813 528.066406 262.605469 527.292969 263.300781 526.640625 C 263.992188 525.992188 264.910156 525.667969 266.054688 525.667969 C 267.164063 525.667969 268.0625 525.96875 268.742188 526.578125 C 269.421875 527.183594 269.757813 527.871094 269.757813 528.636719 C 269.757813 529.15625 269.574219 529.683594 269.207031 530.21875 C 268.839844 530.753906 268.074219 531.382813 266.921875 532.105469 C 268.105469 533.03125 268.890625 533.753906 269.28125 534.273438 C 269.804688 534.96875 270.0625 535.699219 270.0625 536.464844 C 270.0625 537.429688 269.695313 538.257813 268.957031 538.945313 C 268.21875 539.632813 267.253906 539.972656 266.054688 539.972656 C 264.738281 539.972656 263.710938 539.570313 262.972656 538.761719 C 262.394531 538.097656 262.105469 537.371094 262.105469 536.59375 C 262.105469 535.984375 262.3125 535.382813 262.726563 534.78125 C 263.136719 534.183594 263.839844 533.523438 264.839844 532.800781 Z M 266.441406 531.714844 C 267.253906 530.976563 267.765625 530.398438 267.980469 529.96875 C 268.199219 529.542969 268.308594 529.0625 268.308594 528.527344 C 268.308594 527.820313 268.109375 527.265625 267.710938 526.859375 C 267.3125 526.457031 266.769531 526.253906 266.074219 526.253906 C 265.378906 526.253906 264.816406 526.457031 264.382813 526.859375 C 263.949219 527.265625 263.734375 527.734375 263.734375 528.269531 C 263.734375 528.613281 263.824219 528.964844 264.003906 529.320313 C 264.183594 529.671875 264.441406 530.011719 264.773438 530.328125 Z M 265.316406 533.191406 C 264.753906 533.652344 264.335938 534.164063 264.070313 534.726563 C 263.800781 535.292969 263.667969 535.898438 263.667969 536.550781 C 263.667969 537.417969 263.90625 538.113281 264.382813 538.640625 C 264.859375 539.167969 265.46875 539.433594 266.203125 539.433594 C 266.941406 539.433594 267.53125 539.226563 267.972656 538.816406 C 268.410156 538.402344 268.632813 537.902344 268.632813 537.308594 C 268.632813 536.816406 268.503906 536.378906 268.242188 535.984375 C 267.765625 535.277344 266.789063 534.34375 265.316406 533.191406 "/>
<path style="fill:none;stroke-width:13.875;stroke-linecap:square;stroke-linejoin:miter;stroke:rgb(0%,0%,0%);stroke-opacity:1;stroke-miterlimit:10;" d="M 2813.007813 867.421875 L 2757.5 867.421875 " transform="matrix(0.1,0,0,-0.1,0,555)"/>
<g clip-path="url(#clip6)" clip-rule="nonzero">
<path style=" stroke:none;fill-rule:nonzero;fill:rgb(0%,0%,0%);fill-opacity:1;" d="M 247.605469 470.210938 L 233.855469 470.210938 L 233.855469 469.125 L 247.605469 469.125 L 247.605469 470.210938 "/>
</g>
<path style=" stroke:none;fill-rule:nonzero;fill:rgb(0%,0%,0%);fill-opacity:1;" d="M 246.34375 469.105469 C 246.34375 467.53125 246.582031 466.171875 247.050781 465.039063 C 247.519531 463.90625 248.152344 463.0625 248.945313 462.511719 C 249.554688 462.066406 250.183594 461.84375 250.835938 461.84375 C 251.886719 461.84375 252.835938 462.382813 253.675781 463.46875 C 254.730469 464.796875 255.253906 466.605469 255.253906 468.886719 C 255.253906 470.492188 255.023438 471.851563 254.5625 472.964844 C 254.101563 474.078125 253.511719 474.886719 252.796875 475.390625 C 252.078125 475.898438 251.390625 476.148438 250.726563 476.148438 C 249.410156 476.148438 248.316406 475.378906 247.449219 473.832031 C 246.714844 472.515625 246.34375 470.941406 246.34375 469.105469 Z M 248.339844 469.363281 C 248.339844 471.257813 248.570313 472.804688 249.035156 474.003906 C 249.425781 475.015625 250.003906 475.519531 250.769531 475.519531 C 251.128906 475.519531 251.503906 475.355469 251.894531 475.023438 C 252.285156 474.691406 252.582031 474.140625 252.785156 473.375 C 253.101563 472.207031 253.261719 470.554688 253.261719 468.433594 C 253.261719 466.871094 253.09375 465.5625 252.761719 464.507813 C 252.53125 463.726563 252.222656 463.179688 251.832031 462.859375 C 251.558594 462.628906 251.21875 462.511719 250.8125 462.511719 C 250.363281 462.511719 249.960938 462.722656 249.597656 463.140625 C 249.105469 463.707031 248.773438 464.59375 248.601563 465.796875 C 248.425781 467.003906 248.339844 468.195313 248.339844 469.363281 Z M 257.902344 473.941406 C 258.21875 473.941406 258.484375 474.050781 258.703125 474.277344 C 258.921875 474.5 259.027344 474.761719 259.027344 475.066406 C 259.027344 475.382813 258.921875 475.652344 258.703125 475.867188 C 258.484375 476.085938 258.21875 476.195313 257.902344 476.195313 C 257.582031 476.195313 257.316406 476.085938 257.097656 475.867188 C 256.882813 475.652344 256.773438 475.382813 256.773438 475.066406 C 256.773438 474.75 256.882813 474.480469 257.097656 474.265625 C 257.316406 474.046875 257.582031 473.941406 257.902344 473.941406 Z M 270.171875 461.84375 L 270.171875 462.230469 C 269.273438 462.320313 268.546875 462.496094 267.980469 462.761719 C 267.417969 463.03125 266.863281 463.4375 266.3125 463.988281 C 265.761719 464.539063 265.308594 465.148438 264.945313 465.820313 C 264.585938 466.492188 264.28125 467.289063 264.035156 468.214844 C 265.003906 467.550781 265.980469 467.21875 266.964844 467.21875 C 267.902344 467.21875 268.71875 467.597656 269.410156 468.355469 C 270.105469 469.113281 270.453125 470.089844 270.453125 471.273438 C 270.453125 472.429688 270.105469 473.484375 269.410156 474.4375 C 268.574219 475.578125 267.460938 476.148438 266.074219 476.148438 C 265.136719 476.148438 264.332031 475.839844 263.667969 475.21875 C 262.382813 474.003906 261.738281 472.433594 261.738281 470.515625 C 261.738281 469.269531 261.988281 468.097656 262.484375 466.992188 C 262.984375 465.886719 263.691406 464.898438 264.609375 464.03125 C 265.527344 463.164063 266.40625 462.582031 267.246094 462.285156 C 268.082031 461.988281 268.863281 461.84375 269.585938 461.84375 Z M 263.863281 468.953125 C 263.734375 469.878906 263.667969 470.621094 263.667969 471.183594 C 263.667969 471.835938 263.789063 472.539063 264.035156 473.300781 C 264.28125 474.058594 264.636719 474.664063 265.097656 475.109375 C 265.445313 475.429688 265.871094 475.585938 266.378906 475.585938 C 266.957031 475.585938 267.480469 475.308594 267.949219 474.753906 C 268.417969 474.195313 268.65625 473.402344 268.65625 472.378906 C 268.65625 471.222656 268.421875 470.222656 267.960938 469.375 C 267.496094 468.53125 266.839844 468.109375 265.988281 468.109375 C 265.726563 468.109375 265.453125 468.160156 265.164063 468.269531 C 264.875 468.378906 264.441406 468.605469 263.863281 468.953125 "/>
<path style="fill:none;stroke-width:13.875;stroke-linecap:square;stroke-linejoin:miter;stroke:rgb(0%,0%,0%);stroke-opacity:1;stroke-miterlimit:10;" d="M 2813.007813 1505.585938 L 2757.5 1505.585938 " transform="matrix(0.1,0,0,-0.1,0,555)"/>
<g clip-path="url(#clip7)" clip-rule="nonzero">
<path style=" stroke:none;fill-rule:nonzero;fill:rgb(0%,0%,0%);fill-opacity:1;" d="M 247.605469 406.386719 L 233.855469 406.386719 L 233.855469 405.300781 L 247.605469 405.300781 L 247.605469 406.386719 "/>
</g>
<path style=" stroke:none;fill-rule:nonzero;fill:rgb(0%,0%,0%);fill-opacity:1;" d="M 246.34375 405.277344 C 246.34375 403.703125 246.582031 402.347656 247.050781 401.214844 C 247.519531 400.078125 248.152344 399.238281 248.945313 398.6875 C 249.554688 398.238281 250.183594 398.015625 250.835938 398.015625 C 251.886719 398.015625 252.835938 398.558594 253.675781 399.644531 C 254.730469 400.972656 255.253906 402.777344 255.253906 405.0625 C 255.253906 406.664063 255.023438 408.023438 254.5625 409.140625 C 254.101563 410.253906 253.511719 411.0625 252.796875 411.566406 C 252.078125 412.070313 251.390625 412.324219 250.726563 412.324219 C 249.410156 412.324219 248.316406 411.550781 247.449219 410.007813 C 246.714844 408.691406 246.34375 407.113281 246.34375 405.277344 Z M 248.339844 405.539063 C 248.339844 407.433594 248.570313 408.980469 249.035156 410.179688 C 249.425781 411.191406 250.003906 411.695313 250.769531 411.695313 C 251.128906 411.695313 251.503906 411.53125 251.894531 411.199219 C 252.285156 410.863281 252.582031 410.316406 252.785156 409.550781 C 253.101563 408.378906 253.261719 406.730469 253.261719 404.605469 C 253.261719 403.046875 253.09375 401.738281 252.761719 400.683594 C 252.53125 399.902344 252.222656 399.351563 251.832031 399.035156 C 251.558594 398.804688 251.21875 398.6875 250.8125 398.6875 C 250.363281 398.6875 249.960938 398.898438 249.597656 399.316406 C 249.105469 399.882813 248.773438 400.765625 248.601563 401.972656 C 248.425781 403.179688 248.339844 404.367188 248.339844 405.539063 Z M 257.902344 410.113281 C 258.21875 410.113281 258.484375 410.226563 258.703125 410.449219 C 258.921875 410.671875 259.027344 410.9375 259.027344 411.242188 C 259.027344 411.558594 258.921875 411.828125 258.703125 412.042969 C 258.484375 412.261719 258.21875 412.367188 257.902344 412.367188 C 257.582031 412.367188 257.316406 412.261719 257.097656 412.042969 C 256.882813 411.828125 256.773438 411.558594 256.773438 411.242188 C 256.773438 410.921875 256.882813 410.65625 257.097656 410.4375 C 257.316406 410.222656 257.582031 410.113281 257.902344 410.113281 Z M 270.539063 407.011719 L 270.539063 408.445313 L 268.675781 408.445313 L 268.675781 412.085938 L 267.007813 412.085938 L 267.007813 408.445313 L 261.175781 408.445313 L 261.175781 407.144531 L 267.570313 398.015625 L 268.675781 398.015625 L 268.675781 407.011719 Z M 267.007813 407.011719 L 267.007813 400.164063 L 262.171875 407.011719 Z M 267.007813 407.011719 "/>
<path style="fill:none;stroke-width:13.875;stroke-linecap:square;stroke-linejoin:miter;stroke:rgb(0%,0%,0%);stroke-opacity:1;stroke-miterlimit:10;" d="M 2813.007813 2143.710938 L 2757.5 2143.710938 " transform="matrix(0.1,0,0,-0.1,0,555)"/>
<g clip-path="url(#clip8)" clip-rule="nonzero">
<path style=" stroke:none;fill-rule:nonzero;fill:rgb(0%,0%,0%);fill-opacity:1;" d="M 247.605469 342.558594 L 233.855469 342.558594 L 233.855469 341.476563 L 247.605469 341.476563 L 247.605469 342.558594 "/>
</g>
<path style=" stroke:none;fill-rule:nonzero;fill:rgb(0%,0%,0%);fill-opacity:1;" d="M 246.34375 341.453125 C 246.34375 339.878906 246.582031 338.523438 247.050781 337.390625 C 247.519531 336.253906 248.152344 335.414063 248.945313 334.863281 C 249.554688 334.414063 250.183594 334.191406 250.835938 334.191406 C 251.886719 334.191406 252.835938 334.734375 253.675781 335.816406 C 254.730469 337.148438 255.253906 338.953125 255.253906 341.238281 C 255.253906 342.839844 255.023438 344.199219 254.5625 345.3125 C 254.101563 346.425781 253.511719 347.234375 252.796875 347.742188 C 252.078125 348.246094 251.390625 348.5 250.726563 348.5 C 249.410156 348.5 248.316406 347.726563 247.449219 346.179688 C 246.714844 344.867188 246.34375 343.289063 246.34375 341.453125 Z M 248.339844 341.714844 C 248.339844 343.605469 248.570313 345.152344 249.035156 346.355469 C 249.425781 347.367188 250.003906 347.871094 250.769531 347.871094 C 251.128906 347.871094 251.503906 347.707031 251.894531 347.371094 C 252.285156 347.039063 252.582031 346.492188 252.785156 345.726563 C 253.101563 344.554688 253.261719 342.90625 253.261719 340.78125 C 253.261719 339.222656 253.09375 337.914063 252.761719 336.859375 C 252.53125 336.078125 252.222656 335.527344 251.832031 335.210938 C 251.558594 334.980469 251.21875 334.863281 250.8125 334.863281 C 250.363281 334.863281 249.960938 335.074219 249.597656 335.492188 C 249.105469 336.058594 248.773438 336.941406 248.601563 338.148438 C 248.425781 339.355469 248.339844 340.542969 248.339844 341.714844 Z M 257.902344 346.289063 C 258.21875 346.289063 258.484375 346.398438 258.703125 346.625 C 258.921875 346.847656 259.027344 347.113281 259.027344 347.414063 C 259.027344 347.734375 258.921875 348.003906 258.703125 348.21875 C 258.484375 348.4375 258.21875 348.542969 257.902344 348.542969 C 257.582031 348.542969 257.316406 348.4375 257.097656 348.21875 C 256.882813 348.003906 256.773438 347.734375 256.773438 347.414063 C 256.773438 347.097656 256.882813 346.828125 257.097656 346.613281 C 257.316406 346.398438 257.582031 346.289063 257.902344 346.289063 Z M 270.390625 345.617188 L 269.433594 348.261719 L 261.304688 348.261719 L 261.304688 347.894531 C 263.6875 345.710938 265.367188 343.925781 266.34375 342.539063 C 267.320313 341.152344 267.808594 339.886719 267.808594 338.742188 C 267.808594 337.878906 267.539063 337.160156 267.007813 336.597656 C 266.472656 336.035156 265.828125 335.753906 265.074219 335.753906 C 264.410156 335.753906 263.808594 335.949219 263.265625 336.351563 C 262.726563 336.746094 262.324219 337.328125 262.0625 338.09375 L 261.695313 338.09375 C 261.867188 336.835938 262.304688 335.871094 263.007813 335.199219 C 263.707031 334.527344 264.578125 334.191406 265.617188 334.191406 C 266.746094 334.191406 267.683594 334.554688 268.425781 335.273438 C 269.171875 335.996094 269.542969 336.84375 269.542969 337.8125 C 269.542969 338.503906 269.382813 339.207031 269.066406 339.914063 C 268.5625 341.015625 267.742188 342.171875 266.617188 343.382813 C 264.9375 345.234375 263.882813 346.347656 263.453125 346.722656 L 267.050781 346.722656 C 267.789063 346.722656 268.304688 346.695313 268.597656 346.644531 C 268.894531 346.597656 269.164063 346.488281 269.402344 346.320313 C 269.640625 346.15625 269.847656 345.921875 270.019531 345.617188 L 270.390625 345.617188 "/>
<path style="fill:none;stroke-width:13.875;stroke-linecap:square;stroke-linejoin:miter;stroke:rgb(0%,0%,0%);stroke-opacity:1;stroke-miterlimit:10;" d="M 2813.007813 2781.875 L 2757.5 2781.875 " transform="matrix(0.1,0,0,-0.1,0,555)"/>
<path style="fill:none;stroke-width:13.875;stroke-linecap:square;stroke-linejoin:miter;stroke:rgb(0%,0%,0%);stroke-opacity:1;stroke-miterlimit:10;" d="M 2813.007813 3420 L 2757.5 3420 " transform="matrix(0.1,0,0,-0.1,0,555)"/>
<path style=" stroke:none;fill-rule:nonzero;fill:rgb(0%,0%,0%);fill-opacity:1;" d="M 246.34375 213.804688 C 246.34375 212.230469 246.582031 210.871094 247.050781 209.738281 C 247.519531 208.605469 248.152344 207.761719 248.945313 207.214844 C 249.554688 206.765625 250.183594 206.542969 250.835938 206.542969 C 251.886719 206.542969 252.835938 207.085938 253.675781 208.167969 C 254.730469 209.496094 255.253906 211.304688 255.253906 213.585938 C 255.253906 215.191406 255.023438 216.550781 254.5625 217.664063 C 254.101563 218.777344 253.511719 219.585938 252.796875 220.09375 C 252.078125 220.597656 251.390625 220.851563 250.726563 220.851563 C 249.410156 220.851563 248.316406 220.078125 247.449219 218.53125 C 246.714844 217.214844 246.34375 215.640625 246.34375 213.804688 Z M 248.339844 214.066406 C 248.339844 215.957031 248.570313 217.503906 249.035156 218.703125 C 249.425781 219.714844 250.003906 220.222656 250.769531 220.222656 C 251.128906 220.222656 251.503906 220.054688 251.894531 219.722656 C 252.285156 219.390625 252.582031 218.84375 252.785156 218.074219 C 253.101563 216.90625 253.261719 215.257813 253.261719 213.132813 C 253.261719 211.570313 253.09375 210.261719 252.761719 209.210938 C 252.53125 208.425781 252.222656 207.878906 251.832031 207.558594 C 251.558594 207.328125 251.21875 207.214844 250.8125 207.214844 C 250.363281 207.214844 249.960938 207.421875 249.597656 207.84375 C 249.105469 208.40625 248.773438 209.292969 248.601563 210.496094 C 248.425781 211.703125 248.339844 212.894531 248.339844 214.066406 Z M 257.902344 218.640625 C 258.21875 218.640625 258.484375 218.75 258.703125 218.976563 C 258.921875 219.199219 259.027344 219.460938 259.027344 219.765625 C 259.027344 220.085938 258.921875 220.351563 258.703125 220.566406 C 258.484375 220.785156 258.21875 220.894531 257.902344 220.894531 C 257.582031 220.894531 257.316406 220.785156 257.097656 220.566406 C 256.882813 220.351563 256.773438 220.085938 256.773438 219.765625 C 256.773438 219.449219 256.882813 219.179688 257.097656 218.964844 C 257.316406 218.746094 257.582031 218.640625 257.902344 218.640625 Z M 270.390625 217.964844 L 269.433594 220.613281 L 261.304688 220.613281 L 261.304688 220.242188 C 263.6875 218.0625 265.367188 216.277344 266.34375 214.890625 C 267.320313 213.503906 267.808594 212.234375 267.808594 211.09375 C 267.808594 210.226563 267.539063 209.511719 267.007813 208.949219 C 266.472656 208.382813 265.828125 208.101563 265.074219 208.101563 C 264.410156 208.101563 263.808594 208.300781 263.265625 208.699219 C 262.726563 209.097656 262.324219 209.679688 262.0625 210.441406 L 261.695313 210.441406 C 261.867188 209.1875 262.304688 208.222656 263.007813 207.550781 C 263.707031 206.878906 264.578125 206.542969 265.617188 206.542969 C 266.746094 206.542969 267.683594 206.902344 268.425781 207.625 C 269.171875 208.347656 269.542969 209.191406 269.542969 210.160156 C 269.542969 210.855469 269.382813 211.558594 269.066406 212.265625 C 268.5625 213.363281 267.742188 214.519531 266.617188 215.734375 C 264.9375 217.585938 263.882813 218.695313 263.453125 219.070313 L 267.050781 219.070313 C 267.789063 219.070313 268.304688 219.046875 268.597656 218.996094 C 268.894531 218.945313 269.164063 218.839844 269.402344 218.671875 C 269.640625 218.503906 269.847656 218.269531 270.019531 217.964844 L 270.390625 217.964844 "/>
<path style="fill:none;stroke-width:13.875;stroke-linecap:square;stroke-linejoin:miter;stroke:rgb(0%,0%,0%);stroke-opacity:1;stroke-miterlimit:10;" d="M 2813.007813 4058.125 L 2757.5 4058.125 " transform="matrix(0.1,0,0,-0.1,0,555)"/>
<path style=" stroke:none;fill-rule:nonzero;fill:rgb(0%,0%,0%);fill-opacity:1;" d="M 246.34375 149.980469 C 246.34375 148.402344 246.582031 147.046875 247.050781 145.914063 C 247.519531 144.78125 248.152344 143.9375 248.945313 143.386719 C 249.554688 142.941406 250.183594 142.71875 250.835938 142.71875 C 251.886719 142.71875 252.835938 143.257813 253.675781 144.34375 C 254.730469 145.671875 255.253906 147.480469 255.253906 149.761719 C 255.253906 151.367188 255.023438 152.726563 254.5625 153.839844 C 254.101563 154.953125 253.511719 155.761719 252.796875 156.265625 C 252.078125 156.773438 251.390625 157.023438 250.726563 157.023438 C 249.410156 157.023438 248.316406 156.253906 247.449219 154.707031 C 246.714844 153.390625 246.34375 151.816406 246.34375 149.980469 Z M 248.339844 150.238281 C 248.339844 152.132813 248.570313 153.679688 249.035156 154.878906 C 249.425781 155.890625 250.003906 156.394531 250.769531 156.394531 C 251.128906 156.394531 251.503906 156.230469 251.894531 155.898438 C 252.285156 155.566406 252.582031 155.015625 252.785156 154.25 C 253.101563 153.078125 253.261719 151.433594 253.261719 149.308594 C 253.261719 147.746094 253.09375 146.4375 252.761719 145.382813 C 252.53125 144.601563 252.222656 144.054688 251.832031 143.734375 C 251.558594 143.503906 251.21875 143.386719 250.8125 143.386719 C 250.363281 143.386719 249.960938 143.597656 249.597656 144.015625 C 249.105469 144.582031 248.773438 145.46875 248.601563 146.671875 C 248.425781 147.878906 248.339844 149.070313 248.339844 150.238281 Z M 257.902344 154.8125 C 258.21875 154.8125 258.484375 154.925781 258.703125 155.148438 C 258.921875 155.371094 259.027344 155.636719 259.027344 155.941406 C 259.027344 156.257813 258.921875 156.527344 258.703125 156.742188 C 258.484375 156.960938 258.21875 157.070313 257.902344 157.070313 C 257.582031 157.070313 257.316406 156.960938 257.097656 156.742188 C 256.882813 156.527344 256.773438 156.257813 256.773438 155.941406 C 256.773438 155.621094 256.882813 155.355469 257.097656 155.140625 C 257.316406 154.921875 257.582031 154.8125 257.902344 154.8125 Z M 270.539063 151.714844 L 270.539063 153.144531 L 268.675781 153.144531 L 268.675781 156.785156 L 267.007813 156.785156 L 267.007813 153.144531 L 261.175781 153.144531 L 261.175781 151.84375 L 267.570313 142.71875 L 268.675781 142.71875 L 268.675781 151.714844 Z M 267.007813 151.714844 L 267.007813 144.863281 L 262.171875 151.714844 Z M 267.007813 151.714844 "/>
<path style="fill:none;stroke-width:13.875;stroke-linecap:square;stroke-linejoin:miter;stroke:rgb(0%,0%,0%);stroke-opacity:1;stroke-miterlimit:10;" d="M 2813.007813 4696.289063 L 2757.5 4696.289063 " transform="matrix(0.1,0,0,-0.1,0,555)"/>
<path style=" stroke:none;fill-rule:nonzero;fill:rgb(0%,0%,0%);fill-opacity:1;" d="M 246.34375 86.15625 C 246.34375 84.578125 246.582031 83.226563 247.050781 82.089844 C 247.519531 80.953125 248.152344 80.113281 248.945313 79.5625 C 249.554688 79.117188 250.183594 78.890625 250.835938 78.890625 C 251.886719 78.890625 252.835938 79.433594 253.675781 80.519531 C 254.730469 81.847656 255.253906 83.65625 255.253906 85.9375 C 255.253906 87.542969 255.023438 88.902344 254.5625 90.015625 C 254.101563 91.128906 253.511719 91.9375 252.796875 92.441406 C 252.078125 92.949219 251.390625 93.199219 250.726563 93.199219 C 249.410156 93.199219 248.316406 92.429688 247.449219 90.882813 C 246.714844 89.566406 246.34375 87.992188 246.34375 86.15625 Z M 248.339844 86.414063 C 248.339844 88.308594 248.570313 89.855469 249.035156 91.054688 C 249.425781 92.066406 250.003906 92.570313 250.769531 92.570313 C 251.128906 92.570313 251.503906 92.40625 251.894531 92.074219 C 252.285156 91.742188 252.582031 91.191406 252.785156 90.425781 C 253.101563 89.253906 253.261719 87.605469 253.261719 85.484375 C 253.261719 83.921875 253.09375 82.613281 252.761719 81.558594 C 252.53125 80.777344 252.222656 80.230469 251.832031 79.910156 C 251.558594 79.679688 251.21875 79.5625 250.8125 79.5625 C 250.363281 79.5625 249.960938 79.773438 249.597656 80.191406 C 249.105469 80.757813 248.773438 81.640625 248.601563 82.847656 C 248.425781 84.054688 248.339844 85.246094 248.339844 86.414063 Z M 257.902344 90.988281 C 258.21875 90.988281 258.484375 91.101563 258.703125 91.324219 C 258.921875 91.550781 259.027344 91.8125 259.027344 92.117188 C 259.027344 92.433594 258.921875 92.703125 258.703125 92.917969 C 258.484375 93.136719 258.21875 93.242188 257.902344 93.242188 C 257.582031 93.242188 257.316406 93.136719 257.097656 92.917969 C 256.882813 92.703125 256.773438 92.433594 256.773438 92.117188 C 256.773438 91.800781 256.882813 91.53125 257.097656 91.316406 C 257.316406 91.097656 257.582031 90.988281 257.902344 90.988281 Z M 270.171875 78.890625 L 270.171875 79.28125 C 269.273438 79.367188 268.546875 79.546875 267.980469 79.8125 C 267.417969 80.082031 266.863281 80.488281 266.3125 81.039063 C 265.761719 81.589844 265.308594 82.199219 264.945313 82.871094 C 264.585938 83.542969 264.28125 84.339844 264.035156 85.265625 C 265.003906 84.601563 265.980469 84.269531 266.964844 84.269531 C 267.902344 84.269531 268.71875 84.648438 269.410156 85.40625 C 270.105469 86.164063 270.453125 87.136719 270.453125 88.324219 C 270.453125 89.480469 270.105469 90.535156 269.410156 91.488281 C 268.574219 92.628906 267.460938 93.199219 266.074219 93.199219 C 265.136719 93.199219 264.332031 92.890625 263.667969 92.269531 C 262.382813 91.054688 261.738281 89.484375 261.738281 87.5625 C 261.738281 86.320313 261.988281 85.148438 262.484375 84.039063 C 262.984375 82.9375 263.691406 81.949219 264.609375 81.082031 C 265.527344 80.214844 266.40625 79.632813 267.246094 79.335938 C 268.082031 79.039063 268.863281 78.890625 269.585938 78.890625 Z M 263.863281 86.003906 C 263.734375 86.929688 263.667969 87.671875 263.667969 88.234375 C 263.667969 88.886719 263.789063 89.589844 264.035156 90.351563 C 264.28125 91.109375 264.636719 91.710938 265.097656 92.160156 C 265.445313 92.476563 265.871094 92.636719 266.378906 92.636719 C 266.957031 92.636719 267.480469 92.359375 267.949219 91.800781 C 268.417969 91.246094 268.65625 90.453125 268.65625 89.429688 C 268.65625 88.273438 268.421875 87.269531 267.960938 86.425781 C 267.496094 85.578125 266.839844 85.15625 265.988281 85.15625 C 265.726563 85.15625 265.453125 85.210938 265.164063 85.320313 C 264.875 85.429688 264.441406 85.65625 263.863281 86.003906 "/>
<path style="fill:none;stroke-width:13.875;stroke-linecap:square;stroke-linejoin:miter;stroke:rgb(0%,0%,0%);stroke-opacity:1;stroke-miterlimit:10;" d="M 2813.007813 5334.414063 L 2757.5 5334.414063 " transform="matrix(0.1,0,0,-0.1,0,555)"/>
<path style=" stroke:none;fill-rule:nonzero;fill:rgb(0%,0%,0%);fill-opacity:1;" d="M 246.34375 22.328125 C 246.34375 20.753906 246.582031 19.398438 247.050781 18.265625 C 247.519531 17.128906 248.152344 16.289063 248.945313 15.738281 C 249.554688 15.289063 250.183594 15.066406 250.835938 15.066406 C 251.886719 15.066406 252.835938 15.609375 253.675781 16.691406 C 254.730469 18.023438 255.253906 19.828125 255.253906 22.113281 C 255.253906 23.71875 255.023438 25.074219 254.5625 26.1875 C 254.101563 27.300781 253.511719 28.109375 252.796875 28.617188 C 252.078125 29.121094 251.390625 29.375 250.726563 29.375 C 249.410156 29.375 248.316406 28.601563 247.449219 27.054688 C 246.714844 25.742188 246.34375 24.164063 246.34375 22.328125 Z M 248.339844 22.589844 C 248.339844 24.484375 248.570313 26.03125 249.035156 27.230469 C 249.425781 28.242188 250.003906 28.746094 250.769531 28.746094 C 251.128906 28.746094 251.503906 28.582031 251.894531 28.246094 C 252.285156 27.914063 252.582031 27.367188 252.785156 26.601563 C 253.101563 25.429688 253.261719 23.78125 253.261719 21.65625 C 253.261719 20.097656 253.09375 18.789063 252.761719 17.734375 C 252.53125 16.953125 252.222656 16.402344 251.832031 16.085938 C 251.558594 15.855469 251.21875 15.738281 250.8125 15.738281 C 250.363281 15.738281 249.960938 15.949219 249.597656 16.367188 C 249.105469 16.933594 248.773438 17.816406 248.601563 19.023438 C 248.425781 20.230469 248.339844 21.421875 248.339844 22.589844 Z M 257.902344 27.164063 C 258.21875 27.164063 258.484375 27.277344 258.703125 27.5 C 258.921875 27.726563 259.027344 27.988281 259.027344 28.292969 C 259.027344 28.609375 258.921875 28.878906 258.703125 29.09375 C 258.484375 29.3125 258.21875 29.417969 257.902344 29.417969 C 257.582031 29.417969 257.316406 29.3125 257.097656 29.09375 C 256.882813 28.878906 256.773438 28.609375 256.773438 28.292969 C 256.773438 27.972656 256.882813 27.707031 257.097656 27.488281 C 257.316406 27.273438 257.582031 27.164063 257.902344 27.164063 Z M 264.839844 22.199219 C 263.753906 21.304688 263.054688 20.585938 262.734375 20.042969 C 262.417969 19.5 262.257813 18.941406 262.257813 18.363281 C 262.257813 17.464844 262.605469 16.691406 263.300781 16.042969 C 263.992188 15.394531 264.910156 15.066406 266.054688 15.066406 C 267.164063 15.066406 268.0625 15.371094 268.742188 15.976563 C 269.421875 16.585938 269.757813 17.269531 269.757813 18.035156 C 269.757813 18.558594 269.574219 19.085938 269.207031 19.621094 C 268.839844 20.15625 268.074219 20.785156 266.921875 21.507813 C 268.105469 22.429688 268.890625 23.152344 269.28125 23.675781 C 269.804688 24.367188 270.0625 25.097656 270.0625 25.863281 C 270.0625 26.832031 269.695313 27.660156 268.957031 28.347656 C 268.21875 29.03125 267.253906 29.375 266.054688 29.375 C 264.738281 29.375 263.710938 28.972656 262.972656 28.160156 C 262.394531 27.496094 262.105469 26.773438 262.105469 25.992188 C 262.105469 25.386719 262.3125 24.78125 262.726563 24.183594 C 263.136719 23.585938 263.839844 22.921875 264.839844 22.199219 Z M 266.441406 21.117188 C 267.253906 20.378906 267.765625 19.796875 267.980469 19.371094 C 268.199219 18.945313 268.308594 18.464844 268.308594 17.929688 C 268.308594 17.222656 268.109375 16.664063 267.710938 16.261719 C 267.3125 15.855469 266.769531 15.652344 266.074219 15.652344 C 265.378906 15.652344 264.816406 15.855469 264.382813 16.261719 C 263.949219 16.664063 263.734375 17.132813 263.734375 17.667969 C 263.734375 18.015625 263.824219 18.367188 264.003906 18.71875 C 264.183594 19.074219 264.441406 19.410156 264.773438 19.730469 Z M 265.316406 22.589844 C 264.753906 23.054688 264.335938 23.566406 264.070313 24.128906 C 263.800781 24.691406 263.667969 25.300781 263.667969 25.949219 C 263.667969 26.816406 263.90625 27.515625 264.382813 28.042969 C 264.859375 28.570313 265.46875 28.835938 266.203125 28.835938 C 266.941406 28.835938 267.53125 28.628906 267.972656 28.214844 C 268.410156 27.804688 268.632813 27.300781 268.632813 26.710938 C 268.632813 26.21875 268.503906 25.777344 268.242188 25.386719 C 267.765625 24.679688 266.789063 23.746094 265.316406 22.589844 "/>
<path style="fill:none;stroke-width:13.875;stroke-linecap:square;stroke-linejoin:miter;stroke:rgb(0%,0%,0%);stroke-opacity:1;stroke-miterlimit:10;" d="M 2813.007813 548.359375 L 2785.234375 548.359375 " transform="matrix(0.1,0,0,-0.1,0,555)"/>
<path style="fill:none;stroke-width:13.875;stroke-linecap:square;stroke-linejoin:miter;stroke:rgb(0%,0%,0%);stroke-opacity:1;stroke-miterlimit:10;" d="M 2813.007813 1186.523438 L 2785.234375 1186.523438 " transform="matrix(0.1,0,0,-0.1,0,555)"/>
<path style="fill:none;stroke-width:13.875;stroke-linecap:square;stroke-linejoin:miter;stroke:rgb(0%,0%,0%);stroke-opacity:1;stroke-miterlimit:10;" d="M 2813.007813 1824.648438 L 2785.234375 1824.648438 " transform="matrix(0.1,0,0,-0.1,0,555)"/>
<path style="fill:none;stroke-width:13.875;stroke-linecap:square;stroke-linejoin:miter;stroke:rgb(0%,0%,0%);stroke-opacity:1;stroke-miterlimit:10;" d="M 2813.007813 2462.8125 L 2785.234375 2462.8125 " transform="matrix(0.1,0,0,-0.1,0,555)"/>
<path style="fill:none;stroke-width:13.875;stroke-linecap:square;stroke-linejoin:miter;stroke:rgb(0%,0%,0%);stroke-opacity:1;stroke-miterlimit:10;" d="M 2813.007813 3100.9375 L 2785.234375 3100.9375 " transform="matrix(0.1,0,0,-0.1,0,555)"/>
<path style="fill:none;stroke-width:13.875;stroke-linecap:square;stroke-linejoin:miter;stroke:rgb(0%,0%,0%);stroke-opacity:1;stroke-miterlimit:10;" d="M 2813.007813 3739.0625 L 2785.234375 3739.0625 " transform="matrix(0.1,0,0,-0.1,0,555)"/>
<path style="fill:none;stroke-width:13.875;stroke-linecap:square;stroke-linejoin:miter;stroke:rgb(0%,0%,0%);stroke-opacity:1;stroke-miterlimit:10;" d="M 2813.007813 4377.226563 L 2785.234375 4377.226563 " transform="matrix(0.1,0,0,-0.1,0,555)"/>
<path style="fill:none;stroke-width:13.875;stroke-linecap:square;stroke-linejoin:miter;stroke:rgb(0%,0%,0%);stroke-opacity:1;stroke-miterlimit:10;" d="M 2813.007813 5015.351563 L 2785.234375 5015.351563 " transform="matrix(0.1,0,0,-0.1,0,555)"/>
</g>
</svg>
