<?xml version="1.0" encoding="UTF-8"?>
<svg xmlns="http://www.w3.org/2000/svg" xmlns:xlink="http://www.w3.org/1999/xlink" width="555pt" height="281pt" viewBox="0 0 555 281" version="1.1">
<defs>
<clipPath id="clip1">
  <path d="M 406 7.140625 L 451 7.140625 L 451 42 L 406 42 Z M 406 7.140625 "/>
</clipPath>
<clipPath id="clip2">
  <path d="M 325 232 L 369 232 L 369 273.863281 L 325 273.863281 Z M 325 232 "/>
</clipPath>
<clipPath id="clip3">
  <path d="M 96 53 L 540 53 L 540 263.757813 L 96 263.757813 Z M 96 53 "/>
</clipPath>
<clipPath id="clip4">
  <path d="M 11 155 L 16.164063 155 L 16.164063 156 L 11 156 Z M 11 155 "/>
</clipPath>
<clipPath id="clip5">
  <path d="M 144 155 L 149.527344 155 L 149.527344 156 L 144 156 Z M 144 155 "/>
</clipPath>
<clipPath id="clip6">
  <path d="M 227 77 L 237 77 L 237 89.3125 L 227 89.3125 Z M 227 77 "/>
</clipPath>
<clipPath id="clip7">
  <path d="M 246 262 L 251.90625 262 L 251.90625 264 L 246 264 Z M 246 262 "/>
</clipPath>
<clipPath id="clip8">
  <path d="M 256 202 L 261.335938 202 L 261.335938 204 L 256 204 Z M 256 202 "/>
</clipPath>
</defs>
<g id="surface1">
<path style=" stroke:none;fill-rule:nonzero;fill:rgb(100%,100%,100%);fill-opacity:1;" d="M 0 0.402344 L 555 0.402344 L 555 280.597656 L 0 280.597656 L 0 0.402344 "/>
<path style="fill:none;stroke-width:20.2063;stroke-linecap:butt;stroke-linejoin:round;stroke:rgb(47.068787%,0%,5.488586%);stroke-opacity:1;stroke-dasharray:26.9417,67.3544;stroke-miterlimit:10;" d="M 1254.101563 1774.84375 L 1262.226563 1751.835938 L 1269.335938 1731.992188 L 1277.265625 1709.921875 L 1285.3125 1687.929688 L 1293.28125 1666.289063 L 1300.664063 1646.445313 L 1308.320313 1626.054688 L 1316.25 1605.234375 L 1324.140625 1584.726563 L 1332.265625 1563.828125 L 1339.414063 1545.664063 L 1347.460938 1525.390625 L 1355.546875 1505.3125 L 1363.359375 1486.171875 L 1370.429688 1468.984375 L 1378.828125 1448.789063 L 1385.976563 1431.914063 L 1394.257813 1412.460938 L 1401.601563 1395.507813 L 1409.648438 1377.109375 L 1417.304688 1359.765625 L 1425.3125 1341.953125 L 1432.65625 1325.78125 L 1440.585938 1308.554688 L 1448.789063 1290.9375 L 1455.976563 1275.78125 L 1463.710938 1259.609375 L 1471.71875 1243.164063 L 1479.53125 1227.304688 L 1487.109375 1212.148438 L 1495.507813 1195.585938 L 1503.046875 1180.9375 L 1511.09375 1165.507813 L 1518.398438 1151.71875 L 1526.40625 1136.914063 L 1533.90625 1123.164063 L 1541.757813 1109.023438 L 1549.414063 1095.390625 L 1557.460938 1081.40625 L 1565.234375 1068.125 L 1573.125 1054.804688 L 1581.015625 1041.757813 L 1588.203125 1030.039063 L 1596.484375 1016.796875 L 1603.867188 1005.15625 L 1611.757813 993.007813 L 1619.296875 981.5625 L 1627.695313 969.101563 L 1634.960938 958.515625 L 1643.203125 946.757813 L 1650.703125 936.25 L 1658.90625 925 L 1665.976563 915.46875 L 1674.0625 904.882813 L 1681.835938 894.84375 L 1689.648438 885.039063 L 1697.421875 875.507813 L 1704.84375 866.5625 L 1712.890625 857.109375 L 1720.625 848.320313 L 1728.671875 839.296875 L 1736.015625 831.367188 L 1744.101563 822.8125 L 1751.835938 814.84375 L 1759.570313 807.109375 L 1767.65625 799.296875 L 1775.078125 792.265625 L 1782.695313 785.3125 L 1791.09375 777.851563 L 1798.710938 771.328125 L 1806.484375 764.882813 L 1814.414063 758.554688 L 1821.679688 752.96875 L 1829.453125 747.1875 L 1837.148438 741.679688 L 1845.390625 736.015625 L 1852.65625 731.25 L 1861.054688 725.976563 L 1868.59375 721.445313 L 1876.09375 717.148438 L 1884.140625 712.8125 L 1892.226563 708.632813 L 1899.570313 705.078125 L 1907.382813 701.523438 L 1915 698.242188 L 1923.28125 694.921875 L 1930.429688 692.265625 L 1938.632813 689.453125 L 1946.367188 687.03125 L 1953.984375 684.84375 L 1961.640625 682.890625 L 1969.453125 681.09375 L 1977.695313 679.453125 L 1985.3125 678.125 L 1992.773438 677.070313 L 2000.78125 676.171875 L 2008.789063 675.46875 L 2015.9375 675.078125 L 2024.414063 674.804688 L 2031.523438 674.804688 L 2039.84375 675.039063 L 2047.773438 675.507813 L 2054.84375 676.132813 L 2062.8125 677.03125 L 2070.820313 678.164063 L 2078.828125 679.570313 L 2086.210938 681.015625 L 2093.867188 682.773438 L 2101.796875 684.804688 L 2109.6875 687.070313 L 2117.8125 689.609375 L 2124.960938 692.070313 L 2133.007813 695.078125 L 2141.09375 698.320313 L 2148.867188 701.640625 L 2155.976563 704.882813 L 2164.375 708.984375 L 2171.484375 712.65625 L 2179.804688 717.148438 L 2187.109375 721.328125 L 2195.15625 726.132813 L 2202.851563 730.976563 L 2210.859375 736.210938 L 2218.203125 741.25 L 2226.132813 746.914063 L 2234.335938 753.046875 L 2241.523438 758.554688 L 2249.257813 764.726563 L 2257.265625 771.367188 L 2265.078125 778.046875 L 2272.617188 784.726563 L 2281.054688 792.421875 L 2288.59375 799.570313 L 2296.640625 807.382813 L 2303.945313 814.6875 L 2311.953125 822.890625 L 2319.453125 830.859375 L 2327.304688 839.375 L 2334.960938 847.929688 L 2343.007813 857.109375 L 2350.742188 866.171875 L 2358.671875 875.703125 L 2366.523438 885.351563 L 2373.75 894.414063 L 2382.03125 905.039063 L 2389.414063 914.765625 L 2397.304688 925.351563 L 2404.84375 935.703125 L 2413.242188 947.421875 L 2420.507813 957.8125 L 2428.710938 969.804688 L 2436.210938 980.976563 L 2444.453125 993.398438 L 2451.523438 1004.335938 L 2459.609375 1016.992188 L 2467.382813 1029.492188 L 2475.195313 1042.1875 L 2482.96875 1055.039063 L 2490.390625 1067.578125 L 2498.476563 1081.40625 L 2506.132813 1094.804688 L 2514.21875 1109.101563 L 2521.5625 1122.304688 L 2529.648438 1137.070313 L 2537.382813 1151.445313 L 2545.117188 1166.054688 L 2553.203125 1181.484375 L 2560.625 1195.9375 L 2568.242188 1210.9375 L 2576.640625 1227.773438 L 2584.257813 1243.203125 L 2592.03125 1259.21875 L 2599.960938 1275.742188 L 2607.226563 1291.132813 L 2615 1307.773438 L 2622.695313 1324.453125 L 2630.9375 1342.578125 L 2638.203125 1358.789063 L 2646.5625 1377.695313 L 2654.140625 1395 L 2661.640625 1412.34375 L 2669.6875 1431.171875 L 2677.773438 1450.351563 L 2685.117188 1468.007813 L 2692.929688 1486.992188 L 2700.546875 1505.703125 L 2708.789063 1526.25 L 2715.976563 1544.21875 L 2724.179688 1565.117188 L 2731.875 1584.960938 L 2739.53125 1604.804688 L 2747.1875 1624.921875 L 2754.960938 1645.664063 L 2763.242188 1667.890625 L 2770.859375 1688.476563 L 2778.320313 1708.984375 L 2786.328125 1731.171875 L 2794.335938 1753.554688 L 2801.835938 1774.84375 " transform="matrix(0.1,0,0,-0.1,0,281)"/>
<path style="fill:none;stroke-width:13.4709;stroke-linecap:square;stroke-linejoin:miter;stroke:rgb(47.068787%,0%,5.488586%);stroke-opacity:1;stroke-miterlimit:10;" d="M 4246.484375 2494.609375 L 4273.4375 2521.5625 L 4300.351563 2494.609375 L 4273.4375 2467.65625 Z M 4246.484375 2494.609375 " transform="matrix(0.1,0,0,-0.1,0,281)"/>
<g clip-path="url(#clip1)" clip-rule="nonzero">
<path style="fill:none;stroke-width:13.4709;stroke-linecap:square;stroke-linejoin:miter;stroke:rgb(47.068787%,0%,5.488586%);stroke-opacity:1;stroke-miterlimit:10;" d="M 4259.453125 2616.015625 L 4286.40625 2642.96875 L 4313.359375 2616.015625 L 4286.40625 2589.0625 Z M 4259.453125 2616.015625 " transform="matrix(0.1,0,0,-0.1,0,281)"/>
</g>
<path style="fill:none;stroke-width:13.4709;stroke-linecap:square;stroke-linejoin:miter;stroke:rgb(47.068787%,0%,5.488586%);stroke-opacity:1;stroke-miterlimit:10;" d="M 4233.007813 2377.539063 L 4259.960938 2404.453125 L 4286.875 2377.539063 L 4259.960938 2350.585938 Z M 4233.007813 2377.539063 " transform="matrix(0.1,0,0,-0.1,0,281)"/>
<path style="fill:none;stroke-width:13.4709;stroke-linecap:square;stroke-linejoin:miter;stroke:rgb(47.068787%,0%,5.488586%);stroke-opacity:1;stroke-miterlimit:10;" d="M 4207.65625 2180.742188 L 4234.609375 2207.695313 L 4261.5625 2180.742188 L 4234.609375 2153.828125 Z M 4207.65625 2180.742188 " transform="matrix(0.1,0,0,-0.1,0,281)"/>
<path style="fill:none;stroke-width:13.4709;stroke-linecap:square;stroke-linejoin:miter;stroke:rgb(47.068787%,0%,5.488586%);stroke-opacity:1;stroke-miterlimit:10;" d="M 4219.609375 2269.609375 L 4246.523438 2296.523438 L 4273.476563 2269.609375 L 4246.523438 2242.65625 Z M 4219.609375 2269.609375 " transform="matrix(0.1,0,0,-0.1,0,281)"/>
<path style="fill:none;stroke-width:13.4709;stroke-linecap:square;stroke-linejoin:miter;stroke:rgb(47.068787%,0%,5.488586%);stroke-opacity:1;stroke-miterlimit:10;" d="M 4180.976563 2004.648438 L 4207.890625 2031.601563 L 4234.84375 2004.648438 L 4207.890625 1977.695313 Z M 4180.976563 2004.648438 " transform="matrix(0.1,0,0,-0.1,0,281)"/>
<path style="fill:none;stroke-width:13.4709;stroke-linecap:square;stroke-linejoin:miter;stroke:rgb(47.068787%,0%,5.488586%);stroke-opacity:1;stroke-miterlimit:10;" d="M 4142.695313 1803.007813 L 4169.648438 1829.960938 L 4196.5625 1803.007813 L 4169.648438 1776.09375 Z M 4142.695313 1803.007813 " transform="matrix(0.1,0,0,-0.1,0,281)"/>
<path style="fill:none;stroke-width:13.4709;stroke-linecap:square;stroke-linejoin:miter;stroke:rgb(47.068787%,0%,5.488586%);stroke-opacity:1;stroke-miterlimit:10;" d="M 4155 1861.71875 L 4181.953125 1888.671875 L 4208.90625 1861.71875 L 4181.953125 1834.804688 Z M 4155 1861.71875 " transform="matrix(0.1,0,0,-0.1,0,281)"/>
<path style="fill:none;stroke-width:13.4709;stroke-linecap:square;stroke-linejoin:miter;stroke:rgb(47.068787%,0%,5.488586%);stroke-opacity:1;stroke-miterlimit:10;" d="M 4167.773438 1928.632813 L 4194.726563 1955.585938 L 4221.640625 1928.632813 L 4194.726563 1901.71875 Z M 4167.773438 1928.632813 " transform="matrix(0.1,0,0,-0.1,0,281)"/>
<path style="fill:none;stroke-width:13.4709;stroke-linecap:square;stroke-linejoin:miter;stroke:rgb(47.068787%,0%,5.488586%);stroke-opacity:1;stroke-miterlimit:10;" d="M 4129.375 1745.898438 L 4156.328125 1772.851563 L 4183.28125 1745.898438 L 4156.328125 1718.984375 Z M 4129.375 1745.898438 " transform="matrix(0.1,0,0,-0.1,0,281)"/>
<path style="fill:none;stroke-width:13.4709;stroke-linecap:square;stroke-linejoin:miter;stroke:rgb(47.068787%,0%,5.488586%);stroke-opacity:1;stroke-miterlimit:10;" d="M 3960.390625 1454.765625 L 3987.34375 1481.71875 L 4014.296875 1454.765625 L 3987.34375 1427.8125 Z M 3960.390625 1454.765625 " transform="matrix(0.1,0,0,-0.1,0,281)"/>
<path style="fill:none;stroke-width:13.4709;stroke-linecap:square;stroke-linejoin:miter;stroke:rgb(47.068787%,0%,5.488586%);stroke-opacity:1;stroke-miterlimit:10;" d="M 3974.21875 1456.015625 L 4001.132813 1482.96875 L 4028.085938 1456.015625 L 4001.132813 1429.0625 Z M 3974.21875 1456.015625 " transform="matrix(0.1,0,0,-0.1,0,281)"/>
<path style="fill:none;stroke-width:13.4709;stroke-linecap:square;stroke-linejoin:miter;stroke:rgb(47.068787%,0%,5.488586%);stroke-opacity:1;stroke-miterlimit:10;" d="M 3986.835938 1459.6875 L 4013.789063 1486.601563 L 4040.703125 1459.6875 L 4013.789063 1432.734375 Z M 3986.835938 1459.6875 " transform="matrix(0.1,0,0,-0.1,0,281)"/>
<path style="fill:none;stroke-width:13.4709;stroke-linecap:square;stroke-linejoin:miter;stroke:rgb(47.068787%,0%,5.488586%);stroke-opacity:1;stroke-miterlimit:10;" d="M 3999.296875 1465.898438 L 4026.25 1492.8125 L 4053.203125 1465.898438 L 4026.25 1438.945313 Z M 3999.296875 1465.898438 " transform="matrix(0.1,0,0,-0.1,0,281)"/>
<path style="fill:none;stroke-width:13.4709;stroke-linecap:square;stroke-linejoin:miter;stroke:rgb(47.068787%,0%,5.488586%);stroke-opacity:1;stroke-miterlimit:10;" d="M 3792.34375 1540.507813 L 3819.296875 1567.460938 L 3846.210938 1540.507813 L 3819.296875 1513.554688 Z M 3792.34375 1540.507813 " transform="matrix(0.1,0,0,-0.1,0,281)"/>
<path style="fill:none;stroke-width:13.4709;stroke-linecap:square;stroke-linejoin:miter;stroke:rgb(47.068787%,0%,5.488586%);stroke-opacity:1;stroke-miterlimit:10;" d="M 3804.804688 1534.765625 L 3831.757813 1561.679688 L 3858.710938 1534.765625 L 3831.757813 1507.8125 Z M 3804.804688 1534.765625 " transform="matrix(0.1,0,0,-0.1,0,281)"/>
<path style="fill:none;stroke-width:13.4709;stroke-linecap:square;stroke-linejoin:miter;stroke:rgb(47.068787%,0%,5.488586%);stroke-opacity:1;stroke-miterlimit:10;" d="M 3818.242188 1527.382813 L 3845.195313 1554.335938 L 3872.109375 1527.382813 L 3845.195313 1500.429688 Z M 3818.242188 1527.382813 " transform="matrix(0.1,0,0,-0.1,0,281)"/>
<path style="fill:none;stroke-width:13.4709;stroke-linecap:square;stroke-linejoin:miter;stroke:rgb(47.068787%,0%,5.488586%);stroke-opacity:1;stroke-miterlimit:10;" d="M 3831.71875 1519.0625 L 3858.632813 1546.015625 L 3885.585938 1519.0625 L 3858.632813 1492.148438 Z M 3831.71875 1519.0625 " transform="matrix(0.1,0,0,-0.1,0,281)"/>
<path style="fill:none;stroke-width:13.4709;stroke-linecap:square;stroke-linejoin:miter;stroke:rgb(47.068787%,0%,5.488586%);stroke-opacity:1;stroke-miterlimit:10;" d="M 3843.984375 1511.015625 L 3870.898438 1537.929688 L 3897.851563 1511.015625 L 3870.898438 1484.0625 Z M 3843.984375 1511.015625 " transform="matrix(0.1,0,0,-0.1,0,281)"/>
<path style="fill:none;stroke-width:13.4709;stroke-linecap:square;stroke-linejoin:miter;stroke:rgb(47.068787%,0%,5.488586%);stroke-opacity:1;stroke-miterlimit:10;" d="M 3856.992188 1502.148438 L 3883.90625 1529.0625 L 3910.859375 1502.148438 L 3883.90625 1475.195313 Z M 3856.992188 1502.148438 " transform="matrix(0.1,0,0,-0.1,0,281)"/>
<path style="fill:none;stroke-width:13.4709;stroke-linecap:square;stroke-linejoin:miter;stroke:rgb(47.068787%,0%,5.488586%);stroke-opacity:1;stroke-miterlimit:10;" d="M 3869.6875 1493.476563 L 3896.640625 1520.429688 L 3923.554688 1493.476563 L 3896.640625 1466.523438 Z M 3869.6875 1493.476563 " transform="matrix(0.1,0,0,-0.1,0,281)"/>
<path style="fill:none;stroke-width:13.4709;stroke-linecap:square;stroke-linejoin:miter;stroke:rgb(47.068787%,0%,5.488586%);stroke-opacity:1;stroke-miterlimit:10;" d="M 3883.4375 1484.414063 L 3910.390625 1511.328125 L 3937.34375 1484.414063 L 3910.390625 1457.460938 Z M 3883.4375 1484.414063 " transform="matrix(0.1,0,0,-0.1,0,281)"/>
<path style="fill:none;stroke-width:13.4709;stroke-linecap:square;stroke-linejoin:miter;stroke:rgb(47.068787%,0%,5.488586%);stroke-opacity:1;stroke-miterlimit:10;" d="M 3895.390625 1477.03125 L 3922.304688 1503.984375 L 3949.257813 1477.03125 L 3922.304688 1450.117188 Z M 3895.390625 1477.03125 " transform="matrix(0.1,0,0,-0.1,0,281)"/>
<path style="fill:none;stroke-width:13.4709;stroke-linecap:square;stroke-linejoin:miter;stroke:rgb(47.068787%,0%,5.488586%);stroke-opacity:1;stroke-miterlimit:10;" d="M 3909.0625 1469.453125 L 3936.015625 1496.40625 L 3962.929688 1469.453125 L 3936.015625 1442.539063 Z M 3909.0625 1469.453125 " transform="matrix(0.1,0,0,-0.1,0,281)"/>
<path style="fill:none;stroke-width:13.4709;stroke-linecap:square;stroke-linejoin:miter;stroke:rgb(47.068787%,0%,5.488586%);stroke-opacity:1;stroke-miterlimit:10;" d="M 3921.914063 1463.4375 L 3948.867188 1490.390625 L 3975.820313 1463.4375 L 3948.867188 1436.523438 Z M 3921.914063 1463.4375 " transform="matrix(0.1,0,0,-0.1,0,281)"/>
<path style="fill:none;stroke-width:13.4709;stroke-linecap:square;stroke-linejoin:miter;stroke:rgb(47.068787%,0%,5.488586%);stroke-opacity:1;stroke-miterlimit:10;" d="M 3934.6875 1458.867188 L 3961.601563 1485.78125 L 3988.554688 1458.867188 L 3961.601563 1431.914063 Z M 3934.6875 1458.867188 " transform="matrix(0.1,0,0,-0.1,0,281)"/>
<path style="fill:none;stroke-width:13.4709;stroke-linecap:square;stroke-linejoin:miter;stroke:rgb(47.068787%,0%,5.488586%);stroke-opacity:1;stroke-miterlimit:10;" d="M 3947.421875 1455.859375 L 3974.335938 1482.8125 L 4001.289063 1455.859375 L 3974.335938 1428.945313 Z M 3947.421875 1455.859375 " transform="matrix(0.1,0,0,-0.1,0,281)"/>
<path style="fill:none;stroke-width:13.4709;stroke-linecap:square;stroke-linejoin:miter;stroke:rgb(47.068787%,0%,5.488586%);stroke-opacity:1;stroke-miterlimit:10;" d="M 4012.65625 1475.664063 L 4039.609375 1502.617188 L 4066.523438 1475.664063 L 4039.609375 1448.710938 Z M 4012.65625 1475.664063 " transform="matrix(0.1,0,0,-0.1,0,281)"/>
<path style="fill:none;stroke-width:13.4709;stroke-linecap:square;stroke-linejoin:miter;stroke:rgb(47.068787%,0%,5.488586%);stroke-opacity:1;stroke-miterlimit:10;" d="M 4025.976563 1488.945313 L 4052.890625 1515.898438 L 4079.84375 1488.945313 L 4052.890625 1461.992188 Z M 4025.976563 1488.945313 " transform="matrix(0.1,0,0,-0.1,0,281)"/>
<path style="fill:none;stroke-width:13.4709;stroke-linecap:square;stroke-linejoin:miter;stroke:rgb(47.068787%,0%,5.488586%);stroke-opacity:1;stroke-miterlimit:10;" d="M 4037.890625 1504.101563 L 4064.84375 1531.054688 L 4091.796875 1504.101563 L 4064.84375 1477.1875 Z M 4037.890625 1504.101563 " transform="matrix(0.1,0,0,-0.1,0,281)"/>
<path style="fill:none;stroke-width:13.4709;stroke-linecap:square;stroke-linejoin:miter;stroke:rgb(47.068787%,0%,5.488586%);stroke-opacity:1;stroke-miterlimit:10;" d="M 4052.03125 1526.367188 L 4078.984375 1553.320313 L 4105.9375 1526.367188 L 4078.984375 1499.453125 Z M 4052.03125 1526.367188 " transform="matrix(0.1,0,0,-0.1,0,281)"/>
<path style="fill:none;stroke-width:13.4709;stroke-linecap:square;stroke-linejoin:miter;stroke:rgb(47.068787%,0%,5.488586%);stroke-opacity:1;stroke-miterlimit:10;" d="M 3714.140625 1537.226563 L 3741.09375 1564.140625 L 3768.046875 1537.226563 L 3741.09375 1510.273438 Z M 3714.140625 1537.226563 " transform="matrix(0.1,0,0,-0.1,0,281)"/>
<path style="fill:none;stroke-width:13.4709;stroke-linecap:square;stroke-linejoin:miter;stroke:rgb(47.068787%,0%,5.488586%);stroke-opacity:1;stroke-miterlimit:10;" d="M 3663.164063 1478.476563 L 3690.117188 1505.390625 L 3717.070313 1478.476563 L 3690.117188 1451.523438 Z M 3663.164063 1478.476563 " transform="matrix(0.1,0,0,-0.1,0,281)"/>
<path style="fill:none;stroke-width:13.4709;stroke-linecap:square;stroke-linejoin:miter;stroke:rgb(47.068787%,0%,5.488586%);stroke-opacity:1;stroke-miterlimit:10;" d="M 3675.859375 1498.476563 L 3702.8125 1525.390625 L 3729.765625 1498.476563 L 3702.8125 1471.523438 Z M 3675.859375 1498.476563 " transform="matrix(0.1,0,0,-0.1,0,281)"/>
<path style="fill:none;stroke-width:13.4709;stroke-linecap:square;stroke-linejoin:miter;stroke:rgb(47.068787%,0%,5.488586%);stroke-opacity:1;stroke-miterlimit:10;" d="M 3688.828125 1515.039063 L 3715.78125 1541.992188 L 3742.734375 1515.039063 L 3715.78125 1488.125 Z M 3688.828125 1515.039063 " transform="matrix(0.1,0,0,-0.1,0,281)"/>
<path style="fill:none;stroke-width:13.4709;stroke-linecap:square;stroke-linejoin:miter;stroke:rgb(47.068787%,0%,5.488586%);stroke-opacity:1;stroke-miterlimit:10;" d="M 3702.03125 1528.203125 L 3728.984375 1555.15625 L 3755.9375 1528.203125 L 3728.984375 1501.25 Z M 3702.03125 1528.203125 " transform="matrix(0.1,0,0,-0.1,0,281)"/>
<path style="fill:none;stroke-width:13.4709;stroke-linecap:square;stroke-linejoin:miter;stroke:rgb(47.068787%,0%,5.488586%);stroke-opacity:1;stroke-miterlimit:10;" d="M 3727.109375 1543.867188 L 3754.023438 1570.78125 L 3780.976563 1543.867188 L 3754.023438 1516.914063 Z M 3727.109375 1543.867188 " transform="matrix(0.1,0,0,-0.1,0,281)"/>
<path style="fill:none;stroke-width:13.4709;stroke-linecap:square;stroke-linejoin:miter;stroke:rgb(47.068787%,0%,5.488586%);stroke-opacity:1;stroke-miterlimit:10;" d="M 3739.921875 1547.695313 L 3766.875 1574.648438 L 3793.789063 1547.695313 L 3766.875 1520.742188 Z M 3739.921875 1547.695313 " transform="matrix(0.1,0,0,-0.1,0,281)"/>
<path style="fill:none;stroke-width:13.4709;stroke-linecap:square;stroke-linejoin:miter;stroke:rgb(47.068787%,0%,5.488586%);stroke-opacity:1;stroke-miterlimit:10;" d="M 3753.632813 1549.0625 L 3780.585938 1576.015625 L 3807.539063 1549.0625 L 3780.585938 1522.109375 Z M 3753.632813 1549.0625 " transform="matrix(0.1,0,0,-0.1,0,281)"/>
<path style="fill:none;stroke-width:13.4709;stroke-linecap:square;stroke-linejoin:miter;stroke:rgb(47.068787%,0%,5.488586%);stroke-opacity:1;stroke-miterlimit:10;" d="M 3765.742188 1548.164063 L 3792.695313 1575.117188 L 3819.648438 1548.164063 L 3792.695313 1521.210938 Z M 3765.742188 1548.164063 " transform="matrix(0.1,0,0,-0.1,0,281)"/>
<path style="fill:none;stroke-width:13.4709;stroke-linecap:square;stroke-linejoin:miter;stroke:rgb(47.068787%,0%,5.488586%);stroke-opacity:1;stroke-miterlimit:10;" d="M 3779.726563 1545.039063 L 3806.679688 1571.953125 L 3833.632813 1545.039063 L 3806.679688 1518.085938 Z M 3779.726563 1545.039063 " transform="matrix(0.1,0,0,-0.1,0,281)"/>
<path style="fill:none;stroke-width:13.4709;stroke-linecap:square;stroke-linejoin:miter;stroke:rgb(47.068787%,0%,5.488586%);stroke-opacity:1;stroke-miterlimit:10;" d="M 4063.90625 1548.828125 L 4090.859375 1575.78125 L 4117.773438 1548.828125 L 4090.859375 1521.914063 Z M 4063.90625 1548.828125 " transform="matrix(0.1,0,0,-0.1,0,281)"/>
<path style="fill:none;stroke-width:13.4709;stroke-linecap:square;stroke-linejoin:miter;stroke:rgb(47.068787%,0%,5.488586%);stroke-opacity:1;stroke-miterlimit:10;" d="M 4077.734375 1579.804688 L 4104.6875 1606.757813 L 4131.640625 1579.804688 L 4104.6875 1552.890625 Z M 4077.734375 1579.804688 " transform="matrix(0.1,0,0,-0.1,0,281)"/>
<path style="fill:none;stroke-width:13.4709;stroke-linecap:square;stroke-linejoin:miter;stroke:rgb(47.068787%,0%,5.488586%);stroke-opacity:1;stroke-miterlimit:10;" d="M 4090.976563 1614.453125 L 4117.890625 1641.40625 L 4144.84375 1614.453125 L 4117.890625 1587.5 Z M 4090.976563 1614.453125 " transform="matrix(0.1,0,0,-0.1,0,281)"/>
<path style="fill:none;stroke-width:13.4709;stroke-linecap:square;stroke-linejoin:miter;stroke:rgb(47.068787%,0%,5.488586%);stroke-opacity:1;stroke-miterlimit:10;" d="M 4102.773438 1649.765625 L 4129.6875 1676.71875 L 4156.640625 1649.765625 L 4129.6875 1622.8125 Z M 4102.773438 1649.765625 " transform="matrix(0.1,0,0,-0.1,0,281)"/>
<path style="fill:none;stroke-width:13.4709;stroke-linecap:square;stroke-linejoin:miter;stroke:rgb(47.068787%,0%,5.488586%);stroke-opacity:1;stroke-miterlimit:10;" d="M 4116.015625 1694.765625 L 4142.96875 1721.679688 L 4169.921875 1694.765625 L 4142.96875 1667.8125 Z M 4116.015625 1694.765625 " transform="matrix(0.1,0,0,-0.1,0,281)"/>
<path style="fill:none;stroke-width:13.4709;stroke-linecap:square;stroke-linejoin:miter;stroke:rgb(47.068787%,0%,5.488586%);stroke-opacity:1;stroke-miterlimit:10;" d="M 4194.140625 2087.617188 L 4221.054688 2114.570313 L 4248.007813 2087.617188 L 4221.054688 2060.664063 Z M 4194.140625 2087.617188 " transform="matrix(0.1,0,0,-0.1,0,281)"/>
<path style="fill:none;stroke-width:13.4709;stroke-linecap:square;stroke-linejoin:miter;stroke:rgb(47.068787%,0%,5.488586%);stroke-opacity:1;stroke-miterlimit:10;" d="M 3597.734375 1305.976563 L 3624.6875 1332.890625 L 3651.640625 1305.976563 L 3624.6875 1279.023438 Z M 3597.734375 1305.976563 " transform="matrix(0.1,0,0,-0.1,0,281)"/>
<path style="fill:none;stroke-width:13.4709;stroke-linecap:square;stroke-linejoin:miter;stroke:rgb(47.068787%,0%,5.488586%);stroke-opacity:1;stroke-miterlimit:10;" d="M 3610.625 1350.039063 L 3637.578125 1376.992188 L 3664.492188 1350.039063 L 3637.578125 1323.125 Z M 3610.625 1350.039063 " transform="matrix(0.1,0,0,-0.1,0,281)"/>
<path style="fill:none;stroke-width:13.4709;stroke-linecap:square;stroke-linejoin:miter;stroke:rgb(47.068787%,0%,5.488586%);stroke-opacity:1;stroke-miterlimit:10;" d="M 3559.140625 1139.726563 L 3586.09375 1166.679688 L 3613.046875 1139.726563 L 3586.09375 1112.773438 Z M 3559.140625 1139.726563 " transform="matrix(0.1,0,0,-0.1,0,281)"/>
<path style="fill:none;stroke-width:13.4709;stroke-linecap:square;stroke-linejoin:miter;stroke:rgb(47.068787%,0%,5.488586%);stroke-opacity:1;stroke-miterlimit:10;" d="M 3571.367188 1198.085938 L 3598.28125 1225.039063 L 3625.234375 1198.085938 L 3598.28125 1171.132813 Z M 3571.367188 1198.085938 " transform="matrix(0.1,0,0,-0.1,0,281)"/>
<path style="fill:none;stroke-width:13.4709;stroke-linecap:square;stroke-linejoin:miter;stroke:rgb(47.068787%,0%,5.488586%);stroke-opacity:1;stroke-miterlimit:10;" d="M 3584.84375 1256.210938 L 3611.757813 1283.164063 L 3638.710938 1256.210938 L 3611.757813 1229.257813 Z M 3584.84375 1256.210938 " transform="matrix(0.1,0,0,-0.1,0,281)"/>
<path style="fill:none;stroke-width:13.4709;stroke-linecap:square;stroke-linejoin:miter;stroke:rgb(47.068787%,0%,5.488586%);stroke-opacity:1;stroke-miterlimit:10;" d="M 3532.851563 994.414063 L 3559.804688 1021.367188 L 3586.757813 994.414063 L 3559.804688 967.460938 Z M 3532.851563 994.414063 " transform="matrix(0.1,0,0,-0.1,0,281)"/>
<path style="fill:none;stroke-width:13.4709;stroke-linecap:square;stroke-linejoin:miter;stroke:rgb(47.068787%,0%,5.488586%);stroke-opacity:1;stroke-miterlimit:10;" d="M 3507.03125 823.398438 L 3533.945313 850.351563 L 3560.898438 823.398438 L 3533.945313 796.445313 Z M 3507.03125 823.398438 " transform="matrix(0.1,0,0,-0.1,0,281)"/>
<path style="fill:none;stroke-width:13.4709;stroke-linecap:square;stroke-linejoin:miter;stroke:rgb(47.068787%,0%,5.488586%);stroke-opacity:1;stroke-miterlimit:10;" d="M 3519.453125 909.179688 L 3546.367188 936.132813 L 3573.320313 909.179688 L 3546.367188 882.265625 Z M 3519.453125 909.179688 " transform="matrix(0.1,0,0,-0.1,0,281)"/>
<path style="fill:none;stroke-width:13.4709;stroke-linecap:square;stroke-linejoin:miter;stroke:rgb(47.068787%,0%,5.488586%);stroke-opacity:1;stroke-miterlimit:10;" d="M 3545.664063 1068.671875 L 3572.617188 1095.585938 L 3599.570313 1068.671875 L 3572.617188 1041.71875 Z M 3545.664063 1068.671875 " transform="matrix(0.1,0,0,-0.1,0,281)"/>
<path style="fill:none;stroke-width:13.4709;stroke-linecap:square;stroke-linejoin:miter;stroke:rgb(47.068787%,0%,5.488586%);stroke-opacity:1;stroke-miterlimit:10;" d="M 3481.09375 621.875 L 3508.046875 648.789063 L 3535 621.875 L 3508.046875 594.921875 Z M 3481.09375 621.875 " transform="matrix(0.1,0,0,-0.1,0,281)"/>
<path style="fill:none;stroke-width:13.4709;stroke-linecap:square;stroke-linejoin:miter;stroke:rgb(47.068787%,0%,5.488586%);stroke-opacity:1;stroke-miterlimit:10;" d="M 3468.125 508.789063 L 3495.039063 535.742188 L 3521.992188 508.789063 L 3495.039063 481.835938 Z M 3468.125 508.789063 " transform="matrix(0.1,0,0,-0.1,0,281)"/>
<path style="fill:none;stroke-width:13.4709;stroke-linecap:square;stroke-linejoin:miter;stroke:rgb(47.068787%,0%,5.488586%);stroke-opacity:1;stroke-miterlimit:10;" d="M 3454.648438 382.851563 L 3481.601563 409.804688 L 3508.554688 382.851563 L 3481.601563 355.898438 Z M 3454.648438 382.851563 " transform="matrix(0.1,0,0,-0.1,0,281)"/>
<g clip-path="url(#clip2)" clip-rule="nonzero">
<path style="fill:none;stroke-width:13.4709;stroke-linecap:square;stroke-linejoin:miter;stroke:rgb(47.068787%,0%,5.488586%);stroke-opacity:1;stroke-miterlimit:10;" d="M 3442.851563 264.609375 L 3469.804688 291.523438 L 3496.71875 264.609375 L 3469.804688 237.65625 Z M 3442.851563 264.609375 " transform="matrix(0.1,0,0,-0.1,0,281)"/>
</g>
<path style="fill:none;stroke-width:13.4709;stroke-linecap:square;stroke-linejoin:miter;stroke:rgb(47.068787%,0%,5.488586%);stroke-opacity:1;stroke-miterlimit:10;" d="M 3494.0625 726.71875 L 3521.015625 753.671875 L 3547.96875 726.71875 L 3521.015625 699.765625 Z M 3494.0625 726.71875 " transform="matrix(0.1,0,0,-0.1,0,281)"/>
<path style="fill:none;stroke-width:13.4709;stroke-linecap:square;stroke-linejoin:miter;stroke:rgb(47.068787%,0%,5.488586%);stroke-opacity:1;stroke-miterlimit:10;" d="M 3624.0625 1390.507813 L 3651.015625 1417.421875 L 3677.96875 1390.507813 L 3651.015625 1363.554688 Z M 3624.0625 1390.507813 " transform="matrix(0.1,0,0,-0.1,0,281)"/>
<path style="fill:none;stroke-width:13.4709;stroke-linecap:square;stroke-linejoin:miter;stroke:rgb(47.068787%,0%,5.488586%);stroke-opacity:1;stroke-miterlimit:10;" d="M 3636.484375 1422.96875 L 3663.4375 1449.882813 L 3690.351563 1422.96875 L 3663.4375 1396.015625 Z M 3636.484375 1422.96875 " transform="matrix(0.1,0,0,-0.1,0,281)"/>
<path style="fill:none;stroke-width:13.4709;stroke-linecap:square;stroke-linejoin:miter;stroke:rgb(47.068787%,0%,5.488586%);stroke-opacity:1;stroke-miterlimit:10;" d="M 3649.140625 1451.71875 L 3676.09375 1478.632813 L 3703.046875 1451.71875 L 3676.09375 1424.765625 Z M 3649.140625 1451.71875 " transform="matrix(0.1,0,0,-0.1,0,281)"/>
<g clip-path="url(#clip3)" clip-rule="nonzero">
<path style="fill:none;stroke-width:20.2063;stroke-linecap:butt;stroke-linejoin:round;stroke:rgb(47.068787%,0%,5.488586%);stroke-opacity:1;stroke-miterlimit:10;" d="M 973.710938 175.273438 L 5381.40625 2263.75 " transform="matrix(0.1,0,0,-0.1,0,281)"/>
</g>
<path style="fill:none;stroke-width:13.4709;stroke-linecap:butt;stroke-linejoin:round;stroke:rgb(0%,0%,0%);stroke-opacity:1;stroke-miterlimit:10;" d="M 222.265625 1408.164063 L 5381.40625 1408.164063 " transform="matrix(0.1,0,0,-0.1,0,281)"/>
<path style=" stroke:none;fill-rule:nonzero;fill:rgb(0%,0%,0%);fill-opacity:1;" d="M 408.503906 174.515625 C 408.785156 174.808594 408.996094 175.109375 409.136719 175.417969 C 409.246094 175.613281 409.414063 176.148438 409.640625 177.019531 L 410.398438 175.902344 C 410.59375 175.621094 410.835938 175.359375 411.125 175.113281 C 411.410156 174.867188 411.660156 174.695313 411.871094 174.597656 C 412.011719 174.539063 412.164063 174.515625 412.335938 174.515625 C 412.574219 174.515625 412.765625 174.578125 412.914063 174.714844 C 413.058594 174.847656 413.132813 175.003906 413.132813 175.1875 C 413.132813 175.410156 413.09375 175.566406 413.007813 175.648438 C 412.855469 175.789063 412.671875 175.859375 412.460938 175.859375 C 412.335938 175.859375 412.210938 175.832031 412.082031 175.777344 C 411.816406 175.691406 411.632813 175.648438 411.535156 175.648438 C 411.394531 175.648438 411.234375 175.726563 411.050781 175.882813 C 410.699219 176.175781 410.277344 176.753906 409.789063 177.605469 L 410.480469 180.53125 C 410.59375 180.984375 410.683594 181.253906 410.753906 181.34375 C 410.828125 181.433594 410.902344 181.480469 410.988281 181.480469 C 411.101563 181.480469 411.238281 181.417969 411.410156 181.289063 C 411.71875 181.023438 411.984375 180.679688 412.210938 180.257813 L 412.503906 180.40625 C 412.136719 181.082031 411.683594 181.640625 411.136719 182.089844 C 410.828125 182.34375 410.558594 182.46875 410.335938 182.46875 C 410.011719 182.46875 409.761719 182.285156 409.578125 181.921875 C 409.449219 181.699219 409.203125 180.742188 408.839844 179.058594 C 407.941406 180.601563 407.226563 181.59375 406.695313 182.027344 C 406.34375 182.320313 406.003906 182.46875 405.683594 182.46875 C 405.460938 182.46875 405.246094 182.386719 405.050781 182.214844 C 404.925781 182.089844 404.863281 181.921875 404.863281 181.710938 C 404.863281 181.53125 404.925781 181.375 405.050781 181.25 C 405.179688 181.121094 405.332031 181.058594 405.515625 181.058594 C 405.695313 181.058594 405.886719 181.152344 406.085938 181.332031 C 406.238281 181.460938 406.355469 181.523438 406.441406 181.523438 C 406.496094 181.523438 406.578125 181.480469 406.695313 181.394531 C 406.960938 181.171875 407.324219 180.699219 407.789063 179.984375 C 408.25 179.269531 408.554688 178.75 408.691406 178.429688 C 408.34375 177.039063 408.152344 176.308594 408.125 176.238281 C 408 175.859375 407.832031 175.59375 407.617188 175.4375 C 407.410156 175.285156 407.09375 175.207031 406.671875 175.207031 C 406.546875 175.207031 406.398438 175.214844 406.230469 175.230469 L 406.230469 174.910156 L 408.503906 174.515625 "/>
<path style="fill:none;stroke-width:1.2;stroke-linecap:butt;stroke-linejoin:round;stroke:rgb(0%,0%,0%);stroke-opacity:1;stroke-miterlimit:10;" d="M 222.265625 1408.164063 L 222.265625 1366.40625 " transform="matrix(0.1,0,0,-0.1,0,281)"/>
<g clip-path="url(#clip4)" clip-rule="nonzero">
<path style=" stroke:none;fill-rule:nonzero;fill:rgb(0%,0%,0%);fill-opacity:1;" d="M 22.628906 155.90625 L 11.050781 155.90625 L 11.050781 155 L 22.628906 155 L 22.628906 155.90625 "/>
</g>
<path style=" stroke:none;fill-rule:nonzero;fill:rgb(0%,0%,0%);fill-opacity:1;" d="M 20.921875 150.246094 L 23.742188 148.875 L 24.015625 148.875 L 24.015625 158.664063 C 24.015625 159.308594 24.042969 159.714844 24.101563 159.875 C 24.15625 160.035156 24.269531 160.15625 24.4375 160.242188 C 24.605469 160.328125 24.949219 160.375 25.46875 160.390625 L 25.46875 160.707031 L 21.109375 160.707031 L 21.109375 160.390625 C 21.660156 160.375 22.011719 160.328125 22.175781 160.242188 C 22.335938 160.15625 22.449219 160.046875 22.511719 159.90625 C 22.574219 159.765625 22.605469 159.351563 22.605469 158.664063 L 22.605469 152.410156 C 22.605469 151.558594 22.578125 151.011719 22.523438 150.769531 C 22.480469 150.589844 22.40625 150.453125 22.300781 150.371094 C 22.195313 150.285156 22.066406 150.246094 21.910156 150.246094 C 21.699219 150.246094 21.414063 150.335938 21.046875 150.519531 Z M 28.246094 154.980469 C 28.246094 153.660156 28.445313 152.519531 28.847656 151.558594 C 29.246094 150.597656 29.777344 149.886719 30.433594 149.425781 C 30.953125 149.058594 31.488281 148.875 32.035156 148.875 C 32.917969 148.875 33.710938 149.324219 34.414063 150.222656 C 35.296875 151.347656 35.738281 152.867188 35.738281 154.789063 C 35.738281 156.136719 35.546875 157.28125 35.160156 158.222656 C 34.777344 159.160156 34.28125 159.847656 33.675781 160.273438 C 33.074219 160.703125 32.5 160.914063 31.953125 160.914063 C 30.84375 160.914063 29.917969 160.261719 29.171875 158.960938 C 28.554688 157.851563 28.246094 156.523438 28.246094 154.980469 Z M 29.929688 155.191406 C 29.929688 156.789063 30.128906 158.097656 30.519531 159.105469 C 30.84375 159.949219 31.328125 160.371094 31.972656 160.371094 C 32.28125 160.371094 32.601563 160.230469 32.929688 159.960938 C 33.261719 159.683594 33.507813 159.21875 33.675781 158.558594 C 33.945313 157.589844 34.078125 156.207031 34.078125 154.410156 C 34.078125 153.09375 33.9375 151.992188 33.65625 151.109375 C 33.460938 150.449219 33.191406 149.984375 32.855469 149.71875 C 32.632813 149.535156 32.351563 149.445313 32.015625 149.445313 C 31.636719 149.445313 31.292969 149.613281 30.984375 149.949219 C 30.578125 150.425781 30.296875 151.175781 30.152344 152.191406 C 30.003906 153.207031 29.929688 154.210938 29.929688 155.191406 "/>
<path style="fill:none;stroke-width:1.2;stroke-linecap:butt;stroke-linejoin:round;stroke:rgb(0%,0%,0%);stroke-opacity:1;stroke-miterlimit:10;" d="M 1512.03125 1408.164063 L 1512.03125 1366.40625 " transform="matrix(0.1,0,0,-0.1,0,281)"/>
<g clip-path="url(#clip5)" clip-rule="nonzero">
<path style=" stroke:none;fill-rule:nonzero;fill:rgb(0%,0%,0%);fill-opacity:1;" d="M 155.988281 155.90625 L 144.410156 155.90625 L 144.410156 155 L 155.988281 155 L 155.988281 155.90625 "/>
</g>
<path style=" stroke:none;fill-rule:nonzero;fill:rgb(0%,0%,0%);fill-opacity:1;" d="M 159.816406 149.109375 L 159.144531 150.558594 L 155.671875 150.558594 L 154.914063 152.117188 C 156.414063 152.34375 157.609375 152.902344 158.492188 153.800781 C 159.25 154.574219 159.628906 155.484375 159.628906 156.539063 C 159.628906 157.15625 159.507813 157.722656 159.261719 158.242188 C 159.015625 158.761719 158.703125 159.203125 158.324219 159.570313 C 157.945313 159.933594 157.523438 160.222656 157.0625 160.433594 C 156.414063 160.753906 155.742188 160.914063 155.039063 160.914063 C 154.351563 160.914063 153.851563 160.796875 153.535156 160.558594 C 153.21875 160.320313 153.0625 160.058594 153.0625 159.777344 C 153.0625 159.609375 153.128906 159.46875 153.261719 159.347656 C 153.394531 159.230469 153.558594 159.167969 153.757813 159.167969 C 153.894531 159.167969 154.023438 159.191406 154.136719 159.230469 C 154.246094 159.273438 154.4375 159.394531 154.703125 159.589844 C 155.140625 159.882813 155.574219 160.03125 156.007813 160.03125 C 156.683594 160.03125 157.269531 159.777344 157.765625 159.273438 C 158.265625 158.769531 158.511719 158.152344 158.511719 157.421875 C 158.511719 156.71875 158.289063 156.066406 157.839844 155.464844 C 157.390625 154.859375 156.773438 154.390625 155.988281 154.054688 C 155.355469 153.800781 154.507813 153.652344 153.441406 153.613281 L 155.671875 149.109375 L 159.816406 149.109375 "/>
<path style="fill:none;stroke-width:1.2;stroke-linecap:butt;stroke-linejoin:round;stroke:rgb(0%,0%,0%);stroke-opacity:1;stroke-miterlimit:10;" d="M 2801.835938 1408.164063 L 2801.835938 1366.40625 " transform="matrix(0.1,0,0,-0.1,0,281)"/>
<path style=" stroke:none;fill-rule:nonzero;fill:rgb(0%,0%,0%);fill-opacity:1;" d="M 270.046875 153.632813 C 270.046875 152.3125 270.25 151.175781 270.648438 150.210938 C 271.046875 149.253906 271.578125 148.539063 272.238281 148.078125 C 272.757813 147.710938 273.289063 147.527344 273.835938 147.527344 C 274.722656 147.527344 275.515625 147.980469 276.214844 148.875 C 277.101563 150 277.542969 151.523438 277.542969 153.445313 C 277.542969 154.789063 277.347656 155.933594 276.964844 156.875 C 276.578125 157.816406 276.082031 158.5 275.480469 158.925781 C 274.875 159.355469 274.300781 159.570313 273.753906 159.570313 C 272.644531 159.570313 271.71875 158.914063 270.976563 157.613281 C 270.355469 156.503906 270.046875 155.175781 270.046875 153.632813 Z M 271.730469 153.84375 C 271.730469 155.441406 271.929688 156.746094 272.320313 157.757813 C 272.644531 158.601563 273.128906 159.023438 273.773438 159.023438 C 274.082031 159.023438 274.402344 158.886719 274.730469 158.613281 C 275.0625 158.339844 275.3125 157.871094 275.480469 157.210938 C 275.746094 156.242188 275.878906 154.859375 275.878906 153.066406 C 275.878906 151.746094 275.738281 150.644531 275.457031 149.761719 C 275.261719 149.101563 274.996094 148.636719 274.65625 148.371094 C 274.433594 148.1875 274.152344 148.097656 273.816406 148.097656 C 273.4375 148.097656 273.09375 148.265625 272.785156 148.601563 C 272.378906 149.078125 272.101563 149.828125 271.953125 150.84375 C 271.804688 151.859375 271.730469 152.863281 271.730469 153.84375 "/>
<path style="fill:none;stroke-width:1.2;stroke-linecap:butt;stroke-linejoin:round;stroke:rgb(0%,0%,0%);stroke-opacity:1;stroke-miterlimit:10;" d="M 4091.640625 1408.164063 L 4091.640625 1366.40625 " transform="matrix(0.1,0,0,-0.1,0,281)"/>
<path style=" stroke:none;fill-rule:nonzero;fill:rgb(0%,0%,0%);fill-opacity:1;" d="M 411.722656 149.109375 L 411.050781 150.558594 L 407.578125 150.558594 L 406.820313 152.117188 C 408.320313 152.34375 409.515625 152.902344 410.398438 153.800781 C 411.15625 154.574219 411.535156 155.484375 411.535156 156.539063 C 411.535156 157.15625 411.410156 157.722656 411.164063 158.242188 C 410.921875 158.761719 410.609375 159.203125 410.230469 159.570313 C 409.851563 159.933594 409.429688 160.222656 408.964844 160.433594 C 408.320313 160.753906 407.648438 160.914063 406.945313 160.914063 C 406.257813 160.914063 405.757813 160.796875 405.441406 160.558594 C 405.125 160.320313 404.96875 160.058594 404.96875 159.777344 C 404.96875 159.609375 405.035156 159.46875 405.167969 159.347656 C 405.300781 159.230469 405.464844 159.167969 405.660156 159.167969 C 405.800781 159.167969 405.929688 159.191406 406.039063 159.230469 C 406.152344 159.273438 406.34375 159.394531 406.609375 159.589844 C 407.042969 159.882813 407.480469 160.03125 407.914063 160.03125 C 408.589844 160.03125 409.175781 159.777344 409.671875 159.273438 C 410.171875 158.769531 410.417969 158.152344 410.417969 157.421875 C 410.417969 156.71875 410.195313 156.066406 409.746094 155.464844 C 409.296875 154.859375 408.679688 154.390625 407.894531 154.054688 C 407.261719 153.800781 406.410156 153.652344 405.347656 153.613281 L 407.578125 149.109375 L 411.722656 149.109375 "/>
<path style="fill:none;stroke-width:1.2;stroke-linecap:butt;stroke-linejoin:round;stroke:rgb(0%,0%,0%);stroke-opacity:1;stroke-miterlimit:10;" d="M 5381.40625 1408.164063 L 5381.40625 1366.40625 " transform="matrix(0.1,0,0,-0.1,0,281)"/>
<path style=" stroke:none;fill-rule:nonzero;fill:rgb(0%,0%,0%);fill-opacity:1;" d="M 531.46875 150.246094 L 534.289063 148.875 L 534.5625 148.875 L 534.5625 158.664063 C 534.5625 159.308594 534.589844 159.714844 534.644531 159.875 C 534.703125 160.035156 534.8125 160.15625 534.980469 160.242188 C 535.152344 160.328125 535.492188 160.375 536.015625 160.390625 L 536.015625 160.707031 L 531.65625 160.707031 L 531.65625 160.390625 C 532.203125 160.375 532.558594 160.328125 532.71875 160.242188 C 532.882813 160.15625 532.992188 160.046875 533.054688 159.90625 C 533.117188 159.765625 533.152344 159.351563 533.152344 158.664063 L 533.152344 152.410156 C 533.152344 151.558594 533.121094 151.011719 533.066406 150.769531 C 533.023438 150.589844 532.949219 150.453125 532.847656 150.371094 C 532.742188 150.285156 532.609375 150.246094 532.457031 150.246094 C 532.246094 150.246094 531.957031 150.335938 531.59375 150.519531 Z M 538.792969 154.980469 C 538.792969 153.660156 538.992188 152.519531 539.394531 151.558594 C 539.789063 150.597656 540.320313 149.886719 540.980469 149.425781 C 541.5 149.058594 542.035156 148.875 542.582031 148.875 C 543.464844 148.875 544.257813 149.324219 544.960938 150.222656 C 545.84375 151.347656 546.285156 152.867188 546.285156 154.789063 C 546.285156 156.136719 546.09375 157.28125 545.707031 158.222656 C 545.320313 159.160156 544.824219 159.847656 544.222656 160.273438 C 543.621094 160.703125 543.046875 160.914063 542.496094 160.914063 C 541.386719 160.914063 540.460938 160.261719 539.71875 158.960938 C 539.101563 157.851563 538.792969 156.523438 538.792969 154.980469 Z M 540.476563 155.191406 C 540.476563 156.789063 540.671875 158.097656 541.066406 159.105469 C 541.386719 159.949219 541.871094 160.371094 542.519531 160.371094 C 542.828125 160.371094 543.144531 160.230469 543.476563 159.960938 C 543.804688 159.683594 544.054688 159.21875 544.222656 158.558594 C 544.488281 157.589844 544.621094 156.207031 544.621094 154.410156 C 544.621094 153.09375 544.480469 151.992188 544.203125 151.109375 C 544.003906 150.449219 543.738281 149.984375 543.402344 149.71875 C 543.179688 149.535156 542.894531 149.445313 542.558594 149.445313 C 542.179688 149.445313 541.839844 149.613281 541.527344 149.949219 C 541.121094 150.425781 540.84375 151.175781 540.695313 152.191406 C 540.550781 153.207031 540.476563 154.210938 540.476563 155.191406 "/>
<path style="fill:none;stroke-width:1.2;stroke-linecap:butt;stroke-linejoin:round;stroke:rgb(0%,0%,0%);stroke-opacity:1;stroke-miterlimit:10;" d="M 480.234375 1408.164063 L 480.234375 1387.304688 " transform="matrix(0.1,0,0,-0.1,0,281)"/>
<path style="fill:none;stroke-width:1.2;stroke-linecap:butt;stroke-linejoin:round;stroke:rgb(0%,0%,0%);stroke-opacity:1;stroke-miterlimit:10;" d="M 738.203125 1408.164063 L 738.203125 1387.304688 " transform="matrix(0.1,0,0,-0.1,0,281)"/>
<path style="fill:none;stroke-width:1.2;stroke-linecap:butt;stroke-linejoin:round;stroke:rgb(0%,0%,0%);stroke-opacity:1;stroke-miterlimit:10;" d="M 996.132813 1408.164063 L 996.132813 1387.304688 " transform="matrix(0.1,0,0,-0.1,0,281)"/>
<path style="fill:none;stroke-width:1.2;stroke-linecap:butt;stroke-linejoin:round;stroke:rgb(0%,0%,0%);stroke-opacity:1;stroke-miterlimit:10;" d="M 1254.101563 1408.164063 L 1254.101563 1387.304688 " transform="matrix(0.1,0,0,-0.1,0,281)"/>
<path style="fill:none;stroke-width:1.2;stroke-linecap:butt;stroke-linejoin:round;stroke:rgb(0%,0%,0%);stroke-opacity:1;stroke-miterlimit:10;" d="M 1770 1408.164063 L 1770 1387.304688 " transform="matrix(0.1,0,0,-0.1,0,281)"/>
<path style="fill:none;stroke-width:1.2;stroke-linecap:butt;stroke-linejoin:round;stroke:rgb(0%,0%,0%);stroke-opacity:1;stroke-miterlimit:10;" d="M 2027.96875 1408.164063 L 2027.96875 1387.304688 " transform="matrix(0.1,0,0,-0.1,0,281)"/>
<path style="fill:none;stroke-width:1.2;stroke-linecap:butt;stroke-linejoin:round;stroke:rgb(0%,0%,0%);stroke-opacity:1;stroke-miterlimit:10;" d="M 2285.9375 1408.164063 L 2285.9375 1387.304688 " transform="matrix(0.1,0,0,-0.1,0,281)"/>
<path style="fill:none;stroke-width:1.2;stroke-linecap:butt;stroke-linejoin:round;stroke:rgb(0%,0%,0%);stroke-opacity:1;stroke-miterlimit:10;" d="M 2543.867188 1408.164063 L 2543.867188 1387.304688 " transform="matrix(0.1,0,0,-0.1,0,281)"/>
<path style="fill:none;stroke-width:1.2;stroke-linecap:butt;stroke-linejoin:round;stroke:rgb(0%,0%,0%);stroke-opacity:1;stroke-miterlimit:10;" d="M 3059.804688 1408.164063 L 3059.804688 1387.304688 " transform="matrix(0.1,0,0,-0.1,0,281)"/>
<path style="fill:none;stroke-width:1.2;stroke-linecap:butt;stroke-linejoin:round;stroke:rgb(0%,0%,0%);stroke-opacity:1;stroke-miterlimit:10;" d="M 3317.734375 1408.164063 L 3317.734375 1387.304688 " transform="matrix(0.1,0,0,-0.1,0,281)"/>
<path style="fill:none;stroke-width:1.2;stroke-linecap:butt;stroke-linejoin:round;stroke:rgb(0%,0%,0%);stroke-opacity:1;stroke-miterlimit:10;" d="M 3575.703125 1408.164063 L 3575.703125 1387.304688 " transform="matrix(0.1,0,0,-0.1,0,281)"/>
<path style="fill:none;stroke-width:1.2;stroke-linecap:butt;stroke-linejoin:round;stroke:rgb(0%,0%,0%);stroke-opacity:1;stroke-miterlimit:10;" d="M 3833.671875 1408.164063 L 3833.671875 1387.304688 " transform="matrix(0.1,0,0,-0.1,0,281)"/>
<path style="fill:none;stroke-width:1.2;stroke-linecap:butt;stroke-linejoin:round;stroke:rgb(0%,0%,0%);stroke-opacity:1;stroke-miterlimit:10;" d="M 4349.570313 1408.164063 L 4349.570313 1387.304688 " transform="matrix(0.1,0,0,-0.1,0,281)"/>
<path style="fill:none;stroke-width:1.2;stroke-linecap:butt;stroke-linejoin:round;stroke:rgb(0%,0%,0%);stroke-opacity:1;stroke-miterlimit:10;" d="M 4607.539063 1408.164063 L 4607.539063 1387.304688 " transform="matrix(0.1,0,0,-0.1,0,281)"/>
<path style="fill:none;stroke-width:1.2;stroke-linecap:butt;stroke-linejoin:round;stroke:rgb(0%,0%,0%);stroke-opacity:1;stroke-miterlimit:10;" d="M 4865.507813 1408.164063 L 4865.507813 1387.304688 " transform="matrix(0.1,0,0,-0.1,0,281)"/>
<path style="fill:none;stroke-width:1.2;stroke-linecap:butt;stroke-linejoin:round;stroke:rgb(0%,0%,0%);stroke-opacity:1;stroke-miterlimit:10;" d="M 5123.476563 1408.164063 L 5123.476563 1387.304688 " transform="matrix(0.1,0,0,-0.1,0,281)"/>
<path style="fill:none;stroke-width:13.4709;stroke-linecap:butt;stroke-linejoin:round;stroke:rgb(0%,0%,0%);stroke-opacity:1;stroke-miterlimit:10;" d="M 2801.835938 185.898438 L 2801.835938 2630.429688 " transform="matrix(0.1,0,0,-0.1,0,281)"/>
<g clip-path="url(#clip6)" clip-rule="nonzero">
<path style=" stroke:none;fill-rule:nonzero;fill:rgb(0%,0%,0%);fill-opacity:1;" d="M 231.804688 77.523438 C 232 77.859375 232.132813 78.171875 232.203125 78.460938 C 232.273438 78.746094 232.351563 79.3125 232.433594 80.15625 L 232.792969 84.363281 C 233.144531 83.957031 233.640625 83.304688 234.285156 82.40625 C 234.597656 81.972656 234.980469 81.382813 235.445313 80.640625 C 235.726563 80.1875 235.902344 79.875 235.972656 79.691406 C 236 79.59375 236.015625 79.496094 236.015625 79.398438 C 236.015625 79.339844 235.992188 79.292969 235.949219 79.25 C 235.910156 79.207031 235.800781 79.15625 235.632813 79.101563 C 235.464844 79.046875 235.328125 78.949219 235.222656 78.808594 C 235.117188 78.667969 235.066406 78.5 235.066406 78.300781 C 235.066406 78.078125 235.132813 77.890625 235.265625 77.746094 C 235.398438 77.597656 235.570313 77.523438 235.78125 77.523438 C 236.035156 77.523438 236.246094 77.628906 236.421875 77.839844 C 236.601563 78.050781 236.6875 78.335938 236.6875 78.703125 C 236.6875 79.152344 236.53125 79.667969 236.222656 80.25 C 235.914063 80.832031 235.324219 81.71875 234.445313 82.910156 C 233.570313 84.105469 232.507813 85.410156 231.257813 86.828125 C 230.398438 87.796875 229.761719 88.410156 229.34375 88.667969 C 228.921875 88.929688 228.5625 89.058594 228.269531 89.058594 C 228.085938 89.058594 227.925781 88.988281 227.792969 88.847656 C 227.660156 88.707031 227.59375 88.554688 227.59375 88.382813 C 227.59375 88.160156 227.6875 87.957031 227.878906 87.773438 C 228.066406 87.59375 228.269531 87.5 228.476563 87.5 C 228.589844 87.5 228.6875 87.527344 228.773438 87.585938 C 228.816406 87.613281 228.863281 87.691406 228.921875 87.828125 C 228.976563 87.960938 229.023438 88.046875 229.066406 88.089844 C 229.09375 88.117188 229.128906 88.132813 229.171875 88.132813 C 229.199219 88.132813 229.257813 88.105469 229.34375 88.046875 C 229.664063 87.851563 230.027344 87.542969 230.4375 87.121094 C 230.980469 86.558594 231.390625 86.105469 231.65625 85.753906 L 231.171875 80.34375 C 231.101563 79.445313 230.984375 78.898438 230.824219 78.703125 C 230.664063 78.507813 230.394531 78.40625 230.015625 78.40625 C 229.890625 78.40625 229.671875 78.429688 229.363281 78.472656 L 229.296875 78.15625 L 231.804688 77.523438 "/>
</g>
<path style="fill:none;stroke-width:1.2;stroke-linecap:butt;stroke-linejoin:round;stroke:rgb(0%,0%,0%);stroke-opacity:1;stroke-miterlimit:10;" d="M 2801.835938 185.898438 L 2760.078125 185.898438 " transform="matrix(0.1,0,0,-0.1,0,281)"/>
<g clip-path="url(#clip7)" clip-rule="nonzero">
<path style=" stroke:none;fill-rule:nonzero;fill:rgb(0%,0%,0%);fill-opacity:1;" d="M 258.367188 263.671875 L 246.789063 263.671875 L 246.789063 262.769531 L 258.367188 262.769531 L 258.367188 263.671875 "/>
</g>
<path style=" stroke:none;fill-rule:nonzero;fill:rgb(0%,0%,0%);fill-opacity:1;" d="M 256.660156 258.011719 L 259.484375 256.644531 L 259.757813 256.644531 L 259.757813 266.429688 C 259.757813 267.078125 259.785156 267.480469 259.839844 267.640625 C 259.894531 267.800781 260.007813 267.925781 260.175781 268.011719 C 260.34375 268.09375 260.6875 268.144531 261.207031 268.15625 L 261.207031 268.472656 L 256.851563 268.472656 L 256.851563 268.15625 C 257.398438 268.144531 257.753906 268.09375 257.914063 268.011719 C 258.074219 267.925781 258.1875 267.8125 258.25 267.671875 C 258.3125 267.53125 258.347656 267.117188 258.347656 266.429688 L 258.347656 260.179688 C 258.347656 259.324219 258.316406 258.777344 258.261719 258.539063 C 258.21875 258.355469 258.144531 258.222656 258.039063 258.136719 C 257.933594 258.054688 257.804688 258.011719 257.652344 258.011719 C 257.441406 258.011719 257.152344 258.101563 256.789063 258.285156 Z M 263.984375 262.746094 C 263.984375 261.429688 264.1875 260.289063 264.585938 259.328125 C 264.984375 258.367188 265.515625 257.652344 266.175781 257.191406 C 266.695313 256.828125 267.230469 256.644531 267.773438 256.644531 C 268.660156 256.644531 269.453125 257.09375 270.152344 257.988281 C 271.039063 259.113281 271.480469 260.636719 271.480469 262.558594 C 271.480469 263.90625 271.285156 265.046875 270.902344 265.988281 C 270.515625 266.929688 270.019531 267.613281 269.417969 268.039063 C 268.8125 268.46875 268.238281 268.683594 267.691406 268.683594 C 266.582031 268.683594 265.65625 268.03125 264.914063 266.726563 C 264.296875 265.617188 263.984375 264.289063 263.984375 262.746094 Z M 265.671875 262.957031 C 265.671875 264.558594 265.867188 265.863281 266.261719 266.871094 C 266.582031 267.714844 267.066406 268.136719 267.710938 268.136719 C 268.019531 268.136719 268.339844 268 268.671875 267.726563 C 269 267.453125 269.25 266.984375 269.417969 266.328125 C 269.683594 265.355469 269.816406 263.976563 269.816406 262.179688 C 269.816406 260.859375 269.675781 259.757813 269.394531 258.875 C 269.199219 258.214844 268.933594 257.753906 268.597656 257.484375 C 268.371094 257.304688 268.089844 257.210938 267.753906 257.210938 C 267.375 257.210938 267.03125 257.378906 266.722656 257.71875 C 266.316406 258.195313 266.039063 258.941406 265.890625 259.957031 C 265.742188 260.976563 265.671875 261.976563 265.671875 262.957031 "/>
<path style="fill:none;stroke-width:1.2;stroke-linecap:butt;stroke-linejoin:round;stroke:rgb(0%,0%,0%);stroke-opacity:1;stroke-miterlimit:10;" d="M 2801.835938 797.03125 L 2760.078125 797.03125 " transform="matrix(0.1,0,0,-0.1,0,281)"/>
<g clip-path="url(#clip8)" clip-rule="nonzero">
<path style=" stroke:none;fill-rule:nonzero;fill:rgb(0%,0%,0%);fill-opacity:1;" d="M 267.796875 203.054688 L 256.21875 203.054688 L 256.21875 202.148438 L 267.796875 202.148438 L 267.796875 203.054688 "/>
</g>
<path style=" stroke:none;fill-rule:nonzero;fill:rgb(0%,0%,0%);fill-opacity:1;" d="M 271.628906 196.257813 L 270.953125 197.707031 L 267.480469 197.707031 L 266.722656 199.265625 C 268.222656 199.488281 269.417969 200.050781 270.300781 200.949219 C 271.058594 201.722656 271.4375 202.632813 271.4375 203.6875 C 271.4375 204.304688 271.3125 204.871094 271.070313 205.390625 C 270.824219 205.910156 270.511719 206.351563 270.132813 206.71875 C 269.753906 207.082031 269.332031 207.371094 268.867188 207.578125 C 268.222656 207.902344 267.550781 208.066406 266.847656 208.066406 C 266.160156 208.066406 265.660156 207.945313 265.34375 207.707031 C 265.027344 207.46875 264.871094 207.207031 264.871094 206.925781 C 264.871094 206.757813 264.9375 206.613281 265.070313 206.496094 C 265.203125 206.375 265.367188 206.316406 265.566406 206.316406 C 265.703125 206.316406 265.832031 206.339844 265.941406 206.378906 C 266.058594 206.421875 266.246094 206.542969 266.511719 206.738281 C 266.945313 207.03125 267.382813 207.179688 267.816406 207.179688 C 268.492188 207.179688 269.078125 206.925781 269.574219 206.421875 C 270.074219 205.917969 270.320313 205.300781 270.320313 204.570313 C 270.320313 203.867188 270.097656 203.214844 269.648438 202.613281 C 269.199219 202.007813 268.582031 201.539063 267.796875 201.203125 C 267.164063 200.949219 266.316406 200.800781 265.25 200.761719 L 267.480469 196.257813 L 271.628906 196.257813 "/>
<path style="fill:none;stroke-width:1.2;stroke-linecap:butt;stroke-linejoin:round;stroke:rgb(0%,0%,0%);stroke-opacity:1;stroke-miterlimit:10;" d="M 2801.835938 1408.164063 L 2760.078125 1408.164063 " transform="matrix(0.1,0,0,-0.1,0,281)"/>
<path style="fill:none;stroke-width:1.2;stroke-linecap:butt;stroke-linejoin:round;stroke:rgb(0%,0%,0%);stroke-opacity:1;stroke-miterlimit:10;" d="M 2801.835938 2019.296875 L 2760.078125 2019.296875 " transform="matrix(0.1,0,0,-0.1,0,281)"/>
<path style=" stroke:none;fill-rule:nonzero;fill:rgb(0%,0%,0%);fill-opacity:1;" d="M 271.628906 73.671875 L 270.953125 75.125 L 267.480469 75.125 L 266.722656 76.683594 C 268.222656 76.90625 269.417969 77.46875 270.300781 78.367188 C 271.058594 79.136719 271.4375 80.050781 271.4375 81.101563 C 271.4375 81.71875 271.3125 82.285156 271.070313 82.808594 C 270.824219 83.324219 270.511719 83.769531 270.132813 84.132813 C 269.753906 84.496094 269.332031 84.785156 268.867188 84.996094 C 268.222656 85.316406 267.550781 85.480469 266.847656 85.480469 C 266.160156 85.480469 265.660156 85.359375 265.34375 85.121094 C 265.027344 84.882813 264.871094 84.625 264.871094 84.34375 C 264.871094 84.175781 264.9375 84.03125 265.070313 83.910156 C 265.203125 83.792969 265.367188 83.734375 265.566406 83.734375 C 265.703125 83.734375 265.832031 83.753906 265.941406 83.796875 C 266.058594 83.839844 266.246094 83.957031 266.511719 84.152344 C 266.945313 84.449219 267.382813 84.597656 267.816406 84.597656 C 268.492188 84.597656 269.078125 84.34375 269.574219 83.839844 C 270.074219 83.332031 270.320313 82.714844 270.320313 81.984375 C 270.320313 81.285156 270.097656 80.632813 269.648438 80.027344 C 269.199219 79.425781 268.582031 78.953125 267.796875 78.617188 C 267.164063 78.367188 266.316406 78.21875 265.25 78.175781 L 267.480469 73.671875 L 271.628906 73.671875 "/>
<path style="fill:none;stroke-width:1.2;stroke-linecap:butt;stroke-linejoin:round;stroke:rgb(0%,0%,0%);stroke-opacity:1;stroke-miterlimit:10;" d="M 2801.835938 2630.429688 L 2760.078125 2630.429688 " transform="matrix(0.1,0,0,-0.1,0,281)"/>
<path style=" stroke:none;fill-rule:nonzero;fill:rgb(0%,0%,0%);fill-opacity:1;" d="M 256.660156 14.1875 L 259.484375 12.820313 L 259.757813 12.820313 L 259.757813 22.609375 C 259.757813 23.253906 259.785156 23.65625 259.839844 23.820313 C 259.894531 23.980469 260.007813 24.101563 260.175781 24.1875 C 260.34375 24.269531 260.6875 24.320313 261.207031 24.335938 L 261.207031 24.648438 L 256.851563 24.648438 L 256.851563 24.335938 C 257.398438 24.320313 257.753906 24.269531 257.914063 24.1875 C 258.074219 24.101563 258.1875 23.992188 258.25 23.851563 C 258.3125 23.710938 258.347656 23.296875 258.347656 22.609375 L 258.347656 16.355469 C 258.347656 15.503906 258.316406 14.953125 258.261719 14.714844 C 258.21875 14.53125 258.144531 14.398438 258.039063 14.316406 C 257.933594 14.230469 257.804688 14.1875 257.652344 14.1875 C 257.441406 14.1875 257.152344 14.28125 256.789063 14.464844 Z M 263.984375 18.925781 C 263.984375 17.605469 264.1875 16.464844 264.585938 15.503906 C 264.984375 14.542969 265.515625 13.832031 266.175781 13.367188 C 266.695313 13.003906 267.230469 12.820313 267.773438 12.820313 C 268.660156 12.820313 269.453125 13.269531 270.152344 14.167969 C 271.039063 15.289063 271.480469 16.8125 271.480469 18.734375 C 271.480469 20.082031 271.285156 21.226563 270.902344 22.167969 C 270.515625 23.105469 270.019531 23.789063 269.417969 24.21875 C 268.8125 24.648438 268.238281 24.859375 267.691406 24.859375 C 266.582031 24.859375 265.65625 24.207031 264.914063 22.902344 C 264.296875 21.796875 263.984375 20.46875 263.984375 18.925781 Z M 265.671875 19.136719 C 265.671875 20.734375 265.867188 22.039063 266.261719 23.050781 C 266.582031 23.894531 267.066406 24.3125 267.710938 24.3125 C 268.019531 24.3125 268.339844 24.175781 268.671875 23.902344 C 269 23.628906 269.25 23.164063 269.417969 22.503906 C 269.683594 21.535156 269.816406 20.152344 269.816406 18.355469 C 269.816406 17.039063 269.675781 15.9375 269.394531 15.050781 C 269.199219 14.394531 268.933594 13.929688 268.597656 13.664063 C 268.371094 13.480469 268.089844 13.390625 267.753906 13.390625 C 267.375 13.390625 267.03125 13.558594 266.722656 13.894531 C 266.316406 14.371094 266.039063 15.117188 265.890625 16.136719 C 265.742188 17.152344 265.671875 18.152344 265.671875 19.136719 "/>
<path style="fill:none;stroke-width:1.2;stroke-linecap:butt;stroke-linejoin:round;stroke:rgb(0%,0%,0%);stroke-opacity:1;stroke-miterlimit:10;" d="M 2801.835938 308.125 L 2780.9375 308.125 " transform="matrix(0.1,0,0,-0.1,0,281)"/>
<path style="fill:none;stroke-width:1.2;stroke-linecap:butt;stroke-linejoin:round;stroke:rgb(0%,0%,0%);stroke-opacity:1;stroke-miterlimit:10;" d="M 2801.835938 430.351563 L 2780.9375 430.351563 " transform="matrix(0.1,0,0,-0.1,0,281)"/>
<path style="fill:none;stroke-width:1.2;stroke-linecap:butt;stroke-linejoin:round;stroke:rgb(0%,0%,0%);stroke-opacity:1;stroke-miterlimit:10;" d="M 2801.835938 552.578125 L 2780.9375 552.578125 " transform="matrix(0.1,0,0,-0.1,0,281)"/>
<path style="fill:none;stroke-width:1.2;stroke-linecap:butt;stroke-linejoin:round;stroke:rgb(0%,0%,0%);stroke-opacity:1;stroke-miterlimit:10;" d="M 2801.835938 674.804688 L 2780.9375 674.804688 " transform="matrix(0.1,0,0,-0.1,0,281)"/>
<path style="fill:none;stroke-width:1.2;stroke-linecap:butt;stroke-linejoin:round;stroke:rgb(0%,0%,0%);stroke-opacity:1;stroke-miterlimit:10;" d="M 2801.835938 919.257813 L 2780.9375 919.257813 " transform="matrix(0.1,0,0,-0.1,0,281)"/>
<path style="fill:none;stroke-width:1.2;stroke-linecap:butt;stroke-linejoin:round;stroke:rgb(0%,0%,0%);stroke-opacity:1;stroke-miterlimit:10;" d="M 2801.835938 1041.484375 L 2780.9375 1041.484375 " transform="matrix(0.1,0,0,-0.1,0,281)"/>
<path style="fill:none;stroke-width:1.2;stroke-linecap:butt;stroke-linejoin:round;stroke:rgb(0%,0%,0%);stroke-opacity:1;stroke-miterlimit:10;" d="M 2801.835938 1163.710938 L 2780.9375 1163.710938 " transform="matrix(0.1,0,0,-0.1,0,281)"/>
<path style="fill:none;stroke-width:1.2;stroke-linecap:butt;stroke-linejoin:round;stroke:rgb(0%,0%,0%);stroke-opacity:1;stroke-miterlimit:10;" d="M 2801.835938 1285.9375 L 2780.9375 1285.9375 " transform="matrix(0.1,0,0,-0.1,0,281)"/>
<path style="fill:none;stroke-width:1.2;stroke-linecap:butt;stroke-linejoin:round;stroke:rgb(0%,0%,0%);stroke-opacity:1;stroke-miterlimit:10;" d="M 2801.835938 1530.390625 L 2780.9375 1530.390625 " transform="matrix(0.1,0,0,-0.1,0,281)"/>
<path style="fill:none;stroke-width:1.2;stroke-linecap:butt;stroke-linejoin:round;stroke:rgb(0%,0%,0%);stroke-opacity:1;stroke-miterlimit:10;" d="M 2801.835938 1652.617188 L 2780.9375 1652.617188 " transform="matrix(0.1,0,0,-0.1,0,281)"/>
<path style="fill:none;stroke-width:1.2;stroke-linecap:butt;stroke-linejoin:round;stroke:rgb(0%,0%,0%);stroke-opacity:1;stroke-miterlimit:10;" d="M 2801.835938 1774.84375 L 2780.9375 1774.84375 " transform="matrix(0.1,0,0,-0.1,0,281)"/>
<path style="fill:none;stroke-width:1.2;stroke-linecap:butt;stroke-linejoin:round;stroke:rgb(0%,0%,0%);stroke-opacity:1;stroke-miterlimit:10;" d="M 2801.835938 1897.070313 L 2780.9375 1897.070313 " transform="matrix(0.1,0,0,-0.1,0,281)"/>
<path style="fill:none;stroke-width:1.2;stroke-linecap:butt;stroke-linejoin:round;stroke:rgb(0%,0%,0%);stroke-opacity:1;stroke-miterlimit:10;" d="M 2801.835938 2141.523438 L 2780.9375 2141.523438 " transform="matrix(0.1,0,0,-0.1,0,281)"/>
<path style="fill:none;stroke-width:1.2;stroke-linecap:butt;stroke-linejoin:round;stroke:rgb(0%,0%,0%);stroke-opacity:1;stroke-miterlimit:10;" d="M 2801.835938 2263.75 L 2780.9375 2263.75 " transform="matrix(0.1,0,0,-0.1,0,281)"/>
<path style="fill:none;stroke-width:1.2;stroke-linecap:butt;stroke-linejoin:round;stroke:rgb(0%,0%,0%);stroke-opacity:1;stroke-miterlimit:10;" d="M 2801.835938 2385.976563 L 2780.9375 2385.976563 " transform="matrix(0.1,0,0,-0.1,0,281)"/>
<path style="fill:none;stroke-width:1.2;stroke-linecap:butt;stroke-linejoin:round;stroke:rgb(0%,0%,0%);stroke-opacity:1;stroke-miterlimit:10;" d="M 2801.835938 2508.203125 L 2780.9375 2508.203125 " transform="matrix(0.1,0,0,-0.1,0,281)"/>
</g>
</svg>
