<?xml version="1.0" encoding="UTF-8"?>
<svg xmlns="http://www.w3.org/2000/svg" xmlns:xlink="http://www.w3.org/1999/xlink" width="555pt" height="555pt" viewBox="0 0 555 555" version="1.1">
<defs>
<clipPath id="clip1">
  <path d="M 26.363281 250 L 536 250 L 536 304 L 26.363281 304 Z M 26.363281 250 "/>
</clipPath>
<clipPath id="clip2">
  <path d="M 154 16.675781 L 409 16.675781 L 409 536.269531 L 154 536.269531 Z M 154 16.675781 "/>
</clipPath>
<clipPath id="clip3">
  <path d="M 11 299 L 19.425781 299 L 19.425781 301 L 11 301 Z M 11 299 "/>
</clipPath>
<clipPath id="clip4">
  <path d="M 74 299 L 81.863281 299 L 81.863281 301 L 74 301 Z M 74 299 "/>
</clipPath>
<clipPath id="clip5">
  <path d="M 138 299 L 145.6875 299 L 145.6875 301 L 138 301 Z M 138 299 "/>
</clipPath>
<clipPath id="clip6">
  <path d="M 207 299 L 215.0625 299 L 215.0625 301 L 207 301 Z M 207 299 "/>
</clipPath>
<clipPath id="clip7">
  <path d="M 239 535 L 246.976563 535 L 246.976563 537 L 239 537 Z M 239 535 "/>
</clipPath>
<clipPath id="clip8">
  <path d="M 250 406 L 258.074219 406 L 258.074219 408 L 250 408 Z M 250 406 "/>
</clipPath>
</defs>
<g id="surface1">
<rect x="0" y="0" width="555" height="555" style="fill:rgb(100%,100%,100%);fill-opacity:1;stroke:none;"/>
<g clip-path="url(#clip1)" clip-rule="nonzero">
<path style="fill:none;stroke-width:20.8125;stroke-linecap:butt;stroke-linejoin:round;stroke:rgb(47.068787%,0%,5.488586%);stroke-opacity:1;stroke-miterlimit:10;" d="M 277.5 2778.359375 L 304.140625 2812.304688 L 327.304688 2841.40625 L 353.359375 2873.085938 L 379.570313 2903.398438 L 405.664063 2931.445313 L 429.882813 2955.195313 L 454.921875 2977.070313 L 480.859375 2996.484375 L 506.679688 3012.226563 L 533.242188 3024.414063 L 556.640625 3031.640625 L 569.804688 3034.21875 L 582.96875 3035.664063 L 586.289063 3035.898438 L 589.609375 3036.015625 L 592.890625 3036.054688 L 596.210938 3036.054688 L 599.53125 3035.976563 L 602.8125 3035.820313 L 606.132813 3035.585938 L 609.453125 3035.3125 L 622.1875 3033.554688 L 634.921875 3030.742188 L 658.085938 3023.125 L 685.625 3009.882813 L 708.945313 2995.273438 L 736.054688 2974.609375 L 760.078125 2953.398438 L 786.40625 2927.226563 L 811.484375 2899.960938 L 837.695313 2869.492188 L 861.71875 2840.15625 L 887.65625 2807.539063 L 914.570313 2773.164063 L 938.007813 2743.28125 L 963.320313 2711.5625 L 989.492188 2679.882813 L 1015.078125 2650.546875 L 1039.84375 2624.0625 L 1067.34375 2597.421875 L 1092.03125 2576.328125 L 1118.398438 2557.1875 L 1142.304688 2543.085938 L 1168.4375 2531.445313 L 1193.007813 2524.296875 L 1205.859375 2522.03125 L 1218.710938 2520.859375 L 1221.875 2520.703125 L 1225 2520.625 L 1228.125 2520.625 L 1231.289063 2520.664063 L 1237.578125 2520.976563 L 1243.828125 2521.523438 L 1256.992188 2523.476563 L 1270.15625 2526.523438 L 1295.46875 2535.351563 L 1321.40625 2548.398438 L 1347.070313 2565.039063 L 1370.703125 2583.398438 L 1397.734375 2607.734375 L 1421.953125 2632.109375 L 1447.734375 2660.429688 L 1472.421875 2689.335938 L 1499.84375 2722.96875 L 1523.59375 2752.929688 L 1550.546875 2787.34375 L 1575.117188 2818.59375 L 1601.992188 2852.109375 L 1625.195313 2879.960938 L 1651.5625 2910.039063 L 1677.109375 2936.953125 L 1702.578125 2961.328125 L 1727.96875 2982.65625 L 1752.34375 3000.15625 L 1778.710938 3015.351563 L 1803.867188 3026.132813 L 1817.109375 3030.234375 L 1830.3125 3033.28125 L 1836.328125 3034.296875 L 1842.304688 3035.078125 L 1848.28125 3035.625 L 1854.257813 3035.976563 L 1857.578125 3036.054688 L 1860.898438 3036.054688 L 1864.179688 3036.015625 L 1867.5 3035.898438 L 1874.140625 3035.429688 L 1880.742188 3034.6875 L 1893.398438 3032.539063 L 1906.09375 3029.375 L 1931.367188 3020.078125 L 1957.773438 3006.328125 L 1982.109375 2990.195313 L 2007.03125 2970.46875 L 2034.53125 2945.3125 L 2059.453125 2919.804688 L 2084.921875 2891.523438 L 2110.820313 2860.898438 L 2134.648438 2831.5625 L 2160 2799.453125 L 2185.195313 2767.265625 L 2212.148438 2733.046875 L 2235.898438 2703.476563 L 2263.359375 2670.703125 L 2288.085938 2642.8125 L 2312.617188 2617.226563 L 2338.945313 2592.382813 L 2365.390625 2570.625 L 2389.453125 2553.945313 L 2415 2539.726563 L 2439.960938 2529.53125 L 2453.476563 2525.585938 L 2466.992188 2522.773438 L 2472.8125 2521.914063 L 2478.671875 2521.289063 L 2484.492188 2520.859375 L 2490.351563 2520.664063 L 2493.710938 2520.625 L 2497.070313 2520.664063 L 2500.429688 2520.820313 L 2503.789063 2521.015625 L 2510.507813 2521.601563 L 2517.226563 2522.5 L 2529.84375 2524.921875 L 2542.460938 2528.359375 L 2567.5 2538.046875 L 2592.539063 2551.40625 L 2618.046875 2568.671875 L 2645.117188 2590.625 L 2669.921875 2613.710938 L 2694.414063 2638.984375 L 2720.625 2668.242188 L 2746.71875 2699.296875 L 2770.195313 2728.320313 L 2797.96875 2763.554688 L 2821.210938 2793.242188 L 2848.398438 2827.734375 L 2874.335938 2859.804688 L 2897.5 2887.304688 L 2923.554688 2916.523438 L 2949.765625 2943.59375 L 2975.859375 2967.734375 L 3000.078125 2987.304688 L 3025.117188 3004.414063 L 3051.054688 3018.4375 L 3076.875 3028.4375 L 3090.15625 3031.992188 L 3103.4375 3034.453125 L 3109.296875 3035.15625 L 3115.15625 3035.664063 L 3118.085938 3035.859375 L 3121.015625 3035.976563 L 3123.90625 3036.054688 L 3126.835938 3036.054688 L 3130.15625 3036.015625 L 3133.4375 3035.898438 L 3136.71875 3035.703125 L 3140.039063 3035.46875 L 3146.601563 3034.726563 L 3153.203125 3033.710938 L 3166.40625 3030.898438 L 3179.648438 3026.992188 L 3205.15625 3016.445313 L 3228.28125 3003.59375 L 3255.820313 2984.414063 L 3279.140625 2965.195313 L 3306.25 2939.6875 L 3330.273438 2914.648438 L 3356.640625 2884.960938 L 3381.71875 2854.960938 L 3407.890625 2822.460938 L 3431.914063 2791.914063 L 3457.851563 2758.789063 L 3484.765625 2724.726563 L 3508.203125 2695.820313 L 3533.515625 2665.898438 L 3559.6875 2636.796875 L 3585.273438 2610.664063 L 3610.039063 2587.96875 L 3637.539063 2566.09375 L 3662.226563 2549.804688 L 3688.59375 2536.210938 L 3712.5 2527.460938 L 3725.585938 2524.179688 L 3738.632813 2521.953125 L 3744.804688 2521.289063 L 3750.9375 2520.859375 L 3754.023438 2520.703125 L 3757.070313 2520.625 L 3760.15625 2520.625 L 3763.203125 2520.664063 L 3769.648438 2520.976563 L 3776.054688 2521.5625 L 3782.5 2522.382813 L 3788.945313 2523.476563 L 3801.484375 2526.328125 L 3814.023438 2530.195313 L 3840.351563 2541.328125 L 3865.703125 2555.898438 L 3891.601563 2574.414063 L 3917.304688 2596.09375 L 3940.898438 2618.671875 L 3967.96875 2647.1875 L 3992.148438 2674.6875 L 4017.96875 2705.664063 L 4042.65625 2736.445313 L 4070.078125 2771.328125 L 4093.828125 2801.679688 L 4120.78125 2835.703125 L 4145.351563 2865.820313 L 4172.1875 2897.265625 L 4195.390625 2922.734375 L 4221.796875 2949.375 L 4247.304688 2972.34375 L 4272.773438 2992.226563 L 4298.164063 3008.59375 L 4322.578125 3020.898438 L 4348.945313 3030.195313 L 4361.523438 3033.085938 L 4374.0625 3035.039063 L 4380.703125 3035.664063 L 4387.304688 3035.976563 L 4390.625 3036.054688 L 4393.90625 3036.054688 L 4397.226563 3035.976563 L 4400.546875 3035.859375 L 4412.5 3034.726563 L 4424.453125 3032.734375 L 4437.695313 3029.492188 L 4450.9375 3025.15625 L 4476.289063 3013.867188 L 4501.5625 2998.90625 L 4528.007813 2979.609375 L 4552.304688 2958.75 L 4577.226563 2934.6875 L 4604.726563 2905.351563 L 4629.648438 2876.71875 L 4655.117188 2845.898438 L 4681.015625 2813.476563 L 4704.84375 2783.125 L 4730.234375 2750.703125 L 4755.390625 2718.984375 L 4782.34375 2686.054688 L 4806.132813 2658.398438 L 4833.554688 2628.554688 L 4858.320313 2603.945313 L 4882.8125 2582.226563 L 4909.140625 2562.109375 L 4935.585938 2545.625 L 4959.648438 2534.101563 L 4985.234375 2525.664063 L 4997.695313 2523.007813 L 5010.15625 2521.328125 L 5013.554688 2521.054688 L 5016.914063 2520.859375 L 5020.273438 2520.703125 L 5023.671875 2520.625 L 5027.03125 2520.625 L 5030.429688 2520.742188 L 5033.828125 2520.898438 L 5037.1875 2521.09375 L 5048.867188 2522.421875 L 5060.585938 2524.648438 L 5087.421875 2532.890625 L 5112.695313 2544.609375 L 5137.695313 2559.882813 L 5162.734375 2578.476563 L 5188.28125 2600.664063 L 5215.3125 2627.226563 L 5240.15625 2654.023438 L 5264.648438 2682.304688 L 5290.820313 2714.101563 L 5316.953125 2746.914063 L 5341.5625 2778.359375 " transform="matrix(0.1,0,0,-0.1,0,555)"/>
</g>
<g clip-path="url(#clip2)" clip-rule="nonzero">
<path style="fill:none;stroke-width:20.8125;stroke-linecap:butt;stroke-linejoin:round;stroke:rgb(0%,5.488586%,47.068787%);stroke-opacity:1;stroke-miterlimit:10;" d="M 1550.546875 -103.867188 L 1575.117188 470.78125 L 1601.992188 992.03125 L 1625.195313 1365.273438 L 1651.5625 1717.65625 L 1677.109375 1995.859375 L 1702.578125 2222.65625 L 1727.96875 2405.859375 L 1752.34375 2547.96875 L 1778.710938 2670.15625 L 1803.867188 2761.015625 L 1830.3125 2834.023438 L 1854.257813 2883.164063 L 1880.742188 2921.71875 L 1906.09375 2945.429688 L 1931.367188 2958.242188 L 1957.773438 2961.835938 L 1982.109375 2957.65625 L 2007.03125 2947.070313 L 2034.53125 2929.257813 L 2059.453125 2908.554688 L 2084.921875 2883.789063 L 2110.820313 2855.664063 L 2134.648438 2827.96875 L 2160 2797.109375 L 2185.195313 2765.703125 L 2212.148438 2732.109375 L 2235.898438 2702.851563 L 2263.359375 2670.351563 L 2288.085938 2642.617188 L 2312.617188 2617.109375 L 2338.945313 2592.304688 L 2365.390625 2570.585938 L 2389.453125 2553.90625 L 2415 2539.726563 L 2439.960938 2529.53125 L 2466.992188 2522.773438 L 2490.351563 2520.664063 L 2517.226563 2522.5 L 2542.460938 2528.359375 L 2567.5 2538.046875 L 2592.539063 2551.40625 L 2618.046875 2568.671875 L 2645.117188 2590.625 L 2669.921875 2613.710938 L 2694.414063 2638.984375 L 2720.625 2668.242188 L 2746.71875 2699.296875 L 2770.195313 2728.320313 L 2797.96875 2763.554688 L 2821.210938 2793.242188 L 2848.398438 2827.734375 L 2874.335938 2859.804688 L 2897.5 2887.304688 L 2923.554688 2916.523438 L 2949.765625 2943.59375 L 2975.859375 2967.734375 L 3000.078125 2987.304688 L 3025.117188 3004.414063 L 3051.054688 3018.4375 L 3076.875 3028.4375 L 3103.4375 3034.453125 L 3126.835938 3036.054688 L 3153.203125 3033.710938 L 3179.648438 3026.992188 L 3205.15625 3016.445313 L 3228.28125 3003.59375 L 3255.820313 2984.453125 L 3279.140625 2965.234375 L 3306.25 2939.804688 L 3330.273438 2914.84375 L 3356.640625 2885.3125 L 3381.71875 2855.585938 L 3407.890625 2823.4375 L 3431.914063 2793.398438 L 3457.851563 2761.09375 L 3484.765625 2728.320313 L 3508.203125 2701.054688 L 3533.515625 2673.554688 L 3559.6875 2648.085938 L 3585.273438 2626.875 L 3610.039063 2610.703125 L 3637.539063 2598.867188 L 3662.226563 2594.84375 L 3688.59375 2598.710938 L 3712.5 2610.898438 L 3738.632813 2635.351563 L 3763.203125 2670.78125 L 3788.945313 2723.085938 L 3814.023438 2792.03125 L 3840.351563 2886.640625 L 3865.703125 3003.4375 L 3891.601563 3154.023438 L 3917.304688 3340.351563 L 3940.898438 3550.15625 L 3967.96875 3844.648438 L 3992.148438 4165.9375 L 4017.96875 4580.15625 L 4042.65625 5058.4375 L 4070.078125 5700.78125 " transform="matrix(0.1,0,0,-0.1,0,555)"/>
</g>
<path style="fill:none;stroke-width:13.875;stroke-linecap:butt;stroke-linejoin:round;stroke:rgb(0%,0%,0%);stroke-opacity:1;stroke-miterlimit:10;" d="M 277.5 2778.359375 L 5341.5625 2778.359375 " transform="matrix(0.1,0,0,-0.1,0,555)"/>
<path style=" stroke:none;fill-rule:nonzero;fill:rgb(0%,0%,0%);fill-opacity:1;" d="M 406.882813 322.246094 C 407.171875 322.550781 407.390625 322.859375 407.535156 323.179688 C 407.648438 323.378906 407.824219 323.929688 408.054688 324.824219 L 408.835938 323.675781 C 409.039063 323.386719 409.285156 323.117188 409.582031 322.863281 C 409.878906 322.613281 410.136719 322.433594 410.351563 322.332031 C 410.496094 322.273438 410.65625 322.246094 410.828125 322.246094 C 411.074219 322.246094 411.273438 322.316406 411.425781 322.453125 C 411.578125 322.589844 411.652344 322.753906 411.652344 322.941406 C 411.652344 323.171875 411.609375 323.328125 411.523438 323.414063 C 411.363281 323.5625 411.175781 323.632813 410.960938 323.632813 C 410.828125 323.632813 410.699219 323.605469 410.570313 323.546875 C 410.296875 323.460938 410.105469 323.414063 410.007813 323.414063 C 409.859375 323.414063 409.695313 323.496094 409.507813 323.65625 C 409.144531 323.960938 408.710938 324.550781 408.207031 325.433594 L 408.921875 328.445313 C 409.039063 328.910156 409.132813 329.1875 409.203125 329.28125 C 409.277344 329.375 409.355469 329.421875 409.441406 329.421875 C 409.558594 329.421875 409.703125 329.359375 409.875 329.226563 C 410.195313 328.953125 410.46875 328.597656 410.699219 328.164063 L 411.003906 328.316406 C 410.628906 329.011719 410.15625 329.589844 409.59375 330.050781 C 409.277344 330.3125 409.003906 330.441406 408.769531 330.441406 C 408.4375 330.441406 408.179688 330.253906 407.988281 329.878906 C 407.859375 329.644531 407.605469 328.664063 407.230469 326.929688 C 406.304688 328.519531 405.570313 329.539063 405.019531 329.984375 C 404.65625 330.289063 404.3125 330.441406 403.980469 330.441406 C 403.746094 330.441406 403.53125 330.355469 403.328125 330.179688 C 403.199219 330.050781 403.132813 329.878906 403.132813 329.660156 C 403.132813 329.472656 403.199219 329.3125 403.328125 329.183594 C 403.460938 329.054688 403.617188 328.988281 403.804688 328.988281 C 403.992188 328.988281 404.1875 329.082031 404.390625 329.269531 C 404.550781 329.402344 404.671875 329.464844 404.757813 329.464844 C 404.816406 329.464844 404.902344 329.421875 405.019531 329.335938 C 405.292969 329.105469 405.671875 328.621094 406.144531 327.882813 C 406.621094 327.144531 406.933594 326.609375 407.078125 326.277344 C 406.71875 324.847656 406.523438 324.097656 406.492188 324.023438 C 406.363281 323.632813 406.191406 323.359375 405.972656 323.199219 C 405.757813 323.039063 405.433594 322.960938 404.996094 322.960938 C 404.867188 322.960938 404.714844 322.96875 404.542969 322.984375 L 404.542969 322.65625 L 406.882813 322.246094 "/>
<path style="fill:none;stroke-width:1.2;stroke-linecap:butt;stroke-linejoin:round;stroke:rgb(0%,0%,0%);stroke-opacity:1;stroke-miterlimit:10;" d="M 277.5 2778.359375 L 277.5 2722.851563 " transform="matrix(0.1,0,0,-0.1,0,555)"/>
<g clip-path="url(#clip3)" clip-rule="nonzero">
<path style=" stroke:none;fill-rule:nonzero;fill:rgb(0%,0%,0%);fill-opacity:1;" d="M 25.601563 300.933594 L 11.859375 300.933594 L 11.859375 299.851563 L 25.601563 299.851563 L 25.601563 300.933594 "/>
</g>
<path style=" stroke:none;fill-rule:nonzero;fill:rgb(0%,0%,0%);fill-opacity:1;" d="M 31.890625 301.5625 L 31.890625 302.996094 L 30.027344 302.996094 L 30.027344 306.636719 L 28.355469 306.636719 L 28.355469 302.996094 L 22.523438 302.996094 L 22.523438 301.695313 L 28.921875 292.566406 L 30.027344 292.566406 L 30.027344 301.5625 Z M 28.355469 301.5625 L 28.355469 294.714844 L 23.523438 301.5625 Z M 28.355469 301.5625 "/>
<path style=" stroke:none;fill-rule:nonzero;fill:rgb(0%,0%,0%);fill-opacity:1;" d="M 47.109375 303.492188 C 47.109375 303.898438 47.050781 304.308594 46.9375 304.71875 C 46.820313 305.132813 46.660156 305.503906 46.460938 305.84375 C 46.257813 306.183594 45.996094 306.457031 45.679688 306.65625 C 45.359375 306.859375 45.007813 306.960938 44.617188 306.960938 C 44.226563 306.960938 43.871094 306.796875 43.554688 306.464844 C 43.234375 306.132813 42.976563 305.632813 42.773438 304.96875 C 42.746094 304.867188 42.71875 304.738281 42.699219 304.589844 C 42.675781 304.4375 42.65625 304.277344 42.644531 304.109375 C 42.628906 303.945313 42.617188 303.78125 42.609375 303.625 C 42.605469 303.464844 42.601563 303.335938 42.601563 303.230469 C 42.601563 302.4375 42.65625 301.625 42.773438 300.796875 C 42.890625 299.964844 42.984375 299.128906 43.054688 298.289063 L 40.691406 298.289063 C 40.5625 299.851563 40.425781 301.160156 40.28125 302.226563 C 40.136719 303.285156 39.992188 304.246094 39.847656 305.097656 C 39.804688 305.3125 39.761719 305.519531 39.71875 305.714844 C 39.671875 305.910156 39.617188 306.082031 39.542969 306.226563 C 39.398438 306.542969 39.214844 306.753906 38.992188 306.863281 C 38.765625 306.972656 38.5625 307.027344 38.371094 307.027344 C 38.054688 307.027344 37.789063 306.914063 37.582031 306.691406 C 37.371094 306.46875 37.265625 306.21875 37.265625 305.945313 C 37.265625 305.652344 37.34375 305.410156 37.496094 305.21875 C 37.648438 305.019531 37.816406 304.808594 38.003906 304.578125 C 38.191406 304.375 38.367188 304.15625 38.523438 303.925781 C 38.683594 303.695313 38.785156 303.40625 38.828125 303.058594 L 39.433594 298.289063 L 38.4375 298.289063 C 38.222656 298.289063 37.984375 298.34375 37.722656 298.453125 C 37.460938 298.5625 37.238281 298.746094 37.050781 299.007813 L 36.640625 299.613281 L 36.292969 299.613281 C 36.59375 298.628906 36.972656 297.863281 37.429688 297.316406 C 37.886719 296.765625 38.488281 296.492188 39.238281 296.492188 L 46.9375 296.492188 L 46.9375 298.289063 L 44.3125 298.289063 C 44.269531 298.695313 44.230469 299.117188 44.195313 299.558594 C 44.15625 300 44.132813 300.4375 44.117188 300.882813 C 44.101563 301.320313 44.09375 301.738281 44.085938 302.128906 C 44.078125 302.519531 44.074219 302.851563 44.074219 303.125 C 44.074219 303.355469 44.097656 303.589844 44.140625 303.816406 C 44.183594 304.050781 44.261719 304.253906 44.378906 304.4375 C 44.492188 304.617188 44.636719 304.765625 44.8125 304.882813 C 44.984375 304.996094 45.195313 305.054688 45.441406 305.054688 C 45.597656 305.054688 45.78125 305 45.980469 304.890625 C 46.183594 304.785156 46.351563 304.597656 46.480469 304.339844 C 46.539063 304.238281 46.578125 304.113281 46.601563 303.972656 C 46.621094 303.828125 46.640625 303.667969 46.65625 303.492188 L 47.109375 303.492188 "/>
<path style="fill:none;stroke-width:1.2;stroke-linecap:butt;stroke-linejoin:round;stroke:rgb(0%,0%,0%);stroke-opacity:1;stroke-miterlimit:10;" d="M 910.507813 2778.359375 L 910.507813 2722.851563 " transform="matrix(0.1,0,0,-0.1,0,555)"/>
<g clip-path="url(#clip4)" clip-rule="nonzero">
<path style=" stroke:none;fill-rule:nonzero;fill:rgb(0%,0%,0%);fill-opacity:1;" d="M 88.039063 300.933594 L 74.296875 300.933594 L 74.296875 299.851563 L 88.039063 299.851563 L 88.039063 300.933594 "/>
</g>
<path style=" stroke:none;fill-rule:nonzero;fill:rgb(0%,0%,0%);fill-opacity:1;" d="M 85.699219 295.472656 C 86.089844 294.546875 86.585938 293.832031 87.183594 293.324219 C 87.785156 292.820313 88.53125 292.566406 89.429688 292.566406 C 90.527344 292.566406 91.371094 292.929688 91.964844 293.648438 C 92.414063 294.1875 92.636719 294.757813 92.636719 295.363281 C 92.636719 296.375 92.007813 297.414063 90.75 298.484375 C 91.589844 298.816406 92.226563 299.289063 92.660156 299.90625 C 93.09375 300.519531 93.308594 301.246094 93.308594 302.085938 C 93.308594 303.269531 92.933594 304.296875 92.183594 305.160156 C 91.183594 306.304688 89.753906 306.875 87.890625 306.875 C 86.949219 306.875 86.3125 306.761719 85.980469 306.527344 C 85.648438 306.296875 85.484375 306.050781 85.484375 305.789063 C 85.484375 305.589844 85.5625 305.414063 85.722656 305.269531 C 85.878906 305.128906 86.070313 305.054688 86.285156 305.054688 C 86.457031 305.054688 86.632813 305.085938 86.804688 305.140625 C 86.921875 305.171875 87.183594 305.289063 87.597656 305.496094 C 88.007813 305.707031 88.285156 305.835938 88.429688 305.878906 C 88.691406 305.949219 88.960938 305.988281 89.234375 305.988281 C 89.925781 305.988281 90.53125 305.71875 91.042969 305.183594 C 91.554688 304.648438 91.8125 304.019531 91.8125 303.296875 C 91.8125 302.765625 91.699219 302.242188 91.464844 301.738281 C 91.277344 301.347656 91.082031 301.058594 90.882813 300.871094 C 90.59375 300.59375 90.191406 300.347656 89.679688 300.132813 C 89.164063 299.914063 88.648438 299.808594 88.128906 299.808594 L 87.800781 299.808594 L 87.800781 299.480469 C 88.335938 299.425781 88.871094 299.238281 89.40625 298.917969 C 89.941406 298.601563 90.332031 298.21875 90.578125 297.769531 C 90.824219 297.320313 90.945313 296.828125 90.945313 296.296875 C 90.945313 295.601563 90.730469 295.039063 90.296875 294.605469 C 89.863281 294.171875 89.320313 293.953125 88.667969 293.953125 C 87.613281 293.953125 86.734375 294.519531 86.023438 295.644531 L 85.699219 295.472656 "/>
<path style=" stroke:none;fill-rule:nonzero;fill:rgb(0%,0%,0%);fill-opacity:1;" d="M 109.546875 303.492188 C 109.546875 303.898438 109.488281 304.308594 109.375 304.71875 C 109.257813 305.132813 109.097656 305.503906 108.898438 305.84375 C 108.695313 306.183594 108.433594 306.457031 108.117188 306.65625 C 107.796875 306.859375 107.445313 306.960938 107.054688 306.960938 C 106.664063 306.960938 106.308594 306.796875 105.992188 306.464844 C 105.675781 306.132813 105.414063 305.632813 105.210938 304.96875 C 105.183594 304.867188 105.15625 304.738281 105.136719 304.589844 C 105.113281 304.4375 105.097656 304.277344 105.082031 304.109375 C 105.066406 303.945313 105.054688 303.78125 105.050781 303.625 C 105.042969 303.464844 105.039063 303.335938 105.039063 303.230469 C 105.039063 302.4375 105.097656 301.625 105.210938 300.796875 C 105.328125 299.964844 105.421875 299.128906 105.492188 298.289063 L 103.128906 298.289063 C 103 299.851563 102.863281 301.160156 102.71875 302.226563 C 102.574219 303.285156 102.429688 304.246094 102.285156 305.097656 C 102.242188 305.3125 102.199219 305.519531 102.15625 305.714844 C 102.109375 305.910156 102.054688 306.082031 101.980469 306.226563 C 101.835938 306.542969 101.652344 306.753906 101.429688 306.863281 C 101.203125 306.972656 100.996094 307.027344 100.8125 307.027344 C 100.492188 307.027344 100.230469 306.914063 100.019531 306.691406 C 99.808594 306.46875 99.703125 306.21875 99.703125 305.945313 C 99.703125 305.652344 99.78125 305.410156 99.933594 305.21875 C 100.085938 305.019531 100.253906 304.808594 100.441406 304.578125 C 100.628906 304.375 100.804688 304.15625 100.960938 303.925781 C 101.121094 303.695313 101.222656 303.40625 101.265625 303.058594 L 101.871094 298.289063 L 100.875 298.289063 C 100.660156 298.289063 100.421875 298.34375 100.160156 298.453125 C 99.898438 298.5625 99.675781 298.746094 99.488281 299.007813 L 99.078125 299.613281 L 98.730469 299.613281 C 99.03125 298.628906 99.410156 297.863281 99.867188 297.316406 C 100.324219 296.765625 100.925781 296.492188 101.679688 296.492188 L 109.375 296.492188 L 109.375 298.289063 L 106.75 298.289063 C 106.707031 298.695313 106.667969 299.117188 106.632813 299.558594 C 106.59375 300 106.570313 300.4375 106.554688 300.882813 C 106.539063 301.320313 106.53125 301.738281 106.523438 302.128906 C 106.515625 302.519531 106.511719 302.851563 106.511719 303.125 C 106.511719 303.355469 106.535156 303.589844 106.578125 303.816406 C 106.621094 304.050781 106.699219 304.253906 106.816406 304.4375 C 106.929688 304.617188 107.074219 304.765625 107.25 304.882813 C 107.421875 304.996094 107.632813 305.054688 107.878906 305.054688 C 108.035156 305.054688 108.21875 305 108.421875 304.890625 C 108.621094 304.785156 108.789063 304.597656 108.917969 304.339844 C 108.976563 304.238281 109.015625 304.113281 109.039063 303.972656 C 109.058594 303.828125 109.078125 303.667969 109.09375 303.492188 L 109.546875 303.492188 "/>
<path style="fill:none;stroke-width:1.2;stroke-linecap:butt;stroke-linejoin:round;stroke:rgb(0%,0%,0%);stroke-opacity:1;stroke-miterlimit:10;" d="M 1543.515625 2778.359375 L 1543.515625 2722.851563 " transform="matrix(0.1,0,0,-0.1,0,555)"/>
<g clip-path="url(#clip5)" clip-rule="nonzero">
<path style=" stroke:none;fill-rule:nonzero;fill:rgb(0%,0%,0%);fill-opacity:1;" d="M 151.867188 300.933594 L 138.121094 300.933594 L 138.121094 299.851563 L 151.867188 299.851563 L 151.867188 300.933594 "/>
</g>
<path style=" stroke:none;fill-rule:nonzero;fill:rgb(0%,0%,0%);fill-opacity:1;" d="M 158.003906 303.992188 L 157.046875 306.636719 L 148.917969 306.636719 L 148.917969 306.269531 C 151.300781 304.085938 152.980469 302.300781 153.957031 300.914063 C 154.933594 299.527344 155.421875 298.261719 155.421875 297.117188 C 155.421875 296.253906 155.152344 295.535156 154.617188 294.972656 C 154.085938 294.410156 153.441406 294.128906 152.6875 294.128906 C 152.023438 294.128906 151.421875 294.324219 150.878906 294.726563 C 150.335938 295.121094 149.9375 295.703125 149.675781 296.46875 L 149.308594 296.46875 C 149.480469 295.210938 149.917969 294.246094 150.617188 293.574219 C 151.320313 292.902344 152.191406 292.566406 153.230469 292.566406 C 154.359375 292.566406 155.296875 292.929688 156.039063 293.648438 C 156.78125 294.371094 157.15625 295.21875 157.15625 296.1875 C 157.15625 296.878906 156.996094 297.582031 156.679688 298.289063 C 156.171875 299.390625 155.355469 300.546875 154.230469 301.757813 C 152.550781 303.609375 151.496094 304.722656 151.0625 305.097656 L 154.660156 305.097656 C 155.398438 305.097656 155.914063 305.070313 156.210938 305.019531 C 156.507813 304.972656 156.777344 304.863281 157.015625 304.695313 C 157.253906 304.53125 157.460938 304.296875 157.632813 303.992188 L 158.003906 303.992188 "/>
<path style=" stroke:none;fill-rule:nonzero;fill:rgb(0%,0%,0%);fill-opacity:1;" d="M 173.371094 303.492188 C 173.371094 303.898438 173.3125 304.308594 173.199219 304.71875 C 173.082031 305.132813 172.925781 305.503906 172.722656 305.84375 C 172.519531 306.183594 172.257813 306.457031 171.941406 306.65625 C 171.621094 306.859375 171.269531 306.960938 170.878906 306.960938 C 170.488281 306.960938 170.132813 306.796875 169.816406 306.464844 C 169.496094 306.132813 169.238281 305.632813 169.035156 304.96875 C 169.007813 304.867188 168.980469 304.738281 168.960938 304.589844 C 168.9375 304.4375 168.921875 304.277344 168.90625 304.109375 C 168.890625 303.945313 168.882813 303.78125 168.871094 303.625 C 168.867188 303.464844 168.863281 303.335938 168.863281 303.230469 C 168.863281 302.4375 168.921875 301.625 169.035156 300.796875 C 169.152344 299.964844 169.246094 299.128906 169.316406 298.289063 L 166.953125 298.289063 C 166.824219 299.851563 166.6875 301.160156 166.542969 302.226563 C 166.398438 303.285156 166.253906 304.246094 166.109375 305.097656 C 166.066406 305.3125 166.023438 305.519531 165.980469 305.714844 C 165.933594 305.910156 165.878906 306.082031 165.804688 306.226563 C 165.660156 306.542969 165.476563 306.753906 165.253906 306.863281 C 165.027344 306.972656 164.824219 307.027344 164.636719 307.027344 C 164.316406 307.027344 164.054688 306.914063 163.84375 306.691406 C 163.632813 306.46875 163.527344 306.21875 163.527344 305.945313 C 163.527344 305.652344 163.605469 305.410156 163.757813 305.21875 C 163.90625 305.019531 164.078125 304.808594 164.265625 304.578125 C 164.453125 304.375 164.628906 304.15625 164.785156 303.925781 C 164.945313 303.695313 165.046875 303.40625 165.089844 303.058594 L 165.695313 298.289063 L 164.699219 298.289063 C 164.480469 298.289063 164.246094 298.34375 163.984375 298.453125 C 163.726563 298.5625 163.5 298.746094 163.3125 299.007813 L 162.902344 299.613281 L 162.554688 299.613281 C 162.859375 298.628906 163.238281 297.863281 163.691406 297.316406 C 164.148438 296.765625 164.75 296.492188 165.503906 296.492188 L 173.199219 296.492188 L 173.199219 298.289063 L 170.574219 298.289063 C 170.53125 298.695313 170.492188 299.117188 170.457031 299.558594 C 170.421875 300 170.394531 300.4375 170.378906 300.882813 C 170.367188 301.320313 170.355469 301.738281 170.347656 302.128906 C 170.339844 302.519531 170.335938 302.851563 170.335938 303.125 C 170.335938 303.355469 170.359375 303.589844 170.402344 303.816406 C 170.445313 304.050781 170.523438 304.253906 170.640625 304.4375 C 170.753906 304.617188 170.898438 304.765625 171.074219 304.882813 C 171.246094 304.996094 171.457031 305.054688 171.703125 305.054688 C 171.859375 305.054688 172.042969 305 172.242188 304.890625 C 172.445313 304.785156 172.613281 304.597656 172.742188 304.339844 C 172.800781 304.238281 172.839844 304.113281 172.863281 303.972656 C 172.882813 303.828125 172.902344 303.667969 172.917969 303.492188 L 173.371094 303.492188 "/>
<path style="fill:none;stroke-width:1.2;stroke-linecap:butt;stroke-linejoin:round;stroke:rgb(0%,0%,0%);stroke-opacity:1;stroke-miterlimit:10;" d="M 2176.523438 2778.359375 L 2176.523438 2722.851563 " transform="matrix(0.1,0,0,-0.1,0,555)"/>
<g clip-path="url(#clip6)" clip-rule="nonzero">
<path style=" stroke:none;fill-rule:nonzero;fill:rgb(0%,0%,0%);fill-opacity:1;" d="M 221.242188 300.933594 L 207.496094 300.933594 L 207.496094 299.851563 L 221.242188 299.851563 L 221.242188 300.933594 "/>
</g>
<path style=" stroke:none;fill-rule:nonzero;fill:rgb(0%,0%,0%);fill-opacity:1;" d="M 228.871094 303.492188 C 228.871094 303.898438 228.8125 304.308594 228.699219 304.71875 C 228.582031 305.132813 228.425781 305.503906 228.222656 305.84375 C 228.019531 306.183594 227.757813 306.457031 227.441406 306.65625 C 227.121094 306.859375 226.769531 306.960938 226.378906 306.960938 C 225.988281 306.960938 225.632813 306.796875 225.316406 306.464844 C 224.996094 306.132813 224.738281 305.632813 224.535156 304.96875 C 224.507813 304.867188 224.480469 304.738281 224.460938 304.589844 C 224.4375 304.4375 224.421875 304.277344 224.40625 304.109375 C 224.390625 303.945313 224.382813 303.78125 224.371094 303.625 C 224.367188 303.464844 224.363281 303.335938 224.363281 303.230469 C 224.363281 302.4375 224.421875 301.625 224.535156 300.796875 C 224.652344 299.964844 224.746094 299.128906 224.816406 298.289063 L 222.453125 298.289063 C 222.324219 299.851563 222.1875 301.160156 222.042969 302.226563 C 221.898438 303.285156 221.753906 304.246094 221.609375 305.097656 C 221.566406 305.3125 221.523438 305.519531 221.480469 305.714844 C 221.433594 305.910156 221.378906 306.082031 221.304688 306.226563 C 221.160156 306.542969 220.976563 306.753906 220.753906 306.863281 C 220.527344 306.972656 220.324219 307.027344 220.136719 307.027344 C 219.816406 307.027344 219.554688 306.914063 219.34375 306.691406 C 219.132813 306.46875 219.027344 306.21875 219.027344 305.945313 C 219.027344 305.652344 219.105469 305.410156 219.257813 305.21875 C 219.40625 305.019531 219.578125 304.808594 219.765625 304.578125 C 219.953125 304.375 220.128906 304.15625 220.285156 303.925781 C 220.445313 303.695313 220.546875 303.40625 220.589844 303.058594 L 221.195313 298.289063 L 220.199219 298.289063 C 219.980469 298.289063 219.746094 298.34375 219.484375 298.453125 C 219.226563 298.5625 219 298.746094 218.8125 299.007813 L 218.402344 299.613281 L 218.054688 299.613281 C 218.359375 298.628906 218.738281 297.863281 219.191406 297.316406 C 219.648438 296.765625 220.25 296.492188 221.003906 296.492188 L 228.699219 296.492188 L 228.699219 298.289063 L 226.074219 298.289063 C 226.03125 298.695313 225.992188 299.117188 225.957031 299.558594 C 225.921875 300 225.894531 300.4375 225.878906 300.882813 C 225.867188 301.320313 225.855469 301.738281 225.847656 302.128906 C 225.839844 302.519531 225.835938 302.851563 225.835938 303.125 C 225.835938 303.355469 225.859375 303.589844 225.902344 303.816406 C 225.945313 304.050781 226.023438 304.253906 226.140625 304.4375 C 226.253906 304.617188 226.398438 304.765625 226.574219 304.882813 C 226.746094 304.996094 226.957031 305.054688 227.203125 305.054688 C 227.359375 305.054688 227.542969 305 227.742188 304.890625 C 227.945313 304.785156 228.113281 304.597656 228.242188 304.339844 C 228.300781 304.238281 228.339844 304.113281 228.363281 303.972656 C 228.382813 303.828125 228.402344 303.667969 228.417969 303.492188 L 228.871094 303.492188 "/>
<path style="fill:none;stroke-width:1.2;stroke-linecap:butt;stroke-linejoin:round;stroke:rgb(0%,0%,0%);stroke-opacity:1;stroke-miterlimit:10;" d="M 2809.53125 2778.359375 L 2809.53125 2722.851563 " transform="matrix(0.1,0,0,-0.1,0,555)"/>
<path style=" stroke:none;fill-rule:nonzero;fill:rgb(0%,0%,0%);fill-opacity:1;" d="M 268.546875 294.277344 C 268.546875 292.703125 268.78125 291.347656 269.25 290.214844 C 269.71875 289.078125 270.351563 288.238281 271.144531 287.6875 C 271.753906 287.238281 272.382813 287.015625 273.035156 287.015625 C 274.089844 287.015625 275.035156 287.558594 275.875 288.644531 C 276.929688 289.972656 277.453125 291.777344 277.453125 294.0625 C 277.453125 295.664063 277.226563 297.023438 276.761719 298.140625 C 276.300781 299.253906 275.710938 300.0625 274.996094 300.566406 C 274.28125 301.070313 273.589844 301.324219 272.925781 301.324219 C 271.609375 301.324219 270.519531 300.550781 269.652344 299.007813 C 268.914063 297.691406 268.546875 296.113281 268.546875 294.277344 Z M 270.539063 294.539063 C 270.539063 296.433594 270.773438 297.980469 271.234375 299.179688 C 271.625 300.191406 272.203125 300.695313 272.96875 300.695313 C 273.328125 300.695313 273.703125 300.53125 274.09375 300.199219 C 274.484375 299.863281 274.78125 299.316406 274.984375 298.550781 C 275.300781 297.378906 275.460938 295.730469 275.460938 293.605469 C 275.460938 292.046875 275.296875 290.738281 274.960938 289.683594 C 274.730469 288.902344 274.421875 288.351563 274.03125 288.035156 C 273.757813 287.804688 273.417969 287.6875 273.011719 287.6875 C 272.5625 287.6875 272.160156 287.898438 271.796875 288.316406 C 271.304688 288.882813 270.972656 289.765625 270.800781 290.972656 C 270.625 292.179688 270.539063 293.367188 270.539063 294.539063 "/>
<path style="fill:none;stroke-width:1.2;stroke-linecap:butt;stroke-linejoin:round;stroke:rgb(0%,0%,0%);stroke-opacity:1;stroke-miterlimit:10;" d="M 3442.539063 2778.359375 L 3442.539063 2722.851563 " transform="matrix(0.1,0,0,-0.1,0,555)"/>
<path style=" stroke:none;fill-rule:nonzero;fill:rgb(0%,0%,0%);fill-opacity:1;" d="M 349.585938 303.492188 C 349.585938 303.898438 349.527344 304.308594 349.410156 304.71875 C 349.296875 305.132813 349.136719 305.503906 348.933594 305.84375 C 348.730469 306.183594 348.472656 306.457031 348.152344 306.65625 C 347.835938 306.859375 347.480469 306.960938 347.089844 306.960938 C 346.703125 306.960938 346.347656 306.796875 346.027344 306.464844 C 345.710938 306.132813 345.453125 305.632813 345.25 304.96875 C 345.21875 304.867188 345.195313 304.738281 345.171875 304.589844 C 345.148438 304.4375 345.132813 304.277344 345.117188 304.109375 C 345.105469 303.945313 345.09375 303.78125 345.085938 303.625 C 345.078125 303.464844 345.074219 303.335938 345.074219 303.230469 C 345.074219 302.4375 345.132813 301.625 345.25 300.796875 C 345.363281 299.964844 345.457031 299.128906 345.53125 298.289063 L 343.167969 298.289063 C 343.035156 299.851563 342.898438 301.160156 342.753906 302.226563 C 342.609375 303.285156 342.464844 304.246094 342.320313 305.097656 C 342.277344 305.3125 342.234375 305.519531 342.191406 305.714844 C 342.148438 305.910156 342.089844 306.082031 342.019531 306.226563 C 341.871094 306.542969 341.691406 306.753906 341.464844 306.863281 C 341.242188 306.972656 341.035156 307.027344 340.847656 307.027344 C 340.53125 307.027344 340.265625 306.914063 340.054688 306.691406 C 339.847656 306.46875 339.742188 306.21875 339.742188 305.945313 C 339.742188 305.652344 339.816406 305.410156 339.96875 305.21875 C 340.121094 305.019531 340.289063 304.808594 340.480469 304.578125 C 340.667969 304.375 340.839844 304.15625 341 303.925781 C 341.160156 303.695313 341.261719 303.40625 341.304688 303.058594 L 341.910156 298.289063 L 340.914063 298.289063 C 340.695313 298.289063 340.457031 298.34375 340.195313 298.453125 C 339.9375 298.5625 339.714844 298.746094 339.523438 299.007813 L 339.113281 299.613281 L 338.765625 299.613281 C 339.070313 298.628906 339.449219 297.863281 339.902344 297.316406 C 340.359375 296.765625 340.964844 296.492188 341.714844 296.492188 L 349.410156 296.492188 L 349.410156 298.289063 L 346.789063 298.289063 C 346.746094 298.695313 346.703125 299.117188 346.667969 299.558594 C 346.632813 300 346.605469 300.4375 346.59375 300.882813 C 346.578125 301.320313 346.566406 301.738281 346.558594 302.128906 C 346.554688 302.519531 346.550781 302.851563 346.550781 303.125 C 346.550781 303.355469 346.570313 303.589844 346.613281 303.816406 C 346.65625 304.050781 346.738281 304.253906 346.851563 304.4375 C 346.96875 304.617188 347.113281 304.765625 347.285156 304.882813 C 347.460938 304.996094 347.667969 305.054688 347.914063 305.054688 C 348.074219 305.054688 348.253906 305 348.457031 304.890625 C 348.660156 304.785156 348.824219 304.597656 348.957031 304.339844 C 349.011719 304.238281 349.054688 304.113281 349.074219 303.972656 C 349.097656 303.828125 349.113281 303.667969 349.128906 303.492188 L 349.585938 303.492188 "/>
<path style="fill:none;stroke-width:1.2;stroke-linecap:butt;stroke-linejoin:round;stroke:rgb(0%,0%,0%);stroke-opacity:1;stroke-miterlimit:10;" d="M 4075.546875 2778.359375 L 4075.546875 2722.851563 " transform="matrix(0.1,0,0,-0.1,0,555)"/>
<path style=" stroke:none;fill-rule:nonzero;fill:rgb(0%,0%,0%);fill-opacity:1;" d="M 403.589844 303.992188 L 402.632813 306.636719 L 394.503906 306.636719 L 394.503906 306.269531 C 396.890625 304.085938 398.570313 302.300781 399.546875 300.914063 C 400.519531 299.527344 401.007813 298.261719 401.007813 297.117188 C 401.007813 296.253906 400.742188 295.535156 400.207031 294.972656 C 399.671875 294.410156 399.027344 294.128906 398.277344 294.128906 C 397.613281 294.128906 397.007813 294.324219 396.46875 294.726563 C 395.925781 295.121094 395.523438 295.703125 395.265625 296.46875 L 394.894531 296.46875 C 395.066406 295.210938 395.503906 294.246094 396.207031 293.574219 C 396.90625 292.902344 397.777344 292.566406 398.820313 292.566406 C 399.945313 292.566406 400.882813 292.929688 401.625 293.648438 C 402.371094 294.371094 402.742188 295.21875 402.742188 296.1875 C 402.742188 296.878906 402.585938 297.582031 402.265625 298.289063 C 401.761719 299.390625 400.941406 300.546875 399.816406 301.757813 C 398.140625 303.609375 397.085938 304.722656 396.652344 305.097656 L 400.25 305.097656 C 400.988281 305.097656 401.503906 305.070313 401.800781 305.019531 C 402.097656 304.972656 402.363281 304.863281 402.601563 304.695313 C 402.839844 304.53125 403.046875 304.296875 403.21875 303.992188 L 403.589844 303.992188 "/>
<path style=" stroke:none;fill-rule:nonzero;fill:rgb(0%,0%,0%);fill-opacity:1;" d="M 418.960938 303.492188 C 418.960938 303.898438 418.902344 304.308594 418.785156 304.71875 C 418.671875 305.132813 418.511719 305.503906 418.308594 305.84375 C 418.105469 306.183594 417.847656 306.457031 417.527344 306.65625 C 417.210938 306.859375 416.855469 306.960938 416.464844 306.960938 C 416.078125 306.960938 415.722656 306.796875 415.402344 306.464844 C 415.085938 306.132813 414.828125 305.632813 414.625 304.96875 C 414.59375 304.867188 414.570313 304.738281 414.546875 304.589844 C 414.523438 304.4375 414.507813 304.277344 414.492188 304.109375 C 414.480469 303.945313 414.46875 303.78125 414.460938 303.625 C 414.453125 303.464844 414.449219 303.335938 414.449219 303.230469 C 414.449219 302.4375 414.507813 301.625 414.625 300.796875 C 414.738281 299.964844 414.832031 299.128906 414.90625 298.289063 L 412.542969 298.289063 C 412.410156 299.851563 412.273438 301.160156 412.128906 302.226563 C 411.984375 303.285156 411.839844 304.246094 411.695313 305.097656 C 411.652344 305.3125 411.609375 305.519531 411.566406 305.714844 C 411.523438 305.910156 411.464844 306.082031 411.394531 306.226563 C 411.246094 306.542969 411.066406 306.753906 410.839844 306.863281 C 410.617188 306.972656 410.410156 307.027344 410.222656 307.027344 C 409.90625 307.027344 409.640625 306.914063 409.429688 306.691406 C 409.222656 306.46875 409.117188 306.21875 409.117188 305.945313 C 409.117188 305.652344 409.191406 305.410156 409.34375 305.21875 C 409.496094 305.019531 409.664063 304.808594 409.855469 304.578125 C 410.042969 304.375 410.214844 304.15625 410.375 303.925781 C 410.535156 303.695313 410.636719 303.40625 410.679688 303.058594 L 411.285156 298.289063 L 410.289063 298.289063 C 410.070313 298.289063 409.832031 298.34375 409.570313 298.453125 C 409.3125 298.5625 409.089844 298.746094 408.898438 299.007813 L 408.488281 299.613281 L 408.140625 299.613281 C 408.445313 298.628906 408.824219 297.863281 409.277344 297.316406 C 409.734375 296.765625 410.339844 296.492188 411.089844 296.492188 L 418.785156 296.492188 L 418.785156 298.289063 L 416.164063 298.289063 C 416.121094 298.695313 416.078125 299.117188 416.042969 299.558594 C 416.007813 300 415.980469 300.4375 415.96875 300.882813 C 415.953125 301.320313 415.941406 301.738281 415.933594 302.128906 C 415.929688 302.519531 415.925781 302.851563 415.925781 303.125 C 415.925781 303.355469 415.945313 303.589844 415.988281 303.816406 C 416.03125 304.050781 416.113281 304.253906 416.226563 304.4375 C 416.34375 304.617188 416.488281 304.765625 416.660156 304.882813 C 416.835938 304.996094 417.042969 305.054688 417.289063 305.054688 C 417.449219 305.054688 417.628906 305 417.832031 304.890625 C 418.035156 304.785156 418.199219 304.597656 418.332031 304.339844 C 418.386719 304.238281 418.429688 304.113281 418.449219 303.972656 C 418.472656 303.828125 418.488281 303.667969 418.503906 303.492188 L 418.960938 303.492188 "/>
<path style="fill:none;stroke-width:1.2;stroke-linecap:butt;stroke-linejoin:round;stroke:rgb(0%,0%,0%);stroke-opacity:1;stroke-miterlimit:10;" d="M 4708.554688 2778.359375 L 4708.554688 2722.851563 " transform="matrix(0.1,0,0,-0.1,0,555)"/>
<path style=" stroke:none;fill-rule:nonzero;fill:rgb(0%,0%,0%);fill-opacity:1;" d="M 458.9375 295.472656 C 459.324219 294.546875 459.820313 293.832031 460.421875 293.324219 C 461.023438 292.820313 461.769531 292.566406 462.664063 292.566406 C 463.765625 292.566406 464.609375 292.929688 465.203125 293.648438 C 465.648438 294.1875 465.875 294.757813 465.875 295.363281 C 465.875 296.375 465.246094 297.414063 463.988281 298.484375 C 464.828125 298.816406 465.460938 299.289063 465.894531 299.90625 C 466.328125 300.519531 466.546875 301.246094 466.546875 302.085938 C 466.546875 303.269531 466.171875 304.296875 465.417969 305.160156 C 464.421875 306.304688 462.992188 306.875 461.125 306.875 C 460.1875 306.875 459.550781 306.761719 459.21875 306.527344 C 458.886719 306.296875 458.71875 306.050781 458.71875 305.789063 C 458.71875 305.589844 458.800781 305.414063 458.960938 305.269531 C 459.117188 305.128906 459.304688 305.054688 459.523438 305.054688 C 459.695313 305.054688 459.867188 305.085938 460.042969 305.140625 C 460.15625 305.171875 460.421875 305.289063 460.832031 305.496094 C 461.246094 305.707031 461.523438 305.835938 461.667969 305.878906 C 461.929688 305.949219 462.195313 305.988281 462.46875 305.988281 C 463.164063 305.988281 463.769531 305.71875 464.28125 305.183594 C 464.796875 304.648438 465.050781 304.019531 465.050781 303.296875 C 465.050781 302.765625 464.933594 302.242188 464.703125 301.738281 C 464.515625 301.347656 464.320313 301.058594 464.117188 300.871094 C 463.828125 300.59375 463.429688 300.347656 462.914063 300.132813 C 462.402344 299.914063 461.886719 299.808594 461.363281 299.808594 L 461.039063 299.808594 L 461.039063 299.480469 C 461.574219 299.425781 462.109375 299.238281 462.644531 298.917969 C 463.179688 298.601563 463.570313 298.21875 463.816406 297.769531 C 464.0625 297.320313 464.183594 296.828125 464.183594 296.296875 C 464.183594 295.601563 463.964844 295.039063 463.53125 294.605469 C 463.097656 294.171875 462.558594 293.953125 461.90625 293.953125 C 460.851563 293.953125 459.96875 294.519531 459.261719 295.644531 L 458.9375 295.472656 "/>
<path style=" stroke:none;fill-rule:nonzero;fill:rgb(0%,0%,0%);fill-opacity:1;" d="M 482.785156 303.492188 C 482.785156 303.898438 482.726563 304.308594 482.609375 304.71875 C 482.496094 305.132813 482.335938 305.503906 482.132813 305.84375 C 481.933594 306.183594 481.671875 306.457031 481.351563 306.65625 C 481.035156 306.859375 480.679688 306.960938 480.289063 306.960938 C 479.902344 306.960938 479.546875 306.796875 479.230469 306.464844 C 478.910156 306.132813 478.652344 305.632813 478.449219 304.96875 C 478.421875 304.867188 478.394531 304.738281 478.371094 304.589844 C 478.351563 304.4375 478.332031 304.277344 478.316406 304.109375 C 478.304688 303.945313 478.292969 303.78125 478.285156 303.625 C 478.277344 303.464844 478.273438 303.335938 478.273438 303.230469 C 478.273438 302.4375 478.332031 301.625 478.449219 300.796875 C 478.5625 299.964844 478.65625 299.128906 478.730469 298.289063 L 476.367188 298.289063 C 476.238281 299.851563 476.101563 301.160156 475.953125 302.226563 C 475.8125 303.285156 475.664063 304.246094 475.519531 305.097656 C 475.476563 305.3125 475.433594 305.519531 475.390625 305.714844 C 475.347656 305.910156 475.289063 306.082031 475.21875 306.226563 C 475.074219 306.542969 474.890625 306.753906 474.664063 306.863281 C 474.441406 306.972656 474.234375 307.027344 474.046875 307.027344 C 473.730469 307.027344 473.464844 306.914063 473.253906 306.691406 C 473.046875 306.46875 472.941406 306.21875 472.941406 305.945313 C 472.941406 305.652344 473.019531 305.410156 473.171875 305.21875 C 473.320313 305.019531 473.492188 304.808594 473.679688 304.578125 C 473.867188 304.375 474.039063 304.15625 474.199219 303.925781 C 474.359375 303.695313 474.460938 303.40625 474.503906 303.058594 L 475.109375 298.289063 L 474.113281 298.289063 C 473.894531 298.289063 473.65625 298.34375 473.398438 298.453125 C 473.136719 298.5625 472.914063 298.746094 472.726563 299.007813 L 472.3125 299.613281 L 471.964844 299.613281 C 472.269531 298.628906 472.648438 297.863281 473.105469 297.316406 C 473.558594 296.765625 474.164063 296.492188 474.914063 296.492188 L 482.609375 296.492188 L 482.609375 298.289063 L 479.988281 298.289063 C 479.945313 298.695313 479.902344 299.117188 479.867188 299.558594 C 479.832031 300 479.808594 300.4375 479.792969 300.882813 C 479.777344 301.320313 479.765625 301.738281 479.761719 302.128906 C 479.753906 302.519531 479.75 302.851563 479.75 303.125 C 479.75 303.355469 479.769531 303.589844 479.8125 303.816406 C 479.855469 304.050781 479.9375 304.253906 480.054688 304.4375 C 480.167969 304.617188 480.3125 304.765625 480.484375 304.882813 C 480.660156 304.996094 480.867188 305.054688 481.117188 305.054688 C 481.273438 305.054688 481.453125 305 481.65625 304.890625 C 481.859375 304.785156 482.027344 304.597656 482.15625 304.339844 C 482.214844 304.238281 482.253906 304.113281 482.273438 303.972656 C 482.296875 303.828125 482.3125 303.667969 482.328125 303.492188 L 482.785156 303.492188 "/>
<path style="fill:none;stroke-width:1.2;stroke-linecap:butt;stroke-linejoin:round;stroke:rgb(0%,0%,0%);stroke-opacity:1;stroke-miterlimit:10;" d="M 5341.5625 2778.359375 L 5341.5625 2722.851563 " transform="matrix(0.1,0,0,-0.1,0,555)"/>
<path style=" stroke:none;fill-rule:nonzero;fill:rgb(0%,0%,0%);fill-opacity:1;" d="M 530.003906 301.5625 L 530.003906 302.996094 L 528.136719 302.996094 L 528.136719 306.636719 L 526.46875 306.636719 L 526.46875 302.996094 L 520.636719 302.996094 L 520.636719 301.695313 L 527.03125 292.566406 L 528.136719 292.566406 L 528.136719 301.5625 Z M 526.46875 301.5625 L 526.46875 294.714844 L 521.636719 301.5625 Z M 526.46875 301.5625 "/>
<path style=" stroke:none;fill-rule:nonzero;fill:rgb(0%,0%,0%);fill-opacity:1;" d="M 545.222656 303.492188 C 545.222656 303.898438 545.164063 304.308594 545.050781 304.71875 C 544.933594 305.132813 544.773438 305.503906 544.570313 305.84375 C 544.367188 306.183594 544.109375 306.457031 543.789063 306.65625 C 543.472656 306.859375 543.117188 306.960938 542.730469 306.960938 C 542.339844 306.960938 541.984375 306.796875 541.664063 306.464844 C 541.347656 306.132813 541.089844 305.632813 540.886719 304.96875 C 540.855469 304.867188 540.832031 304.738281 540.808594 304.589844 C 540.789063 304.4375 540.769531 304.277344 540.757813 304.109375 C 540.742188 303.945313 540.730469 303.78125 540.722656 303.625 C 540.714844 303.464844 540.714844 303.335938 540.714844 303.230469 C 540.714844 302.4375 540.769531 301.625 540.886719 300.796875 C 541.003906 299.964844 541.097656 299.128906 541.167969 298.289063 L 538.804688 298.289063 C 538.675781 299.851563 538.539063 301.160156 538.394531 302.226563 C 538.25 303.285156 538.101563 304.246094 537.960938 305.097656 C 537.914063 305.3125 537.871094 305.519531 537.828125 305.714844 C 537.785156 305.910156 537.730469 306.082031 537.65625 306.226563 C 537.511719 306.542969 537.328125 306.753906 537.101563 306.863281 C 536.878906 306.972656 536.671875 307.027344 536.484375 307.027344 C 536.167969 307.027344 535.902344 306.914063 535.691406 306.691406 C 535.484375 306.46875 535.378906 306.21875 535.378906 305.945313 C 535.378906 305.652344 535.457031 305.410156 535.605469 305.21875 C 535.757813 305.019531 535.929688 304.808594 536.117188 304.578125 C 536.304688 304.375 536.476563 304.15625 536.636719 303.925781 C 536.796875 303.695313 536.898438 303.40625 536.941406 303.058594 L 537.546875 298.289063 L 536.550781 298.289063 C 536.332031 298.289063 536.09375 298.34375 535.835938 298.453125 C 535.574219 298.5625 535.351563 298.746094 535.164063 299.007813 L 534.75 299.613281 L 534.402344 299.613281 C 534.707031 298.628906 535.085938 297.863281 535.542969 297.316406 C 535.996094 296.765625 536.601563 296.492188 537.351563 296.492188 L 545.050781 296.492188 L 545.050781 298.289063 L 542.425781 298.289063 C 542.382813 298.695313 542.34375 299.117188 542.304688 299.558594 C 542.269531 300 542.246094 300.4375 542.230469 300.882813 C 542.214844 301.320313 542.203125 301.738281 542.199219 302.128906 C 542.191406 302.519531 542.1875 302.851563 542.1875 303.125 C 542.1875 303.355469 542.210938 303.589844 542.253906 303.816406 C 542.296875 304.050781 542.375 304.253906 542.488281 304.4375 C 542.605469 304.617188 542.75 304.765625 542.921875 304.882813 C 543.097656 304.996094 543.304688 305.054688 543.554688 305.054688 C 543.710938 305.054688 543.890625 305 544.09375 304.890625 C 544.296875 304.785156 544.464844 304.597656 544.59375 304.339844 C 544.652344 304.238281 544.691406 304.113281 544.710938 303.972656 C 544.734375 303.828125 544.753906 303.667969 544.765625 303.492188 L 545.222656 303.492188 "/>
<path style="fill:none;stroke-width:1.2;stroke-linecap:butt;stroke-linejoin:round;stroke:rgb(0%,0%,0%);stroke-opacity:1;stroke-miterlimit:10;" d="M 435.742188 2778.359375 L 435.742188 2750.585938 " transform="matrix(0.1,0,0,-0.1,0,555)"/>
<path style="fill:none;stroke-width:1.2;stroke-linecap:butt;stroke-linejoin:round;stroke:rgb(0%,0%,0%);stroke-opacity:1;stroke-miterlimit:10;" d="M 594.023438 2778.359375 L 594.023438 2750.585938 " transform="matrix(0.1,0,0,-0.1,0,555)"/>
<path style="fill:none;stroke-width:1.2;stroke-linecap:butt;stroke-linejoin:round;stroke:rgb(0%,0%,0%);stroke-opacity:1;stroke-miterlimit:10;" d="M 752.265625 2778.359375 L 752.265625 2750.585938 " transform="matrix(0.1,0,0,-0.1,0,555)"/>
<path style="fill:none;stroke-width:1.2;stroke-linecap:butt;stroke-linejoin:round;stroke:rgb(0%,0%,0%);stroke-opacity:1;stroke-miterlimit:10;" d="M 1068.75 2778.359375 L 1068.75 2750.585938 " transform="matrix(0.1,0,0,-0.1,0,555)"/>
<path style="fill:none;stroke-width:1.2;stroke-linecap:butt;stroke-linejoin:round;stroke:rgb(0%,0%,0%);stroke-opacity:1;stroke-miterlimit:10;" d="M 1226.992188 2778.359375 L 1226.992188 2750.585938 " transform="matrix(0.1,0,0,-0.1,0,555)"/>
<path style="fill:none;stroke-width:1.2;stroke-linecap:butt;stroke-linejoin:round;stroke:rgb(0%,0%,0%);stroke-opacity:1;stroke-miterlimit:10;" d="M 1385.273438 2778.359375 L 1385.273438 2750.585938 " transform="matrix(0.1,0,0,-0.1,0,555)"/>
<path style="fill:none;stroke-width:1.2;stroke-linecap:butt;stroke-linejoin:round;stroke:rgb(0%,0%,0%);stroke-opacity:1;stroke-miterlimit:10;" d="M 1701.757813 2778.359375 L 1701.757813 2750.585938 " transform="matrix(0.1,0,0,-0.1,0,555)"/>
<path style="fill:none;stroke-width:1.2;stroke-linecap:butt;stroke-linejoin:round;stroke:rgb(0%,0%,0%);stroke-opacity:1;stroke-miterlimit:10;" d="M 1860 2778.359375 L 1860 2750.585938 " transform="matrix(0.1,0,0,-0.1,0,555)"/>
<path style="fill:none;stroke-width:1.2;stroke-linecap:butt;stroke-linejoin:round;stroke:rgb(0%,0%,0%);stroke-opacity:1;stroke-miterlimit:10;" d="M 2018.28125 2778.359375 L 2018.28125 2750.585938 " transform="matrix(0.1,0,0,-0.1,0,555)"/>
<path style="fill:none;stroke-width:1.2;stroke-linecap:butt;stroke-linejoin:round;stroke:rgb(0%,0%,0%);stroke-opacity:1;stroke-miterlimit:10;" d="M 2334.765625 2778.359375 L 2334.765625 2750.585938 " transform="matrix(0.1,0,0,-0.1,0,555)"/>
<path style="fill:none;stroke-width:1.2;stroke-linecap:butt;stroke-linejoin:round;stroke:rgb(0%,0%,0%);stroke-opacity:1;stroke-miterlimit:10;" d="M 2493.046875 2778.359375 L 2493.046875 2750.585938 " transform="matrix(0.1,0,0,-0.1,0,555)"/>
<path style="fill:none;stroke-width:1.2;stroke-linecap:butt;stroke-linejoin:round;stroke:rgb(0%,0%,0%);stroke-opacity:1;stroke-miterlimit:10;" d="M 2651.289063 2778.359375 L 2651.289063 2750.585938 " transform="matrix(0.1,0,0,-0.1,0,555)"/>
<path style="fill:none;stroke-width:1.2;stroke-linecap:butt;stroke-linejoin:round;stroke:rgb(0%,0%,0%);stroke-opacity:1;stroke-miterlimit:10;" d="M 2967.773438 2778.359375 L 2967.773438 2750.585938 " transform="matrix(0.1,0,0,-0.1,0,555)"/>
<path style="fill:none;stroke-width:1.2;stroke-linecap:butt;stroke-linejoin:round;stroke:rgb(0%,0%,0%);stroke-opacity:1;stroke-miterlimit:10;" d="M 3126.054688 2778.359375 L 3126.054688 2750.585938 " transform="matrix(0.1,0,0,-0.1,0,555)"/>
<path style="fill:none;stroke-width:1.2;stroke-linecap:butt;stroke-linejoin:round;stroke:rgb(0%,0%,0%);stroke-opacity:1;stroke-miterlimit:10;" d="M 3284.296875 2778.359375 L 3284.296875 2750.585938 " transform="matrix(0.1,0,0,-0.1,0,555)"/>
<path style="fill:none;stroke-width:1.2;stroke-linecap:butt;stroke-linejoin:round;stroke:rgb(0%,0%,0%);stroke-opacity:1;stroke-miterlimit:10;" d="M 3600.78125 2778.359375 L 3600.78125 2750.585938 " transform="matrix(0.1,0,0,-0.1,0,555)"/>
<path style="fill:none;stroke-width:1.2;stroke-linecap:butt;stroke-linejoin:round;stroke:rgb(0%,0%,0%);stroke-opacity:1;stroke-miterlimit:10;" d="M 3759.023438 2778.359375 L 3759.023438 2750.585938 " transform="matrix(0.1,0,0,-0.1,0,555)"/>
<path style="fill:none;stroke-width:1.2;stroke-linecap:butt;stroke-linejoin:round;stroke:rgb(0%,0%,0%);stroke-opacity:1;stroke-miterlimit:10;" d="M 3917.304688 2778.359375 L 3917.304688 2750.585938 " transform="matrix(0.1,0,0,-0.1,0,555)"/>
<path style="fill:none;stroke-width:1.2;stroke-linecap:butt;stroke-linejoin:round;stroke:rgb(0%,0%,0%);stroke-opacity:1;stroke-miterlimit:10;" d="M 4233.789063 2778.359375 L 4233.789063 2750.585938 " transform="matrix(0.1,0,0,-0.1,0,555)"/>
<path style="fill:none;stroke-width:1.2;stroke-linecap:butt;stroke-linejoin:round;stroke:rgb(0%,0%,0%);stroke-opacity:1;stroke-miterlimit:10;" d="M 4392.070313 2778.359375 L 4392.070313 2750.585938 " transform="matrix(0.1,0,0,-0.1,0,555)"/>
<path style="fill:none;stroke-width:1.2;stroke-linecap:butt;stroke-linejoin:round;stroke:rgb(0%,0%,0%);stroke-opacity:1;stroke-miterlimit:10;" d="M 4550.3125 2778.359375 L 4550.3125 2750.585938 " transform="matrix(0.1,0,0,-0.1,0,555)"/>
<path style="fill:none;stroke-width:1.2;stroke-linecap:butt;stroke-linejoin:round;stroke:rgb(0%,0%,0%);stroke-opacity:1;stroke-miterlimit:10;" d="M 4866.796875 2778.359375 L 4866.796875 2750.585938 " transform="matrix(0.1,0,0,-0.1,0,555)"/>
<path style="fill:none;stroke-width:1.2;stroke-linecap:butt;stroke-linejoin:round;stroke:rgb(0%,0%,0%);stroke-opacity:1;stroke-miterlimit:10;" d="M 5025.078125 2778.359375 L 5025.078125 2750.585938 " transform="matrix(0.1,0,0,-0.1,0,555)"/>
<path style="fill:none;stroke-width:1.2;stroke-linecap:butt;stroke-linejoin:round;stroke:rgb(0%,0%,0%);stroke-opacity:1;stroke-miterlimit:10;" d="M 5183.320313 2778.359375 L 5183.320313 2750.585938 " transform="matrix(0.1,0,0,-0.1,0,555)"/>
<path style="fill:none;stroke-width:13.875;stroke-linecap:butt;stroke-linejoin:round;stroke:rgb(0%,0%,0%);stroke-opacity:1;stroke-miterlimit:10;" d="M 2809.53125 201.171875 L 2809.53125 5355.507813 " transform="matrix(0.1,0,0,-0.1,0,555)"/>
<path style=" stroke:none;fill-rule:nonzero;fill:rgb(0%,0%,0%);fill-opacity:1;" d="M 220.722656 146.035156 C 220.921875 146.382813 221.058594 146.703125 221.132813 147 C 221.203125 147.292969 221.285156 147.878906 221.371094 148.742188 L 221.738281 153.078125 C 222.101563 152.660156 222.613281 151.988281 223.277344 151.0625 C 223.597656 150.617188 223.992188 150.007813 224.472656 149.242188 C 224.761719 148.78125 224.941406 148.453125 225.011719 148.265625 C 225.039063 148.164063 225.058594 148.0625 225.058594 147.964844 C 225.058594 147.90625 225.035156 147.855469 224.992188 147.8125 C 224.949219 147.769531 224.839844 147.71875 224.664063 147.660156 C 224.492188 147.601563 224.351563 147.5 224.242188 147.355469 C 224.136719 147.210938 224.082031 147.039063 224.082031 146.835938 C 224.082031 146.605469 224.148438 146.414063 224.285156 146.261719 C 224.425781 146.109375 224.601563 146.035156 224.816406 146.035156 C 225.078125 146.035156 225.296875 146.144531 225.480469 146.359375 C 225.660156 146.574219 225.75 146.871094 225.75 147.246094 C 225.75 147.710938 225.589844 148.242188 225.273438 148.839844 C 224.953125 149.441406 224.34375 150.355469 223.441406 151.585938 C 222.539063 152.8125 221.445313 154.15625 220.15625 155.617188 C 219.273438 156.613281 218.617188 157.246094 218.183594 157.511719 C 217.75 157.78125 217.382813 157.914063 217.078125 157.914063 C 216.890625 157.914063 216.726563 157.84375 216.589844 157.699219 C 216.453125 157.554688 216.386719 157.394531 216.386719 157.21875 C 216.386719 156.988281 216.480469 156.777344 216.679688 156.59375 C 216.871094 156.40625 217.078125 156.308594 217.296875 156.308594 C 217.410156 156.308594 217.511719 156.339844 217.597656 156.394531 C 217.640625 156.425781 217.691406 156.507813 217.75 156.644531 C 217.808594 156.78125 217.859375 156.871094 217.902344 156.914063 C 217.929688 156.945313 217.964844 156.960938 218.011719 156.960938 C 218.039063 156.960938 218.097656 156.933594 218.183594 156.871094 C 218.515625 156.671875 218.890625 156.351563 219.3125 155.921875 C 219.875 155.34375 220.292969 154.871094 220.566406 154.511719 L 220.070313 148.9375 C 219.996094 148.015625 219.878906 147.449219 219.710938 147.246094 C 219.546875 147.046875 219.269531 146.945313 218.878906 146.945313 C 218.746094 146.945313 218.523438 146.964844 218.203125 147.011719 L 218.140625 146.683594 L 220.722656 146.035156 "/>
<path style="fill:none;stroke-width:1.2;stroke-linecap:butt;stroke-linejoin:round;stroke:rgb(0%,0%,0%);stroke-opacity:1;stroke-miterlimit:10;" d="M 2809.53125 201.171875 L 2754.023438 201.171875 " transform="matrix(0.1,0,0,-0.1,0,555)"/>
<g clip-path="url(#clip7)" clip-rule="nonzero">
<path style=" stroke:none;fill-rule:nonzero;fill:rgb(0%,0%,0%);fill-opacity:1;" d="M 253.152344 536.808594 L 239.40625 536.808594 L 239.40625 535.726563 L 253.152344 535.726563 L 253.152344 536.808594 "/>
</g>
<path style=" stroke:none;fill-rule:nonzero;fill:rgb(0%,0%,0%);fill-opacity:1;" d="M 252.199219 530.089844 L 255.535156 528.441406 L 255.882813 528.441406 L 255.882813 540.085938 C 255.882813 540.851563 255.917969 541.332031 255.984375 541.527344 C 256.046875 541.71875 256.179688 541.867188 256.382813 541.96875 C 256.585938 542.070313 256.996094 542.128906 257.617188 542.144531 L 257.617188 542.511719 L 252.4375 542.511719 L 252.4375 542.144531 C 253.089844 542.128906 253.507813 542.070313 253.695313 541.96875 C 253.882813 541.867188 254.011719 541.734375 254.085938 541.570313 C 254.15625 541.402344 254.195313 540.90625 254.195313 540.085938 L 254.195313 532.648438 C 254.195313 531.636719 254.164063 530.992188 254.105469 530.71875 C 254.050781 530.5 253.957031 530.34375 253.835938 530.242188 C 253.714844 530.140625 253.566406 530.089844 253.390625 530.089844 C 253.132813 530.089844 252.785156 530.191406 252.351563 530.394531 Z M 260.914063 535.703125 C 260.914063 534.128906 261.148438 532.773438 261.617188 531.640625 C 262.089844 530.503906 262.722656 529.664063 263.515625 529.113281 C 264.121094 528.664063 264.753906 528.441406 265.402344 528.441406 C 266.457031 528.441406 267.40625 528.984375 268.242188 530.066406 C 269.296875 531.398438 269.824219 533.203125 269.824219 535.488281 C 269.824219 537.089844 269.59375 538.449219 269.128906 539.5625 C 268.667969 540.675781 268.078125 541.484375 267.363281 541.992188 C 266.648438 542.496094 265.960938 542.75 265.292969 542.75 C 263.980469 542.75 262.886719 541.976563 262.019531 540.429688 C 261.28125 539.117188 260.914063 537.539063 260.914063 535.703125 Z M 262.910156 535.964844 C 262.910156 537.855469 263.140625 539.40625 263.601563 540.605469 C 263.992188 541.617188 264.570313 542.121094 265.335938 542.121094 C 265.699219 542.121094 266.074219 541.957031 266.464844 541.621094 C 266.855469 541.289063 267.152344 540.742188 267.351563 539.972656 C 267.671875 538.804688 267.828125 537.15625 267.828125 535.03125 C 267.828125 533.472656 267.664063 532.164063 267.332031 531.109375 C 267.101563 530.328125 266.789063 529.777344 266.398438 529.460938 C 266.125 529.230469 265.785156 529.113281 265.378906 529.113281 C 264.933594 529.113281 264.527344 529.324219 264.164063 529.742188 C 263.675781 530.304688 263.34375 531.191406 263.167969 532.398438 C 262.996094 533.605469 262.910156 534.792969 262.910156 535.964844 "/>
<path style="fill:none;stroke-width:1.2;stroke-linecap:butt;stroke-linejoin:round;stroke:rgb(0%,0%,0%);stroke-opacity:1;stroke-miterlimit:10;" d="M 2809.53125 1489.765625 L 2754.023438 1489.765625 " transform="matrix(0.1,0,0,-0.1,0,555)"/>
<g clip-path="url(#clip8)" clip-rule="nonzero">
<path style=" stroke:none;fill-rule:nonzero;fill:rgb(0%,0%,0%);fill-opacity:1;" d="M 264.253906 407.773438 L 250.507813 407.773438 L 250.507813 406.6875 L 264.253906 406.6875 L 264.253906 407.773438 "/>
</g>
<path style=" stroke:none;fill-rule:nonzero;fill:rgb(0%,0%,0%);fill-opacity:1;" d="M 269.890625 399.6875 L 269.089844 401.421875 L 264.945313 401.421875 L 264.035156 403.261719 C 265.828125 403.539063 267.253906 404.210938 268.308594 405.277344 C 269.203125 406.191406 269.652344 407.273438 269.652344 408.53125 C 269.652344 409.253906 269.507813 409.921875 269.21875 410.535156 C 268.929688 411.152344 268.5625 411.675781 268.113281 412.109375 C 267.664063 412.542969 267.164063 412.890625 266.617188 413.148438 C 265.835938 413.523438 265.03125 413.710938 264.210938 413.710938 C 263.386719 413.710938 262.785156 413.570313 262.410156 413.289063 C 262.035156 413.007813 261.847656 412.699219 261.847656 412.367188 C 261.847656 412.179688 261.925781 412.015625 262.085938 411.871094 C 262.246094 411.726563 262.4375 411.652344 262.671875 411.652344 C 262.84375 411.652344 262.996094 411.679688 263.125 411.730469 C 263.257813 411.777344 263.480469 411.921875 263.796875 412.152344 C 264.320313 412.496094 264.839844 412.671875 265.359375 412.671875 C 266.152344 412.671875 266.847656 412.371094 267.441406 411.773438 C 268.03125 411.171875 268.328125 410.4375 268.328125 409.570313 C 268.328125 408.746094 268.0625 407.976563 267.527344 407.253906 C 266.992188 406.527344 266.253906 405.972656 265.316406 405.582031 C 264.578125 405.277344 263.574219 405.097656 262.300781 405.039063 L 264.945313 399.6875 L 269.890625 399.6875 "/>
<path style="fill:none;stroke-width:1.2;stroke-linecap:butt;stroke-linejoin:round;stroke:rgb(0%,0%,0%);stroke-opacity:1;stroke-miterlimit:10;" d="M 2809.53125 2778.359375 L 2754.023438 2778.359375 " transform="matrix(0.1,0,0,-0.1,0,555)"/>
<path style="fill:none;stroke-width:1.2;stroke-linecap:butt;stroke-linejoin:round;stroke:rgb(0%,0%,0%);stroke-opacity:1;stroke-miterlimit:10;" d="M 2809.53125 4066.914063 L 2754.023438 4066.914063 " transform="matrix(0.1,0,0,-0.1,0,555)"/>
<path style=" stroke:none;fill-rule:nonzero;fill:rgb(0%,0%,0%);fill-opacity:1;" d="M 269.890625 141.609375 L 269.089844 143.34375 L 264.945313 143.34375 L 264.035156 145.1875 C 265.828125 145.464844 267.253906 146.132813 268.308594 147.203125 C 269.203125 148.117188 269.652344 149.199219 269.652344 150.457031 C 269.652344 151.179688 269.507813 151.847656 269.21875 152.460938 C 268.929688 153.074219 268.5625 153.601563 268.113281 154.03125 C 267.664063 154.46875 267.164063 154.8125 266.617188 155.074219 C 265.835938 155.449219 265.03125 155.636719 264.210938 155.636719 C 263.386719 155.636719 262.785156 155.496094 262.410156 155.214844 C 262.035156 154.933594 261.847656 154.625 261.847656 154.292969 C 261.847656 154.105469 261.925781 153.9375 262.085938 153.796875 C 262.246094 153.648438 262.4375 153.578125 262.671875 153.578125 C 262.84375 153.578125 262.996094 153.601563 263.125 153.65625 C 263.257813 153.703125 263.480469 153.847656 263.796875 154.074219 C 264.320313 154.421875 264.839844 154.597656 265.359375 154.597656 C 266.152344 154.597656 266.847656 154.296875 267.441406 153.699219 C 268.03125 153.097656 268.328125 152.363281 268.328125 151.496094 C 268.328125 150.671875 268.0625 149.898438 267.527344 149.175781 C 266.992188 148.453125 266.253906 147.898438 265.316406 147.507813 C 264.578125 147.203125 263.574219 147.023438 262.300781 146.964844 L 264.945313 141.609375 L 269.890625 141.609375 "/>
<path style="fill:none;stroke-width:1.2;stroke-linecap:butt;stroke-linejoin:round;stroke:rgb(0%,0%,0%);stroke-opacity:1;stroke-miterlimit:10;" d="M 2809.53125 5355.507813 L 2754.023438 5355.507813 " transform="matrix(0.1,0,0,-0.1,0,555)"/>
<path style=" stroke:none;fill-rule:nonzero;fill:rgb(0%,0%,0%);fill-opacity:1;" d="M 252.199219 15.328125 L 255.535156 13.679688 L 255.882813 13.679688 L 255.882813 25.320313 C 255.882813 26.089844 255.917969 26.566406 255.984375 26.761719 C 256.046875 26.960938 256.179688 27.105469 256.382813 27.207031 C 256.585938 27.308594 256.996094 27.367188 257.617188 27.382813 L 257.617188 27.75 L 252.4375 27.75 L 252.4375 27.382813 C 253.089844 27.367188 253.507813 27.308594 253.695313 27.207031 C 253.882813 27.105469 254.011719 26.972656 254.085938 26.808594 C 254.15625 26.640625 254.195313 26.144531 254.195313 25.320313 L 254.195313 17.886719 C 254.195313 16.875 254.164063 16.230469 254.105469 15.957031 C 254.050781 15.738281 253.957031 15.578125 253.835938 15.480469 C 253.714844 15.378906 253.566406 15.328125 253.390625 15.328125 C 253.132813 15.328125 252.785156 15.429688 252.351563 15.632813 Z M 260.914063 20.941406 C 260.914063 19.367188 261.148438 18.011719 261.617188 16.878906 C 262.089844 15.742188 262.722656 14.902344 263.515625 14.351563 C 264.121094 13.902344 264.753906 13.679688 265.402344 13.679688 C 266.457031 13.679688 267.40625 14.222656 268.242188 15.304688 C 269.296875 16.636719 269.824219 18.441406 269.824219 20.726563 C 269.824219 22.328125 269.59375 23.6875 269.128906 24.800781 C 268.667969 25.914063 268.078125 26.722656 267.363281 27.230469 C 266.648438 27.734375 265.960938 27.988281 265.292969 27.988281 C 263.980469 27.988281 262.886719 27.214844 262.019531 25.667969 C 261.28125 24.355469 260.914063 22.777344 260.914063 20.941406 Z M 262.910156 21.203125 C 262.910156 23.097656 263.140625 24.644531 263.601563 25.84375 C 263.992188 26.855469 264.570313 27.359375 265.335938 27.359375 C 265.699219 27.359375 266.074219 27.191406 266.464844 26.859375 C 266.855469 26.527344 267.152344 25.980469 267.351563 25.214844 C 267.671875 24.042969 267.828125 22.394531 267.828125 20.269531 C 267.828125 18.710938 267.664063 17.402344 267.332031 16.347656 C 267.101563 15.566406 266.789063 15.015625 266.398438 14.699219 C 266.125 14.46875 265.785156 14.351563 265.378906 14.351563 C 264.933594 14.351563 264.527344 14.5625 264.164063 14.980469 C 263.675781 15.542969 263.34375 16.429688 263.167969 17.636719 C 262.996094 18.84375 262.910156 20.03125 262.910156 21.203125 "/>
<path style="fill:none;stroke-width:1.2;stroke-linecap:butt;stroke-linejoin:round;stroke:rgb(0%,0%,0%);stroke-opacity:1;stroke-miterlimit:10;" d="M 2809.53125 458.90625 L 2781.796875 458.90625 " transform="matrix(0.1,0,0,-0.1,0,555)"/>
<path style="fill:none;stroke-width:1.2;stroke-linecap:butt;stroke-linejoin:round;stroke:rgb(0%,0%,0%);stroke-opacity:1;stroke-miterlimit:10;" d="M 2809.53125 716.640625 L 2781.796875 716.640625 " transform="matrix(0.1,0,0,-0.1,0,555)"/>
<path style="fill:none;stroke-width:1.2;stroke-linecap:butt;stroke-linejoin:round;stroke:rgb(0%,0%,0%);stroke-opacity:1;stroke-miterlimit:10;" d="M 2809.53125 974.335938 L 2781.796875 974.335938 " transform="matrix(0.1,0,0,-0.1,0,555)"/>
<path style="fill:none;stroke-width:1.2;stroke-linecap:butt;stroke-linejoin:round;stroke:rgb(0%,0%,0%);stroke-opacity:1;stroke-miterlimit:10;" d="M 2809.53125 1232.070313 L 2781.796875 1232.070313 " transform="matrix(0.1,0,0,-0.1,0,555)"/>
<path style="fill:none;stroke-width:1.2;stroke-linecap:butt;stroke-linejoin:round;stroke:rgb(0%,0%,0%);stroke-opacity:1;stroke-miterlimit:10;" d="M 2809.53125 1747.5 L 2781.796875 1747.5 " transform="matrix(0.1,0,0,-0.1,0,555)"/>
<path style="fill:none;stroke-width:1.2;stroke-linecap:butt;stroke-linejoin:round;stroke:rgb(0%,0%,0%);stroke-opacity:1;stroke-miterlimit:10;" d="M 2809.53125 2005.195313 L 2781.796875 2005.195313 " transform="matrix(0.1,0,0,-0.1,0,555)"/>
<path style="fill:none;stroke-width:1.2;stroke-linecap:butt;stroke-linejoin:round;stroke:rgb(0%,0%,0%);stroke-opacity:1;stroke-miterlimit:10;" d="M 2809.53125 2262.890625 L 2781.796875 2262.890625 " transform="matrix(0.1,0,0,-0.1,0,555)"/>
<path style="fill:none;stroke-width:1.2;stroke-linecap:butt;stroke-linejoin:round;stroke:rgb(0%,0%,0%);stroke-opacity:1;stroke-miterlimit:10;" d="M 2809.53125 2520.625 L 2781.796875 2520.625 " transform="matrix(0.1,0,0,-0.1,0,555)"/>
<path style="fill:none;stroke-width:1.2;stroke-linecap:butt;stroke-linejoin:round;stroke:rgb(0%,0%,0%);stroke-opacity:1;stroke-miterlimit:10;" d="M 2809.53125 3036.054688 L 2781.796875 3036.054688 " transform="matrix(0.1,0,0,-0.1,0,555)"/>
<path style="fill:none;stroke-width:1.2;stroke-linecap:butt;stroke-linejoin:round;stroke:rgb(0%,0%,0%);stroke-opacity:1;stroke-miterlimit:10;" d="M 2809.53125 3293.789063 L 2781.796875 3293.789063 " transform="matrix(0.1,0,0,-0.1,0,555)"/>
<path style="fill:none;stroke-width:1.2;stroke-linecap:butt;stroke-linejoin:round;stroke:rgb(0%,0%,0%);stroke-opacity:1;stroke-miterlimit:10;" d="M 2809.53125 3551.484375 L 2781.796875 3551.484375 " transform="matrix(0.1,0,0,-0.1,0,555)"/>
<path style="fill:none;stroke-width:1.2;stroke-linecap:butt;stroke-linejoin:round;stroke:rgb(0%,0%,0%);stroke-opacity:1;stroke-miterlimit:10;" d="M 2809.53125 3809.21875 L 2781.796875 3809.21875 " transform="matrix(0.1,0,0,-0.1,0,555)"/>
<path style="fill:none;stroke-width:1.2;stroke-linecap:butt;stroke-linejoin:round;stroke:rgb(0%,0%,0%);stroke-opacity:1;stroke-miterlimit:10;" d="M 2809.53125 4324.648438 L 2781.796875 4324.648438 " transform="matrix(0.1,0,0,-0.1,0,555)"/>
<path style="fill:none;stroke-width:1.2;stroke-linecap:butt;stroke-linejoin:round;stroke:rgb(0%,0%,0%);stroke-opacity:1;stroke-miterlimit:10;" d="M 2809.53125 4582.34375 L 2781.796875 4582.34375 " transform="matrix(0.1,0,0,-0.1,0,555)"/>
<path style="fill:none;stroke-width:1.2;stroke-linecap:butt;stroke-linejoin:round;stroke:rgb(0%,0%,0%);stroke-opacity:1;stroke-miterlimit:10;" d="M 2809.53125 4840.078125 L 2781.796875 4840.078125 " transform="matrix(0.1,0,0,-0.1,0,555)"/>
<path style="fill:none;stroke-width:1.2;stroke-linecap:butt;stroke-linejoin:round;stroke:rgb(0%,0%,0%);stroke-opacity:1;stroke-miterlimit:10;" d="M 2809.53125 5097.773438 L 2781.796875 5097.773438 " transform="matrix(0.1,0,0,-0.1,0,555)"/>
</g>
</svg>
