<?xml version="1.0" encoding="UTF-8"?>
<svg xmlns="http://www.w3.org/2000/svg" xmlns:xlink="http://www.w3.org/1999/xlink" width="555pt" height="555pt" viewBox="0 0 555 555" version="1.1">
<defs>
<clipPath id="clip1">
  <path d="M 35 535 L 43.011719 535 L 43.011719 537 L 35 537 Z M 35 535 "/>
</clipPath>
<clipPath id="clip2">
  <path d="M 35 471 L 43.011719 471 L 43.011719 473 L 35 473 Z M 35 471 "/>
</clipPath>
<clipPath id="clip3">
  <path d="M 35 406 L 43.011719 406 L 43.011719 408 L 35 408 Z M 35 406 "/>
</clipPath>
<clipPath id="clip4">
  <path d="M 35 342 L 43.011719 342 L 43.011719 344 L 35 344 Z M 35 342 "/>
</clipPath>
</defs>
<g id="surface1">
<rect x="0" y="0" width="555" height="555" style="fill:rgb(100%,100%,100%);fill-opacity:1;stroke:none;"/>
<path style="fill:none;stroke-width:20.8125;stroke-linecap:butt;stroke-linejoin:round;stroke:rgb(47.068787%,0%,5.488586%);stroke-opacity:1;stroke-miterlimit:10;" d="M 652.109375 2778.359375 L 677.1875 2863.4375 L 698.984375 2937.148438 L 723.515625 3019.453125 L 748.203125 3101.25 L 772.734375 3181.289063 L 795.507813 3254.023438 L 819.101563 3327.539063 L 843.476563 3401.289063 L 867.8125 3472.265625 L 892.8125 3542.304688 L 914.84375 3601.25 L 939.648438 3664.257813 L 964.53125 3723.710938 L 988.515625 3777.1875 L 1010.3125 3822.304688 L 1036.210938 3871.40625 L 1058.164063 3909.0625 L 1083.671875 3948.046875 L 1106.289063 3978.164063 L 1131.09375 4006.328125 L 1154.6875 4028.242188 L 1179.335938 4045.9375 L 1201.953125 4057.5 L 1214.140625 4061.835938 L 1226.367188 4064.84375 L 1239.023438 4066.5625 L 1251.679688 4066.875 L 1262.734375 4065.9375 L 1273.75 4063.90625 L 1285.664063 4060.546875 L 1297.578125 4055.859375 L 1322.1875 4042.265625 L 1346.289063 4023.789063 L 1369.609375 4001.132813 L 1395.46875 3970.585938 L 1418.710938 3938.398438 L 1443.515625 3899.21875 L 1466.015625 3859.570313 L 1490.625 3811.875 L 1513.75 3763.046875 L 1537.929688 3708.085938 L 1561.5625 3650.664063 L 1586.328125 3586.953125 L 1610.195313 3522.34375 L 1634.570313 3453.203125 L 1658.710938 3381.875 L 1680.976563 3314.21875 L 1706.40625 3234.375 L 1729.21875 3161.210938 L 1753.476563 3081.71875 L 1776.71875 3004.453125 L 1802.539063 2917.65625 L 1824.882813 2841.953125 L 1850.234375 2755.820313 L 1873.359375 2677.382813 L 1898.671875 2591.992188 L 1920.46875 2519.023438 L 1945.3125 2436.914063 L 1969.335938 2359.023438 L 1993.320313 2282.851563 L 2017.1875 2208.945313 L 2040.15625 2140.039063 L 2065 2068.203125 L 2088.632813 2002.578125 L 2113.554688 1936.757813 L 2136.054688 1880.273438 L 2160.976563 1821.5625 L 2184.84375 1769.21875 L 2208.632813 1720.9375 L 2233.515625 1674.960938 L 2256.40625 1636.835938 L 2279.84375 1602.070313 L 2305.703125 1568.945313 L 2329.179688 1543.789063 L 2353.125 1522.929688 L 2377.539063 1506.875 L 2399.921875 1496.71875 L 2411.875 1493.164063 L 2423.828125 1490.859375 L 2435.664063 1489.84375 L 2447.539063 1490.078125 L 2460.195313 1491.71875 L 2472.851563 1494.804688 L 2495.234375 1503.75 L 2521.054688 1519.570313 L 2544.375 1538.867188 L 2567.421875 1562.539063 L 2592.226563 1593.007813 L 2617.109375 1628.710938 L 2639.765625 1665.507813 L 2663.789063 1708.90625 L 2687.265625 1755.390625 L 2712.695313 1810.195313 L 2734.726563 1861.171875 L 2760.039063 1923.515625 L 2783.789063 1985.585938 L 2807.304688 2050.117188 L 2830.898438 2117.5 L 2854.882813 2188.867188 L 2880.351563 2267.070313 L 2903.710938 2340.820313 L 2926.757813 2415.234375 L 2951.40625 2496.289063 L 2975.976563 2578.359375 L 2998.085938 2652.695313 L 3024.21875 2741.328125 L 3046.09375 2815.625 L 3071.679688 2902.382813 L 3096.09375 2984.648438 L 3117.890625 3057.382813 L 3142.421875 3138.085938 L 3167.109375 3217.773438 L 3191.640625 3295.273438 L 3214.414063 3365.15625 L 3238.007813 3435.3125 L 3262.382813 3505.195313 L 3286.71875 3571.875 L 3311.71875 3636.992188 L 3333.710938 3691.328125 L 3358.515625 3748.789063 L 3383.4375 3802.304688 L 3407.421875 3849.726563 L 3429.21875 3889.0625 L 3455.117188 3931.054688 L 3477.070313 3962.421875 L 3502.578125 3993.945313 L 3525.195313 4017.226563 L 3550 4037.734375 L 3573.59375 4052.265625 L 3598.242188 4062.148438 L 3609.53125 4064.882813 L 3620.859375 4066.484375 L 3633.046875 4066.914063 L 3645.234375 4066.015625 L 3657.929688 4063.632813 L 3670.625 4059.84375 L 3692.65625 4049.84375 L 3716.484375 4034.21875 L 3741.09375 4012.851563 L 3765.195313 3986.914063 L 3788.515625 3957.226563 L 3814.375 3918.984375 L 3837.617188 3880.117188 L 3862.421875 3834.0625 L 3884.921875 3788.4375 L 3909.53125 3734.453125 L 3932.65625 3680 L 3956.835938 3619.53125 L 3980.507813 3557.070313 L 4005.234375 3488.4375 L 4029.0625 3419.492188 L 4053.476563 3346.367188 L 4077.65625 3271.523438 L 4099.882813 3200.976563 L 4125.3125 3118.359375 L 4148.125 3043.125 L 4172.382813 2961.875 L 4195.625 2883.4375 L 4221.445313 2795.859375 L 4243.789063 2719.960938 L 4269.140625 2634.0625 L 4292.265625 2556.328125 L 4317.578125 2472.265625 L 4339.375 2400.78125 L 4364.21875 2320.9375 L 4388.242188 2245.664063 L 4412.226563 2172.578125 L 4436.132813 2102.148438 L 4459.0625 2037.03125 L 4483.90625 1969.6875 L 4507.578125 1908.710938 L 4532.460938 1848.203125 L 4554.960938 1796.914063 L 4579.882813 1744.21875 L 4603.75 1697.929688 L 4627.539063 1656.054688 L 4652.382813 1616.992188 L 4675.3125 1585.390625 L 4698.75 1557.578125 L 4724.648438 1532.304688 L 4748.085938 1514.414063 L 4772.03125 1501.09375 L 4784.257813 1496.289063 L 4796.445313 1492.773438 L 4807.617188 1490.742188 L 4818.828125 1489.84375 L 4830.78125 1490.078125 L 4842.734375 1491.640625 L 4854.570313 1494.414063 L 4866.445313 1498.476563 L 4891.796875 1511.328125 L 4914.140625 1527.34375 L 4939.960938 1551.289063 L 4963.28125 1577.734375 L 4986.328125 1608.359375 L 5011.132813 1646.132813 L 5036.015625 1688.90625 L 5058.671875 1731.914063 L 5082.695313 1781.679688 L 5106.171875 1834.101563 L 5131.640625 1895 L 5153.632813 1950.898438 L 5178.90625 2018.554688 L 5202.695313 2085.234375 L 5226.210938 2153.945313 L 5249.804688 2225.078125 L 5273.789063 2299.882813 L 5299.296875 2381.25 L 5322.617188 2457.421875 L 5345.664063 2533.828125 L 5370.3125 2616.484375 L 5394.921875 2699.648438 L 5418.085938 2778.359375 " transform="matrix(0.1,0,0,-0.1,0,555)"/>
<path style="fill:none;stroke-width:13.875;stroke-linecap:butt;stroke-linejoin:round;stroke:rgb(0%,0%,0%);stroke-opacity:1;stroke-miterlimit:10;" d="M 652.109375 2778.359375 L 5418.085938 2778.359375 " transform="matrix(0.1,0,0,-0.1,0,555)"/>
<path style=" stroke:none;fill-rule:nonzero;fill:rgb(0%,0%,0%);fill-opacity:1;" d="M 302.820313 318.085938 C 303.109375 318.386719 303.328125 318.699219 303.472656 319.015625 C 303.589844 319.21875 303.761719 319.769531 303.992188 320.664063 L 304.773438 319.515625 C 304.976563 319.226563 305.222656 318.953125 305.519531 318.703125 C 305.816406 318.449219 306.074219 318.269531 306.289063 318.171875 C 306.433594 318.113281 306.59375 318.085938 306.765625 318.085938 C 307.011719 318.085938 307.210938 318.152344 307.363281 318.289063 C 307.515625 318.425781 307.589844 318.589844 307.589844 318.777344 C 307.589844 319.007813 307.546875 319.167969 307.460938 319.253906 C 307.300781 319.398438 307.113281 319.472656 306.898438 319.472656 C 306.765625 319.472656 306.636719 319.441406 306.507813 319.382813 C 306.230469 319.296875 306.042969 319.253906 305.945313 319.253906 C 305.796875 319.253906 305.632813 319.335938 305.445313 319.492188 C 305.085938 319.796875 304.648438 320.390625 304.144531 321.269531 L 304.859375 324.285156 C 304.976563 324.746094 305.066406 325.023438 305.140625 325.117188 C 305.214844 325.214844 305.292969 325.257813 305.378906 325.257813 C 305.496094 325.257813 305.640625 325.195313 305.8125 325.066406 C 306.132813 324.789063 306.40625 324.4375 306.636719 324.003906 L 306.941406 324.15625 C 306.5625 324.847656 306.09375 325.425781 305.53125 325.890625 C 305.214844 326.148438 304.9375 326.277344 304.707031 326.277344 C 304.375 326.277344 304.113281 326.089844 303.925781 325.714844 C 303.796875 325.484375 303.542969 324.503906 303.167969 322.765625 C 302.242188 324.355469 301.507813 325.375 300.957031 325.824219 C 300.59375 326.125 300.246094 326.277344 299.914063 326.277344 C 299.683594 326.277344 299.46875 326.191406 299.265625 326.019531 C 299.136719 325.890625 299.070313 325.714844 299.070313 325.496094 C 299.070313 325.3125 299.136719 325.152344 299.265625 325.023438 C 299.394531 324.890625 299.554688 324.824219 299.742188 324.824219 C 299.929688 324.824219 300.125 324.921875 300.328125 325.109375 C 300.488281 325.238281 300.609375 325.304688 300.695313 325.304688 C 300.753906 325.304688 300.839844 325.257813 300.957031 325.171875 C 301.230469 324.941406 301.609375 324.457031 302.085938 323.71875 C 302.5625 322.984375 302.871094 322.449219 303.015625 322.117188 C 302.65625 320.6875 302.460938 319.933594 302.429688 319.863281 C 302.300781 319.472656 302.128906 319.195313 301.910156 319.035156 C 301.695313 318.878906 301.367188 318.800781 300.933594 318.800781 C 300.804688 318.800781 300.652344 318.804688 300.480469 318.820313 L 300.480469 318.496094 L 302.820313 318.085938 "/>
<path style="fill:none;stroke-width:13.875;stroke-linecap:square;stroke-linejoin:miter;stroke:rgb(0%,0%,0%);stroke-opacity:1;stroke-miterlimit:10;" d="M 652.109375 2778.359375 L 652.109375 2722.851563 " transform="matrix(0.1,0,0,-0.1,0,555)"/>
<path style="fill:none;stroke-width:13.875;stroke-linecap:square;stroke-linejoin:miter;stroke:rgb(0%,0%,0%);stroke-opacity:1;stroke-miterlimit:10;" d="M 1843.59375 2778.359375 L 1843.59375 2722.851563 " transform="matrix(0.1,0,0,-0.1,0,555)"/>
<path style=" stroke:none;fill-rule:nonzero;fill:rgb(0%,0%,0%);fill-opacity:1;" d="M 181.4375 291.4375 L 184.773438 289.792969 L 185.121094 289.792969 L 185.121094 301.433594 C 185.121094 302.199219 185.15625 302.679688 185.21875 302.875 C 185.285156 303.070313 185.417969 303.21875 185.621094 303.320313 C 185.824219 303.421875 186.234375 303.480469 186.855469 303.492188 L 186.855469 303.863281 L 181.675781 303.863281 L 181.675781 303.492188 C 182.324219 303.480469 182.746094 303.421875 182.933594 303.320313 C 183.121094 303.21875 183.25 303.085938 183.324219 302.917969 C 183.394531 302.753906 183.433594 302.257813 183.433594 301.433594 L 183.433594 293.996094 C 183.433594 292.984375 183.402344 292.34375 183.34375 292.070313 C 183.289063 291.851563 183.195313 291.691406 183.074219 291.589844 C 182.949219 291.488281 182.804688 291.4375 182.628906 291.4375 C 182.367188 291.4375 182.023438 291.539063 181.589844 291.742188 L 181.4375 291.4375 "/>
<path style="fill:none;stroke-width:13.875;stroke-linecap:square;stroke-linejoin:miter;stroke:rgb(0%,0%,0%);stroke-opacity:1;stroke-miterlimit:10;" d="M 3035.117188 2778.359375 L 3035.117188 2722.851563 " transform="matrix(0.1,0,0,-0.1,0,555)"/>
<path style=" stroke:none;fill-rule:nonzero;fill:rgb(0%,0%,0%);fill-opacity:1;" d="M 307.851563 301.214844 L 306.898438 303.863281 L 298.769531 303.863281 L 298.769531 303.492188 C 301.152344 301.3125 302.832031 299.527344 303.808594 298.140625 C 304.785156 296.753906 305.269531 295.484375 305.269531 294.34375 C 305.269531 293.476563 305.003906 292.761719 304.46875 292.199219 C 303.933594 291.632813 303.289063 291.351563 302.539063 291.351563 C 301.875 291.351563 301.269531 291.550781 300.730469 291.949219 C 300.1875 292.347656 299.785156 292.929688 299.527344 293.691406 L 299.15625 293.691406 C 299.332031 292.4375 299.769531 291.472656 300.46875 290.800781 C 301.171875 290.128906 302.039063 289.792969 303.082031 289.792969 C 304.210938 289.792969 305.144531 290.152344 305.886719 290.875 C 306.632813 291.597656 307.003906 292.441406 307.003906 293.410156 C 307.003906 294.105469 306.847656 294.808594 306.527344 295.515625 C 306.023438 296.613281 305.203125 297.769531 304.078125 298.984375 C 302.402344 300.835938 301.347656 301.945313 300.914063 302.320313 L 304.511719 302.320313 C 305.25 302.320313 305.765625 302.296875 306.0625 302.246094 C 306.359375 302.195313 306.628906 302.089844 306.863281 301.921875 C 307.101563 301.753906 307.308594 301.519531 307.480469 301.214844 L 307.851563 301.214844 "/>
<path style="fill:none;stroke-width:13.875;stroke-linecap:square;stroke-linejoin:miter;stroke:rgb(0%,0%,0%);stroke-opacity:1;stroke-miterlimit:10;" d="M 4226.601563 2778.359375 L 4226.601563 2722.851563 " transform="matrix(0.1,0,0,-0.1,0,555)"/>
<path style=" stroke:none;fill-rule:nonzero;fill:rgb(0%,0%,0%);fill-opacity:1;" d="M 418.699219 292.695313 C 419.089844 291.773438 419.585938 291.054688 420.183594 290.550781 C 420.785156 290.046875 421.53125 289.792969 422.429688 289.792969 C 423.527344 289.792969 424.371094 290.152344 424.964844 290.875 C 425.414063 291.410156 425.636719 291.980469 425.636719 292.589844 C 425.636719 293.601563 425.007813 294.640625 423.75 295.710938 C 424.589844 296.042969 425.222656 296.515625 425.660156 297.128906 C 426.089844 297.746094 426.308594 298.472656 426.308594 299.308594 C 426.308594 300.492188 425.933594 301.519531 425.179688 302.386719 C 424.183594 303.527344 422.753906 304.101563 420.886719 304.101563 C 419.949219 304.101563 419.3125 303.984375 418.980469 303.753906 C 418.648438 303.523438 418.480469 303.277344 418.480469 303.015625 C 418.480469 302.8125 418.5625 302.640625 418.722656 302.496094 C 418.878906 302.351563 419.066406 302.277344 419.285156 302.277344 C 419.457031 302.277344 419.632813 302.308594 419.804688 302.363281 C 419.921875 302.394531 420.183594 302.515625 420.597656 302.722656 C 421.007813 302.933594 421.285156 303.058594 421.429688 303.105469 C 421.691406 303.175781 421.957031 303.210938 422.234375 303.210938 C 422.925781 303.210938 423.53125 302.945313 424.042969 302.410156 C 424.558594 301.875 424.8125 301.246094 424.8125 300.523438 C 424.8125 299.988281 424.695313 299.46875 424.464844 298.960938 C 424.277344 298.570313 424.082031 298.28125 423.882813 298.09375 C 423.589844 297.820313 423.191406 297.574219 422.675781 297.359375 C 422.164063 297.140625 421.648438 297.03125 421.128906 297.03125 L 420.800781 297.03125 L 420.800781 296.707031 C 421.335938 296.648438 421.871094 296.460938 422.40625 296.144531 C 422.941406 295.824219 423.332031 295.441406 423.578125 294.996094 C 423.824219 294.546875 423.945313 294.054688 423.945313 293.519531 C 423.945313 292.824219 423.730469 292.261719 423.296875 291.828125 C 422.859375 291.394531 422.320313 291.179688 421.671875 291.179688 C 420.613281 291.179688 419.734375 291.742188 419.023438 292.871094 L 418.699219 292.695313 "/>
<path style="fill:none;stroke-width:13.875;stroke-linecap:square;stroke-linejoin:miter;stroke:rgb(0%,0%,0%);stroke-opacity:1;stroke-miterlimit:10;" d="M 5418.085938 2778.359375 L 5418.085938 2722.851563 " transform="matrix(0.1,0,0,-0.1,0,555)"/>
<path style=" stroke:none;fill-rule:nonzero;fill:rgb(0%,0%,0%);fill-opacity:1;" d="M 546.652344 298.789063 L 546.652344 300.21875 L 544.789063 300.21875 L 544.789063 303.863281 L 543.117188 303.863281 L 543.117188 300.21875 L 537.285156 300.21875 L 537.285156 298.917969 L 543.683594 289.792969 L 544.789063 289.792969 L 544.789063 298.789063 Z M 543.117188 298.789063 L 543.117188 291.9375 L 538.285156 298.789063 Z M 543.117188 298.789063 "/>
<path style="fill:none;stroke-width:13.875;stroke-linecap:square;stroke-linejoin:miter;stroke:rgb(0%,0%,0%);stroke-opacity:1;stroke-miterlimit:10;" d="M 1247.851563 2778.359375 L 1247.851563 2750.585938 " transform="matrix(0.1,0,0,-0.1,0,555)"/>
<path style="fill:none;stroke-width:13.875;stroke-linecap:square;stroke-linejoin:miter;stroke:rgb(0%,0%,0%);stroke-opacity:1;stroke-miterlimit:10;" d="M 2439.375 2778.359375 L 2439.375 2750.585938 " transform="matrix(0.1,0,0,-0.1,0,555)"/>
<path style="fill:none;stroke-width:13.875;stroke-linecap:square;stroke-linejoin:miter;stroke:rgb(0%,0%,0%);stroke-opacity:1;stroke-miterlimit:10;" d="M 3630.859375 2778.359375 L 3630.859375 2750.585938 " transform="matrix(0.1,0,0,-0.1,0,555)"/>
<path style="fill:none;stroke-width:13.875;stroke-linecap:square;stroke-linejoin:miter;stroke:rgb(0%,0%,0%);stroke-opacity:1;stroke-miterlimit:10;" d="M 4822.34375 2778.359375 L 4822.34375 2750.585938 " transform="matrix(0.1,0,0,-0.1,0,555)"/>
<path style="fill:none;stroke-width:13.875;stroke-linecap:butt;stroke-linejoin:round;stroke:rgb(0%,0%,0%);stroke-opacity:1;stroke-miterlimit:10;" d="M 652.109375 201.171875 L 652.109375 5355.507813 " transform="matrix(0.1,0,0,-0.1,0,555)"/>
<path style=" stroke:none;fill-rule:nonzero;fill:rgb(0%,0%,0%);fill-opacity:1;" d="M 16.757813 146.035156 C 16.960938 146.382813 17.097656 146.703125 17.171875 147 C 17.242188 147.292969 17.320313 147.878906 17.410156 148.742188 L 17.777344 153.078125 C 18.140625 152.660156 18.652344 151.988281 19.316406 151.0625 C 19.632813 150.617188 20.03125 150.007813 20.507813 149.242188 C 20.796875 148.78125 20.976563 148.453125 21.050781 148.265625 C 21.078125 148.164063 21.09375 148.0625 21.09375 147.964844 C 21.09375 147.90625 21.074219 147.855469 21.03125 147.8125 C 20.984375 147.769531 20.878906 147.71875 20.703125 147.660156 C 20.53125 147.601563 20.390625 147.5 20.28125 147.355469 C 20.171875 147.210938 20.117188 147.039063 20.117188 146.835938 C 20.117188 146.605469 20.1875 146.414063 20.324219 146.261719 C 20.460938 146.109375 20.640625 146.035156 20.855469 146.035156 C 21.117188 146.035156 21.335938 146.144531 21.515625 146.359375 C 21.699219 146.574219 21.789063 146.871094 21.789063 147.246094 C 21.789063 147.710938 21.628906 148.242188 21.3125 148.839844 C 20.992188 149.441406 20.382813 150.355469 19.480469 151.585938 C 18.574219 152.8125 17.480469 154.15625 16.195313 155.617188 C 15.3125 156.613281 14.65625 157.246094 14.222656 157.511719 C 13.789063 157.78125 13.417969 157.914063 13.117188 157.914063 C 12.929688 157.914063 12.765625 157.84375 12.628906 157.699219 C 12.492188 157.554688 12.421875 157.394531 12.421875 157.21875 C 12.421875 156.988281 12.519531 156.777344 12.714844 156.59375 C 12.910156 156.40625 13.117188 156.308594 13.332031 156.308594 C 13.449219 156.308594 13.550781 156.339844 13.636719 156.394531 C 13.679688 156.425781 13.730469 156.507813 13.789063 156.644531 C 13.847656 156.78125 13.898438 156.871094 13.941406 156.914063 C 13.96875 156.945313 14.003906 156.960938 14.046875 156.960938 C 14.078125 156.960938 14.136719 156.933594 14.222656 156.871094 C 14.554688 156.671875 14.929688 156.351563 15.347656 155.921875 C 15.914063 155.34375 16.332031 154.871094 16.605469 154.511719 L 16.109375 148.9375 C 16.035156 148.015625 15.917969 147.449219 15.75 147.246094 C 15.585938 147.046875 15.304688 146.945313 14.914063 146.945313 C 14.785156 146.945313 14.5625 146.964844 14.242188 147.011719 L 14.179688 146.683594 L 16.757813 146.035156 "/>
<path style="fill:none;stroke-width:13.875;stroke-linecap:square;stroke-linejoin:miter;stroke:rgb(0%,0%,0%);stroke-opacity:1;stroke-miterlimit:10;" d="M 652.109375 201.171875 L 596.640625 201.171875 " transform="matrix(0.1,0,0,-0.1,0,555)"/>
<g clip-path="url(#clip1)" clip-rule="nonzero">
<path style=" stroke:none;fill-rule:nonzero;fill:rgb(0%,0%,0%);fill-opacity:1;" d="M 49.191406 536.808594 L 35.445313 536.808594 L 35.445313 535.726563 L 49.191406 535.726563 L 49.191406 536.808594 "/>
</g>
<path style=" stroke:none;fill-rule:nonzero;fill:rgb(0%,0%,0%);fill-opacity:1;" d="M 55.476563 537.4375 L 55.476563 538.871094 L 53.613281 538.871094 L 53.613281 542.511719 L 51.945313 542.511719 L 51.945313 538.871094 L 46.113281 538.871094 L 46.113281 537.570313 L 52.507813 528.441406 L 53.613281 528.441406 L 53.613281 537.4375 Z M 51.945313 537.4375 L 51.945313 530.589844 L 47.109375 537.4375 Z M 51.945313 537.4375 "/>
<path style="fill:none;stroke-width:13.875;stroke-linecap:square;stroke-linejoin:miter;stroke:rgb(0%,0%,0%);stroke-opacity:1;stroke-miterlimit:10;" d="M 652.109375 845.46875 L 596.640625 845.46875 " transform="matrix(0.1,0,0,-0.1,0,555)"/>
<g clip-path="url(#clip2)" clip-rule="nonzero">
<path style=" stroke:none;fill-rule:nonzero;fill:rgb(0%,0%,0%);fill-opacity:1;" d="M 49.191406 472.984375 L 35.445313 472.984375 L 35.445313 471.902344 L 49.191406 471.902344 L 49.191406 472.984375 "/>
</g>
<path style=" stroke:none;fill-rule:nonzero;fill:rgb(0%,0%,0%);fill-opacity:1;" d="M 46.847656 467.523438 C 47.238281 466.597656 47.734375 465.882813 48.335938 465.375 C 48.933594 464.871094 49.683594 464.617188 50.578125 464.617188 C 51.675781 464.617188 52.523438 464.976563 53.113281 465.699219 C 53.5625 466.234375 53.785156 466.804688 53.785156 467.414063 C 53.785156 468.425781 53.160156 469.464844 51.902344 470.535156 C 52.738281 470.867188 53.375 471.339844 53.808594 471.957031 C 54.242188 472.570313 54.460938 473.296875 54.460938 474.132813 C 54.460938 475.320313 54.082031 476.34375 53.332031 477.210938 C 52.335938 478.355469 50.902344 478.925781 49.039063 478.925781 C 48.101563 478.925781 47.464844 478.808594 47.132813 478.578125 C 46.800781 478.347656 46.632813 478.101563 46.632813 477.839844 C 46.632813 477.640625 46.710938 477.464844 46.871094 477.320313 C 47.03125 477.175781 47.21875 477.105469 47.433594 477.105469 C 47.609375 477.105469 47.78125 477.132813 47.957031 477.191406 C 48.070313 477.21875 48.335938 477.339844 48.746094 477.546875 C 49.160156 477.757813 49.4375 477.882813 49.582031 477.929688 C 49.839844 478 50.109375 478.035156 50.382813 478.035156 C 51.078125 478.035156 51.679688 477.769531 52.195313 477.234375 C 52.707031 476.699219 52.964844 476.070313 52.964844 475.347656 C 52.964844 474.8125 52.847656 474.292969 52.617188 473.785156 C 52.429688 473.398438 52.234375 473.109375 52.03125 472.917969 C 51.742188 472.644531 51.339844 472.398438 50.828125 472.183594 C 50.316406 471.964844 49.796875 471.859375 49.277344 471.859375 L 48.953125 471.859375 L 48.953125 471.53125 C 49.488281 471.476563 50.023438 471.285156 50.558594 470.96875 C 51.09375 470.652344 51.480469 470.269531 51.726563 469.820313 C 51.972656 469.371094 52.097656 468.878906 52.097656 468.34375 C 52.097656 467.652344 51.878906 467.089844 51.445313 466.65625 C 51.011719 466.21875 50.46875 466.003906 49.820313 466.003906 C 48.765625 466.003906 47.882813 466.566406 47.175781 467.695313 L 46.847656 467.523438 "/>
<path style="fill:none;stroke-width:13.875;stroke-linecap:square;stroke-linejoin:miter;stroke:rgb(0%,0%,0%);stroke-opacity:1;stroke-miterlimit:10;" d="M 652.109375 1489.765625 L 596.640625 1489.765625 " transform="matrix(0.1,0,0,-0.1,0,555)"/>
<g clip-path="url(#clip3)" clip-rule="nonzero">
<path style=" stroke:none;fill-rule:nonzero;fill:rgb(0%,0%,0%);fill-opacity:1;" d="M 49.191406 407.773438 L 35.445313 407.773438 L 35.445313 406.6875 L 49.191406 406.6875 L 49.191406 407.773438 "/>
</g>
<path style=" stroke:none;fill-rule:nonzero;fill:rgb(0%,0%,0%);fill-opacity:1;" d="M 55.328125 410.828125 L 54.371094 413.476563 L 46.242188 413.476563 L 46.242188 413.105469 C 48.628906 410.921875 50.308594 409.140625 51.28125 407.753906 C 52.257813 406.363281 52.746094 405.097656 52.746094 403.957031 C 52.746094 403.089844 52.480469 402.375 51.945313 401.808594 C 51.410156 401.246094 50.765625 400.964844 50.015625 400.964844 C 49.351563 400.964844 48.746094 401.164063 48.203125 401.5625 C 47.664063 401.960938 47.261719 402.539063 47 403.304688 L 46.632813 403.304688 C 46.804688 402.050781 47.242188 401.085938 47.945313 400.410156 C 48.644531 399.738281 49.515625 399.402344 50.558594 399.402344 C 51.683594 399.402344 52.621094 399.765625 53.363281 400.488281 C 54.109375 401.210938 54.480469 402.054688 54.480469 403.023438 C 54.480469 403.71875 54.320313 404.421875 54.003906 405.128906 C 53.496094 406.226563 52.679688 407.382813 51.554688 408.597656 C 49.878906 410.445313 48.824219 411.558594 48.390625 411.933594 L 51.988281 411.933594 C 52.726563 411.933594 53.242188 411.910156 53.539063 411.859375 C 53.835938 411.808594 54.101563 411.699219 54.339844 411.535156 C 54.578125 411.367188 54.785156 411.132813 54.957031 410.828125 L 55.328125 410.828125 "/>
<path style="fill:none;stroke-width:13.875;stroke-linecap:square;stroke-linejoin:miter;stroke:rgb(0%,0%,0%);stroke-opacity:1;stroke-miterlimit:10;" d="M 652.109375 2134.0625 L 596.640625 2134.0625 " transform="matrix(0.1,0,0,-0.1,0,555)"/>
<g clip-path="url(#clip4)" clip-rule="nonzero">
<path style=" stroke:none;fill-rule:nonzero;fill:rgb(0%,0%,0%);fill-opacity:1;" d="M 49.191406 343.945313 L 35.445313 343.945313 L 35.445313 342.863281 L 49.191406 342.863281 L 49.191406 343.945313 "/>
</g>
<path style=" stroke:none;fill-rule:nonzero;fill:rgb(0%,0%,0%);fill-opacity:1;" d="M 48.238281 337.226563 L 51.574219 335.578125 L 51.921875 335.578125 L 51.921875 347.222656 C 51.921875 347.988281 51.957031 348.46875 52.019531 348.664063 C 52.085938 348.859375 52.21875 349.007813 52.421875 349.105469 C 52.625 349.210938 53.035156 349.265625 53.65625 349.28125 L 53.65625 349.648438 L 48.476563 349.648438 L 48.476563 349.28125 C 49.125 349.265625 49.546875 349.210938 49.734375 349.105469 C 49.921875 349.007813 50.050781 348.871094 50.125 348.707031 C 50.195313 348.539063 50.230469 348.046875 50.230469 347.222656 L 50.230469 339.785156 C 50.230469 338.773438 50.203125 338.128906 50.144531 337.855469 C 50.085938 337.636719 49.996094 337.480469 49.875 337.378906 C 49.75 337.277344 49.601563 337.226563 49.429688 337.226563 C 49.167969 337.226563 48.824219 337.328125 48.390625 337.53125 L 48.238281 337.226563 "/>
<path style="fill:none;stroke-width:13.875;stroke-linecap:square;stroke-linejoin:miter;stroke:rgb(0%,0%,0%);stroke-opacity:1;stroke-miterlimit:10;" d="M 652.109375 2778.359375 L 596.640625 2778.359375 " transform="matrix(0.1,0,0,-0.1,0,555)"/>
<path style=" stroke:none;fill-rule:nonzero;fill:rgb(0%,0%,0%);fill-opacity:1;" d="M 46.546875 277.628906 C 46.546875 276.054688 46.78125 274.699219 47.25 273.566406 C 47.71875 272.429688 48.351563 271.589844 49.148438 271.039063 C 49.753906 270.589844 50.382813 270.367188 51.035156 270.367188 C 52.089844 270.367188 53.035156 270.910156 53.875 271.992188 C 54.929688 273.320313 55.457031 275.128906 55.457031 277.410156 C 55.457031 279.015625 55.226563 280.375 54.761719 281.488281 C 54.300781 282.601563 53.710938 283.410156 52.996094 283.917969 C 52.28125 284.421875 51.589844 284.675781 50.925781 284.675781 C 49.609375 284.675781 48.519531 283.902344 47.652344 282.355469 C 46.914063 281.039063 46.546875 279.464844 46.546875 277.628906 Z M 48.539063 277.890625 C 48.539063 279.78125 48.773438 281.328125 49.234375 282.53125 C 49.625 283.539063 50.203125 284.046875 50.96875 284.046875 C 51.332031 284.046875 51.707031 283.882813 52.097656 283.546875 C 52.484375 283.214844 52.78125 282.667969 52.984375 281.898438 C 53.304688 280.730469 53.460938 279.082031 53.460938 276.957031 C 53.460938 275.394531 53.296875 274.089844 52.964844 273.035156 C 52.730469 272.253906 52.421875 271.703125 52.03125 271.386719 C 51.757813 271.15625 51.417969 271.039063 51.011719 271.039063 C 50.5625 271.039063 50.160156 271.246094 49.796875 271.667969 C 49.304688 272.230469 48.972656 273.117188 48.800781 274.324219 C 48.628906 275.53125 48.539063 276.71875 48.539063 277.890625 "/>
<path style="fill:none;stroke-width:13.875;stroke-linecap:square;stroke-linejoin:miter;stroke:rgb(0%,0%,0%);stroke-opacity:1;stroke-miterlimit:10;" d="M 652.109375 3422.617188 L 596.640625 3422.617188 " transform="matrix(0.1,0,0,-0.1,0,555)"/>
<path style=" stroke:none;fill-rule:nonzero;fill:rgb(0%,0%,0%);fill-opacity:1;" d="M 48.238281 208.1875 L 51.574219 206.542969 L 51.921875 206.542969 L 51.921875 218.183594 C 51.921875 218.949219 51.957031 219.429688 52.019531 219.625 C 52.085938 219.820313 52.21875 219.96875 52.421875 220.070313 C 52.625 220.171875 53.035156 220.230469 53.65625 220.242188 L 53.65625 220.613281 L 48.476563 220.613281 L 48.476563 220.242188 C 49.125 220.230469 49.546875 220.171875 49.734375 220.070313 C 49.921875 219.96875 50.050781 219.835938 50.125 219.667969 C 50.195313 219.503906 50.230469 219.007813 50.230469 218.183594 L 50.230469 210.746094 C 50.230469 209.734375 50.203125 209.09375 50.144531 208.820313 C 50.085938 208.601563 49.996094 208.441406 49.875 208.339844 C 49.75 208.238281 49.601563 208.1875 49.429688 208.1875 C 49.167969 208.1875 48.824219 208.289063 48.390625 208.492188 L 48.238281 208.1875 "/>
<path style="fill:none;stroke-width:13.875;stroke-linecap:square;stroke-linejoin:miter;stroke:rgb(0%,0%,0%);stroke-opacity:1;stroke-miterlimit:10;" d="M 652.109375 4066.914063 L 596.640625 4066.914063 " transform="matrix(0.1,0,0,-0.1,0,555)"/>
<path style=" stroke:none;fill-rule:nonzero;fill:rgb(0%,0%,0%);fill-opacity:1;" d="M 55.328125 152.753906 L 54.371094 155.398438 L 46.242188 155.398438 L 46.242188 155.03125 C 48.628906 152.847656 50.308594 151.0625 51.28125 149.675781 C 52.257813 148.289063 52.746094 147.023438 52.746094 145.882813 C 52.746094 145.015625 52.480469 144.300781 51.945313 143.734375 C 51.410156 143.171875 50.765625 142.890625 50.015625 142.890625 C 49.351563 142.890625 48.746094 143.089844 48.203125 143.488281 C 47.664063 143.882813 47.261719 144.464844 47 145.230469 L 46.632813 145.230469 C 46.804688 143.972656 47.242188 143.011719 47.945313 142.335938 C 48.644531 141.664063 49.515625 141.328125 50.558594 141.328125 C 51.683594 141.328125 52.621094 141.691406 53.363281 142.414063 C 54.109375 143.136719 54.480469 143.980469 54.480469 144.949219 C 54.480469 145.644531 54.320313 146.34375 54.003906 147.054688 C 53.496094 148.152344 52.679688 149.308594 51.554688 150.519531 C 49.878906 152.371094 48.824219 153.484375 48.390625 153.859375 L 51.988281 153.859375 C 52.726563 153.859375 53.242188 153.835938 53.539063 153.785156 C 53.835938 153.734375 54.101563 153.625 54.339844 153.460938 C 54.578125 153.292969 54.785156 153.058594 54.957031 152.753906 L 55.328125 152.753906 "/>
<path style="fill:none;stroke-width:13.875;stroke-linecap:square;stroke-linejoin:miter;stroke:rgb(0%,0%,0%);stroke-opacity:1;stroke-miterlimit:10;" d="M 652.109375 4711.210938 L 596.640625 4711.210938 " transform="matrix(0.1,0,0,-0.1,0,555)"/>
<path style=" stroke:none;fill-rule:nonzero;fill:rgb(0%,0%,0%);fill-opacity:1;" d="M 46.847656 80.410156 C 47.238281 79.484375 47.734375 78.769531 48.335938 78.265625 C 48.933594 77.757813 49.683594 77.503906 50.578125 77.503906 C 51.675781 77.503906 52.523438 77.867188 53.113281 78.589844 C 53.5625 79.121094 53.785156 79.695313 53.785156 80.300781 C 53.785156 81.3125 53.160156 82.355469 51.902344 83.421875 C 52.738281 83.757813 53.375 84.230469 53.808594 84.84375 C 54.242188 85.457031 54.460938 86.183594 54.460938 87.023438 C 54.460938 88.207031 54.082031 89.234375 53.332031 90.101563 C 52.335938 91.242188 50.902344 91.8125 49.039063 91.8125 C 48.101563 91.8125 47.464844 91.699219 47.132813 91.464844 C 46.800781 91.234375 46.632813 90.988281 46.632813 90.730469 C 46.632813 90.527344 46.710938 90.355469 46.871094 90.210938 C 47.03125 90.0625 47.21875 89.992188 47.433594 89.992188 C 47.609375 89.992188 47.78125 90.019531 47.957031 90.078125 C 48.070313 90.109375 48.335938 90.226563 48.746094 90.4375 C 49.160156 90.644531 49.4375 90.773438 49.582031 90.816406 C 49.839844 90.886719 50.109375 90.925781 50.382813 90.925781 C 51.078125 90.925781 51.679688 90.65625 52.195313 90.121094 C 52.707031 89.585938 52.964844 88.960938 52.964844 88.234375 C 52.964844 87.703125 52.847656 87.179688 52.617188 86.675781 C 52.429688 86.285156 52.234375 85.996094 52.03125 85.808594 C 51.742188 85.535156 51.339844 85.289063 50.828125 85.070313 C 50.316406 84.855469 49.796875 84.746094 49.277344 84.746094 L 48.953125 84.746094 L 48.953125 84.421875 C 49.488281 84.363281 50.023438 84.175781 50.558594 83.855469 C 51.09375 83.539063 51.480469 83.15625 51.726563 82.707031 C 51.972656 82.261719 52.097656 81.769531 52.097656 81.234375 C 52.097656 80.539063 51.878906 79.976563 51.445313 79.542969 C 51.011719 79.109375 50.46875 78.890625 49.820313 78.890625 C 48.765625 78.890625 47.882813 79.457031 47.175781 80.582031 L 46.847656 80.410156 "/>
<path style="fill:none;stroke-width:13.875;stroke-linecap:square;stroke-linejoin:miter;stroke:rgb(0%,0%,0%);stroke-opacity:1;stroke-miterlimit:10;" d="M 652.109375 5355.507813 L 596.640625 5355.507813 " transform="matrix(0.1,0,0,-0.1,0,555)"/>
<path style=" stroke:none;fill-rule:nonzero;fill:rgb(0%,0%,0%);fill-opacity:1;" d="M 55.476563 22.675781 L 55.476563 24.109375 L 53.613281 24.109375 L 53.613281 27.75 L 51.945313 27.75 L 51.945313 24.109375 L 46.113281 24.109375 L 46.113281 22.808594 L 52.507813 13.679688 L 53.613281 13.679688 L 53.613281 22.675781 Z M 51.945313 22.675781 L 51.945313 15.824219 L 47.109375 22.675781 Z M 51.945313 22.675781 "/>
<path style="fill:none;stroke-width:13.875;stroke-linecap:square;stroke-linejoin:miter;stroke:rgb(0%,0%,0%);stroke-opacity:1;stroke-miterlimit:10;" d="M 652.109375 523.320313 L 624.375 523.320313 " transform="matrix(0.1,0,0,-0.1,0,555)"/>
<path style="fill:none;stroke-width:13.875;stroke-linecap:square;stroke-linejoin:miter;stroke:rgb(0%,0%,0%);stroke-opacity:1;stroke-miterlimit:10;" d="M 652.109375 1167.617188 L 624.375 1167.617188 " transform="matrix(0.1,0,0,-0.1,0,555)"/>
<path style="fill:none;stroke-width:13.875;stroke-linecap:square;stroke-linejoin:miter;stroke:rgb(0%,0%,0%);stroke-opacity:1;stroke-miterlimit:10;" d="M 652.109375 1811.914063 L 624.375 1811.914063 " transform="matrix(0.1,0,0,-0.1,0,555)"/>
<path style="fill:none;stroke-width:13.875;stroke-linecap:square;stroke-linejoin:miter;stroke:rgb(0%,0%,0%);stroke-opacity:1;stroke-miterlimit:10;" d="M 652.109375 2456.210938 L 624.375 2456.210938 " transform="matrix(0.1,0,0,-0.1,0,555)"/>
<path style="fill:none;stroke-width:13.875;stroke-linecap:square;stroke-linejoin:miter;stroke:rgb(0%,0%,0%);stroke-opacity:1;stroke-miterlimit:10;" d="M 652.109375 3100.507813 L 624.375 3100.507813 " transform="matrix(0.1,0,0,-0.1,0,555)"/>
<path style="fill:none;stroke-width:13.875;stroke-linecap:square;stroke-linejoin:miter;stroke:rgb(0%,0%,0%);stroke-opacity:1;stroke-miterlimit:10;" d="M 652.109375 3744.765625 L 624.375 3744.765625 " transform="matrix(0.1,0,0,-0.1,0,555)"/>
<path style="fill:none;stroke-width:13.875;stroke-linecap:square;stroke-linejoin:miter;stroke:rgb(0%,0%,0%);stroke-opacity:1;stroke-miterlimit:10;" d="M 652.109375 4389.0625 L 624.375 4389.0625 " transform="matrix(0.1,0,0,-0.1,0,555)"/>
<path style="fill:none;stroke-width:13.875;stroke-linecap:square;stroke-linejoin:miter;stroke:rgb(0%,0%,0%);stroke-opacity:1;stroke-miterlimit:10;" d="M 652.109375 5033.359375 L 624.375 5033.359375 " transform="matrix(0.1,0,0,-0.1,0,555)"/>
</g>
</svg>
