<svg xmlns="http://www.w3.org/2000/svg" xmlns:xlink="http://www.w3.org/1999/xlink" xmlns:inkscape="http://www.inkscape.org/namespaces/inkscape" version="1.1" width="304" height="237" viewBox="0 0 304 237">
<defs>
<path id="font_1_1" d="M.2939911 .64004519C.2939911 .66400149 .2939911 .6660156 .2709961 .6660156 .20899964 .60227969 .12098694 .60227969 .08898926 .60227969V.57128909C.10899353 .57128909 .16799927 .57128909 .21998596 .5972748V.07902527C.21998596 .042999269 .21699524 .0309906 .1269989 .0309906H.09498596V0C.12998963 .0029907227 .21699524 .0029907227 .25698854 .0029907227 .29699708 .0029907227 .38398744 .0029907227 .4189911 0V.0309906H.3869934C.29699708 .0309906 .2939911 .041992189 .2939911 .07902527V.64004519Z"/>
<path id="font_1_2" d="M.2899933 .35191346C.37199403 .37893678 .42999269 .4490509 .42999269 .52809146 .42999269 .6100464 .34199525 .6660156 .24598694 .6660156 .14498902 .6660156 .068984989 .60606387 .068984989 .53009036 .068984989 .49710084 .09098816 .47808839 .11999512 .47808839 .15098572 .47808839 .17098999 .50009158 .17098999 .5290985 .17098999 .57910159 .12399292 .57910159 .10899353 .57910159 .13999939 .62802127 .20599365 .64100649 .24198914 .64100649 .2829895 .64100649 .33799745 .6190338 .33799745 .5290985 .33799745 .51708987 .33599855 .45906068 .30999757 .4149933 .27999879 .36691285 .24598694 .36390687 .22099304 .36291505 .21299744 .36190797 .18899536 .35990907 .18199158 .35990907 .17399597 .35890199 .16699219 .35791017 .16699219 .3479004 .16699219 .33691407 .17399597 .33691407 .19099427 .33691407H.23498535C.31698609 .33691407 .35398866 .2686615 .35398866 .17037964 .35398866 .034469606 .2849884 .0055389406 .24099732 .0055389406 .19799805 .0055389406 .12298584 .022491456 .08799744 .08137512 .12298584 .07637024 .1539917 .09837341 .1539917 .1363678 .1539917 .17237854 .1269989 .19238281 .09799194 .19238281 .07398987 .19238281 .041992189 .17837525 .041992189 .1343689 .041992189 .043441774 .1349945-.022460938 .24398804-.022460938 .3659973-.022460938 .45700074 .06838989 .45700074 .17037964 .45700074 .252594 .3939972 .33088685 .2899933 .35191346Z"/>
<path id="font_2_1" d="M.20599365 .3996582H.2999878C.31999208 .3996582 .32998658 .3996582 .32998658 .41966249 .32998658 .43066407 .31999208 .43066407 .3019867 .43066407H.21398926C.25 .5724945 .25498963 .59246829 .25498963 .59846499 .25498963 .61546328 .24299622 .62545779 .22599793 .62545779 .22299195 .62545779 .19499207 .62446597 .18598938 .58947756L.14698792 .43066407H.052993776C.032989503 .43066407 .022994996 .43066407 .022994996 .4116516 .022994996 .3996582 .0309906 .3996582 .050994874 .3996582H.13899231C.066986087 .11608887 .06298828 .099121097 .06298828 .08114624 .06298828 .02722168 .100997928-.0107421879 .15499878-.0107421879 .25698854-.0107421879 .31399537 .13505554 .31399537 .14305115 .31399537 .1530304 .30599977 .1530304 .3019867 .1530304 .29299928 .1530304 .2919922 .15003968 .2869873 .13905335 .24398804 .035217287 .19099427 .011245728 .15699768 .011245728 .13598633 .011245728 .12599182 .024230957 .12599182 .057174684 .12599182 .08114624 .12799073 .088134769 .13198853 .10510254L.20599365 .3996582Z"/>
<path id="font_3_1" d="M.33499146 .63612368C.33499146 .6630554 .33299256 .6640625 .30499269 .6640625 .24099732 .6014404 .1499939 .6004486 .10899353 .6004486V.5644531C.1329956 .5644531 .19898987 .5644531 .2539978 .592453V.08203125C.2539978 .04899597 .2539978 .035995485 .1539917 .035995485H.115997318V0C.13398743 .0009918213 .25698854 .0039978029 .2939911 .0039978029 .32499696 .0039978029 .45098878 .0009918213 .47299195 0V.035995485H.43499757C.33499146 .035995485 .33499146 .04899597 .33499146 .08203125V.63612368Z"/>
<path id="font_2_2" d="M.46798707 .37236024C.46798707 .42637635 .44198609 .4423828 .42399598 .4423828 .39898683 .4423828 .375 .41636659 .375 .3943634 .375 .38136292 .37998963 .3753662 .3909912 .36434938 .4119873 .3443451 .4249878 .31834413 .4249878 .28233338 .4249878 .24032593 .3639984 .011245728 .24699402 .011245728 .19599915 .011245728 .17298889 .04626465 .17298889 .09828186 .17298889 .15429688 .19999695 .22731018 .23098755 .31033326 .23799134 .3273468 .24299622 .34135438 .24299622 .36035157 .24299622 .405365 .21099854 .4423828 .16099549 .4423828 .066986087 .4423828 .0289917 .29733277 .0289917 .28833009 .0289917 .27833558 .038986207 .27833558 .040985109 .27833558 .050994874 .27833558 .051986696 .28033448 .056991579 .29634095 .085998538 .39736939 .1289978 .42037965 .1579895 .42037965 .1659851 .42037965 .18299866 .42037965 .18299866 .3883667 .18299866 .36335755 .17298889 .3363495 .1659851 .31834413 .12199402 .20230103 .10899353 .15629578 .10899353 .11328125 .10899353 .0052490236 .19699097-.0107421879 .24299622-.0107421879 .41099549-.0107421879 .46798707 .32034303 .46798707 .37236024Z"/>
</defs>
<path transform="matrix(1.00002,0,0,-1.00005,1.5376968,235.89313)" stroke-width=".19925" stroke-linecap="butt" stroke-miterlimit="10" stroke-linejoin="miter" fill="none" stroke="#7f807f" d=""/>
<path transform="matrix(1.00002,0,0,-1.00005,1.5376968,235.89313)" stroke-width=".19925" stroke-linecap="butt" stroke-miterlimit="10" stroke-linejoin="miter" fill="none" stroke="#7f807f" d="M15.1618 199.54877H19.41354"/>
<path transform="matrix(1.00002,0,0,-1.00005,1.5376968,235.89313)" stroke-width=".3985" stroke-linecap="butt" stroke-miterlimit="10" stroke-linejoin="miter" fill="none" stroke="#000000" d="M0 26.60649H291.8982"/>
<path transform="matrix(1.00002,0,0,-1.00005,293.44175,209.28531)" d="M1.99252 0-1.19551 1.59401 0 0-1.19551-1.59401"/>
<path transform="matrix(1.00002,0,0,-1.00005,1.5376968,235.89313)" stroke-width=".3985" stroke-linecap="butt" stroke-miterlimit="10" stroke-linejoin="miter" fill="none" stroke="#000000" d="M17.28769 0V224.16274"/>
<path transform="matrix(0,-1.00005,-1.00002,-0,18.825734,11.7191929)" d="M1.99252 0-1.19551 1.59401 0 0-1.19551-1.59401"/>
<use data-text="1" xlink:href="#font_1_1" transform="matrix(9.962799,0,0,-9.963098,3.2167283,39.54431)"/>
<use data-text="3" xlink:href="#font_1_2" transform="matrix(9.962799,0,0,-9.963098,8.198128,39.54431)"/>
<path transform="matrix(1.00002,0,0,-1.00005,1.5376968,235.89313)" stroke-width=".3985" stroke-linecap="butt" stroke-miterlimit="10" stroke-linejoin="miter" fill="none" stroke="#000000" d="M17.28769 26.60649 18.1957 28.35332 19.10371 30.1002 20.01172 31.84705 20.91974 33.59389 21.82777 35.34074 22.73578 37.08759 23.6438 38.83443 24.55182 40.5813 25.45984 42.32814 26.36786 44.07498 27.27588 45.82182 28.1839 47.56866 29.09192 49.31554 29.99992 51.06238 30.90796 52.80922 31.81596 54.55608 32.72398 56.30292 33.63202 58.04979 34.54002 59.79665 35.44804 61.54349 36.35605 63.29031 37.26408 65.03716 38.1721 66.78403 39.08011 68.53087 39.98813 70.27774 40.89616 72.02458 41.80417 73.77142 42.71219 75.51828 43.6202 77.26512 44.52823 79.01198 45.43625 80.75882 46.34425 82.50568 47.25229 84.25252 48.1603 85.99936 49.06831 87.74622 49.97635 89.49307 50.88435 91.23991 51.79237 92.98676 52.7004 94.73358 53.60841 96.48042 54.51643 98.22726 55.42444 99.97421 56.33247 101.72105 57.2405 103.4679 58.1485 105.21474 59.05652 106.96158 59.96452 108.70844 60.87256 110.45528 61.78058 112.20212 62.68858 113.94896 63.59662 115.6958 64.50464 117.44264 65.41264 119.1895 66.32066 120.93634 67.22868 122.68318 68.1367 124.43002 69.04472 126.17686 69.95274 127.9237 70.86076 129.67066 71.76877 131.4175 72.6768 133.16434 73.58482 134.91118 74.49283 136.65802 75.40085 138.40488 76.30888 140.15172 77.21689 141.89856 78.12491 143.6454 79.03291 145.39225 79.94095 147.13909 80.84897 148.88594 81.75697 150.63278 82.665 152.37963 83.57301 154.12647 84.48103 155.8733 85.38905 157.62015 86.29707 159.3671 87.2051 161.11394 88.11311 162.86078 89.02112 164.60762 89.92915 166.35446 90.83716 168.1013 91.74518 169.84816 92.65321 171.595 93.56122 173.34185 94.46924 175.08869 95.37726 176.83553 96.28528 178.58238 97.1933 180.32923 98.1013 182.07607 99.00934 183.8229 99.91736 185.56974 100.82536 187.31668 101.73338 189.06354 102.64139 190.81038 103.54942 192.55722 104.45744 194.30406 105.36545 196.0509 106.27348 197.79775 107.18149 199.5446"/>
<path transform="matrix(1.00002,0,0,-1.00005,1.5376968,235.89313)" stroke-width=".3985" stroke-linecap="butt" stroke-miterlimit="10" stroke-linejoin="miter" fill="none" stroke="#000000" d="M107.18367 199.54877H109.06953 110.95541 112.84128 114.72716 116.61305 118.49892 120.3848 122.27068 124.15654 126.04242 127.92828 129.81417 131.70006 133.58592 135.4718 137.35768 139.24355 141.12943 143.0153 144.90117 146.78707 148.67295 150.5588 152.44469 154.33057 156.21643 158.10231 159.98818 161.87407 163.75995 165.64583 167.5317 169.41757 171.30345 173.18932 175.07521 176.96108 178.84696 180.73284 182.6187 184.50458 186.39046 188.27632 190.16222 192.0481 193.93396 195.81984 197.7057 199.59159 201.47747 203.36333 205.24922 207.1351 209.02097 210.90685 212.79271 214.67859 216.56447 218.45035 220.33623 222.2221 224.10799 225.99385 227.87973 229.76561 231.65148 233.53736 235.42324 237.30912 239.19499 241.08086 242.96674 244.85262 246.73848 248.62436 250.51024 252.39612 254.282 256.16786 258.05375 259.9396 261.8255 263.71138 265.59727 267.48313 269.369 271.25489 273.14076 275.02665 276.9125 278.79838 280.68428 282.57014 284.45603 286.3419 288.22776 290.11363 291.9995 293.88539"/>
<path transform="matrix(1.00002,0,0,-1.00005,1.5376968,235.89313)" stroke-width=".3985" stroke-linecap="butt" stroke-dasharray="2.98883,2.98883" stroke-miterlimit="10" stroke-linejoin="miter" fill="none" stroke="#000000" d="M107.18367 199.54877V26.60649"/>
<path transform="matrix(1.00002,0,0,-1.00005,1.5376968,235.89313)" stroke-width=".3985" stroke-linecap="butt" stroke-miterlimit="10" stroke-linejoin="miter" fill="none" stroke="#000000" d="M107.18367 26.60649"/>
<use data-text="t" xlink:href="#font_2_1" transform="matrix(9.962799,0,0,-9.963098,104.689769,218.93329)"/>
<use data-text="1" xlink:href="#font_3_1" transform="matrix(6.97394,0,0,-6.9741489,108.28784,220.42737)"/>
<use data-text="t" xlink:href="#font_2_1" transform="matrix(9.962799,0,0,-9.963098,298.95466,218.93329)"/>
<use data-text="v" xlink:href="#font_2_2" transform="matrix(9.962799,0,0,-9.963098,10.118866,6.20665)"/>
</svg>
