<svg xmlns="http://www.w3.org/2000/svg" xmlns:xlink="http://www.w3.org/1999/xlink" xmlns:inkscape="http://www.inkscape.org/namespaces/inkscape" version="1.1" width="316" height="141" viewBox="0 0 316 141">
<defs>
<path id="font_1_2" d="M.2939911 .64004519C.2939911 .66400149 .2939911 .6660156 .2709961 .6660156 .20899964 .60227969 .12098694 .60227969 .08898926 .60227969V.57128909C.10899353 .57128909 .16799927 .57128909 .21998596 .5972748V.07902527C.21998596 .042999269 .21699524 .0309906 .1269989 .0309906H.09498596V0C.12998963 .0029907227 .21699524 .0029907227 .25698854 .0029907227 .29699708 .0029907227 .38398744 .0029907227 .4189911 0V.0309906H.3869934C.29699708 .0309906 .2939911 .041992189 .2939911 .07902527V.64004519Z"/>
<path id="font_1_1" d="M.45999146 .31976319C.45999146 .39982606 .45498658 .47988893 .41999818 .5539398 .37399293 .65000918 .2919922 .6660156 .25 .6660156 .18998719 .6660156 .116989139 .64001467 .07598877 .54693606 .04399109 .47789 .038986207 .39982606 .038986207 .31976319 .038986207 .24472046 .042999269 .15464783 .083999637 .07859802 .1269989-.0024719239 .19999695-.022460938 .24899292-.022460938 .30299378-.022460938 .3789978-.0014648438 .4229889 .09359741 .45498658 .16265869 .45999146 .2407074 .45999146 .31976319M.24899292-.00047302247C.20999146-.00047302247 .15098572 .024551392 .1329956 .12062073 .12199402 .18066406 .12199402 .2727356 .12199402 .3317871 .12199402 .39582826 .12199402 .46188355 .12998963 .5159149 .14898682 .63500979 .22399903 .64401248 .24899292 .64401248 .28199769 .64401248 .34799195 .6259918 .36698915 .52693179 .3769989 .47088624 .3769989 .39482118 .3769989 .3317871 .3769989 .25672914 .3769989 .18867493 .3659973 .12461853 .35099793 .029556275 .2939911-.00047302247 .24899292-.00047302247Z"/>
<path id="font_1_3" d="M.1269989 .07699585 .23298645 .18003845C.3889923 .31811524 .44898988 .3721466 .44898988 .47216798 .44898988 .5860901 .35899354 .6660156 .23699951 .6660156 .12399292 .6660156 .049987794 .57411196 .049987794 .48516847 .049987794 .4291687 .099990848 .4291687 .102996829 .4291687 .11999512 .4291687 .15499878 .44117738 .15499878 .48217774 .15499878 .5081787 .13699341 .5341797 .101989749 .5341797 .09399414 .5341797 .09199524 .5341797 .08898926 .5331726 .11199951 .59806826 .1659851 .63500979 .22399903 .63500979 .31498719 .63500979 .35798646 .5541382 .35798646 .47216798 .35798646 .39215089 .30799867 .31311036 .25299073 .25108338L.06098938 .036987306C.049987794 .025985718 .049987794 .023986817 .049987794 0H.42099L.44898988 .17404175H.42399598C.4189911 .14402771 .4119873 .1000061 .4019928 .084991458 .394989 .07699585 .32899476 .07699585 .30699159 .07699585H.1269989Z"/>
<path id="font_1_4" d="M.2899933 .35191346C.37199403 .37893678 .42999269 .4490509 .42999269 .52809146 .42999269 .6100464 .34199525 .6660156 .24598694 .6660156 .14498902 .6660156 .068984989 .60606387 .068984989 .53009036 .068984989 .49710084 .09098816 .47808839 .11999512 .47808839 .15098572 .47808839 .17098999 .50009158 .17098999 .5290985 .17098999 .57910159 .12399292 .57910159 .10899353 .57910159 .13999939 .62802127 .20599365 .64100649 .24198914 .64100649 .2829895 .64100649 .33799745 .6190338 .33799745 .5290985 .33799745 .51708987 .33599855 .45906068 .30999757 .4149933 .27999879 .36691285 .24598694 .36390687 .22099304 .36291505 .21299744 .36190797 .18899536 .35990907 .18199158 .35990907 .17399597 .35890199 .16699219 .35791017 .16699219 .3479004 .16699219 .33691407 .17399597 .33691407 .19099427 .33691407H.23498535C.31698609 .33691407 .35398866 .2686615 .35398866 .17037964 .35398866 .034469606 .2849884 .0055389406 .24099732 .0055389406 .19799805 .0055389406 .12298584 .022491456 .08799744 .08137512 .12298584 .07637024 .1539917 .09837341 .1539917 .1363678 .1539917 .17237854 .1269989 .19238281 .09799194 .19238281 .07398987 .19238281 .041992189 .17837525 .041992189 .1343689 .041992189 .043441774 .1349945-.022460938 .24398804-.022460938 .3659973-.022460938 .45700074 .06838989 .45700074 .17037964 .45700074 .252594 .3939972 .33088685 .2899933 .35191346Z"/>
<path id="font_1_5" d="M.44898988 .20022583C.44898988 .3193512 .36698915 .41944886 .25898744 .41944886 .21099854 .41944886 .16799927 .40345765 .13198853 .36842347V.5637665C.1519928 .5577698 .18499756 .55078127 .21699524 .55078127 .33999635 .55078127 .4099884 .6417694 .4099884 .6547699 .4099884 .6607666 .40699769 .6657715 .3999939 .6657715 .39898683 .6657715 .39698792 .6657715 .3919983 .66278079 .37199403 .6537781 .32299806 .6337738 .2559967 .6337738 .21598816 .6337738 .16999817 .6407776 .12298584 .6617737 .114990238 .66477969 .11299133 .66477969 .11099243 .66477969 .100997928 .66477969 .100997928 .6567688 .100997928 .6407776V.34439088C.100997928 .32637025 .100997928 .31835938 .114990238 .31835938 .12199402 .31835938 .12399292 .32136537 .12799073 .32736207 .13899231 .3433838 .17599488 .39746095 .25698854 .39746095 .30899049 .39746095 .33399964 .35139466 .34199525 .33337403 .35798646 .29632569 .3600006 .25727845 .3600006 .20722962 .3600006 .17222595 .3600006 .11222839 .33599855 .07035828 .31199647 .031463624 .2749939 .0055389406 .22898865 .0055389406 .1559906 .0055389406 .09899902 .058380128 .08198547 .11723328 .084991458 .1162262 .08799744 .115234378 .09899902 .115234378 .13198853 .115234378 .14898682 .14022827 .14898682 .16423035 .14898682 .18823242 .13198853 .21322632 .09899902 .21322632 .084991458 .21322632 .049987794 .20622254 .049987794 .16023255 .049987794 .07434082 .11898804-.022460938 .23098755-.022460938 .34700013-.022460938 .44898988 .073349 .44898988 .20022583Z"/>
<path id="font_1_7" d="M.47599793 .609375C.4850006 .6213684 .4850006 .62338259 .4850006 .64437869H.24198914C.11999512 .64437869 .117996219 .65737918 .11399841 .67637637H.08898926L.055999757 .4702301H.08099365C.083999637 .48625184 .09298706 .5493469 .10598755 .56137087 .11299133 .5673828 .19099427 .5673828 .20399475 .5673828H.41099549C.3999939 .5513611 .32099916 .4421997 .29899598 .40914918 .20899964 .27394105 .17599488 .1347351 .17599488 .032577516 .17599488 .022567749 .17599488-.022460938 .22200012-.022460938 .2679901-.022460938 .2679901 .022567749 .2679901 .032577516V.08366394C.2679901 .13873291 .2709961 .19381714 .2789917 .24790955 .2829895 .27093507 .29699708 .35707093 .34098817 .41915895L.47599793 .609375Z"/>
<clipPath id="clip_2">
<path transform="matrix(1,0,0,-1.00003,11.901001,136.2027)" d="M0 0H293.9006V124.53384H0Z"/>
</clipPath>
<path id="font_3_9" d="M.3909912 .37405396C.36299134 .37304688 .34298707 .3510437 .34298707 .32904054 .34298707 .31503297 .35198976 .30003358 .37399293 .30003358 .3959961 .30003358 .41999818 .31703187 .41999818 .35603334 .41999818 .40124513 .3769989 .4423828 .30099488 .4423828 .16899109 .4423828 .13198853 .3400421 .13198853 .29605104 .13198853 .21820069 .20599365 .20323181 .23498535 .19725037 .2869873 .18727112 .33898927 .17628479 .33898927 .12133789 .33898927 .095336917 .31599427 .011245728 .19599915 .011245728 .18199158 .011245728 .10499573 .011245728 .08198547 .064331058 .11999512 .059326173 .14498902 .08934021 .14498902 .11734009 .14498902 .14033509 .1289978 .15234375 .10798645 .15234375 .08198547 .15234375 .051986696 .1313324 .051986696 .08633423 .051986696 .029281617 .10899353-.0107421879 .19499207-.0107421879 .35699464-.0107421879 .3959961 .1103363 .3959961 .15533448 .3959961 .19125366 .3769989 .21620178 .36499024 .22817993 .33799745 .25613404 .30899049 .26112367 .2649994 .27009584 .22898865 .27807618 .18899536 .2850647 .18899536 .33003236 .18899536 .3590393 .21299744 .42037965 .30099488 .42037965 .32598878 .42037965 .37599183 .41333009 .3909912 .37405396Z"/>
<path id="font_3_6" d="M.2579956 .68333438C.2579956 .6843262 .2579956 .69433596 .24499512 .69433596 .22200012 .69433596 .14898682 .6863251 .12298584 .6843262 .114990238 .68333438 .10398865 .6823273 .10398865 .6633301 .10398865 .6523285 .11399841 .6523285 .1289978 .6523285 .1769867 .6523285 .17799378 .6433258 .17799378 .6353302L.1749878 .6153259 .04899597 .11526489C.04598999 .104263309 .04399109 .09725952 .04399109 .08125305 .04399109 .024246216 .08799744-.0107421879 .1349945-.0107421879 .16799927-.0107421879 .19299317 .009246826 .20999146 .04525757 .22799683 .08325195 .23999024 .14126587 .23999024 .14326477 .23999024 .15327454 .23098755 .15327454 .22799683 .15327454 .21798706 .15327454 .21699524 .14926148 .21398926 .13526917 .19699097 .070251468 .17799378 .011245728 .13798523 .011245728 .10798645 .011245728 .10798645 .043258668 .10798645 .057250978 .10798645 .08125305 .10899353 .086257938 .11399841 .10525513L.2579956 .68333438Z"/>
<path id="font_3_7" d="M.46899415 .2733307C.46899415 .3773651 .39898683 .4423828 .30899049 .4423828 .1749878 .4423828 .040985109 .30033876 .040985109 .15829468 .040985109 .059265138 .10798645-.0107421879 .20098877-.0107421879 .33399964-.0107421879 .46899415 .12728882 .46899415 .2733307M.20199585 .011245728C.15899658 .011245728 .114990238 .042266847 .114990238 .120285037 .114990238 .16929627 .14099121 .2773285 .17298889 .32833863 .22299195 .405365 .27999879 .42037965 .30799867 .42037965 .3659973 .42037965 .3959961 .37236024 .3959961 .3123474 .3959961 .2733307 .37599183 .16830445 .33799745 .103271488 .30299378 .04525757 .24798584 .011245728 .20199585 .011245728Z"/>
<path id="font_3_8" d="M.04499817-.122177127C.036987306-.15631104 .034988405-.16334534-.009002686-.16334534-.021011353-.16334534-.03201294-.16334534-.03201294-.18234253-.03201294-.19033814-.027008057-.19433594-.019012452-.19433594 .0079956059-.19433594 .036987306-.19134522 .06498718-.19134522 .09799194-.19134522 .13198853-.19433594 .1639862-.19433594 .16899109-.19433594 .18199158-.19433594 .18199158-.17434693 .18199158-.16334534 .17199707-.16334534 .1579895-.16334534 .10798645-.16334534 .10798645-.15631104 .10798645-.14727783 .10798645-.13523865 .1499939 .028259278 .15699768 .053268434 .16999817 .024261475 .19799805-.0107421879 .24899292-.0107421879 .36499024-.0107421879 .48999024 .13528443 .48999024 .28233338 .48999024 .37635804 .43299867 .4423828 .35699464 .4423828 .30699159 .4423828 .25898744 .40637208 .22599793 .36735536 .21598816 .42137147 .17298889 .4423828 .13598633 .4423828 .08999634 .4423828 .070999149 .4033661 .06199646 .38536073 .04399109 .35134889 .0309906 .29133607 .0309906 .28833009 .0309906 .27833558 .040985109 .27833558 .042999269 .27833558 .052993776 .27833558 .053985597 .2793274 .05999756 .30133058 .07699585 .37236024 .09700012 .42037965 .1329956 .42037965 .1499939 .42037965 .1639862 .41236878 .1639862 .37435914 .1639862 .35134889 .16099549 .3403473 .15699768 .323349L.04499817-.122177127M.22099304 .3123474C.22799683 .33935548 .25498963 .36735536 .272995 .38235475 .30799867 .41337586 .33699037 .42037965 .35398866 .42037965 .3939972 .42037965 .41799928 .38536073 .41799928 .32633973 .41799928 .26733399 .3849945 .15229798 .36698915 .11428833 .33299256 .044265748 .2849884 .011245728 .24798584 .011245728 .18199158 .011245728 .16899109 .0942688 .16899109 .10028076 .16899109 .10227966 .16899109 .104278568 .17199707 .11628723L.22099304 .3123474Z"/>
<path id="font_3_2" d="M.18699646 .23144531C.21598816 .23144531 .2899933 .23344422 .33999635 .2544403 .4099884 .28442384 .4149933 .34339906 .4149933 .35740663 .4149933 .40138246 .3769989 .4423828 .30799867 .4423828 .19699097 .4423828 .04598999 .34539796 .04598999 .17037964 .04598999 .06829834 .10499573-.0107421879 .20298767-.0107421879 .34599305-.0107421879 .42999269 .095321658 .42999269 .10733032 .42999269 .113342288 .42399598 .12034607 .41799928 .12034607 .41299439 .12034607 .41099549 .11834717 .40499879 .1103363 .32598878 .011245728 .21699524 .011245728 .20498657 .011245728 .1269989 .011245728 .117996219 .095321658 .117996219 .12734986 .117996219 .13935852 .11898804 .17037964 .13398743 .23144531H.18699646M.13999939 .25343324C.1789856 .40538026 .28199769 .42037965 .30799867 .42037965 .35499574 .42037965 .38198854 .39138795 .38198854 .35740663 .38198854 .25343324 .22200012 .25343324 .18099976 .25343324H.13999939Z"/>
<path id="font_1_9" d="M.68699648 .32714845C.70199587 .32714845 .72099307 .32714845 .72099307 .34713746 .72099307 .36714173 .70199587 .36714173 .6879883 .36714173H.08898926C.07499695 .36714173 .055999757 .36714173 .055999757 .34713746 .055999757 .32714845 .07499695 .32714845 .08999634 .32714845H.68699648M.6879883 .13284302C.70199587 .13284302 .72099307 .13284302 .72099307 .15284729 .72099307 .17285156 .70199587 .17285156 .68699648 .17285156H.08999634C.07499695 .17285156 .055999757 .17285156 .055999757 .15284729 .055999757 .13284302 .07499695 .13284302 .08898926 .13284302H.6879883Z"/>
<path id="font_3_1" d="M.19198609 .052993776C.19198609 .08198547 .16799927 .10598755 .13899231 .10598755 .10998535 .10598755 .085998538 .08198547 .085998538 .052993776 .085998538 .023986817 .10998535 0 .13899231 0 .16799927 0 .19198609 .023986817 .19198609 .052993776Z"/>
<path id="font_1_8" d="M.16299439 .4569702C.116989139 .486969 .11299133 .52098086 .11299133 .5379791 .11299133 .598999 .17799378 .64100649 .24899292 .64100649 .32199098 .64100649 .38598634 .58898928 .38598634 .51698306 .38598634 .45996095 .34700013 .4119568 .2869873 .37695313L.16299439 .4569702M.30899049 .36193849C.3809967 .3989563 .42999269 .45095826 .42999269 .51698306 .42999269 .6090088 .34098817 .6660156 .25 .6660156 .1499939 .6660156 .068984989 .59199526 .068984989 .49897767 .068984989 .4809723 .070999149 .43595887 .11299133 .38894654 .12399292 .37695313 .16099549 .35194398 .18598938 .33494569 .12799073 .30592347 .041992189 .24984741 .041992189 .15072632 .041992189 .04458618 .14399719-.022460938 .24899292-.022460938 .3619995-.022460938 .45700074 .06060791 .45700074 .16773987 .45700074 .20379639 .44599916 .24885559 .4079895 .2909088 .3889923 .31193543 .37298585 .3219452 .30899049 .36193849M.20899964 .3199463 .33198548 .24183655C.3600006 .2228241 .40699769 .19277954 .40699769 .13169861 .40699769 .05760193 .33198548 .0055389406 .25 .0055389406 .1639862 .0055389406 .09199524 .067611698 .09199524 .15072632 .09199524 .20880127 .12399292 .27288819 .20899964 .3199463Z"/>
<path id="font_4_1" d="M.6589966 .23046875C.6759949 .23046875 .69400027 .23046875 .69400027 .25045777 .69400027 .27046205 .6759949 .27046205 .6589966 .27046205H.117996219C.100997928 .27046205 .08299255 .27046205 .08299255 .25045777 .08299255 .23046875 .100997928 .23046875 .117996219 .23046875H.6589966Z"/>
<path id="font_1_6" d="M.13198853 .327713V.35173036C.13198853 .6047821 .2559967 .64100649 .30699159 .64100649 .33099366 .64100649 .37298585 .634964 .394989 .6007538 .37998963 .6007538 .33999635 .6007538 .33999635 .5557556 .33999635 .524765 .3639984 .5097656 .38598634 .5097656 .4019928 .5097656 .43199159 .51875308 .43199159 .5577545 .43199159 .6178589 .3880005 .6660156 .30499269 .6660156 .1769867 .6660156 .041992189 .5367584 .041992189 .31570436 .041992189 .048553468 .1579895-.022460938 .25099183-.022460938 .3619995-.022460938 .45700074 .07156372 .45700074 .2036438 .45700074 .33070375 .36799623 .4267578 .25698854 .4267578 .18899536 .4267578 .1519928 .37573243 .13198853 .327713M.25099183 .0055389406C.18798828 .0055389406 .1579895 .06556702 .1519928 .080566409 .13398743 .127594 .13398743 .2076416 .13398743 .22564698 .13398743 .30369569 .1659851 .40374757 .2559967 .40374757 .27198792 .40374757 .31799317 .40374757 .34899903 .34172059 .36698915 .30470277 .36698915 .2536621 .36698915 .20463562 .36698915 .15661621 .36698915 .10658264 .34999085 .0705719 .31999208 .010528564 .27398683 .0055389406 .25099183 .0055389406Z"/>
<path id="font_3_4" d="M.2869873 .68333438C.2869873 .6843262 .2869873 .69433596 .27398683 .69433596 .25099183 .69433596 .17799378 .6863251 .1519928 .6843262 .14399719 .68333438 .1329956 .6823273 .1329956 .6643219 .1329956 .6523285 .14199829 .6523285 .15699768 .6523285 .20498657 .6523285 .20698548 .6453247 .20698548 .6353302L.20399475 .6153412 .05899048 .039260866C.054992677 .025253296 .054992677 .023254395 .054992677 .01725769 .054992677-.0057525637 .07499695-.0107421879 .083999637-.0107421879 .099990848-.0107421879 .115997318 .0012512207 .12098694 .015258789L.13999939 .091278079 .1619873 .18130493C.16799927 .2033081 .17399597 .22531128 .1789856 .24832154 .18099976 .25431825 .18899536 .28733827 .18998719 .29333497 .19299317 .30233766 .22399903 .35835267 .2579956 .38536073 .27999879 .4013672 .31098939 .42037965 .35398866 .42037965 .39698792 .42037965 .4079895 .3863678 .4079895 .35035707 .4079895 .29634095 .36999513 .18730164 .34599305 .12628174 .33799745 .103271488 .33299256 .091278079 .33299256 .0712738 .33299256 .024261475 .36799623-.0107421879 .4149933-.0107421879 .5089874-.0107421879 .54599 .13528443 .54599 .14329529 .54599 .1532898 .5369873 .1532898 .5339966 .1532898 .5239868 .1532898 .5239868 .15029907 .5189972 .13528443 .5039978 .08227539 .47200013 .011245728 .4169922 .011245728 .3999939 .011245728 .3929901 .021255494 .3929901 .044265748 .3929901 .0692749 .4019928 .09327698 .41099549 .11528015 .4269867 .15829468 .47200013 .2773285 .47200013 .3353424 .47200013 .4003601 .43199159 .4423828 .35699464 .4423828 .2939911 .4423828 .24598694 .41137696 .20899964 .36535646L.2869873 .68333438Z"/>
<path id="font_3_5" d="M.28399659 .6252594C.28399659 .6452637 .269989 .6612549 .24699402 .6612549 .21998596 .6612549 .19299317 .6352539 .19299317 .6082611 .19299317 .5892639 .20698548 .5722656 .23098755 .5722656 .2539978 .5722656 .28399659 .5952606 .28399659 .6252594M.20799256 .24932862C.21998596 .27833558 .21998596 .28033448 .22999573 .30734254 .23799134 .3273468 .24299622 .34135438 .24299622 .36035157 .24299622 .405365 .21099854 .4423828 .16099549 .4423828 .066986087 .4423828 .0289917 .29733277 .0289917 .28833009 .0289917 .27833558 .038986207 .27833558 .040985109 .27833558 .050994874 .27833558 .051986696 .28033448 .056991579 .29634095 .083999637 .3903656 .12399292 .42037965 .1579895 .42037965 .1659851 .42037965 .18299866 .42037965 .18299866 .3883667 .18299866 .36735536 .17599488 .346344 .17199707 .3363495 .1639862 .31033326 .11898804 .19430542 .102996829 .1512909 .09298706 .12528992 .07998657 .0922699 .07998657 .0712738 .07998657 .024261475 .11399841-.0107421879 .1619873-.0107421879 .2559967-.0107421879 .29299928 .1342926 .29299928 .14329529 .29299928 .1532898 .28399659 .1532898 .2809906 .1532898 .2709961 .1532898 .2709961 .15029907 .2659912 .13528443 .24798584 .072265628 .21499634 .011245728 .1639862 .011245728 .14698792 .011245728 .13999939 .021255494 .13999939 .044265748 .13999939 .0692749 .1459961 .08326721 .16899109 .14428711L.20799256 .24932862Z"/>
<path id="font_3_3" d="M.47099305 .3773346C.47200013 .3833313 .47399903 .38833619 .47399903 .39535523 .47399903 .41236878 .46199037 .42237855 .44499208 .42237855 .43499757 .42237855 .4079895 .41537477 .4039917 .3793335 .38598634 .41636659 .35099793 .4423828 .31098939 .4423828 .19699097 .4423828 .07299805 .30226136 .07299805 .15812683 .07299805 .059020997 .13398743 0 .20599365 0 .2649994 0 .31199647 .04701233 .32199098 .058029176L.32299806 .057022096C.3019867-.031982423 .2899933-.07295227 .2899933-.07495117 .28599549-.08395386 .2519989-.18309021 .1459961-.18309021 .1269989-.18309021 .09399414-.18206787 .06599426-.17297364 .09599304-.16394043 .10699463-.13793946 .10699463-.12094116 .10699463-.10494995 .09599304-.0859375 .068984989-.0859375 .04699707-.0859375 .01499939-.10394287 .01499939-.14395142 .01499939-.18508911 .051986696-.20507813 .147995-.20507813 .272995-.20507813 .34498597-.12693787 .3600006-.06695557L.47099305 .3773346M.34098817 .12809754C.33499146 .10206604 .31199647 .077041629 .2899933 .058029176 .2689972 .040008546 .23799134 .021987915 .20899964 .021987915 .15899658 .021987915 .14399719 .074035648 .14399719 .11407471 .14399719 .16212464 .17298889 .28024293 .19999695 .33128358 .22698975 .38034059 .269989 .42037965 .31199647 .42037965 .37799073 .42037965 .3919983 .33929444 .3919983 .33428956 .3919983 .32928468 .3899994 .3232727 .3889923 .3192749L.34098817 .12809754Z"/>
<path id="font_3_10" d="M.20599365 .3996582H.2999878C.31999208 .3996582 .32998658 .3996582 .32998658 .41966249 .32998658 .43066407 .31999208 .43066407 .3019867 .43066407H.21398926C.25 .5724945 .25498963 .59246829 .25498963 .59846499 .25498963 .61546328 .24299622 .62545779 .22599793 .62545779 .22299195 .62545779 .19499207 .62446597 .18598938 .58947756L.14698792 .43066407H.052993776C.032989503 .43066407 .022994996 .43066407 .022994996 .4116516 .022994996 .3996582 .0309906 .3996582 .050994874 .3996582H.13899231C.066986087 .11608887 .06298828 .099121097 .06298828 .08114624 .06298828 .02722168 .100997928-.0107421879 .15499878-.0107421879 .25698854-.0107421879 .31399537 .13505554 .31399537 .14305115 .31399537 .1530304 .30599977 .1530304 .3019867 .1530304 .29299928 .1530304 .2919922 .15003968 .2869873 .13905335 .24398804 .035217287 .19099427 .011245728 .15699768 .011245728 .13598633 .011245728 .12599182 .024230957 .12599182 .057174684 .12599182 .08114624 .12799073 .088134769 .13198853 .10510254L.20599365 .3996582Z"/>
<path id="font_3_11" d="M.33399964 .30233766C.33999635 .32835389 .36299134 .42037965 .43299867 .42037965 .43798829 .42037965 .46199037 .42037965 .48298646 .40734864 .45498658 .402359 .43499757 .37734986 .43499757 .35334779 .43499757 .33735658 .44599916 .31835938 .47299195 .31835938 .49499513 .31835938 .5269928 .3363495 .5269928 .37635804 .5269928 .42837525 .46798707 .4423828 .43399049 .4423828 .37599183 .4423828 .34098817 .38935853 .32899476 .36634828 .3039856 .43237306 .25 .4423828 .22099304 .4423828 .116989139 .4423828 .05999756 .3133545 .05999756 .28834535 .05999756 .27833558 .069992069 .27833558 .07199097 .27833558 .07998657 .27833558 .08299255 .28033448 .084991458 .28933717 .11898804 .39535523 .18499756 .42037965 .21899414 .42037965 .23799134 .42037965 .272995 .4113617 .272995 .35334779 .272995 .32235719 .2559967 .25532533 .21899414 .11528015 .20298767 .053268434 .16799927 .011245728 .12399292 .011245728 .117996219 .011245728 .09498596 .011245728 .07398987 .024276734 .09899902 .029266358 .12098694 .05027771 .12098694 .07827759 .12098694 .105270389 .09899902 .11328125 .083999637 .11328125 .053985597 .11328125 .0289917 .08728027 .0289917 .055267335 .0289917 .009246826 .07899475-.0107421879 .12298584-.0107421879 .18899536-.0107421879 .22499085 .059280397 .22799683 .0652771 .23999024 .028274537 .27598573-.0107421879 .33599855-.0107421879 .43899537-.0107421879 .49598695 .118270877 .49598695 .14328003 .49598695 .1532898 .4869995 .1532898 .48399354 .1532898 .47499085 .1532898 .47299195 .14929199 .47099305 .14228821 .43798829 .03527832 .36999513 .011245728 .33799745 .011245728 .29899598 .011245728 .2829895 .043273927 .2829895 .07727051 .2829895 .09927368 .2889862 .121276859 .2999878 .16529846L.33399964 .30233766Z"/>
<path id="font_3_12" d="M.48599244 .38136292C.48999024 .39537049 .48999024 .39736939 .48999024 .40437318 .48999024 .42237855 .47599793 .43138124 .46099855 .43138124 .45098878 .43138124 .43499757 .42536927 .42599488 .41036988 .42399598 .405365 .41600038 .37435914 .4119873 .35635377 .40499879 .33035279 .397995 .30334474 .3919983 .27633668L.34700013 .09628296C.34298707 .08126831 .2999878 .011245728 .23399353 .011245728 .18299866 .011245728 .17199707 .055267335 .17199707 .0922699 .17199707 .1382904 .18899536 .20030213 .22299195 .28833009 .23899842 .3293457 .24299622 .3403473 .24299622 .36035157 .24299622 .405365 .21099854 .4423828 .16099549 .4423828 .06599426 .4423828 .0289917 .29733277 .0289917 .28833009 .0289917 .27833558 .038986207 .27833558 .040985109 .27833558 .050994874 .27833558 .051986696 .28033448 .056991579 .29634095 .083999637 .3903656 .12399292 .42037965 .1579895 .42037965 .1659851 .42037965 .18299866 .42037965 .18299866 .3883667 .18299866 .36335755 .17298889 .3373413 .1659851 .31834413 .12599182 .21231079 .10798645 .1552887 .10798645 .10827637 .10798645 .019256592 .17098999-.0107421879 .22999573-.0107421879 .2689972-.0107421879 .30299378 .0062561037 .33099366 .03425598 .31799317-.017745972 .30599977-.06674194 .2659912-.11973572 .23999024-.15385437 .20199585-.18309021 .1559906-.18309021 .14199829-.18309021 .09700012-.18005371 .07998657-.14074707 .09599304-.14074707 .10899353-.14074707 .12298584-.1287384 .1329956-.11973572 .14299011-.10673523 .14299011-.08773804 .14299011-.056747438 .115997318-.052734376 .10598755-.052734376 .08299255-.052734376 .049987794-.068740848 .049987794-.11773682 .049987794-.16796875 .09399414-.20507813 .1559906-.20507813 .25898744-.20507813 .3619995-.11373901 .3899994-.00074768069L.48599244 .38136292Z"/>
</defs>
<path transform="matrix(1,0,0,-1.00003,11.901001,136.2027)" stroke-width=".19925" stroke-linecap="butt" stroke-miterlimit="10" stroke-linejoin="miter" fill="none" stroke="#7f807f" d="M97.96686 7.45363V11.7054M187.02765 7.45363V11.7054M276.08845 7.45363V11.7054"/>
<path transform="matrix(1,0,0,-1.00003,11.901001,136.2027)" stroke-width=".19925" stroke-linecap="butt" stroke-miterlimit="10" stroke-linejoin="miter" fill="none" stroke="#7f807f" d="M6.78023 33.52834H11.0319M6.78023 57.47716H11.0319M6.78023 81.42596H11.0319M6.78023 105.37479H11.0319"/>
<path transform="matrix(1,0,0,-1.00003,11.901001,136.2027)" stroke-width=".3985" stroke-linecap="butt" stroke-miterlimit="10" stroke-linejoin="miter" fill="none" stroke="#000000" d="M0 9.57951H291.90809"/>
<path transform="matrix(1,0,0,-1.00003,303.80909,126.6229)" d="M1.99252 0-1.19551 1.59401 0 0-1.19551-1.59401"/>
<path transform="matrix(1,0,0,-1.00003,11.901001,136.2027)" stroke-width=".3985" stroke-linecap="butt" stroke-miterlimit="10" stroke-linejoin="miter" fill="none" stroke="#000000" d="M8.90607 0V122.54132"/>
<path transform="matrix(0,-1.00003,-1,-0,20.807072,13.657692)" d="M1.99252 0-1.19551 1.59401 0 0-1.19551-1.59401"/>
<use data-text="1" xlink:href="#font_1_2" transform="matrix(9.9626,0,0,-9.962899,102.396,138.68978)"/>
<use data-text="0" xlink:href="#font_1_1" transform="matrix(9.9626,0,0,-9.962899,107.377307,138.68978)"/>
<use data-text="0" xlink:href="#font_1_1" transform="matrix(9.9626,0,0,-9.962899,112.358608,138.68978)"/>
<use data-text="2" xlink:href="#font_1_3" transform="matrix(9.9626,0,0,-9.962899,191.457,138.68978)"/>
<use data-text="0" xlink:href="#font_1_1" transform="matrix(9.9626,0,0,-9.962899,196.4383,138.68978)"/>
<use data-text="0" xlink:href="#font_1_1" transform="matrix(9.9626,0,0,-9.962899,201.4196,138.68978)"/>
<use data-text="3" xlink:href="#font_1_4" transform="matrix(9.9626,0,0,-9.962899,280.517,138.68978)"/>
<use data-text="0" xlink:href="#font_1_1" transform="matrix(9.9626,0,0,-9.962899,285.4983,138.68978)"/>
<use data-text="0" xlink:href="#font_1_1" transform="matrix(9.9626,0,0,-9.962899,290.4796,138.68978)"/>
<use data-text="2" xlink:href="#font_1_3" transform="matrix(9.9626,0,0,-9.962899,5.1989977,105.88379)"/>
<use data-text="5" xlink:href="#font_1_5" transform="matrix(9.9626,0,0,-9.962899,10.180298,105.88379)"/>
<use data-text="5" xlink:href="#font_1_5" transform="matrix(9.9626,0,0,-9.962899,5.1989977,81.93407)"/>
<use data-text="0" xlink:href="#font_1_1" transform="matrix(9.9626,0,0,-9.962899,10.180298,81.93407)"/>
<use data-text="7" xlink:href="#font_1_7" transform="matrix(9.9626,0,0,-9.962899,5.1989977,57.984346)"/>
<use data-text="5" xlink:href="#font_1_5" transform="matrix(9.9626,0,0,-9.962899,10.180298,57.984346)"/>
<use data-text="1" xlink:href="#font_1_2" transform="matrix(9.9626,0,0,-9.962899,.21700287,34.03463)"/>
<use data-text="0" xlink:href="#font_1_1" transform="matrix(9.9626,0,0,-9.962899,5.198303,34.03463)"/>
<use data-text="0" xlink:href="#font_1_1" transform="matrix(9.9626,0,0,-9.962899,10.179604,34.03463)"/>
<g clip-path="url(#clip_2)">
<path transform="matrix(1,0,0,-1.00003,11.901001,136.2027)" stroke-width=".3985" stroke-linecap="butt" stroke-miterlimit="10" stroke-linejoin="miter" fill="none" stroke="#000000" d="M0 1.9159 .98944 2.76732 1.97891 3.61874 2.96838 4.47018 3.95784 5.32161 4.94731 6.17303 5.93678 7.02446 6.92624 7.8759 7.91571 8.72731 8.90518 9.57877 9.89464 10.43018 10.8841 11.2816 11.87358 12.13304 12.86304 12.98445 13.85251 13.83589 14.84198 14.68732 15.83144 15.53874 16.82089 16.39017 17.81036 17.24161 18.79982 18.09302 19.78929 18.94446 20.77876 19.79588 21.76822 20.64732 22.75769 21.49873 23.74716 22.35019 24.73662 23.2016 25.72609 24.05302 26.71556 24.90446 27.70502 25.75589 28.69449 26.60732 29.68396 27.45876 30.67342 28.31018 31.66289 29.16159 32.65234 30.01303 33.6418 30.86446 34.63127 31.71588 35.62074 32.5673 36.6102 33.41873 37.59967 34.27016 38.58914 35.1216 39.5786 35.97302 40.56807 36.82446 41.55754 37.67589 42.547 38.52733 43.53647 39.37874 44.52594 40.23018 45.5154 41.08159 46.50487 41.93303 47.49434 42.78445 48.4838 43.6359 49.47325 44.4873 50.46272 45.33875 51.45218 46.19017 52.44165 47.04158 53.43112 47.89304 54.42058 48.74445 55.41005 49.59587 56.39952 50.4473 57.38898 51.29874 58.37845 52.15016 59.36792 53.0016 60.35738 53.85303 61.34685 54.70445 62.33632 55.5559 63.32578 56.40732 64.31525 57.25873 65.3047 58.11017 66.29416 58.96158 67.28363 59.81302 68.2731 60.66444 69.26256 61.51588 70.25203 62.3673 71.2415 63.21873 72.23096 64.07016 73.22043 64.92159 74.2099 65.77303 75.19936 66.62444 76.18883 67.47588 77.1783 68.3273 78.16776 69.17874 79.15723 70.03015 80.1467 70.8816 81.13614 71.73302 82.12561 72.58444 83.11508 73.43588 84.10454 74.28731 85.09401 75.13872 86.08348 75.99016 87.07294 76.84158 88.06241 77.69301 89.05188 78.54445 90.04134 79.39589 91.0308 80.2473 92.02028 81.09874 93.00974 81.95016 93.9992 82.80157 94.98868 83.65302 95.97813 84.50444 96.96759 85.35587 97.95706 86.20729"/>
<path transform="matrix(1,0,0,-1.00003,11.901001,136.2027)" stroke-width=".3985" stroke-linecap="butt" stroke-dasharray="2.98883,2.98883" stroke-miterlimit="10" stroke-linejoin="miter" fill="none" stroke="#000000" d="M97.96686 86.21573 98.23671 86.44795 98.50658 86.68019 98.77644 86.91232 99.04631 87.14456 99.31616 87.3768 99.58603 87.60904 99.8559 87.84128 100.12576 88.0734 100.39561 88.30563 100.66547 88.53787 100.93533 88.77011 101.2052 89.00235 101.47507 89.23447 101.74492 89.4667 102.01479 89.69894 102.28465 89.93118 102.55453 90.16342 102.8244 90.39566 103.09424 90.62778 103.3641 90.86002 103.63397 91.09225 103.90384 91.3245 104.17369 91.55661 104.44356 91.78885 104.71342 92.02109 104.98329 92.25334 105.25316 92.48557 105.52301 92.7178 105.79288 92.94992 106.06273 93.18216 106.3326 93.4144 106.60245 93.64664 106.87231 93.87875 107.1422 94.11101 107.41206 94.34325 107.68193 94.57549 107.95178 94.80771 108.22165 95.03995 108.49152 95.27206 108.76138 95.5043 109.03122 95.73654 109.30109 95.9688 109.57095 96.20103 109.84082 96.43315 110.11069 96.66539 110.38054 96.89761 110.6504 97.12985 110.92027 97.36209 111.19014 97.59422 111.46 97.82646 111.72987 98.0587 111.99973 98.29094 112.26959 98.52318 112.53946 98.7553 112.80931 98.98753 113.07918 99.21976 113.34904 99.45201 113.61891 99.68425 113.88876 99.91649 114.15863 100.1486 114.4285 100.38084 114.69836 100.61308 114.96822 100.8453 115.23807 101.07744 115.50793 101.30968 115.77782 101.54192 116.04768 101.77415 116.31754 102.0064 116.5874 102.23863 116.85727 102.47075 117.12714 102.70299 117.397 102.93523 117.66684 103.16747 117.9367 103.3997 118.20657 103.63182 118.47644 103.86406 118.74629 104.0963 119.01616 104.32854 119.28603 104.56078 119.5559 104.7929 119.82576 105.02515 120.09561 105.25737 120.3655 105.48961 120.63535 105.72185 120.90521 105.95396 121.17506 106.1862 121.44493 106.41844 121.7148 106.65068 121.98466 106.88293 122.25453 107.11516 122.52438 107.34729 122.79425 107.57951 123.06412 107.81175 123.33398 108.04399 123.60382 108.27611 123.87369 108.50836 124.14355 108.7406 124.41342 108.97284 124.68329 109.20508"/>
<path transform="matrix(1,0,0,-1.00003,11.901001,136.2027)" stroke-width=".3985" stroke-linecap="butt" stroke-dasharray="2.98883,2.98883" stroke-miterlimit="10" stroke-linejoin="miter" fill="none" stroke="#000000" d="M71.24863 52.87898 71.5185 53.31915 71.78836 53.7572 72.05824 54.19315 72.3281 54.62698 72.59798 55.05872 72.86784 55.48831 73.13771 55.91582 73.4076 56.34123 73.67746 56.7645 73.94734 57.18567 74.21721 57.6047 74.48709 58.02167 74.75696 58.43651 75.02682 58.84924 75.29669 59.25984 75.56656 59.66833 75.83644 60.07474 76.10631 60.479 76.37619 60.88118 76.64606 61.28123 76.91592 61.6792 77.1858 62.07503 77.45569 62.46875 77.72556 62.86037 77.9954 63.2499 78.26529 63.63725 78.53516 64.02254 78.80502 64.40573 79.0749 64.78677 79.34479 65.16574 79.61464 65.54254 79.88452 65.91728 80.1544 66.2899 80.42429 66.66042 80.69414 67.0288 80.964 67.39508 81.23389 67.75926 81.50374 68.1213 81.77362 68.48126 82.0435 68.83911 82.31337 69.19482 82.58324 69.54842 82.85312 69.89995 83.123 70.24934 83.39285 70.59662 83.66273 70.94177 83.9326 71.28484 84.20247 71.6258 84.47234 71.96463 84.74222 72.30136 85.0121 72.63597 85.28195 72.96849 85.55183 73.29886 85.82172 73.62715 86.09158 73.95334 86.36145 74.27739 86.63132 74.59933 86.9012 74.91919 87.17105 75.2369 87.44093 75.55254 87.71082 75.86603 87.98068 76.17743 88.25055 76.4867 88.52043 76.79388 88.7903 77.09894 89.06018 77.40189 89.33005 77.70273 89.59991 78.00146 89.86978 78.29808 90.13965 78.59256 90.40953 78.88498 90.6794 79.17528 90.94928 79.46342 91.21915 79.74948 91.48903 80.03343 91.7589 80.31528 92.02876 80.595 92.29863 80.87263 92.5685 81.14815 92.83838 81.42154 93.10825 81.69281 93.37813 81.96198 93.648 82.22906 93.91788 82.49402 94.18774 82.75684 94.45761 83.01758 94.7275 83.27618 94.99736 83.53267 95.26723 83.78708 95.5371 84.03937 95.80696 84.28955 96.07684 84.53761 96.34671 84.78355 96.6166 85.02742 96.88646 85.26915 97.15633 85.50874 97.42621 85.74625 97.69609 85.98166 97.96594 86.21495"/>
<path transform="matrix(1,0,0,-1.00003,11.901001,136.2027)" stroke-width=".3985" stroke-linecap="butt" stroke-miterlimit="10" stroke-linejoin="miter" fill="none" stroke="#000000" d="M97.96686 86.21573 98.86636 86.978 99.76588 87.71692 100.66539 88.43216 101.56491 89.12419 102.46443 89.79279 103.36392 90.4377 104.26344 91.05928 105.16296 91.65753 106.06248 92.2321 106.96199 92.78336 107.86151 93.3111 108.76102 93.81544 109.66054 94.29634 110.56004 94.75374 111.45958 95.18765 112.35907 95.5982 113.25859 95.98528 114.15811 96.34879 115.05763 96.689 115.95714 97.00574 116.85666 97.29895 117.75616 97.56866 118.65569 97.81505 119.55519 98.03795 120.45473 98.23726 121.35422 98.41331 122.25374 98.56586 123.15326 98.6949 124.05278 98.80043 124.95229 98.88264 125.8518 98.94135 126.75131 98.97653 127.65083 98.98834 128.55034 98.97672 129.44988 98.94174 130.34937 98.8831 131.24889 98.80113 132.1484 98.69566 133.04792 98.56667 133.94744 98.4143 134.84694 98.2385 135.74646 98.03935 136.64597 97.81651 137.54549 97.57036 138.445 97.3007 139.34452 97.00772 140.24402 96.69118 141.14356 96.35118 142.04305 95.98767 142.94258 95.60085 143.84209 95.1905 144.74161 94.75667 145.64112 94.29932 146.54064 93.81865 147.44016 93.31442 148.33966 92.78691 149.23917 92.23573 150.1387 91.66139 151.0382 91.06337 151.93773 90.44185 152.83724 89.797 153.73676 89.12859 154.63626 88.43689 155.53578 87.7217 156.4353 86.983 157.33481 86.22081 158.23432 85.43527 159.13385 84.6262 160.03334 83.79366 160.93288 82.9376 161.83238 82.05824 162.7319 81.15538 163.63141 80.22916 164.53093 79.27945 165.43045 78.306 166.32994 77.3093 167.22946 76.28925 168.12899 75.2457 169.02849 74.17863 169.92801 73.08824 170.82753 71.97437 171.72704 70.83698 172.62656 69.67601 173.52606 68.49161 174.4256 67.28389 175.32509 66.05281 176.22461 64.79808 177.12413 63.52002 178.02364 62.21843 178.92316 60.8933 179.82268 59.54489 180.72217 58.17297 181.6217 56.77757 182.52121 55.35881 183.42075 53.91658 184.32024 52.45082 185.21976 50.96149 186.11928 49.44891 187.01879 47.91281"/>
<path transform="matrix(1,0,0,-1.00003,11.901001,136.2027)" stroke-width=".3985" stroke-linecap="butt" stroke-dasharray="2.98883,2.98883" stroke-miterlimit="10" stroke-linejoin="miter" fill="none" stroke="#000000" d="M187.02765 47.89763 187.20754 47.58745 187.38744 47.27638 187.56734 46.96469 187.74726 46.6517 187.92716 46.33784 188.10706 46.02312 188.28696 45.70732 188.46688 45.39066 188.64678 45.07335 188.82668 44.75475 189.00656 44.43527 189.18647 44.11475 189.36637 43.79335 189.54627 43.47107 189.72618 43.14796 189.90608 42.82393 190.08599 42.49867 190.26589 42.1727 190.4458 41.84569 190.6257 41.51761 190.80559 41.18909 190.98549 40.85927 191.1654 40.5284 191.3453 40.19681 191.5252 39.86418 191.70513 39.5305 191.88503 39.19635 192.06493 38.86092 192.24481 38.52441 192.42472 38.18706 192.60462 37.84882 192.78452 37.50993 192.96442 37.16975 193.14434 36.82872 193.32424 36.4866 193.50414 36.14363 193.68404 35.80002 193.86396 35.45528 194.04386 35.1095 194.22376 34.76266 194.40366 34.41513 194.58356 34.06653 194.76346 33.71707 194.94336 33.36679 195.12326 33.01538 195.30316 32.6631 195.48307 32.30977 195.66297 31.95557 195.84288 31.60031 196.02277 31.24458 196.20267 30.88759 196.38259 30.52951 196.56249 30.17058 196.74239 29.81076 196.92229 29.4503 197.1022 29.08855 197.2821 28.72594 197.462 28.36226 197.6419 27.99771 197.82181 27.63228 198.00171 27.2662 198.1816 26.89885 198.36151 26.53061 198.54141 26.16132 198.72132 25.79115 198.90122 25.41994 199.08113 25.04825 199.26103 24.67528 199.44094 24.30125 199.62082 23.92653 199.80074 23.55075 199.98064 23.17415 200.16054 22.79662 200.34046 22.41803 200.52036 22.03839 200.70026 21.65787 200.88016 21.27649 201.06008 20.89421 201.23995 20.51112 201.41985 20.12692 201.59975 19.74168 201.77967 19.35555 201.95957 18.96855 202.13947 18.58072 202.31937 18.19197 202.49929 17.80199 202.67919 17.4111 202.85909 17.01955 203.03899 16.62675 203.21889 16.2335 203.39879 15.83894 203.57869 15.44334 203.7586 15.04704 203.9385 14.64952 204.1184 14.25128 204.2983 13.85223 204.47821 13.45207 204.65811 13.05104 204.83802 12.64896"/>
<path transform="matrix(1,0,0,-1.00003,11.901001,136.2027)" stroke-width=".3985" stroke-linecap="butt" stroke-dasharray="2.98883,2.98883" stroke-miterlimit="10" stroke-linejoin="miter" fill="none" stroke="#000000" d="M160.30942 108.53603 160.57927 107.77695 160.84914 107.02063 161.119 106.26787 161.38886 105.518 161.6587 104.7708 161.92858 104.02675 162.19844 103.28568 162.4683 102.54796 162.73818 101.8128 163.00803 101.08038 163.2779 100.35127 163.54776 99.62523 163.81763 98.90227 164.08748 98.18208 164.35733 97.46495 164.6272 96.75061 164.89708 96.03961 165.16695 95.33113 165.4368 94.62645 165.70667 93.92409 165.97653 93.22478 166.2464 92.52844 166.51625 91.83556 166.78612 91.14534 167.05599 90.45792 167.32584 89.77365 167.5957 89.09247 167.86556 88.41385 168.13542 87.73897 168.40529 87.06639 168.67516 86.39726 168.945 85.73071 169.21488 85.0678 169.48476 84.4074 169.75463 83.75005 170.02448 83.09566 170.29433 82.44435 170.5642 81.79573 170.83406 81.15085 171.10393 80.50815 171.37378 79.86862 171.64365 79.23235 171.91352 78.59866 172.18338 77.96881 172.45325 77.34146 172.7231 76.71657 172.99295 76.09534 173.26282 75.47687 173.53269 74.8615 173.80255 74.24898 174.07242 73.63933 174.34229 73.03276 174.61215 72.42935 174.88202 71.829 175.15187 71.23132 175.42174 70.63655 175.6916 70.04529 175.96146 69.45634 176.23131 68.87094 176.50118 68.2886 176.77104 67.70905 177.04091 67.13206 177.31078 66.55864 177.58063 65.98827 177.8505 65.42068 178.12038 64.85588 178.39025 64.29413 178.6601 63.73546 178.92995 63.17984 179.19982 62.62749 179.46968 62.07762 179.73955 61.53091 180.0094 60.98717 180.27927 60.44632 180.54914 59.90901 180.819 59.374 181.08885 58.84222 181.35872 58.31352 181.62859 57.78761 181.89844 57.26515 182.1683 56.74527 182.43816 56.22836 182.70804 55.7146 182.9779 55.20372 183.24777 54.69621 183.51763 54.19145 183.78749 53.68921 184.05736 53.1905 184.32723 52.69466 184.59708 52.2018 184.86693 51.7123 185.1368 51.22507 185.40666 50.7412 185.67653 50.26031 185.94638 49.78287 186.21625 49.30743 186.48612 48.83545 186.75598 48.36684 187.02585 47.9005"/>
<path transform="matrix(1,0,0,-1.00003,11.901001,136.2027)" stroke-width=".3985" stroke-linecap="butt" stroke-miterlimit="10" stroke-linejoin="miter" fill="none" stroke="#000000" d="M187.02765 47.89763 188.10706 46.06372 189.18645 44.27798 190.26587 42.5397 191.34528 40.84949 192.42469 39.20755 193.50409 37.61295 194.58351 36.06613 195.6629 34.56743 196.74233 33.11661 197.82173 31.7133 198.90114 30.35788 199.98055 29.05067 201.05995 27.79077 202.13936 26.57935 203.21877 25.41504 204.29817 24.29921 205.37758 23.23082 206.457 22.2104 207.53639 21.2379 208.61582 20.31339 209.69522 19.43645 210.77463 18.60725 211.85404 17.82614 212.93344 17.09293 214.01285 16.40732 215.09226 15.7698 216.17166 15.18 217.25107 14.63797 218.33049 14.14386 219.40988 13.69746 220.4893 13.29922 221.56871 12.94882 222.64812 12.64592 223.72753 12.39081 224.80693 12.18398 225.88634 12.02477 226.96575 11.91328 228.04517 11.84995 229.12456 11.83424 230.20398 11.86633 231.28337 11.94633 232.3628 12.07402 233.4422 12.2499 234.5216 12.47359 235.60102 12.74487 236.68042 13.06406 237.75983 13.43124 238.83924 13.84595 239.91866 14.30873 240.99805 14.81952 242.07747 15.3779 243.15688 15.98439 244.23628 16.63829 245.31569 17.34038 246.3951 18.09006 247.4745 18.88756 248.55391 19.73323 249.63332 20.62643 250.71273 21.5678 251.79215 22.55681 252.87154 23.59358 253.95096 24.67838 255.03037 25.81107 256.10978 26.99136 257.18919 28.21954 258.2686 29.49564 259.348 30.81941 260.4274 32.1913 261.5068 33.6111 262.5862 35.07848 263.66563 36.59377 264.74504 38.15666 265.82447 39.76785 266.90385 41.42683 267.98326 43.13364 269.06269 44.88792 270.1421 46.6904 271.22148 48.54059 272.3009 50.4385 273.3803 52.38449 274.4597 54.37828 275.53913 56.41986 276.61854 58.50923 277.69795 60.64671 278.77735 62.83142 279.85676 65.06432 280.93617 67.34549 282.0156 69.674 283.09498 72.05048 284.17439 74.47487 285.25379 76.94725 286.3332 79.46724 287.4126 82.03503 288.492 84.65082 289.57145 87.3139 290.65083 90.0255 291.73027 92.7844 292.80967 95.59294 293.88908 98.4462"/>
<path transform="matrix(1,0,0,-1.00003,11.901001,136.2027)" stroke-width=".3985" stroke-linecap="butt" stroke-miterlimit="10" stroke-linejoin="miter" fill="none" stroke="#000000" d="M53.43646 47.89763"/>
<path transform="matrix(1,0,0,-1.00003,11.901001,136.2027)" stroke-width=".3985" stroke-linecap="butt" stroke-dasharray="2.98883,2.98883" stroke-miterlimit="10" stroke-linejoin="miter" fill="none" stroke="#000000" d="M97.96686 9.57951V86.21573"/>
<path transform="matrix(1,0,0,-1.00003,11.901001,136.2027)" stroke-width=".3985" stroke-linecap="butt" stroke-miterlimit="10" stroke-linejoin="miter" fill="none" stroke="#000000" d="M97.96686 86.21573"/>
<path transform="matrix(1,0,0,-1.00003,11.901001,136.2027)" stroke-width=".3985" stroke-linecap="butt" stroke-miterlimit="10" stroke-linejoin="miter" fill="none" stroke="#000000" d="M53.43646 38.3181"/>
<use data-text="s" xlink:href="#font_3_9" transform="matrix(7.403507,-6.666475,-6.6662747,-7.40373,49.04429,115.90546)"/>
<use data-text="l" xlink:href="#font_3_6" transform="matrix(7.403507,-6.666475,-6.6662747,-7.40373,52.509134,112.785549)"/>
<use data-text="o" xlink:href="#font_3_7" transform="matrix(7.403507,-6.666475,-6.6662747,-7.40373,54.85604,110.67227)"/>
<use data-text="p" xlink:href="#font_3_8" transform="matrix(7.403507,-6.666475,-6.6662747,-7.40373,58.439355,107.445697)"/>
<use data-text="e" xlink:href="#font_3_2" transform="matrix(7.403507,-6.666475,-6.6662747,-7.40373,62.163309,104.09246)"/>
<use data-text="=" xlink:href="#font_1_9" transform="matrix(7.403507,-6.666475,-6.6662747,-7.40373,67.686458,99.119159)"/>
<use data-text="0" xlink:href="#font_1_1" transform="matrix(7.403507,-6.666475,-6.6662747,-7.40373,75.48974,92.09269)"/>
<use data-text="." xlink:href="#font_3_1" transform="matrix(7.403507,-6.666475,-6.6662747,-7.40373,79.20348,88.748668)"/>
<use data-text="8" xlink:href="#font_1_8" transform="matrix(7.403507,-6.666475,-6.6662747,-7.40373,81.25973,86.89713)"/>
<path transform="matrix(1,0,0,-1.00003,11.901001,136.2027)" stroke-width=".3985" stroke-linecap="butt" stroke-miterlimit="10" stroke-linejoin="miter" fill="none" stroke="#000000" d="M187.02765 47.89763"/>
<path transform="matrix(1,0,0,-1.00003,11.901001,136.2027)" stroke-width=".3985" stroke-linecap="butt" stroke-dasharray="2.98883,2.98883" stroke-miterlimit="10" stroke-linejoin="miter" fill="none" stroke="#000000" d="M187.02765 9.57951V47.89763"/>
<path transform="matrix(1,0,0,-1.00003,11.901001,136.2027)" stroke-width=".3985" stroke-linecap="butt" stroke-miterlimit="10" stroke-linejoin="miter" fill="none" stroke="#000000" d="M195.93373 47.89763"/>
<use data-text="s" xlink:href="#font_3_9" transform="matrix(4.9813,8.628169,8.62791,-4.9814498,191.65706,65.26468)"/>
<use data-text="l" xlink:href="#font_3_6" transform="matrix(4.9813,8.628169,8.62791,-4.9814498,193.98831,69.30266)"/>
<use data-text="o" xlink:href="#font_3_7" transform="matrix(4.9813,8.628169,8.62791,-4.9814498,195.56739,72.037799)"/>
<use data-text="p" xlink:href="#font_3_8" transform="matrix(4.9813,8.628169,8.62791,-4.9814498,197.97834,76.21384)"/>
<use data-text="e" xlink:href="#font_3_2" transform="matrix(4.9813,8.628169,8.62791,-4.9814498,200.48392,80.5538)"/>
<use data-text="=" xlink:href="#font_1_9" transform="matrix(4.9813,8.628169,8.62791,-4.9814498,204.20006,86.990558)"/>
<use data-text="&#x2212;" xlink:href="#font_4_1" transform="matrix(4.9813,8.628169,8.62791,-4.9814498,209.45807,96.09801)"/>
<use data-text="1" xlink:href="#font_1_2" transform="matrix(4.9813,8.628169,8.62791,-4.9814498,213.33255,102.80907)"/>
<use data-text="." xlink:href="#font_3_1" transform="matrix(4.9813,8.628169,8.62791,-4.9814498,215.82355,107.123767)"/>
<use data-text="6" xlink:href="#font_1_6" transform="matrix(4.9813,8.628169,8.62791,-4.9814498,217.20706,109.52014)"/>
<path transform="matrix(1,0,0,-1.00003,11.901001,136.2027)" stroke-width=".3985" stroke-linecap="butt" stroke-miterlimit="10" stroke-linejoin="miter" fill="none" stroke="#000000" d="M276.08845 57.47716"/>
<use data-text="h" xlink:href="#font_3_4" transform="matrix(9.9626,0,0,-9.962899,229.647,81.21504)"/>
<use data-text="e" xlink:href="#font_3_2" transform="matrix(9.9626,0,0,-9.962899,235.38547,81.21504)"/>
<use data-text="i" xlink:href="#font_3_5" transform="matrix(9.9626,0,0,-9.962899,240.01807,81.21504)"/>
<use data-text="g" xlink:href="#font_3_3" transform="matrix(9.9626,0,0,-9.962899,243.44519,81.21504)"/>
<use data-text="h" xlink:href="#font_3_4" transform="matrix(9.9626,0,0,-9.962899,248.53609,81.21504)"/>
<use data-text="t" xlink:href="#font_3_10" transform="matrix(9.9626,0,0,-9.962899,254.27455,81.21504)"/>
<use data-text="=" xlink:href="#font_1_9" transform="matrix(9.9626,0,0,-9.962899,260.672,81.21504)"/>
<use data-text="5" xlink:href="#font_1_5" transform="matrix(9.9626,0,0,-9.962899,271.17259,81.21504)"/>
<use data-text="0" xlink:href="#font_1_1" transform="matrix(9.9626,0,0,-9.962899,276.15388,81.21504)"/>
</g>
<path transform="matrix(1,0,0,-1.00003,11.901001,136.2027)" d="M55.42902 47.89763C55.42902 48.9981 54.53694 49.89018 53.43646 49.89018 52.336 49.89018 51.44391 48.9981 51.44391 47.89763 51.44391 46.79715 52.336 45.90508 53.43646 45.90508 54.53694 45.90508 55.42902 46.79715 55.42902 47.89763ZM53.43646 47.89763"/>
<path transform="matrix(1,0,0,-1.00003,11.901001,136.2027)" stroke-width=".3985" stroke-linecap="butt" stroke-miterlimit="10" stroke-linejoin="miter" fill="none" stroke="#000000" d="M55.42902 47.89763C55.42902 48.9981 54.53694 49.89018 53.43646 49.89018 52.336 49.89018 51.44391 48.9981 51.44391 47.89763 51.44391 46.79715 52.336 45.90508 53.43646 45.90508 54.53694 45.90508 55.42902 46.79715 55.42902 47.89763ZM53.43646 47.89763"/>
<path transform="matrix(1,0,0,-1.00003,11.901001,136.2027)" stroke-width=".3985" stroke-linecap="butt" stroke-miterlimit="10" stroke-linejoin="miter" fill="none" stroke="#000000" d=""/>
<path transform="matrix(1,0,0,-1.00003,11.901001,136.2027)" d="M99.95941 86.21573C99.95941 87.31621 99.06734 88.20828 97.96686 88.20828 96.8664 88.20828 95.9743 87.31621 95.9743 86.21573 95.9743 85.11526 96.8664 84.22318 97.96686 84.22318 99.06734 84.22318 99.95941 85.11526 99.95941 86.21573ZM97.96686 86.21573"/>
<path transform="matrix(1,0,0,-1.00003,11.901001,136.2027)" stroke-width=".3985" stroke-linecap="butt" stroke-miterlimit="10" stroke-linejoin="miter" fill="none" stroke="#000000" d="M99.95941 86.21573C99.95941 87.31621 99.06734 88.20828 97.96686 88.20828 96.8664 88.20828 95.9743 87.31621 95.9743 86.21573 95.9743 85.11526 96.8664 84.22318 97.96686 84.22318 99.06734 84.22318 99.95941 85.11526 99.95941 86.21573ZM97.96686 86.21573"/>
<path transform="matrix(1,0,0,-1.00003,11.901001,136.2027)" stroke-width=".3985" stroke-linecap="butt" stroke-miterlimit="10" stroke-linejoin="miter" fill="none" stroke="#000000" d=""/>
<path transform="matrix(1,0,0,-1.00003,11.901001,136.2027)" d="M189.0202 47.89763C189.0202 48.9981 188.12813 49.89018 187.02765 49.89018 185.92719 49.89018 185.0351 48.9981 185.0351 47.89763 185.0351 46.79715 185.92719 45.90508 187.02765 45.90508 188.12813 45.90508 189.0202 46.79715 189.0202 47.89763ZM187.02765 47.89763"/>
<path transform="matrix(1,0,0,-1.00003,11.901001,136.2027)" stroke-width=".3985" stroke-linecap="butt" stroke-miterlimit="10" stroke-linejoin="miter" fill="none" stroke="#000000" d="M189.0202 47.89763C189.0202 48.9981 188.12813 49.89018 187.02765 49.89018 185.92719 49.89018 185.0351 48.9981 185.0351 47.89763 185.0351 46.79715 185.92719 45.90508 187.02765 45.90508 188.12813 45.90508 189.0202 46.79715 189.0202 47.89763ZM187.02765 47.89763"/>
<path transform="matrix(1,0,0,-1.00003,11.901001,136.2027)" stroke-width=".3985" stroke-linecap="butt" stroke-miterlimit="10" stroke-linejoin="miter" fill="none" stroke="#000000" d=""/>
<path transform="matrix(1,0,0,-1.00003,11.901001,136.2027)" d="M278.081 57.47716C278.081 58.57762 277.18894 59.46971 276.08845 59.46971 274.98799 59.46971 274.0959 58.57762 274.0959 57.47716 274.0959 56.37668 274.98799 55.4846 276.08845 55.4846 277.18894 55.4846 278.081 56.37668 278.081 57.47716ZM276.08845 57.47716"/>
<path transform="matrix(1,0,0,-1.00003,11.901001,136.2027)" stroke-width=".3985" stroke-linecap="butt" stroke-miterlimit="10" stroke-linejoin="miter" fill="none" stroke="#000000" d="M278.081 57.47716C278.081 58.57762 277.18894 59.46971 276.08845 59.46971 274.98799 59.46971 274.0959 58.57762 274.0959 57.47716 274.0959 56.37668 274.98799 55.4846 276.08845 55.4846 277.18894 55.4846 278.081 56.37668 278.081 57.47716ZM276.08845 57.47716"/>
<path transform="matrix(1,0,0,-1.00003,11.901001,136.2027)" stroke-width=".3985" stroke-linecap="butt" stroke-miterlimit="10" stroke-linejoin="miter" fill="none" stroke="#000000" d=""/>
<use data-text="x" xlink:href="#font_3_11" transform="matrix(9.9626,0,0,-9.962899,309.321,134.43265)"/>
<use data-text="y" xlink:href="#font_3_12" transform="matrix(9.9626,0,0,-9.962899,12.044998,6.207794)"/>
</svg>
