<svg xmlns="http://www.w3.org/2000/svg" xmlns:xlink="http://www.w3.org/1999/xlink" xmlns:inkscape="http://www.inkscape.org/namespaces/inkscape" version="1.1" width="136" height="123" viewBox="0 0 136 123">
<defs>
<path id="font_1_1" d="M.6589966 .23046875C.6759949 .23046875 .69400027 .23046875 .69400027 .25045777 .69400027 .27046205 .6759949 .27046205 .6589966 .27046205H.117996219C.100997928 .27046205 .08299255 .27046205 .08299255 .25045777 .08299255 .23046875 .100997928 .23046875 .117996219 .23046875H.6589966Z"/>
<path id="font_2_7" d="M.13198853 .327713V.35173036C.13198853 .6047821 .2559967 .64100649 .30699159 .64100649 .33099366 .64100649 .37298585 .634964 .394989 .6007538 .37998963 .6007538 .33999635 .6007538 .33999635 .5557556 .33999635 .524765 .3639984 .5097656 .38598634 .5097656 .4019928 .5097656 .43199159 .51875308 .43199159 .5577545 .43199159 .6178589 .3880005 .6660156 .30499269 .6660156 .1769867 .6660156 .041992189 .5367584 .041992189 .31570436 .041992189 .048553468 .1579895-.022460938 .25099183-.022460938 .3619995-.022460938 .45700074 .07156372 .45700074 .2036438 .45700074 .33070375 .36799623 .4267578 .25698854 .4267578 .18899536 .4267578 .1519928 .37573243 .13198853 .327713M.25099183 .0055389406C.18798828 .0055389406 .1579895 .06556702 .1519928 .080566409 .13398743 .127594 .13398743 .2076416 .13398743 .22564698 .13398743 .30369569 .1659851 .40374757 .2559967 .40374757 .27198792 .40374757 .31799317 .40374757 .34899903 .34172059 .36698915 .30470277 .36698915 .2536621 .36698915 .20463562 .36698915 .15661621 .36698915 .10658264 .34999085 .0705719 .31999208 .010528564 .27398683 .0055389406 .25099183 .0055389406Z"/>
<path id="font_2_6" d="M.2939911 .16503906V.07800293C.2939911 .041992189 .2919922 .0309906 .21798706 .0309906H.19699097V0C.23799134 .0029907227 .2899933 .0029907227 .33198548 .0029907227 .37399293 .0029907227 .4269867 .0029907227 .46798707 0V.0309906H.44699098C.37298585 .0309906 .37098695 .041992189 .37098695 .07800293V.16503906H.47099305V.19602967H.37098695V.65075686C.37098695 .67074587 .37098695 .6767578 .35499574 .6767578 .34599305 .6767578 .34298707 .6767578 .33499146 .66474917L.027999878 .19602967V.16503906H.2939911M.2999878 .19602967H.055999757L.2999878 .5688019V.19602967Z"/>
<path id="font_2_3" d="M.45999146 .31976319C.45999146 .39982606 .45498658 .47988893 .41999818 .5539398 .37399293 .65000918 .2919922 .6660156 .25 .6660156 .18998719 .6660156 .116989139 .64001467 .07598877 .54693606 .04399109 .47789 .038986207 .39982606 .038986207 .31976319 .038986207 .24472046 .042999269 .15464783 .083999637 .07859802 .1269989-.0024719239 .19999695-.022460938 .24899292-.022460938 .30299378-.022460938 .3789978-.0014648438 .4229889 .09359741 .45498658 .16265869 .45999146 .2407074 .45999146 .31976319M.24899292-.00047302247C.20999146-.00047302247 .15098572 .024551392 .1329956 .12062073 .12199402 .18066406 .12199402 .2727356 .12199402 .3317871 .12199402 .39582826 .12199402 .46188355 .12998963 .5159149 .14898682 .63500979 .22399903 .64401248 .24899292 .64401248 .28199769 .64401248 .34799195 .6259918 .36698915 .52693179 .3769989 .47088624 .3769989 .39482118 .3769989 .3317871 .3769989 .25672914 .3769989 .18867493 .3659973 .12461853 .35099793 .029556275 .2939911-.00047302247 .24899292-.00047302247Z"/>
<clipPath id="clip_3">
<path transform="matrix(1.00003,0,0,-1.00005,1.0405502,108.56978)" d="M0 0H125.23997V96.89893H0Z"/>
</clipPath>
<path id="font_2_1" d="M.33099366-.2400055C.33099366-.23701477 .33099366-.23500061 .31399537-.21800232 .18899536-.0920105 .15699768 .09700012 .15699768 .25 .15699768 .42399598 .19499207 .59799197 .31799317 .72299197 .33099366 .73498538 .33099366 .7369995 .33099366 .73999026 .33099366 .746994 .32699586 .75 .32099916 .75 .31098939 .75 .22099304 .6819916 .1619873 .5549927 .11099243 .44499208 .09899902 .33399964 .09899902 .25 .09899902 .17199707 .10998535 .050994874 .16499329-.06201172 .22499085-.18501282 .31098939-.25 .32099916-.25 .32699586-.25 .33099366-.24700928 .33099366-.2400055Z"/>
<path id="font_4_1" d="M.20298767 .0009918213C.20298767 .066986087 .17799378 .10598755 .13899231 .10598755 .10598755 .10598755 .085998538 .08099365 .085998538 .052993776 .085998538 .025985718 .10598755 0 .13899231 0 .15098572 0 .1639862 .0039978029 .17399597 .0129852299 .1769867 .01499939 .17799378 .015991211 .1789856 .015991211 .17999268 .015991211 .18099976 .01499939 .18099976 .0009918213 .18099976-.07316589 .1459961-.13328552 .11299133-.16635132 .101989749-.17736817 .101989749-.17936707 .101989749-.18237305 .101989749-.18936157 .10699463-.19335938 .11199951-.19335938 .12298584-.19335938 .20298767-.116256717 .20298767 .0009918213Z"/>
<path id="font_2_4" d="M.1269989 .07699585 .23298645 .18003845C.3889923 .31811524 .44898988 .3721466 .44898988 .47216798 .44898988 .5860901 .35899354 .6660156 .23699951 .6660156 .12399292 .6660156 .049987794 .57411196 .049987794 .48516847 .049987794 .4291687 .099990848 .4291687 .102996829 .4291687 .11999512 .4291687 .15499878 .44117738 .15499878 .48217774 .15499878 .5081787 .13699341 .5341797 .101989749 .5341797 .09399414 .5341797 .09199524 .5341797 .08898926 .5331726 .11199951 .59806826 .1659851 .63500979 .22399903 .63500979 .31498719 .63500979 .35798646 .5541382 .35798646 .47216798 .35798646 .39215089 .30799867 .31311036 .25299073 .25108338L.06098938 .036987306C.049987794 .025985718 .049987794 .023986817 .049987794 0H.42099L.44898988 .17404175H.42399598C.4189911 .14402771 .4119873 .1000061 .4019928 .084991458 .394989 .07699585 .32899476 .07699585 .30699159 .07699585H.1269989Z"/>
<path id="font_2_5" d="M.2899933 .35191346C.37199403 .37893678 .42999269 .4490509 .42999269 .52809146 .42999269 .6100464 .34199525 .6660156 .24598694 .6660156 .14498902 .6660156 .068984989 .60606387 .068984989 .53009036 .068984989 .49710084 .09098816 .47808839 .11999512 .47808839 .15098572 .47808839 .17098999 .50009158 .17098999 .5290985 .17098999 .57910159 .12399292 .57910159 .10899353 .57910159 .13999939 .62802127 .20599365 .64100649 .24198914 .64100649 .2829895 .64100649 .33799745 .6190338 .33799745 .5290985 .33799745 .51708987 .33599855 .45906068 .30999757 .4149933 .27999879 .36691285 .24598694 .36390687 .22099304 .36291505 .21299744 .36190797 .18899536 .35990907 .18199158 .35990907 .17399597 .35890199 .16699219 .35791017 .16699219 .3479004 .16699219 .33691407 .17399597 .33691407 .19099427 .33691407H.23498535C.31698609 .33691407 .35398866 .2686615 .35398866 .17037964 .35398866 .034469606 .2849884 .0055389406 .24099732 .0055389406 .19799805 .0055389406 .12298584 .022491456 .08799744 .08137512 .12298584 .07637024 .1539917 .09837341 .1539917 .1363678 .1539917 .17237854 .1269989 .19238281 .09799194 .19238281 .07398987 .19238281 .041992189 .17837525 .041992189 .1343689 .041992189 .043441774 .1349945-.022460938 .24398804-.022460938 .3659973-.022460938 .45700074 .06838989 .45700074 .17037964 .45700074 .252594 .3939972 .33088685 .2899933 .35191346Z"/>
<path id="font_2_2" d="M.2889862 .25C.2889862 .32798768 .27799989 .44898988 .22299195 .56199648 .16299439 .68499758 .07699585 .75 .066986087 .75 .06098938 .75 .056991579 .74598696 .056991579 .73999026 .056991579 .7369995 .056991579 .73498538 .07598877 .71699526 .17399597 .6179962 .23098755 .45899964 .23098755 .25 .23098755 .07899475 .19400025-.09700012 .069992069-.2230072 .056991579-.23500061 .056991579-.23701477 .056991579-.2400055 .056991579-.2460022 .06098938-.25 .066986087-.25 .07699585-.25 .16699219-.18200684 .22599793-.055007936 .2769928 .054992677 .2889862 .16600037 .2889862 .25Z"/>
<path id="font_2_8" d="M.47599793 .609375C.4850006 .6213684 .4850006 .62338259 .4850006 .64437869H.24198914C.11999512 .64437869 .117996219 .65737918 .11399841 .67637637H.08898926L.055999757 .4702301H.08099365C.083999637 .48625184 .09298706 .5493469 .10598755 .56137087 .11299133 .5673828 .19099427 .5673828 .20399475 .5673828H.41099549C.3999939 .5513611 .32099916 .4421997 .29899598 .40914918 .20899964 .27394105 .17599488 .1347351 .17599488 .032577516 .17599488 .022567749 .17599488-.022460938 .22200012-.022460938 .2679901-.022460938 .2679901 .022567749 .2679901 .032577516V.08366394C.2679901 .13873291 .2709961 .19381714 .2789917 .24790955 .2829895 .27093507 .29699708 .35707093 .34098817 .41915895L.47599793 .609375Z"/>
<path id="font_4_2" d="M.33399964 .30233766C.33999635 .32835389 .36299134 .42037965 .43299867 .42037965 .43798829 .42037965 .46199037 .42037965 .48298646 .40734864 .45498658 .402359 .43499757 .37734986 .43499757 .35334779 .43499757 .33735658 .44599916 .31835938 .47299195 .31835938 .49499513 .31835938 .5269928 .3363495 .5269928 .37635804 .5269928 .42837525 .46798707 .4423828 .43399049 .4423828 .37599183 .4423828 .34098817 .38935853 .32899476 .36634828 .3039856 .43237306 .25 .4423828 .22099304 .4423828 .116989139 .4423828 .05999756 .3133545 .05999756 .28834535 .05999756 .27833558 .069992069 .27833558 .07199097 .27833558 .07998657 .27833558 .08299255 .28033448 .084991458 .28933717 .11898804 .39535523 .18499756 .42037965 .21899414 .42037965 .23799134 .42037965 .272995 .4113617 .272995 .35334779 .272995 .32235719 .2559967 .25532533 .21899414 .11528015 .20298767 .053268434 .16799927 .011245728 .12399292 .011245728 .117996219 .011245728 .09498596 .011245728 .07398987 .024276734 .09899902 .029266358 .12098694 .05027771 .12098694 .07827759 .12098694 .105270389 .09899902 .11328125 .083999637 .11328125 .053985597 .11328125 .0289917 .08728027 .0289917 .055267335 .0289917 .009246826 .07899475-.0107421879 .12298584-.0107421879 .18899536-.0107421879 .22499085 .059280397 .22799683 .0652771 .23999024 .028274537 .27598573-.0107421879 .33599855-.0107421879 .43899537-.0107421879 .49598695 .118270877 .49598695 .14328003 .49598695 .1532898 .4869995 .1532898 .48399354 .1532898 .47499085 .1532898 .47299195 .14929199 .47099305 .14228821 .43798829 .03527832 .36999513 .011245728 .33799745 .011245728 .29899598 .011245728 .2829895 .043273927 .2829895 .07727051 .2829895 .09927368 .2889862 .121276859 .2999878 .16529846L.33399964 .30233766Z"/>
<path id="font_4_3" d="M.48599244 .38136292C.48999024 .39537049 .48999024 .39736939 .48999024 .40437318 .48999024 .42237855 .47599793 .43138124 .46099855 .43138124 .45098878 .43138124 .43499757 .42536927 .42599488 .41036988 .42399598 .405365 .41600038 .37435914 .4119873 .35635377 .40499879 .33035279 .397995 .30334474 .3919983 .27633668L.34700013 .09628296C.34298707 .08126831 .2999878 .011245728 .23399353 .011245728 .18299866 .011245728 .17199707 .055267335 .17199707 .0922699 .17199707 .1382904 .18899536 .20030213 .22299195 .28833009 .23899842 .3293457 .24299622 .3403473 .24299622 .36035157 .24299622 .405365 .21099854 .4423828 .16099549 .4423828 .06599426 .4423828 .0289917 .29733277 .0289917 .28833009 .0289917 .27833558 .038986207 .27833558 .040985109 .27833558 .050994874 .27833558 .051986696 .28033448 .056991579 .29634095 .083999637 .3903656 .12399292 .42037965 .1579895 .42037965 .1659851 .42037965 .18299866 .42037965 .18299866 .3883667 .18299866 .36335755 .17298889 .3373413 .1659851 .31834413 .12599182 .21231079 .10798645 .1552887 .10798645 .10827637 .10798645 .019256592 .17098999-.0107421879 .22999573-.0107421879 .2689972-.0107421879 .30299378 .0062561037 .33099366 .03425598 .31799317-.017745972 .30599977-.06674194 .2659912-.11973572 .23999024-.15385437 .20199585-.18309021 .1559906-.18309021 .14199829-.18309021 .09700012-.18005371 .07998657-.14074707 .09599304-.14074707 .10899353-.14074707 .12298584-.1287384 .1329956-.11973572 .14299011-.10673523 .14299011-.08773804 .14299011-.056747438 .115997318-.052734376 .10598755-.052734376 .08299255-.052734376 .049987794-.068740848 .049987794-.11773682 .049987794-.16796875 .09399414-.20507813 .1559906-.20507813 .25898744-.20507813 .3619995-.11373901 .3899994-.00074768069L.48599244 .38136292Z"/>
</defs>
<path transform="matrix(1.00003,0,0,-1.00005,1.0405502,108.56978)" stroke-width=".19925" stroke-linecap="butt" stroke-miterlimit="10" stroke-linejoin="miter" fill="none" stroke="#7f807f" d="M12.52399-2.12592V2.12592M112.71597-2.12592V2.12592"/>
<path transform="matrix(1.00003,0,0,-1.00005,1.0405502,108.56978)" stroke-width=".19925" stroke-linecap="butt" stroke-miterlimit="10" stroke-linejoin="miter" fill="none" stroke="#7f807f" d="M60.49413 22.60974H64.74582M60.49413 74.28917H64.74582"/>
<path transform="matrix(1.00003,0,0,-1.00005,1.0405502,108.56978)" stroke-width=".3985" stroke-linecap="butt" stroke-miterlimit="10" stroke-linejoin="miter" fill="none" stroke="#000000" d="M0 0H123.24745"/>
<path transform="matrix(1.00003,0,0,-1.00005,124.2917,108.56978)" d="M1.99252 0-1.19551 1.59401 0 0-1.19551-1.59401"/>
<path transform="matrix(1.00003,0,0,-1.00005,1.0405502,108.56978)" stroke-width=".3985" stroke-linecap="butt" stroke-miterlimit="10" stroke-linejoin="miter" fill="none" stroke="#000000" d="M62.61998 0V94.9064"/>
<path transform="matrix(0,-1.00005,-1.00003,-0,63.66241,13.658638)" d="M1.99252 0-1.19551 1.59401 0 0-1.19551-1.59401"/>
<use data-text="&#x2212;" xlink:href="#font_1_1" transform="matrix(9.962899,0,0,-9.963098,2.2175828,120.63638)"/>
<use data-text="6" xlink:href="#font_2_7" transform="matrix(9.962899,0,0,-9.963098,9.96682,120.63638)"/>
<use data-text="4" xlink:href="#font_2_6" transform="matrix(9.962899,0,0,-9.963098,14.948265,120.63638)"/>
<use data-text="0" xlink:href="#font_2_3" transform="matrix(9.962899,0,0,-9.963098,19.929718,120.63638)"/>
<use data-text="6" xlink:href="#font_2_7" transform="matrix(9.962899,0,0,-9.963098,106.28771,120.63638)"/>
<use data-text="4" xlink:href="#font_2_6" transform="matrix(9.962899,0,0,-9.963098,111.269168,120.63638)"/>
<use data-text="0" xlink:href="#font_2_3" transform="matrix(9.962899,0,0,-9.963098,116.25062,120.63638)"/>
<g clip-path="url(#clip_3)">
<path transform="matrix(1.00003,0,0,-1.00005,1.0405502,108.56978)" stroke-width=".3985" stroke-linecap="butt" stroke-miterlimit="10" stroke-linejoin="miter" fill="none" stroke="#000000" d="M12.52399 74.26704 13.536 72.1606 14.54802 70.10626 15.56004 68.08995 16.57205 66.12701 17.58406 64.19691 18.59608 62.31636 19.6081 60.4963 20.6201 58.69942 21.63214 56.96176 22.64415 55.2659 23.65616 53.60867 24.66818 51.99715 25.68019 50.44743 26.6922 48.92018 27.70422 47.4419 28.71625 46.01442 29.72826 44.61205 30.74028 43.27084 31.75229 41.97144 32.7643 40.71707 33.77632 39.502 34.78833 38.32748 35.80035 37.20314 36.81238 36.10065 37.82439 35.07353 38.83641 34.06758 39.84842 33.11444 40.86043 32.18451 41.87245 31.30725 42.88448 30.48671 43.89648 29.69572 44.90851 28.94919 45.92052 28.24896 46.93253 27.57643 47.94455 26.94765 48.95656 26.36392 49.96858 25.82397 50.9806 25.3284 51.99261 24.87917 53.00462 24.46988 54.01665 24.08627 55.02866 23.76323 56.04066 23.46396 57.0527 23.21487 58.06471 23.0231 59.07672 22.85449 60.08875 22.73026 61.10075 22.64597 62.11276 22.6015 63.12479 22.59726 64.13681 22.64142 65.14883 22.72382 66.16084 22.84804 67.17285 23.01471 68.18488 23.22969 69.19688 23.46202 70.20891 23.76128 71.22093 24.10304 72.23294 24.46599 73.24495 24.87271 74.25697 25.3432 75.26898 25.83682 76.28099 26.37875 77.29303 26.9457 78.30504 27.57193 79.31705 28.24706 80.32907 28.94276 81.34108 29.68933 82.35309 30.48026 83.36511 31.31755 84.37714 32.17996 85.38914 33.10799 86.40117 34.06567 87.41318 35.069 88.4252 36.1155 89.43721 37.19473 90.44922 38.31653 91.46124 39.49367 92.47327 40.7126 93.48528 41.9695 94.49728 43.26633 95.50931 44.61012 96.52132 46.00412 97.53334 47.43163 98.54536 48.90988 99.55737 50.44098 100.5694 51.99068 101.5814 53.60222 102.59343 55.26205 103.60544 56.95529 104.61745 58.69101 105.62949 60.48537 106.64148 62.30736 107.6535 64.18852 108.66551 66.12059 109.67754 68.08604 110.68954 70.10243 111.70157 72.15222 112.7136 74.25673"/>
<path transform="matrix(1.00003,0,0,-1.00005,1.0405502,108.56978)" stroke-width=".3985" stroke-linecap="butt" stroke-miterlimit="10" stroke-linejoin="miter" fill="none" stroke="#000000" d="M0 22.60974H1.26491 2.52983 3.79475 5.05968 6.3246 7.58952 8.85445 10.11937 11.3843 12.64922 13.91414 15.17906 16.44398 17.7089 18.97383 20.23875 21.50368 22.7686 24.03351 25.29845 26.56337 27.8283 29.0932 30.35812 31.62306 32.88799 34.15291 35.41782 36.68274 37.94768 39.2126 40.47751 41.74243 43.00735 44.2723 45.53722 46.80212 48.06705 49.33199 50.59691 51.86182 53.12674 54.39166 55.6566 56.92152 58.18643 59.45135 60.71628 61.98122 63.24614 64.51105 65.77597 67.0409 68.30583 69.57074 70.83566 72.10059 73.36551 74.63045 75.89536 77.16028 78.4252 79.69011 80.95505 82.21999 83.4849 84.74982 86.01472 87.27966 88.54459 89.80951 91.07442 92.33934 93.60428 94.86919 96.13412 97.39905 98.66397 99.9289 101.19382 102.45872 103.72365 104.98859 106.25351 107.51843 108.78336 110.04826 111.3132 112.57813 113.84305 115.10797 116.37288 117.63782 118.90273 120.16766 121.43259 122.6975 123.96243 125.22736"/>
<path transform="matrix(1.00003,0,0,-1.00005,1.0405502,108.56978)" stroke-width=".3985" stroke-linecap="butt" stroke-miterlimit="10" stroke-linejoin="miter" fill="none" stroke="#000000" d="M12.52399 74.28917"/>
<path transform="matrix(1.00003,0,0,-1.00005,1.0405502,108.56978)" stroke-width=".3985" stroke-linecap="butt" stroke-miterlimit="10" stroke-linejoin="miter" fill="none" stroke="#000000" d="M12.52399 74.28917"/>
<use data-text="(" xlink:href="#font_2_1" transform="matrix(9.962899,0,0,-9.963098,17.08503,28.265763)"/>
<use data-text="&#x2212;" xlink:href="#font_1_1" transform="matrix(9.962899,0,0,-9.963098,20.959153,28.265763)"/>
<use data-text="6" xlink:href="#font_2_7" transform="matrix(9.962899,0,0,-9.963098,28.708382,28.265763)"/>
<use data-text="4" xlink:href="#font_2_6" transform="matrix(9.962899,0,0,-9.963098,33.689836,28.265763)"/>
<use data-text="0" xlink:href="#font_2_3" transform="matrix(9.962899,0,0,-9.963098,38.67128,28.265763)"/>
<use data-text="," xlink:href="#font_4_1" transform="matrix(9.962899,0,0,-9.963098,43.652833,28.265763)"/>
<use data-text="2" xlink:href="#font_2_4" transform="matrix(9.962899,0,0,-9.963098,48.080965,28.265763)"/>
<use data-text="3" xlink:href="#font_2_5" transform="matrix(9.962899,0,0,-9.963098,53.062417,28.265763)"/>
<use data-text="0" xlink:href="#font_2_3" transform="matrix(9.962899,0,0,-9.963098,58.043855,28.265763)"/>
<use data-text=")" xlink:href="#font_2_2" transform="matrix(9.962899,0,0,-9.963098,63.0253,28.265763)"/>
<path transform="matrix(1.00003,0,0,-1.00005,1.0405502,108.56978)" stroke-width=".3985" stroke-linecap="butt" stroke-miterlimit="10" stroke-linejoin="miter" fill="none" stroke="#000000" d="M112.71597 74.28917"/>
<path transform="matrix(1.00003,0,0,-1.00005,1.0405502,108.56978)" stroke-width=".3985" stroke-linecap="butt" stroke-miterlimit="10" stroke-linejoin="miter" fill="none" stroke="#000000" d="M112.71597 74.28917"/>
<use data-text="(" xlink:href="#font_2_1" transform="matrix(9.962899,0,0,-9.963098,68.17356,28.265763)"/>
<use data-text="6" xlink:href="#font_2_7" transform="matrix(9.962899,0,0,-9.963098,72.03917,28.265763)"/>
<use data-text="4" xlink:href="#font_2_6" transform="matrix(9.962899,0,0,-9.963098,77.020618,28.265763)"/>
<use data-text="0" xlink:href="#font_2_3" transform="matrix(9.962899,0,0,-9.963098,82.00207,28.265763)"/>
<use data-text="," xlink:href="#font_4_1" transform="matrix(9.962899,0,0,-9.963098,86.99213,28.265763)"/>
<use data-text="2" xlink:href="#font_2_4" transform="matrix(9.962899,0,0,-9.963098,91.420269,28.265763)"/>
<use data-text="3" xlink:href="#font_2_5" transform="matrix(9.962899,0,0,-9.963098,96.40171,28.265763)"/>
<use data-text="0" xlink:href="#font_2_3" transform="matrix(9.962899,0,0,-9.963098,101.38316,28.265763)"/>
<use data-text=")" xlink:href="#font_2_2" transform="matrix(9.962899,0,0,-9.963098,106.36462,28.265763)"/>
<path transform="matrix(1.00003,0,0,-1.00005,1.0405502,108.56978)" stroke-width=".3985" stroke-linecap="butt" stroke-miterlimit="10" stroke-linejoin="miter" fill="none" stroke="#000000" d="M62.61998 22.60974"/>
<path transform="matrix(1.00003,0,0,-1.00005,1.0405502,108.56978)" stroke-width=".3985" stroke-linecap="butt" stroke-miterlimit="10" stroke-linejoin="miter" fill="none" stroke="#000000" d="M62.61998 22.60974"/>
<use data-text="(" xlink:href="#font_2_1" transform="matrix(9.962899,0,0,-9.963098,50.102025,96.9512)"/>
<use data-text="0" xlink:href="#font_2_3" transform="matrix(9.962899,0,0,-9.963098,53.967634,96.9512)"/>
<use data-text="," xlink:href="#font_4_1" transform="matrix(9.962899,0,0,-9.963098,58.957288,96.9512)"/>
<use data-text="7" xlink:href="#font_2_8" transform="matrix(9.962899,0,0,-9.963098,63.385427,96.9512)"/>
<use data-text="0" xlink:href="#font_2_3" transform="matrix(9.962899,0,0,-9.963098,68.36687,96.9512)"/>
<use data-text=")" xlink:href="#font_2_2" transform="matrix(9.962899,0,0,-9.963098,73.34833,96.9512)"/>
<path transform="matrix(1.00003,0,0,-1.00005,1.0405502,108.56978)" stroke-width=".3985" stroke-linecap="butt" stroke-dasharray="2.98883,2.98883" stroke-miterlimit="10" stroke-linejoin="miter" fill="none" stroke="#000000" d="M12.52399 0V74.28917"/>
<path transform="matrix(1.00003,0,0,-1.00005,1.0405502,108.56978)" stroke-width=".3985" stroke-linecap="butt" stroke-dasharray="2.98883,2.98883" stroke-miterlimit="10" stroke-linejoin="miter" fill="none" stroke="#000000" d="M112.71597 0V74.28917"/>
</g>
<path transform="matrix(1.00003,0,0,-1.00005,1.0405502,108.56978)" d="M14.51654 74.28917C14.51654 75.38965 13.62447 76.28172 12.52399 76.28172 11.42352 76.28172 10.53143 75.38965 10.53143 74.28917 10.53143 73.1887 11.42352 72.29662 12.52399 72.29662 13.62447 72.29662 14.51654 73.1887 14.51654 74.28917ZM12.52399 74.28917"/>
<path transform="matrix(1.00003,0,0,-1.00005,1.0405502,108.56978)" stroke-width=".3985" stroke-linecap="butt" stroke-miterlimit="10" stroke-linejoin="miter" fill="none" stroke="#000000" d="M14.51654 74.28917C14.51654 75.38965 13.62447 76.28172 12.52399 76.28172 11.42352 76.28172 10.53143 75.38965 10.53143 74.28917 10.53143 73.1887 11.42352 72.29662 12.52399 72.29662 13.62447 72.29662 14.51654 73.1887 14.51654 74.28917ZM12.52399 74.28917"/>
<path transform="matrix(1.00003,0,0,-1.00005,1.0405502,108.56978)" stroke-width=".3985" stroke-linecap="butt" stroke-miterlimit="10" stroke-linejoin="miter" fill="none" stroke="#000000" d=""/>
<path transform="matrix(1.00003,0,0,-1.00005,1.0405502,108.56978)" d="M114.70853 74.28917C114.70853 75.38965 113.81645 76.28172 112.71597 76.28172 111.61551 76.28172 110.72342 75.38965 110.72342 74.28917 110.72342 73.1887 111.61551 72.29662 112.71597 72.29662 113.81645 72.29662 114.70853 73.1887 114.70853 74.28917ZM112.71597 74.28917"/>
<path transform="matrix(1.00003,0,0,-1.00005,1.0405502,108.56978)" stroke-width=".3985" stroke-linecap="butt" stroke-miterlimit="10" stroke-linejoin="miter" fill="none" stroke="#000000" d="M114.70853 74.28917C114.70853 75.38965 113.81645 76.28172 112.71597 76.28172 111.61551 76.28172 110.72342 75.38965 110.72342 74.28917 110.72342 73.1887 111.61551 72.29662 112.71597 72.29662 113.81645 72.29662 114.70853 73.1887 114.70853 74.28917ZM112.71597 74.28917"/>
<path transform="matrix(1.00003,0,0,-1.00005,1.0405502,108.56978)" stroke-width=".3985" stroke-linecap="butt" stroke-miterlimit="10" stroke-linejoin="miter" fill="none" stroke="#000000" d=""/>
<path transform="matrix(1.00003,0,0,-1.00005,1.0405502,108.56978)" d="M64.61253 22.60974C64.61253 23.71022 63.72046 24.6023 62.61998 24.6023 61.51952 24.6023 60.62743 23.71022 60.62743 22.60974 60.62743 21.50928 61.51952 20.61719 62.61998 20.61719 63.72046 20.61719 64.61253 21.50928 64.61253 22.60974ZM62.61998 22.60974"/>
<path transform="matrix(1.00003,0,0,-1.00005,1.0405502,108.56978)" stroke-width=".3985" stroke-linecap="butt" stroke-miterlimit="10" stroke-linejoin="miter" fill="none" stroke="#000000" d="M64.61253 22.60974C64.61253 23.71022 63.72046 24.6023 62.61998 24.6023 61.51952 24.6023 60.62743 23.71022 60.62743 22.60974 60.62743 21.50928 61.51952 20.61719 62.61998 20.61719 63.72046 20.61719 64.61253 21.50928 64.61253 22.60974ZM62.61998 22.60974"/>
<path transform="matrix(1.00003,0,0,-1.00005,1.0405502,108.56978)" stroke-width=".3985" stroke-linecap="butt" stroke-miterlimit="10" stroke-linejoin="miter" fill="none" stroke="#000000" d=""/>
<use data-text="x" xlink:href="#font_4_2" transform="matrix(9.962899,0,0,-9.963098,129.80442,116.379169)"/>
<use data-text="y" xlink:href="#font_4_3" transform="matrix(9.962899,0,0,-9.963098,54.90017,6.208664)"/>
</svg>
