<svg xmlns="http://www.w3.org/2000/svg" xmlns:xlink="http://www.w3.org/1999/xlink" xmlns:inkscape="http://www.inkscape.org/namespaces/inkscape" version="1.1" width="229" height="193" viewBox="0 0 229 193">
<defs>
<path id="font_1_1" d="M.23098755 .35134889C.23599243 .37236024 .24598694 .41036988 .24598694 .41537477 .24598694 .43237306 .23399353 .4423828 .21699524 .4423828 .21398926 .4423828 .18598938 .44137574 .1769867 .40637208L.032989503-.17282105C.02999878-.18482971 .02999878-.18682862 .02999878-.18882752 .02999878-.2038269 .040985109-.21582031 .057998659-.21582031 .07899475-.21582031 .09098816-.1978302 .09298706-.19482422 .09700012-.18582154 .10998535-.13380432 .147995 .020248414 .17999268-.0067443849 .22499085-.0107421879 .24499512-.0107421879 .31498719-.0107421879 .35398866 .03425598 .37799073 .06227112 .3869934 .01725769 .42399598-.0107421879 .46798707-.0107421879 .5029907-.0107421879 .526001 .012252808 .5419922 .044265748 .5589905 .08027649 .57199099 .14129639 .57199099 .14329529 .57199099 .1532898 .5629883 .1532898 .55999758 .1532898 .5499878 .1532898 .548996 .14929199 .54599 .13528443 .5289917 .07026672 .5109863 .011245728 .46998597 .011245728 .44299317 .011245728 .43998719 .037261964 .43998719 .057266237 .43998719 .07926941 .45199586 .12628174 .45999146 .16130066L.48799134 .2693329C.4909973 .28433229 .5009918 .32234193 .5049896 .3373413 .5099945 .36035157 .519989 .3983612 .519989 .40437318 .519989 .42237855 .5059967 .43138124 .4909973 .43138124 .48599244 .43138124 .45999146 .43037416 .45199586 .3963623L.40499879 .20930481C.3929901 .15930176 .38198854 .11727905 .3789978 .107284549 .37799073 .10227966 .32998658 .011245728 .24899292 .011245728 .19898987 .011245728 .1749878 .044265748 .1749878 .09828186 .1749878 .12728882 .18199158 .1552887 .18899536 .18330384L.23098755 .35134889Z"/>
<path id="font_2_1" d="M.6589966 .23046875C.6759949 .23046875 .69400027 .23046875 .69400027 .25045777 .69400027 .27046205 .6759949 .27046205 .6589966 .27046205H.117996219C.100997928 .27046205 .08299255 .27046205 .08299255 .25045777 .08299255 .23046875 .100997928 .23046875 .117996219 .23046875H.6589966Z"/>
<path id="font_3_4" d="M.1269989 .07699585 .23298645 .18003845C.3889923 .31811524 .44898988 .3721466 .44898988 .47216798 .44898988 .5860901 .35899354 .6660156 .23699951 .6660156 .12399292 .6660156 .049987794 .57411196 .049987794 .48516847 .049987794 .4291687 .099990848 .4291687 .102996829 .4291687 .11999512 .4291687 .15499878 .44117738 .15499878 .48217774 .15499878 .5081787 .13699341 .5341797 .101989749 .5341797 .09399414 .5341797 .09199524 .5341797 .08898926 .5331726 .11199951 .59806826 .1659851 .63500979 .22399903 .63500979 .31498719 .63500979 .35798646 .5541382 .35798646 .47216798 .35798646 .39215089 .30799867 .31311036 .25299073 .25108338L.06098938 .036987306C.049987794 .025985718 .049987794 .023986817 .049987794 0H.42099L.44898988 .17404175H.42399598C.4189911 .14402771 .4119873 .1000061 .4019928 .084991458 .394989 .07699585 .32899476 .07699585 .30699159 .07699585H.1269989Z"/>
<path id="font_1_2" d="M.5179901 .37265016C.5309906 .37265016 .5669861 .37265016 .5669861 .406662 .5669861 .43066407 .54599 .43066407 .5279999 .43066407H.2999878C.14898682 .43066407 .037994386 .26583863 .037994386 .14703369 .037994386 .059173585 .09700012-.0107421879 .18798828-.0107421879 .30599977-.0107421879 .43899537 .11009216 .43899537 .26383973 .43899537 .2808075 .43899537 .32873536 .4079895 .37265016H.5179901M.18899536 .011245728C.13999939 .011245728 .099990848 .047195436 .099990848 .11907959 .099990848 .14901734 .11199951 .230896 .14698792 .28979493 .18899536 .3586731 .24899292 .37265016 .2829895 .37265016 .36698915 .37265016 .375 .3067627 .375 .27581788 .375 .2288971 .35499574 .14703369 .32099916 .09611511 .28199769 .037200929 .22799683 .011245728 .18899536 .011245728Z"/>
<path id="font_3_3" d="M.40899659 .23046875H.6879883C.70199587 .23046875 .72099307 .23046875 .72099307 .25045777 .72099307 .27046205 .70199587 .27046205 .6879883 .27046205H.40899659V.5500183C.40899659 .56399539 .40899659 .5830078 .3889923 .5830078 .36898805 .5830078 .36898805 .56399539 .36898805 .5500183V.27046205H.08898926C.07499695 .27046205 .055999757 .27046205 .055999757 .25045777 .055999757 .23046875 .07499695 .23046875 .08898926 .23046875H.36898805V-.05000305C.36898805-.06401062 .36898805-.08300781 .3889923-.08300781 .40899659-.08300781 .40899659-.06401062 .40899659-.05000305V.23046875Z"/>
<clipPath id="clip_4">
<path transform="matrix(1.00003,0,0,-1.00002,24.130272,176.79927)" d="M0 0H194.27399V161.39575H0Z"/>
</clipPath>
<path id="font_1_4" d="M.33399964 .30233766C.33999635 .32835389 .36299134 .42037965 .43299867 .42037965 .43798829 .42037965 .46199037 .42037965 .48298646 .40734864 .45498658 .402359 .43499757 .37734986 .43499757 .35334779 .43499757 .33735658 .44599916 .31835938 .47299195 .31835938 .49499513 .31835938 .5269928 .3363495 .5269928 .37635804 .5269928 .42837525 .46798707 .4423828 .43399049 .4423828 .37599183 .4423828 .34098817 .38935853 .32899476 .36634828 .3039856 .43237306 .25 .4423828 .22099304 .4423828 .116989139 .4423828 .05999756 .3133545 .05999756 .28834535 .05999756 .27833558 .069992069 .27833558 .07199097 .27833558 .07998657 .27833558 .08299255 .28033448 .084991458 .28933717 .11898804 .39535523 .18499756 .42037965 .21899414 .42037965 .23799134 .42037965 .272995 .4113617 .272995 .35334779 .272995 .32235719 .2559967 .25532533 .21899414 .11528015 .20298767 .053268434 .16799927 .011245728 .12399292 .011245728 .117996219 .011245728 .09498596 .011245728 .07398987 .024276734 .09899902 .029266358 .12098694 .05027771 .12098694 .07827759 .12098694 .105270389 .09899902 .11328125 .083999637 .11328125 .053985597 .11328125 .0289917 .08728027 .0289917 .055267335 .0289917 .009246826 .07899475-.0107421879 .12298584-.0107421879 .18899536-.0107421879 .22499085 .059280397 .22799683 .0652771 .23999024 .028274537 .27598573-.0107421879 .33599855-.0107421879 .43899537-.0107421879 .49598695 .118270877 .49598695 .14328003 .49598695 .1532898 .4869995 .1532898 .48399354 .1532898 .47499085 .1532898 .47299195 .14929199 .47099305 .14228821 .43798829 .03527832 .36999513 .011245728 .33799745 .011245728 .29899598 .011245728 .2829895 .043273927 .2829895 .07727051 .2829895 .09927368 .2889862 .121276859 .2999878 .16529846L.33399964 .30233766Z"/>
<path id="font_1_3" d="M.36698915 .3996582H.45298768C.47299195 .3996582 .48298646 .3996582 .48298646 .41966249 .48298646 .43066407 .47299195 .43066407 .45599366 .43066407H.37298585L.3939972 .5449524C.397995 .5660095 .4119873 .6370239 .41799928 .6490326 .4269867 .66804507 .44400025 .68307498 .46499635 .68307498 .46899415 .68307498 .49499513 .68307498 .5139923 .66503909 .46998597 .661026 .45999146 .6260376 .45999146 .6110382 .45999146 .58802798 .47799684 .57603457 .49699403 .57603457 .522995 .57603457 .5519867 .5980377 .5519867 .6360321 .5519867 .6820679 .5059967 .7050781 .46499635 .7050781 .43099977 .7050781 .36799623 .68707278 .33799745 .58802798 .33198548 .56700137 .32899476 .5569763 .30499269 .43066407H.23599243C.21699524 .43066407 .20599365 .43066407 .20599365 .4116516 .20599365 .3996582 .21499634 .3996582 .23399353 .3996582H.2999878L.22499085 .0048828127C.20698548-.09207153 .18998719-.18309021 .13798523-.18309021 .13398743-.18309021 .10899353-.18309021 .08999634-.16506958 .13598633-.1620636 .14498902-.12606812 .14498902-.111068729 .14498902-.08807373 .1269989-.07606506 .10798645-.07606506 .08198547-.07606506 .052993776-.09806824 .052993776-.13606262 .052993776-.18109131 .09700012-.20507813 .13798523-.20507813 .19299317-.20507813 .23298645-.14607239 .25099183-.108062747 .2829895-.04508972 .30599977 .07583618 .30699159 .082839969L.36698915 .3996582Z"/>
<path id="font_3_1" d="M.33099366-.2400055C.33099366-.23701477 .33099366-.23500061 .31399537-.21800232 .18899536-.0920105 .15699768 .09700012 .15699768 .25 .15699768 .42399598 .19499207 .59799197 .31799317 .72299197 .33099366 .73498538 .33099366 .7369995 .33099366 .73999026 .33099366 .746994 .32699586 .75 .32099916 .75 .31098939 .75 .22099304 .6819916 .1619873 .5549927 .11099243 .44499208 .09899902 .33399964 .09899902 .25 .09899902 .17199707 .10998535 .050994874 .16499329-.06201172 .22499085-.18501282 .31098939-.25 .32099916-.25 .32699586-.25 .33099366-.24700928 .33099366-.2400055Z"/>
<path id="font_3_2" d="M.2889862 .25C.2889862 .32798768 .27799989 .44898988 .22299195 .56199648 .16299439 .68499758 .07699585 .75 .066986087 .75 .06098938 .75 .056991579 .74598696 .056991579 .73999026 .056991579 .7369995 .056991579 .73498538 .07598877 .71699526 .17399597 .6179962 .23098755 .45899964 .23098755 .25 .23098755 .07899475 .19400025-.09700012 .069992069-.2230072 .056991579-.23500061 .056991579-.23701477 .056991579-.2400055 .056991579-.2460022 .06098938-.25 .066986087-.25 .07699585-.25 .16699219-.18200684 .22599793-.055007936 .2769928 .054992677 .2889862 .16600037 .2889862 .25Z"/>
</defs>
<path transform="matrix(1.00003,0,0,-1.00002,24.130272,176.79927)" stroke-width=".19925" stroke-linecap="butt" stroke-miterlimit="10" stroke-linejoin="miter" fill="none" stroke="#7f807f" d="M32.379-2.12585V2.12585M64.758-2.12585V2.12585M97.137-2.12585V2.12585M129.51599-2.12585V2.12585M161.89499-2.12585V2.12585"/>
<path transform="matrix(1.00003,0,0,-1.00002,24.130272,176.79927)" stroke-width=".19925" stroke-linecap="butt" stroke-miterlimit="10" stroke-linejoin="miter" fill="none" stroke="#7f807f" d=""/>
<path transform="matrix(1.00003,0,0,-1.00002,24.130272,176.79927)" stroke-width=".3985" stroke-linecap="butt" stroke-miterlimit="10" stroke-linejoin="miter" fill="none" stroke="#000000" d="M0 0H192.28145"/>
<path transform="matrix(1.00003,0,0,-1.00002,216.41751,176.79927)" d="M1.99252 0-1.19551 1.59401 0 0-1.19551-1.59401"/>
<path transform="matrix(1.00003,0,0,-1.00002,24.130272,176.79927)" stroke-width=".3985" stroke-linecap="butt" stroke-miterlimit="10" stroke-linejoin="miter" fill="none" stroke="#000000" d="M0 0V159.40323"/>
<path transform="matrix(0,-1.00002,-1.00003,-0,24.130272,17.392853)" d="M1.99252 0-1.19551 1.59401 0 0-1.19551-1.59401"/>
<use data-text="&#x00b5;" xlink:href="#font_1_1" transform="matrix(9.962899,0,0,-9.962799,41.90381,188.86551)"/>
<use data-text="&#x2212;" xlink:href="#font_2_1" transform="matrix(9.962899,0,0,-9.962799,50.121065,188.86551)"/>
<use data-text="2" xlink:href="#font_3_4" transform="matrix(9.962899,0,0,-9.962799,60.08435,188.86551)"/>
<use data-text="&#x03c3;" xlink:href="#font_1_2" transform="matrix(9.962899,0,0,-9.962799,65.065509,188.86551)"/>
<use data-text="&#x00b5;" xlink:href="#font_1_1" transform="matrix(9.962899,0,0,-9.962799,76.77486,188.2565)"/>
<use data-text="&#x2212;" xlink:href="#font_2_1" transform="matrix(9.962899,0,0,-9.962799,84.99211,188.2565)"/>
<use data-text="&#x03c3;" xlink:href="#font_1_2" transform="matrix(9.962899,0,0,-9.962799,94.9554,188.2565)"/>
<use data-text="&#x00b5;" xlink:href="#font_1_1" transform="matrix(9.962899,0,0,-9.962799,118.268108,186.73447)"/>
<use data-text="&#x00b5;" xlink:href="#font_1_1" transform="matrix(9.962899,0,0,-9.962799,141.53479,188.2565)"/>
<use data-text="+" xlink:href="#font_3_3" transform="matrix(9.962899,0,0,-9.962799,149.75205,188.2565)"/>
<use data-text="&#x03c3;" xlink:href="#font_1_2" transform="matrix(9.962899,0,0,-9.962799,159.71533,188.2565)"/>
<use data-text="&#x00b5;" xlink:href="#font_1_1" transform="matrix(9.962899,0,0,-9.962799,171.4237,188.86551)"/>
<use data-text="+" xlink:href="#font_3_3" transform="matrix(9.962899,0,0,-9.962799,179.64096,188.86551)"/>
<use data-text="2" xlink:href="#font_3_4" transform="matrix(9.962899,0,0,-9.962799,189.59387,188.86551)"/>
<use data-text="&#x03c3;" xlink:href="#font_1_2" transform="matrix(9.962899,0,0,-9.962799,194.58539,188.86551)"/>
<g clip-path="url(#clip_4)">
<path transform="matrix(1.00003,0,0,-1.00002,24.130272,176.79927)" stroke-width=".3985" stroke-linecap="butt" stroke-miterlimit="10" stroke-linejoin="miter" fill="none" stroke="#000000" d="M0 1.62563 1.96216 1.94643 3.9243 2.32147 5.88649 2.75883 7.84863 3.2671 9.81082 3.85397 11.773 4.52989 13.73515 5.30475 15.69733 6.1899 17.65947 7.19588 19.62166 8.33377 21.58382 9.61777 23.54597 11.05873 25.50815 12.66727 27.4703 14.45895 29.43248 16.43419 31.39467 18.6293 33.35681 21.02931 35.31898 23.64885 37.28114 26.50252 39.24332 29.59032 41.20549 32.9123 43.16763 36.48302 45.12982 40.28792 47.09196 44.31232 49.05415 48.5855 51.01633 53.06357 52.97847 57.73186 54.94066 62.59042 56.9028 67.62459 58.86499 72.77582 60.82715 78.02951 62.7893 83.37099 64.75148 88.74173 66.71364 94.11246 68.67581 99.43933 70.63799 104.69298 72.60014 109.81496 74.56232 114.7613 76.52448 119.5028 78.48665 123.96625 80.44882 128.13697 82.41096 131.9565 84.37315 135.39554 86.3353 138.41017 88.29747 140.98578 90.25966 143.07849 92.2218 144.65898 94.18399 145.72727 96.14613 146.26874H98.10832L100.07048 145.74192 102.03262 144.67362 103.99481 143.0931 105.95695 141.00045 107.91914 138.43944 109.88132 135.42478 111.84348 132.0004 113.80565 128.18087 115.7678 124.01015 117.72998 119.5467 119.69214 114.8052 121.6543 109.85887 123.61647 104.73691 125.57863 99.49786 127.5408 94.17102 129.50299 88.80025 131.46514 83.41487 133.42733 78.08804 135.38947 72.81972 137.35164 67.6685 139.31381 62.64896 141.27596 57.79042 143.23815 53.10745 145.20029 48.62941 147.16248 44.35622 149.12465 40.31718 151.0868 36.51228 153.04898 32.95619 155.01113 29.61958 156.97332 26.53178 158.93547 23.67809 160.89763 21.04396 162.8598 18.64395 164.82196 16.46344 166.78414 14.47636 168.74633 12.68507 170.70847 11.07419 172.67064 9.63034 174.6328 8.3471 176.59497 7.20595 178.55715 6.19917 180.51929 5.31328 182.48148 4.53677 184.44362 3.85974 186.4058 3.272 188.36798 2.76352 190.33013 2.32541 192.29232 1.94974 194.25446 1.62874"/>
</g>
<use data-text="x" xlink:href="#font_1_4" transform="matrix(9.962899,0,0,-9.962799,221.9302,184.60843)"/>
<use data-text="f" xlink:href="#font_1_3" transform="matrix(9.962899,0,0,-9.962799,1.2165833,9.389908)"/>
<use data-text="(" xlink:href="#font_3_1" transform="matrix(9.962899,0,0,-9.962799,7.1667635,9.389908)"/>
<use data-text="x" xlink:href="#font_1_4" transform="matrix(9.962899,0,0,-9.962799,11.041885,9.389908)"/>
<use data-text=")" xlink:href="#font_3_2" transform="matrix(9.962899,0,0,-9.962799,16.736054,9.389908)"/>
</svg>
