<svg xmlns="http://www.w3.org/2000/svg" xmlns:xlink="http://www.w3.org/1999/xlink" xmlns:inkscape="http://www.inkscape.org/namespaces/inkscape" version="1.1" width="229" height="191" viewBox="0 0 229 191">
<defs>
<path id="font_1_1" d="M.35699464 .29231263C.397995 .18730164 .44599916 .034301759 .46199037 .011291504 .47799684-.010696411 .48799134-.010696411 .5149994-.010696411H.5369873C.5469971-.00970459 .5479889-.0037078858 .5479889-.0007019043 .5479889 .0023040772 .54599 .0043029787 .54299929 .008300781 .5329895 .019302369 .5269928 .034301759 .519989 .05430603L.31599427 .62332156C.29499818 .68133547 .24099732 .69433596 .19400025 .69433596 .18899536 .69433596 .17599488 .69433596 .17599488 .68333438 .17599488 .6753235 .18399048 .6733246 .18499756 .6733246 .21798706 .6673279 .22499085 .6613312 .25 .59332278L.34700013 .32130433 .070999149 .047302247C.05899048 .03529358 .052993776 .029296875 .052993776 .016296387 .052993776-.0007019043 .066986087-.0126953129 .08299255-.0126953129 .09899902-.0126953129 .10798645-.0017089844 .115997318 .008300781L.35699464 .29231263Z"/>
<path id="font_2_1" d="M.33499146 .63612368C.33499146 .6630554 .33299256 .6640625 .30499269 .6640625 .24099732 .6014404 .1499939 .6004486 .10899353 .6004486V.5644531C.1329956 .5644531 .19898987 .5644531 .2539978 .592453V.08203125C.2539978 .04899597 .2539978 .035995485 .1539917 .035995485H.115997318V0C.13398743 .0009918213 .25698854 .0039978029 .2939911 .0039978029 .32499696 .0039978029 .45098878 .0009918213 .47299195 0V.035995485H.43499757C.33499146 .035995485 .33499146 .04899597 .33499146 .08203125V.63612368Z"/>
<path id="font_3_1" d="M.4039917 .28630067C.45399476 .17228699 .5109863 .027267456 .5219879 .014266968 .54100039-.009719849 .5589905-.009719849 .57499697-.009719849H.59498599C.6139984-.009719849 .6239929-.009719849 .6239929 .0022735596 .6239929 .0072784426 .62098696 .010269165 .61898806 .012268066 .6069946 .023269654 .5970001 .046279909 .59298709 .055282594L.34899903 .63131716C.34199525 .6493225 .32199098 .69433596 .21598816 .69433596 .20399475 .69433596 .18998719 .69433596 .18998719 .68032839 .18998719 .6683197 .19999695 .6673279 .20498657 .6663208 .22599793 .6633301 .24499512 .6603241 .269989 .60331729L.3889923 .32330323 .09399414 .057281496C.08198547 .04727173 .07398987 .039276124 .07398987 .022277832 .07398987-.0017242432 .09399414-.01171875 .10798645-.01171875 .1269989-.01171875 .13899231 .0012664795 .14199829 .004272461L.4039917 .28630067Z"/>
<clipPath id="clip_4">
<path transform="matrix(1.00003,0,0,-1.00006,24.130272,176.80782)" d="M0 0H194.27399V161.39575H0Z"/>
</clipPath>
<path id="font_1_3" d="M.33399964 .30233766C.33999635 .32835389 .36299134 .42037965 .43299867 .42037965 .43798829 .42037965 .46199037 .42037965 .48298646 .40734864 .45498658 .402359 .43499757 .37734986 .43499757 .35334779 .43499757 .33735658 .44599916 .31835938 .47299195 .31835938 .49499513 .31835938 .5269928 .3363495 .5269928 .37635804 .5269928 .42837525 .46798707 .4423828 .43399049 .4423828 .37599183 .4423828 .34098817 .38935853 .32899476 .36634828 .3039856 .43237306 .25 .4423828 .22099304 .4423828 .116989139 .4423828 .05999756 .3133545 .05999756 .28834535 .05999756 .27833558 .069992069 .27833558 .07199097 .27833558 .07998657 .27833558 .08299255 .28033448 .084991458 .28933717 .11898804 .39535523 .18499756 .42037965 .21899414 .42037965 .23799134 .42037965 .272995 .4113617 .272995 .35334779 .272995 .32235719 .2559967 .25532533 .21899414 .11528015 .20298767 .053268434 .16799927 .011245728 .12399292 .011245728 .117996219 .011245728 .09498596 .011245728 .07398987 .024276734 .09899902 .029266358 .12098694 .05027771 .12098694 .07827759 .12098694 .105270389 .09899902 .11328125 .083999637 .11328125 .053985597 .11328125 .0289917 .08728027 .0289917 .055267335 .0289917 .009246826 .07899475-.0107421879 .12298584-.0107421879 .18899536-.0107421879 .22499085 .059280397 .22799683 .0652771 .23999024 .028274537 .27598573-.0107421879 .33599855-.0107421879 .43899537-.0107421879 .49598695 .118270877 .49598695 .14328003 .49598695 .1532898 .4869995 .1532898 .48399354 .1532898 .47499085 .1532898 .47299195 .14929199 .47099305 .14228821 .43798829 .03527832 .36999513 .011245728 .33799745 .011245728 .29899598 .011245728 .2829895 .043273927 .2829895 .07727051 .2829895 .09927368 .2889862 .121276859 .2999878 .16529846L.33399964 .30233766Z"/>
<path id="font_1_2" d="M.36698915 .3996582H.45298768C.47299195 .3996582 .48298646 .3996582 .48298646 .41966249 .48298646 .43066407 .47299195 .43066407 .45599366 .43066407H.37298585L.3939972 .5449524C.397995 .5660095 .4119873 .6370239 .41799928 .6490326 .4269867 .66804507 .44400025 .68307498 .46499635 .68307498 .46899415 .68307498 .49499513 .68307498 .5139923 .66503909 .46998597 .661026 .45999146 .6260376 .45999146 .6110382 .45999146 .58802798 .47799684 .57603457 .49699403 .57603457 .522995 .57603457 .5519867 .5980377 .5519867 .6360321 .5519867 .6820679 .5059967 .7050781 .46499635 .7050781 .43099977 .7050781 .36799623 .68707278 .33799745 .58802798 .33198548 .56700137 .32899476 .5569763 .30499269 .43066407H.23599243C.21699524 .43066407 .20599365 .43066407 .20599365 .4116516 .20599365 .3996582 .21499634 .3996582 .23399353 .3996582H.2999878L.22499085 .0048828127C.20698548-.09207153 .18998719-.18309021 .13798523-.18309021 .13398743-.18309021 .10899353-.18309021 .08999634-.16506958 .13598633-.1620636 .14498902-.12606812 .14498902-.111068729 .14498902-.08807373 .1269989-.07606506 .10798645-.07606506 .08198547-.07606506 .052993776-.09806824 .052993776-.13606262 .052993776-.18109131 .09700012-.20507813 .13798523-.20507813 .19299317-.20507813 .23298645-.14607239 .25099183-.108062747 .2829895-.04508972 .30599977 .07583618 .30699159 .082839969L.36698915 .3996582Z"/>
<path id="font_5_1" d="M.33099366-.2400055C.33099366-.23701477 .33099366-.23500061 .31399537-.21800232 .18899536-.0920105 .15699768 .09700012 .15699768 .25 .15699768 .42399598 .19499207 .59799197 .31799317 .72299197 .33099366 .73498538 .33099366 .7369995 .33099366 .73999026 .33099366 .746994 .32699586 .75 .32099916 .75 .31098939 .75 .22099304 .6819916 .1619873 .5549927 .11099243 .44499208 .09899902 .33399964 .09899902 .25 .09899902 .17199707 .10998535 .050994874 .16499329-.06201172 .22499085-.18501282 .31098939-.25 .32099916-.25 .32699586-.25 .33099366-.24700928 .33099366-.2400055Z"/>
<path id="font_5_2" d="M.2889862 .25C.2889862 .32798768 .27799989 .44898988 .22299195 .56199648 .16299439 .68499758 .07699585 .75 .066986087 .75 .06098938 .75 .056991579 .74598696 .056991579 .73999026 .056991579 .7369995 .056991579 .73498538 .07598877 .71699526 .17399597 .6179962 .23098755 .45899964 .23098755 .25 .23098755 .07899475 .19400025-.09700012 .069992069-.2230072 .056991579-.23500061 .056991579-.23701477 .056991579-.2400055 .056991579-.2460022 .06098938-.25 .066986087-.25 .07699585-.25 .16699219-.18200684 .22599793-.055007936 .2769928 .054992677 .2889862 .16600037 .2889862 .25Z"/>
</defs>
<path transform="matrix(1.00003,0,0,-1.00006,24.130272,176.80782)" stroke-width=".19925" stroke-linecap="butt" stroke-miterlimit="10" stroke-linejoin="miter" fill="none" stroke="#7f807f" d="M80.9475-2.12585V2.12585"/>
<path transform="matrix(1.00003,0,0,-1.00006,24.130272,176.80782)" stroke-width=".19925" stroke-linecap="butt" stroke-miterlimit="10" stroke-linejoin="miter" fill="none" stroke="#7f807f" d="M-2.12558 146.7234H2.12558"/>
<path transform="matrix(1.00003,0,0,-1.00006,24.130272,176.80782)" stroke-width=".3985" stroke-linecap="butt" stroke-miterlimit="10" stroke-linejoin="miter" fill="none" stroke="#000000" d="M0 0H192.28145"/>
<path transform="matrix(1.00003,0,0,-1.00006,216.41751,176.80782)" d="M1.99252 0-1.19551 1.59401 0 0-1.19551-1.59401"/>
<path transform="matrix(1.00003,0,0,-1.00006,24.130272,176.80782)" stroke-width=".3985" stroke-linecap="butt" stroke-miterlimit="10" stroke-linejoin="miter" fill="none" stroke="#000000" d="M0 0V159.40323"/>
<path transform="matrix(0,-1.00006,-1.00003,-0,24.130272,17.395035)" d="M1.99252 0-1.19551 1.59401 0 0-1.19551-1.59401"/>
<use data-text="&#x03bb;" xlink:href="#font_1_1" transform="matrix(9.962899,0,0,-9.963197,102.174617,189.37258)"/>
<use data-text="1" xlink:href="#font_2_1" transform="matrix(6.9740097,0,0,-6.9742186,12.9409489,28.642945)"/>
<path transform="matrix(1.00003,0,0,-1.00006,-123.99817,-115.3667)" stroke-width=".3985" stroke-linecap="butt" stroke-miterlimit="10" stroke-linejoin="miter" fill="none" stroke="#000000" d="M136.558-145.433H141.283"/>
<use data-text="&#x03bb;" xlink:href="#font_3_1" transform="matrix(6.9740097,0,0,-6.9742186,12.563934,36.001375)"/>
<g clip-path="url(#clip_4)">
<path transform="matrix(1.00003,0,0,-1.00006,24.130272,176.80782)" stroke-width=".3985" stroke-linecap="butt" stroke-miterlimit="10" stroke-linejoin="miter" fill="none" stroke="#000000" d="M0 146.7234 1.96216 143.20206 3.9243 139.76869 5.88649 136.42342 7.84863 133.16616 9.81082 129.96759 11.773 126.85707 13.73515 123.81989 15.69733 120.85605 17.65947 117.96559 19.62166 115.13385 21.58382 112.37544 23.54597 109.6904 25.50815 107.06406 27.4703 104.4964 29.43248 101.98743 31.39467 99.55183 33.35681 97.16023 35.31898 94.84201 37.28114 92.5678 39.24332 90.35226 41.20549 88.18077 43.16763 86.06793 45.12982 84.01381 47.09196 82.00371 49.05415 80.03761 51.01633 78.11554 52.97847 76.25214 54.94066 74.4181 56.9028 72.64273 58.86499 70.89674 60.82715 69.20941 62.7893 67.55142 64.75148 65.9228 66.71364 64.35287 68.67581 62.81227 70.63799 61.30103 72.60014 59.83379 74.56232 58.39592 76.52448 57.00204 78.48665 55.6375 80.44882 54.3023 82.41096 53.01115 84.37315 51.73465 86.3353 50.50218 88.29747 49.28438 90.25966 48.11058 92.2218 46.95149 94.18399 45.8364 96.14613 44.73596 98.10832 43.66486 100.07048 42.60844 102.03262 41.59608 103.99481 40.59834 105.95695 39.62997 107.91914 38.67627 109.88132 37.75192 111.84348 36.84222 113.80565 35.96188 115.7678 35.09622 117.72998 34.25992 119.69214 33.43823 121.6543 32.63129 123.61647 31.85365 125.57863 31.09068 127.5408 30.34238 129.50299 29.62344 131.46514 28.91919 133.42733 28.21489 135.38947 27.53998 137.35164 26.87971 139.31381 26.23413 141.27596 25.6179 143.23815 25.00163 145.20029 24.4001 147.16248 23.81319 149.12465 23.24098 151.0868 22.68344 153.04898 22.14055 155.01113 21.61234 156.97332 21.09882 158.93547 20.58528 160.89763 20.10109 162.8598 19.6169 164.82196 19.1474 166.78414 18.69255 168.74633 18.2377 170.70847 17.79755 172.67064 17.37204 174.6328 16.9612 176.59497 16.55038 178.55715 16.15422 180.51929 15.77277 182.48148 15.39128 184.44362 15.02448 186.4058 14.66891 188.36798 14.31743 190.33013 13.97472 192.29232 13.63997 194.25446 13.3132"/>
</g>
<use data-text="x" xlink:href="#font_1_3" transform="matrix(9.962899,0,0,-9.963197,221.9302,184.61728)"/>
<use data-text="f" xlink:href="#font_1_2" transform="matrix(9.962899,0,0,-9.963197,1.2165833,9.391769)"/>
<use data-text="(" xlink:href="#font_5_1" transform="matrix(9.962899,0,0,-9.963197,7.1667635,9.391769)"/>
<use data-text="x" xlink:href="#font_1_3" transform="matrix(9.962899,0,0,-9.963197,11.041885,9.391769)"/>
<use data-text=")" xlink:href="#font_5_2" transform="matrix(9.962899,0,0,-9.963197,16.736054,9.391769)"/>
</svg>
